<svg xmlns="http://www.w3.org/2000/svg" width="16" height="16" fill="none" viewBox="0 0 16 16">
  <g class="angular" clip-path="url(#a)">
    <path fill="#ED145B" d="M15.32 2.83c-.25 2.24-.49 4.34-.73 6.43-.11.92-.23 1.83-.31 2.75a.689.689 0 0 1-.4.62l-5.65 3.1a.6.6 0 0 1-.49 0c-1.9-1-3.8-2.08-5.68-3.15a.78.78 0 0 1-.35-.53c-.34-2.74-.64-5.49-1-8.24-.1-1.11-.12-1.1.95-1.49 2-.71 4-1.43 6-2.13.199-.06.411-.06.61 0 2.247.773 4.49 1.57 6.73 2.39.123.06.232.146.32.25Zm-2.73 9.31L8 1.8 3.38 12.14h1.38a.41.41 0 0 0 .48-.32c.207-.58.437-1.15.69-1.71.05-.11.2-.27.31-.27h3.69c.27.69.53 1.35.82 2 .05.12.2.28.31.28.48.04.94.02 1.53.02ZM8 5.18 6.65 8.39h2.66L8 5.18Z" class="icons06"/>
  </g>
</svg>