<svg xmlns="http://www.w3.org/2000/svg" width="16" height="16" fill="none" viewBox="0 0 16 16">
  <g class="customization" clip-path="url(#a)">
    <g class="customization">
      <path fill="#00A99D" d="M15.25 3.58 13.73 5.1a1.6 1.6 0 0 1-2.24 0l-.56-.56a1.6 1.6 0 0 1 0-2.24L12.45.78a3.91 3.91 0 0 0-3.92.94 3.9 3.9 0 0 0-.93 3.93l-.12.1-6.6 6.6a1.58 1.58 0 0 0 0 2.24l.56.56a1.58 1.58 0 0 0 2.24 0l6.6-6.6a1.25 1.25 0 0 0 .09-.12 3.91 3.91 0 0 0 3.94-.93 3.91 3.91 0 0 0 .94-3.92ZM3 14.1A.76.76 0 1 1 1.951 13a.76.76 0 0 1 1.05 1.1Z" class="icons04"/>
    </g>
  </g>
</svg>