<svg width="25" height="24" viewBox="0 0 25 24" fill="none" xmlns="http://www.w3.org/2000/svg">
<path d="M8.48087 3.00037H4.32702C4.13584 3.00037 3.98087 3.15534 3.98087 3.34652V7.50037C3.98087 7.69154 4.13584 7.84652 4.32702 7.84652H8.48087C8.67204 7.84652 8.82702 7.69154 8.82702 7.50037V3.34652C8.82702 3.15534 8.67204 3.00037 8.48087 3.00037Z" fill="white"/>
<path d="M15.0578 3.00037H10.9039C10.7128 3.00037 10.5578 3.15534 10.5578 3.34652V7.50037C10.5578 7.69154 10.7128 7.84652 10.9039 7.84652H15.0578C15.249 7.84652 15.4039 7.69154 15.4039 7.50037V3.34652C15.4039 3.15534 15.249 3.00037 15.0578 3.00037Z" fill="white"/>
<path d="M21.6347 3.00037H17.4809C17.2897 3.00037 17.1347 3.15534 17.1347 3.34652V7.50037C17.1347 7.69154 17.2897 7.84652 17.4809 7.84652H21.6347C21.8259 7.84652 21.9809 7.69154 21.9809 7.50037V3.34652C21.9809 3.15534 21.8259 3.00037 21.6347 3.00037Z" fill="white"/>
<path d="M8.48087 9.57729H4.32702C4.13584 9.57729 3.98087 9.73226 3.98087 9.92344V14.0773C3.98087 14.2685 4.13584 14.4234 4.32702 14.4234H8.48087C8.67204 14.4234 8.82702 14.2685 8.82702 14.0773V9.92344C8.82702 9.73226 8.67204 9.57729 8.48087 9.57729Z" fill="white"/>
<path d="M15.0578 9.57729H10.9039C10.7128 9.57729 10.5578 9.73226 10.5578 9.92344V14.0773C10.5578 14.2685 10.7128 14.4234 10.9039 14.4234H15.0578C15.249 14.4234 15.4039 14.2685 15.4039 14.0773V9.92344C15.4039 9.73226 15.249 9.57729 15.0578 9.57729Z" fill="white"/>
<path d="M21.6347 9.57729H17.4809C17.2897 9.57729 17.1347 9.73226 17.1347 9.92344V14.0773C17.1347 14.2685 17.2897 14.4234 17.4809 14.4234H21.6347C21.8259 14.4234 21.9809 14.2685 21.9809 14.0773V9.92344C21.9809 9.73226 21.8259 9.57729 21.6347 9.57729Z" fill="white"/>
<path d="M8.48087 16.1542H4.32702C4.13584 16.1542 3.98087 16.3092 3.98087 16.5004V20.6542C3.98087 20.8454 4.13584 21.0004 4.32702 21.0004H8.48087C8.67204 21.0004 8.82702 20.8454 8.82702 20.6542V16.5004C8.82702 16.3092 8.67204 16.1542 8.48087 16.1542Z" fill="white"/>
<path d="M15.0578 16.1542H10.9039C10.7128 16.1542 10.5578 16.3092 10.5578 16.5004V20.6542C10.5578 20.8454 10.7128 21.0004 10.9039 21.0004H15.0578C15.249 21.0004 15.4039 20.8454 15.4039 20.6542V16.5004C15.4039 16.3092 15.249 16.1542 15.0578 16.1542Z" fill="white"/>
<path d="M21.6347 16.1542H17.4809C17.2897 16.1542 17.1347 16.3092 17.1347 16.5004V20.6542C17.1347 20.8454 17.2897 21.0004 17.4809 21.0004H21.6347C21.8259 21.0004 21.9809 20.8454 21.9809 20.6542V16.5004C21.9809 16.3092 21.8259 16.1542 21.6347 16.1542Z" fill="white"/>
</svg>
