<svg xmlns="http://www.w3.org/2000/svg" width="18" height="18" fill="none" viewBox="0 0 18 18">
  <path stroke="#999" stroke-linecap="round" stroke-linejoin="round" stroke-width="1.2" d="M1.8 8.2c-.3.1-.3.6 0 .7l4.9 2c.5.2.8.6 1 1.1l1.4 4.9c.1.3.6.3.7 0l1.4-4.9c.1-.5.5-.9 1-1.1l4.9-2c.3-.1.3-.6 0-.7l-4.9-1.8c-.5-.2-.9-.6-1-1.1L9.9.9c-.1-.3-.6-.3-.7 0L7.8 5.4c-.1.5-.5.9-1 1.1l-5 1.7Z"/>
  <path fill="#999" d="M12.022 12.978c-.089 0-.089.178 0 .178l1.511.622c.178.089.267.178.267.355l.444 1.511c0 .09.178.09.178 0l.445-1.51c.089-.178.177-.267.266-.356l1.511-.622c.09 0 .09-.178 0-.178l-1.422-.534c-.178-.088-.266-.177-.266-.355l-.445-1.333c0-.09-.178-.09-.178 0l-.444 1.333a1.225 1.225 0 0 1-.267.355l-1.6.534Z"/>
</svg>
