<svg xmlns="http://www.w3.org/2000/svg" data-scheme="multicolor" viewBox="0 0 16 16"><defs><path id="icon-def" fill="var(--01)" d="M3 6v1H2V6zM2 2v1h1V2zm5.51 10.85h.91L8 11.67zm4-1.36a3 3 0 0 0-.49 0h-.33v.9h.37q.27.036.54 0a.5.5 0 0 0 .21-.16.4.4 0 0 0 .07-.25.4.4 0 0 0-.1-.28.44.44 0 0 0-.28-.21zM16 9.11 9.61 16H3.27V9.1zm-9.77 4.07a.9.9 0 0 0-.13-.51 1 1 0 0 0-.37-.32 3.7 3.7 0 0 0-.73-.23 1.8 1.8 0 0 1-.62-.21.23.23 0 0 1 0-.39.76.76 0 0 1 .46-.12.68.68 0 0 1 .42.11.52.52 0 0 1 .19.35h.67a.89.89 0 0 0-.33-.7 1.44 1.44 0 0 0-1-.27 1.8 1.8 0 0 0-.59.11.93.93 0 0 0-.42.33.75.75 0 0 0-.14.45.81.81 0 0 0 .3.64 2 2 0 0 0 .76.32l.54.13a.6.6 0 0 1 .25.14.32.32 0 0 1 .07.19.4.4 0 0 1-.17.31.75.75 0 0 1-.49.13.74.74 0 0 1-.49-.15.73.73 0 0 1-.24-.49l-.66.06c.025.316.172.61.41.82a1.53 1.53 0 0 0 1 .27c.248.01.496-.027.73-.11a1 1 0 0 0 .45-.36.9.9 0 0 0 .13-.5m3.43.93-1.34-3.18h-.71l-1.3 3.18H7l.27-.72h1.37l.29.72zm2.8-1.71a1 1 0 0 0 .11-.49 1 1 0 0 0-.19-.62.9.9 0 0 0-.49-.32 4.5 4.5 0 0 0-.8 0H10v3.18h.67v-1.2h.44q.352.006.7-.05a.8.8 0 0 0 .35-.15.87.87 0 0 0 .3-.35M2.27 13H1a1 1 0 0 1-1-1V9a1 1 0 0 1 .15-.5A1 1 0 0 1 0 8V5a1 1 0 0 1 .16-.51A1.06 1.06 0 0 1 0 4V1a1 1 0 0 1 1-1h12a1 1 0 0 1 1 1v3a1.06 1.06 0 0 1-.16.52A1 1 0 0 1 14 5v3h-1V5H1v3h1.27v1H1v3h1.27zM1 4h12V1H1z"/></defs><view id="enabled" viewBox="0 0 16 16"/><use href="#icon-def" style="--01:#4ba3d4"/><view id="hover" viewBox="16 0 16 16"/><use x="16" href="#icon-def" style="--01:#6abee0"/><view id="active" viewBox="32 0 16 16"/><use x="32" href="#icon-def" style="--01:#4497c6"/><view id="disabled" viewBox="48 0 16 16"/><use x="48" href="#icon-def" style="--01:#3e3f42"/></svg>