<svg xmlns="http://www.w3.org/2000/svg" width="46" height="47" fill="none" viewBox="0 0 46 47">
  <g class="object-path">
    <g class="icon-group">
      <path fill="#CCC" fill-rule="evenodd" d="M3.5 11A4.5 4.5 0 0 1 8 6.5h9.846a4.5 4.5 0 0 1 4.5 4.5v9.846a4.5 4.5 0 0 1-4.5 4.5H8a4.5 4.5 0 0 1-4.5-4.5V11Zm5 .5v8.846h8.846V11.5H8.5Z" class="gx-blue" clip-rule="evenodd"/>
      <path fill="#CCC" fill-rule="evenodd" d="M17.538 32.27a2.115 2.115 0 1 0 0 4.23 2.115 2.115 0 0 0 0-4.23Zm-7.115 2.114a7.115 7.115 0 1 1 14.23 0 7.115 7.115 0 0 1-14.23 0Z" class="gx-orange" clip-rule="evenodd"/>
      <path fill="#CCC" fill-rule="evenodd" d="M33.692 20.154a4.423 4.423 0 1 0 0 8.846 4.423 4.423 0 0 0 0-8.846Zm-9.423 4.423a9.423 9.423 0 0 1 9.423-9.423 9.423 9.423 0 1 1-9.423 9.423Z" class="gx-green" clip-rule="evenodd"/>
    </g>
  </g>
</svg>
