<svg viewBox="0 0 16 16" xmlns="http://www.w3.org/2000/svg" data-scheme="monochrome"><defs><g id="icon-def"><path stroke="var(--color)" stroke-miterlimit="10" stroke-width="1.2" d="M4.444.889H1.156c-.178 0-.267.089-.267.267v3.288c0 .178.089.356.267.356h3.288a.382.382 0 0 0 .356-.356V1.156c0-.178-.178-.267-.356-.267Zm5.334 0H6.4c-.178 0-.267.089-.267.267v3.288c0 .178.178.356.267.356h3.289c.178 0 .267-.089.267-.267V1.156c.088-.178-.09-.267-.178-.267Zm5.244 0h-3.289c-.177 0-.266.089-.266.267v3.288c0 .178.089.267.266.267h3.29c.177 0 .266-.089.266-.267V1.156c0-.178-.178-.267-.267-.267ZM4.444 6.133H1.156c-.178 0-.267.09-.267.267v3.289c0 .178.089.267.267.267h3.288c.178 0 .267-.09.267-.267V6.4c.089-.089-.089-.267-.267-.267Zm5.334 0H6.4c-.178 0-.267.09-.267.267v3.289c0 .178.09.267.267.267h3.289c.178 0 .267-.09.267-.267V6.4c.088-.089-.09-.267-.178-.267Zm5.244 0h-3.289c-.177 0-.266.09-.266.267v3.289c0 .178.089.267.266.267h3.29c.177 0 .266-.09.266-.267V6.4c0-.089-.178-.267-.267-.267ZM4.444 11.378H1.156c-.178 0-.267.089-.267.266v3.29c0 .177.089.266.267.266h3.288c.178 0 .267-.089.267-.267v-3.289c.089-.088-.089-.266-.267-.266Zm5.334 0H6.4c-.178 0-.267.089-.267.266v3.29c0 .177.09.266.267.266h3.289c.178 0 .267-.089.267-.267v-3.289c.088-.088-.09-.266-.178-.266Zm5.244 0h-3.289c-.177 0-.266.089-.266.266v3.29c0 .177.089.266.266.266h3.29c.177 0 .266-.089.266-.267v-3.289c0-.088-.178-.266-.267-.266Z" fill="transparent"/></g></defs><view id="primary" viewBox="0 0 16 16"/><use href="#icon-def" x="0" y="0" style="--color:#5BA7FF"/><view id="primary-hover" viewBox="16 0 16 16"/><use href="#icon-def" x="16" y="0" style="--color:#437DC0"/><view id="primary-active" viewBox="32 0 16 16"/><use href="#icon-def" x="32" y="0" style="--color:#335884"/><view id="primary-disabled" viewBox="48 0 16 16"/><use href="#icon-def" x="48" y="0" style="--color:#333333"/><view id="on-primary" viewBox="64 0 16 16"/><use href="#icon-def" x="64" y="0" style="--color:#1A1A1A"/><view id="on-primary-hover" viewBox="80 0 16 16"/><use href="#icon-def" x="80" y="0" style="--color:#437DC0"/><view id="on-primary-active" viewBox="96 0 16 16"/><use href="#icon-def" x="96" y="0" style="--color:#FFFFFF"/><view id="on-disabled" viewBox="112 0 16 16"/><use href="#icon-def" x="112" y="0" style="--color:#666666"/><view id="neutral" viewBox="128 0 16 16"/><use href="#icon-def" x="128" y="0" style="--color:#B3B3B3"/></svg>