<svg viewBox="0 0 18 18" xmlns="http://www.w3.org/2000/svg" data-scheme="monochrome"><defs><g id="icon-def"><path stroke="var(--color)" stroke-linecap="square" stroke-linejoin="round" stroke-width="1.2" d="M10 1H1v16h9V1Zm0 7h7v9h-7zM7 4h1M3 4h1m3 3h1M3 7h1m3 3h1m-5 0h1m3 3h1m-5 0h1m8-2h1m-1 3h1m1-3h1m-1 3h1" fill="transparent"/></g></defs><view id="primary" viewBox="0 0 18 18"/><use href="#icon-def" x="0" y="0" style="--color:#5BA7FF"/><view id="primary-hover" viewBox="18 0 18 18"/><use href="#icon-def" x="18" y="0" style="--color:#437DC0"/><view id="primary-active" viewBox="36 0 18 18"/><use href="#icon-def" x="36" y="0" style="--color:#335884"/><view id="primary-disabled" viewBox="54 0 18 18"/><use href="#icon-def" x="54" y="0" style="--color:#333333"/><view id="on-primary" viewBox="72 0 18 18"/><use href="#icon-def" x="72" y="0" style="--color:#1A1A1A"/><view id="on-primary-hover" viewBox="90 0 18 18"/><use href="#icon-def" x="90" y="0" style="--color:#437DC0"/><view id="on-primary-active" viewBox="108 0 18 18"/><use href="#icon-def" x="108" y="0" style="--color:#FFFFFF"/><view id="on-disabled" viewBox="126 0 18 18"/><use href="#icon-def" x="126" y="0" style="--color:#666666"/><view id="neutral" viewBox="144 0 18 18"/><use href="#icon-def" x="144" y="0" style="--color:#B3B3B3"/></svg>