<svg viewBox="0 0 16 16" xmlns="http://www.w3.org/2000/svg" data-scheme="monochrome"><defs><g id="icon-def"><path stroke="var(--color)" stroke-linecap="round" stroke-linejoin="round" stroke-width="1.2" d="m5.511 10.578 7.822-9.69m-10.666 0 7.822 9.69m-9.6 1.866c0 .356.089.712.178.978.177.356.355.622.622.89.267.266.533.444.889.621.355.178.71.178.978.178.355 0 .71-.089.977-.178a3.19 3.19 0 0 0 .89-.622c.266-.267.444-.533.621-.889.178-.355.178-.71.178-.978 0-.355-.089-.71-.178-.977a3.19 3.19 0 0 0-.622-.89 3.191 3.191 0 0 0-.889-.621c-.355-.178-.71-.178-.977-.178-.356 0-.712.089-.978.178a3.191 3.191 0 0 0-.89.622 3.19 3.19 0 0 0-.621.889 3.195 3.195 0 0 0-.178.977Zm8.889 0c0 .712.266 1.423.8 1.867.533.533 1.155.8 1.866.8.712 0 1.423-.267 1.867-.8.533-.533.8-1.155.8-1.867 0-.71-.267-1.422-.8-1.866-.533-.534-1.155-.8-1.867-.8-.71 0-1.422.266-1.866.8-.534.444-.8 1.155-.8 1.866Z" fill="transparent"/></g></defs><view id="primary" viewBox="0 0 16 16"/><use href="#icon-def" x="0" y="0" style="--color:#5BA7FF"/><view id="primary-hover" viewBox="16 0 16 16"/><use href="#icon-def" x="16" y="0" style="--color:#437DC0"/><view id="primary-active" viewBox="32 0 16 16"/><use href="#icon-def" x="32" y="0" style="--color:#335884"/><view id="primary-disabled" viewBox="48 0 16 16"/><use href="#icon-def" x="48" y="0" style="--color:#333333"/><view id="on-primary" viewBox="64 0 16 16"/><use href="#icon-def" x="64" y="0" style="--color:#1A1A1A"/><view id="on-primary-hover" viewBox="80 0 16 16"/><use href="#icon-def" x="80" y="0" style="--color:#437DC0"/><view id="on-primary-active" viewBox="96 0 16 16"/><use href="#icon-def" x="96" y="0" style="--color:#FFFFFF"/><view id="on-disabled" viewBox="112 0 16 16"/><use href="#icon-def" x="112" y="0" style="--color:#666666"/><view id="neutral" viewBox="128 0 16 16"/><use href="#icon-def" x="128" y="0" style="--color:#B3B3B3"/></svg>