<svg viewBox="0 0 18 18" xmlns="http://www.w3.org/2000/svg" data-scheme="monochrome"><defs><g id="icon-def"><path stroke="var(--color)" stroke-linecap="round" stroke-linejoin="round" stroke-width="1.2" d="M1.8 8.2c-.3.1-.3.6 0 .7l4.9 2c.5.2.8.6 1 1.1l1.4 4.9c.1.3.6.3.7 0l1.4-4.9c.1-.5.5-.9 1-1.1l4.9-2c.3-.1.3-.6 0-.7l-4.9-1.8c-.5-.2-.9-.6-1-1.1L9.9.9c-.1-.3-.6-.3-.7 0L7.8 5.4c-.1.5-.5.9-1 1.1l-5 1.7Z" fill="transparent"/><path fill="var(--color)" d="M12.022 12.978c-.089 0-.089.178 0 .178l1.511.622c.178.089.267.178.267.355l.444 1.511c0 .09.178.09.178 0l.445-1.51c.089-.178.177-.267.266-.356l1.511-.622c.09 0 .09-.178 0-.178l-1.422-.534c-.178-.088-.266-.177-.266-.355l-.445-1.333c0-.09-.178-.09-.178 0l-.444 1.333a1.225 1.225 0 0 1-.267.355l-1.6.534Z"/></g></defs><view id="primary" viewBox="0 0 18 18"/><use href="#icon-def" x="0" y="0" style="--color:#5BA7FF"/><view id="primary-hover" viewBox="18 0 18 18"/><use href="#icon-def" x="18" y="0" style="--color:#437DC0"/><view id="primary-active" viewBox="36 0 18 18"/><use href="#icon-def" x="36" y="0" style="--color:#335884"/><view id="primary-disabled" viewBox="54 0 18 18"/><use href="#icon-def" x="54" y="0" style="--color:#333333"/><view id="on-primary" viewBox="72 0 18 18"/><use href="#icon-def" x="72" y="0" style="--color:#1A1A1A"/><view id="on-primary-hover" viewBox="90 0 18 18"/><use href="#icon-def" x="90" y="0" style="--color:#437DC0"/><view id="on-primary-active" viewBox="108 0 18 18"/><use href="#icon-def" x="108" y="0" style="--color:#FFFFFF"/><view id="on-disabled" viewBox="126 0 18 18"/><use href="#icon-def" x="126" y="0" style="--color:#666666"/><view id="neutral" viewBox="144 0 18 18"/><use href="#icon-def" x="144" y="0" style="--color:#B3B3B3"/></svg>