<svg viewBox="0 0 16 16" xmlns="http://www.w3.org/2000/svg" data-scheme="monochrome"><defs><g id="icon-def"><path stroke="var(--color)" stroke-linecap="round" stroke-linejoin="round" stroke-width="1.2" d="M7.267 10.644c-.356-.177-.711-.355-.978-.622l-.267-.266a2.95 2.95 0 0 1 0-4.178l3.822-3.822a2.95 2.95 0 0 1 4.178 0l.267.266a2.95 2.95 0 0 1 0 4.178l-1.867 1.867M8.778 5.044c.355.178.71.356.978.623l.266.266a2.95 2.95 0 0 1 0 4.178L6.2 13.933a2.95 2.95 0 0 1-4.178 0l-.266-.266a2.95 2.95 0 0 1 0-4.178l1.866-1.867" fill="transparent"/></g></defs><view id="primary" viewBox="0 0 16 16"/><use href="#icon-def" x="0" y="0" style="--color:#5BA7FF"/><view id="primary-hover" viewBox="16 0 16 16"/><use href="#icon-def" x="16" y="0" style="--color:#437DC0"/><view id="primary-active" viewBox="32 0 16 16"/><use href="#icon-def" x="32" y="0" style="--color:#335884"/><view id="primary-disabled" viewBox="48 0 16 16"/><use href="#icon-def" x="48" y="0" style="--color:#333333"/><view id="on-primary" viewBox="64 0 16 16"/><use href="#icon-def" x="64" y="0" style="--color:#1A1A1A"/><view id="on-primary-hover" viewBox="80 0 16 16"/><use href="#icon-def" x="80" y="0" style="--color:#437DC0"/><view id="on-primary-active" viewBox="96 0 16 16"/><use href="#icon-def" x="96" y="0" style="--color:#FFFFFF"/><view id="on-disabled" viewBox="112 0 16 16"/><use href="#icon-def" x="112" y="0" style="--color:#666666"/><view id="neutral" viewBox="128 0 16 16"/><use href="#icon-def" x="128" y="0" style="--color:#B3B3B3"/></svg>