<svg viewBox="0 0 17 16" xmlns="http://www.w3.org/2000/svg" data-scheme="monochrome"><defs><g id="icon-def"><path stroke="var(--color)" stroke-miterlimit="10" stroke-width="1.2" d="M1.156 12.978h14.31c.178 0 .267-.09.267-.267V2.933c0-.177-.089-.266-.266-.266H1.156c-.178 0-.267.089-.267.266v9.778c0 .178.089.267.267.267Z" fill="transparent"/><path stroke="var(--color)" stroke-miterlimit="10" stroke-width="1.2" d="m1.067 2.933 7.022 4.8c.089.09.178.09.267 0l7.288-5.066" fill="transparent"/></g></defs><view id="primary" viewBox="0 0 17 16"/><use href="#icon-def" x="0" y="0" style="--color:#5BA7FF"/><view id="primary-hover" viewBox="17 0 17 16"/><use href="#icon-def" x="17" y="0" style="--color:#437DC0"/><view id="primary-active" viewBox="34 0 17 16"/><use href="#icon-def" x="34" y="0" style="--color:#335884"/><view id="primary-disabled" viewBox="51 0 17 16"/><use href="#icon-def" x="51" y="0" style="--color:#333333"/><view id="on-primary" viewBox="68 0 17 16"/><use href="#icon-def" x="68" y="0" style="--color:#1A1A1A"/><view id="on-primary-hover" viewBox="85 0 17 16"/><use href="#icon-def" x="85" y="0" style="--color:#437DC0"/><view id="on-primary-active" viewBox="102 0 17 16"/><use href="#icon-def" x="102" y="0" style="--color:#FFFFFF"/><view id="on-disabled" viewBox="119 0 17 16"/><use href="#icon-def" x="119" y="0" style="--color:#666666"/><view id="neutral" viewBox="136 0 17 16"/><use href="#icon-def" x="136" y="0" style="--color:#B3B3B3"/></svg>