<svg viewBox="0 0 16 16" xmlns="http://www.w3.org/2000/svg" data-scheme="monochrome"><defs><g id="icon-def"><path fill="var(--color)" d="M7.2 13.156c0 .8.711 1.51 1.511 1.51.8 0 1.511-.71 1.511-1.51s-.71-1.512-1.51-1.512-1.512.623-1.512 1.512Zm0-10.845c0 .889.711 1.511 1.511 1.511.8 0 1.511-.71 1.511-1.51S9.512.8 8.712.8 7.2 1.511 7.2 2.311Zm0 5.422c0 .89.711 1.511 1.511 1.511.8 0 1.511-.71 1.511-1.51 0-.89-.71-1.512-1.51-1.512S7.2 6.933 7.2 7.733Z"/></g></defs><view id="primary" viewBox="0 0 16 16"/><use href="#icon-def" x="0" y="0" style="--color:#5BA7FF"/><view id="primary-hover" viewBox="16 0 16 16"/><use href="#icon-def" x="16" y="0" style="--color:#437DC0"/><view id="primary-active" viewBox="32 0 16 16"/><use href="#icon-def" x="32" y="0" style="--color:#335884"/><view id="primary-disabled" viewBox="48 0 16 16"/><use href="#icon-def" x="48" y="0" style="--color:#333333"/><view id="on-primary" viewBox="64 0 16 16"/><use href="#icon-def" x="64" y="0" style="--color:#1A1A1A"/><view id="on-primary-hover" viewBox="80 0 16 16"/><use href="#icon-def" x="80" y="0" style="--color:#437DC0"/><view id="on-primary-active" viewBox="96 0 16 16"/><use href="#icon-def" x="96" y="0" style="--color:#FFFFFF"/><view id="on-disabled" viewBox="112 0 16 16"/><use href="#icon-def" x="112" y="0" style="--color:#666666"/><view id="neutral" viewBox="128 0 16 16"/><use href="#icon-def" x="128" y="0" style="--color:#B3B3B3"/></svg>