<svg viewBox="0 0 16 16" xmlns="http://www.w3.org/2000/svg" data-scheme="monochrome"><defs><g id="icon-def"><path stroke="var(--color)" stroke-linecap="square" stroke-linejoin="round" stroke-width="1.2" d="M11.467 2.667h2.666a.81.81 0 0 1 .623.266.807.807 0 0 1 .266.623v9.688c0 .445-.178.89-.533 1.245-.356.355-.8.533-1.245.533m0 0c-.444 0-.888-.178-1.244-.533a1.755 1.755 0 0 1-.533-1.245V1.778a.807.807 0 0 0-.267-.622.807.807 0 0 0-.622-.267h-8.8a.807.807 0 0 0-.622.267.807.807 0 0 0-.267.622v10.578c0 .71.267 1.333.8 1.866.533.534 1.155.8 1.867.8h9.688Zm-8.8-10.578H8M4.444 7.911H8m-3.556 3.556H8" fill="transparent"/></g></defs><view id="primary" viewBox="0 0 16 16"/><use href="#icon-def" x="0" y="0" style="--color:#5BA7FF"/><view id="primary-hover" viewBox="16 0 16 16"/><use href="#icon-def" x="16" y="0" style="--color:#437DC0"/><view id="primary-active" viewBox="32 0 16 16"/><use href="#icon-def" x="32" y="0" style="--color:#335884"/><view id="primary-disabled" viewBox="48 0 16 16"/><use href="#icon-def" x="48" y="0" style="--color:#333333"/><view id="on-primary" viewBox="64 0 16 16"/><use href="#icon-def" x="64" y="0" style="--color:#1A1A1A"/><view id="on-primary-hover" viewBox="80 0 16 16"/><use href="#icon-def" x="80" y="0" style="--color:#437DC0"/><view id="on-primary-active" viewBox="96 0 16 16"/><use href="#icon-def" x="96" y="0" style="--color:#FFFFFF"/><view id="on-disabled" viewBox="112 0 16 16"/><use href="#icon-def" x="112" y="0" style="--color:#666666"/><view id="neutral" viewBox="128 0 16 16"/><use href="#icon-def" x="128" y="0" style="--color:#B3B3B3"/></svg>