<svg viewBox="0 0 18 18" xmlns="http://www.w3.org/2000/svg" data-scheme="monochrome"><defs><g id="icon-def"><path stroke="var(--color)" stroke-linecap="round" stroke-linejoin="round" stroke-width="1.2" d="M8.1 1H1v7.1h7.1V1Zm0 8.9H1V17h7.1V9.9ZM17 1H9.9v7.1H17V1Z" fill="transparent"/><path fill="var(--color)" d="M11.7 9.9H9.9v1.8h1.8V9.9Z"/><path fill="var(--color)" d="M13.5 11.7h-1.8v1.8h1.8v-1.8Zm-1.8 1.8H9.9v1.8h1.8v-1.8Zm3.6 0h-1.8v1.8h1.8v-1.8Zm1.8 1.8h-1.8v1.8h1.8v-1.8Zm-3.6 0h-1.8v1.8h1.8v-1.8Zm1.8-5.4h-1.8v1.8h1.8V9.9Zm1.8 1.8h-1.8v1.8h1.8v-1.8Z"/></g></defs><view id="primary" viewBox="0 0 18 18"/><use href="#icon-def" x="0" y="0" style="--color:#5BA7FF"/><view id="primary-hover" viewBox="18 0 18 18"/><use href="#icon-def" x="18" y="0" style="--color:#437DC0"/><view id="primary-active" viewBox="36 0 18 18"/><use href="#icon-def" x="36" y="0" style="--color:#335884"/><view id="primary-disabled" viewBox="54 0 18 18"/><use href="#icon-def" x="54" y="0" style="--color:#333333"/><view id="on-primary" viewBox="72 0 18 18"/><use href="#icon-def" x="72" y="0" style="--color:#1A1A1A"/><view id="on-primary-hover" viewBox="90 0 18 18"/><use href="#icon-def" x="90" y="0" style="--color:#437DC0"/><view id="on-primary-active" viewBox="108 0 18 18"/><use href="#icon-def" x="108" y="0" style="--color:#FFFFFF"/><view id="on-disabled" viewBox="126 0 18 18"/><use href="#icon-def" x="126" y="0" style="--color:#666666"/><view id="neutral" viewBox="144 0 18 18"/><use href="#icon-def" x="144" y="0" style="--color:#B3B3B3"/></svg>