<svg viewBox="0 0 17 16" xmlns="http://www.w3.org/2000/svg" data-scheme="monochrome"><defs><g id="icon-def"><path stroke="var(--color)" stroke-linecap="square" stroke-linejoin="round" stroke-width="1.2" d="M10.311 7.999c0 .622-.267 1.155-.622 1.51a2.082 2.082 0 0 1-1.511.623 2.144 2.144 0 0 1-1.511-.622 1.899 1.899 0 0 1-.711-1.511c0-.623.266-1.156.622-1.511a2.082 2.082 0 0 1 1.51-.623c.623 0 1.156.267 1.512.623.533.444.711.977.711 1.51Z" fill="transparent"/><path stroke="var(--color)" stroke-linecap="square" stroke-linejoin="round" stroke-width="1.2" d="M.889 7.999C2.044 5.065 4.8 2.932 8.178 2.932c3.378 0 6.133 2.133 7.289 5.067-1.156 3.022-3.911 5.066-7.29 5.066C4.8 13.155 2.045 11.021.89 8Z" fill="transparent"/></g></defs><view id="primary" viewBox="0 0 17 16"/><use href="#icon-def" x="0" y="0" style="--color:#5BA7FF"/><view id="primary-hover" viewBox="17 0 17 16"/><use href="#icon-def" x="17" y="0" style="--color:#437DC0"/><view id="primary-active" viewBox="34 0 17 16"/><use href="#icon-def" x="34" y="0" style="--color:#335884"/><view id="primary-disabled" viewBox="51 0 17 16"/><use href="#icon-def" x="51" y="0" style="--color:#333333"/><view id="on-primary" viewBox="68 0 17 16"/><use href="#icon-def" x="68" y="0" style="--color:#1A1A1A"/><view id="on-primary-hover" viewBox="85 0 17 16"/><use href="#icon-def" x="85" y="0" style="--color:#437DC0"/><view id="on-primary-active" viewBox="102 0 17 16"/><use href="#icon-def" x="102" y="0" style="--color:#FFFFFF"/><view id="on-disabled" viewBox="119 0 17 16"/><use href="#icon-def" x="119" y="0" style="--color:#666666"/><view id="neutral" viewBox="136 0 17 16"/><use href="#icon-def" x="136" y="0" style="--color:#B3B3B3"/></svg>