<svg viewBox="0 0 16 17" xmlns="http://www.w3.org/2000/svg" data-scheme="monochrome"><defs><g id="icon-def"><path stroke="var(--color)" stroke-linecap="square" stroke-linejoin="round" stroke-width="1.2" d="M11.2 15.756c-1.067-.89-3.644-4.267-3.644-4.267s-2.756.711-4.89-.8c-3.288-2.311-1.6-5.778-1.6-5.778l2.756 2.667 2.49-.356.177-2.489-2.667-2.755S7.29.288 9.6 3.578c1.511 2.222.8 4.889.8 4.889s3.378 2.577 4.267 3.644c.444.533 1.244 1.778-.267 3.378-1.511 1.6-2.667.711-3.2.267Z" fill="transparent"/></g></defs><view id="primary" viewBox="0 0 16 17"/><use href="#icon-def" x="0" y="0" style="--color:#5BA7FF"/><view id="primary-hover" viewBox="16 0 16 17"/><use href="#icon-def" x="16" y="0" style="--color:#437DC0"/><view id="primary-active" viewBox="32 0 16 17"/><use href="#icon-def" x="32" y="0" style="--color:#335884"/><view id="primary-disabled" viewBox="48 0 16 17"/><use href="#icon-def" x="48" y="0" style="--color:#333333"/><view id="on-primary" viewBox="64 0 16 17"/><use href="#icon-def" x="64" y="0" style="--color:#1A1A1A"/><view id="on-primary-hover" viewBox="80 0 16 17"/><use href="#icon-def" x="80" y="0" style="--color:#437DC0"/><view id="on-primary-active" viewBox="96 0 16 17"/><use href="#icon-def" x="96" y="0" style="--color:#FFFFFF"/><view id="on-disabled" viewBox="112 0 16 17"/><use href="#icon-def" x="112" y="0" style="--color:#666666"/><view id="neutral" viewBox="128 0 16 17"/><use href="#icon-def" x="128" y="0" style="--color:#B3B3B3"/></svg>