<svg xmlns="http://www.w3.org/2000/svg" data-scheme="multicolor" viewBox="0 0 16 16"><defs><path id="icon-def" fill="var(--01)" d="M10.9 7.17h-.05v-.84a3 3 0 0 0-6 0v.84a.38.38 0 0 0-.38.38V12a.38.38 0 0 0 .38.38h6.05a.38.38 0 0 0 .38-.38V7.55a.38.38 0 0 0-.38-.38M8.36 9.63v1.2a.17.17 0 0 1-.17.16h-.64a.16.16 0 0 1-.16-.16v-1.2a.56.56 0 0 1-.12-.34.6.6 0 1 1 1.2 0 .55.55 0 0 1-.11.34m1.49-2.46h-4v-.84a2 2 0 1 1 4 0z"/></defs><view id="enabled" viewBox="0 0 16 16"/><use href="#icon-def" style="--01:#4ba3d4"/><view id="hover" viewBox="16 0 16 16"/><use x="16" href="#icon-def" style="--01:#6abee0"/><view id="active" viewBox="32 0 16 16"/><use x="32" href="#icon-def" style="--01:#4497c6"/><view id="disabled" viewBox="48 0 16 16"/><use x="48" href="#icon-def" style="--01:#3e3f42"/></svg>