<svg xmlns="http://www.w3.org/2000/svg" data-scheme="multicolor" viewBox="0 0 16 16"><defs><path id="icon-def" fill="var(--04)" d="M11 6V2h.5a.5.5 0 0 0 .5-.5v-1a.5.5 0 0 0-.5-.5h-7a.5.5 0 0 0-.5.5v1a.5.5 0 0 0 .5.5H5v4l-5 9a1 1 0 0 0 1 1h14a1 1 0 0 0 1-1zm-9.86 9 4.73-8.51.13-.23V2h4v4.26l.13.23L14.86 15zm11.3-1.64a.63.63 0 0 1-.63.64H4.19a.63.63 0 0 1-.63-.64s1.86-3.44 2.56-4.72c.18-.31.28-.64.63-.64h2.5c.35 0 .45.33.63.64.7 1.28 2.56 4.72 2.56 4.72"/></defs><view id="enabled" viewBox="0 0 16 16"/><use href="#icon-def" style="--04:#7ccdc7"/><view id="hover" viewBox="16 0 16 16"/><use x="16" href="#icon-def" style="--04:#b0e0dd"/><view id="active" viewBox="32 0 16 16"/><use x="32" href="#icon-def" style="--04:#45b9b1"/><view id="disabled" viewBox="48 0 16 16"/><use x="48" href="#icon-def" style="--04:#3e3f42"/></svg>