<svg xmlns="http://www.w3.org/2000/svg" viewBox="0 0 46 47"><defs><path id="a" fill="var(--icon-color)" fill-rule="evenodd" d="M3.5 11A4.5 4.5 0 0 1 8 6.5h9.846a4.5 4.5 0 0 1 4.5 4.5v9.846a4.5 4.5 0 0 1-4.5 4.5H8a4.5 4.5 0 0 1-4.5-4.5zm5 .5v8.846h8.846V11.5zm9.038 20.77a2.115 2.115 0 1 0 0 4.23 2.115 2.115 0 0 0 0-4.23m-7.115 2.114a7.115 7.115 0 1 1 14.23 0 7.115 7.115 0 0 1-14.23 0m23.269-14.23a4.423 4.423 0 1 0 0 8.846 4.423 4.423 0 0 0 0-8.846m-9.423 4.423a9.423 9.423 0 0 1 9.423-9.423 9.423 9.423 0 1 1-9.423 9.423" clip-rule="evenodd"/></defs><view id="enabled" viewBox="$x-enabled$ 0 46 47"/><use x="$x-enabled$" href="#a" style="--a:#4ba3d4;--b:#9e9ecc;--c:#24a19a;--d:#7ccdc7;--e:#a1daa5;--f:#f4608d;--g:#f59065;--h:#fab454;--i:#a4a5a6"/><view id="hover" viewBox="$x-hover$ 0 46 47"/><use x="$x-hover$" href="#a" style="--a:#6abee0;--b:#c4c4e1;--c:#7ec8c5;--d:#b0e0dd;--e:#c6e8c8;--f:#f78ead;--g:#facebc;--h:#fddfb4;--i:#828385"/><view id="active" viewBox="$x-active$ 0 46 47"/><use x="$x-active$" href="#a" style="--a:#4497c6;--b:#7979b8;--c:#009088;--d:#45b9b1;--e:#7bcc81;--f:#f03d73;--g:#f37943;--h:#f9a533;--i:#c6c6c7"/><view id="disabled" viewBox="$x-disabled$ 0 46 47"/><use x="$x-disabled$" href="#a" style="--a:#3e3f42;--b:#3e3f42;--c:#3e3f42;--d:#3e3f42;--e:#3e3f42;--f:#3e3f42;--g:#3e3f42;--h:#3e3f42;--i:#3e3f42"/></svg>