<svg viewBox="0 0 17 17" xmlns="http://www.w3.org/2000/svg" data-scheme="monochrome"><defs><g id="icon-def"><path fill="var(--color)" stroke="var(--color)" stroke-miterlimit="10" stroke-width="1.2" d="M11.292 11.246h3.94v3.94h-3.94z"/><path stroke="var(--color)" stroke-miterlimit="10" stroke-width="1.2" d="M1.872 11.246h3.94v3.94h-3.94zm0-9.671h3.94v3.94h-3.94zm9.063 12.088H6.432m-2.59-2.417V5.515" fill="transparent"/><path fill="var(--color)" fill-rule="evenodd" d="M16.436 3.713h-.76a2.92 2.92 0 0 0-.407-.96l.543-.542a.235.235 0 0 0 0-.344l-.606-.615a.262.262 0 0 0-.353 0l-.534.543a2.994 2.994 0 0 0-.958-.398V.673a.253.253 0 0 0-.245-.253h-.904a.253.253 0 0 0-.208.253v.724c-.34.076-.665.21-.96.398l-.533-.543a.262.262 0 0 0-.353 0l-.606.615a.235.235 0 0 0 0 .344l.543.543c-.192.292-.33.617-.407.959h-.76a.244.244 0 0 0-.244.244v.86a.244.244 0 0 0 .244.243h.76c.079.341.217.666.407.96l-.543.542a.235.235 0 0 0 0 .344l.606.615a.262.262 0 0 0 .353 0l.534-.543c.296.184.62.319.959.398v.76a.244.244 0 0 0 .244.244h.905a.244.244 0 0 0 .244-.244v-.76c.325-.075.636-.2.922-.37l.534.542a.262.262 0 0 0 .353 0l.606-.615a.235.235 0 0 0 0-.344l-.543-.542a3.03 3.03 0 0 0 .407-.96h.76a.244.244 0 0 0 .244-.244v-.886a.244.244 0 0 0-.244-.244Zm-3.754 2.75a2.08 2.08 0 1 1 0-4.162 2.08 2.08 0 0 1 0 4.162Z" clip-rule="evenodd"/></g></defs><view id="on-surface--enabled" viewBox="0 0 17 17"/><use href="#icon-def" x="0" y="0" style="--color:#696969"/><view id="on-surface--hover" viewBox="17 0 17 17"/><use href="#icon-def" x="17" y="0" style="--color:#696969"/><view id="on-surface--active" viewBox="34 0 17 17"/><use href="#icon-def" x="34" y="0" style="--color:#696969"/><view id="on-surface--disabled" viewBox="51 0 17 17"/><use href="#icon-def" x="51" y="0" style="--color:#696969"/><view id="on-primary--enabled" viewBox="0 17 17 17"/><use href="#icon-def" x="0" y="17" style="--color:#CCCCCC"/><view id="on-primary--hover" viewBox="17 17 17 17"/><use href="#icon-def" x="17" y="17" style="--color:#CCCCCC"/><view id="on-primary--active" viewBox="34 17 17 17"/><use href="#icon-def" x="34" y="17" style="--color:#363636"/><view id="on-primary--disabled" viewBox="51 17 17 17"/><use href="#icon-def" x="51" y="17" style="--color:#666666"/><view id="on-disabled--enabled" viewBox="0 34 17 17"/><use href="#icon-def" x="0" y="34" style="--color:#666666"/><view id="on-message--enabled" viewBox="0 51 17 17"/><use href="#icon-def" x="0" y="51" style="--color:#B3B3B3"/><view id="on-elevation--enabled" viewBox="0 68 17 17"/><use href="#icon-def" x="0" y="68" style="--color:#525151"/><view id="primary--enabled" viewBox="0 85 17 17"/><use href="#icon-def" x="0" y="85" style="--color:#2070ce"/><view id="primary--hover" viewBox="17 85 17 17"/><use href="#icon-def" x="17" y="85" style="--color:#437dc0"/><view id="primary--active" viewBox="34 85 17 17"/><use href="#icon-def" x="34" y="85" style="--color:#335884"/><view id="primary--disabled" viewBox="51 85 17 17"/><use href="#icon-def" x="51" y="85" style="--color:#999999"/><view id="neutral--enabled" viewBox="0 153 17 17"/><use href="#icon-def" x="0" y="153" style="--color:#616161"/><view id="neutral--hover" viewBox="17 153 17 17"/><use href="#icon-def" x="17" y="153" style="--color:#437DC0"/><view id="neutral--active" viewBox="34 153 17 17"/><use href="#icon-def" x="34" y="153" style="--color:#363636"/><view id="neutral--disabled" viewBox="51 153 17 17"/><use href="#icon-def" x="51" y="153" style="--color:#666666"/><view id="highlighted--enabled" viewBox="0 170 17 17"/><use href="#icon-def" x="0" y="170" style="--color:#525151"/><view id="bright--enabled" viewBox="0 187 17 17"/><use href="#icon-def" x="0" y="187" style="--color:#363636"/></svg>