<svg xmlns="http://www.w3.org/2000/svg" viewBox="0 0 16 16"><defs><path id="a" fill="var(--d)" d="M10.88 10.39a1.79 1.79 0 0 0 1.79 1.79 1.76 1.76 0 0 0 1-.33 1.44 1.44 0 0 1 .61-.2 1.22 1.22 0 0 1 1.51 1v2.91a.27.27 0 0 1-.27.27H5.43a.27.27 0 0 1-.26-.27V13a1.28 1.28 0 0 0-1.55-1.31 1.5 1.5 0 0 0-.61.21H3a1.8 1.8 0 0 1-1 .32 1.79 1.79 0 1 1 0-3.61 1.8 1.8 0 0 1 1 .32 1.5 1.5 0 0 0 .61.21 1.27 1.27 0 0 0 1.56-1.31v-2.4a.26.26 0 0 1 .26-.26H7.9a1.31 1.31 0 0 0 1.43-1.56A1.4 1.4 0 0 0 9.12 3a1.73 1.73 0 0 1-.32-1 1.79 1.79 0 0 1 3.58 0 1.73 1.73 0 0 1-.33 1 1.6 1.6 0 0 0-.2.61 1.3 1.3 0 0 0 1.43 1.56h2.27a.27.27 0 0 1 .27.26v2.71a1.21 1.21 0 0 1-1.51 1 1.4 1.4 0 0 1-.61-.21 1.76 1.76 0 0 0-1-.33 1.79 1.79 0 0 0-1.82 1.79"/></defs><view id="enabled" viewBox="0 0 16 16"/><use href="#a" style="--d:#00a99d"/><view id="hover" viewBox="16 0 16 16"/><use x="16" href="#a" style="--d:#7ccdc7"/><view id="active" viewBox="32 0 16 16"/><use x="32" href="#a" style="--d:#00998c"/><view id="disabled" viewBox="48 0 16 16"/><use x="48" href="#a" style="--d:#a4a5a6"/></svg>