<svg xmlns="http://www.w3.org/2000/svg" viewBox="0 0 16 16"><defs><g id="a"><path fill="var(--e)" d="M6.8 6.63a.93.93 0 1 1-.93.93.92.92 0 0 1 .93-.93m5.57.79a13 13 0 0 1 .7 1.15h-2.93c.27-.36.52-.72.74-1.08a15.4 15.4 0 0 0-1.88-2 14.8 14.8 0 0 0-2.67-1.94A14 14 0 0 0 4.81 5a15 15 0 0 0-2 2.77A15.5 15.5 0 0 0 5 10.19a14 14 0 0 0 2 1.51c.21-.15.42-.32.64-.49v2.32l-.61-.33a7.7 7.7 0 0 1-3.9 1.39 2.66 2.66 0 0 1-1.95-.73c-1.17-1.17-1-3.5.18-6C-.1 5.53-.5 3.25.57 2a2.86 2.86 0 0 1 2.23-.84 8.1 8.1 0 0 1 3.39.9 8.5 8.5 0 0 1 4.72-2 2.62 2.62 0 0 1 1.95.73c1.26 1.3.98 3.92-.49 6.63M2.23 9.05c-.73 1.78-.79 3.29-.15 3.93a1.46 1.46 0 0 0 1.07.36 6 6 0 0 0 2.7-.88 17 17 0 0 1-1.7-1.35 16 16 0 0 1-1.92-2.06M5.11 3a6.4 6.4 0 0 0-2.31-.59 1.74 1.74 0 0 0-1.28.43c-.52.6-.39 2 .56 3.76a17 17 0 0 1 1.8-2.42q.6-.66 1.23-1.18M12 1.71a1.46 1.46 0 0 0-1.07-.36A6.87 6.87 0 0 0 7.4 2.72a16.7 16.7 0 0 1 2.46 1.84 17 17 0 0 1 1.67 1.75c1-2.07 1.17-3.88.47-4.6"/><path fill="var(--d)" d="M14.12 11.39v.92h-3.67v-.92Zm0 1.84h-3.67v.92h3.67zM16 15.1v-4.63a.91.91 0 0 0-.91-.9H9.45a.91.91 0 0 0-.91.9v4.63a.9.9 0 0 0 .91.9h5.6a.9.9 0 0 0 .95-.9m-6.46-4.53H15V15H9.54Z"/></g></defs><view id="enabled" viewBox="0 0 16 16"/><use href="#a" style="--d:#00a99d;--e:#39b54a"/><view id="hover" viewBox="16 0 16 16"/><use x="16" href="#a" style="--d:#7ccdc7;--e:#79cc81"/><view id="active" viewBox="32 0 16 16"/><use x="32" href="#a" style="--d:#00998c;--e:#2fa640"/><view id="disabled" viewBox="48 0 16 16"/><use x="48" href="#a" style="--d:#a4a5a6;--e:#a4a5a6"/></svg>