<svg xmlns="http://www.w3.org/2000/svg" viewBox="0 0 16 16"><defs><path id="a" fill="var(--d)" d="M14.68 3.61c.16 0 .33.18.33.45v8.36c0 .27-.17.45-.33.45H5.59a39.4 39.4 0 0 1-4.32-4.35l-.06-.06-.06-.06A.41.41 0 0 1 1 8.07a.39.39 0 0 1 .17-.33h.06l.06-.06a36.6 36.6 0 0 1 4.3-4h9.1m0-1H5.42C4.68 2.61.56 6.94.56 6.94a1.43 1.43 0 0 0 0 2.25s4.16 4.68 4.9 4.68h9.26A1.39 1.39 0 0 0 16 12.42V4.06a1.39 1.39 0 0 0-1.33-1.45ZM6.35 8.19a.36.36 0 1 0-.35.36.36.36 0 0 0 .35-.36M6 6.83a1.36 1.36 0 1 0 1.35 1.36A1.35 1.35 0 0 0 6 6.83"/></defs><view id="enabled" viewBox="0 0 16 16"/><use href="#a" style="--d:#00a99d"/><view id="hover" viewBox="16 0 16 16"/><use x="16" href="#a" style="--d:#7ccdc7"/><view id="active" viewBox="32 0 16 16"/><use x="32" href="#a" style="--d:#00998c"/><view id="disabled" viewBox="48 0 16 16"/><use x="48" href="#a" style="--d:#a4a5a6"/></svg>