<svg xmlns="http://www.w3.org/2000/svg" viewBox="0 0 16 16"><defs><path id="a" d="M15.25 3.58 13.73 5.1a1.6 1.6 0 0 1-2.24 0l-.56-.56a1.6 1.6 0 0 1 0-2.24L12.45.78a3.91 3.91 0 0 0-3.92.94 3.9 3.9 0 0 0-.93 3.93l-.12.1-6.6 6.6a1.58 1.58 0 0 0 0 2.24l.56.56a1.58 1.58 0 0 0 2.24 0l6.6-6.6a1 1 0 0 0 .09-.12 3.91 3.91 0 0 0 3.94-.93 3.91 3.91 0 0 0 .94-3.92M3 14.1A.76.76 0 1 1 3 13a.76.76 0 0 1 0 1.1"/></defs><view id="enabled" viewBox="0 0 16 16"/><use href="#a" style="--d:#00a99d"/><view id="hover" viewBox="16 0 16 16"/><use x="16" href="#a" style="--d:#7ccdc7"/><view id="active" viewBox="32 0 16 16"/><use x="32" href="#a" style="--d:#00998c"/><view id="disabled" viewBox="48 0 16 16"/><use x="48" href="#a" style="--d:#a4a5a6"/></svg>