<svg xmlns="http://www.w3.org/2000/svg" viewBox="0 0 16 16"><defs><g id="a"><path d="M15 6.19 13 8h1v3H2V8h5.75L6.56 7H2V4h4.85V3H2a1 1 0 0 0-1 1v3a.9.9 0 0 0 .17.51A1 1 0 0 0 1 8v3a1 1 0 0 0 .16.5A1 1 0 0 0 1 12v3a1 1 0 0 0 1 1h12a1 1 0 0 0 1-1v-3a1 1 0 0 0-.15-.5A1 1 0 0 0 15 11V8a1.06 1.06 0 0 0-.16-.52 1 1 0 0 0 .16-.55ZM14 15H2v-3h12Zm-.13-12H14a1 1 0 0 1 1 1h-1.13ZM4 13v1H3v-1Zm0-4v1H3V9Z"/><path d="M12.88 1.06v4h2L10.36 9 5.84 5.08h2v-4Z"/></g></defs><view id="enabled" viewBox="0 0 16 16"/><use href="#a" style="--c:#00746b;--e:#39b54a"/><view id="hover" viewBox="16 0 16 16"/><use x="16" href="#a" style="--c:#009187;--e:#79cc81"/><view id="active" viewBox="32 0 16 16"/><use x="32" href="#a" style="--c:#02645b;--e:#2fa640"/><view id="disabled" viewBox="48 0 16 16"/><use x="48" href="#a" style="--c:#a4a5a6;--e:#a4a5a6"/></svg>