<svg xmlns="http://www.w3.org/2000/svg" viewBox="0 0 16 16"><defs><g id="a"><path fill="var(--e)" d="M12.88 12.83H6v-6.9h6.9Z" data-name="--e"/><path fill="var(--c)" d="M14.89 12.91V3.2A1.63 1.63 0 0 0 16 1.67a1.62 1.62 0 0 0-3.16-.52H3.12a1.62 1.62 0 1 0-2 2.06v9.7A1.62 1.62 0 1 0 3.14 15h9.72a1.62 1.62 0 1 0 2-2.05Zm-2 1.05H3.15a1.63 1.63 0 0 0-1.06-1.06V3.21a1.66 1.66 0 0 0 1-1.06h9.7a1.63 1.63 0 0 0 1.06 1.06v9.7a1.63 1.63 0 0 0-1 1.09Zm1.48-12.91a.62.62 0 1 1-.62.62.63.63 0 0 1 .62-.62m-12.78 0a.62.62 0 1 1-.59.62.62.62 0 0 1 .59-.62m0 14a.63.63 0 1 1 .62-.63.63.63 0 0 1-.6.65Zm12.78 0a.63.63 0 1 1 .63-.63.63.63 0 0 1-.61.65ZM5 10H3.07V3.11H10v1.82H5z" data-name="--c"/></g></defs><view viewBox="0 0 16 16"/><use href="#a" style="--c:#00746b;--e:#39b54a"/><view viewBox="16 0 16 16"/><use x="16" href="#a" style="--c:#009187;--e:#79cc81"/><view viewBox="32 0 16 16"/><use x="32" href="#a" style="--c:#02645b;--e:#2fa640"/><view viewBox="48 0 16 16"/><use x="48" href="#a" style="--c:#a4a5a6;--e:#a4a5a6"/></svg>