<svg xmlns="http://www.w3.org/2000/svg" viewBox="0 0 16 16"><defs><path id="a" d="M15 3.94 11 0H2a1 1 0 0 0-1 1v14a1 1 0 0 0 1 1h12a1 1 0 0 0 1-1V4Zm-3-1.57.58.59H12ZM14 15H2V1h9v2a1 1 0 0 0 1 1h2Zm-2.5-8.94L8.69 8.87l2.81 2.82h-1.41L8 9.58l-2.1 2.11H4.46l2.81-2.82-2.81-2.81h1.41L8 8.17l2.1-2.12h1.4Z" data-name="4"/></defs><view id="enabled" viewBox="0 0 16 16"/><use href="#a" style="--d:#00a99d"/><view id="hover" viewBox="16 0 16 16"/><use x="16" href="#a" style="--d:#7ccdc7"/><view id="active" viewBox="32 0 16 16"/><use x="32" href="#a" style="--d:#00998c"/><view id="disabled" viewBox="48 0 16 16"/><use x="48" href="#a" style="--d:#a4a5a6"/></svg>