<svg xmlns="http://www.w3.org/2000/svg" viewBox="0 0 16 16"><defs><path id="a" fill="var(--c)" d="M15.2 6H15V3.74a1 1 0 0 0-1-1H9v-1a1 1 0 0 0-1-1H3a1 1 0 0 0-1 1v1a1 1 0 0 0-1 1V6H.84a.93.93 0 0 0-.92 1l1 7.91a.93.93 0 0 0 .93.92h12.3a.92.92 0 0 0 .93-.85l1-8A.92.92 0 0 0 15.2 6M2 3.74h1v-2h5v2h6V6H2Zm12.11 11H1.93L.93 7h14.18Z" data-name="--c"/></defs><view viewBox="0 0 16 16"/><use href="#a" style="--c:#00746b"/><view viewBox="16 0 16 16"/><use x="16" href="#a" style="--c:#009187"/><view viewBox="32 0 16 16"/><use x="32" href="#a" style="--c:#02645b"/><view viewBox="48 0 16 16"/><use x="48" href="#a" style="--c:#a4a5a6"/></svg>