<svg xmlns="http://www.w3.org/2000/svg" viewBox="0 0 16 16"><defs><path id="a" fill="var(--g)" d="M6 7.81H4v-1h2Zm0-3H4v1h2Zm-2 5h2v-1H4Zm3 0h5v-5H7Zm-3 4h8v-1H4Zm0-2h8v-1H4ZM9.87 16h1.46v-1H9.87ZM7 16h1.41v-1H7Zm-3 0h1.48v-1H4Zm-3-.78a.78.78 0 0 0 .78.78h.75v-1H1Zm13-1h1v-1.49h-1ZM2 12H1v1.46h1Zm12-.76h1V9.81h-1ZM2 9.11H1v1.46h1Zm12-.76h1V6.89h-1ZM2 6.19H1v1.46h1ZM15 4v1.43h-1V4h-2a1 1 0 0 1-1-1V0zm-2.4-1-.6-.59V3ZM2 3.27H1v1.46h1ZM10.57 0H9.11v1h1.46ZM7.65 0H6.19v1h1.46ZM4.73 0H3.27v1h1.46ZM2 1h.2V0h-.41A.78.78 0 0 0 1 .78v1h1Zm12 14h-1.21v1h1.48a.78.78 0 0 0 .76-.78v-.31H14Z"/></defs><view id="enabled" viewBox="0 0 16 16"/><use href="#a" style="--g:#f26522"/><view id="hover" viewBox="16 0 16 16"/><use x="16" href="#a" style="--g:#f59065"/><view id="active" viewBox="32 0 16 16"/><use x="32" href="#a" style="--g:#e75e1e"/><view id="disabled" viewBox="48 0 16 16"/><use x="48" href="#a" style="--g:#a4a5a6"/></svg>