<svg xmlns="http://www.w3.org/2000/svg" viewBox="0 0 16 16"><defs><g id="a"><path d="M15.92 7.11v-2a1 1 0 0 0-1-1H10a1 1 0 0 0-1 1V15a1 1 0 0 0 1 1h5a1 1 0 0 0 1-1V7.11Zm-1-2v1H10v-1ZM10 15v-1h2v1Zm5 0h-2v-1h2Zm0-2h-5V7.11h5Z"/><path d="M8 13.13H1.09v-9h7.17a2 2 0 0 1 1.71-1h4.11v-2a1 1 0 0 0-1-1h-12a1 1 0 0 0-1 1v11.92a1 1 0 0 0 1 1.08H8Zm-5.9-11h6v1h-6Z"/></g></defs><view id="enabled" viewBox="0 0 16 16"/><use href="#a" style="--d:#00a99d;--g:#f26522"/><view id="hover" viewBox="16 0 16 16"/><use x="16" href="#a" style="--d:#7ccdc7;--g:#f59065"/><view id="active" viewBox="32 0 16 16"/><use x="32" href="#a" style="--d:#00998c;--g:#e75e1e"/><view id="disabled" viewBox="48 0 16 16"/><use x="48" href="#a" style="--d:#a4a5a6;--g:#a4a5a6"/></svg>