<svg xmlns="http://www.w3.org/2000/svg" viewBox="0 0 16 16"><defs><path id="a" fill="var(--e)" d="M14.55 0H1.35A.76.76 0 0 0 .6.78v14.44a.76.76 0 0 0 .75.75h13.2a.76.76 0 0 0 .75-.75V.78a.76.76 0 0 0-.75-.78m-.25 15H1.6V1H6v.61H3.5a1.25 1.25 0 0 0-1.24 1.27v9.93a1.25 1.25 0 0 0 1.24 1.25h7.16l3-3V2.88a1.25 1.25 0 0 0-1.26-1.24H10V1h4.3ZM10 13.06H3.5a.25.25 0 0 1-.24-.25V2.88a.24.24 0 0 1 .24-.24h8.9a.24.24 0 0 1 .24.24v7.65h-1.93a.76.76 0 0 0-.76.76Zm1-7.71H5v-1h6Zm0 2H5v-1h6Zm0 2H5v-1h6Z"/></defs><view id="enabled" viewBox="0 0 16 16"/><use href="#a" style="--e:#39b54a"/><view id="hover" viewBox="16 0 16 16"/><use x="16" href="#a" style="--e:#79cc81"/><view id="active" viewBox="32 0 16 16"/><use x="32" href="#a" style="--e:#2fa640"/><view id="disabled" viewBox="48 0 16 16"/><use x="48" href="#a" style="--e:#a4a5a6"/></svg>