<svg xmlns="http://www.w3.org/2000/svg" viewBox="0 0 16 16"><defs><g id="a"><path fill="var(--g)" d="M12.53 3.39A5.27 5.27 0 0 0 3.28 3l4.84 4.81Z"/><path fill="var(--g)" d="M12.53 3.39A5.27 5.27 0 0 0 3.28 3l4.84 4.81Z"/><path fill="var(--h)" d="M8.12 7.81 3.28 3a5.24 5.24 0 0 0 2.19 7.49Z"/><path fill="var(--g)" d="M3.67 12.18a5.27 5.27 0 0 0 9.25.42L8.08 7.76Z"/><path fill="var(--d)" d="M3.67 12.18a5.27 5.27 0 0 0 9.25.42L8.08 7.76Z"/><path fill="var(--b)" d="m8.08 7.76 4.84 4.84a5.24 5.24 0 0 0-2.19-7.49Z"/></g></defs><view id="enabled" viewBox="0 0 16 16"/><use href="#a" style="--b:#605cab;--d:#00a99d;--g:#f26522;--h:#f7941d"/><view id="hover" viewBox="16 0 16 16"/><use x="16" href="#a" style="--b:#9e9ecc;--d:#7ccdc7;--g:#f59065;--h:#fab454"/><view id="active" viewBox="32 0 16 16"/><use x="32" href="#a" style="--b:#484099;--d:#00998c;--g:#e75e1e;--h:#f3891b"/><view id="disabled" viewBox="48 0 16 16"/><use x="48" href="#a" style="--b:#a4a5a6;--d:#a4a5a6;--g:#a4a5a6;--h:#a4a5a6"/></svg>