<svg xmlns="http://www.w3.org/2000/svg" viewBox="0 0 16 16"><defs><path id="a" d="M8 9a1 1 0 0 0-1-1H1a1 1 0 0 0-1 1v6a1 1 0 0 0 1 1h6a1 1 0 0 0 1-1v-5Zm-1 6H1v-5h6Zm9-6a1 1 0 0 0-1-1H9a1 1 0 0 0-1 1v6a1 1 0 0 0 1 1h6a1 1 0 0 0 1-1v-5Zm-1 6H9v-5h6ZM12 1a1 1 0 0 0-1-1H5a1 1 0 0 0-1 1v6a1 1 0 0 0 1 1h6a1 1 0 0 0 1-1V2Zm-1 6H5V2h6Z"/></defs><view id="enabled" viewBox="0 0 16 16"/><use href="#a" style="--b:#605cab;--e:#39b54a;--g:#f26522"/><view id="hover" viewBox="16 0 16 16"/><use x="16" href="#a" style="--b:#9e9ecc;--e:#79cc81;--g:#f59065"/><view id="active" viewBox="32 0 16 16"/><use x="32" href="#a" style="--b:#484099;--e:#2fa640;--g:#e75e1e"/><view id="disabled" viewBox="48 0 16 16"/><use x="48" href="#a" style="--b:#a4a5a6;--e:#a4a5a6;--g:#a4a5a6"/></svg>