<svg xmlns="http://www.w3.org/2000/svg" viewBox="0 0 16 16"><defs><g id="a"><path fill="var(--b)" d="M15 5H5a1 1 0 0 0-1 1v8.9A1 1 0 0 0 5 16h10a1 1 0 0 0 1-1.08V6a1 1 0 0 0-1-1m-3 2v1H6V7Zm3 7.92V15H5V9h10Z"/><path fill="var(--h)" d="M11 0H1a1 1 0 0 0-1 1v8.93A1 1 0 0 0 1 11h2v-1H1V4h11V1a1 1 0 0 0-1-1M8 3H2V2h6Z"/></g></defs><view id="enabled" viewBox="0 0 16 16"/><use href="#a" style="--b:#605cab;--h:#f7941d"/><view id="hover" viewBox="16 0 16 16"/><use x="16" href="#a" style="--b:#9e9ecc;--h:#fab454"/><view id="active" viewBox="32 0 16 16"/><use x="32" href="#a" style="--b:#484099;--h:#f3891b"/><view id="disabled" viewBox="48 0 16 16"/><use x="48" href="#a" style="--b:#a4a5a6;--h:#a4a5a6"/></svg>