<svg xmlns="http://www.w3.org/2000/svg" viewBox="0 0 16 16"><defs><path id="a" fill="var(--e)" d="M11 6V3.5H5v.78A3.25 3.25 0 0 1 7.81 7c.08.31.15.66.24 1 .33 1.56.84 3.91 1.59 4.61a2.46 2.46 0 0 0 1.36.59V11h5v5h-5v-1.76a3.55 3.55 0 0 1-2-.88c-1-.91-1.49-3.25-1.89-5.13-.08-.37-.16-.72-.23-1A2.35 2.35 0 0 0 5 5.29V6H0V1h5v1.5h6V1h5v5Z"/></defs><view id="enabled" viewBox="0 0 16 16"/><use href="#a" style="--e:#39b54a"/><view id="hover" viewBox="16 0 16 16"/><use x="16" href="#a" style="--e:#79cc81"/><view id="active" viewBox="32 0 16 16"/><use x="32" href="#a" style="--e:#2fa640"/><view id="disabled" viewBox="48 0 16 16"/><use x="48" href="#a" style="--e:#a4a5a6"/></svg>