<svg xmlns="http://www.w3.org/2000/svg" width="16" height="16" fill="none" viewBox="0 0 16 16">
  <g class="canva" clip-path="url(#a)">
    <g class="canva">
      <path fill="#0266A0" d="M15.11 16H.89a.852.852 0 0 1-.89-.85V.94A.86.86 0 0 1 .89.08h14.22a.86.86 0 0 1 .89.86v14.21a.85.85 0 0 1-.89.85ZM1 15h14V1.08H1V15Zm9.88-3.19h-5.8a.85.85 0 0 1-.85-.81V5.13a.86.86 0 0 1 .85-.86h5.84a.86.86 0 0 1 .85.86V11a.85.85 0 0 1-.85.82l-.04-.01Zm-5.69-1h5.54V5.27h-5.5l-.04 5.54Z" class="icons01"/>
    </g>
  </g>
</svg>