<svg xmlns="http://www.w3.org/2000/svg" width="16" height="16" fill="none" viewBox="0 0 16 16">
  <g class="class-html">
    <g class="class-html">
      <path fill="#0266A0" d="m15.86 8.48-4 4.56a.21.21 0 0 1-.18.09H4.51a.21.21 0 0 1-.18-.13l-.24-.26a2.47 2.47 0 0 0 .19-.94 3 3 0 0 0 0-.42l.61.71h6.5l3.32-3.81-3.36-3.77h-6.5L1.53 8.32l1 1.15a2.36 2.36 0 0 0-.75-.13c-.206 0-.41.028-.61.08l-.83-.94a.26.26 0 0 1 0-.33l4-4.56a.23.23 0 0 1 .18-.08h7.18a.23.23 0 0 1 .18.08l4 4.56a.26.26 0 0 1-.02.33ZM1.78 10.34a1.5 1.5 0 1 0 0 3 1.5 1.5 0 0 0 0-3Z" class="icons01"/>
    </g>
  </g>
</svg>
