<svg xmlns="http://www.w3.org/2000/svg" width="16" height="16" fill="none" viewBox="0 0 16 16">
  <g class="component" clip-path="url(#a)">
    <g class="component">
      <path fill="#0266A0" d="m10.26 11.32 1.57.78v1.63L10.26 13v-1.68Zm-.48-.24-1.63-.81v1.63l1.63.8v-1.62Zm2.53 2.66 1.57-.74v-1.67l-1.57.77v1.64Zm2-1 1.69-.83v-1.64l-1.64.82-.05 1.65Zm-.67-4L12.19 8a.17.17 0 0 0-.14 0l-1.57.72 1.6.73 1.56-.71Zm-2.19 1L9.9 9l-1.66.76 1.6.74 1.61-.76Zm2.83.78 1.6-.74-1.6-.78-1.63.75 1.63.77Zm-1.43.67.86-.4-1.63-.79-1.69.78 1.67.77.79-.36Zm-2.64 4 1.57.78v-1.66l-1.57-.78v1.66Zm-.48-1.88-1.63-.8v1.62l1.63.81v-1.63ZM12.31 16l1.57-.78v-1.68l-1.57.78V16Zm2-1 1.69-.88v-1.63l-1.64.81-.05 1.7Z" class="icons01"/>
      <path fill="#0266A0" d="M7.7 15H1V5h14v3.2l1 .45V.5a.5.5 0 0 0-.5-.5H.5a.5.5 0 0 0-.5.5v15a.5.5 0 0 0 .5.5h9.15L7.7 15ZM2 2h9v1H2V2Z" class="icons01"/>
    </g>
  </g>
</svg>