<svg xmlns="http://www.w3.org/2000/svg" width="16" height="16" fill="none" viewBox="0 0 16 16">
  <g class="default" clip-path="url(#a)">
    <g class="default">
      <path fill="#0266A0" d="M6.71 15.8H1a.86.86 0 0 1-.86-.8V9.24A.87.87 0 0 1 1 8.38h5.71a.87.87 0 0 1 .86.86V15a.86.86 0 0 1-.86.8Zm8.29 0H9.29a.86.86 0 0 1-.86-.8V9.24a.87.87 0 0 1 .86-.86H15a.87.87 0 0 1 .86.86V15a.86.86 0 0 1-.86.8Zm-5.57-1h5.43V9.38H9.43v5.42Zm1.43-7.18H5.14a.86.86 0 0 1-.85-.86V1.05A.85.85 0 0 1 5.14.2h5.72a.85.85 0 0 1 .85.85v5.71a.86.86 0 0 1-.85.86Zm-5.57-1h5.42V1.2H5.29v5.42Z" class="icons01"/>
    </g>
  </g>
</svg>