<svg xmlns="http://www.w3.org/2000/svg" width="16" height="16" fill="none" viewBox="0 0 16 16">
  <g class="error-viewer" clip-path="url(#a)">
    <g class="error-viewer">
      <path fill="#0266A0" d="m9.74 11.17 1.09.14a2.68 2.68 0 0 1-.95 1.48 2.89 2.89 0 0 1-1.78.53 2.85 2.85 0 0 1-2.17-.84 3.32 3.32 0 0 1-.8-2.36 3.44 3.44 0 0 1 .81-2.44A2.74 2.74 0 0 1 8 6.81a2.69 2.69 0 0 1 2 .85 3.41 3.41 0 0 1 .79 2.39v.28H6.22a2.36 2.36 0 0 0 .58 1.57 1.711 1.711 0 0 0 1.3.55 1.56 1.56 0 0 0 1-.31 1.93 1.93 0 0 0 .64-.97Zm-3.46-1.7h3.47a2 2 0 0 0-.39-1.18 1.63 1.63 0 0 0-1.31-.61 1.66 1.66 0 0 0-1.22.49 1.92 1.92 0 0 0-.55 1.3ZM15.5 0H.5a.5.5 0 0 0-.5.5v15a.5.5 0 0 0 .5.5h15a.5.5 0 0 0 .5-.5V.5a.5.5 0 0 0-.5-.5ZM2 2h9v1H2V2ZM1 15V5h14v10H1Z" class="icons01"/>
    </g>
  </g>
</svg>