<svg xmlns="http://www.w3.org/2000/svg" width="16" height="16" fill="none" viewBox="0 0 16 16">
  <g class="free-style-grid" clip-path="url(#a)">
    <g class="free-style-grid">
      <path fill="#0266A0" d="M15 9a1 1 0 0 0 1-1V1a1 1 0 0 0-1-1H1a1 1 0 0 0-1 1v11a1 1 0 0 0 1 1h6.85v2a1 1 0 0 0 1 1H15a1 1 0 0 0 1-1v-3a1 1 0 0 0-1-1H8.85V9H15ZM8.85 1H15v3H8.85V1Zm0 4H15v3H8.85V5Zm-1 0v3H1V5h6.85Zm0-1H7l.84-.74.01.74ZM5.49 4h-1l3.36-2.9v.83L5.49 4Zm3.36 8.24V12h.27l-.27.24Zm1.79-.24h.95l-2.74 2.4v-.83L10.64 12ZM6.44 1 3 4H2l3.49-3h.95ZM4 1 1 3.61v-.83L3 1h1Zm-3 .45V1h.51L1 1.45ZM7.85 12H1V9h6.85v3Zm1.83 3 3.42-3h1l-3.42 3h-1ZM15 15h-.38l.38-.34V15Zm-1.9 0h-.95L15 12.5v.83L13.1 15Z" class="icons01"/>
    </g>
  </g>
</svg>