<svg xmlns="http://www.w3.org/2000/svg" width="16" height="16" fill="none" viewBox="0 0 16 16">
  <g class="google-annotated-tmeline" clip-path="url(#a)">
    <g class="google-annotated-tmeline">
      <path fill="#0266A0" d="m12.43.68-4 6.21a.55.55 0 0 1-.9 0L3.57.68A.45.45 0 0 1 4 0h8a.45.45 0 0 1 .43.68Z" class="icons01"/>
      <path fill="#999" fill-rule="evenodd" d="M3.5 2.43V16h-3V0h2.09a1.39 1.39 0 0 0 .14 1.22l.77 1.21Zm3.21 5L4.5 4v12h3V8a1.5 1.5 0 0 1-.79-.56v-.01Zm2.58 0A1.5 1.5 0 0 1 8.5 8v8h3V4L9.29 7.43ZM2.73 1.22A1.39 1.39 0 0 1 2.59 0H.5v16h3V2.43l-.77-1.21Zm0 0A1.39 1.39 0 0 1 2.59 0H.5v16h3V2.43l-.77-1.21Zm9.77 1.21V16h3V0h-2.09a1.39 1.39 0 0 1-.14 1.22l-.77 1.21Z" class="icons09" clip-rule="evenodd"/>
    </g>
  </g>
</svg>