<svg xmlns="http://www.w3.org/2000/svg" width="16" height="16" fill="none" viewBox="0 0 16 16">
  <g class="google-geomap" clip-path="url(#a)">
    <g class="google-geomap">
      <path fill="#0266A0" d="M13.94 4h-.22l-1.13.1-.33.52-.26-.04-.91-.81-.09-.43-.17-.45-.57-.51-.68-.14v.31l.66.64.32.38-.36.19-.3-.08-.44-.19v-.35l-.59-.24-.19.84-.58.13.06.47.76.14.13-.74.63.09L10 4h.47l.32.64.85.86-.06.34-.69-.09-1.18.6-.86 1-.11.46h-.3l-.58-.27-.55.27.14.58.24-.28h.42v.53l.36.1.35.39.51-.13.65.1.76.21h.38l.65.73 1.24.73-.8 1.54-.85.39-.36.9-1.23.82-.13.47A7.14 7.14 0 0 0 13.94 4Zm-5.12 7.69-.52-1 .48-1-.48-.11L7.77 9l-1.19-.22-.4-.78v.49H6L5 7.05V5.91l-.77-1.22L3 4.9h-.8l-.41-.26.52-.41-.52.12A7.14 7.14 0 0 0 8 15.1c.3 0 .6 0 .9-.06l-.08-.87s.33-1.28.33-1.33c0-.05-.33-1.15-.33-1.15ZM3.51 3.11l1.27-.18.58-.32.64.19 1.05-.06.37-.56.58.08 1.28-.12.35-.39.5-.33.7.11h.25a7 7 0 0 0-6.127-.05A7.12 7.12 0 0 0 2.49 3.4l1.02-.29Zm4.79-1.6.7-.4.47.27-.68.52-.62.1-.29-.18.42-.31Zm-2.16.06.32.14.42-.14.23.4-1 .26L5.67 2s.46-.34.47-.43Z" class="icons01"/>
    </g>
  </g>
</svg>