<svg xmlns="http://www.w3.org/2000/svg" width="16" height="16" fill="none" viewBox="0 0 16 16">
  <g class="google-analytics" clip-path="url(#a)">
    <g class="google-analytics">
      <path fill="#999" fill-rule="evenodd" d="m14.88 12.83-4.7-4.48-5-4.64L1 6.15l-.48-.86 4.77-2.82 5.58 5.15 4.7 4.49-.69.72Z" class="icons01" clip-rule="evenodd"/>
      <path fill="#0266A0" d="M15 0H1a1 1 0 0 0-1 1v14a1 1 0 0 0 1 1h14a1 1 0 0 0 1-1V1a1 1 0 0 0-1-1Zm0 7.56-4.65.12L5 11.88l-4 .78V9.44l4.34.56 5.33-3.45L15 4v3.56ZM15 1v1.87l-4.85 2.84L5.11 9 1 8.43V1h14ZM1 15v-1.32l4.44-.86 5.27-4.15L15 8.56V15H1Z" class="icons01"/>
    </g>
  </g>
</svg>