<svg xmlns="http://www.w3.org/2000/svg" width="16" height="16" fill="none" viewBox="0 0 16 16">
  <g class="gx-scheduler" clip-path="url(#a)">
    <g class="gx-scheduler">
      <path fill="#0266A0" d="M15.5 1H13V0h-1v1h-2V0H9v1H7V0H6v1H4V0H3v1H.5a.5.5 0 0 0-.5.5v14a.5.5 0 0 0 .5.5h15a.5.5 0 0 0 .5-.5v-14a.5.5 0 0 0-.5-.5ZM12 3h1v1h-1V3ZM9 3h1v1H9V3ZM6 3h1v1H6V3ZM3 3h1v1H3V3Zm12 12H1V6h14v9Z" class="icons01"/>
      <path fill="#999" fill-rule="evenodd" d="M12.57 7.85a.22.22 0 0 1 .17.37l-1.86 2.3L12 12.8a.28.28 0 0 1 0 .2.26.26 0 0 1-.25.16h-.34c-.17 0-.23-.13-.3-.28l-.78-1.67-1.45 1.8a.38.38 0 0 1-.28.15h-.47a.22.22 0 0 1-.19-.16.32.32 0 0 1 .1-.2l1.89-2.32c-.21-.45-.4-.92-.64-1.35a2.09 2.09 0 0 0-1.46-1 .66.66 0 0 1-.67.59 4 4 0 0 0-1.63.14c-.93.38-.92 1.24-1.08 2.14-.22 1.59.75 1.41 1.91 1.41a.08.08 0 0 0 .08-.06l.15-.89c0-.17 0-.3-.23-.34a.65.65 0 0 1-.54-.6.14.14 0 0 1 .18-.18h1.39c.19 0 .26.17.24.35l-.42 2.22c0 .15-.1.29-.3.29H5.15a1.63 1.63 0 0 1-1.48-.89A2.32 2.32 0 0 1 3.55 11a4.1 4.1 0 0 1 .86-2.39 2.32 2.32 0 0 1 1.72-.75h3.35a.23.23 0 0 1 .21.14l.67 1.45a.15.15 0 0 1 0 .13l-.31.76L12 8a.31.31 0 0 1 .25-.13h.35" class="icons09" clip-rule="evenodd"/>
    </g>
  </g>
</svg>