<svg xmlns="http://www.w3.org/2000/svg" width="16" height="16" fill="none" viewBox="0 0 16 16">
  <g class="history-manager" clip-path="url(#a)">
    <g class="history-manager">
      <path fill="#0266A0" d="M11.56 16.21a4.5 4.5 0 1 1 4.5-4.5 4.51 4.51 0 0 1-4.5 4.5Zm0-8a3.5 3.5 0 1 0 0 7 3.5 3.5 0 0 0 0-7Zm.5.91h-1v3.07h1V9.12Zm0 2.09H9v1h3.08l-.02-1ZM12.51 0H1.3a.86.86 0 0 0-.86.89v14.22a.86.86 0 0 0 .86.89h6.78a5.24 5.24 0 0 1-.94-1H3.31V1h9.06v5.27c.34.053.675.136 1 .25V.89a.86.86 0 0 0-.86-.89Z" class="icons01"/>
    </g>
  </g>
</svg>