<svg xmlns="http://www.w3.org/2000/svg" width="16" height="16" fill="none" viewBox="0 0 16 16">
  <g class="html" clip-path="url(#a)">
    <g class="html">
      <path fill="#0266A0" d="M15.5.1H.5a.5.5 0 0 0-.5.5v15a.5.5 0 0 0 .5.5h15a.5.5 0 0 0 .5-.5V.6a.5.5 0 0 0-.5-.5ZM2 2.1h9v1H2v-1Zm-1 13v-10h14v10H1Zm3.3-6.54v3.34h-.85v-1.35h-1v1.35h-.87V8.56h.85v1.18h1V8.56h.87Zm3.37-.07v.81h-1v2.53h-.8V9.3h-1v-.81h2.8Zm3.78.07v3.34h-.84v-1.23l-.37 1.07-.06.16H9.5l-.05-.16-.37-1.08v1.24h-.84V8.56h1v.16l.6 1.77.61-1.77v-.16h1Zm3 2.53v.81h-2.3V8.56H13v2.53h1.45Z" class="icons01"/>
    </g>
  </g>
</svg>