<svg xmlns="http://www.w3.org/2000/svg" width="16" height="16" fill="none" viewBox="0 0 16 16">
  <g class="hyperlink">
    <g class="hyperlink">
      <path fill="#0266A0" d="m14.13 2.66-.79-.79a2.54 2.54 0 0 0-3.58 0L7.83 3.8a2.54 2.54 0 0 0-.27 3.26l-.5.5a2.54 2.54 0 0 0-3.26.27L1.87 9.75a2.56 2.56 0 0 0 0 3.59l.79.79a2.55 2.55 0 0 0 3.59 0l1.92-1.93a2.53 2.53 0 0 0 .27-3.26l.5-.5a2.55 2.55 0 0 0 2.44.28 2.5 2.5 0 0 0 .82-.55l1.93-1.92a2.55 2.55 0 0 0 0-3.59Zm-6.22 7.75c0 .403-.158.791-.44 1.08l-1.93 1.93a1.57 1.57 0 0 1-2.17 0l-.79-.79a1.53 1.53 0 0 1 0-2.17l1.93-1.92a1.52 1.52 0 0 1 1.08-.45c.258.005.51.077.73.21l-1.88 1.88a.56.56 0 0 0 0 .78l.6.6a.56.56 0 0 0 .78 0l1.89-1.9c.131.228.2.487.2.75Zm5.51-4.87-1.93 1.92a1.56 1.56 0 0 1-1.81.24l1.88-1.88a.56.56 0 0 0 0-.78l-.6-.6a.56.56 0 0 0-.78 0L8.3 6.32a1.5 1.5 0 0 1 .24-1.81l1.92-1.93a1.54 1.54 0 0 1 1.675-.334c.186.077.354.19.495.334l.79.79a1.508 1.508 0 0 1 .45 1.08 1.54 1.54 0 0 1-.45 1.09Z" class="icons01"/>
    </g>
  </g>
</svg>
