<svg xmlns="http://www.w3.org/2000/svg" width="16" height="16" fill="none" viewBox="0 0 16 16">
  <g class="id-html">
    <g class="id-html">
      <path fill="#0266A0" d="M1 13.07H.18v-.86h.94l.24-1.15H.18v-.87h1.35l.25-1.27h.88l-.25 1.27h.86l.24-1.27h.91l-.25 1.27h.76v.87H4l-.23 1.15h1.16v.86H3.58l-.26 1.14h-.87l.25-1.14h-.87l-.26 1.14H.69L1 13.07Zm1.29-2L2 12.21h.86l.23-1.15-.8.01Zm13.47-2.92-4-4.56a.231.231 0 0 0-.18-.08H4.41a.23.23 0 0 0-.18.08L.45 7.92h1.33l3-3.41h6.5l3.32 3.81-3.32 3.81H5.93v1h5.66a.21.21 0 0 0 .18-.09l4-4.56a.26.26 0 0 0-.01-.33Z" class="icons01"/>
    </g>
  </g>
</svg>
