<svg xmlns="http://www.w3.org/2000/svg" width="16" height="16" fill="none" viewBox="0 0 16 16">
  <g class="media-player" clip-path="url(#a)">
    <g class="media-player">
      <path fill="#0266A0" d="M8 6.38h3l2 3h-2.95L8 6.38Zm-3 3h3l-2-3H3l2 3Zm11-.77V6.72a.34.34 0 0 0-.34-.34H13l2 3V15H1V9.38h2L1.15 6.62l2.25-.56L.73 3.63l-.63.15-.1.05V15a1 1 0 0 0 1 1h14a1 1 0 0 0 1-1V8.61Zm-.31-5.54a.33.33 0 0 0 .25-.41L15.39.4A.34.34 0 0 0 15 .15l-2.61.63 2.67 2.44.63-.15Zm-2.6.63-2.64-2.44L7.58 2l2.67 2.43 2.84-.73ZM8.28 4.87 5.63 2.43l-2.91.71 2.63 2.45 2.93-.72Z" class="icons01"/>
    </g>
  </g>
</svg>