<svg xmlns="http://www.w3.org/2000/svg" width="16" height="16" fill="none" viewBox="0 0 16 16">
  <g class="messages" clip-path="url(#a)">
    <g class="messages">
      <path fill="#0266A0" d="M8 1c3.86 0 7 2.24 7 5s-3.14 5-7 5c-.77 0-1.33.66-2.52 2.17l-.74.91v-.49c.16-1.73.28-3-.69-3.45C2.16 9.2 1 7.65 1 6c0-2.76 3.14-5 7-5Zm0-1C3.58 0 0 2.69 0 6c0 2.12 1.46 4 3.67 5 .71.35-.53 4.9.33 5 .9 0 3.3-4 4-4 4.42 0 8-2.69 8-6s-3.58-6-8-6ZM6.26 5.6h-1.2v1.19h1.2V5.6Zm2.34 0H7.4v1.19h1.2V5.6Zm2.34 0h-1.2v1.19h1.2V5.6Z" class="icons01"/>
    </g>
  </g>
</svg>