<svg xmlns="http://www.w3.org/2000/svg" width="16" height="16" fill="none" viewBox="0 0 16 16">
  <g class="section" clip-path="url(#a)">
    <g class="section">
      <path fill="#0266A0" d="M1 3.89H0V2.71h1v1.18Zm0 8.27H0v1.18h1v-1.18Zm0-2.37H0V11h1V9.79Zm0-4.72H0v1.18h1V5.07Zm0 2.36H0v1.18h1V7.43Zm0 7.07H0v.63a.85.85 0 0 0 .88.87h.62v-1H1v-.5ZM15.16 0h-.66v1h.5v.48h1V.89a.85.85 0 0 0-.84-.89ZM15 3.89h1V2.71h-1v1.18Zm0 9.45h1v-1.18h-1v1.18ZM15 11h1V9.79h-1V11Zm0-4.73h1v-1.2h-1v1.2Zm0 2.36h1v-1.2h-1v1.2ZM15 15h-.5v1h.66a.85.85 0 0 0 .84-.85v-.65h-1v.5Zm-9.95 1h1.18v-1H5.05v1Zm2.36 0h1.18v-1H7.41v1Zm2.36 0H11v-1H9.77v1Zm2.37 0h1.18v-1h-1.18v1Zm-9.46 0h1.19v-1H2.68v1ZM5.05 1h1.18V0H5.05v1Zm2.36 0h1.18V0H7.41v1Zm2.36 0H11V0H9.77v1Zm2.37 0h1.18V0h-1.18v1ZM1 0H.88A.85.85 0 0 0 0 .89v.63h1V1h.5V0H1Zm1.7 1h1.17V0H2.68l.02 1Z" class="icons01"/>
    </g>
  </g>
</svg>