<svg xmlns="http://www.w3.org/2000/svg" width="16" height="16" fill="none" viewBox="0 0 16 16">
  <g class="snippet">
    <g class="snippet">
      <path fill="#0266A0" d="M14 1.5v10h-.68l-.25.63c-.45 1.12-1.34 2.37-1.86 2.37a11 11 0 0 1-2.09-1.25c-1.58-1.07-2.61-1.73-3.54-1.75a3.758 3.758 0 0 1-.13-.4c-.14-.48-.48-1.6-1.7-1.6H2v-8h12Zm0-1H2a1 1 0 0 0-1 1v8a1 1 0 0 0 1 1h1.75c1 0 .42 2 1.83 2 1.25 0 4.51 3 5.59 3 1.63 0 2.83-3 2.83-3a1 1 0 0 0 1-1v-10a1 1 0 0 0-1-1ZM4 3.32v1h8v-1H4Zm2 2v1h6v-1H6Zm0 2v1h6v-1H6Zm2 2v1h4v-1H8Z" class="icons01"/>
    </g>
  </g>
</svg>
