<svg xmlns="http://www.w3.org/2000/svg" width="16" height="16" fill="none" viewBox="0 0 16 16">
  <g class="table-cell" clip-path="url(#a)">
    <g class="table-cell">
      <path fill="#999" fill-rule="evenodd" d="M16 6V1a1 1 0 0 0-1-1H1a1 1 0 0 0-1 1v14a1 1 0 0 0 1 1h14a1 1 0 0 0 1-1V6Zm-1-1h-4V1h4v4ZM6 6h4v4H6V6Zm-1 4H1V6h4v4Zm1-5V1h4v4H6ZM5 1v4H1V1h4ZM1 15v-4h4v4H1Zm5 0v-4h4v4H6Zm9 0h-4v-4h4v4Zm0-5h-4V6h4v4Z" class="icons09" clip-rule="evenodd"/>
      <path fill="#0266A0" d="M10 10H6V6h4v4Z" class="icons01"/>
    </g>
  </g>
</svg>