<svg xmlns="http://www.w3.org/2000/svg" width="16" height="16" fill="none" viewBox="0 0 16 16">
  <g class="table-column" clip-path="url(#a)">
    <g class="table-column">
      <path fill="#999" fill-rule="evenodd" d="M16 10V1a1 1 0 0 0-1-1H1a1 1 0 0 0-1 1v14a1 1 0 0 0 1 1h14a1 1 0 0 0 1-1v-5Zm-1 0h-4V6h4v4Zm-9 0V6h4v4H6Zm4 1v4H6v-4h4Zm-5-1H1V6h4v4Zm10-9v4h-4V1h4Zm-5 0v4H6V1h4ZM5 1v4H1V1h4ZM1 11h4v4H1v-4Zm14 4h-4v-4h4v4Z" class="icons09" clip-rule="evenodd"/>
      <path fill="#0266A0" d="M10 11v4H6v-4h4ZM6 6v4h4V6H6Zm0-5v4h4V1H6Z" class="icons01"/>
    </g>
  </g>
</svg>