<svg xmlns="http://www.w3.org/2000/svg" width="16" height="16" fill="none" viewBox="0 0 16 16">
  <g class="list" clip-path="url(#a)">
    <g class="list">
      <path fill="#00A99D" d="M13.54 11.39v.92H9.87v-.92h3.67Zm0 1.84H9.87v.92h3.67v-.92Zm1.84 1.87v-4.63a.91.91 0 0 0-.91-.9h-5.6a.91.91 0 0 0-.91.9v4.63a.9.9 0 0 0 .91.9h5.6a.901.901 0 0 0 .91-.9ZM9 10.57h5.42V15H9v-4.43ZM7 15.1V15h-.41v-1H7v-1H1.62V3.11h9v5.46h1V1.11a1 1 0 0 0-1-1h-9a1 1 0 0 0-1 1V15a1 1 0 0 0 1 1h5.6a1.86 1.86 0 0 1-.22-.9Zm-5.34-14h9v1H1.62l.04-1ZM5.6 15h-4v-1h4v1Z" class="icons04"/>
    </g>
  </g>
</svg>