<svg xmlns="http://www.w3.org/2000/svg" width="16" height="16" fill="none" viewBox="0 0 16 16">
  <g class="orders" clip-path="url(#a)">
    <g class="orders">
      <path fill="#8973CA" d="M14.46 7.4H16l-.47 6.43h-.61l-.46-6.43Zm.16 7.32h1.23v1.22h-1.23v-1.22Zm-.16-7.32H16l-.47 6.43h-.61l-.46-6.43Zm.16 7.32h1.23v1.22h-1.23v-1.22Zm-.16-7.32H16l-.47 6.43h-.61l-.46-6.43Zm.16 7.32h1.23v1.22h-1.23v-1.22Zm-.16-7.32H16l-.47 6.43h-.61l-.46-6.43Zm.16 7.32h1.23v1.22h-1.23v-1.22ZM14 15.94h-1.53l.47-6.43h.61l.45 6.43Zm-.15-7.32h-1.23V7.4h1.23v1.22Zm.15 7.32h-1.53l.47-6.43h.61l.45 6.43Zm-.15-7.32h-1.23V7.4h1.23v1.22Zm.15 7.32h-1.53l.47-6.43h.61l.45 6.43Zm-.15-7.32h-1.23V7.4h1.23v1.22Zm.15 7.32h-1.53l.47-6.43h.61l.45 6.43Zm-.15-7.32h-1.23V7.4h1.23v1.22ZM11.47 15H1V1h9v2a1 1 0 0 0 1 1h2v2.4h1V4l-4-4H1a1 1 0 0 0-1 1v14a1 1 0 0 0 1 1h10.47v-1ZM11 2.41l.6.59H11v-.59Z" class="icons02"/>
    </g>
  </g>
</svg>