<svg xmlns="http://www.w3.org/2000/svg" viewBox="0 0 16 16">
    <defs>
        <style>.--i03{fill:#00746b;}.--i08{fill:#f7941d;}</style>
    </defs>
    <g id="data-selector">
        <path id="--i03" class="--i03" d="M3.87,13h1v1h-1Zm12-10V15a1,1,0,0,1-1,1h-12a1,1,0,0,1-1-1V12a1,1,0,0,1,1-1h9.3V7H2.87a1,1,0,0,1-1-1V3a1,1,0,0,1,1-1h12A1,1,0,0,1,15.87,3Zm-1,9h-12v3h12Zm0-6V3h-12V6h12Zm-11-1h1V4h-1Z"/>
        <path id="--i08" class="--i08" d="M13,6H1A1,1,0,0,0,0,7v3a1,1,0,0,0,1,1H13a1,1,0,0,0,1-1V7A1,1,0,0,0,13,6ZM3,9H2V8H3Z"/>
    </g>
</svg>