<svg xmlns="http://www.w3.org/2000/svg" viewBox="0 0 16 16">
    <g id="ff506d49-76e5-4212-9889-c0af084de520" data-name="mini-app">
        <path id="b0ab1ac8-7a38-4e66-97b2-35a92e47326c" data-name="--i09" class="--i09" d="M7.2,5.26H5.43A.28.28,0,0,1,5.16,5V3.23A.28.28,0,0,1,5.43,3H7.2a.28.28,0,0,1,.27.27V5A.28.28,0,0,1,7.2,5.26ZM11,5V3.23A.27.27,0,0,0,10.73,3H9a.27.27,0,0,0-.27.27V5A.27.27,0,0,0,9,5.26h1.76A.27.27,0,0,0,11,5ZM7.47,8.85V7.09a.28.28,0,0,0-.27-.27H5.43a.28.28,0,0,0-.27.27V8.85a.28.28,0,0,0,.27.27H7.2A.28.28,0,0,0,7.47,8.85Zm3.53,0V7.09a.27.27,0,0,0-.27-.27H9a.27.27,0,0,0-.27.27V8.85A.27.27,0,0,0,9,9.12h1.76A.27.27,0,0,0,11,8.85ZM7.47,12.72V11a.28.28,0,0,0-.27-.27H5.43a.28.28,0,0,0-.27.27v1.77a.28.28,0,0,0,.27.27H7.2A.28.28,0,0,0,7.47,12.72Zm.58,2.79a.14.14,0,0,1,0-.06A1.69,1.69,0,0,1,8,15H3.86a.19.19,0,0,1-.18-.19V1.19A.18.18,0,0,1,3.86,1h8.45a.18.18,0,0,1,.18.19V9.33h1V1.19A1.18,1.18,0,0,0,12.31,0H3.86A1.18,1.18,0,0,0,2.68,1.19V14.76A1.19,1.19,0,0,0,3.86,16H8.24A2.44,2.44,0,0,1,8.05,15.51Z"/>
        <g id="ec7f6969-10d7-4028-8c1d-26abf6246463" data-name="--i08">
            <rect class="--i08" x="8.95" y="10.33" width="5.61" height="5.61" rx="1.03"/>
        </g>
    </g>
</svg>