<svg xmlns="http://www.w3.org/2000/svg" viewBox="0 0 16 16">
    <g id="f7068c11-2aa4-49d4-88f8-fd786d153fd0" data-name="super-app">
        <path id="ff392fa5-3b13-4b1e-8f00-943efa4beb11" data-name="--i04" class="--i04" d="M7.2,5.26H5.43A.28.28,0,0,1,5.16,5V3.23A.28.28,0,0,1,5.43,3H7.2a.28.28,0,0,1,.27.27V5A.28.28,0,0,1,7.2,5.26ZM11,8.85V7.09a.27.27,0,0,0-.27-.27H9a.27.27,0,0,0-.27.27V8.85A.27.27,0,0,0,9,9.12h1.76A.27.27,0,0,0,11,8.85Z"/>
        <path id="e2892686-3866-43a6-9d5d-a7b4cfc192e9" data-name="--i08" class="--i08" d="M10.73,5.26H9A.27.27,0,0,1,8.7,5V3.23A.27.27,0,0,1,9,3h1.76a.27.27,0,0,1,.27.27V5A.27.27,0,0,1,10.73,5.26ZM7.47,12.72V11a.28.28,0,0,0-.27-.27H5.43a.28.28,0,0,0-.27.27v1.77a.28.28,0,0,0,.27.27H7.2A.28.28,0,0,0,7.47,12.72Z"/>
        <path id="ff6367aa-cf7a-4ff0-9c12-ea1d378722f4" data-name="--i02" class="--i02" d="M7.2,9.12H5.43a.28.28,0,0,1-.27-.27V7.09a.28.28,0,0,1,.27-.27H7.2a.28.28,0,0,1,.27.27V8.85A.28.28,0,0,1,7.2,9.12Zm3.8,3.6V11a.28.28,0,0,0-.27-.27H9A.28.28,0,0,0,8.7,11v1.77A.28.28,0,0,0,9,13h1.76A.28.28,0,0,0,11,12.72Z"/>
        <path id="ba57ddbe-f32f-40ea-8b80-3f5ab1a2714a" data-name="--i09" class="--i09" d="M12.31,15.45H3.86a.68.68,0,0,1-.68-.69V1.19A.68.68,0,0,1,3.86.5h8.45a.69.69,0,0,1,.68.69V14.76A.69.69,0,0,1,12.31,15.45Z"/>
    </g>
</svg>