<svg xmlns="http://www.w3.org/2000/svg" width="18" height="18" fill="currentColor" viewBox="0 0 18 18">
  <path d="M5 1H1.3c-.2 0-.3.1-.3.3V5c0 .2.1.4.3.4H5c.2 0 .4-.2.4-.4V1.3c0-.2-.2-.3-.4-.3Zm6 0H7.2c-.2 0-.3.1-.3.3V5c0 .2.2.4.3.4h3.7c.2 0 .3-.1.3-.3V1.3c.1-.2-.1-.3-.2-.3Zm5.9 0h-3.7c-.2 0-.3.1-.3.3V5c0 .2.1.3.3.3h3.7c.2 0 .3-.1.3-.3V1.3c0-.2-.2-.3-.3-.3ZM5 6.9H1.3c-.2 0-.3.1-.3.3v3.7c0 .2.1.3.3.3H5c.2 0 .3-.1.3-.3V7.2c.1-.1-.1-.3-.3-.3Zm6 0H7.2c-.2 0-.3.1-.3.3v3.7c0 .2.1.3.3.3h3.7c.2 0 .3-.1.3-.3V7.2c.1-.1-.1-.3-.2-.3Zm5.9 0h-3.7c-.2 0-.3.1-.3.3v3.7c0 .2.1.3.3.3h3.7c.2 0 .3-.1.3-.3V7.2c0-.1-.2-.3-.3-.3ZM5 12.8H1.3c-.2 0-.3.1-.3.3v3.7c0 .2.1.3.3.3H5c.2 0 .3-.1.3-.3v-3.7c.1-.1-.1-.3-.3-.3Zm6 0H7.2c-.2 0-.3.1-.3.3v3.7c0 .2.1.3.3.3h3.7c.2 0 .3-.1.3-.3v-3.7c.1-.1-.1-.3-.2-.3Zm5.9 0h-3.7c-.2 0-.3.1-.3.3v3.7c0 .2.1.3.3.3h3.7c.2 0 .3-.1.3-.3v-3.7c0-.1-.2-.3-.3-.3Z"/>
</svg>
