<svg xmlns="http://www.w3.org/2000/svg" width="19" height="18" fill="currentColor" viewBox="0 0 19 18">
  <path d="M1.8 8.2c-.3.1-.3.6 0 .7l4.9 2c.5.2.8.6 1 1.1l1.4 4.9c.1.3.6.3.7 0l1.4-4.9c.1-.5.5-.9 1-1.1l4.9-2c.3-.1.3-.6 0-.7l-4.9-1.8c-.5-.2-.9-.6-1-1.1L9.9.9c-.1-.3-.6-.3-.7 0L7.8 5.4c-.1.5-.5.9-1 1.1l-5 1.7Zm11.6 6.4c-.1 0-.1.2 0 .2l1.7.7c.2.1.3.2.3.4l.5 1.7c0 .1.2.1.2 0l.5-1.7c.1-.2.2-.3.3-.4l1.7-.7c.1 0 .1-.2 0-.2L17 14c-.2-.1-.3-.2-.3-.4l-.5-1.5c0-.1-.2-.1-.2 0l-.5 1.5c-.1.2-.2.3-.3.4l-1.8.6Z"/>
</svg>
