<svg xmlns="http://www.w3.org/2000/svg" width="18" height="18" fill="currentColor" viewBox="0 0 18 18">
  <path d="M6.2 11.9 15 1M3 1l8.8 10.9M1 14c0 .4.1.8.2 1.1.2.4.4.7.7 1 .3.3.6.5 1 .7.4.2.8.2 1.1.2.4 0 .8-.1 1.1-.2.4-.2.7-.4 1-.7.3-.3.5-.6.7-1 .2-.4.2-.8.2-1.1 0-.4-.1-.8-.2-1.1-.2-.4-.4-.7-.7-1-.3-.3-.6-.5-1-.7-.4-.2-.8-.2-1.1-.2-.4 0-.8.1-1.1.2-.4.2-.7.4-1 .7-.3.3-.5.6-.7 1-.1.3-.2.7-.2 1.1Zm10 0c0 .8.3 1.6.9 2.1.6.6 1.3.9 2.1.9s1.6-.3 2.1-.9c.6-.6.9-1.3.9-2.1s-.3-1.6-.9-2.1c-.6-.6-1.3-.9-2.1-.9s-1.6.3-2.1.9c-.6.5-.9 1.3-.9 2.1Z"/>
</svg>
