<svg xmlns="http://www.w3.org/2000/svg" width="16" height="16" fill="none" viewBox="0 0 16 16">
  <path fill="#999" fill-rule="evenodd" d="M.069.562C.069.257.316.01.622.01h14.756c.306 0 .553.248.553.553v14.876a.553.553 0 0 1-.553.553H.622a.553.553 0 0 1-.553-.553V.562Zm1.106 14.322V4.764h13.65v10.12H1.175Zm.463-12.97a.553.553 0 0 0 0 1.106h7.419a.553.553 0 0 0 0-1.107H1.638Z" clip-rule="evenodd"/>
  <path fill="#B3B3B3" fill-rule="evenodd" d="M11.754 9.215h-.76a2.924 2.924 0 0 0-.407-.96l.543-.542a.237.237 0 0 0 .055-.266.237.237 0 0 0-.055-.078l-.606-.615a.262.262 0 0 0-.353 0l-.534.543a2.994 2.994 0 0 0-.959-.398v-.724a.253.253 0 0 0-.244-.253H7.53a.253.253 0 0 0-.208.253V6.9c-.34.076-.665.21-.96.398l-.533-.543a.262.262 0 0 0-.353 0l-.606.615a.235.235 0 0 0 0 .344l.543.543c-.192.292-.33.617-.407.959h-.76a.244.244 0 0 0-.244.244v.86a.244.244 0 0 0 .244.243h.76c.079.341.216.666.407.96l-.543.542a.235.235 0 0 0 0 .344l.606.615a.263.263 0 0 0 .353 0l.534-.543c.296.184.62.319.959.398v.76a.244.244 0 0 0 .244.245h.904a.244.244 0 0 0 .245-.245v-.76c.325-.075.636-.2.922-.37l.534.542a.262.262 0 0 0 .353 0l.606-.615a.238.238 0 0 0 .055-.266.237.237 0 0 0-.055-.078l-.543-.542a3.01 3.01 0 0 0 .407-.96h.76a.244.244 0 0 0 .244-.244V9.46a.244.244 0 0 0-.244-.244ZM8 11.965a2.08 2.08 0 1 1 0-4.162 2.08 2.08 0 0 1 0 4.162Z" clip-rule="evenodd"/>
</svg>
