<svg xmlns="http://www.w3.org/2000/svg" width="17" height="17" fill="none" viewBox="0 0 17 17">
  <path stroke="#B3B3B3" stroke-linecap="square" stroke-linejoin="round" stroke-width="1.2" d="m3.238 1.797 4.09 5.245c0 .089.088.089.088.177v6.134c0 .089 0 .178.089.267l1.689 1.688c.178.178.533 0 .533-.266V7.219c0-.088 0-.177.089-.177l4.089-5.245c.178-.178 0-.533-.267-.533H3.505c-.267 0-.445.267-.267.533Z"/>
  <path fill="#B3B3B3" fill-rule="evenodd" d="m11.5 9.76-.42-.62 1.18-.72-1.18-.73.42-.66 1.14.66V6.27h.86v1.38l1.14-.66.43.66-1.19.73 1.19.76-.43.66-1.14-.66v1.34h-.86V9.14l-1.14.62Z" clip-rule="evenodd"/>
</svg>
