<svg xmlns="http://www.w3.org/2000/svg" width="16" height="17" fill="none" viewBox="0 0 16 17">
  <path fill="#999" fill-rule="evenodd" d="M.069.937c0-.305.247-.553.553-.553h14.756c.306 0 .553.248.553.553v14.876a.553.553 0 0 1-.553.553H.622a.553.553 0 0 1-.553-.553V.937ZM1.175 15.26V5.14h13.65v10.12H1.175Zm.463-12.97a.553.553 0 0 0 0 1.106h7.419a.553.553 0 0 0 0-1.107H1.638Z" clip-rule="evenodd"/>
  <path fill="#B3B3B3" fill-rule="evenodd" d="M3.255 8.736a.84.84 0 1 1 1.679-.018.84.84 0 0 1-1.679.018Zm4.99 3.237v.6l-5.82.027v-.793l1.365-1.291h.175l.738.72 1.586-1.55h.175l1.78 2.287Zm.811-4.04h4.519v.923H9.056v-.922Zm0 1.845h4.519v.922H9.056v-.922Zm0 1.845h2.665v.922H9.056v-.922Z" clip-rule="evenodd"/>
</svg>
