<svg xmlns="http://www.w3.org/2000/svg" width="16" height="17" fill="none" viewBox="0 0 16 17">
  <path fill="#B3B3B3" fill-rule="evenodd" d="M11.117 2.975a1.4 1.4 0 1 1 2.8 0 1.4 1.4 0 0 1-2.8 0Zm1.4-2.6a2.6 2.6 0 0 0-.6 5.13v10.47h1.2V5.505a2.601 2.601 0 0 0-.6-5.13ZM6.959 8.96a2.601 2.601 0 0 0 .123 5.086v1.929h1.2v-1.987a2.601 2.601 0 0 0-.123-5.028V.975h-1.2V8.96Zm-.8 2.53a1.4 1.4 0 1 1 2.8 0 1.4 1.4 0 0 1-2.8 0ZM2.198 3.51A2.6 2.6 0 0 0 2 8.608v7.366h1.2V8.609a2.601 2.601 0 0 0 .198-5.006V.975h-1.2v2.534ZM1.2 6.077a1.4 1.4 0 1 1 2.8 0 1.4 1.4 0 0 1-2.8 0Z" clip-rule="evenodd"/>
</svg>
