<svg xmlns="http://www.w3.org/2000/svg" width="18" height="18" fill="none" viewBox="0 0 18 18">
  <path fill="#B3B3B3" fill-rule="evenodd" d="M13.973 7.84h-1.006a3.87 3.87 0 0 0-.54-1.271l.72-.72a.312.312 0 0 0 0-.455l-.803-.815a.347.347 0 0 0-.468 0l-.707.72A3.968 3.968 0 0 0 9.9 4.77v-.959a.336.336 0 0 0-.324-.335H8.377a.336.336 0 0 0-.276.335v.96c-.45.1-.88.278-1.27.526l-.707-.719a.348.348 0 0 0-.468 0l-.803.815a.312.312 0 0 0 0 .456l.72.719a3.87 3.87 0 0 0-.54 1.27H4.026a.324.324 0 0 0-.323.324V9.3a.324.324 0 0 0 .323.324h1.007c.105.451.287.881.54 1.27l-.72.72a.312.312 0 0 0 0 .455l.803.815a.348.348 0 0 0 .468 0l.707-.72c.392.244.82.422 1.27.528V13.7a.324.324 0 0 0 .324.323h1.198a.324.324 0 0 0 .324-.323v-1.007c.43-.1.843-.265 1.222-.492l.707.72a.348.348 0 0 0 .468 0l.803-.815a.312.312 0 0 0 0-.456l-.72-.719a3.99 3.99 0 0 0 .54-1.27h1.006a.324.324 0 0 0 .324-.324V8.163a.325.325 0 0 0-.324-.324ZM9 11.481A2.756 2.756 0 1 1 9 5.97a2.756 2.756 0 0 1 0 5.512Z" clip-rule="evenodd"/>
  <path stroke="#B3B3B3" stroke-linecap="round" stroke-linejoin="round" stroke-width="1.2" d="M1 .75h16v16H1z"/>
</svg>
