<svg xmlns="http://www.w3.org/2000/svg" width="16" height="17" fill="none" viewBox="0 0 16 17">
  <path stroke="#B3B3B3" stroke-linecap="round" stroke-linejoin="round" stroke-width="1.2" d="M11.023 6.73h-5.36c-.52 0-.885.439-.885.932v6.685c0 .548.416.932.885.932h5.308c.52 0 .884-.439.884-.932V7.662a.83.83 0 0 0-.832-.932Z"/>
  <path stroke="#B3B3B3" stroke-linecap="square" stroke-linejoin="round" stroke-width="1.2" d="M6.797 9.53h2.63m-2.63 2.46h1.43"/>
  <path stroke="#B3B3B3" stroke-miterlimit="10" stroke-width="1.2" d="M7.65 5.378V3.33a1 1 0 0 1 1-1h4.707a1 1 0 0 1 1 1v6.675a1 1 0 0 1-1 1h-.258"/>
  <path stroke="#B3B3B3" stroke-linecap="square" stroke-linejoin="round" stroke-width="1.2" d="M4.449 8.824c-1.974 0-3.573-1.15-3.573-2.57s1.6-2.57 3.573-2.57"/>
  <path stroke="#B3B3B3" stroke-linecap="round" stroke-linejoin="round" stroke-width="1.2" d="m3.889 1.773 1.778 1.866-1.778 1.956"/>
</svg>
