<svg xmlns="http://www.w3.org/2000/svg" width="16" height="17" fill="none" viewBox="0 0 16 17">
  <g clip-path="url(#a)">
    <path fill="#B3B3B3" fill-rule="evenodd" d="M3.51 3.885a3.51 3.51 0 1 1 7.02-.04 3.51 3.51 0 0 1-7.02.04Zm5.07 9.72.15.06v-.15l-.15.09Zm-4.88.45v-1.53l.58-.27 3.77-1.77 1.43-.67 3.52.17a11.48 11.48 0 0 0-6-1.71c-2.34 0-7 1.17-7 3.51v2.59h3.7v-.32Zm8.31-.4h.12-.12Zm-3.53 1-2.33-1 2.33-1.05v-1.23l-3.78 1.78v.9l3.78 1.76v-1.16Zm2.06-3.67L9 16.375h1.2l1.53-5.39h-1.19Zm1.69 1.57 2.33 1.05-2.33 1v1.16l3.77-1.72v-.9l-3.77-1.77v1.18Z" clip-rule="evenodd"/>
  </g>
</svg>