<svg xmlns="http://www.w3.org/2000/svg" data-scheme="multicolor" viewBox="0 0 16 16"><defs><g id="icon-def"><path fill="var(--01)" d="M9.46 12.18 7.9 8.77l-1.56 2.08.3-6.85L12 8.24 9.49 8l1.56 3.42z"/><path fill="var(--09)" fill-rule="evenodd" d="M0 9.72V6.44a.78.78 0 0 1 .77-.78h4.8l-.05 1H1V9.5h4.4v1H.77A.78.78 0 0 1 0 9.72m8.37 2.47-.46-1h-.57l-.2.26-.55.74zm6.86-6.53h-4.85l1.27 1H15v2.66l.22.17h-3.97l.46 1h3.52a.78.78 0 0 0 .77-.77V6.44a.78.78 0 0 0-.77-.78m0-5.54H.77A.79.79 0 0 0 0 .91v3.28A.78.78 0 0 0 .77 5h4.82V4H1V1.12h14V4H8.25l1.26 1h5.72a.78.78 0 0 0 .77-.81V.91a.79.79 0 0 0-.77-.79m-.09 11.07H12l.35.76-.52.24h3.06V15h-14v-2.81h4.39v-1H.68a.77.77 0 0 0-.77.81v3.28a.77.77 0 0 0 .77.72h14.46a.78.78 0 0 0 .77-.78V12a.78.78 0 0 0-.77-.81" clip-rule="evenodd"/></g></defs><view id="enabled" viewBox="0 0 16 16"/><use href="#icon-def" style="--01:#0266a0;--09:#616164"/><view id="hover" viewBox="16 0 16 16"/><use x="16" href="#icon-def" style="--01:#2088c2;--09:#828385"/><view id="active" viewBox="32 0 16 16"/><use x="32" href="#icon-def" style="--01:#004a81;--09:#3e3f42"/><view id="disabled" viewBox="48 0 16 16"/><use x="48" href="#icon-def" style="--01:#a4a5a6;--09:#a4a5a6"/></svg>