<svg xmlns="http://www.w3.org/2000/svg" data-scheme="multicolor" viewBox="0 0 16 16"><defs><g id="icon-def" fill="var(--01)"><path d="m10.26 11.32 1.57.78v1.63L10.26 13zm-.48-.24-1.63-.81v1.63l1.63.8zm2.53 2.66 1.57-.74v-1.67l-1.57.77zm2-1 1.69-.83v-1.64l-1.64.82zm-.67-4L12.19 8a.17.17 0 0 0-.14 0l-1.57.72 1.6.73zm-2.19 1L9.9 9l-1.66.76 1.6.74zm2.83.78 1.6-.74-1.6-.78-1.63.75zm-1.43.67.86-.4-1.63-.79-1.69.78 1.67.77zm-2.64 4 1.57.78v-1.66l-1.57-.78zm-.48-1.88-1.63-.8v1.62l1.63.81zM12.31 16l1.57-.78v-1.68l-1.57.78zm2-1 1.69-.88v-1.63l-1.64.81z"/><path d="M7.7 15H1V5h14v3.2l1 .45V.5a.5.5 0 0 0-.5-.5H.5a.5.5 0 0 0-.5.5v15a.5.5 0 0 0 .5.5h9.15zM2 2h9v1H2z"/></g></defs><view id="enabled" viewBox="0 0 16 16"/><use href="#icon-def" style="--01:#0266a0"/><view id="hover" viewBox="16 0 16 16"/><use x="16" href="#icon-def" style="--01:#2088c2"/><view id="active" viewBox="32 0 16 16"/><use x="32" href="#icon-def" style="--01:#004a81"/><view id="disabled" viewBox="48 0 16 16"/><use x="48" href="#icon-def" style="--01:#a4a5a6"/></svg>