<svg xmlns="http://www.w3.org/2000/svg" data-scheme="multicolor" viewBox="0 0 16 16"><defs><path id="icon-def" fill="var(--01)" d="M6.71 15.8H1a.86.86 0 0 1-.86-.8V9.24A.87.87 0 0 1 1 8.38h5.71a.87.87 0 0 1 .86.86V15a.86.86 0 0 1-.86.8m8.29 0H9.29a.86.86 0 0 1-.86-.8V9.24a.87.87 0 0 1 .86-.86H15a.87.87 0 0 1 .86.86V15a.86.86 0 0 1-.86.8m-5.57-1h5.43V9.38H9.43zm1.43-7.18H5.14a.86.86 0 0 1-.85-.86V1.05A.85.85 0 0 1 5.14.2h5.72a.85.85 0 0 1 .85.85v5.71a.86.86 0 0 1-.85.86m-5.57-1h5.42V1.2H5.29z"/></defs><view id="enabled" viewBox="0 0 16 16"/><use href="#icon-def" style="--01:#0266a0"/><view id="hover" viewBox="16 0 16 16"/><use x="16" href="#icon-def" style="--01:#2088c2"/><view id="active" viewBox="32 0 16 16"/><use x="32" href="#icon-def" style="--01:#004a81"/><view id="disabled" viewBox="48 0 16 16"/><use x="48" href="#icon-def" style="--01:#a4a5a6"/></svg>