<svg xmlns="http://www.w3.org/2000/svg" data-scheme="multicolor" viewBox="0 0 16 16"><defs><g id="icon-def"><path fill="var(--01)" d="m12.43.68-4 6.21a.55.55 0 0 1-.9 0L3.57.68A.45.45 0 0 1 4 0h8a.45.45 0 0 1 .43.68"/><path fill="var(--09)" fill-rule="evenodd" d="M3.5 2.43V16h-3V0h2.09a1.39 1.39 0 0 0 .14 1.22zm3.21 5L4.5 4v12h3V8a1.5 1.5 0 0 1-.79-.56zm2.58 0A1.5 1.5 0 0 1 8.5 8v8h3V4zM2.73 1.22A1.39 1.39 0 0 1 2.59 0H.5v16h3V2.43zm0 0A1.39 1.39 0 0 1 2.59 0H.5v16h3V2.43zm9.77 1.21V16h3V0h-2.09a1.39 1.39 0 0 1-.14 1.22z" clip-rule="evenodd"/></g></defs><view id="enabled" viewBox="0 0 16 16"/><use href="#icon-def" style="--01:#0266a0;--09:#616164"/><view id="hover" viewBox="16 0 16 16"/><use x="16" href="#icon-def" style="--01:#2088c2;--09:#828385"/><view id="active" viewBox="32 0 16 16"/><use x="32" href="#icon-def" style="--01:#004a81;--09:#3e3f42"/><view id="disabled" viewBox="48 0 16 16"/><use x="48" href="#icon-def" style="--01:#a4a5a6;--09:#a4a5a6"/></svg>