<svg xmlns="http://www.w3.org/2000/svg" data-scheme="multicolor" viewBox="0 0 16 16"><defs><g id="icon-def" fill="var(--01)"><path fill-rule="evenodd" d="m14.88 12.83-4.7-4.48-5-4.64L1 6.15l-.48-.86 4.77-2.82 5.58 5.15 4.7 4.49z" clip-rule="evenodd"/><path d="M15 0H1a1 1 0 0 0-1 1v14a1 1 0 0 0 1 1h14a1 1 0 0 0 1-1V1a1 1 0 0 0-1-1m0 7.56-4.65.12L5 11.88l-4 .78V9.44l4.34.56 5.33-3.45L15 4zM15 1v1.87l-4.85 2.84L5.11 9 1 8.43V1zM1 15v-1.32l4.44-.86 5.27-4.15L15 8.56V15z"/></g></defs><view id="enabled" viewBox="0 0 16 16"/><use href="#icon-def" style="--01:#0266a0"/><view id="hover" viewBox="16 0 16 16"/><use x="16" href="#icon-def" style="--01:#2088c2"/><view id="active" viewBox="32 0 16 16"/><use x="32" href="#icon-def" style="--01:#004a81"/><view id="disabled" viewBox="48 0 16 16"/><use x="48" href="#icon-def" style="--01:#a4a5a6"/></svg>