<svg xmlns="http://www.w3.org/2000/svg" data-scheme="multicolor" viewBox="0 0 16 16"><defs><g id="icon-def"><path fill="var(--01)" d="M15.5 1H13V0h-1v1h-2V0H9v1H7V0H6v1H4V0H3v1H.5a.5.5 0 0 0-.5.5v14a.5.5 0 0 0 .5.5h15a.5.5 0 0 0 .5-.5v-14a.5.5 0 0 0-.5-.5M12 3h1v1h-1zM9 3h1v1H9zM6 3h1v1H6zM3 3h1v1H3zm12 12H1V6h14z"/><path fill="var(--09)" fill-rule="evenodd" d="M12.57 7.85a.22.22 0 0 1 .17.37l-1.86 2.3L12 12.8a.28.28 0 0 1 0 .2.26.26 0 0 1-.25.16h-.34c-.17 0-.23-.13-.3-.28l-.78-1.67-1.45 1.8a.38.38 0 0 1-.28.15h-.47a.22.22 0 0 1-.19-.16.32.32 0 0 1 .1-.2l1.89-2.32c-.21-.45-.4-.92-.64-1.35a2.09 2.09 0 0 0-1.46-1 .66.66 0 0 1-.67.59 4 4 0 0 0-1.63.14c-.93.38-.92 1.24-1.08 2.14-.22 1.59.75 1.41 1.91 1.41a.08.08 0 0 0 .08-.06l.15-.89c0-.17 0-.3-.23-.34a.65.65 0 0 1-.54-.6.14.14 0 0 1 .18-.18h1.39c.19 0 .26.17.24.35l-.42 2.22c0 .15-.1.29-.3.29H5.15a1.63 1.63 0 0 1-1.48-.89A2.3 2.3 0 0 1 3.55 11a4.1 4.1 0 0 1 .86-2.39 2.32 2.32 0 0 1 1.72-.75h3.35a.23.23 0 0 1 .21.14l.67 1.45a.15.15 0 0 1 0 .13l-.31.76L12 8a.31.31 0 0 1 .25-.13h.35" clip-rule="evenodd"/></g></defs><view id="enabled" viewBox="0 0 16 16"/><use href="#icon-def" style="--01:#0266a0;--09:#616164"/><view id="hover" viewBox="16 0 16 16"/><use x="16" href="#icon-def" style="--01:#2088c2;--09:#828385"/><view id="active" viewBox="32 0 16 16"/><use x="32" href="#icon-def" style="--01:#004a81;--09:#3e3f42"/><view id="disabled" viewBox="48 0 16 16"/><use x="48" href="#icon-def" style="--01:#a4a5a6;--09:#a4a5a6"/></svg>