<svg xmlns="http://www.w3.org/2000/svg" data-scheme="multicolor" viewBox="0 0 16 16"><defs><path id="icon-def" fill="var(--01)" d="M11.56 16.21a4.5 4.5 0 1 1 4.5-4.5 4.51 4.51 0 0 1-4.5 4.5m0-8a3.5 3.5 0 1 0 0 7 3.5 3.5 0 0 0 0-7m.5.91h-1v3.07h1zm0 2.09H9v1h3.08zM12.51 0H1.3a.86.86 0 0 0-.86.89v14.22a.86.86 0 0 0 .86.89h6.78a5.2 5.2 0 0 1-.94-1H3.31V1h9.06v5.27q.511.08 1 .25V.89a.86.86 0 0 0-.86-.89"/></defs><view id="enabled" viewBox="0 0 16 16"/><use href="#icon-def" style="--01:#0266a0"/><view id="hover" viewBox="16 0 16 16"/><use x="16" href="#icon-def" style="--01:#2088c2"/><view id="active" viewBox="32 0 16 16"/><use x="32" href="#icon-def" style="--01:#004a81"/><view id="disabled" viewBox="48 0 16 16"/><use x="48" href="#icon-def" style="--01:#a4a5a6"/></svg>