<svg xmlns="http://www.w3.org/2000/svg" data-scheme="multicolor" viewBox="0 0 16 16"><defs><path id="icon-def" fill="var(--01)" d="M15.5.1H.5a.5.5 0 0 0-.5.5v15a.5.5 0 0 0 .5.5h15a.5.5 0 0 0 .5-.5V.6a.5.5 0 0 0-.5-.5M2 2.1h9v1H2zm-1 13v-10h14v10zm3.3-6.54v3.34h-.85v-1.35h-1v1.35h-.87V8.56h.85v1.18h1V8.56zm3.37-.07v.81h-1v2.53h-.8V9.3h-1v-.81zm3.78.07v3.34h-.84v-1.23l-.37 1.07-.06.16H9.5l-.05-.16-.37-1.08v1.24h-.84V8.56h1v.16l.6 1.77.61-1.77v-.16zm3 2.53v.81h-2.3V8.56H13v2.53z"/></defs><view id="enabled" viewBox="0 0 16 16"/><use href="#icon-def" style="--01:#0266a0"/><view id="hover" viewBox="16 0 16 16"/><use x="16" href="#icon-def" style="--01:#2088c2"/><view id="active" viewBox="32 0 16 16"/><use x="32" href="#icon-def" style="--01:#004a81"/><view id="disabled" viewBox="48 0 16 16"/><use x="48" href="#icon-def" style="--01:#a4a5a6"/></svg>