<svg xmlns="http://www.w3.org/2000/svg" data-scheme="multicolor" viewBox="0 0 16 16"><defs><path id="icon-def" fill="var(--01)" d="M8 6.38h3l2 3h-2.95zm-3 3h3l-2-3H3zm11-.77V6.72a.34.34 0 0 0-.34-.34H13l2 3V15H1V9.38h2L1.15 6.62l2.25-.56L.73 3.63l-.63.15-.1.05V15a1 1 0 0 0 1 1h14a1 1 0 0 0 1-1zm-.31-5.54a.33.33 0 0 0 .25-.41L15.39.4A.34.34 0 0 0 15 .15l-2.61.63 2.67 2.44zm-2.6.63-2.64-2.44L7.58 2l2.67 2.43zM8.28 4.87 5.63 2.43l-2.91.71 2.63 2.45z"/></defs><view id="enabled" viewBox="0 0 16 16"/><use href="#icon-def" style="--01:#0266a0"/><view id="hover" viewBox="16 0 16 16"/><use x="16" href="#icon-def" style="--01:#2088c2"/><view id="active" viewBox="32 0 16 16"/><use x="32" href="#icon-def" style="--01:#004a81"/><view id="disabled" viewBox="48 0 16 16"/><use x="48" href="#icon-def" style="--01:#a4a5a6"/></svg>