<svg xmlns="http://www.w3.org/2000/svg" data-scheme="multicolor" viewBox="0 0 16 16"><defs><g id="icon-def"><path fill="var(--09)" fill-rule="evenodd" d="M15.5 0H.5a.5.5 0 0 0-.5.5v15a.5.5 0 0 0 .5.5h15a.5.5 0 0 0 .5-.5V.5a.5.5 0 0 0-.5-.5M2 2h9v1H2zM1 15V5h14v10z" clip-rule="evenodd"/><path fill="var(--01)" d="m9.65 9.65 1.14-1.15-1.14-1.15.7-.7 1.15 1.14 1.15-1.14.7.7-1.14 1.15 1.14 1.15-.7.7-1.15-1.14-1.15 1.14zM15 5v10H1V5zm-1 1H2v8h12z"/></g></defs><view id="enabled" viewBox="0 0 16 16"/><use href="#icon-def" style="--09:#616164;--01:#0266a0"/><view id="hover" viewBox="16 0 16 16"/><use x="16" href="#icon-def" style="--09:#828385;--01:#2088c2"/><view id="active" viewBox="32 0 16 16"/><use x="32" href="#icon-def" style="--09:#3e3f42;--01:#004a81"/><view id="disabled" viewBox="48 0 16 16"/><use x="48" href="#icon-def" style="--09:#a4a5a6;--01:#a4a5a6"/></svg>