<svg xmlns="http://www.w3.org/2000/svg" data-scheme="multicolor" viewBox="0 0 16 16"><defs><path id="icon-def" fill="var(--01)" d="M1 3.89H0V2.71h1zm0 8.27H0v1.18h1zm0-2.37H0V11h1zm0-4.72H0v1.18h1zm0 2.36H0v1.18h1zm0 7.07H0v.63a.85.85 0 0 0 .88.87h.62v-1H1zM15.16 0h-.66v1h.5v.48h1V.89a.85.85 0 0 0-.84-.89M15 3.89h1V2.71h-1zm0 9.45h1v-1.18h-1zM15 11h1V9.79h-1zm0-4.73h1v-1.2h-1zm0 2.36h1v-1.2h-1zM15 15h-.5v1h.66a.85.85 0 0 0 .84-.85v-.65h-1zm-9.95 1h1.18v-1H5.05zm2.36 0h1.18v-1H7.41zm2.36 0H11v-1H9.77zm2.37 0h1.18v-1h-1.18zm-9.46 0h1.19v-1H2.68zM5.05 1h1.18V0H5.05zm2.36 0h1.18V0H7.41zm2.36 0H11V0H9.77zm2.37 0h1.18V0h-1.18zM1 0H.88A.85.85 0 0 0 0 .89v.63h1V1h.5V0zm1.7 1h1.17V0H2.68z"/></defs><view id="enabled" viewBox="0 0 16 16"/><use href="#icon-def" style="--01:#0266a0"/><view id="hover" viewBox="16 0 16 16"/><use x="16" href="#icon-def" style="--01:#2088c2"/><view id="active" viewBox="32 0 16 16"/><use x="32" href="#icon-def" style="--01:#004a81"/><view id="disabled" viewBox="48 0 16 16"/><use x="48" href="#icon-def" style="--01:#a4a5a6"/></svg>