<svg xmlns="http://www.w3.org/2000/svg" data-scheme="multicolor" viewBox="0 0 16 16"><defs><path id="icon-def" fill="var(--09)" fill-rule="evenodd" d="M16 3V1a1 1 0 0 0-1-1H1a1 1 0 0 0-1 1v14a1 1 0 0 0 1 1h14a1 1 0 0 0 1-1zm-1-1h-2V1h2zm-3-1v1H9V1H8v1H1V1zM9 3h3v9H9zm-1 9H1V3h7zm-7 3v-2h7v2zm8-2h3v2H9zm6 2h-2v-2h2zm0-3h-2V3h2z" clip-rule="evenodd"/></defs><view id="enabled" viewBox="0 0 16 16"/><use href="#icon-def" style="--09:#616164"/><view id="hover" viewBox="16 0 16 16"/><use x="16" href="#icon-def" style="--09:#828385"/><view id="active" viewBox="32 0 16 16"/><use x="32" href="#icon-def" style="--09:#3e3f42"/><view id="disabled" viewBox="48 0 16 16"/><use x="48" href="#icon-def" style="--09:#a4a5a6"/></svg>