<svg xmlns="http://www.w3.org/2000/svg" data-scheme="multicolor" viewBox="0 0 16 16"><defs><path id="icon-def" fill="var(--01)" d="m11.35 4.51 3.32 3.81-3.32 3.81h-6.5L1.53 8.32l3.32-3.81zm.34-1H4.51a.23.23 0 0 0-.18.08l-4 4.56a.26.26 0 0 0 0 .33l4 4.56a.21.21 0 0 0 .18.09h7.18a.21.21 0 0 0 .18-.09l4-4.56a.26.26 0 0 0 0-.33l-4-4.56a.23.23 0 0 0-.18-.08"/></defs><view id="enabled" viewBox="0 0 16 16"/><use href="#icon-def" style="--01:#0266a0"/><view id="hover" viewBox="16 0 16 16"/><use x="16" href="#icon-def" style="--01:#2088c2"/><view id="active" viewBox="32 0 16 16"/><use x="32" href="#icon-def" style="--01:#004a81"/><view id="disabled" viewBox="48 0 16 16"/><use x="48" href="#icon-def" style="--01:#a4a5a6"/></svg>