<svg viewBox="0 0 16 17" xmlns="http://www.w3.org/2000/svg" data-scheme="monochrome"><defs><g id="icon-def"><path stroke="var(--color)" stroke-linecap="round" stroke-linejoin="round" stroke-width="1.2" d="M11.023 6.73h-5.36c-.52 0-.885.439-.885.932v6.685c0 .548.416.932.885.932h5.308c.52 0 .884-.439.884-.932V7.662a.83.83 0 0 0-.832-.932Z" fill="transparent"/><path stroke="var(--color)" stroke-linecap="square" stroke-linejoin="round" stroke-width="1.2" d="M6.797 9.53h2.63m-2.63 2.46h1.43" fill="transparent"/><path stroke="var(--color)" stroke-miterlimit="10" stroke-width="1.2" d="M7.65 5.378V3.33a1 1 0 0 1 1-1h4.707a1 1 0 0 1 1 1v6.675a1 1 0 0 1-1 1h-.258" fill="transparent"/><path stroke="var(--color)" stroke-linecap="square" stroke-linejoin="round" stroke-width="1.2" d="M4.449 8.824c-1.974 0-3.573-1.15-3.573-2.57s1.6-2.57 3.573-2.57" fill="transparent"/><path stroke="var(--color)" stroke-linecap="round" stroke-linejoin="round" stroke-width="1.2" d="m3.889 1.773 1.778 1.866-1.778 1.956" fill="transparent"/></g></defs><view id="on-surface-enabled" viewBox="0 0 16 17"/><use href="#icon-def" x="0" y="0" style="--color:#696969"/><view id="on-primary-enabled" viewBox="0 17 16 17"/><use href="#icon-def" x="0" y="17" style="--color:#CCCCCC"/><view id="on-primary-hover" viewBox="16 17 16 17"/><use href="#icon-def" x="16" y="17" style="--color:#CCCCCC"/><view id="on-primary-active" viewBox="32 17 16 17"/><use href="#icon-def" x="32" y="17" style="--color:#363636"/><view id="on-primary-disabled" viewBox="48 17 16 17"/><use href="#icon-def" x="48" y="17" style="--color:#666666"/><view id="on-disabled-enabled" viewBox="0 34 16 17"/><use href="#icon-def" x="0" y="34" style="--color:#666666"/><view id="on-message-enabled" viewBox="0 51 16 17"/><use href="#icon-def" x="0" y="51" style="--color:#B3B3B3"/><view id="on-elevation-enabled" viewBox="0 68 16 17"/><use href="#icon-def" x="0" y="68" style="--color:#525151"/><view id="primary-enabled" viewBox="0 85 16 17"/><use href="#icon-def" x="0" y="85" style="--color:#2070CE"/><view id="primary-hover" viewBox="16 85 16 17"/><use href="#icon-def" x="16" y="85" style="--color:#437DC0"/><view id="primary-active" viewBox="32 85 16 17"/><use href="#icon-def" x="32" y="85" style="--color:#335884"/><view id="primary-disabled" viewBox="48 85 16 17"/><use href="#icon-def" x="48" y="85" style="--color:#999999"/><view id="neutral-enabled" viewBox="0 153 16 17"/><use href="#icon-def" x="0" y="153" style="--color:#616161"/><view id="neutral-hover" viewBox="16 153 16 17"/><use href="#icon-def" x="16" y="153" style="--color:#437DC0"/><view id="neutral-active" viewBox="32 153 16 17"/><use href="#icon-def" x="32" y="153" style="--color:#363636"/><view id="neutral-disabled" viewBox="48 153 16 17"/><use href="#icon-def" x="48" y="153" style="--color:#666666"/><view id="highlighted-enabled" viewBox="0 170 16 17"/><use href="#icon-def" x="0" y="170" style="--color:#525151"/><view id="bright-enabled" viewBox="0 187 16 17"/><use href="#icon-def" x="0" y="187" style="--color:#363636"/></svg>