<svg xmlns="http://www.w3.org/2000/svg" data-scheme="multicolor" viewBox="0 0 16 16"><defs><path id="icon-def" fill="var(--07)" d="M10.92 7.25v4.24a.92.92 0 0 1-.92.92h-.72a.92.92 0 0 1-.91-.92v-1.41l1-1.08v2.44h.55V8.36zM6.31 2.76l-.95-1h8.57l-1 1h1.2L16 .74H3.28l1.83 2zm6.41 1L7.63 9.4v5.12a.91.91 0 0 1-.91.91H6a.92.92 0 0 1-.92-.91V9.4L0 3.76zm-2.08 1H2.07l4 4.29v5.38h.55V9.05z"/></defs><view id="enabled" viewBox="0 0 16 16"/><use href="#icon-def" style="--07:#f26522"/><view id="hover" viewBox="16 0 16 16"/><use x="16" href="#icon-def" style="--07:#f59065"/><view id="active" viewBox="32 0 16 16"/><use x="32" href="#icon-def" style="--07:#e75e1e"/><view id="disabled" viewBox="48 0 16 16"/><use x="48" href="#icon-def" style="--07:#a4a5a6"/></svg>