<svg xmlns="http://www.w3.org/2000/svg" width="16" height="16" fill="none" viewBox="0 0 16 16">
  <path fill="#B3B3B3" fill-rule="evenodd" d="M3.68 8.79h-1v1h1v-1Zm0 2h-1v1h1v-1Zm2-2h-1v1h1v-1Zm0 2h-1v1h1v-1Zm2-2h-1v1h1v-1Zm0 2h-1v1h1v-1Zm2-2h-1v1h1v-1Zm0 2h-1v1h1v-1Zm2-2h-1v1h1v-1Zm0 2h-1v1h1v-1Zm2-2h-1v1h1v-1Zm0 2h-1v1h1v-1Z" clip-rule="evenodd"/>
  <path stroke="#B3B3B3" stroke-linecap="round" stroke-linejoin="round" stroke-width="1.2" d="M.91 7.027v6.184a1 1 0 0 0 1 1h12.18a1 1 0 0 0 1-1V7.027"/>
  <path stroke="#B3B3B3" stroke-linecap="round" stroke-linejoin="round" stroke-width=".8" d="M7.955 1.79v3.677m2.095-1.623L7.994 5.94h-.039L5.86 3.844"/>
</svg>
