<svg xmlns="http://www.w3.org/2000/svg" width="16" height="17" fill="none" viewBox="0 0 16 17">
  <path fill="#B3B3B3" fill-rule="evenodd" d="M3.493 10.29h-1v1h1v-1Zm0 2h-1v1h1v-1Zm2-2h-1v1h1v-1Zm0 2h-1v1h1v-1Zm2.06-2h-1v1h1v-1Zm0 2h-1v1h1v-1Zm2-2h-1v1h1v-1Zm0 2h-1v1h1v-1Zm2-2h-1v1h1v-1Zm0 2h-1v1h1v-1Zm2-2h-1v1h1v-1Zm0 2h-1v1h1v-1Z" clip-rule="evenodd"/>
  <path stroke="#B3B3B3" stroke-linecap="round" stroke-linejoin="round" stroke-width=".8" d="M4.588 1.29v3.677m2.095-1.623L4.627 5.44h-.039L2.493 3.344m8.285-2.054v3.677m2.095-1.623L10.817 5.44h-.039L8.683 3.344"/>
  <rect width="14.179" height="7.94" x=".911" y="7.771" stroke="#B3B3B3" stroke-linecap="round" stroke-linejoin="round" stroke-width="1.2" rx="1"/>
</svg>
