<svg xmlns="http://www.w3.org/2000/svg" width="16" height="16" fill="none" viewBox="0 0 16 16">
  <path fill="#B3B3B3" fill-rule="evenodd" d="M2.465 11.352h1v-1h-1v1Zm2 0h1v-1h-1v1Zm2.07-2h1v-1h-1v1Zm0 2h1v-1h-1v1Zm2-2h1v-1h-1v1Zm0 2h1v-1h-1v1Zm2 0h1v-1h-1v1Zm2-1v1h1v-1h-1Z" clip-rule="evenodd"/>
  <path stroke="#B3B3B3" stroke-linecap="round" stroke-linejoin="round" stroke-width=".8" d="M6.268 2.106 9.732 5.57m0-3.464L6.268 5.57"/>
  <path stroke="#B3B3B3" stroke-linecap="round" stroke-linejoin="round" stroke-width="1.2" d="M.91 6.71v6.184a1 1 0 0 0 1 1h12.18a1 1 0 0 0 1-1V6.71"/>
</svg>
