<svg xmlns="http://www.w3.org/2000/svg" width="16" height="16" fill="none" viewBox="0 0 16 16">
  <g clip-path="url(#a)">
    <path fill="#B3B3B3" fill-rule="evenodd" d="M0 0v7h7V0H0Zm6 6H1V1h5v5ZM3 4H2V3h1V2h1v1h1v1H4v1H3V4Zm2 9v1H4v-1h1Zm0-4v1H4V9h1Zm11-5a1 1 0 0 0-1-1H8v1h7v3H8v1h7v3H3V8H2v3c.008.176.06.348.15.5A1 1 0 0 0 2 12v3a1 1 0 0 0 1 1h12a1 1 0 0 0 1-1v-3a1 1 0 0 0-.15-.5A1 1 0 0 0 16 11V8a1 1 0 0 0-.16-.52A1 1 0 0 0 16 7V4Zm-1 11H3v-3h12v3Z" clip-rule="evenodd"/>
  </g>
  <defs>
    <clipPath id="a">
      <path fill="#fff" d="M0 0h16v16H0z"/>
    </clipPath>
  </defs>
</svg>
