<svg xmlns="http://www.w3.org/2000/svg" width="16" height="16" fill="none" viewBox="0 0 16 16">
  <path stroke="#B3B3B3" stroke-linecap="round" stroke-linejoin="round" stroke-width="1.2" d="M14 5.783V14a1 1 0 0 1-1 1H3a1 1 0 0 1-1-1V2a1 1 0 0 1 1-1h6.294a1 1 0 0 1 .714.3l3.706 3.783a1 1 0 0 1 .286.7Z"/>
  <path stroke="#B3B3B3" stroke-linecap="round" stroke-linejoin="round" stroke-width="1.2" d="M4.413 6.655v2.242h2.242m4.932.896C11.363 7.776 10.062 6.207 8 6.207c-1.21 0-2.645 1.03-3.273 2.465"/>
</svg>
