<svg xmlns="http://www.w3.org/2000/svg" width="16" height="16" fill="none" viewBox="0 0 16 16">
  <path stroke="#999" stroke-miterlimit="10" stroke-width="1.2" d="M4.444.889H1.156c-.178 0-.267.089-.267.267v3.288c0 .178.089.356.267.356h3.288a.382.382 0 0 0 .356-.356V1.156c0-.178-.178-.267-.356-.267Zm5.334 0H6.4c-.178 0-.267.089-.267.267v3.288c0 .178.178.356.267.356h3.289c.178 0 .267-.089.267-.267V1.156c.088-.178-.09-.267-.178-.267Zm5.244 0h-3.289c-.177 0-.266.089-.266.267v3.288c0 .178.089.267.266.267h3.29c.177 0 .266-.089.266-.267V1.156c0-.178-.178-.267-.267-.267ZM4.444 6.133H1.156c-.178 0-.267.09-.267.267v3.289c0 .178.089.267.267.267h3.288c.178 0 .267-.09.267-.267V6.4c.089-.089-.089-.267-.267-.267Zm5.334 0H6.4c-.178 0-.267.09-.267.267v3.289c0 .178.09.267.267.267h3.289c.178 0 .267-.09.267-.267V6.4c.088-.089-.09-.267-.178-.267Zm5.244 0h-3.289c-.177 0-.266.09-.266.267v3.289c0 .178.089.267.266.267h3.29c.177 0 .266-.09.266-.267V6.4c0-.089-.178-.267-.267-.267ZM4.444 11.378H1.156c-.178 0-.267.089-.267.266v3.29c0 .177.089.266.267.266h3.288c.178 0 .267-.089.267-.267v-3.289c.089-.088-.089-.266-.267-.266Zm5.334 0H6.4c-.178 0-.267.089-.267.266v3.29c0 .177.09.266.267.266h3.289c.178 0 .267-.089.267-.267v-3.289c.088-.088-.09-.266-.178-.266Zm5.244 0h-3.289c-.177 0-.266.089-.266.266v3.29c0 .177.089.266.266.266h3.29c.177 0 .266-.089.266-.267v-3.289c0-.088-.178-.266-.267-.266Z"/>
</svg>
