<svg xmlns="http://www.w3.org/2000/svg" data-scheme="multicolor" viewBox="0 0 16 16"><defs><g id="icon-def"><path fill="var(--09)" fill-rule="evenodd" d="M15.15 7.31H6.48a.85.85 0 0 0-.86.85v6.91a.85.85 0 0 0 .86.86h8.67a.85.85 0 0 0 .85-.86V8.16a.85.85 0 0 0-.85-.85m-.15 1v1.5H6.62v-1.5zm0 2.5v1.57H6.62v-1.57zm-8.38 4.12v-1.55H15v1.55zm1.15-5.62h-.53v-.53h.53zm0 2.57h-.53v-.53h.53zm0 2.54h-.53v-.53h.53z" clip-rule="evenodd"/><path fill="var(--01)" d="M4.62 12H1V9.06h3.62v-1H1V5h6.5v1.31h1V5H15v1.31h.19c.28.001.558.066.81.19V.91a.86.86 0 0 0-.85-.86H.89A.86.86 0 0 0 0 .91v11.21a.86.86 0 0 0 .89.88h3.73zM8.5 1.05H15V4H8.5zm-7.5 0h6.5V4H1z"/></g></defs><view id="enabled" viewBox="0 0 16 16"/><use href="#icon-def" style="--09:#616164;--01:#0266a0"/><view id="hover" viewBox="16 0 16 16"/><use x="16" href="#icon-def" style="--09:#828385;--01:#2088c2"/><view id="active" viewBox="32 0 16 16"/><use x="32" href="#icon-def" style="--09:#3e3f42;--01:#004a81"/><view id="disabled" viewBox="48 0 16 16"/><use x="48" href="#icon-def" style="--09:#a4a5a6;--01:#a4a5a6"/></svg>