<svg xmlns="http://www.w3.org/2000/svg" data-scheme="multicolor" viewBox="0 0 16 16"><defs><g id="icon-def"><path fill="var(--09)" fill-rule="evenodd" d="M16 6V1a1 1 0 0 0-1-1H1a1 1 0 0 0-1 1v14a1 1 0 0 0 1 1h14a1 1 0 0 0 1-1zm-1-1h-4V1h4zM6 6h4v4H6zm-1 4H1V6h4zm1-5V1h4v4zM5 1v4H1V1zM1 15v-4h4v4zm5 0v-4h4v4zm9 0h-4v-4h4zm0-5h-4V6h4z" clip-rule="evenodd"/><path fill="var(--01)" d="M10 10H6V6h4z"/></g></defs><view id="enabled" viewBox="0 0 16 16"/><use href="#icon-def" style="--09:#616164;--01:#0266a0"/><view id="hover" viewBox="16 0 16 16"/><use x="16" href="#icon-def" style="--09:#828385;--01:#2088c2"/><view id="active" viewBox="32 0 16 16"/><use x="32" href="#icon-def" style="--09:#3e3f42;--01:#004a81"/><view id="disabled" viewBox="48 0 16 16"/><use x="48" href="#icon-def" style="--09:#a4a5a6;--01:#a4a5a6"/></svg>