<svg xmlns="http://www.w3.org/2000/svg" data-scheme="multicolor" viewBox="0 0 16 16"><defs><path id="icon-def" fill="var(--01)" d="M15.11 16H.89a.85.85 0 0 1-.89-.85V.94A.86.86 0 0 1 .89.08h14.22a.86.86 0 0 1 .89.86v14.21a.85.85 0 0 1-.89.85M1 15h14V1.08H1zm9.88-3.19h-5.8a.85.85 0 0 1-.85-.81V5.13a.86.86 0 0 1 .85-.86h5.84a.86.86 0 0 1 .85.86V11a.85.85 0 0 1-.85.82zm-5.69-1h5.54V5.27h-5.5z"/></defs><view id="enabled" viewBox="0 0 16 16"/><use href="#icon-def" style="--01:#4ba3d4"/><view id="hover" viewBox="16 0 16 16"/><use x="16" href="#icon-def" style="--01:#6abee0"/><view id="active" viewBox="32 0 16 16"/><use x="32" href="#icon-def" style="--01:#4497c6"/><view id="disabled" viewBox="48 0 16 16"/><use x="48" href="#icon-def" style="--01:#3e3f42"/></svg>