<svg xmlns="http://www.w3.org/2000/svg" data-scheme="multicolor" viewBox="0 0 16 16"><defs><path id="icon-def" fill="var(--01)" d="m9.74 11.17 1.09.14a2.68 2.68 0 0 1-.95 1.48 2.9 2.9 0 0 1-1.78.53 2.85 2.85 0 0 1-2.17-.84 3.32 3.32 0 0 1-.8-2.36 3.44 3.44 0 0 1 .81-2.44A2.74 2.74 0 0 1 8 6.81a2.7 2.7 0 0 1 2 .85 3.4 3.4 0 0 1 .79 2.39v.28H6.22a2.36 2.36 0 0 0 .58 1.57 1.7 1.7 0 0 0 1.3.55 1.56 1.56 0 0 0 1-.31 1.93 1.93 0 0 0 .64-.97m-3.46-1.7h3.47a2 2 0 0 0-.39-1.18 1.63 1.63 0 0 0-1.31-.61 1.66 1.66 0 0 0-1.22.49 1.92 1.92 0 0 0-.55 1.3M15.5 0H.5a.5.5 0 0 0-.5.5v15a.5.5 0 0 0 .5.5h15a.5.5 0 0 0 .5-.5V.5a.5.5 0 0 0-.5-.5M2 2h9v1H2zM1 15V5h14v10z"/></defs><view id="enabled" viewBox="0 0 16 16"/><use href="#icon-def" style="--01:#4ba3d4"/><view id="hover" viewBox="16 0 16 16"/><use x="16" href="#icon-def" style="--01:#6abee0"/><view id="active" viewBox="32 0 16 16"/><use x="32" href="#icon-def" style="--01:#4497c6"/><view id="disabled" viewBox="48 0 16 16"/><use x="48" href="#icon-def" style="--01:#3e3f42"/></svg>