<svg xmlns="http://www.w3.org/2000/svg" data-scheme="multicolor" viewBox="0 0 16 16"><defs><path id="icon-def" fill="var(--01)" d="M15 9a1 1 0 0 0 1-1V1a1 1 0 0 0-1-1H1a1 1 0 0 0-1 1v11a1 1 0 0 0 1 1h6.85v2a1 1 0 0 0 1 1H15a1 1 0 0 0 1-1v-3a1 1 0 0 0-1-1H8.85V9zM8.85 1H15v3H8.85zm0 4H15v3H8.85zm-1 0v3H1V5zm0-1H7l.84-.74zM5.49 4h-1l3.36-2.9v.83zm3.36 8.24V12h.27zm1.79-.24h.95l-2.74 2.4v-.83zM6.44 1 3 4H2l3.49-3zM4 1 1 3.61v-.83L3 1zm-3 .45V1h.51zM7.85 12H1V9h6.85zm1.83 3 3.42-3h1l-3.42 3zM15 15h-.38l.38-.34zm-1.9 0h-.95L15 12.5v.83z"/></defs><view id="enabled" viewBox="0 0 16 16"/><use href="#icon-def" style="--01:#4ba3d4"/><view id="hover" viewBox="16 0 16 16"/><use x="16" href="#icon-def" style="--01:#6abee0"/><view id="active" viewBox="32 0 16 16"/><use x="32" href="#icon-def" style="--01:#4497c6"/><view id="disabled" viewBox="48 0 16 16"/><use x="48" href="#icon-def" style="--01:#3e3f42"/></svg>