<svg xmlns="http://www.w3.org/2000/svg" data-scheme="multicolor" viewBox="0 0 16 16"><defs><path id="icon-def" fill="var(--01)" d="M15.11 16H.89a.85.85 0 0 1-.89-.89V.89A.85.85 0 0 1 .89 0h14.22a.85.85 0 0 1 .89.89v14.22a.85.85 0 0 1-.89.89M1 15h14V1H1zm2.11-4.1 1.95-3-1.73-2.76h1.35L5.83 7 7 5.14h1.29L6.51 7.92l2 2.94H7.08l-1.27-2-1.28 2zm6.51 0V5.18h1.15V9.9h2.88v1z"/></defs><view id="enabled" viewBox="0 0 16 16"/><use href="#icon-def" style="--01:#4ba3d4"/><view id="hover" viewBox="16 0 16 16"/><use x="16" href="#icon-def" style="--01:#6abee0"/><view id="active" viewBox="32 0 16 16"/><use x="32" href="#icon-def" style="--01:#4497c6"/><view id="disabled" viewBox="48 0 16 16"/><use x="48" href="#icon-def" style="--01:#3e3f42"/></svg>