<svg xmlns="http://www.w3.org/2000/svg" data-scheme="multicolor" viewBox="0 0 16 16"><defs><path id="icon-def" fill="var(--01)" d="M14 1.5v10h-.68l-.25.63c-.45 1.12-1.34 2.37-1.86 2.37a11 11 0 0 1-2.09-1.25c-1.58-1.07-2.61-1.73-3.54-1.75a4 4 0 0 1-.13-.4c-.14-.48-.48-1.6-1.7-1.6H2v-8zm0-1H2a1 1 0 0 0-1 1v8a1 1 0 0 0 1 1h1.75c1 0 .42 2 1.83 2 1.25 0 4.51 3 5.59 3 1.63 0 2.83-3 2.83-3a1 1 0 0 0 1-1v-10a1 1 0 0 0-1-1M4 3.32v1h8v-1zm2 2v1h6v-1zm0 2v1h6v-1zm2 2v1h4v-1z"/></defs><view id="enabled" viewBox="0 0 16 16"/><use href="#icon-def" style="--01:#4ba3d4"/><view id="hover" viewBox="16 0 16 16"/><use x="16" href="#icon-def" style="--01:#6abee0"/><view id="active" viewBox="32 0 16 16"/><use x="32" href="#icon-def" style="--01:#4497c6"/><view id="disabled" viewBox="48 0 16 16"/><use x="48" href="#icon-def" style="--01:#3e3f42"/></svg>