<svg xmlns="http://www.w3.org/2000/svg" data-scheme="multicolor" viewBox="0 0 16 16"><defs><path id="icon-def" fill="var(--01)" d="M15 3h-.44c-.24-.62-.53-1.36-.67-1.75-.05-.13-.12-.25-.27-.25H8.29c-.15 0-.21.1-.27.25l-.58 1.54c-.23-.57-.47-1.2-.59-1.54 0-.13-.12-.25-.27-.25H1.25C1.1 1 1 1.1 1 1.25L.08 3.61 0 4v11a1 1 0 0 0 1 1h14a1 1 0 0 0 1-1V4a1 1 0 0 0-1-1M6.06 2l.39 1H1.38c.13-.33.27-.69.38-1zM15 15H1V4h14z"/></defs><view id="enabled" viewBox="0 0 16 16"/><use href="#icon-def" style="--01:#4ba3d4"/><view id="hover" viewBox="16 0 16 16"/><use x="16" href="#icon-def" style="--01:#6abee0"/><view id="active" viewBox="32 0 16 16"/><use x="32" href="#icon-def" style="--01:#4497c6"/><view id="disabled" viewBox="48 0 16 16"/><use x="48" href="#icon-def" style="--01:#3e3f42"/></svg>