<svg xmlns="http://www.w3.org/2000/svg" data-scheme="multicolor" viewBox="0 0 16 16"><defs><path id="icon-def" fill="var(--09)" fill-rule="evenodd" d="M16 6V1a1 1 0 0 0-1-1H1a1 1 0 0 0-1 1v14a1 1 0 0 0 1 1h14a1 1 0 0 0 1-1zm-1-1h-4V1h4zm-9 5V6h4v4zm4 1v4H6v-4zm-5-1H1V6h4zm1-5V1h4v4zM5 1v4H1V1zM1 15v-4h4v4zm14 0h-4v-4h4zm0-5h-4V6h4z" clip-rule="evenodd"/></defs><view id="enabled" viewBox="0 0 16 16"/><use href="#icon-def" style="--09:#a4a5a6"/><view id="hover" viewBox="16 0 16 16"/><use x="16" href="#icon-def" style="--09:#828385"/><view id="active" viewBox="32 0 16 16"/><use x="32" href="#icon-def" style="--09:#c6c6c7"/><view id="disabled" viewBox="48 0 16 16"/><use x="48" href="#icon-def" style="--09:#3e3f42"/></svg>