<svg xmlns="http://www.w3.org/2000/svg" data-scheme="multicolor" viewBox="0 0 16 16"><defs><g id="icon-def"><path fill="var(--09)" fill-rule="evenodd" d="M16 10V1a1 1 0 0 0-1-1H1a1 1 0 0 0-1 1v14a1 1 0 0 0 1 1h14a1 1 0 0 0 1-1zm-1 0h-4V6h4zm-9 0V6h4v4zm4 1v4H6v-4zm-5-1H1V6h4zm10-9v4h-4V1zm-5 0v4H6V1zM5 1v4H1V1zM1 11h4v4H1zm14 4h-4v-4h4z" clip-rule="evenodd"/><path fill="var(--01)" d="M10 11v4H6v-4zM6 6v4h4V6zm0-5v4h4V1z"/></g></defs><view id="enabled" viewBox="0 0 16 16"/><use href="#icon-def" style="--09:#a4a5a6;--01:#4ba3d4"/><view id="hover" viewBox="16 0 16 16"/><use x="16" href="#icon-def" style="--09:#828385;--01:#6abee0"/><view id="active" viewBox="32 0 16 16"/><use x="32" href="#icon-def" style="--09:#c6c6c7;--01:#4497c6"/><view id="disabled" viewBox="48 0 16 16"/><use x="48" href="#icon-def" style="--09:#3e3f42;--01:#3e3f42"/></svg>