<svg viewBox="0 0 32 32" xmlns="http://www.w3.org/2000/svg" data-scheme="monochrome"><defs><g id="icon-def"><path fill="var(--color)" d="M16 31.54h-.3v-1H17l.07 1c-.42-.01-.76 0-1.07 0Zm-1.33-.05c-.34 0-.69-.07-1-.13l.15-1 1 .11-.15 1.02Zm3.33-.08-.13-1 .95-.16.2 1-1.02.16Zm-5.43-.23-1-.26.28-1c.31.09.62.17.94.24l-.22 1.02ZM20 31l-.26-1c.31-.08.62-.18.92-.28l.33.94c-.29.15-.62.25-.99.34Zm-9.43-.41c-.33-.12-.64-.25-1-.38l.41-.92c.29.13.59.25.9.37l-.31.93ZM22 30.32l-.38-.92c.29-.12.59-.26.87-.41l.45.9c-.32.11-.63.3-.94.43Zm-13.28-.57c-.3-.16-.6-.33-.89-.51l.52-.85.84.48-.47.88Zm15.12-.36-.51-.86c.28-.16.55-.34.82-.52l.56.83c-.28.16-.57.38-.87.55ZM7 28.67c-.28-.2-.56-.41-.82-.62l.63-.78c.25.21.51.4.77.59l-.58.81Zm18.57-.45-.62-.78c.26-.2.5-.41.74-.62l.67.74c-.28.23-.55.44-.82.66h.03Zm-20.2-.85c-.25-.24-.49-.48-.73-.74l.73-.63c.22.24.45.46.69.68l-.69.69Zm21.71-.53-.72-.7c.22-.23.44-.47.65-.71l.76.65c-.22.26-.45.51-.69.76ZM4 25.86c-.22-.27-.43-.54-.63-.82l.82-.58c.18.26.38.51.59.76l-.78.64Zm24.45-.59-.8-.6c.19-.26.38-.52.55-.79l.84.54c-.23.29-.42.58-.63.85h.04Zm-25.69-1.1c-.18-.29-.35-.59-.51-.89l.88-.47c.147.293.307.573.48.84l-.85.52Zm26.77-.64-.87-.48c.15-.28.3-.57.43-.86l.91.43c-.15.31-.3.61-.47.91ZM1.8 22.35a10.14 10.14 0 0 1-.39-1l.93-.34c.12.3.24.6.37.89l-.91.45Zm28.61-.68-.94-.37a8.84 8.84 0 0 0 .32-.91l1 .3c-.15.31-.26.66-.38.98ZM1.08 20.41c-.09-.33-.18-.66-.25-1l1-.22c.07.32.15.63.24.94l-.99.28ZM31 19.7l-1-.24c.08-.31.14-.62.2-.94l1 .17c-.03.31-.1.67-.2 1.01ZM.64 18.4c-.06-.34-.1-.69-.13-1l1-.09c0 .33.07.65.11 1l-.98.09Zm30.73-.74-1-.1c0-.32.06-.64.07-1h1c-.01.44-.03.76-.07 1.1ZM.46 16.34v-1.07h1v.97l-1 .1Zm30-.71c0-.33 0-.65-.06-1l1-.09c0 .34.05.68.06 1l-1 .09ZM1.55 14.39l-1-.11c0-.35.09-.69.15-1l1 .18c-.07.29-.11.61-.15.93Zm28.72-.68a9.383 9.383 0 0 0-.19-1l1-.23c.07.33.14.67.2 1l-1.01.23ZM1.9 12.49l-1-.24c.08-.34.18-.67.28-1l1 .31c-.12.31-.18.61-.28.93Zm27.93-.67c-.09-.31-.19-.61-.31-.91l.94-.36c.12.33.23.65.33 1l-.96.27ZM2.49 10.65l-.92-.37c.127-.32.27-.634.43-.94l.9.43c-.16.29-.29.58-.41.88ZM29.15 10c-.13-.29-.28-.58-.43-.86l.88-.48c.16.31.32.62.46.93l-.91.41ZM3.33 8.91l-.87-.49c.17-.3.35-.59.54-.88l.83.55c-.18.27-.34.54-.5.82Zm24.9-.59c-.17-.28-.35-.54-.54-.8l.81-.59c.2.27.39.56.58.85l-.85.54ZM4.39 7.3l-.8-.6c.21-.28.43-.54.65-.8l.76.65c-.21.24-.42.45-.61.75Zm22.7-.55c-.2-.24-.42-.48-.64-.72l.72-.69c.24.25.47.51.69.77l-.77.64ZM5.65 5.84l-.71-.7c.24-.25.49-.48.75-.71l.67.75c-.25.21-.48.43-.71.66Zm20.11-.48c-.24-.22-.48-.43-.73-.63l.62-.73c.27.21.53.44.79.67l-.68.69ZM7.1 4.56l-.61-.79c.267-.207.547-.407.84-.6l.56.83c-.27.17-.53.36-.79.56Zm17.15-.41c-.26-.19-.53-.36-.81-.53l.56-.86c.287.18.577.37.87.57l-.62.82ZM8.71 3.48l-.51-.86c.3-.17.61-.34.92-.49l.44.9c-.29.14-.56.29-.85.45Zm13.89-.33c-.28-.15-.58-.29-.87-.42l.4-.91c.31.14.62.28.93.44l-.46.89Zm-12.16-.52-.38-.92c.32-.14.64-.26 1-.37l.32 1c-.38.05-.64.17-.94.29Zm10.39-.25c-.3-.11-.61-.21-.92-.29l.27-1c.34.1.66.2 1 .32l-.35.97ZM12.27 2l-.25-1c.33-.09.66-.17 1-.23l.19 1c-.32.09-.63.16-.94.23ZM19 1.86c-.31-.07-.63-.13-.95-.17l.14-1c.353.053.687.113 1 .18l-.19.99Zm-4.8-.21L14 .66c.34 0 .69-.07 1-.09l.06 1c-.25.01-.57.04-.89.08h.03Zm2.89-.07h-1v-1h1v1Zm-1.1 27v-1h1l.08 1c-.42-.05-.76-.04-1.07-.04l-.01.04Zm-.45 0a9.12 9.12 0 0 1-1-.08l.12-1c.32 0 .63.06.95.07l-.07 1.01Zm2.46-.21-.16-1c.31-.05.63-.11.93-.19l.25 1c-.307.067-.647.13-1.02.19Zm-4.58-.08c-.35-.07-.68-.16-1-.25l.28-1c.3.09.61.16.93.23l-.21 1.02Zm6.6-.43-.33-.95c.3-.1.6-.22.89-.35l.41.92c-.29.14-.61.26-.94.38h-.03Zm-8.6-.16c-.323-.12-.64-.257-.95-.41l.43-.9c.29.14.58.27.88.38l-.36.93ZM22 27l-.48-.87c.28-.16.55-.32.82-.5l.55.84A9.938 9.938 0 0 1 22 27Zm-12.42-.2c-.3-.18-.59-.37-.87-.57l.58-.82c.257.188.524.362.8.52l-.51.87Zm14.11-.93-.62-.79c.25-.2.49-.4.72-.62l.69.73c-.26.24-.48.46-.79.68Zm-15.8-.28c-.27-.23-.52-.46-.77-.71l.71-.71c.221.23.455.447.7.65l-.64.77Zm17.32-1.14-.74-.67c.21-.24.42-.48.61-.74l.8.61c-.22.28-.44.54-.67.8Zm-18.8-.33c-.22-.27-.43-.54-.63-.83l.81-.58c.19.26.38.52.59.76l-.77.65Zm20.07-1.32-.85-.54c.179-.267.342-.544.49-.83l.88.47c-.16.31-.34.61-.52.9Zm-21.27-.38c-.18-.29-.34-.6-.5-.91l.9-.44c.137.288.291.569.46.84l-.86.51ZM27.45 21l-.92-.39c.13-.29.24-.59.34-.89l.95.31c-.107.33-.23.653-.37.97Zm-23.16-.45c-.12-.32-.23-.653-.33-1l1-.28c.09.31.19.61.31.91l-.98.37ZM28.11 19l-1-.24c.07-.3.13-.62.18-.93l1 .15c-.03.33-.1.67-.18 1.02Zm-24.4-.44c-.07-.34-.13-.68-.17-1l1-.11c0 .32.08.63.15.94l-.98.17Zm24.72-1.62-1-.06v-.96h1V16c.03.34.02.64 0 .93v.01Zm-25-.44v-1.04h1v.96l-1 .08ZM27.41 15c0-.32-.08-.64-.13-.95l1-.18c.06.34.11.69.14 1l-1.01.13Zm-22.85-.46-1-.13c0-.35.11-.69.18-1l1 .22c-.09.28-.14.59-.18.91Zm22.51-1.47c-.08-.31-.18-.62-.29-.92l.95-.33c.11.32.22.65.31 1l-.97.25ZM5 12.67l-1-.29c.11-.34.22-.66.35-1l.93.37c-.11.301-.204.608-.28.92Zm21.46-1.4c-.13-.3-.28-.58-.43-.86l.87-.49c.173.302.33.612.47.93l-.91.42Zm-20.79-.38-.89-.44c.149-.313.316-.617.5-.91l.86.52c-.14.27-.33.55-.47.83Zm19.81-1.3c-.18-.26-.37-.52-.57-.77l.78-.62c.22.27.43.55.62.83l-.83.56ZM6.67 9.26l-.81-.59c.21-.28.42-.55.65-.81l.76.65c-.18.24-.38.49-.6.75Zm17.61-1.15c-.22-.23-.45-.46-.69-.67l.66-.75c.262.23.512.474.75.73l-.72.69Zm-16.36-.3-.69-.71c.24-.24.5-.47.77-.7l.64.77c-.25.21-.49.42-.72.64Zm14.93-1c-.26-.2-.52-.38-.79-.55l.53-.84c.297.182.584.379.86.59l-.6.8ZM9.4 6.59l-.57-.82c.28-.19.58-.38.88-.55l.5.86c-.28.16-.55.33-.81.51Zm11.83-.77a8.586 8.586 0 0 0-.87-.4l.38-.93c.33.14.64.28 1 .44l-.51.89Zm-10.17-.18-.43-.91c.326-.15.66-.284 1-.4l.35.93c-.34.12-.64.24-.92.38Zm8.4-.55c-.3-.1-.61-.18-.92-.26l.22-1c.34.08.68.17 1 .27l-.3.99ZM12.85 5l-.27-1c.33-.09.67-.17 1-.24l.19 1c-.3.05-.61.12-.92.24Zm4.74-.31c-.31 0-.63-.08-.95-.1l.06-1c.35 0 .7.05 1 .1l-.11 1Zm-2.86 0-.11-1c.34 0 .69-.06 1-.06v1a7.459 7.459 0 0 0-.89-.02v.08Zm7.36 19.93h-12A1.499 1.499 0 0 1 8.59 23V9a1.5 1.5 0 0 1 1.5-1.5h12a1.5 1.5 0 0 1 1.5 1.5v14a1.499 1.499 0 0 1-1.5 1.54v.08Zm-12-16a.51.51 0 0 0-.5.5V23a.5.5 0 0 0 .5.5h12a.5.5 0 0 0 .5-.5V9a.5.5 0 0 0-.5-.5l-12 .12Zm1 5.5h10V13h-10v1.12Zm0 2h10V15h-10v1.12Zm0 2h10V17h-10v1.12Z"/></g></defs><view id="neutral--enabled" viewBox="0 288 32 32"/><use href="#icon-def" x="0" y="288" style="--color:#616161"/><view id="neutral--hover" viewBox="32 288 32 32"/><use href="#icon-def" x="32" y="288" style="--color:#437DC0"/><view id="neutral--active" viewBox="64 288 32 32"/><use href="#icon-def" x="64" y="288" style="--color:#363636"/><view id="neutral--disabled" viewBox="96 288 32 32"/><use href="#icon-def" x="96" y="288" style="--color:#666666"/></svg>