<svg viewBox="0 0 32 32" xmlns="http://www.w3.org/2000/svg" data-scheme="monochrome"><defs><g id="icon-def"><path fill="var(--color)" d="M15.91 31.64a15.5 15.5 0 1 1 15.5-15.5 15.51 15.51 0 0 1-15.5 15.5Zm0-30a14.5 14.5 0 1 0 14.5 14.5 14.52 14.52 0 0 0-14.5-14.5Zm-.69 23.09h-.12a.5.5 0 0 1-.38-.43l-1-9.08-5.51 4.05a.5.5 0 0 1-.7-.7l8.7-11.73a.51.51 0 0 1 .52-.19.53.53 0 0 1 .38.4l1.33 7.8 5.2-3.39a.5.5 0 0 1 .68.71l-8.69 12.34a.49.49 0 0 1-.41.22Zm-1.05-10.94a.45.45 0 0 1 .2 0 .5.5 0 0 1 .3.4l.91 8.62L22 13.72l-3.66 2.38a.49.49 0 0 1-.47 0 .52.52 0 0 1-.29-.37l-1.26-7.35-6 8.13 3.59-2.63a.55.55 0 0 1 .26-.09Z"/></g></defs><view id="neutral--enabled" viewBox="0 288 32 32"/><use href="#icon-def" x="0" y="288" style="--color:#616161"/><view id="neutral--hover" viewBox="32 288 32 32"/><use href="#icon-def" x="32" y="288" style="--color:#437DC0"/><view id="neutral--active" viewBox="64 288 32 32"/><use href="#icon-def" x="64" y="288" style="--color:#363636"/><view id="neutral--disabled" viewBox="96 288 32 32"/><use href="#icon-def" x="96" y="288" style="--color:#666666"/></svg>