<svg viewBox="0 0 32 32" xmlns="http://www.w3.org/2000/svg" data-scheme="monochrome"><defs><g id="icon-def"><path fill="var(--color)" d="M16 31.66h-.3v-1H17l.07 1c-.39-.01-.73 0-1.07 0Zm-1.33-.06c-.34 0-.673-.04-1-.12l.15-1c.307.047.64.087 1 .12l-.15 1Zm3.39-.08-.13-1c.32 0 .64-.09.95-.16l.2 1c-.35.06-.69.12-1.03.16h.01Zm-5.43-.23c-.34-.07-.67-.16-1-.26l.28-1c.31.1.62.18.94.25l-.22 1.01Zm7.45-.18-.26-1c.31-.08.62-.18.92-.29l.33.95c-.327.153-.66.267-1 .34h.01Zm-9.43-.4c-.32-.12-.653-.25-1-.39l.41-.91c.293.127.593.247.9.36l-.31.94ZM22 30.44l-.39-.92c.29-.13.59-.26.87-.41L23 30c-.34.16-.66.3-1 .44Zm-13.24-.57c-.313-.16-.613-.33-.9-.51l.53-.85c.27.17.55.33.83.48l-.46.88Zm15.11-.36-.51-.86.82-.52.56.82c-.28.2-.57.38-.87.56ZM7 28.79c-.28-.2-.55-.41-.82-.63l.63-.77.77.59-.58.81Zm18.57-.45-.57-.79c.258-.193.505-.4.74-.62l.67.74c-.3.23-.57.46-.84.67ZM5.4 27.48c-.25-.23-.49-.48-.73-.73l.73-.68c.22.23.45.46.69.68l-.69.73ZM27.11 27l-.72-.7c.22-.23.44-.47.65-.72l.76.65c-.22.22-.45.48-.69.77ZM4 26c-.21-.26-.42-.54-.63-.82l.82-.58c.19.26.38.52.59.77L4 26Zm24.45-.59-.8-.59c.19-.26.38-.53.55-.8l.84.54c-.2.26-.39.55-.6.82l.01.03ZM2.79 24.29c-.18-.29-.35-.59-.51-.89l.88-.47c.147.28.307.56.48.84l-.85.52Zm26.77-.64-.87-.48c.15-.29.3-.57.43-.86l.91.42c-.15.27-.3.62-.47.92ZM1.83 22.47c-.14-.32-.27-.653-.39-1l.94-.35c.113.307.233.607.36.9l-.91.45Zm28.61-.69-.94-.36c.12-.3.23-.6.32-.91l1 .3c-.15.33-.26.65-.38.97ZM1.11 20.53c-.09-.33-.18-.67-.25-1l1-.21c.07.31.15.63.24.93l-.99.28Zm30-.72-1-.23c.08-.31.14-.63.2-.95l1 .17c-.1.34-.17.68-.25 1.01h.05ZM.67 18.51c-.06-.34-.1-.68-.13-1l1-.08c0 .32.07.64.11 1l-.98.08Zm30.73-.73-1-.11c0-.31.06-.64.07-1h1c-.01.43-.03.77-.07 1.11ZM.49 16.45v-1.03l1 .05v.96l-1 .02Zm30-.71c0-.32-.02-.653-.06-1l1-.1c0 .34 0 .69.06 1l-1 .1ZM1.58 14.51l-1-.12c.04-.34.09-.673.15-1l1 .18c-.06.29-.11.61-.15.94Zm28.72-.69c-.05-.32-.11-.63-.19-1l1-.22c.08.33.14.67.2 1l-1.01.22ZM1.93 12.61l-1-.25c.08-.34.18-.67.28-1l1 .31c-.107.307-.2.62-.28.94Zm27.94-.67c-.1-.31-.2-.62-.32-.92l.94-.35c.12.32.23.65.33 1l-.95.27ZM2.52 10.77l-.92-.37c.13-.33.26-.64.41-1l.9.44c-.14.33-.26.63-.39.93Zm26.66-.64c-.13-.29-.28-.58-.43-.87l.88-.47c.16.3.32.61.46.92l-.91.42ZM3.36 9l-.87-.49c.17-.3.35-.6.54-.88l.83.55c-.17.29-.34.57-.5.82Zm24.9-.6c-.17-.27-.35-.54-.54-.8l.81-.6c.2.28.39.57.58.86l-.85.54Zm-23.84-1-.8-.61c.21-.27.43-.54.65-.8l.73.68c-.18.24-.39.49-.58.75V7.4Zm22.7-.55c-.2-.25-.42-.49-.64-.72l.72-.69c.24.25.47.5.69.77l-.77.64ZM5.68 6 5 5.25l.75-.71.67.75c-.27.22-.51.44-.74.71Zm20.11-.49c-.24-.22-.48-.43-.73-.63l.62-.78.79.67-.68.74ZM7.13 4.68l-.61-.79c.27-.21.55-.42.84-.61l.56.83c-.27.18-.53.37-.79.57Zm17.15-.42c-.26-.18-.53-.36-.81-.52l.53-.86c.3.18.58.37.87.56l-.59.82ZM8.74 3.6l-.51-.87c.3-.17.61-.33.92-.48l.44.89-.85.46Zm13.89-.33a9.519 9.519 0 0 0-.87-.42l.4-.92c.32.14.63.29.93.45l-.46.89Zm-12.16-.52-.38-.93c.32-.13.64-.25 1-.36l.32 1c-.34.05-.64.16-.94.29Zm10.39-.25c-.3-.11-.61-.21-.92-.3l.27-1c.34.1.66.2 1 .32l-.35.98Zm-8.56-.37-.25-1c.33-.08.66-.16 1-.22l.19 1c-.31.09-.63.14-.94.22ZM19 2l-.95-.17.15-1c.34 0 .68.11 1 .18L19 2Zm-4.8-.2-.13-1c.34-.05.69-.08 1-.1l.05 1c-.293.007-.6.03-.92.07v.03Zm2.89-.07h-1v-1h1v1ZM9 21.66a.52.52 0 0 1-.33-.12.51.51 0 0 1-.12-.6l6.79-14a.51.51 0 0 1 .45-.28.52.52 0 0 1 .45.27l7.2 14a.49.49 0 0 1-.11.6.51.51 0 0 1-.61 0L15.79 17l-6.52 4.57a.47.47 0 0 1-.27.09Zm6.79-5.73c.1 0 .198.032.28.09l5.62 3.68L15.8 8.28l-5.53 11.38L15.5 16a.47.47 0 0 1 .28-.07h.01Z"/></g></defs><view id="neutral--enabled" viewBox="0 288 32 32"/><use href="#icon-def" x="0" y="288" style="--color:#616161"/><view id="neutral--hover" viewBox="32 288 32 32"/><use href="#icon-def" x="32" y="288" style="--color:#437DC0"/><view id="neutral--active" viewBox="64 288 32 32"/><use href="#icon-def" x="64" y="288" style="--color:#363636"/><view id="neutral--disabled" viewBox="96 288 32 32"/><use href="#icon-def" x="96" y="288" style="--color:#666666"/></svg>