<svg viewBox="0 0 32 32" xmlns="http://www.w3.org/2000/svg" data-scheme="monochrome"><defs><g id="icon-def"><path fill="var(--color)" d="M16 31.55a15.5 15.5 0 1 1 15.5-15.5A15.52 15.52 0 0 1 16 31.55Zm0-30a14.5 14.5 0 1 0 14.5 14.5A14.52 14.52 0 0 0 16 1.55Zm0 27a12.5 12.5 0 1 1 12.5-12.5A12.52 12.52 0 0 1 16 28.55Zm0-24a11.5 11.5 0 1 0 11.5 11.5A11.51 11.51 0 0 0 16 4.55Zm7.07 5H9A1.5 1.5 0 0 0 7.54 11v9A1.5 1.5 0 0 0 9 21.54h14a1.5 1.5 0 0 0 1.5-1.5V11A1.5 1.5 0 0 0 23 9.54l.07.01Zm0 1c.08.005.158.025.23.06l-6.7 5.75a.601.601 0 0 1-.86 0L9 10.55h14.07Zm0 10H9a.5.5 0 0 1-.5-.5v-8.57l6.5 5.57a1.559 1.559 0 0 0 1.13.47 1.52 1.52 0 0 0 1.08-.44l6.29-5.39V20a.51.51 0 0 1-.5.54l.07.01Z"/></g></defs><view id="neutral--enabled" viewBox="0 288 32 32"/><use href="#icon-def" x="0" y="288" style="--color:#616161"/><view id="neutral--hover" viewBox="32 288 32 32"/><use href="#icon-def" x="32" y="288" style="--color:#437DC0"/><view id="neutral--active" viewBox="64 288 32 32"/><use href="#icon-def" x="64" y="288" style="--color:#363636"/><view id="neutral--disabled" viewBox="96 288 32 32"/><use href="#icon-def" x="96" y="288" style="--color:#666666"/></svg>