<svg viewBox="0 0 32 32" xmlns="http://www.w3.org/2000/svg" data-scheme="monochrome"><defs><g id="icon-def"><path fill="var(--color)" d="M15.77 32.28a16.5 16.5 0 1 1 16.5-16.5 16.52 16.52 0 0 1-16.5 16.5Zm0-30a13.5 13.5 0 1 0 13.5 13.5 13.51 13.51 0 0 0-13.5-13.5Zm-7.1 8.14a.54.54 0 0 0-.2-.1 1 1 0 0 1 .53-.17h14a1 1 0 0 1 .63.24h-.06l-7 6a.58.58 0 0 1-.85 0l-7.05-5.97Zm7.45 7.21a1.58 1.58 0 0 1-1.12-.47l-7-6v9a1 1 0 0 0 1 1h14a1 1 0 0 0 1-1v-8.79l-6.79 5.82a1.56 1.56 0 0 1-1.09.44Z"/></g></defs><view id="neutral--enabled" viewBox="0 288 32 32"/><use href="#icon-def" x="0" y="288" style="--color:#616161"/><view id="neutral--hover" viewBox="32 288 32 32"/><use href="#icon-def" x="32" y="288" style="--color:#437DC0"/><view id="neutral--active" viewBox="64 288 32 32"/><use href="#icon-def" x="64" y="288" style="--color:#363636"/><view id="neutral--disabled" viewBox="96 288 32 32"/><use href="#icon-def" x="96" y="288" style="--color:#666666"/></svg>