<svg viewBox="0 0 32 32" xmlns="http://www.w3.org/2000/svg" data-scheme="monochrome"><defs><g id="icon-def"><path fill="var(--color)" d="M15.72 31.43h-.3v-1h1.28l.07 1c-.36-.01-.71 0-1.05 0Zm-1.33-.05c-.34 0-.69-.07-1-.12l.15-1c.31.05.63.08 1 .11l-.15 1.01Zm3.39-.08-.14-1c.33 0 .64-.1 1-.16l.19 1c-.37.06-.71.11-1.05.16Zm-5.43-.23c-.34-.08-.67-.16-1-.26l.28-1c.31.09.62.17.94.24l-.22 1.02Zm7.45-.18-.26-1c.31-.09.62-.18.92-.29l.33.95a6.96 6.96 0 0 1-.99.34Zm-9.43-.4c-.33-.12-.64-.25-1-.39l.41-.92c.29.14.59.26.89.37l-.3.94Zm11.38-.28-.39-.92c.3-.12.59-.26.88-.4l.45.89c-.31.15-.62.3-.94.43Zm-13.27-.56c-.3-.16-.6-.33-.89-.52l.52-.85.84.48-.47.89Zm15.12-.37-.51-.86c.28-.16.55-.34.82-.52l.56.83c-.28.19-.58.38-.87.55Zm-16.87-.72c-.28-.2-.56-.4-.82-.62l.63-.78c.25.21.51.4.77.59l-.58.81Zm18.57-.44-.62-.79c.26-.2.5-.41.74-.62l.67.74c-.25.23-.52.45-.79.67Zm-20.17-.86c-.25-.24-.49-.48-.73-.73l.73-.69c.22.24.45.47.68.69l-.68.73Zm21.71-.53-.72-.73c.22-.23.44-.47.65-.72l.76.65c-.22.3-.45.56-.69.8Zm-23.12-1c-.22-.27-.43-.54-.63-.82l.82-.58c.18.26.38.52.58.77l-.77.63Zm24.45-.59-.8-.59c.19-.26.37-.53.55-.8l.84.54c-.19.31-.38.59-.59.87v-.02ZM2.52 24.07c-.18-.3-.35-.59-.51-.9l.88-.47c.153.287.313.567.48.84l-.85.53Zm26.77-.64-.88-.49c.16-.28.31-.57.44-.86l.91.43c-.15.31-.3.62-.47.92ZM1.56 22.24a10.19 10.19 0 0 1-.4-1l.94-.34c.12.3.24.6.37.89l-.91.45Zm28.6-.68-.93-.36c.12-.3.23-.61.32-.92l1 .3c-.15.33-.26.66-.39.98ZM.84 20.3c-.09-.33-.18-.66-.26-1l1-.21c.067.307.147.617.24.93l-.98.28Zm29.94-.71-1-.24c.08-.31.14-.62.2-.94l1 .17c-.05.34-.12.68-.2 1.01ZM.39 18.29c0-.34-.09-.68-.12-1l1-.08c0 .32.06.64.11.95l-.99.13Zm30.74-.74-1-.1c0-.32.05-.64.07-1h1c-.01.42-.03.76-.07 1.1ZM.22 16.23V15.2h1v.97l-1 .06Zm30-.71c0-.32 0-.65-.06-1l1-.09c0 .34.05.69.06 1l-1 .09ZM1.31 14.28l-1-.11c.04-.353.09-.687.15-1l1 .18c-.07.29-.11.65-.15.93ZM30 13.6c-.05-.32-.11-.64-.19-.95l1-.23c.07.34.14.68.2 1L30 13.6ZM1.65 12.38l-1-.24c.08-.34.18-.67.28-1l1 .31c-.107.313-.2.623-.28.93Zm27.94-.66a9.94 9.94 0 0 0-.31-.92l.94-.35c.12.32.23.64.33 1l-.96.27ZM2.25 10.55l-.93-.38c.13-.32.27-.63.42-.94l.9.43c-.14.34-.27.59-.39.89Zm26.66-.64c-.14-.3-.28-.59-.43-.87l.88-.47c.16.3.32.61.46.92l-.91.42ZM3.09 8.81l-.87-.49c.17-.3.35-.6.53-.89l.84.57c-.18.25-.34.53-.5.81ZM28 8.21c-.17-.27-.35-.54-.54-.8l.8-.59c.21.28.4.56.59.85l-.85.54Zm-23.84-1-.8-.6c.21-.27.42-.54.65-.8l.76.65c-.23.23-.43.48-.62.73l.01.02Zm22.7-.54c-.2-.25-.42-.49-.64-.73l.72-.69c.24.25.47.51.69.77l-.77.65ZM5.41 5.73 4.7 5c.24-.24.49-.48.75-.71l.66.75c-.24.24-.47.46-.7.69Zm20.11-.48c-.24-.22-.48-.43-.74-.63l.63-.78c.27.21.53.44.78.67l-.67.74Zm-18.66-.8-.61-.79c.267-.207.547-.407.84-.6l.55.83c-.26.18-.53.37-.78.56ZM24 4c-.26-.18-.53-.36-.81-.53l.52-.85c.29.18.58.36.86.56L24 4ZM8.46 3.38 8 2.51c.3-.17.6-.33.92-.49l.44.9c-.36.14-.62.29-.9.46ZM22.36 3c-.29-.15-.58-.28-.87-.41l.4-.92.93.44-.46.89ZM10.2 2.52l-.38-.92c.32-.13.64-.25 1-.36l.31.94-.93.34Zm10.39-.25L19.67 2l.27-1c.34.09.66.2 1 .31l-.35.96ZM12 1.91l-.25-1c.33-.09.66-.16 1-.23l.19 1-.94.23Zm6.7-.16c-.31-.07-.63-.12-.95-.17l.14-1c.35.05.68.11 1 .18l-.19.99Zm-4.8-.21-.13-1c.34 0 .69-.07 1-.09l.06 1-.93.09Zm2.89-.06h-1v-1h1v1Zm6.8 11.58L16 7.53a.49.49 0 0 0-.59 0l-7.6 5.53a.51.51 0 0 0-.18.56l2.91 8.94a.5.5 0 0 0 .48.35h9.4a.48.48 0 0 0 .47-.35l2.91-8.94a.5.5 0 0 0-.18-.56h-.03Zm-3.56 8.85h-8.65L8.7 13.65l7-5.1 7 5.1-2.67 8.26Z"/></g></defs><view id="neutral--enabled" viewBox="0 288 32 32"/><use href="#icon-def" x="0" y="288" style="--color:#616161"/><view id="neutral--hover" viewBox="32 288 32 32"/><use href="#icon-def" x="32" y="288" style="--color:#437DC0"/><view id="neutral--active" viewBox="64 288 32 32"/><use href="#icon-def" x="64" y="288" style="--color:#363636"/><view id="neutral--disabled" viewBox="96 288 32 32"/><use href="#icon-def" x="96" y="288" style="--color:#666666"/></svg>