<svg viewBox="0 0 32 32" xmlns="http://www.w3.org/2000/svg" data-scheme="monochrome"><defs><g id="icon-def"><path fill="var(--color)" d="M16.05 31.32a15.5 15.5 0 1 1 15.5-15.5 15.52 15.52 0 0 1-15.5 15.5Zm0-30a14.5 14.5 0 1 0 14.5 14.5 14.51 14.51 0 0 0-14.5-14.5Zm0 27a12.5 12.5 0 1 1 12.5-12.5 12.51 12.51 0 0 1-12.5 12.5Zm0-24a11.5 11.5 0 1 0 11.5 11.5 11.51 11.51 0 0 0-11.5-11.5Zm7 10.5h-6v-6a1 1 0 0 0-2 0v6h-6a1 1 0 0 0 0 2h6v6a1 1 0 0 0 2 0v-6h6a1 1 0 1 0 0-2Z"/></g></defs><view id="neutral--enabled" viewBox="0 288 32 32"/><use href="#icon-def" x="0" y="288" style="--color:#616161"/><view id="neutral--hover" viewBox="32 288 32 32"/><use href="#icon-def" x="32" y="288" style="--color:#437DC0"/><view id="neutral--active" viewBox="64 288 32 32"/><use href="#icon-def" x="64" y="288" style="--color:#363636"/><view id="neutral--disabled" viewBox="96 288 32 32"/><use href="#icon-def" x="96" y="288" style="--color:#666666"/></svg>