<svg viewBox="0 0 32 32" xmlns="http://www.w3.org/2000/svg" data-scheme="monochrome"><defs><g id="icon-def"><path fill="var(--color)" d="M16.14 31.43h-.3v-1h1.28l.07 1c-.36-.01-.71 0-1.05 0Zm-1.33-.05c-.35 0-.69-.07-1-.13l.15-1 1 .11-.15 1.02Zm3.38-.08-.13-1c.32-.04.653-.09 1-.15l.19 1-1.06.15Zm-5.42-.23-1-.26.28-1c.307.087.617.167.93.24l-.21 1.02Zm7.45-.18-.26-1c.31-.08.62-.18.92-.28l.33.94c-.33.15-.66.25-.99.34Zm-9.43-.41c-.33-.12-.65-.25-1-.38l.41-.92.89.37-.3.93Zm11.38-.27-.39-.92c.3-.12.59-.26.88-.41l.45.9c-.31.15-.62.3-.94.43ZM8.9 29.64c-.3-.16-.6-.33-.89-.51l.52-.85.84.48-.47.88Zm15.1-.36-.51-.86c.28-.16.55-.34.81-.52l.57.83c-.27.19-.56.38-.87.55Zm-16.85-.72c-.28-.2-.56-.41-.82-.63l.67-.77c.25.21.51.4.77.59l-.62.81Zm18.57-.45-.62-.78.74-.62.67.74c-.26.23-.51.45-.79.66Zm-20.17-.85c-.25-.24-.5-.48-.73-.74l.73-.68c.22.24.45.46.68.68l-.68.74Zm21.7-.53-.71-.7c.22-.23.44-.47.65-.71L28 26c-.27.23-.51.48-.75.73Zm-23.11-1c-.22-.27-.43-.54-.63-.82l.81-.59c.19.27.39.52.59.77l-.77.64Zm24.45-.59-.8-.6c.19-.26.37-.52.55-.79l.84.54c-.18.31-.38.59-.59.87v-.02ZM2.94 24.06c-.18-.29-.35-.59-.51-.89l.88-.47c.153.287.313.567.48.84l-.85.52Zm26.77-.64-.88-.48c.16-.28.3-.57.44-.86l.91.43c-.18.31-.31.61-.47.91ZM2 22.24c-.14-.307-.27-.64-.39-1l.94-.34c.11.3.23.6.37.89l-.92.45Zm28.61-.68-.93-.37c.12-.3.22-.6.32-.91l1 .3c-.18.33-.29.66-.42.98h.03ZM1.26 20.3c-.1-.33-.18-.66-.26-1l1-.22c.07.32.15.63.24.94l-.98.28Zm29.94-.71-1-.24c.08-.31.14-.63.19-.94l1 .17c-.04.34-.11.67-.19 1.01ZM.81 18.29c-.05-.34-.09-.69-.12-1l1-.09c0 .33.06.65.11 1l-.99.09Zm30.74-.74-1-.1c0-.32.05-.64.07-1h1c-.01.42-.03.76-.07 1.1ZM.64 16.23V15.2h1v.97l-1 .06Zm30-.71c0-.33 0-.65-.06-1l1-.09c0 .34.05.68.06 1l-1 .09ZM1.73 14.28l-1-.11c0-.35.09-.69.16-1l1 .18c-.08.29-.13.65-.16.93Zm28.72-.69c-.05-.32-.12-.63-.19-.94l1-.23c.07.33.14.67.19 1l-1 .17ZM2.07 12.38l-1-.25c.09-.33.19-.66.29-1l1 .31c-.12.32-.21.62-.29.94ZM30 11.71c-.09-.31-.2-.61-.31-.91l.94-.36c.12.32.23.65.33 1l-.96.27ZM2.67 10.54l-.93-.37c.13-.32.27-.64.42-.94l.9.43c-.14.34-.27.58-.39.88Zm26.66-.64c-.14-.29-.28-.58-.43-.86l.88-.48c.16.31.31.62.46.93l-.91.41ZM3.51 8.8l-.88-.49c.17-.3.35-.59.54-.88L4 8c-.17.25-.34.52-.49.8Zm24.9-.59c-.17-.28-.35-.54-.54-.8l.8-.59c.208.273.402.557.58.85l-.84.54Zm-23.85-1-.79-.6c.21-.28.42-.54.65-.8l.75.65c-.17.22-.41.47-.61.73v.02Zm22.71-.55-.64-.72.72-.69c.24.25.47.51.69.77l-.77.64ZM5.83 5.73 5.12 5c.24-.25.49-.48.75-.71l.66.75c-.24.24-.47.46-.7.69Zm20.11-.48c-.24-.22-.48-.43-.74-.63l.63-.78c.27.21.53.44.78.67l-.67.74Zm-18.66-.8-.61-.79c.27-.21.55-.41.83-.61l.56.83c-.273.18-.533.37-.78.57ZM24.43 4c-.26-.19-.53-.36-.81-.53l.52-.86c.29.18.58.37.86.57l-.57.82ZM8.88 3.37l-.5-.86c.3-.17.6-.34.91-.49l.45.9c-.29.14-.58.29-.86.45ZM22.78 3l-.87-.42.4-.91c.31.14.62.28.93.44l-.46.89Zm-12.16-.48-.38-.92c.327-.14.66-.264 1-.37l.31 1c-.33.05-.63.17-.93.29ZM21 2.27c-.3-.11-.61-.21-.92-.29l.27-1c.33.1.66.2 1 .32l-.35.97Zm-8.56-.36-.26-1c.34-.09.67-.17 1-.23l.19 1c-.3.07-.61.14-.92.23h-.01Zm6.7-.16c-.31-.07-.63-.13-.95-.17l.14-1c.34.053.673.113 1 .18l-.19.99Zm-4.81-.21-.12-1c.34 0 .69-.07 1-.09l.06 1c-.27.02-.61.05-.93.09h-.01Zm2.9-.07h-1v-1h1v1Zm5.9 13.46h-6v-6a1 1 0 1 0-2 0v6h-6a1 1 0 0 0 0 2h6v6a1 1 0 0 0 2 0v-6h6a1 1 0 1 0 0-2Z"/></g></defs><view id="neutral--enabled" viewBox="0 288 32 32"/><use href="#icon-def" x="0" y="288" style="--color:#616161"/><view id="neutral--hover" viewBox="32 288 32 32"/><use href="#icon-def" x="32" y="288" style="--color:#437DC0"/><view id="neutral--active" viewBox="64 288 32 32"/><use href="#icon-def" x="64" y="288" style="--color:#363636"/><view id="neutral--disabled" viewBox="96 288 32 32"/><use href="#icon-def" x="96" y="288" style="--color:#666666"/></svg>