<svg viewBox="0 0 32 32" xmlns="http://www.w3.org/2000/svg" data-scheme="monochrome"><defs><g id="icon-def"><path fill="var(--color)" d="M15.87 31.63a15.5 15.5 0 1 1 15.5-15.5 15.51 15.51 0 0 1-15.5 15.5Zm0-30a14.5 14.5 0 1 0 14.5 14.5 14.51 14.51 0 0 0-14.5-14.5Zm0 27a12.5 12.5 0 1 1 12.5-12.5 12.51 12.51 0 0 1-12.5 12.5Zm0-24a11.5 11.5 0 1 0 11.5 11.5 11.51 11.51 0 0 0-11.5-11.5Zm8 18h-16a.5.5 0 0 1-.43-.24.48.48 0 0 1 0-.48l8-16a.52.52 0 0 1 .89 0l8 16a.48.48 0 0 1-.46.72Zm-15.19-1h14.38L15.87 7.25 8.68 21.63Z"/></g></defs><view id="neutral--enabled" viewBox="0 288 32 32"/><use href="#icon-def" x="0" y="288" style="--color:#616161"/><view id="neutral--hover" viewBox="32 288 32 32"/><use href="#icon-def" x="32" y="288" style="--color:#437DC0"/><view id="neutral--active" viewBox="64 288 32 32"/><use href="#icon-def" x="64" y="288" style="--color:#363636"/><view id="neutral--disabled" viewBox="96 288 32 32"/><use href="#icon-def" x="96" y="288" style="--color:#666666"/></svg>