<svg xmlns="http://www.w3.org/2000/svg" viewBox="0 0 24 24"><defs><path id="a" fill="var(--icon-color)" d="M10.35 23a1.16 1.16 0 0 1-1.104-.817l-2.197-7.371-6.324-2.518A1.15 1.15 0 0 1 0 11.212c0-.482.31-.896.759-1.069l6.36-2.323L9.246.816A1.16 1.16 0 0 1 10.35 0c.506 0 .955.334 1.104.817l2.139 7.003 6.36 2.323c.448.161.747.586.759 1.07.011.482-.288.908-.725 1.08l-6.325 2.508-2.197 7.371a1.16 1.16 0 0 1-1.104.816zM4.382 11.27l4.036 1.61c.322.127.575.402.679.736l1.253 4.209 1.254-4.209c.103-.333.345-.61.678-.736l4.037-1.61-4.071-1.483a1.16 1.16 0 0 1-.702-.748L10.35 5.095 9.154 9.039a1.16 1.16 0 0 1-.701.748zM19.55 23a.673.673 0 0 1-.667-.61c-.23-2.242-.322-2.668-2.174-2.84a.673.673 0 0 1-.609-.667c0-.345.264-.633.61-.667 1.851-.172 1.954-.46 2.173-2.668a.673.673 0 0 1 1.334 0c.219 2.208.322 2.496 2.174 2.668a.673.673 0 0 1 .609.667.663.663 0 0 1-.598.667c-1.852.172-1.955.598-2.185 2.84a.663.663 0 0 1-.667.598z"/></defs><view id="on-primary" viewBox="0 0 24 24"/><use data-state="primary" href="#a" style="--icon-color:#5BA7FF"/><view id="primary-hover" viewBox="24 0 24 24"/><use x="24" data-state="primary-hover" href="#a" style="--icon-color:#437DC0"/><view id="primary-active" viewBox="48 0 24 24"/><use x="48" data-state="primary-active" href="#a" style="--icon-color:#335884"/><view id="primary-disabled" viewBox="72 0 24 24"/><use x="72" data-state="primary-disabled" href="#a" style="--icon-color:#333333"/><view viewBox="96 0 24 24"/><use x="96" data-state="on-primary" href="#a" style="--icon-color:#1A1A1A"/><view id="on-primary-hover" viewBox="120 0 24 24"/><use x="120" data-state="on-primary-hover" href="#a" style="--icon-color:#437DC0"/><view id="on-primary-active" viewBox="144 0 24 24"/><use x="144" data-state="on-primary-active" href="#a" style="--icon-color:#FFFFFF"/><view id="on-disabled" viewBox="168 0 24 24"/><use x="168" data-state="on-disabled" href="#a" style="--icon-color:#666666"/><view id="neutral" viewBox="192 0 24 24"/><use x="192" data-state="neutral" href="#a" style="--icon-color:#B3B3B3"/></svg>