<svg xmlns="http://www.w3.org/2000/svg" viewBox="0 0 25 24"><defs><path id="a" fill="var(--icon-color)" d="M8.48 3H4.328a.346.346 0 0 0-.346.347V7.5c0 .192.155.347.346.347h4.154a.346.346 0 0 0 .346-.347V3.347A.346.346 0 0 0 8.481 3m6.577 0h-4.154a.346.346 0 0 0-.346.347V7.5c0 .192.155.347.346.347h4.154a.346.346 0 0 0 .346-.347V3.347A.346.346 0 0 0 15.058 3m6.577 0H17.48a.346.346 0 0 0-.346.347V7.5c0 .192.155.347.346.347h4.154a.346.346 0 0 0 .346-.347V3.347A.346.346 0 0 0 21.635 3M8.48 9.577H4.328a.346.346 0 0 0-.346.346v4.154c0 .191.155.346.346.346h4.154a.346.346 0 0 0 .346-.346V9.923a.346.346 0 0 0-.346-.346m6.576 0h-4.154a.346.346 0 0 0-.346.346v4.154c0 .191.155.346.346.346h4.154a.346.346 0 0 0 .346-.346V9.923a.346.346 0 0 0-.346-.346m6.577 0H17.48a.346.346 0 0 0-.346.346v4.154c0 .191.155.346.346.346h4.154a.346.346 0 0 0 .346-.346V9.923a.346.346 0 0 0-.346-.346M8.48 16.154H4.328a.346.346 0 0 0-.346.346v4.154c0 .191.155.346.346.346h4.154a.346.346 0 0 0 .346-.346V16.5a.346.346 0 0 0-.346-.346m6.576 0h-4.154a.346.346 0 0 0-.346.346v4.154c0 .191.155.346.346.346h4.154a.346.346 0 0 0 .346-.346V16.5a.346.346 0 0 0-.346-.346m6.577 0H17.48a.346.346 0 0 0-.346.346v4.154c0 .191.155.346.346.346h4.154a.346.346 0 0 0 .346-.346V16.5a.346.346 0 0 0-.346-.346"/></defs><view id="on-primary" viewBox="0 0 25 24"/><use data-state="primary" href="#a" style="--icon-color:#5BA7FF"/><view id="primary-hover" viewBox="25 0 25 24"/><use x="25" data-state="primary-hover" href="#a" style="--icon-color:#437DC0"/><view id="primary-active" viewBox="50 0 25 24"/><use x="50" data-state="primary-active" href="#a" style="--icon-color:#335884"/><view id="primary-disabled" viewBox="75 0 25 24"/><use x="75" data-state="primary-disabled" href="#a" style="--icon-color:#333333"/><view viewBox="100 0 25 24"/><use x="100" data-state="on-primary" href="#a" style="--icon-color:#1A1A1A"/><view id="on-primary-hover" viewBox="125 0 25 24"/><use x="125" data-state="on-primary-hover" href="#a" style="--icon-color:#437DC0"/><view id="on-primary-active" viewBox="150 0 25 24"/><use x="150" data-state="on-primary-active" href="#a" style="--icon-color:#FFFFFF"/><view id="on-disabled" viewBox="175 0 25 24"/><use x="175" data-state="on-disabled" href="#a" style="--icon-color:#666666"/><view id="neutral" viewBox="200 0 25 24"/><use x="200" data-state="neutral" href="#a" style="--icon-color:#B3B3B3"/></svg>