<svg xmlns="http://www.w3.org/2000/svg" data-scheme="multicolor" viewBox="0 0 16 16"><defs><g id="icon-def"><path fill="var(--04)" d="M4.35.15A3.9 3.9 0 0 0 1.74 4 3.7 3.7 0 0 0 2 5.17L0 7.82l4.46 4.06L11 6.11Zm3.21 4.23.59.53a2.89 2.89 0 0 1-2.44 1.71h-.18a2.78 2.78 0 0 1-2.37-1.33l2.18-2.91ZM2.74 4a2.92 2.92 0 0 1 1.43-2.67l.42.38-1.82 2.44A2 2 0 0 1 2.74 4M1.36 7.69l1.17-1.56a3.76 3.76 0 0 0 3 1.49h.24a3.84 3.84 0 0 0 3.14-2l.55.5-5 4.43Z"/><path fill="var(--08)" d="M4.87 15.65a.48.48 0 0 0 .49.47h3.45a.48.48 0 0 0 .49-.47v-2.39H4.87Zm2.21-1.39a.43.43 0 1 1 0 .86.43.43 0 1 1 0-.86m2.78-5 2.38 1.27L10.75 13l-.89-.47Zm0 4.29.46.24-.46.77Zm5.9-9-1.17 2-3.66-2 1.16-2a.45.45 0 0 1 .41-.23.6.6 0 0 1 .23.05l2.85 1.53a.4.4 0 0 1 .22.27.41.41 0 0 1-.04.34Zm-8.3-2.9h1.35a.48.48 0 0 1 .49.47v1.15Zm6.7 5.61-1.49 2.48L10 8.31l1.63-1.46.69-.62Zm-5.3 2.1h.44v3H5.44Z"/></g></defs><view id="enabled" viewBox="0 0 16 16"/><use href="#icon-def" style="--04:#00a99d;--08:#f7941d"/><view id="hover" viewBox="16 0 16 16"/><use x="16" href="#icon-def" style="--04:#7ccdc7;--08:#fab454"/><view id="active" viewBox="32 0 16 16"/><use x="32" href="#icon-def" style="--04:#00998c;--08:#f3891b"/><view id="disabled" viewBox="48 0 16 16"/><use x="48" href="#icon-def" style="--04:#a4a5a6;--08:#a4a5a6"/></svg>