<svg xmlns="http://www.w3.org/2000/svg" data-scheme="multicolor" viewBox="0 0 16 16"><defs><g id="icon-def"><path fill="var(--04)" d="M5.79 14.25h4.68V16H5.79Zm7-4.21-.49.22a4 4 0 0 0-2.28 3H9a4.73 4.73 0 0 1 2.4-3.63L8.69 4.48v3.36a1.3 1.3 0 1 1-1 0V4.26L4.82 9.6a4.75 4.75 0 0 1 2.39 3.63h-1a4 4 0 0 0-2.28-3L3.45 10l4.26-7.9.42.23.42-.23ZM8.48 9a.3.3 0 1 0-.29.29.29.29 0 0 0 .29-.29"/><path fill="var(--09)" d="M8.76.05H7.59A1.32 1.32 0 0 0 6.33 1a5.76 5.76 0 0 0-4.16 1A4.31 4.31 0 0 0 .75 5.4h1a3.29 3.29 0 0 1 1.06-2.64A4.8 4.8 0 0 1 6.26 2v.54a1.5 1.5 0 0 0 .06.3l.94-1.48a.33.33 0 0 1 .33-.33h1.17a.33.33 0 0 1 .33.33l.91 1.7a1.2 1.2 0 0 0 .1-.5V1.38A1.33 1.33 0 0 0 8.76.05"/></g></defs><view id="enabled" viewBox="0 0 16 16"/><use href="#icon-def" style="--04:#00a99d;--09:#616164"/><view id="hover" viewBox="16 0 16 16"/><use x="16" href="#icon-def" style="--04:#7ccdc7;--09:#828385"/><view id="active" viewBox="32 0 16 16"/><use x="32" href="#icon-def" style="--04:#00998c;--09:#3e3f42"/><view id="disabled" viewBox="48 0 16 16"/><use x="48" href="#icon-def" style="--04:#a4a5a6;--09:#a4a5a6"/></svg>