<svg xmlns="http://www.w3.org/2000/svg" data-scheme="multicolor" viewBox="0 0 16 16"><defs><path id="icon-def" fill="var(--03)" d="M15.2 6H15V3.74a1 1 0 0 0-1-1H9v-1a1 1 0 0 0-1-1H3a1 1 0 0 0-1 1v1a1 1 0 0 0-1 1V6H.84a.93.93 0 0 0-.92 1l1 7.91a.93.93 0 0 0 .93.92h12.3a.92.92 0 0 0 .93-.85l1-8A.92.92 0 0 0 15.2 6M2 3.74h1v-2h5v2h6V6H2Zm12.11 11H1.93L.93 7h14.18Z"/></defs><view id="enabled" viewBox="0 0 16 16"/><use href="#icon-def" style="--03:#00746b"/><view id="hover" viewBox="16 0 16 16"/><use x="16" href="#icon-def" style="--03:#009187"/><view id="active" viewBox="32 0 16 16"/><use x="32" href="#icon-def" style="--03:#02645b"/><view id="disabled" viewBox="48 0 16 16"/><use x="48" href="#icon-def" style="--03:#a4a5a6"/></svg>