<svg xmlns="http://www.w3.org/2000/svg" data-scheme="multicolor" viewBox="0 0 16 16"><defs><g id="icon-def"><path fill="var(--07)" d="M14 10.93v1h-1v-1Zm-3-2h-1v1h1zm3 4h-1v1h1zM15 5H7a1 1 0 0 0-1 1v9a1 1 0 0 0 1 1h2a1 1 0 0 1-1-1H7V6h8v1a1 1 0 0 1 1 1V6a1 1 0 0 0-1-1"/><path fill="var(--04)" d="M15 8v7H9V8zm0-1H9a1 1 0 0 0-1 1v7a1 1 0 0 0 1 1h6a1 1 0 0 0 1-1V8a1 1 0 0 0-1-1m-4 5.95v-3h-1v4h3v-1ZM5 15H1.2a.6.6 0 0 1-.08-.34V4.94h4.13A2 2 0 0 1 7 4h8a2 2 0 0 1 1 .28V1.32C16 .58 15.51 0 15 0H1.11c-.55 0-1 .6-1 1.34v13.34c0 .74.44 1.34 1 1.34h4.14A2 2 0 0 1 5 15M2.1 1.91H11v1H2.1Zm10.86 9H11v1h2v-1Z"/></g></defs><view id="enabled" viewBox="0 0 16 16"/><use href="#icon-def" style="--07:#f26522;--04:#00a99d"/><view id="hover" viewBox="16 0 16 16"/><use x="16" href="#icon-def" style="--07:#f59065;--04:#7ccdc7"/><view id="active" viewBox="32 0 16 16"/><use x="32" href="#icon-def" style="--07:#e75e1e;--04:#00998c"/><view id="disabled" viewBox="48 0 16 16"/><use x="48" href="#icon-def" style="--07:#a4a5a6;--04:#a4a5a6"/></svg>