<svg xmlns="http://www.w3.org/2000/svg" data-scheme="multicolor" viewBox="0 0 16 16"><defs><path id="icon-def" fill="var(--02)" d="M15 0H1a1 1 0 0 0-1 1v14a1 1 0 0 0 1 1h14a1 1 0 0 0 1-1V1a1 1 0 0 0-1-1m0 7.78h-3.93V5H15Zm-9 3.6v-2.6h4.05v2.6Zm4.05 1V15H6v-2.62Zm-5.05-1H1v-2.6h4ZM10.07 5v2.78H6V5Zm1 3.78H15v2.6h-3.93ZM2 2h9v1H2Zm3 3v2.78H1V5Zm-4 7.38h4V15H1ZM11.07 15v-2.62H15V15Z"/></defs><view id="enabled" viewBox="0 0 16 16"/><use href="#icon-def" style="--02:#605cab"/><view id="hover" viewBox="16 0 16 16"/><use x="16" href="#icon-def" style="--02:#9e9ecc"/><view id="active" viewBox="32 0 16 16"/><use x="32" href="#icon-def" style="--02:#484099"/><view id="disabled" viewBox="48 0 16 16"/><use x="48" href="#icon-def" style="--02:#a4a5a6"/></svg>