<svg xmlns="http://www.w3.org/2000/svg" data-scheme="multicolor" viewBox="0 0 16 16"><defs><path id="icon-def" fill="var(--05)" d="M15 0H1a1 1 0 0 0-1 1v14a1 1 0 0 0 1 1h14a1 1 0 0 0 1-1V1a1 1 0 0 0-1-1M1 15V4h14v11ZM11 5H2v7h8v2h4V5zM3 6h7v1H3Zm0 2h7v1H3Zm0 3v-1h7v1Zm10 2h-2v-1h2Zm0-2h-2v-1h2Zm0-2h-2V8h2Zm0-2h-2V6h2Z"/></defs><view id="enabled" viewBox="0 0 16 16"/><use href="#icon-def" style="--05:#39b54a"/><view id="hover" viewBox="16 0 16 16"/><use x="16" href="#icon-def" style="--05:#79cc81"/><view id="active" viewBox="32 0 16 16"/><use x="32" href="#icon-def" style="--05:#2fa640"/><view id="disabled" viewBox="48 0 16 16"/><use x="48" href="#icon-def" style="--05:#a4a5a6"/></svg>