<svg xmlns="http://www.w3.org/2000/svg" data-scheme="multicolor" viewBox="0 0 16 16"><defs><path id="icon-def" fill="var(--02)" d="M15.5 0H.5a.5.5 0 0 0-.5.5v15a.5.5 0 0 0 .5.5H6v-1h4v1h5.5a.5.5 0 0 0 .5-.5V.51a.5.5 0 0 0-.5-.51M5 15H1v-3h4zm0-4H1V8h4zm0-4H1V4h4zm5 5H6v-1h4zm0-4H6V7h4zm5 7h-4v-3h4zm0-4h-4V8h4zm0-4h-4V4h4z"/></defs><view id="enabled" viewBox="0 0 16 16"/><use href="#icon-def" style="--02:#605cab"/><view id="hover" viewBox="16 0 16 16"/><use x="16" href="#icon-def" style="--02:#9e9ecc"/><view id="active" viewBox="32 0 16 16"/><use x="32" href="#icon-def" style="--02:#484099"/><view id="disabled" viewBox="48 0 16 16"/><use x="48" href="#icon-def" style="--02:#a4a5a6"/></svg>