<svg xmlns="http://www.w3.org/2000/svg" width="18" height="18" fill="currentColor" viewBox="0 0 18 18">
  <path d="M7.241 17.4c-.2 0-.3-.1-.3-.3l-.3-2.3c-.2-.1-.3-.2-.5-.2-.2-.1-.3-.2-.5-.3l-2.2.8c-.2.1-.3 0-.4-.1l-2-3.4c-.1-.1 0-.3.1-.4l1.9-1.4V8.6l-1.9-1.4c-.1-.1-.1-.3-.1-.4l2-3.4c.1-.1.3-.2.4-.1l2.2.9c.2-.1.3-.2.5-.3.1-.1.3-.2.4-.3l.3-2.3c0-.2.2-.3.3-.3h3.9c.2 0 .3.1.3.3l.3 2.3c.2.1.3.2.5.2.2.1.3.2.5.3l2.2-.9c.2-.1.3 0 .4.1l2 3.4c.1.1 0 .3-.1.4l-1.9 1.4v1.2l1.9 1.4c.1.1.2.3.1.4l-2 3.4c-.1.1-.3.2-.4.1l-2.1-.9c-.2.1-.3.2-.5.3-.2.1-.3.2-.5.2l-.3 2.5c0 .2-.2.3-.3.3h-3.9Zm1.8-5.1c.9 0 1.7-.3 2.3-1 .6-.6 1-1.4 1-2.3 0-.9-.3-1.7-1-2.3-.6-.6-1.4-1-2.3-1-.9 0-1.7.3-2.3 1-.6.7-.9 1.5-.9 2.4 0 .9.3 1.7.9 2.3.7.6 1.4.9 2.3.9Z"/>
</svg>
