<svg viewBox="0 0 17 17" xmlns="http://www.w3.org/2000/svg" data-scheme="monochrome"><defs><g id="icon-def"><path fill="var(--color)" fill-rule="evenodd" d="M6.06 11.6a1.298 1.298 0 0 1-1.196-.732 1.811 1.811 0 0 1-.101-1.079 3.37 3.37 0 0 1 .7-1.946 1.879 1.879 0 0 1 1.38-.598h2.739a.194.194 0 0 1 .177.118l.54 1.18a.16.16 0 0 1 0 .109l-.254.615 1.55-1.912a.26.26 0 0 1 .203-.102h.295a.169.169 0 0 1 .126.295l-1.5 1.879.843 1.845a.228.228 0 0 1 0 .194.203.203 0 0 1-.202.135h-.278c-.135 0-.186-.11-.236-.228l-.59-1.348-1.18 1.458a.287.287 0 0 1-.219.126H8.53c-.093 0-.152-.101-.152-.185a.261.261 0 0 1 .076-.169l1.5-1.887a11.88 11.88 0 0 0-.531-1.095 1.685 1.685 0 0 0-1.18-.843.54.54 0 0 1-.556.489 3.168 3.168 0 0 0-1.322.118c-.75.345-.75 1.045-.885 1.752-.168 1.298.615 1.146 1.559 1.146a.067.067 0 0 0 .053-.016.067.067 0 0 0 .023-.051l.117-.725c0-.135 0-.236-.185-.27a.53.53 0 0 1-.438-.496.118.118 0 0 1 .126-.118H7.88c.16 0 .22.143.194.278l-.337 1.81c0 .127-.084.237-.244.237H6.06" clip-rule="evenodd"/><path stroke="var(--color)" stroke-linecap="round" stroke-linejoin="round" stroke-width="1.2" d="M8.505 1.676c-1.077-.001-2.12.424-2.951 1.202-.83.778-1.395 1.86-1.598 3.06-.852.176-1.616.706-2.141 1.487a4.323 4.323 0 0 0-.698 2.736c.077.979.473 1.89 1.112 2.554.638.664 1.472 1.034 2.338 1.036h7.866c.866-.002 1.7-.372 2.338-1.036.639-.664 1.035-1.575 1.111-2.554a4.323 4.323 0 0 0-.697-2.736c-.525-.781-1.289-1.311-2.141-1.486a5.507 5.507 0 0 0-1.273-2.725c-.655-.743-1.491-1.246-2.401-1.444a4.22 4.22 0 0 0-.865-.094Z" fill="transparent"/></g></defs><view id="on-surface-enabled" viewBox="0 0 17 17"/><use href="#icon-def" x="0" y="0" style="--color:#999999"/><view id="on-primary-enabled" viewBox="0 17 17 17"/><use href="#icon-def" x="0" y="17" style="--color:#1A1A1A"/><view id="on-primary-hover" viewBox="17 17 17 17"/><use href="#icon-def" x="17" y="17" style="--color:#B3B3B3"/><view id="on-primary-active" viewBox="34 17 17 17"/><use href="#icon-def" x="34" y="17" style="--color:#FFFFFF"/><view id="on-primary-disabled" viewBox="51 17 17 17"/><use href="#icon-def" x="51" y="17" style="--color:#7F7F7F"/><view id="on-disabled-enabled" viewBox="0 34 17 17"/><use href="#icon-def" x="0" y="34" style="--color:#7F7F7F"/><view id="on-disabled-hover" viewBox="17 34 17 17"/><use href="#icon-def" x="17" y="34" style="--color:null"/><view id="on-disabled-active" viewBox="34 34 17 17"/><use href="#icon-def" x="34" y="34" style="--color:null"/><view id="on-disabled-disabled" viewBox="51 34 17 17"/><use href="#icon-def" x="51" y="34" style="--color:null"/><view id="on-message-enabled" viewBox="0 51 17 17"/><use href="#icon-def" x="0" y="51" style="--color:#333333"/><view id="on-message-hover" viewBox="17 51 17 17"/><use href="#icon-def" x="17" y="51" style="--color:null"/><view id="on-message-active" viewBox="34 51 17 17"/><use href="#icon-def" x="34" y="51" style="--color:null"/><view id="on-message-disabled" viewBox="51 51 17 17"/><use href="#icon-def" x="51" y="51" style="--color:null"/><view id="on-elevation-enabled" viewBox="0 68 17 17"/><use href="#icon-def" x="0" y="68" style="--color:#CCCCCC"/><view id="on-elevation-hover" viewBox="17 68 17 17"/><use href="#icon-def" x="17" y="68" style="--color:null"/><view id="on-elevation-active" viewBox="34 68 17 17"/><use href="#icon-def" x="34" y="68" style="--color:null"/><view id="on-elevation-disabled" viewBox="51 68 17 17"/><use href="#icon-def" x="51" y="68" style="--color:null"/><view id="primary-enabled" viewBox="0 85 17 17"/><use href="#icon-def" x="0" y="85" style="--color:#5BA7FF"/><view id="primary-hover" viewBox="17 85 17 17"/><use href="#icon-def" x="17" y="85" style="--color:#437DC0"/><view id="primary-active" viewBox="34 85 17 17"/><use href="#icon-def" x="34" y="85" style="--color:#335884"/><view id="primary-disabled" viewBox="51 85 17 17"/><use href="#icon-def" x="51" y="85" style="--color:#4D4D4D"/><view id="neutral-enabled" viewBox="0 153 17 17"/><use href="#icon-def" x="0" y="153" style="--color:#B3B3B3"/><view id="neutral-hover" viewBox="17 153 17 17"/><use href="#icon-def" x="17" y="153" style="--color:null"/><view id="neutral-active" viewBox="34 153 17 17"/><use href="#icon-def" x="34" y="153" style="--color:null"/><view id="neutral-disabled" viewBox="51 153 17 17"/><use href="#icon-def" x="51" y="153" style="--color:null"/><view id="highlighted-enabled" viewBox="0 170 17 17"/><use href="#icon-def" x="0" y="170" style="--color:#CCCCCC"/><view id="highlighted-hover" viewBox="17 170 17 17"/><use href="#icon-def" x="17" y="170" style="--color:null"/><view id="highlighted-active" viewBox="34 170 17 17"/><use href="#icon-def" x="34" y="170" style="--color:null"/><view id="highlighted-disabled" viewBox="51 170 17 17"/><use href="#icon-def" x="51" y="170" style="--color:null"/><view id="bright-enabled" viewBox="0 187 17 17"/><use href="#icon-def" x="0" y="187" style="--color:#FFFFFF"/><view id="bright-hover" viewBox="17 187 17 17"/><use href="#icon-def" x="17" y="187" style="--color:null"/><view id="bright-active" viewBox="34 187 17 17"/><use href="#icon-def" x="34" y="187" style="--color:null"/><view id="bright-disabled" viewBox="51 187 17 17"/><use href="#icon-def" x="51" y="187" style="--color:null"/></svg>