<svg viewBox="0 0 18 18" xmlns="http://www.w3.org/2000/svg" data-scheme="monochrome"><defs><g id="icon-def"><path fill="var(--color)" fill-rule="evenodd" d="M13.973 7.84h-1.006a3.87 3.87 0 0 0-.54-1.271l.72-.72a.312.312 0 0 0 0-.455l-.803-.815a.347.347 0 0 0-.468 0l-.707.72A3.968 3.968 0 0 0 9.9 4.77v-.959a.336.336 0 0 0-.324-.335H8.377a.336.336 0 0 0-.276.335v.96c-.45.1-.88.278-1.27.526l-.707-.719a.348.348 0 0 0-.468 0l-.803.815a.312.312 0 0 0 0 .456l.72.719a3.87 3.87 0 0 0-.54 1.27H4.026a.324.324 0 0 0-.323.324V9.3a.324.324 0 0 0 .323.324h1.007c.105.451.287.881.54 1.27l-.72.72a.312.312 0 0 0 0 .455l.803.815a.348.348 0 0 0 .468 0l.707-.72c.392.244.82.422 1.27.528V13.7a.324.324 0 0 0 .324.323h1.198a.324.324 0 0 0 .324-.323v-1.007c.43-.1.843-.265 1.222-.492l.707.72a.348.348 0 0 0 .468 0l.803-.815a.312.312 0 0 0 0-.456l-.72-.719a3.99 3.99 0 0 0 .54-1.27h1.006a.324.324 0 0 0 .324-.324V8.163a.325.325 0 0 0-.324-.324ZM9 11.481A2.756 2.756 0 1 1 9 5.97a2.756 2.756 0 0 1 0 5.512Z" clip-rule="evenodd"/><path stroke="var(--color)" stroke-linecap="round" stroke-linejoin="round" stroke-width="1.2" d="M1 .75h16v16H1z" fill="transparent"/></g></defs><view id="on-surface-enabled" viewBox="0 0 18 18"/><use href="#icon-def" x="0" y="0" style="--color:#999999"/><view id="on-surface-hover" viewBox="18 0 18 18"/><use href="#icon-def" x="18" y="0" style="--color:null"/><view id="on-surface-active" viewBox="36 0 18 18"/><use href="#icon-def" x="36" y="0" style="--color:null"/><view id="on-surface-disabled" viewBox="54 0 18 18"/><use href="#icon-def" x="54" y="0" style="--color:null"/><view id="on-primary-enabled" viewBox="0 18 18 18"/><use href="#icon-def" x="0" y="18" style="--color:#1A1A1A"/><view id="on-primary-hover" viewBox="18 18 18 18"/><use href="#icon-def" x="18" y="18" style="--color:#B3B3B3"/><view id="on-primary-active" viewBox="36 18 18 18"/><use href="#icon-def" x="36" y="18" style="--color:#FFFFFF"/><view id="on-primary-disabled" viewBox="54 18 18 18"/><use href="#icon-def" x="54" y="18" style="--color:#7F7F7F"/><view id="on-disabled-enabled" viewBox="0 36 18 18"/><use href="#icon-def" x="0" y="36" style="--color:#7F7F7F"/><view id="on-disabled-hover" viewBox="18 36 18 18"/><use href="#icon-def" x="18" y="36" style="--color:null"/><view id="on-disabled-active" viewBox="36 36 18 18"/><use href="#icon-def" x="36" y="36" style="--color:null"/><view id="on-disabled-disabled" viewBox="54 36 18 18"/><use href="#icon-def" x="54" y="36" style="--color:null"/><view id="on-message-enabled" viewBox="0 54 18 18"/><use href="#icon-def" x="0" y="54" style="--color:#333333"/><view id="on-message-hover" viewBox="18 54 18 18"/><use href="#icon-def" x="18" y="54" style="--color:null"/><view id="on-message-active" viewBox="36 54 18 18"/><use href="#icon-def" x="36" y="54" style="--color:null"/><view id="on-message-disabled" viewBox="54 54 18 18"/><use href="#icon-def" x="54" y="54" style="--color:null"/><view id="on-elevation-enabled" viewBox="0 72 18 18"/><use href="#icon-def" x="0" y="72" style="--color:#CCCCCC"/><view id="on-elevation-hover" viewBox="18 72 18 18"/><use href="#icon-def" x="18" y="72" style="--color:null"/><view id="on-elevation-active" viewBox="36 72 18 18"/><use href="#icon-def" x="36" y="72" style="--color:null"/><view id="on-elevation-disabled" viewBox="54 72 18 18"/><use href="#icon-def" x="54" y="72" style="--color:null"/><view id="primary-enabled" viewBox="0 90 18 18"/><use href="#icon-def" x="0" y="90" style="--color:#5BA7FF"/><view id="primary-hover" viewBox="18 90 18 18"/><use href="#icon-def" x="18" y="90" style="--color:#437DC0"/><view id="primary-active" viewBox="36 90 18 18"/><use href="#icon-def" x="36" y="90" style="--color:#335884"/><view id="primary-disabled" viewBox="54 90 18 18"/><use href="#icon-def" x="54" y="90" style="--color:#4D4D4D"/><view id="neutral-enabled" viewBox="0 162 18 18"/><use href="#icon-def" x="0" y="162" style="--color:#B3B3B3"/><view id="neutral-hover" viewBox="18 162 18 18"/><use href="#icon-def" x="18" y="162" style="--color:null"/><view id="neutral-active" viewBox="36 162 18 18"/><use href="#icon-def" x="36" y="162" style="--color:null"/><view id="neutral-disabled" viewBox="54 162 18 18"/><use href="#icon-def" x="54" y="162" style="--color:null"/><view id="highlighted-enabled" viewBox="0 180 18 18"/><use href="#icon-def" x="0" y="180" style="--color:#CCCCCC"/><view id="highlighted-hover" viewBox="18 180 18 18"/><use href="#icon-def" x="18" y="180" style="--color:null"/><view id="highlighted-active" viewBox="36 180 18 18"/><use href="#icon-def" x="36" y="180" style="--color:null"/><view id="highlighted-disabled" viewBox="54 180 18 18"/><use href="#icon-def" x="54" y="180" style="--color:null"/><view id="bright-enabled" viewBox="0 198 18 18"/><use href="#icon-def" x="0" y="198" style="--color:#FFFFFF"/><view id="bright-hover" viewBox="18 198 18 18"/><use href="#icon-def" x="18" y="198" style="--color:null"/><view id="bright-active" viewBox="36 198 18 18"/><use href="#icon-def" x="36" y="198" style="--color:null"/><view id="bright-disabled" viewBox="54 198 18 18"/><use href="#icon-def" x="54" y="198" style="--color:null"/></svg>