<svg viewBox="0 0 16 17" xmlns="http://www.w3.org/2000/svg" data-scheme="monochrome"><defs><g id="icon-def"><path fill="var(--color)" fill-rule="evenodd" d="M3.51 3.885a3.51 3.51 0 1 1 7.02-.04 3.51 3.51 0 0 1-7.02.04Zm5.07 9.72.15.06v-.15l-.15.09Zm-4.88.45v-1.53l.58-.27 3.77-1.77 1.43-.67 3.52.17a11.48 11.48 0 0 0-6-1.71c-2.34 0-7 1.17-7 3.51v2.59h3.7v-.32Zm8.31-.4h.12-.12Zm-3.53 1-2.33-1 2.33-1.05v-1.23l-3.78 1.78v.9l3.78 1.76v-1.16Zm2.06-3.67L9 16.375h1.2l1.53-5.39h-1.19Zm1.69 1.57 2.33 1.05-2.33 1v1.16l3.77-1.72v-.9l-3.77-1.77v1.18Z" clip-rule="evenodd"/><path fill="var(--color)" d="M0 .375h16v16H0z"/></g></defs><view id="on-surface-enabled" viewBox="0 0 16 17"/><use href="#icon-def" x="0" y="0" style="--color:#999999"/><view id="on-surface-hover" viewBox="16 0 16 17"/><use href="#icon-def" x="16" y="0" style="--color:null"/><view id="on-surface-active" viewBox="32 0 16 17"/><use href="#icon-def" x="32" y="0" style="--color:null"/><view id="on-surface-disabled" viewBox="48 0 16 17"/><use href="#icon-def" x="48" y="0" style="--color:null"/><view id="on-primary-enabled" viewBox="0 17 16 17"/><use href="#icon-def" x="0" y="17" style="--color:#1A1A1A"/><view id="on-primary-hover" viewBox="16 17 16 17"/><use href="#icon-def" x="16" y="17" style="--color:#B3B3B3"/><view id="on-primary-active" viewBox="32 17 16 17"/><use href="#icon-def" x="32" y="17" style="--color:#FFFFFF"/><view id="on-primary-disabled" viewBox="48 17 16 17"/><use href="#icon-def" x="48" y="17" style="--color:#7F7F7F"/><view id="on-disabled-enabled" viewBox="0 34 16 17"/><use href="#icon-def" x="0" y="34" style="--color:#7F7F7F"/><view id="on-disabled-hover" viewBox="16 34 16 17"/><use href="#icon-def" x="16" y="34" style="--color:null"/><view id="on-disabled-active" viewBox="32 34 16 17"/><use href="#icon-def" x="32" y="34" style="--color:null"/><view id="on-disabled-disabled" viewBox="48 34 16 17"/><use href="#icon-def" x="48" y="34" style="--color:null"/><view id="on-message-enabled" viewBox="0 51 16 17"/><use href="#icon-def" x="0" y="51" style="--color:#333333"/><view id="on-message-hover" viewBox="16 51 16 17"/><use href="#icon-def" x="16" y="51" style="--color:null"/><view id="on-message-active" viewBox="32 51 16 17"/><use href="#icon-def" x="32" y="51" style="--color:null"/><view id="on-message-disabled" viewBox="48 51 16 17"/><use href="#icon-def" x="48" y="51" style="--color:null"/><view id="on-elevation-enabled" viewBox="0 68 16 17"/><use href="#icon-def" x="0" y="68" style="--color:#CCCCCC"/><view id="on-elevation-hover" viewBox="16 68 16 17"/><use href="#icon-def" x="16" y="68" style="--color:null"/><view id="on-elevation-active" viewBox="32 68 16 17"/><use href="#icon-def" x="32" y="68" style="--color:null"/><view id="on-elevation-disabled" viewBox="48 68 16 17"/><use href="#icon-def" x="48" y="68" style="--color:null"/><view id="primary-enabled" viewBox="0 85 16 17"/><use href="#icon-def" x="0" y="85" style="--color:#5BA7FF"/><view id="primary-hover" viewBox="16 85 16 17"/><use href="#icon-def" x="16" y="85" style="--color:#437DC0"/><view id="primary-active" viewBox="32 85 16 17"/><use href="#icon-def" x="32" y="85" style="--color:#335884"/><view id="primary-disabled" viewBox="48 85 16 17"/><use href="#icon-def" x="48" y="85" style="--color:#4D4D4D"/><view id="neutral-enabled" viewBox="0 153 16 17"/><use href="#icon-def" x="0" y="153" style="--color:#B3B3B3"/><view id="neutral-hover" viewBox="16 153 16 17"/><use href="#icon-def" x="16" y="153" style="--color:null"/><view id="neutral-active" viewBox="32 153 16 17"/><use href="#icon-def" x="32" y="153" style="--color:null"/><view id="neutral-disabled" viewBox="48 153 16 17"/><use href="#icon-def" x="48" y="153" style="--color:null"/><view id="highlighted-enabled" viewBox="0 170 16 17"/><use href="#icon-def" x="0" y="170" style="--color:#CCCCCC"/><view id="highlighted-hover" viewBox="16 170 16 17"/><use href="#icon-def" x="16" y="170" style="--color:null"/><view id="highlighted-active" viewBox="32 170 16 17"/><use href="#icon-def" x="32" y="170" style="--color:null"/><view id="highlighted-disabled" viewBox="48 170 16 17"/><use href="#icon-def" x="48" y="170" style="--color:null"/><view id="bright-enabled" viewBox="0 187 16 17"/><use href="#icon-def" x="0" y="187" style="--color:#FFFFFF"/><view id="bright-hover" viewBox="16 187 16 17"/><use href="#icon-def" x="16" y="187" style="--color:null"/><view id="bright-active" viewBox="32 187 16 17"/><use href="#icon-def" x="32" y="187" style="--color:null"/><view id="bright-disabled" viewBox="48 187 16 17"/><use href="#icon-def" x="48" y="187" style="--color:null"/></svg>