<svg xmlns="http://www.w3.org/2000/svg" width="16" height="16" fill="none" viewBox="0 0 16 16">
  <g class="rules" clip-path="url(#a)">
    <g class="rules">
      <path fill="#ED145B" d="M4.74 5.67H3.6v-1h1.14v1Zm7.26-1H5.6v1H12v-1Zm-7.26 3H3.6v1h1.14v-1Zm0 3H3.6v1h1.14v-1Zm11.33 1.07a4.07 4.07 0 1 0-8.138-.02 4.07 4.07 0 0 0 8.138.02Zm-1 0a3.07 3.07 0 1 1-6.14 0 3.07 3.07 0 0 1 6.14 0Zm-.72-.91-.69-.72-2.28 2.18-1-1.07-.72.69 1.7 1.8 2.99-2.88ZM9.21 16H2a1 1 0 0 1-1-1V1a1 1 0 0 1 1-1h9l4 4v3.66a5.258 5.258 0 0 0-1-.59V4h-2a1 1 0 0 1-1-1V1H2v14h6.13c.31.383.674.72 1.08 1ZM12 3h.58L12 2.37V3ZM9 7.67H5.6v1H8a4.79 4.79 0 0 1 1-1Zm-2 3H5.6v1h1.34a5.47 5.47 0 0 1 .11-1H7Z" class="icons06"/>
    </g>
  </g>
</svg>