<svg xmlns="http://www.w3.org/2000/svg" width="16" height="16" fill="none" viewBox="0 0 16 16">
  <g class="attribute-description" clip-path="url(#a)">
    <g class="attribute-description">
      <path fill="#00A99D" d="M11.58.56a4.84 4.84 0 0 0-1.35-.19A4.92 4.92 0 0 0 5.49 4a4.86 4.86 0 0 0 .59 4L.9 13.72a.26.26 0 0 0 0 .37l1.66 1.48a.29.29 0 0 0 .38 0l5.14-5.79c.25.131.51.239.78.32.443.122.9.186 1.36.19A4.93 4.93 0 0 0 11.58.56Zm2.2 5.75A3.71 3.71 0 0 1 10.24 9a3.48 3.48 0 0 1-1-.15 3.68 3.68 0 0 1 1-7.22 3.69 3.69 0 0 1 3.54 4.68Z" class="icons04"/>
    </g>
  </g>
</svg>