<svg xmlns="http://www.w3.org/2000/svg" width="16" height="16" fill="none" viewBox="0 0 16 16">
  <g class="redundant-attribute" clip-path="url(#a)">
    <g class="redundant-attribute">
      <path fill="#00746B" d="M16 11.55v1.52h-2.26v2.26h-1.53v-2.26H10v-1.52h2.25V9.29h1.53v2.26H16Z" class="icons03"/>
      <path fill="#39B54A" d="M9.2 8.05a.93.93 0 1 1-1.86 0 .93.93 0 0 1 1.86 0Zm5.48-1.93A9.79 9.79 0 0 1 13.82 8c0 .09.08.17.13.25h-1.47a2.2 2.2 0 0 0 .17-.25 15.623 15.623 0 0 0-2-2.48 14.331 14.331 0 0 0-2.53-2 14.66 14.66 0 0 0-4.45 4.53 14.28 14.28 0 0 0 2 2.48 15.1 15.1 0 0 0 2.52 2.06c.27-.18.53-.38.8-.58v2.16c-.26-.13-.53-.26-.79-.41-.578.34-1.187.62-1.82.84a6.061 6.061 0 0 1-2 .38 3.001 3.001 0 0 1-2.19-.8c-.91-.9-1.09-2.39-.5-4.2.22-.67.504-1.316.85-1.93C1.09 5.56.86 3.18 2.13 1.93 3 1 4.53.88 6.34 1.5c.629.221 1.235.503 1.81.84A11 11 0 0 1 10 1.49c1.8-.62 3.3-.47 4.21.43.88.89 1.06 2.39.47 4.2ZM3.11 9a9.241 9.241 0 0 0-.52 1.25c-.46 1.42-.37 2.58.25 3.18.62.6 1.78.68 3.18.2.406-.146.804-.317 1.19-.51a15.3 15.3 0 0 1-2.28-1.91A15.774 15.774 0 0 1 3.11 9Zm4.08-6c-.385-.21-.782-.398-1.19-.56C4.61 2 3.45 2 2.83 2.64c-.85.84-.67 2.56.28 4.44a15.37 15.37 0 0 1 1.81-2.21A16.06 16.06 0 0 1 7.19 3Zm6.29-.32A2.1 2.1 0 0 0 12 2.12a5.37 5.37 0 0 0-1.69.32 8.408 8.408 0 0 0-1.2.56c.82.562 1.583 1.202 2.28 1.91a17.1 17.1 0 0 1 1.82 2.2c.205-.403.38-.82.52-1.25.46-1.46.37-2.62-.25-3.23v.05Z" class="icons05"/>
    </g>
  </g>
</svg>