<svg viewBox="0 0 16 16" xmlns="http://www.w3.org/2000/svg" data-scheme="monochrome"><defs><g id="icon-def"><path fill="var(--color)" fill-rule="evenodd" d="M.069.562C.069.257.316.01.622.01h14.756c.306 0 .553.248.553.553v14.876a.553.553 0 0 1-.553.553H.622a.553.553 0 0 1-.553-.553V.562Zm1.106 14.322V4.764h13.65v10.12H1.175Zm.463-12.97a.553.553 0 0 0 0 1.106h7.419a.553.553 0 0 0 0-1.107H1.638Z" clip-rule="evenodd"/><path fill="var(--color)" fill-rule="evenodd" d="M11.754 9.215h-.76a2.924 2.924 0 0 0-.407-.96l.543-.542a.237.237 0 0 0 .055-.266.237.237 0 0 0-.055-.078l-.606-.615a.262.262 0 0 0-.353 0l-.534.543a2.994 2.994 0 0 0-.959-.398v-.724a.253.253 0 0 0-.244-.253H7.53a.253.253 0 0 0-.208.253V6.9c-.34.076-.665.21-.96.398l-.533-.543a.262.262 0 0 0-.353 0l-.606.615a.235.235 0 0 0 0 .344l.543.543c-.192.292-.33.617-.407.959h-.76a.244.244 0 0 0-.244.244v.86a.244.244 0 0 0 .244.243h.76c.079.341.216.666.407.96l-.543.542a.235.235 0 0 0 0 .344l.606.615a.263.263 0 0 0 .353 0l.534-.543c.296.184.62.319.959.398v.76a.244.244 0 0 0 .244.245h.904a.244.244 0 0 0 .245-.245v-.76c.325-.075.636-.2.922-.37l.534.542a.262.262 0 0 0 .353 0l.606-.615a.238.238 0 0 0 .055-.266.237.237 0 0 0-.055-.078l-.543-.542a3.01 3.01 0 0 0 .407-.96h.76a.244.244 0 0 0 .244-.244V9.46a.244.244 0 0 0-.244-.244ZM8 11.965a2.08 2.08 0 1 1 0-4.162 2.08 2.08 0 0 1 0 4.162Z" clip-rule="evenodd"/></g></defs><view id="on-surface--enabled" viewBox="0 0 16 16"/><use href="#icon-def" x="0" y="0" style="--color:#999999"/><view id="on-surface--hover" viewBox="16 0 16 16"/><use href="#icon-def" x="16" y="0" style="--color:#999999"/><view id="on-surface--active" viewBox="32 0 16 16"/><use href="#icon-def" x="32" y="0" style="--color:#999999"/><view id="on-surface--disabled" viewBox="48 0 16 16"/><use href="#icon-def" x="48" y="0" style="--color:#999999"/><view id="on-primary--enabled" viewBox="0 16 16 16"/><use href="#icon-def" x="0" y="16" style="--color:#1A1A1A"/><view id="on-primary--hover" viewBox="16 16 16 16"/><use href="#icon-def" x="16" y="16" style="--color:#1A1A1A"/><view id="on-primary--active" viewBox="32 16 16 16"/><use href="#icon-def" x="32" y="16" style="--color:#FFFFFF"/><view id="on-primary--disabled" viewBox="48 16 16 16"/><use href="#icon-def" x="48" y="16" style="--color:#7F7F7F"/><view id="on-disabled--enabled" viewBox="0 32 16 16"/><use href="#icon-def" x="0" y="32" style="--color:#7F7F7F"/><view id="on-message--enabled" viewBox="0 48 16 16"/><use href="#icon-def" x="0" y="48" style="--color:#333333"/><view id="on-elevation--enabled" viewBox="0 64 16 16"/><use href="#icon-def" x="0" y="64" style="--color:#CCCCCC"/><view id="primary--enabled" viewBox="0 80 16 16"/><use href="#icon-def" x="0" y="80" style="--color:#5ba7ff"/><view id="primary--hover" viewBox="16 80 16 16"/><use href="#icon-def" x="16" y="80" style="--color:#437dc0"/><view id="primary--active" viewBox="32 80 16 16"/><use href="#icon-def" x="32" y="80" style="--color:#335884"/><view id="primary--disabled" viewBox="48 80 16 16"/><use href="#icon-def" x="48" y="80" style="--color:#4D4D4D"/><view id="neutral--enabled" viewBox="0 144 16 16"/><use href="#icon-def" x="0" y="144" style="--color:#B3B3B3"/><view id="neutral--hover" viewBox="16 144 16 16"/><use href="#icon-def" x="16" y="144" style="--color:#437DC0"/><view id="neutral--active" viewBox="32 144 16 16"/><use href="#icon-def" x="32" y="144" style="--color:#FFFFFF"/><view id="neutral--disabled" viewBox="48 144 16 16"/><use href="#icon-def" x="48" y="144" style="--color:#7F7F7F"/><view id="highlighted--enabled" viewBox="0 160 16 16"/><use href="#icon-def" x="0" y="160" style="--color:#CCCCCC"/><view id="bright--enabled" viewBox="0 176 16 16"/><use href="#icon-def" x="0" y="176" style="--color:#FFFFFF"/></svg>