<svg viewBox="0 0 16 17" xmlns="http://www.w3.org/2000/svg" data-scheme="monochrome"><defs><g id="icon-def"><path fill="var(--color)" fill-rule="evenodd" d="M.069.937c0-.305.247-.553.553-.553h14.756c.306 0 .553.248.553.553v14.876a.553.553 0 0 1-.553.553H.622a.553.553 0 0 1-.553-.553V.937ZM1.175 15.26V5.14h13.65v10.12H1.175Zm.463-12.97a.553.553 0 0 0 0 1.106h7.419a.553.553 0 0 0 0-1.107H1.638Z" clip-rule="evenodd"/><path fill="var(--color)" fill-rule="evenodd" d="M3.255 8.736a.84.84 0 1 1 1.679-.018.84.84 0 0 1-1.679.018Zm4.99 3.237v.6l-5.82.027v-.793l1.365-1.291h.175l.738.72 1.586-1.55h.175l1.78 2.287Zm.811-4.04h4.519v.923H9.056v-.922Zm0 1.845h4.519v.922H9.056v-.922Zm0 1.845h2.665v.922H9.056v-.922Z" clip-rule="evenodd"/></g></defs><view id="on-surface--enabled" viewBox="0 0 16 17"/><use href="#icon-def" x="0" y="0" style="--color:#999999"/><view id="on-surface--hover" viewBox="16 0 16 17"/><use href="#icon-def" x="16" y="0" style="--color:#999999"/><view id="on-surface--active" viewBox="32 0 16 17"/><use href="#icon-def" x="32" y="0" style="--color:#999999"/><view id="on-surface--disabled" viewBox="48 0 16 17"/><use href="#icon-def" x="48" y="0" style="--color:#999999"/><view id="on-primary--enabled" viewBox="0 17 16 17"/><use href="#icon-def" x="0" y="17" style="--color:#1A1A1A"/><view id="on-primary--hover" viewBox="16 17 16 17"/><use href="#icon-def" x="16" y="17" style="--color:#1A1A1A"/><view id="on-primary--active" viewBox="32 17 16 17"/><use href="#icon-def" x="32" y="17" style="--color:#FFFFFF"/><view id="on-primary--disabled" viewBox="48 17 16 17"/><use href="#icon-def" x="48" y="17" style="--color:#7F7F7F"/><view id="on-disabled--enabled" viewBox="0 34 16 17"/><use href="#icon-def" x="0" y="34" style="--color:#7F7F7F"/><view id="on-message--enabled" viewBox="0 51 16 17"/><use href="#icon-def" x="0" y="51" style="--color:#333333"/><view id="on-elevation--enabled" viewBox="0 68 16 17"/><use href="#icon-def" x="0" y="68" style="--color:#CCCCCC"/><view id="primary--enabled" viewBox="0 85 16 17"/><use href="#icon-def" x="0" y="85" style="--color:#5BA7FF"/><view id="primary--hover" viewBox="16 85 16 17"/><use href="#icon-def" x="16" y="85" style="--color:#437DC0"/><view id="primary--active" viewBox="32 85 16 17"/><use href="#icon-def" x="32" y="85" style="--color:#335884"/><view id="primary--disabled" viewBox="48 85 16 17"/><use href="#icon-def" x="48" y="85" style="--color:#4D4D4D"/><view id="neutral--enabled" viewBox="0 153 16 17"/><use href="#icon-def" x="0" y="153" style="--color:#B3B3B3"/><view id="neutral--hover" viewBox="16 153 16 17"/><use href="#icon-def" x="16" y="153" style="--color:#437DC0"/><view id="neutral--active" viewBox="32 153 16 17"/><use href="#icon-def" x="32" y="153" style="--color:#FFFFFF"/><view id="neutral--disabled" viewBox="48 153 16 17"/><use href="#icon-def" x="48" y="153" style="--color:#7F7F7F"/><view id="highlighted--enabled" viewBox="0 170 16 17"/><use href="#icon-def" x="0" y="170" style="--color:#CCCCCC"/><view id="bright--enabled" viewBox="0 187 16 17"/><use href="#icon-def" x="0" y="187" style="--color:#FFFFFF"/></svg>