<svg viewBox="0 0 17 17" xmlns="http://www.w3.org/2000/svg" data-scheme="monochrome"><defs><g id="icon-def"><path stroke="var(--color)" stroke-miterlimit="10" stroke-width="1.2" d="M9.285 9.254H4.086c-1.66 0-3.033 1.367-3.033 3.023v2.24h2.053" fill="transparent"/><path stroke="var(--color)" stroke-miterlimit="10" stroke-width="1.2" d="M7.505 11.293h4.71c1.504 0 2.747 1.201 2.747 2.655v1.518H4.758v-1.518c0-1.454 1.243-2.655 2.747-2.655Zm2.684-2.039a3.111 3.111 0 1 0 0-6.223 3.111 3.111 0 0 0 0 6.223ZM4.88 7.485a3.111 3.111 0 1 1 2.685-5.613" fill="transparent"/></g></defs><view id="on-surface--enabled" viewBox="0 0 17 17"/><use href="#icon-def" x="0" y="0" style="--color:#999999"/><view id="on-surface--hover" viewBox="17 0 17 17"/><use href="#icon-def" x="17" y="0" style="--color:#999999"/><view id="on-surface--active" viewBox="34 0 17 17"/><use href="#icon-def" x="34" y="0" style="--color:#999999"/><view id="on-surface--disabled" viewBox="51 0 17 17"/><use href="#icon-def" x="51" y="0" style="--color:#999999"/><view id="on-primary--enabled" viewBox="0 17 17 17"/><use href="#icon-def" x="0" y="17" style="--color:#1A1A1A"/><view id="on-primary--hover" viewBox="17 17 17 17"/><use href="#icon-def" x="17" y="17" style="--color:#1A1A1A"/><view id="on-primary--active" viewBox="34 17 17 17"/><use href="#icon-def" x="34" y="17" style="--color:#FFFFFF"/><view id="on-primary--disabled" viewBox="51 17 17 17"/><use href="#icon-def" x="51" y="17" style="--color:#7F7F7F"/><view id="on-disabled--enabled" viewBox="0 34 17 17"/><use href="#icon-def" x="0" y="34" style="--color:#7F7F7F"/><view id="on-message--enabled" viewBox="0 51 17 17"/><use href="#icon-def" x="0" y="51" style="--color:#333333"/><view id="on-elevation--enabled" viewBox="0 68 17 17"/><use href="#icon-def" x="0" y="68" style="--color:#CCCCCC"/><view id="primary--enabled" viewBox="0 85 17 17"/><use href="#icon-def" x="0" y="85" style="--color:#5BA7FF"/><view id="primary--hover" viewBox="17 85 17 17"/><use href="#icon-def" x="17" y="85" style="--color:#437DC0"/><view id="primary--active" viewBox="34 85 17 17"/><use href="#icon-def" x="34" y="85" style="--color:#335884"/><view id="primary--disabled" viewBox="51 85 17 17"/><use href="#icon-def" x="51" y="85" style="--color:#4D4D4D"/><view id="neutral--enabled" viewBox="0 153 17 17"/><use href="#icon-def" x="0" y="153" style="--color:#B3B3B3"/><view id="neutral--hover" viewBox="17 153 17 17"/><use href="#icon-def" x="17" y="153" style="--color:#437DC0"/><view id="neutral--active" viewBox="34 153 17 17"/><use href="#icon-def" x="34" y="153" style="--color:#FFFFFF"/><view id="neutral--disabled" viewBox="51 153 17 17"/><use href="#icon-def" x="51" y="153" style="--color:#7F7F7F"/><view id="highlighted--enabled" viewBox="0 170 17 17"/><use href="#icon-def" x="0" y="170" style="--color:#CCCCCC"/><view id="bright--enabled" viewBox="0 187 17 17"/><use href="#icon-def" x="0" y="187" style="--color:#FFFFFF"/></svg>