<svg xmlns="http://www.w3.org/2000/svg" width="16" height="16" fill="none" viewBox="0 0 16 16">
  <path stroke="#999" stroke-linecap="round" stroke-linejoin="round" stroke-width="1.2" d="M8 6.35c3.927 0 7.111-1.024 7.111-2.287 0-1.262-3.184-2.285-7.111-2.285C4.073 1.778.889 2.8.889 4.063.889 5.326 4.073 6.35 8 6.35Z"/>
  <path stroke="#999" stroke-linejoin="round" stroke-width="1.2" d="M15.111 4.063v7.874c0 1.27-3.132 2.285-7.111 2.285-3.979 0-7.111-1.016-7.111-2.285V4.063"/>
  <path stroke="#999" stroke-linejoin="round" stroke-width="1.2" d="M15.111 7.958v.169c0 1.27-3.132 2.286-7.111 2.286-3.979 0-7.111-1.016-7.111-2.286v-.085"/>
</svg>
