<svg xmlns="http://www.w3.org/2000/svg" data-scheme="multicolor" viewBox="0 0 16 16"><defs><g id="icon-def"><path fill="var(--03)" d="M3.5 4V3h-1v1zm11-2a1 1 0 0 0-1-1h-12a1 1 0 0 0-1 1v3a1 1 0 0 0 .16.52A1 1 0 0 0 .5 6v3a1 1 0 0 0 .15.5.9.9 0 0 0-.15.5v3a1 1 0 0 0 1 1h7v-1h-7v-3h7V9h-7V6h6V5h-6V2h12v3h-1v1h1v1h1V6a1 1 0 0 0-.16-.52A1 1 0 0 0 14.5 5zm-11 10v-1h-1v1zm0-4V7h-1v1z"/><path fill="var(--07)" d="M15.5 11V8h-3v1h-2V8h1V5h-3v3h1v6h3v1h3v-3h-3v1h-2v-3h2v1zm-6-5h1v1h-1z"/></g></defs><view id="enabled" viewBox="0 0 16 16"/><use href="#icon-def" style="--03:#00746b;--07:#f26522"/><view id="hover" viewBox="16 0 16 16"/><use x="16" href="#icon-def" style="--03:#009187;--07:#f59065"/><view id="active" viewBox="32 0 16 16"/><use x="32" href="#icon-def" style="--03:#02645b;--07:#e75e1e"/><view id="disabled" viewBox="48 0 16 16"/><use x="48" href="#icon-def" style="--03:#a4a5a6;--07:#a4a5a6"/></svg>