<svg xmlns="http://www.w3.org/2000/svg" data-scheme="multicolor" viewBox="0 0 16 16"><defs><path id="icon-def" fill="var(--03)" d="M3 10v1H2v-1zM2 6v1h1V6zm0-4v1h1V2zm8.44 11.27H9.32v1.47h1.14a.76.76 0 0 0 .6-.23.7.7 0 0 0 .19-.5.74.74 0 0 0-.19-.52.8.8 0 0 0-.6-.23zm-3.7-1.6a1 1 0 0 0-.87-.41H5v3.48h.88a1 1 0 0 0 .91-.43.76.76 0 0 0 .21-.4A9 9 0 0 0 7 13v-.91a.8.8 0 0 0-.24-.43zm4.23.73a.63.63 0 0 0 .19-.48.68.68 0 0 0-.19-.5.86.86 0 0 0-.6-.2H9.32v1.4h1.07a.75.75 0 0 0 .61-.23zm5-2.1v5.36a.38.38 0 0 1-.38.38H3.88a.38.38 0 0 1-.38-.38v-5.37a.38.38 0 0 1 .38-.38h11.76a.38.38 0 0 1 .36.38zM7.72 13v-1a1.6 1.6 0 0 0-.23-.57A1.64 1.64 0 0 0 6 10.55H4.27v4.88h1.66c.323.01.643-.073.92-.24a1.65 1.65 0 0 0 .6-.57l.14-.25a2 2 0 0 0 .08-.28A9 9 0 0 0 7.72 13M12 14a1.3 1.3 0 0 0-.19-.7 1 1 0 0 0-.6-.42 1.3 1.3 0 0 0 .35-.23q.13-.105.23-.24a1.2 1.2 0 0 0 .14-.58 1.26 1.26 0 0 0-.37-.95 1.56 1.56 0 0 0-1.08-.36H8.59v4.88h2.05A1.33 1.33 0 0 0 12 14m1.39.69 1.57-2c.197-.24.303-.54.3-.85a1.38 1.38 0 0 0-.41-1 1.43 1.43 0 0 0-1-.4 1.3 1.3 0 0 0-.94.4 1.47 1.47 0 0 0-.41 1h.69a.82.82 0 0 1 .24-.51.62.62 0 0 1 .48-.19.7.7 0 0 1 .5.21.76.76 0 0 1 .17.48 1 1 0 0 1 0 .22 1.3 1.3 0 0 1-.15.27l-1.9 2.38v.66h2.78v-.7zM2.5 13H1a1 1 0 0 1-1-1V9a1 1 0 0 1 .16-.5A1 1 0 0 1 0 8V5a.9.9 0 0 1 .17-.51A.9.9 0 0 1 0 4V1a1 1 0 0 1 1-1h12a1 1 0 0 1 1 1v3a.9.9 0 0 1-.16.52A.9.9 0 0 1 14 5v3a1 1 0 0 1-.15.5A1 1 0 0 1 14 9H1v3h1.5zM1 4h12V1H1zm0 4h12V5H1z"/></defs><view id="enabled" viewBox="0 0 16 16"/><use href="#icon-def" style="--03:#00746b"/><view id="hover" viewBox="16 0 16 16"/><use x="16" href="#icon-def" style="--03:#009187"/><view id="active" viewBox="32 0 16 16"/><use x="32" href="#icon-def" style="--03:#02645b"/><view id="disabled" viewBox="48 0 16 16"/><use x="48" href="#icon-def" style="--03:#a4a5a6"/></svg>