<svg xmlns="http://www.w3.org/2000/svg" data-scheme="multicolor" viewBox="0 0 16 16"><defs><g id="icon-def"><path fill="var(--07)" fill-rule="evenodd" d="M8.94 9.9a.77.77 0 1 0-.77-.77.76.76 0 0 0 .76.76zm0 2L8 14.57q-.085.199-.13.41c0 .19.06.21.19.15.36-.15.79-.79 1-1l.17.09c-.38.7-1.11 1.77-2 1.77a.63.63 0 0 1-.66-.64c.006-.31.07-.615.19-.9l1-2.47.15-.43c0-.17-.09-.19-.22-.12-.36.15-.78.78-1 1l-.17-.09c.41-.7 1.13-1.77 2-1.77a.58.58 0 0 1 .64.47c.035.329-.02.66-.16.96z" clip-rule="evenodd"/><path fill="var(--01)" d="M3 10v1H2v-1zM2 6v1h1V6zm0-4v1h1V2zm7.17 13.83H12l1.11-1.58 1.09 1.58h1.62l-1.94-2.58 1.79-2.56H14l-.94 1.47-1-1.47H9.28l2.49.43-2.07.15 2.43.38-2.06.17 2.45.36-2.09.22 2.45.32-2.09.28 2.45.3-2.47.28 2.09.25-2.47.35 2.06.19-2.45.33 2.07.19-2.45.39 2.07.14zM5.55 13H1a1 1 0 0 1-1-1V9a1 1 0 0 1 .15-.5A1 1 0 0 1 0 8V5a1 1 0 0 1 .16-.51A1 1 0 0 1 0 4V1a1 1 0 0 1 1-1h12a1 1 0 0 1 1 1v3a1 1 0 0 1-.16.52A1 1 0 0 1 14 5v3a1 1 0 0 1-.15.5A1 1 0 0 1 14 9v.69h-1V9h-2.29a1.8 1.8 0 0 0-.4-1H13V5H1v3h6.59a1.8 1.8 0 0 0-.41 1H1v3h4.48l-.43.75zM1 4h12V1H1z"/></g></defs><view id="enabled" viewBox="0 0 16 16"/><use href="#icon-def" style="--07:#f26522;--01:#0266a0"/><view id="hover" viewBox="16 0 16 16"/><use x="16" href="#icon-def" style="--07:#f59065;--01:#2088c2"/><view id="active" viewBox="32 0 16 16"/><use x="32" href="#icon-def" style="--07:#e75e1e;--01:#004a81"/><view id="disabled" viewBox="48 0 16 16"/><use x="48" href="#icon-def" style="--07:#a4a5a6;--01:#a4a5a6"/></svg>