<svg xmlns="http://www.w3.org/2000/svg" data-scheme="multicolor" viewBox="0 0 16 16"><defs><g id="icon-def"><path fill="var(--02)" d="M3.46 6.6v2.87a.27.27 0 0 1-.27.27H.33a.27.27 0 0 1-.27-.27V6.6a.27.27 0 0 1 .27-.27h2.86a.27.27 0 0 1 .27.27m12.23-.27h-2.86a.27.27 0 0 0-.27.27v2.87a.27.27 0 0 0 .27.27h2.86a.27.27 0 0 0 .31-.27V6.6a.27.27 0 0 0-.31-.27M9.57 12H6.71a.28.28 0 0 0-.27.27v2.87a.27.27 0 0 0 .27.27h2.86a.27.27 0 0 0 .27-.27v-2.85a.28.28 0 0 0-.27-.29"/><path fill="var(--04)" d="M3.46.87v2.86a.27.27 0 0 1-.27.27H.33a.27.27 0 0 1-.27-.27V.87A.27.27 0 0 1 .33.6h2.86a.27.27 0 0 1 .27.27M15.69.6h-2.86a.27.27 0 0 0-.27.27v2.86a.27.27 0 0 0 .27.27h2.86a.27.27 0 0 0 .31-.27V.87a.27.27 0 0 0-.31-.27M9.57 6.33H6.71a.27.27 0 0 0-.27.27v2.87a.27.27 0 0 0 .27.27h2.86a.27.27 0 0 0 .27-.27V6.6a.27.27 0 0 0-.27-.27"/><path fill="var(--08)" d="M3.46 12.29v2.87a.27.27 0 0 1-.27.27H.33a.27.27 0 0 1-.27-.27v-2.87A.28.28 0 0 1 .33 12h2.86a.28.28 0 0 1 .27.29M15.69 12h-2.86a.28.28 0 0 0-.27.27v2.87a.27.27 0 0 0 .27.27h2.86a.27.27 0 0 0 .27-.27v-2.85a.28.28 0 0 0-.27-.29M9.57.6H6.71a.27.27 0 0 0-.27.27v2.86a.27.27 0 0 0 .27.27h2.86a.27.27 0 0 0 .27-.27V.87A.27.27 0 0 0 9.57.6"/></g></defs><view id="enabled" viewBox="0 0 16 16"/><use href="#icon-def" style="--02:#605cab;--04:#00a99d;--08:#f7941d"/><view id="hover" viewBox="16 0 16 16"/><use x="16" href="#icon-def" style="--02:#9e9ecc;--04:#7ccdc7;--08:#fab454"/><view id="active" viewBox="32 0 16 16"/><use x="32" href="#icon-def" style="--02:#484099;--04:#00998c;--08:#f3891b"/><view id="disabled" viewBox="48 0 16 16"/><use x="48" href="#icon-def" style="--02:#a4a5a6;--04:#a4a5a6;--08:#a4a5a6"/></svg>