<svg xmlns="http://www.w3.org/2000/svg" data-scheme="multicolor" viewBox="0 0 16 16"><defs><path id="icon-def" fill="var(--06)" d="M6.07 12.94v-.4l.06-.38a3.12 3.12 0 0 1 3.09-2.55h3.63a3.13 3.13 0 1 1-.01 6.26h-3.6a3.08 3.08 0 0 1-3.07-2.38c-.04-.19-.07-.37-.1-.55m5 1.84h2.02a2.042 2.042 0 1 0-.35-4.07h-3.4a2 2 0 0 0-.34 0 2.035 2.035 0 0 0 .29 4.06zM2 10v1h1v-1zm0-4v1h1V6zm0-4v1h1V2zm3.07 10.94v-.92H1V9h6.44a4 4 0 0 1 1.76-.39h3.66q.384-.003.76.07.162.036.32.09a.8.8 0 0 0-.11-.25A1 1 0 0 0 14 8V5a1 1 0 0 0-.16-.52A.9.9 0 0 0 14 4V1a1 1 0 0 0-1-1H1a1 1 0 0 0-1 1v3a.9.9 0 0 0 .17.51A1 1 0 0 0 0 5v3a1 1 0 0 0 .16.5A1 1 0 0 0 0 9v3a1 1 0 0 0 1 1h4.07zM1 1h12v3H1zm0 4h12v3H1z"/></defs><view id="enabled" viewBox="0 0 16 16"/><use href="#icon-def" style="--06:#ed145b"/><view id="hover" viewBox="16 0 16 16"/><use x="16" href="#icon-def" style="--06:#f4608d"/><view id="active" viewBox="32 0 16 16"/><use x="32" href="#icon-def" style="--06:#dc105a"/><view id="disabled" viewBox="48 0 16 16"/><use x="48" href="#icon-def" style="--06:#a4a5a6"/></svg>