<svg xmlns="http://www.w3.org/2000/svg" data-scheme="multicolor" viewBox="0 0 16 16"><defs><path id="icon-def" fill="var(--09)" d="M2 7.778h5.585V2H2zm1.396-4.334H6.19v2.89H3.396zM2 15h5.585V9.222H2zm1.396-4.333H6.19v2.889H3.396v-2.89ZM8.981 2v5.778h5.585V2zm4.188 4.333h-2.792V3.444h2.792zm-4.181 2.89h1.396v1.444H8.988V9.222Zm1.396 1.444h1.396v1.444h-1.396zM8.988 12.11h1.396v1.445H8.988zm2.792 0h1.396v1.445H11.78zm1.396 1.445h1.397V15h-1.397v-1.444Zm-2.792 0h1.396V15h-1.396v-1.444Zm1.396-4.334h1.396v1.445H11.78zm1.396 1.445h1.397v1.444h-1.397z"/></defs><view id="enabled" viewBox="0 0 16 16"/><use href="#icon-def" style="--09:#616164"/><view id="hover" viewBox="16 0 16 16"/><use x="16" href="#icon-def" style="--09:#828385"/><view id="active" viewBox="32 0 16 16"/><use x="32" href="#icon-def" style="--09:#3e3f42"/><view id="disabled" viewBox="48 0 16 16"/><use x="48" href="#icon-def" style="--09:#a4a5a6"/></svg>