<svg viewBox="0 0 19 18" xmlns="http://www.w3.org/2000/svg" data-scheme="monochrome"><defs><g id="icon-def"><path d="M10.9 16.8H13.7C14.1 16.8 14.4 16.7 14.6 16.4C14.8 16.2 15 15.9 15 15.5V13C15 12.2 15.2 11.5 15.7 10.8C16.2 10.1 16.8 9.7 17.5 9.4V9C16.7 8.7 16.1 8.3 15.7 7.6C15.2 6.9 15 6.2 15 5.4V2.9C15 2.5 14.9 2.2 14.6 2C14.4 1.8 14.1 1.6 13.7 1.6H10.9" stroke="var(--color)" stroke-width="1.2" stroke-linecap="round" stroke-linejoin="round" fill="transparent"/><path d="M7.20001 1.6H4.40001C4.00001 1.6 3.70001 1.7 3.50001 2C3.20001 2.2 3.10001 2.5 3.10001 2.9V5.4C3.10001 6.2 2.90001 6.9 2.40001 7.6C2.00001 8.2 1.40001 8.7 0.600006 9V9.4C1.40001 9.7 2.00001 10.1 2.40001 10.8C2.90001 11.5 3.10001 12.2 3.10001 13V15.5C3.10001 15.9 3.20001 16.2 3.50001 16.4C3.70001 16.6 4.00001 16.8 4.40001 16.8H7.20001" stroke="var(--color)" stroke-width="1.2" stroke-linecap="round" stroke-linejoin="round" fill="transparent"/><rect width="18.1" height="16.4" fill="var(--color)" transform="translate(0 1)"/></g></defs><view id="on-surface--enabled" viewBox="0 0 19 18"/><use href="#icon-def" x="0" y="0" style="--color:#999999"/><view id="on-surface--hover" viewBox="19 0 19 18"/><use href="#icon-def" x="19" y="0" style="--color:#999999"/><view id="on-surface--active" viewBox="38 0 19 18"/><use href="#icon-def" x="38" y="0" style="--color:#999999"/><view id="on-surface--disabled" viewBox="57 0 19 18"/><use href="#icon-def" x="57" y="0" style="--color:#999999"/><view id="on-elevation--enabled" viewBox="0 72 19 18"/><use href="#icon-def" x="0" y="72" style="--color:#CCCCCC"/><view id="primary--enabled" viewBox="0 90 19 18"/><use href="#icon-def" x="0" y="90" style="--color:#bfd732"/><view id="primary--hover" viewBox="19 90 19 18"/><use href="#icon-def" x="19" y="90" style="--color:#96aa22"/><view id="primary--active" viewBox="38 90 19 18"/><use href="#icon-def" x="38" y="90" style="--color:#697718"/><view id="primary--disabled" viewBox="57 90 19 18"/><use href="#icon-def" x="57" y="90" style="--color:#575757"/></svg>