<svg viewBox="0 0 18 18" xmlns="http://www.w3.org/2000/svg" data-scheme="monochrome"><defs><g id="icon-def"><path d="M1 3.3V14.7C1 14.9 1.1 15 1.3 15H16.7C16.9 15 17 14.9 17 14.7V5.3C17 5.1 16.9 5 16.7 5H8.3C8.2 5 8.1 5 8.1 4.9L6.3 3.1C6.2 3 6.1 3 6 3H1.3C1.1 3 1 3.1 1 3.3Z" stroke="var(--color)" stroke-width="1.2" stroke-linecap="round" stroke-linejoin="round" fill="transparent"/></g></defs><view id="on-surface--enabled" viewBox="0 0 18 18"/><use href="#icon-def" x="0" y="0" style="--color:#999999"/><view id="on-surface--hover" viewBox="18 0 18 18"/><use href="#icon-def" x="18" y="0" style="--color:#999999"/><view id="on-surface--active" viewBox="36 0 18 18"/><use href="#icon-def" x="36" y="0" style="--color:#999999"/><view id="on-surface--disabled" viewBox="54 0 18 18"/><use href="#icon-def" x="54" y="0" style="--color:#999999"/><view id="on-elevation--enabled" viewBox="0 72 18 18"/><use href="#icon-def" x="0" y="72" style="--color:#CCCCCC"/><view id="primary--enabled" viewBox="0 90 18 18"/><use href="#icon-def" x="0" y="90" style="--color:#bfd732"/><view id="primary--hover" viewBox="18 90 18 18"/><use href="#icon-def" x="18" y="90" style="--color:#96aa22"/><view id="primary--active" viewBox="36 90 18 18"/><use href="#icon-def" x="36" y="90" style="--color:#697718"/><view id="primary--disabled" viewBox="54 90 18 18"/><use href="#icon-def" x="54" y="90" style="--color:#575757"/></svg>