<svg viewBox="0 0 18 18" xmlns="http://www.w3.org/2000/svg" data-scheme="monochrome"><defs><g id="icon-def"><path d="M8.9 14.2C8.4 14.2 8 14 7.7 13.7C7.4 13.4 7.2 13 7.2 12.5C7.2 11.5 8 10.8 8.9 10.8C9.4 10.8 9.8 11 10.1 11.3C10.4 11.6 10.6 12.1 10.6 12.5C10.6 12.9 10.5 13.4 10.2 13.7C9.8 14.1 9.4 14.2 8.9 14.2Z" fill="var(--color)"/><path d="M14.9 7.3H3V17.4H14.9V7.3Z" stroke="var(--color)" stroke-width="1.2" stroke-linecap="square" stroke-linejoin="round" fill="transparent"/><path d="M5.4 7.3V4.5C5.4 2.6 7 1 8.9 1C10.8 1 12.4 2.6 12.4 4.5V7.3" stroke="var(--color)" stroke-width="1.2" stroke-linecap="square" stroke-linejoin="round" fill="transparent"/></g></defs><view id="on-surface--enabled" viewBox="0 0 18 18"/><use href="#icon-def" x="0" y="0" style="--color:#999999"/><view id="on-surface--hover" viewBox="18 0 18 18"/><use href="#icon-def" x="18" y="0" style="--color:#999999"/><view id="on-surface--active" viewBox="36 0 18 18"/><use href="#icon-def" x="36" y="0" style="--color:#999999"/><view id="on-surface--disabled" viewBox="54 0 18 18"/><use href="#icon-def" x="54" y="0" style="--color:#999999"/><view id="on-elevation--enabled" viewBox="0 72 18 18"/><use href="#icon-def" x="0" y="72" style="--color:#CCCCCC"/><view id="primary--enabled" viewBox="0 90 18 18"/><use href="#icon-def" x="0" y="90" style="--color:#bfd732"/><view id="primary--hover" viewBox="18 90 18 18"/><use href="#icon-def" x="18" y="90" style="--color:#96aa22"/><view id="primary--active" viewBox="36 90 18 18"/><use href="#icon-def" x="36" y="90" style="--color:#697718"/><view id="primary--disabled" viewBox="54 90 18 18"/><use href="#icon-def" x="54" y="90" style="--color:#575757"/></svg>