<svg viewBox="0 0 19 18" xmlns="http://www.w3.org/2000/svg" data-scheme="monochrome"><defs><g id="icon-def"><path d="M1.3 14.6H17.4C17.6 14.6 17.7 14.5 17.7 14.3V3.3C17.7 3.1 17.6 3 17.4 3H1.3C1.1 3 1 3.1 1 3.3V14.3C1 14.5 1.1 14.6 1.3 14.6Z" stroke="var(--color)" stroke-width="1.2" stroke-miterlimit="10" fill="transparent"/><path d="M1.2 3.3L9.1 8.7C9.2 8.8 9.3 8.8 9.4 8.7L17.6 3" stroke="var(--color)" stroke-width="1.2" stroke-miterlimit="10" fill="transparent"/></g></defs><view id="on-surface--enabled" viewBox="0 0 19 18"/><use href="#icon-def" x="0" y="0" style="--color:#999999"/><view id="on-surface--hover" viewBox="19 0 19 18"/><use href="#icon-def" x="19" y="0" style="--color:#999999"/><view id="on-surface--active" viewBox="38 0 19 18"/><use href="#icon-def" x="38" y="0" style="--color:#999999"/><view id="on-surface--disabled" viewBox="57 0 19 18"/><use href="#icon-def" x="57" y="0" style="--color:#999999"/><view id="on-elevation--enabled" viewBox="0 72 19 18"/><use href="#icon-def" x="0" y="72" style="--color:#CCCCCC"/><view id="primary--enabled" viewBox="0 90 19 18"/><use href="#icon-def" x="0" y="90" style="--color:#bfd732"/><view id="primary--hover" viewBox="19 90 19 18"/><use href="#icon-def" x="19" y="90" style="--color:#96aa22"/><view id="primary--active" viewBox="38 90 19 18"/><use href="#icon-def" x="38" y="90" style="--color:#697718"/><view id="primary--disabled" viewBox="57 90 19 18"/><use href="#icon-def" x="57" y="90" style="--color:#575757"/></svg>