<svg viewBox="0 0 19 18" xmlns="http://www.w3.org/2000/svg" data-scheme="monochrome"><defs><g id="icon-def"><path d="M17.8 2H1.4C1.2 2 1 2.2 1 2.4V13.4C1 13.6 1.2 13.8 1.4 13.8H6.3C6.7 13.8 7 13.9 7.3 14.2L9.4 16.3C9.5 16.4 9.8 16.4 9.9 16.3L12 14.2C12.3 13.9 12.6 13.8 13 13.8H17.9C18.1 13.8 18.3 13.6 18.3 13.4V2.4C18.1 2.2 18 2 17.8 2Z" stroke="var(--color)" stroke-width="1.2" stroke-miterlimit="10" fill="transparent"/><path d="M4.3 6.2H15" stroke="var(--color)" stroke-width="1.2" stroke-miterlimit="10" fill="transparent"/><path d="M4.3 9.2H11" stroke="var(--color)" stroke-width="1.2" stroke-miterlimit="10" fill="transparent"/></g></defs><view id="on-surface--enabled" viewBox="0 0 19 18"/><use href="#icon-def" x="0" y="0" style="--color:#999999"/><view id="on-surface--hover" viewBox="19 0 19 18"/><use href="#icon-def" x="19" y="0" style="--color:#999999"/><view id="on-surface--active" viewBox="38 0 19 18"/><use href="#icon-def" x="38" y="0" style="--color:#999999"/><view id="on-surface--disabled" viewBox="57 0 19 18"/><use href="#icon-def" x="57" y="0" style="--color:#999999"/><view id="on-elevation--enabled" viewBox="0 72 19 18"/><use href="#icon-def" x="0" y="72" style="--color:#CCCCCC"/><view id="primary--enabled" viewBox="0 90 19 18"/><use href="#icon-def" x="0" y="90" style="--color:#bfd732"/><view id="primary--hover" viewBox="19 90 19 18"/><use href="#icon-def" x="19" y="90" style="--color:#96aa22"/><view id="primary--active" viewBox="38 90 19 18"/><use href="#icon-def" x="38" y="90" style="--color:#697718"/><view id="primary--disabled" viewBox="57 90 19 18"/><use href="#icon-def" x="57" y="90" style="--color:#575757"/></svg>