<svg viewBox="0 0 19 18" xmlns="http://www.w3.org/2000/svg" data-scheme="monochrome"><defs><g id="icon-def"><path d="M1.5896 15.1339V2.94894C1.5896 2.55588 1.68787 2.35934 1.98266 2.16281C2.27746 1.96628 2.57226 1.96628 2.86706 2.06455L17.4104 8.15703C17.8035 8.35356 18 8.64836 18 9.04143C18 9.43449 17.8035 9.72929 17.4104 9.92582L2.86706 16.0183C2.57226 16.2148 2.27746 16.1166 1.98266 15.92C1.68787 15.8218 1.5896 15.527 1.5896 15.1339Z" stroke="var(--color)" stroke-width="1.2" stroke-linecap="round" stroke-linejoin="round" fill="transparent"/><path d="M1.2948 6.97784L8.95954 8.8449C9.15607 8.94316 9.15607 9.23796 8.95954 9.23796L1.2948 11.0067C1.19653 11.105 1 11.0067 1 10.8102V7.17438C1 7.07611 1.19653 6.97784 1.2948 6.97784Z" fill="var(--color)"/></g></defs><view id="on-surface--enabled" viewBox="0 0 19 18"/><use href="#icon-def" x="0" y="0" style="--color:#999999"/><view id="on-surface--hover" viewBox="19 0 19 18"/><use href="#icon-def" x="19" y="0" style="--color:#999999"/><view id="on-surface--active" viewBox="38 0 19 18"/><use href="#icon-def" x="38" y="0" style="--color:#999999"/><view id="on-surface--disabled" viewBox="57 0 19 18"/><use href="#icon-def" x="57" y="0" style="--color:#999999"/><view id="on-elevation--enabled" viewBox="0 72 19 18"/><use href="#icon-def" x="0" y="72" style="--color:#CCCCCC"/><view id="primary--enabled" viewBox="0 90 19 18"/><use href="#icon-def" x="0" y="90" style="--color:#bfd732"/><view id="primary--hover" viewBox="19 90 19 18"/><use href="#icon-def" x="19" y="90" style="--color:#96aa22"/><view id="primary--active" viewBox="38 90 19 18"/><use href="#icon-def" x="38" y="90" style="--color:#697718"/><view id="primary--disabled" viewBox="57 90 19 18"/><use href="#icon-def" x="57" y="90" style="--color:#575757"/></svg>