<svg xmlns="http://www.w3.org/2000/svg" width="16" height="16" fill="none" viewBox="0 0 16 16">
  <path fill="#C0CCD9" d="M7.333 8.667H3a.645.645 0 0 1-.475-.192A.645.645 0 0 1 2.333 8c0-.189.064-.347.192-.475A.645.645 0 0 1 3 7.333h4.333V3c0-.189.064-.347.192-.475A.645.645 0 0 1 8 2.333c.189 0 .347.064.475.192A.645.645 0 0 1 8.667 3v4.333H13c.189 0 .347.064.475.192a.645.645 0 0 1 .192.475.645.645 0 0 1-.192.475.645.645 0 0 1-.475.192H8.667V13a.645.645 0 0 1-.192.475.645.645 0 0 1-.475.192.645.645 0 0 1-.475-.192.645.645 0 0 1-.192-.475V8.667Z"/>
</svg>
