<svg xmlns="http://www.w3.org/2000/svg" width="16" height="16" fill="none" viewBox="0 0 16 16">
  <path fill="#C0CCD9" d="M3.333 7.333c-.366 0-.68-.13-.941-.391A1.284 1.284 0 0 1 2 6V3.333c0-.366.13-.68.392-.941.26-.261.575-.392.941-.392H6c.367 0 .68.13.942.392.26.26.391.575.391.941V6c0 .367-.13.68-.391.942A1.284 1.284 0 0 1 6 7.333H3.333Zm0 6.667c-.366 0-.68-.13-.941-.392A1.284 1.284 0 0 1 2 12.667V10c0-.367.13-.68.392-.942.26-.26.575-.391.941-.391H6c.367 0 .68.13.942.391.26.261.391.575.391.942v2.667c0 .366-.13.68-.391.941A1.284 1.284 0 0 1 6 14H3.333ZM10 7.333c-.367 0-.68-.13-.942-.391A1.284 1.284 0 0 1 8.667 6V3.333c0-.366.13-.68.391-.941C9.32 2.13 9.633 2 10 2h2.667c.366 0 .68.13.941.392.261.26.392.575.392.941V6c0 .367-.13.68-.392.942a1.284 1.284 0 0 1-.941.391H10ZM10 14c-.367 0-.68-.13-.942-.392a1.284 1.284 0 0 1-.391-.941V10c0-.367.13-.68.391-.942.261-.26.575-.391.942-.391h2.667c.366 0 .68.13.941.391.261.261.392.575.392.942v2.667c0 .366-.13.68-.392.941a1.284 1.284 0 0 1-.941.392H10ZM3.333 6H6V3.333H3.333V6ZM10 6h2.667V3.333H10V6Zm0 6.667h2.667V10H10v2.667Zm-6.667 0H6V10H3.333v2.667Z"/>
</svg>
