<svg xmlns="http://www.w3.org/2000/svg" width="16" height="16" fill="none" viewBox="0 0 16 16">
  <path fill="#C0CCD9" d="M10.783 8.667h-7.45a.645.645 0 0 1-.475-.192A.645.645 0 0 1 2.667 8c0-.189.064-.347.191-.475a.645.645 0 0 1 .475-.192h7.45L7.517 4.067a.61.61 0 0 1-.192-.467.67.67 0 0 1 .208-.467A.703.703 0 0 1 8 2.942a.61.61 0 0 1 .467.191l4.4 4.4a.585.585 0 0 1 .141.217.737.737 0 0 1 .042.25.737.737 0 0 1-.042.25.585.585 0 0 1-.141.217l-4.4 4.4a.622.622 0 0 1-.459.183.68.68 0 0 1-.475-.183.65.65 0 0 1-.2-.475c0-.184.067-.342.2-.475l3.25-3.25Z"/>
</svg>
