<svg xmlns="http://www.w3.org/2000/svg" width="16" height="16" fill="none" viewBox="0 0 16 16">
  <path fill="#C0CCD9" d="m5.217 8.667 3.266 3.266a.61.61 0 0 1 .192.467.67.67 0 0 1-.208.467.704.704 0 0 1-.467.191.611.611 0 0 1-.467-.191l-4.4-4.4a.585.585 0 0 1-.141-.217A.738.738 0 0 1 2.95 8c0-.089.014-.172.042-.25a.585.585 0 0 1 .141-.217l4.4-4.4a.622.622 0 0 1 .459-.183.68.68 0 0 1 .475.183c.133.134.2.292.2.475a.649.649 0 0 1-.2.475l-3.25 3.25h7.45c.189 0 .347.064.475.192a.645.645 0 0 1 .191.475.645.645 0 0 1-.191.475.645.645 0 0 1-.475.192h-7.45Z"/>
</svg>
