<svg xmlns="http://www.w3.org/2000/svg" width="16" height="16" fill="none" viewBox="0 0 16 16">
  <path fill="#C0CCD9" d="M6.071 3.632c.399-1.167 2.011-1.202 2.484-.106l.04.107.538 1.573a2.667 2.667 0 0 0 1.517 1.607l.145.054 1.573.538c1.167.398 1.202 2.01.107 2.483l-.107.04-1.573.538a2.668 2.668 0 0 0-1.608 1.517l-.054.144-.538 1.574c-.398 1.167-2.01 1.202-2.482.107l-.042-.107-.537-1.573a2.667 2.667 0 0 0-1.517-1.608l-.144-.054-1.574-.537c-1.167-.399-1.202-2.011-.106-2.483l.106-.041 1.574-.538A2.667 2.667 0 0 0 5.48 5.35l.054-.144.537-1.574Zm1.262.43-.537 1.574a4 4 0 0 1-2.327 2.433l-.166.06-1.574.538 1.574.537a4 4 0 0 1 2.432 2.327l.061.166.537 1.574.538-1.574a4 4 0 0 1 2.326-2.432l.167-.06 1.573-.538-1.573-.538a4 4 0 0 1-2.433-2.326l-.06-.167-.538-1.573Zm5.334-2.729a.666.666 0 0 1 .598.374l.032.078.234.684.684.233a.667.667 0 0 1 .079 1.23l-.079.032-.684.233-.233.685a.667.667 0 0 1-1.23.078l-.032-.078-.233-.684-.685-.233a.667.667 0 0 1-.079-1.23l.079-.032.684-.234.233-.684a.667.667 0 0 1 .632-.452Z"/>
</svg>
