<svg xmlns="http://www.w3.org/2000/svg" width="16" height="16" fill="none" viewBox="0 0 16 16">
  <path fill="#C0CCD9" fill-rule="evenodd" d="M8.555 3.526c-.473-1.096-2.085-1.06-2.484.106l-.537 1.574-.054.144a2.667 2.667 0 0 1-1.607 1.517l-1.574.538-.106.041c-1.096.472-1.061 2.084.106 2.483l1.574.537.144.054a2.668 2.668 0 0 1 1.517 1.608l.537 1.573.042.107c.472 1.095 2.084 1.06 2.482-.107l.538-1.574.054-.144a2.667 2.667 0 0 1 1.608-1.517l1.573-.538.107-.04c1.095-.473 1.06-2.085-.107-2.483l-1.573-.538-.145-.054a2.667 2.667 0 0 1-1.517-1.607l-.538-1.573-.04-.107Zm-1.759 2.11.537-1.573.538 1.573.06.167a4 4 0 0 0 2.433 2.326l1.573.538-1.573.538-.167.06a4 4 0 0 0-2.326 2.432l-.538 1.574-.537-1.574-.06-.166a4 4 0 0 0-2.433-2.327l-1.574-.537 1.574-.538.166-.06a4 4 0 0 0 2.327-2.433Zm6.223-4.202a.666.666 0 0 0-.984.35l-.233.685-.684.234-.079.032a.666.666 0 0 0 .079 1.23l.685.233.233.684.032.078a.667.667 0 0 0 1.23-.078l.233-.685.684-.233.079-.032a.667.667 0 0 0-.079-1.23l-.684-.233-.234-.684-.032-.078a.666.666 0 0 0-.246-.273ZM8.388 15.507l.008-.002c.005.001.009.005.01.012l.012.285-.003.011-.008.011-.069.05-.008.002-.01-.003-.07-.049-.006-.009-.003-.013.011-.285.003-.007c.003-.004.009-.006.016-.004l.047.024.01.003.013-.003.047-.023Zm.175-.076.009-.001c.007.001.011.006.013.015l.023.409-.003.01c-.004.005-.01.007-.019.005l-.134-.062-.005-.005-.004-.008-.012-.287.002-.007.007-.007.123-.062Zm-.477-.001c.003-.001.006 0 .01.001l.122.062.007.006.002.008-.012.287-.002.007-.007.006-.134.062-.01.001c-.007-.003-.01-.008-.011-.016l.022-.41.004-.009a.013.013 0 0 1 .009-.005Z" clip-rule="evenodd"/>
</svg>
