<svg xmlns="http://www.w3.org/2000/svg" width="16" height="17" fill="none" viewBox="0 0 16 17">
  <path fill="#C0CCD9" d="M3.333 14.936c-.366 0-.68-.13-.941-.391A1.284 1.284 0 0 1 2 13.603V4.27c0-.367.13-.68.392-.942.26-.261.575-.392.941-.392H4V2.27c0-.19.064-.348.192-.475a.645.645 0 0 1 .475-.192c.189 0 .347.064.475.192a.645.645 0 0 1 .191.475v.666h5.334V2.27c0-.19.064-.348.191-.475a.645.645 0 0 1 .475-.192c.19 0 .348.064.475.192A.645.645 0 0 1 12 2.27v.666h.667c.366 0 .68.13.941.392.261.261.392.575.392.942v9.333c0 .367-.13.68-.392.942a1.284 1.284 0 0 1-.941.391H3.333Zm0-1.333h9.334V6.936H3.333v6.667Zm0-8h9.334V4.27H3.333v1.333Z"/>
</svg>
