<svg xmlns="http://www.w3.org/2000/svg" width="16" height="16" fill="none" viewBox="0 0 16 16">
  <path fill="#C0CCD9" fill-rule="evenodd" d="M12.25 14.312c.213 0 .39-.063.534-.191a.61.61 0 0 0 .216-.475V2.333a.61.61 0 0 0-.216-.475.775.775 0 0 0-.534-.191.775.775 0 0 0-.534.191.61.61 0 0 0-.216.475v11.313a.61.61 0 0 0 .216.475.775.775 0 0 0 .534.191Zm-9.967-1.408 4.9-4.9-4.9-4.9a.8.8 0 0 1-.25-.583.8.8 0 0 1 .25-.583.84.84 0 0 1 .592-.259.78.78 0 0 1 .592.242L8.6 7.054a1.355 1.355 0 0 1 .4.95c0 .167-.033.334-.1.5a1.332 1.332 0 0 1-.3.45l-5.133 5.117a.8.8 0 0 1-.584.25.8.8 0 0 1-.583-.25.83.83 0 0 1-.258-.583.77.77 0 0 1 .241-.584Z" clip-rule="evenodd"/>
</svg>
