<svg xmlns="http://www.w3.org/2000/svg" width="16" height="16" fill="none" viewBox="0 0 16 16">
  <path fill="#C0CCD9" fill-rule="evenodd" d="M3.75 14.312a.775.775 0 0 1-.534-.191.61.61 0 0 1-.216-.475V2.333a.61.61 0 0 1 .216-.475.775.775 0 0 1 .534-.191c.212 0 .39.064.534.191a.61.61 0 0 1 .216.475v11.313a.61.61 0 0 1-.216.475.775.775 0 0 1-.534.191Zm9.967-1.408-4.9-4.9 4.9-4.9a.8.8 0 0 0 .25-.583.8.8 0 0 0-.25-.583.84.84 0 0 0-.592-.259.78.78 0 0 0-.592.242L7.4 7.054a1.332 1.332 0 0 0-.3.45c-.067.167-.1.334-.1.5 0 .167.033.334.1.5.067.167.167.317.3.45l5.133 5.117a.8.8 0 0 0 .584.25.8.8 0 0 0 .583-.25.83.83 0 0 0 .258-.583.77.77 0 0 0-.241-.584Z" clip-rule="evenodd"/>
</svg>
