<svg xmlns="http://www.w3.org/2000/svg" width="16" height="16" fill="none" viewBox="0 0 16 16">
  <path fill="#C0CCD9" d="M3.333 14a.645.645 0 0 1-.475-.192.645.645 0 0 1-.191-.475c0-.189.064-.347.191-.475a.645.645 0 0 1 .475-.191h9.334a.65.65 0 0 1 .475.191.645.645 0 0 1 .191.475.645.645 0 0 1-.191.475.645.645 0 0 1-.475.192H3.333ZM8 11.05a.737.737 0 0 1-.25-.042.585.585 0 0 1-.217-.141l-2.4-2.4A.632.632 0 0 1 4.95 8c0-.189.061-.344.183-.467A.632.632 0 0 1 5.6 7.35c.189 0 .344.061.467.183L7.333 8.8V2.667c0-.19.064-.348.192-.475A.645.645 0 0 1 8 2c.189 0 .347.064.475.192a.645.645 0 0 1 .192.475V8.8l1.266-1.267a.632.632 0 0 1 .467-.183c.189 0 .344.061.467.183A.632.632 0 0 1 11.05 8a.632.632 0 0 1-.183.467l-2.4 2.4a.585.585 0 0 1-.217.141.737.737 0 0 1-.25.042Z"/>
</svg>
