<svg xmlns="http://www.w3.org/2000/svg" width="16" height="16" fill="none" viewBox="0 0 16 16">
  <path fill="#C0CCD9" d="m8.325 9.033-2.478 2.478a.48.48 0 0 1-.354.139.48.48 0 0 1-.354-.14.48.48 0 0 1-.139-.353.48.48 0 0 1 .14-.354l2.477-2.478-2.478-2.478A.48.48 0 0 1 5 5.493a.48.48 0 0 1 .14-.354A.48.48 0 0 1 5.492 5a.48.48 0 0 1 .354.14l2.478 2.477 2.478-2.478A.48.48 0 0 1 11.157 5a.48.48 0 0 1 .354.14.48.48 0 0 1 .139.353.48.48 0 0 1-.14.354L9.034 8.325l2.478 2.478a.48.48 0 0 1 .139.354.48.48 0 0 1-.14.354.48.48 0 0 1-.353.139.48.48 0 0 1-.354-.14L8.325 9.034Z"/>
</svg>
