<svg xmlns="http://www.w3.org/2000/svg" width="16" height="16" fill="none" viewBox="0 0 16 16">
  <path fill="#C0CCD9" d="M6 10H4a.645.645 0 0 1-.475-.192.645.645 0 0 1-.192-.475c0-.189.064-.347.192-.475A.645.645 0 0 1 4 8.667h2.667c.189 0 .347.064.475.191a.645.645 0 0 1 .191.475V12a.645.645 0 0 1-.191.475.645.645 0 0 1-.475.192.645.645 0 0 1-.475-.192A.645.645 0 0 1 6 12v-2Zm4-4h2c.189 0 .347.064.475.192a.645.645 0 0 1 .192.475.645.645 0 0 1-.192.475.645.645 0 0 1-.475.191H9.333a.645.645 0 0 1-.475-.191.645.645 0 0 1-.191-.475V4c0-.189.064-.347.191-.475a.645.645 0 0 1 .475-.192c.19 0 .348.064.475.192A.645.645 0 0 1 10 4v2Z"/>
</svg>
