<svg xmlns="http://www.w3.org/2000/svg" width="16" height="17" fill="none" viewBox="0 0 16 17">
  <path fill="#C0CCD9" d="M1.333 13.603V3.77c0-.111.023-.211.067-.3a.662.662 0 0 1 .2-.234l2.667-2a.666.666 0 0 1 .8 0l2.666 2a.662.662 0 0 1 .2.234.661.661 0 0 1 .067.3v1.166h6c.189 0 .347.064.475.192a.645.645 0 0 1 .192.475v8a.645.645 0 0 1-.192.475.645.645 0 0 1-.475.192H2a.645.645 0 0 1-.475-.192.645.645 0 0 1-.192-.475Zm1.334-.667H4v-1.333H2.667v1.333Zm0-2.666H4V8.936H2.667v1.334Zm0-2.667H4V6.27H2.667v1.333Zm0-2.667H4V3.603H2.667v1.333Zm2.666 0h1.334V3.603H5.333v1.333Zm0 8h8V6.27h-8v6.666ZM10 7.603h1.333c.19 0 .348.064.475.192A.645.645 0 0 1 12 8.27a.645.645 0 0 1-.192.475.645.645 0 0 1-.475.191H10a.645.645 0 0 1-.475-.191.645.645 0 0 1-.192-.475c0-.19.064-.348.192-.475A.645.645 0 0 1 10 7.603Zm0 2.667h1.333c.19 0 .348.064.475.191a.645.645 0 0 1 .192.475.645.645 0 0 1-.192.475.645.645 0 0 1-.475.192H10a.645.645 0 0 1-.475-.192.645.645 0 0 1-.192-.475c0-.188.064-.347.192-.475A.645.645 0 0 1 10 10.27Zm-2-2a.645.645 0 0 1-.192.475.645.645 0 0 1-.475.191.645.645 0 0 1-.475-.191.645.645 0 0 1-.191-.475c0-.19.064-.348.191-.475a.645.645 0 0 1 .475-.192c.19 0 .348.064.475.192A.645.645 0 0 1 8 8.27Zm-.667 3.333a.645.645 0 0 1-.475-.192.645.645 0 0 1-.191-.475.65.65 0 0 1 .191-.475.645.645 0 0 1 .475-.191c.19 0 .348.064.475.191a.645.645 0 0 1 .192.475.645.645 0 0 1-.192.475.645.645 0 0 1-.475.192Z"/>
</svg>
