<svg xmlns="http://www.w3.org/2000/svg" width="16" height="16" fill="none" viewBox="0 0 16 16">
  <path fill="#C0CCD9" d="M1.333 14a.645.645 0 0 1-.475-.192.645.645 0 0 1-.191-.475c0-.189.064-.347.191-.475a.645.645 0 0 1 .475-.191h13.334c.189 0 .347.064.475.191a.645.645 0 0 1 .191.475.645.645 0 0 1-.191.475.645.645 0 0 1-.475.192H1.333Zm1.334-2c-.367 0-.68-.13-.942-.392a1.284 1.284 0 0 1-.392-.941V3.333c0-.366.13-.68.392-.941A1.28 1.28 0 0 1 2.667 2h10.666c.367 0 .68.13.942.392.261.26.392.575.392.941v7.334c0 .366-.13.68-.392.941a1.284 1.284 0 0 1-.942.392H2.667Zm0-1.333h10.666V3.333H2.667v7.334Z"/>
</svg>
