<svg xmlns="http://www.w3.org/2000/svg" width="16" height="16" fill="none" viewBox="0 0 16 16">
  <path fill="#C0CCD9" d="M1.333 13.333V3.5c0-.111.023-.211.067-.3a.661.661 0 0 1 .2-.233l2.667-2a.666.666 0 0 1 .8 0l2.666 2a.661.661 0 0 1 .2.233.661.661 0 0 1 .067.3v1.167h6c.189 0 .347.064.475.191a.645.645 0 0 1 .192.475v8a.645.645 0 0 1-.192.475A.645.645 0 0 1 14 14H2a.645.645 0 0 1-.475-.192.645.645 0 0 1-.192-.475Zm1.334-.666H4v-1.334H2.667v1.334Zm0-2.667H4V8.667H2.667V10Zm0-2.667H4V6H2.667v1.333Zm0-2.666H4V3.333H2.667v1.334Zm2.666 0h1.334V3.333H5.333v1.334Zm0 8h8V6h-8v6.667ZM10 7.333h1.333c.19 0 .348.064.475.192A.645.645 0 0 1 12 8a.645.645 0 0 1-.192.475.645.645 0 0 1-.475.192H10a.645.645 0 0 1-.475-.192A.645.645 0 0 1 9.333 8c0-.189.064-.347.192-.475A.645.645 0 0 1 10 7.333ZM10 10h1.333c.19 0 .348.064.475.192a.645.645 0 0 1 .192.475.645.645 0 0 1-.192.475.645.645 0 0 1-.475.191H10a.645.645 0 0 1-.475-.191.645.645 0 0 1-.192-.475c0-.19.064-.348.192-.475A.645.645 0 0 1 10 10ZM8 8a.645.645 0 0 1-.192.475.645.645 0 0 1-.475.192.645.645 0 0 1-.475-.192A.645.645 0 0 1 6.667 8c0-.189.064-.347.191-.475a.645.645 0 0 1 .475-.192c.19 0 .348.064.475.192A.645.645 0 0 1 8 8Zm-.667 3.333a.645.645 0 0 1-.475-.191.645.645 0 0 1-.191-.475c0-.19.064-.348.191-.475A.645.645 0 0 1 7.333 10c.19 0 .348.064.475.192a.645.645 0 0 1 .192.475.645.645 0 0 1-.192.475.645.645 0 0 1-.475.191Z"/>
</svg>
