<svg xmlns="http://www.w3.org/2000/svg" width="16" height="16" fill="none" viewBox="0 0 16 16">
  <path fill="#C0CCD9" d="M8 9.333c.367 0 .68-.13.942-.391.26-.261.391-.575.391-.942s-.13-.68-.391-.942A1.284 1.284 0 0 0 8 6.667c-.367 0-.68.13-.942.391A1.284 1.284 0 0 0 6.667 8c0 .367.13.68.391.942.261.26.575.391.942.391ZM5.333 12h5.334v-.383a1.329 1.329 0 0 0-.817-1.233 5.039 5.039 0 0 0-.892-.284A4.482 4.482 0 0 0 8 10c-.333 0-.653.033-.958.1a5.038 5.038 0 0 0-.892.283 1.328 1.328 0 0 0-.817 1.234V12ZM12 14.667H4c-.367 0-.68-.13-.942-.392a1.284 1.284 0 0 1-.391-.942V2.667c0-.367.13-.68.391-.942.261-.261.575-.392.942-.392h4.783a1.317 1.317 0 0 1 .934.384L12.95 4.95a1.316 1.316 0 0 1 .383.933v7.45c0 .367-.13.68-.391.942a1.284 1.284 0 0 1-.942.392Zm0-1.334V5.9L8.767 2.667H4v10.666h8Z"/>
</svg>
