<svg xmlns="http://www.w3.org/2000/svg" width="16" height="16" fill="none" viewBox="0 0 16 16">
  <path fill="#C0CCD9" d="M6 12c-.367 0-.68-.13-.942-.392a1.284 1.284 0 0 1-.391-.941v-8c0-.367.13-.68.391-.942.261-.261.575-.392.942-.392h6c.367 0 .68.13.942.392.26.261.391.575.391.942v8c0 .366-.13.68-.391.941A1.284 1.284 0 0 1 12 12H6Zm0-1.333h6v-8H6v8Zm-2.667 4c-.366 0-.68-.13-.941-.392A1.284 1.284 0 0 1 2 13.333V4.667c0-.19.064-.348.192-.475A.645.645 0 0 1 2.667 4c.189 0 .347.064.475.192a.645.645 0 0 1 .191.475v8.666H10c.189 0 .347.064.475.192a.645.645 0 0 1 .192.475.645.645 0 0 1-.192.475.645.645 0 0 1-.475.192H3.333Z"/>
</svg>
