<svg xmlns="http://www.w3.org/2000/svg" width="16" height="16" fill="none" viewBox="0 0 16 16">
  <path fill="#C0CCD9" d="M10 13.333a.645.645 0 0 1-.475-.191.645.645 0 0 1-.192-.475c0-.19.064-.348.192-.475A.645.645 0 0 1 10 12h1.333a.645.645 0 0 0 .475-.192.645.645 0 0 0 .192-.475V10c0-.422.122-.806.367-1.15a1.98 1.98 0 0 1 .966-.733v-.234a1.984 1.984 0 0 1-.966-.733A1.942 1.942 0 0 1 12 6V4.667a.645.645 0 0 0-.192-.475.645.645 0 0 0-.475-.192H10a.645.645 0 0 1-.475-.192.645.645 0 0 1-.192-.475c0-.189.064-.347.192-.475A.645.645 0 0 1 10 2.667h1.333c.556 0 1.028.194 1.417.583.389.389.583.861.583 1.417V6c0 .189.064.347.192.475a.645.645 0 0 0 .475.192c.189 0 .347.064.475.191a.645.645 0 0 1 .192.475v1.334a.645.645 0 0 1-.192.475.645.645 0 0 1-.475.191.645.645 0 0 0-.475.192.645.645 0 0 0-.192.475v1.333c0 .556-.194 1.028-.583 1.417a1.929 1.929 0 0 1-1.417.583H10Zm-5.333 0a1.929 1.929 0 0 1-1.417-.583 1.929 1.929 0 0 1-.583-1.417V10a.645.645 0 0 0-.192-.475A.645.645 0 0 0 2 9.333a.645.645 0 0 1-.475-.191.645.645 0 0 1-.192-.475V7.333c0-.189.064-.347.192-.475A.645.645 0 0 1 2 6.667a.645.645 0 0 0 .475-.192A.645.645 0 0 0 2.667 6V4.667c0-.556.194-1.028.583-1.417a1.929 1.929 0 0 1 1.417-.583H6c.189 0 .347.064.475.191a.645.645 0 0 1 .192.475.645.645 0 0 1-.192.475A.645.645 0 0 1 6 4H4.667a.645.645 0 0 0-.475.192.645.645 0 0 0-.192.475V6c0 .422-.122.806-.367 1.15a1.985 1.985 0 0 1-.966.733v.234c.4.144.722.389.966.733.245.344.367.728.367 1.15v1.333c0 .19.064.348.192.475a.645.645 0 0 0 .475.192H6c.189 0 .347.064.475.192a.645.645 0 0 1 .192.475.645.645 0 0 1-.192.475.645.645 0 0 1-.475.191H4.667Z"/>
</svg>
