<svg xmlns="http://www.w3.org/2000/svg" width="16" height="16" fill="none" viewBox="0 0 16 16">
  <path fill="#C0CCD9" d="M4.667 14c-.367 0-.68-.13-.942-.392a1.284 1.284 0 0 1-.392-.941V4a.645.645 0 0 1-.475-.192.645.645 0 0 1-.191-.475c0-.189.064-.347.191-.475a.645.645 0 0 1 .475-.191H6c0-.19.064-.348.192-.475A.645.645 0 0 1 6.667 2h2.666c.19 0 .348.064.475.192a.645.645 0 0 1 .192.475h2.667a.65.65 0 0 1 .475.191.645.645 0 0 1 .191.475.645.645 0 0 1-.191.475.645.645 0 0 1-.475.192v8.667c0 .366-.13.68-.392.941a1.284 1.284 0 0 1-.942.392H4.667Zm6.666-10H4.667v8.667h6.666V4Zm-4.666 7.333a.645.645 0 0 0 .475-.191.645.645 0 0 0 .191-.475V6a.645.645 0 0 0-.191-.475.645.645 0 0 0-.475-.192.645.645 0 0 0-.475.192A.645.645 0 0 0 6 6v4.667c0 .189.064.347.192.475a.645.645 0 0 0 .475.191Zm2.666 0a.645.645 0 0 0 .475-.191.645.645 0 0 0 .192-.475V6a.645.645 0 0 0-.192-.475.645.645 0 0 0-.475-.192.645.645 0 0 0-.475.192.645.645 0 0 0-.191.475v4.667c0 .189.064.347.191.475a.645.645 0 0 0 .475.191Z"/>
</svg>
