<svg xmlns="http://www.w3.org/2000/svg" width="16" height="16" fill="none" viewBox="0 0 16 16">
  <path fill="#C0CCD9" d="M3.333 14c-.366 0-.68-.13-.941-.392A1.284 1.284 0 0 1 2 12.667V3.333c0-.366.13-.68.392-.941.26-.261.575-.392.941-.392h9.334c.366 0 .68.13.941.392.261.26.392.575.392.941v9.334c0 .366-.13.68-.392.941a1.284 1.284 0 0 1-.941.392H3.333Zm0-1.333h9.334V3.333H3.333v9.334Zm2-1.334h3.334a.645.645 0 0 0 .475-.191.645.645 0 0 0 .191-.475.645.645 0 0 0-.191-.475.645.645 0 0 0-.475-.192H5.333a.645.645 0 0 0-.475.192.645.645 0 0 0-.191.475c0 .189.064.347.191.475a.645.645 0 0 0 .475.191Zm0-2.666h5.334a.645.645 0 0 0 .475-.192.645.645 0 0 0 .191-.475.645.645 0 0 0-.191-.475.645.645 0 0 0-.475-.192H5.333a.645.645 0 0 0-.475.192.645.645 0 0 0-.191.475c0 .189.064.347.191.475a.645.645 0 0 0 .475.192Zm0-2.667h5.334a.645.645 0 0 0 .475-.192.645.645 0 0 0 .191-.475.645.645 0 0 0-.191-.475.645.645 0 0 0-.475-.191H5.333a.645.645 0 0 0-.475.191.645.645 0 0 0-.191.475c0 .19.064.348.191.475A.645.645 0 0 0 5.333 6Z"/>
</svg>
