<svg xmlns="http://www.w3.org/2000/svg" width="16" height="16" fill="none" viewBox="0 0 16 16">
  <path fill="#C0CCD9" d="M3.667 11.333V4.667c0-.19.064-.348.191-.475A.645.645 0 0 1 4.333 4c.19 0 .348.064.475.192A.645.645 0 0 1 5 4.667v6.666a.645.645 0 0 1-.192.475.645.645 0 0 1-.475.192.645.645 0 0 1-.475-.192.645.645 0 0 1-.191-.475Zm7.633-.016L7.167 8.55a.664.664 0 0 1-.225-.242A.649.649 0 0 1 6.867 8c0-.111.025-.214.075-.308a.664.664 0 0 1 .225-.242L11.3 4.683a.393.393 0 0 1 .183-.083c.067-.011.128-.017.184-.017.177 0 .333.061.466.184.134.122.2.283.2.483v5.5c0 .2-.066.361-.2.483a.669.669 0 0 1-.466.184c-.056 0-.117-.006-.184-.017a.393.393 0 0 1-.183-.083ZM11 9.5v-3L8.733 8 11 9.5Z"/>
</svg>
