<svg xmlns="http://www.w3.org/2000/svg" width="16" height="16" fill="none" viewBox="0 0 16 16">
  <path fill="#C0CCD9" d="M11 11.333V4.667c0-.19.064-.348.192-.475A.645.645 0 0 1 11.667 4c.188 0 .347.064.475.192a.645.645 0 0 1 .191.475v6.666a.645.645 0 0 1-.191.475.645.645 0 0 1-.475.192.645.645 0 0 1-.475-.192.645.645 0 0 1-.192-.475Zm-7.333-.583v-5.5c0-.2.066-.361.2-.483a.669.669 0 0 1 .466-.184c.056 0 .117.006.184.017a.393.393 0 0 1 .183.083L8.833 7.45a.649.649 0 0 1 .3.55.649.649 0 0 1-.075.308.664.664 0 0 1-.225.242L4.7 11.317a.394.394 0 0 1-.183.083 1.124 1.124 0 0 1-.184.017.669.669 0 0 1-.466-.184.624.624 0 0 1-.2-.483ZM5 9.5 7.267 8 5 6.5v3Z"/>
</svg>
