<svg xmlns="http://www.w3.org/2000/svg" width="16" height="16" fill="none" viewBox="0 0 16 16">
  <path fill="#C0CCD9" d="M8 10.383a.737.737 0 0 1-.25-.041.586.586 0 0 1-.217-.142l-2.4-2.4a.61.61 0 0 1-.191-.467.68.68 0 0 1 .667-.675.62.62 0 0 1 .474.192l1.25 1.25V3.333c0-.189.064-.347.192-.475A.645.645 0 0 1 8 2.667c.189 0 .347.064.475.191a.645.645 0 0 1 .192.475V8.1l1.25-1.25a.62.62 0 0 1 .475-.192.68.68 0 0 1 .666.675.61.61 0 0 1-.191.467l-2.4 2.4a.586.586 0 0 1-.217.142.737.737 0 0 1-.25.041Zm-4 2.95c-.367 0-.68-.13-.942-.391A1.284 1.284 0 0 1 2.667 12v-1.333c0-.19.064-.348.191-.475A.645.645 0 0 1 3.333 10c.19 0 .348.064.475.192a.645.645 0 0 1 .192.475V12h8v-1.333c0-.19.064-.348.192-.475a.645.645 0 0 1 .475-.192c.188 0 .347.064.475.192a.645.645 0 0 1 .191.475V12c0 .367-.13.68-.391.942a1.284 1.284 0 0 1-.942.391H4Z"/>
</svg>
