<svg xmlns="http://www.w3.org/2000/svg" width="16" height="16" fill="none" viewBox="0 0 16 16">
  <path fill="#C0CCD9" d="M3.333 12.667h.95L10.8 6.15l-.95-.95-6.517 6.517v.95ZM2.667 14a.645.645 0 0 1-.475-.192.645.645 0 0 1-.192-.475v-1.616a1.317 1.317 0 0 1 .383-.934l8.417-8.4c.133-.122.28-.216.442-.283a1.38 1.38 0 0 1 1.025 0c.166.067.31.167.433.3l.917.933c.133.123.23.267.291.434a1.444 1.444 0 0 1 0 1.008 1.25 1.25 0 0 1-.291.442l-8.4 8.4a1.316 1.316 0 0 1-.933.383H2.666Zm7.65-8.317L9.85 5.2l.95.95-.483-.467Z"/>
</svg>
