<svg xmlns="http://www.w3.org/2000/svg" width="16" height="16" fill="none" viewBox="0 0 16 16">
  <path fill="#C0CCD9" d="M8 11.333a.645.645 0 0 0 .475-.191.645.645 0 0 0 .192-.475.645.645 0 0 0-.192-.475A.645.645 0 0 0 8 10a.645.645 0 0 0-.475.192.645.645 0 0 0-.192.475c0 .188.064.347.192.475a.645.645 0 0 0 .475.191Zm0-2.666a.645.645 0 0 0 .475-.192A.645.645 0 0 0 8.667 8V5.333a.645.645 0 0 0-.192-.475A.645.645 0 0 0 8 4.667a.645.645 0 0 0-.475.191.645.645 0 0 0-.192.475V8c0 .189.064.347.192.475A.645.645 0 0 0 8 8.667Zm0 6a6.492 6.492 0 0 1-2.6-.525 6.732 6.732 0 0 1-2.117-1.425A6.732 6.732 0 0 1 1.858 10.6 6.492 6.492 0 0 1 1.333 8c0-.922.175-1.789.525-2.6a6.732 6.732 0 0 1 1.425-2.117c.6-.6 1.306-1.075 2.117-1.425A6.492 6.492 0 0 1 8 1.333c.922 0 1.789.175 2.6.525.811.35 1.517.825 2.117 1.425.6.6 1.075 1.306 1.425 2.117.35.811.525 1.678.525 2.6 0 .922-.175 1.789-.525 2.6a6.732 6.732 0 0 1-1.425 2.117c-.6.6-1.306 1.075-2.117 1.425a6.491 6.491 0 0 1-2.6.525Zm0-1.334c1.489 0 2.75-.516 3.783-1.55 1.034-1.033 1.55-2.294 1.55-3.783 0-1.489-.516-2.75-1.55-3.783C10.75 3.183 9.49 2.667 8 2.667c-1.489 0-2.75.516-3.783 1.55C3.183 5.25 2.667 6.51 2.667 8c0 1.489.516 2.75 1.55 3.783C5.25 12.817 6.51 13.333 8 13.333Z"/>
</svg>
