<svg xmlns="http://www.w3.org/2000/svg" width="16" height="16" fill="none" viewBox="0 0 16 16">
  <path fill="#C0CCD9" d="M4.667 11.333h2c.189 0 .347.064.475.192a.645.645 0 0 1 .191.475.645.645 0 0 1-.191.475.645.645 0 0 1-.475.192H4a.645.645 0 0 1-.475-.192.645.645 0 0 1-.192-.475V9.333c0-.189.064-.347.192-.475A.645.645 0 0 1 4 8.667c.189 0 .347.064.475.191a.645.645 0 0 1 .192.475v2Zm6.666-6.666h-2a.645.645 0 0 1-.475-.192A.645.645 0 0 1 8.667 4c0-.189.064-.347.191-.475a.645.645 0 0 1 .475-.192H12c.189 0 .347.064.475.192a.645.645 0 0 1 .192.475v2.667a.645.645 0 0 1-.192.475.645.645 0 0 1-.475.191.645.645 0 0 1-.475-.191.645.645 0 0 1-.192-.475v-2Z"/>
</svg>
