<svg xmlns="http://www.w3.org/2000/svg" width="16" height="16" fill="none" viewBox="0 0 16 16">
  <path fill="#C0CCD9" d="M2 13.333v-1.95a1.317 1.317 0 0 1 .383-.933l5.584-5.583L7 3.933 7.967 3l1.266 1.267L11.3 2.2a.69.69 0 0 1 .467-.183c.089 0 .172.016.25.05a.85.85 0 0 1 .216.133L13.8 3.767c.056.066.1.138.133.216a.688.688 0 0 1-.133.717l-2.05 2.05 1.267 1.3-.95.95-.934-.967-5.583 5.584a1.316 1.316 0 0 1-.933.383h-1.95a.645.645 0 0 1-.475-.192.645.645 0 0 1-.192-.475Zm1.333-.666h1.3L10.167 7.1 8.9 5.833l-5.567 5.534v1.3Zm7.45-6.834 1.6-1.6-.616-.616-1.6 1.6.616.616Z"/>
</svg>
