<svg xmlns="http://www.w3.org/2000/svg" width="16" height="16" fill="none" viewBox="0 0 16 16">
  <path fill="#1A1D20" d="M0 0h16v16H0z"/>
  <path fill="#C0CCD9" d="M6 13.333H3.333c-.366 0-.68-.13-.941-.391A1.284 1.284 0 0 1 2 12V2.667c0-.367.13-.68.392-.942.26-.261.575-.392.941-.392h9.334c.366 0 .68.13.941.392.261.261.392.575.392.942V12c0 .367-.13.68-.392.942a1.284 1.284 0 0 1-.941.391H10l-1.533 1.534a.64.64 0 0 1-.467.2.64.64 0 0 1-.467-.2L6 13.333ZM3.333 12h3.2L8 13.467 9.467 12h3.2V2.667H3.333V12Zm4.6-.667c.234 0 .43-.08.592-.241a.805.805 0 0 0 .242-.592c0-.233-.08-.43-.242-.592a.805.805 0 0 0-.592-.241c-.233 0-.43.08-.591.241a.805.805 0 0 0-.242.592c0 .233.08.43.242.592a.804.804 0 0 0 .591.241Zm1.167-6c0 .19-.061.392-.183.609-.123.216-.328.452-.617.708a3.584 3.584 0 0 0-.458.475 2.77 2.77 0 0 0-.292.458 1.303 1.303 0 0 0-.1.267 6.527 6.527 0 0 0-.067.3.514.514 0 0 0 .134.433.558.558 0 0 0 .433.184.603.603 0 0 0 .417-.167.854.854 0 0 0 .25-.45c.033-.156.097-.3.191-.433a4.37 4.37 0 0 1 .459-.517c.389-.389.664-.717.825-.983.16-.267.241-.561.241-.884 0-.6-.202-1.083-.608-1.45-.406-.366-.958-.55-1.658-.55-.5 0-.934.106-1.3.317a2.406 2.406 0 0 0-.884.883.414.414 0 0 0-.008.417.589.589 0 0 0 .342.3.584.584 0 0 0 .433 0A.76.76 0 0 0 7 4.983a1.3 1.3 0 0 1 1.067-.516c.289 0 .533.08.733.241.2.161.3.37.3.625Z"/>
</svg>
