<svg xmlns="http://www.w3.org/2000/svg" width="16" height="16" fill="none" viewBox="0 0 16 16">
  <path fill="#C0CCD9" d="M10.117 5.55c.322.322.558.689.708 1.1.15.411.203.833.158 1.267a.565.565 0 0 1-.183.425.606.606 0 0 1-.433.175.579.579 0 0 1-.425-.175.579.579 0 0 1-.175-.425 1.623 1.623 0 0 0-.05-.834A1.72 1.72 0 0 0 9.3 6.4a1.891 1.891 0 0 0-.683-.433c-.267-.1-.55-.123-.85-.067a.566.566 0 0 1-.425-.183.607.607 0 0 1-.175-.434c0-.166.058-.308.175-.425a.579.579 0 0 1 .425-.175 2.76 2.76 0 0 1 1.25.159c.41.15.777.386 1.1.708ZM8 4c-.211 0-.417.008-.617.025s-.4.047-.6.092a.72.72 0 0 1-.508-.084.683.683 0 0 1-.308-.4.628.628 0 0 1 .058-.516.575.575 0 0 1 .408-.3c.256-.056.514-.095.775-.117.261-.022.525-.033.792-.033 1.522 0 2.914.4 4.175 1.2A7.863 7.863 0 0 1 15.067 7.1a1.258 1.258 0 0 1 .133.567c0 .1-.008.197-.025.291a1 1 0 0 1-.092.275 6.45 6.45 0 0 1-.741 1.25 7.74 7.74 0 0 1-.975 1.067.558.558 0 0 1-.467.15.609.609 0 0 1-.433-.267.736.736 0 0 1-.142-.508.685.685 0 0 1 .225-.458 6.55 6.55 0 0 0 .733-.834c.223-.3.417-.622.584-.966a6.515 6.515 0 0 0-2.409-2.675A6.363 6.363 0 0 0 8 4Zm0 8.667a7.312 7.312 0 0 1-4.083-1.209A8.664 8.664 0 0 1 1 8.283a1.052 1.052 0 0 1-.125-.291 1.272 1.272 0 0 1-.042-.325c0-.111.011-.217.034-.317.022-.1.06-.2.116-.3.223-.444.48-.87.775-1.275a6.75 6.75 0 0 1 1.009-1.108l-1.384-1.4a.648.648 0 0 1-.175-.475.651.651 0 0 1 .192-.459.632.632 0 0 1 .467-.183.63.63 0 0 1 .466.183l11.334 11.334a.652.652 0 0 1 .191.458.62.62 0 0 1-.191.475.632.632 0 0 1-.467.183.632.632 0 0 1-.467-.183L10.4 12.3a7.943 7.943 0 0 1-2.4.367ZM3.7 5.6a7.16 7.16 0 0 0-.883.95 6.01 6.01 0 0 0-.684 1.117 6.515 6.515 0 0 0 2.409 2.675A6.363 6.363 0 0 0 8 11.333c.222 0 .439-.014.65-.041.211-.028.428-.059.65-.092l-.6-.633a3.072 3.072 0 0 1-.35.075 2.354 2.354 0 0 1-.35.025 2.893 2.893 0 0 1-2.125-.875A2.893 2.893 0 0 1 5 7.667c0-.123.008-.24.025-.35.017-.111.042-.228.075-.35L3.7 5.6Z"/>
</svg>
