<svg xmlns="http://www.w3.org/2000/svg" width="16" height="16" fill="none" viewBox="0 0 16 16">
  <path fill="#C0CCD9" d="M4 12.667h2V9.333c0-.189.064-.347.192-.475a.645.645 0 0 1 .475-.191h2.666c.19 0 .348.064.475.191a.645.645 0 0 1 .192.475v3.334h2v-6l-4-3-4 3v6Zm-1.333 0v-6A1.324 1.324 0 0 1 3.2 5.6l4-3c.233-.178.5-.267.8-.267.3 0 .567.09.8.267l4 3a1.323 1.323 0 0 1 .533 1.067v6c0 .366-.13.68-.391.941A1.284 1.284 0 0 1 12 14H9.333a.645.645 0 0 1-.475-.192.645.645 0 0 1-.191-.475V10H7.333v3.333a.645.645 0 0 1-.191.475.645.645 0 0 1-.475.192H4c-.367 0-.68-.13-.942-.392a1.284 1.284 0 0 1-.391-.941Z"/>
</svg>
