<svg xmlns="http://www.w3.org/2000/svg" width="16" height="16" fill="none" viewBox="0 0 16 16">
  <path fill="#C0CCD9" d="M7 4.667c0-.367.13-.68.392-.942.26-.261.575-.392.941-.392.367 0 .68.13.942.392.261.261.392.575.392.942 0 .366-.13.68-.392.941A1.284 1.284 0 0 1 8.333 6c-.366 0-.68-.13-.941-.392A1.284 1.284 0 0 1 7 4.667Zm-2.667 0c0-1.111.39-2.056 1.167-2.834C6.278 1.056 7.222.667 8.333.667c1.111 0 2.056.389 2.834 1.166.777.778 1.166 1.723 1.166 2.834a3.83 3.83 0 0 1-.55 2.025 4.142 4.142 0 0 1-1.45 1.441v5.584a.69.69 0 0 1-.2.483L8.8 15.533a.586.586 0 0 1-.217.142.737.737 0 0 1-.25.042.737.737 0 0 1-.25-.042.586.586 0 0 1-.216-.142L5.75 13.417a.63.63 0 0 1-.133-.2.923.923 0 0 1-.067-.234.555.555 0 0 1 .017-.233.588.588 0 0 1 .116-.217l.65-.866-.716-.95a.63.63 0 0 1-.1-.592.573.573 0 0 1 .1-.192l.716-1.016v-.784a4.141 4.141 0 0 1-1.45-1.441 3.834 3.834 0 0 1-.55-2.025Zm1.334 0c0 .622.189 1.17.566 1.641.378.473.856.786 1.434.942v2.083l-.684.967L8 11.667l-.917 1.183 1.25 1.25.667-.667V7.25a2.688 2.688 0 0 0 1.433-.942c.378-.472.567-1.02.567-1.641a2.57 2.57 0 0 0-.783-1.884A2.568 2.568 0 0 0 8.333 2a2.57 2.57 0 0 0-1.883.783 2.568 2.568 0 0 0-.783 1.884Z"/>
</svg>
