<svg xmlns="http://www.w3.org/2000/svg" width="16" height="16" fill="none" viewBox="0 0 16 16">
  <path fill="#C0CCD9" d="M8 15c-.957 0-1.86-.184-2.713-.551a7.099 7.099 0 0 1-2.23-1.505 7.1 7.1 0 0 1-1.506-2.232A6.773 6.773 0 0 1 1 8c0-.968.184-1.875.551-2.721a7.128 7.128 0 0 1 1.505-2.223 7.1 7.1 0 0 1 2.231-1.505A6.773 6.773 0 0 1 8 1c.968 0 1.875.184 2.721.551.846.368 1.587.87 2.223 1.505a7.127 7.127 0 0 1 1.505 2.223C14.816 6.125 15 7.032 15 8c0 .957-.184 1.86-.551 2.713a7.098 7.098 0 0 1-1.505 2.23 7.126 7.126 0 0 1-2.223 1.506A6.754 6.754 0 0 1 8 15Zm0-1.435c.303-.42.566-.857.787-1.313.222-.455.403-.939.543-1.452H6.67c.14.513.32.997.543 1.452.221.455.484.893.787 1.313Zm-1.82-.28a9.705 9.705 0 0 1-.551-1.199 10.283 10.283 0 0 1-.394-1.286H3.17a5.81 5.81 0 0 0 1.269 1.522 5.036 5.036 0 0 0 1.741.963Zm3.64 0a5.037 5.037 0 0 0 1.741-.963c.508-.431.93-.939 1.269-1.522h-2.065a10.3 10.3 0 0 1-.394 1.286 9.72 9.72 0 0 1-.551 1.199ZM2.575 9.4h2.38a9.246 9.246 0 0 1-.079-2.109 9.95 9.95 0 0 1 .079-.691h-2.38A5.571 5.571 0 0 0 2.4 8a5.571 5.571 0 0 0 .175 1.4Zm3.78 0h3.29a9.246 9.246 0 0 0 .079-2.109 9.648 9.648 0 0 0-.079-.691h-3.29a9.246 9.246 0 0 0-.079 2.109c.018.227.044.458.079.691Zm4.69 0h2.38A5.565 5.565 0 0 0 13.6 8a5.565 5.565 0 0 0-.175-1.4h-2.38a9.246 9.246 0 0 1 .079 2.109 9.706 9.706 0 0 1-.079.691Zm-.28-4.2h2.065a5.808 5.808 0 0 0-1.269-1.522 5.037 5.037 0 0 0-1.741-.963c.21.385.394.785.551 1.199.158.414.289.843.394 1.286Zm-4.095 0h2.66a8.285 8.285 0 0 0-.543-1.453A8.887 8.887 0 0 0 8 2.436c-.303.42-.566.857-.787 1.313a8.235 8.235 0 0 0-.543 1.452Zm-3.5 0h2.065c.105-.443.236-.872.394-1.286.157-.414.341-.814.551-1.199-.653.21-1.234.53-1.741.963-.508.431-.93.939-1.269 1.522Z"/>
</svg>
