<svg xmlns="http://www.w3.org/2000/svg" width="16" height="16" fill="none" viewBox="0 0 16 16">
  <path fill="#C0CCD9" d="M3.333 14c-.366 0-.68-.13-.941-.392A1.284 1.284 0 0 1 2 12.667V3.333c0-.366.13-.68.392-.941.26-.261.575-.392.941-.392h4c.19 0 .348.064.475.192A.645.645 0 0 1 8 2.667a.645.645 0 0 1-.192.475.645.645 0 0 1-.475.191h-4v9.334h9.334v-4c0-.19.064-.348.191-.475A.645.645 0 0 1 13.333 8c.19 0 .348.064.475.192a.645.645 0 0 1 .192.475v4c0 .366-.13.68-.392.941a1.284 1.284 0 0 1-.941.392H3.333Zm9.334-9.733L6.933 10a.632.632 0 0 1-.466.183A.632.632 0 0 1 6 10a.632.632 0 0 1-.183-.467c0-.189.06-.344.183-.466l5.733-5.734H10a.645.645 0 0 1-.475-.191.645.645 0 0 1-.192-.475c0-.19.064-.348.192-.475A.645.645 0 0 1 10 2h3.333c.19 0 .348.064.475.192a.645.645 0 0 1 .192.475V6a.645.645 0 0 1-.192.475.645.645 0 0 1-.475.192.645.645 0 0 1-.475-.192.645.645 0 0 1-.191-.475V4.267Z"/>
</svg>
