<svg xmlns="http://www.w3.org/2000/svg" width="16" height="17" fill="none" viewBox="0 0 16 17">
  <path fill="#C0CCD9" d="M3.333 14.27c-.366 0-.68-.13-.941-.392A1.284 1.284 0 0 1 2 12.936V3.603c0-.367.13-.68.392-.942.26-.26.575-.391.941-.391h4c.19 0 .348.064.475.191A.645.645 0 0 1 8 2.936a.645.645 0 0 1-.192.475.645.645 0 0 1-.475.192h-4v9.333h9.334v-4c0-.189.064-.347.191-.475a.645.645 0 0 1 .475-.191c.19 0 .348.064.475.191a.645.645 0 0 1 .192.475v4c0 .367-.13.68-.392.942a1.284 1.284 0 0 1-.941.392H3.333Zm9.334-9.734L6.933 10.27a.632.632 0 0 1-.466.183A.632.632 0 0 1 6 10.27a.632.632 0 0 1-.183-.467A.63.63 0 0 1 6 9.336l5.733-5.733H10a.645.645 0 0 1-.475-.192.645.645 0 0 1-.192-.475c0-.189.064-.347.192-.475A.645.645 0 0 1 10 2.27h3.333c.19 0 .348.064.475.191a.645.645 0 0 1 .192.475V6.27a.645.645 0 0 1-.192.475.645.645 0 0 1-.475.191.645.645 0 0 1-.475-.191.645.645 0 0 1-.191-.475V4.536Z"/>
</svg>
