<svg xmlns="http://www.w3.org/2000/svg" width="16" height="16" fill="none" viewBox="0 0 16 16">
  <path fill="#C0CCD9" d="M10.417 8.517 9.233 7.333H10c.189 0 .347.064.475.192a.645.645 0 0 1 .192.475.662.662 0 0 1-.067.3.58.58 0 0 1-.183.217Zm3.25 6.083a.632.632 0 0 1-.467.183.632.632 0 0 1-.467-.183L1.4 3.267a.632.632 0 0 1-.183-.467.63.63 0 0 1 .183-.467.632.632 0 0 1 .467-.183.63.63 0 0 1 .466.183l11.334 11.334a.632.632 0 0 1 .183.466.632.632 0 0 1-.183.467Zm-9-3.267a3.213 3.213 0 0 1-2.359-.975A3.213 3.213 0 0 1 1.333 8c0-.767.234-1.45.7-2.05a3.248 3.248 0 0 1 1.8-1.183L5.067 6h-.4c-.556 0-1.028.194-1.417.583A1.929 1.929 0 0 0 2.667 8c0 .556.194 1.028.583 1.417.389.389.861.583 1.417.583h2c.189 0 .347.064.475.192a.645.645 0 0 1 .191.475.645.645 0 0 1-.191.475.645.645 0 0 1-.475.191h-2ZM6 8.667a.645.645 0 0 1-.475-.192A.645.645 0 0 1 5.333 8c0-.189.064-.347.192-.475A.645.645 0 0 1 6 7.333h.417l1.316 1.334H6Zm6.333 1.866a.698.698 0 0 1-.108-.5.584.584 0 0 1 .275-.416c.256-.19.458-.423.608-.7A1.9 1.9 0 0 0 13.333 8c0-.556-.194-1.028-.583-1.417A1.929 1.929 0 0 0 11.333 6h-2a.645.645 0 0 1-.475-.192.645.645 0 0 1-.191-.475c0-.189.064-.347.191-.475a.645.645 0 0 1 .475-.191h2c.923 0 1.709.325 2.359.975.65.65.975 1.436.975 2.358a3.21 3.21 0 0 1-.375 1.525A3.31 3.31 0 0 1 13.25 10.7a.698.698 0 0 1-.5.108.584.584 0 0 1-.417-.275Z"/>
</svg>
