<svg xmlns="http://www.w3.org/2000/svg" width="16" height="16" fill="none" viewBox="0 0 16 16">
  <path fill="#C0CCD9" d="M4.667 11.333a3.213 3.213 0 0 1-2.359-.975A3.213 3.213 0 0 1 1.333 8c0-.922.325-1.708.975-2.358a3.213 3.213 0 0 1 2.359-.975h2c.189 0 .347.064.475.191a.645.645 0 0 1 .191.475.645.645 0 0 1-.191.475.645.645 0 0 1-.475.192h-2c-.556 0-1.028.194-1.417.583A1.929 1.929 0 0 0 2.667 8c0 .556.194 1.028.583 1.417.389.389.861.583 1.417.583h2c.189 0 .347.064.475.192a.645.645 0 0 1 .191.475.645.645 0 0 1-.191.475.645.645 0 0 1-.475.191h-2ZM6 8.667a.645.645 0 0 1-.475-.192A.645.645 0 0 1 5.333 8c0-.189.064-.347.192-.475A.645.645 0 0 1 6 7.333h4c.189 0 .347.064.475.192a.645.645 0 0 1 .192.475.645.645 0 0 1-.192.475.645.645 0 0 1-.475.192H6Zm3.333 2.666a.645.645 0 0 1-.475-.191.645.645 0 0 1-.191-.475c0-.19.064-.348.191-.475A.645.645 0 0 1 9.333 10h2c.556 0 1.028-.194 1.417-.583.389-.39.583-.861.583-1.417s-.194-1.028-.583-1.417A1.929 1.929 0 0 0 11.333 6h-2a.645.645 0 0 1-.475-.192.645.645 0 0 1-.191-.475c0-.189.064-.347.191-.475a.645.645 0 0 1 .475-.191h2c.923 0 1.709.325 2.359.975.65.65.975 1.436.975 2.358 0 .922-.325 1.708-.975 2.358-.65.65-1.436.975-2.359.975h-2Z"/>
</svg>
