<svg xmlns="http://www.w3.org/2000/svg" width="16" height="16" fill="none" viewBox="0 0 16 16">
  <path fill="#C0CCD9" d="M6.667 12.667a.645.645 0 0 1-.475-.192A.645.645 0 0 1 6 12c0-.189.064-.347.192-.475a.645.645 0 0 1 .475-.192h6.666c.19 0 .348.064.475.192A.645.645 0 0 1 14 12a.645.645 0 0 1-.192.475.645.645 0 0 1-.475.192H6.667Zm0-4a.645.645 0 0 1-.475-.192A.645.645 0 0 1 6 8c0-.189.064-.347.192-.475a.645.645 0 0 1 .475-.192h6.666c.19 0 .348.064.475.192A.645.645 0 0 1 14 8a.645.645 0 0 1-.192.475.645.645 0 0 1-.475.192H6.667Zm0-4a.645.645 0 0 1-.475-.192A.645.645 0 0 1 6 4c0-.189.064-.347.192-.475a.645.645 0 0 1 .475-.192h6.666c.19 0 .348.064.475.192A.645.645 0 0 1 14 4a.645.645 0 0 1-.192.475.645.645 0 0 1-.475.192H6.667Zm-3.334 8.666c-.366 0-.68-.13-.941-.391A1.284 1.284 0 0 1 2 12c0-.367.13-.68.392-.942.26-.26.575-.391.941-.391.367 0 .68.13.942.391.261.261.392.575.392.942s-.13.68-.392.942a1.284 1.284 0 0 1-.942.391Zm0-4c-.366 0-.68-.13-.941-.391A1.284 1.284 0 0 1 2 8c0-.367.13-.68.392-.942.26-.26.575-.391.941-.391.367 0 .68.13.942.391.261.261.392.575.392.942s-.13.68-.392.942a1.284 1.284 0 0 1-.942.391Zm0-4c-.366 0-.68-.13-.941-.391A1.284 1.284 0 0 1 2 4c0-.367.13-.68.392-.942.26-.26.575-.391.941-.391.367 0 .68.13.942.391.261.261.392.575.392.942s-.13.68-.392.942a1.284 1.284 0 0 1-.942.391Z"/>
</svg>
