<svg xmlns="http://www.w3.org/2000/svg" width="16" height="16" fill="none" viewBox="0 0 16 16">
  <path fill="#C0CCD9" d="M4 14.667c-.367 0-.68-.13-.942-.392a1.284 1.284 0 0 1-.391-.942V6.667c0-.367.13-.68.391-.942.261-.261.575-.392.942-.392h.667V4c0-.922.325-1.708.975-2.358A3.213 3.213 0 0 1 8 .667c.922 0 1.708.325 2.358.975.65.65.975 1.436.975 2.358v1.333H12c.367 0 .68.13.942.392.26.261.391.575.391.942v6.666c0 .367-.13.68-.391.942a1.284 1.284 0 0 1-.942.392H4Zm0-1.334h8V6.667H4v6.666Zm4-2c.367 0 .68-.13.942-.391.26-.261.391-.575.391-.942s-.13-.68-.391-.942A1.284 1.284 0 0 0 8 8.667c-.367 0-.68.13-.942.391a1.284 1.284 0 0 0-.391.942c0 .367.13.68.391.942.261.26.575.391.942.391Zm-2-6h4V4c0-.556-.194-1.028-.583-1.417A1.929 1.929 0 0 0 8 2c-.556 0-1.028.194-1.417.583A1.929 1.929 0 0 0 6 4v1.333Z"/>
</svg>
