<svg xmlns="http://www.w3.org/2000/svg" width="16" height="17" fill="none" viewBox="0 0 16 17">
  <path fill="#C0CCD9" d="M13.433 8.936H6a.645.645 0 0 1-.475-.191.645.645 0 0 1-.192-.475c0-.19.064-.348.192-.475A.645.645 0 0 1 6 7.603h7.433l-.566-.567a.61.61 0 0 1-.192-.466.68.68 0 0 1 .667-.675.62.62 0 0 1 .475.191l1.716 1.717a.64.64 0 0 1 .2.467.64.64 0 0 1-.2.466l-1.716 1.717a.621.621 0 0 1-.475.192.68.68 0 0 1-.667-.675.61.61 0 0 1 .192-.467l.566-.567ZM10 5.603v-2H3.333v9.333H10v-2c0-.189.064-.347.192-.475a.645.645 0 0 1 .475-.191c.189 0 .347.064.475.191a.645.645 0 0 1 .191.475v2c0 .367-.13.68-.391.942a1.284 1.284 0 0 1-.942.392H3.333c-.366 0-.68-.13-.941-.392A1.284 1.284 0 0 1 2 12.936V3.603c0-.367.13-.68.392-.942.26-.26.575-.391.941-.391H10c.367 0 .68.13.942.391.26.261.391.575.391.942v2a.645.645 0 0 1-.191.475.645.645 0 0 1-.475.192.645.645 0 0 1-.475-.192.645.645 0 0 1-.192-.475Z"/>
</svg>
