<svg xmlns="http://www.w3.org/2000/svg" width="16" height="16" fill="none" viewBox="0 0 16 16">
  <path fill="#C0CCD9" d="M3.333 14c-.366 0-.68-.13-.941-.392A1.284 1.284 0 0 1 2 12.667V3.333c0-.366.13-.68.392-.941.26-.261.575-.392.941-.392h4c.19 0 .348.064.475.192A.645.645 0 0 1 8 2.667a.645.645 0 0 1-.192.475.645.645 0 0 1-.475.191h-4v9.334h4c.19 0 .348.064.475.191a.645.645 0 0 1 .192.475.645.645 0 0 1-.192.475.645.645 0 0 1-.475.192h-4Zm8.117-5.333H6.667a.645.645 0 0 1-.475-.192A.645.645 0 0 1 6 8c0-.189.064-.347.192-.475a.645.645 0 0 1 .475-.192h4.783l-1.25-1.25a.612.612 0 0 1-.183-.45c0-.177.06-.333.183-.466a.632.632 0 0 1 .467-.209.63.63 0 0 1 .483.192l2.383 2.383a.64.64 0 0 1 .2.467.64.64 0 0 1-.2.467L11.15 10.85a.62.62 0 0 1-.475.192.68.68 0 0 1-.475-.209.648.648 0 0 1-.175-.475.651.651 0 0 1 .192-.458l1.233-1.233Z"/>
</svg>
