<svg xmlns="http://www.w3.org/2000/svg" width="16" height="16" fill="none" viewBox="0 0 16 16">
  <path fill="#C0CCD9" d="M2.667 13.333c-.367 0-.68-.13-.942-.391A1.284 1.284 0 0 1 1.333 12V4c0-.367.13-.68.392-.942.261-.26.575-.391.942-.391h10.666c.367 0 .68.13.942.391.261.261.392.575.392.942v8c0 .367-.13.68-.392.942a1.284 1.284 0 0 1-.942.391H2.667Zm10.666-8L8.35 8.45a.694.694 0 0 1-.35.1.694.694 0 0 1-.35-.1L2.667 5.333V12h10.666V5.333ZM8 7.333 13.333 4H2.667L8 7.333ZM2.667 5.5v-.983.016-.008.975Z"/>
</svg>
