<svg xmlns="http://www.w3.org/2000/svg" width="16" height="16" fill="none" viewBox="0 0 16 16">
  <path fill="#C0CCD9" d="M2.667 12a.645.645 0 0 1-.475-.192.645.645 0 0 1-.192-.475c0-.189.064-.347.192-.475a.645.645 0 0 1 .475-.191h10.666c.19 0 .348.064.475.191a.645.645 0 0 1 .192.475.645.645 0 0 1-.192.475.645.645 0 0 1-.475.192H2.667Zm0-3.333a.645.645 0 0 1-.475-.192A.645.645 0 0 1 2 8c0-.189.064-.347.192-.475a.645.645 0 0 1 .475-.192h10.666c.19 0 .348.064.475.192A.645.645 0 0 1 14 8a.645.645 0 0 1-.192.475.645.645 0 0 1-.475.192H2.667Zm0-3.334a.645.645 0 0 1-.475-.191A.645.645 0 0 1 2 4.667c0-.19.064-.348.192-.475A.645.645 0 0 1 2.667 4h10.666c.19 0 .348.064.475.192a.645.645 0 0 1 .192.475.645.645 0 0 1-.192.475.645.645 0 0 1-.475.191H2.667Z"/>
</svg>
