<svg xmlns="http://www.w3.org/2000/svg" width="16" height="16" fill="none" viewBox="0 0 16 16">
  <path fill="#C0CCD9" d="m4 12.465-1.533 1.533c-.211.211-.453.258-.725.142-.273-.117-.409-.325-.409-.625V3.13c0-.366.13-.68.392-.941.261-.261.575-.392.942-.392h10.666c.367 0 .68.13.942.392.261.26.392.575.392.941v8c0 .367-.13.68-.392.942a1.284 1.284 0 0 1-.942.392H4Zm-.567-1.334h9.9v-8H2.667v8.75l.766-.75Zm1.234-1.333h4a.645.645 0 0 0 .475-.192.645.645 0 0 0 .191-.475.645.645 0 0 0-.191-.475.645.645 0 0 0-.475-.191h-4a.645.645 0 0 0-.475.191.645.645 0 0 0-.192.475c0 .19.064.348.192.475a.645.645 0 0 0 .475.192Zm0-2h6.666a.645.645 0 0 0 .475-.192.645.645 0 0 0 .192-.475.645.645 0 0 0-.192-.475.645.645 0 0 0-.475-.191H4.667a.645.645 0 0 0-.475.191.645.645 0 0 0-.192.475c0 .19.064.348.192.475a.645.645 0 0 0 .475.192Zm0-2h6.666a.645.645 0 0 0 .475-.192.645.645 0 0 0 .192-.475.645.645 0 0 0-.192-.475.645.645 0 0 0-.475-.191H4.667a.645.645 0 0 0-.475.191.645.645 0 0 0-.192.475c0 .19.064.348.192.475a.645.645 0 0 0 .475.192Z"/>
</svg>
