<svg xmlns="http://www.w3.org/2000/svg" width="16" height="16" fill="none" viewBox="0 0 16 16">
  <mask id="a" width="16" height="16" x="0" y="0" maskUnits="userSpaceOnUse" style="mask-type:alpha">
    <path fill="#D9D9D9" d="M0 0h16v16H0z"/>
  </mask>
  <g mask="url(#a)">
    <path fill="#C0CCD9" d="M11.2 9.717a.615.615 0 0 1-.3-.409.67.67 0 0 1 .067-.508c.077-.122.141-.253.191-.392.05-.139.086-.28.109-.425a.92.92 0 0 1 .258-.466.66.66 0 0 1 .475-.184.605.605 0 0 1 .617.684 3.877 3.877 0 0 1-.175.75 3.645 3.645 0 0 1-.325.7.645.645 0 0 1-.409.308.645.645 0 0 1-.508-.058ZM8 1.333a1.93 1.93 0 0 1 1.417.584c.389.389.583.86.583 1.416V6.5c0 .222-.07.389-.208.5a.697.697 0 0 1-.917-.008c-.139-.117-.208-.286-.208-.509v-3.15a.645.645 0 0 0-.192-.475A.645.645 0 0 0 8 2.667a.645.645 0 0 0-.475.191.645.645 0 0 0-.192.475v.5c0 .223-.07.39-.208.5a.697.697 0 0 1-.917-.008C6.07 4.208 6 4.039 6 3.817v-.484c0-.555.194-1.027.583-1.416A1.929 1.929 0 0 1 8 1.333Zm-.667 12V11.95a4.425 4.425 0 0 1-2.625-1.292 4.611 4.611 0 0 1-1.325-2.641A.605.605 0 0 1 4 7.334a.67.67 0 0 1 .483.191.843.843 0 0 1 .25.475c.156.789.54 1.43 1.15 1.925A3.268 3.268 0 0 0 8 10.667 3.278 3.278 0 0 0 10 10l.95.95a5.245 5.245 0 0 1-1.058.65 4.144 4.144 0 0 1-1.225.35v1.383a.645.645 0 0 1-.192.475A.645.645 0 0 1 8 14a.645.645 0 0 1-.475-.192.645.645 0 0 1-.192-.475Zm5.4 1.267L1.4 3.267a.632.632 0 0 1-.183-.467.63.63 0 0 1 .183-.467.632.632 0 0 1 .467-.183.63.63 0 0 1 .466.183l11.334 11.334a.632.632 0 0 1 .183.466.632.632 0 0 1-.183.467.632.632 0 0 1-.467.183.632.632 0 0 1-.467-.183Z"/>
  </g>
</svg>
