<svg xmlns="http://www.w3.org/2000/svg" width="16" height="16" fill="none" viewBox="0 0 16 16">
  <path fill="#C0CCD9" d="M8 9.333a1.929 1.929 0 0 1-1.417-.583A1.929 1.929 0 0 1 6 7.333v-4c0-.555.195-1.027.583-1.416A1.929 1.929 0 0 1 8 1.333a1.93 1.93 0 0 1 1.417.584c.389.389.583.86.583 1.416v4c0 .556-.194 1.028-.583 1.417A1.929 1.929 0 0 1 8 9.333Zm-.667 4V11.95a4.532 4.532 0 0 1-2.625-1.3 4.571 4.571 0 0 1-1.325-2.633A.605.605 0 0 1 4 7.334c.189 0 .347.063.475.191A.97.97 0 0 1 4.733 8a3.206 3.206 0 0 0 1.159 1.917c.616.5 1.32.75 2.108.75.8 0 1.506-.253 2.117-.759A3.25 3.25 0 0 0 11.267 8a.97.97 0 0 1 .258-.475.645.645 0 0 1 .475-.192.605.605 0 0 1 .617.684 4.65 4.65 0 0 1-1.317 2.616 4.464 4.464 0 0 1-2.633 1.317v1.383a.645.645 0 0 1-.192.475A.645.645 0 0 1 8 14a.645.645 0 0 1-.475-.192.645.645 0 0 1-.192-.475ZM8 8a.645.645 0 0 0 .475-.192.645.645 0 0 0 .192-.475v-4a.645.645 0 0 0-.192-.475A.645.645 0 0 0 8 2.667a.645.645 0 0 0-.475.191.645.645 0 0 0-.192.475v4c0 .19.064.348.192.475A.645.645 0 0 0 8 8Z"/>
</svg>
