<svg xmlns="http://www.w3.org/2000/svg" width="16" height="17" fill="none" viewBox="0 0 16 17">
  <path fill="#C0CCD9" d="M7 13.603h2a.32.32 0 0 0 .233-.1.32.32 0 0 0 0-.467.32.32 0 0 0-.233-.1H7a.32.32 0 0 0-.233.1.32.32 0 0 0-.1.234.32.32 0 0 0 .1.233.32.32 0 0 0 .233.1Zm-2.333 2c-.367 0-.68-.13-.942-.392a1.284 1.284 0 0 1-.392-.941v-12c0-.367.13-.68.392-.942.261-.261.575-.392.942-.392h6.666c.367 0 .68.13.942.392.261.261.392.575.392.942v12c0 .366-.13.68-.392.941a1.284 1.284 0 0 1-.942.392H4.667Zm0-3.333v2h6.666v-2H4.667Zm0-1.334h6.666V4.27H4.667v6.666Zm0-8h6.666V2.27H4.667v.666Z"/>
</svg>
