<svg xmlns="http://www.w3.org/2000/svg" width="16" height="16" fill="none" viewBox="0 0 16 16">
  <path fill="#C0CCD9" d="M7 13.333h2a.32.32 0 0 0 .233-.1.32.32 0 0 0 0-.466.32.32 0 0 0-.233-.1H7a.32.32 0 0 0-.233.1.32.32 0 0 0 0 .466.32.32 0 0 0 .233.1Zm-2.333 2c-.367 0-.68-.13-.942-.391A1.284 1.284 0 0 1 3.333 14V2c0-.367.13-.68.392-.942.261-.26.575-.391.942-.391h6.666c.367 0 .68.13.942.391.261.261.392.575.392.942v12c0 .367-.13.68-.392.942a1.284 1.284 0 0 1-.942.391H4.667Zm0-3.333v2h6.666v-2H4.667Zm0-1.333h6.666V4H4.667v6.667Zm0-8h6.666V2H4.667v.667Z"/>
</svg>
