<svg xmlns="http://www.w3.org/2000/svg" width="16" height="17" fill="none" viewBox="0 0 16 17">
  <path fill="#C0CCD9" d="M4 9.603c-.367 0-.68-.13-.942-.392a1.284 1.284 0 0 1-.391-.941c0-.367.13-.68.391-.942.261-.261.575-.392.942-.392s.68.13.942.392c.26.261.391.575.391.942 0 .366-.13.68-.391.941A1.284 1.284 0 0 1 4 9.603Zm4 0c-.367 0-.68-.13-.942-.392a1.284 1.284 0 0 1-.391-.941c0-.367.13-.68.391-.942.261-.261.575-.392.942-.392s.68.13.942.392c.26.261.391.575.391.942 0 .366-.13.68-.391.941A1.284 1.284 0 0 1 8 9.603Zm4 0c-.367 0-.68-.13-.942-.392a1.284 1.284 0 0 1-.391-.941c0-.367.13-.68.391-.942.261-.261.575-.392.942-.392s.68.13.942.392c.26.261.391.575.391.942 0 .366-.13.68-.391.941a1.284 1.284 0 0 1-.942.392Z"/>
</svg>
