<svg xmlns="http://www.w3.org/2000/svg" width="16" height="16" fill="none" viewBox="0 0 16 16">
  <path fill="#C0CCD9" d="M8 13.333c-.367 0-.68-.13-.942-.391A1.284 1.284 0 0 1 6.667 12c0-.367.13-.68.391-.942.261-.26.575-.391.942-.391s.68.13.942.391c.26.261.391.575.391.942s-.13.68-.391.942a1.284 1.284 0 0 1-.942.391Zm0-4c-.367 0-.68-.13-.942-.391A1.284 1.284 0 0 1 6.667 8c0-.367.13-.68.391-.942.261-.26.575-.391.942-.391s.68.13.942.391c.26.261.391.575.391.942s-.13.68-.391.942A1.284 1.284 0 0 1 8 9.333Zm0-4c-.367 0-.68-.13-.942-.391A1.284 1.284 0 0 1 6.667 4c0-.367.13-.68.391-.942.261-.26.575-.391.942-.391s.68.13.942.391c.26.261.391.575.391.942s-.13.68-.391.942A1.284 1.284 0 0 1 8 5.333Z"/>
</svg>
