<svg xmlns="http://www.w3.org/2000/svg" width="16" height="16" fill="none" viewBox="0 0 16 16">
  <path fill="#C0CCD9" d="M4 9.333c-.367 0-.68-.13-.942-.391A1.284 1.284 0 0 1 2.667 8c0-.367.13-.68.391-.942.261-.26.575-.391.942-.391s.68.13.942.391c.26.261.391.575.391.942s-.13.68-.391.942A1.284 1.284 0 0 1 4 9.333Zm4 0c-.367 0-.68-.13-.942-.391A1.284 1.284 0 0 1 6.667 8c0-.367.13-.68.391-.942.261-.26.575-.391.942-.391s.68.13.942.391c.26.261.391.575.391.942s-.13.68-.391.942A1.284 1.284 0 0 1 8 9.333Zm4 0c-.367 0-.68-.13-.942-.391A1.284 1.284 0 0 1 10.667 8c0-.367.13-.68.391-.942.261-.26.575-.391.942-.391s.68.13.942.391c.26.261.391.575.391.942s-.13.68-.391.942a1.284 1.284 0 0 1-.942.391Z"/>
</svg>
