<svg xmlns="http://www.w3.org/2000/svg" width="16" height="16" fill="none" viewBox="0 0 16 16">
  <path fill="#C0CCD9" d="M4.667 11.333a.645.645 0 0 0 .475-.191.645.645 0 0 0 .191-.475.645.645 0 0 0-.191-.475.645.645 0 0 0-.475-.192.645.645 0 0 0-.475.192.645.645 0 0 0-.192.475c0 .189.064.347.192.475a.645.645 0 0 0 .475.191Zm0-6.666a.645.645 0 0 0-.475.191.645.645 0 0 0-.192.475V8c0 .189.064.347.192.475a.645.645 0 0 0 .475.192.645.645 0 0 0 .475-.192A.645.645 0 0 0 5.333 8V5.333a.645.645 0 0 0-.191-.475.645.645 0 0 0-.475-.191Zm6.666 6.666a.645.645 0 0 0 .475-.191.645.645 0 0 0 .192-.475.645.645 0 0 0-.192-.475.645.645 0 0 0-.475-.192H8a.645.645 0 0 0-.475.192.645.645 0 0 0-.192.475c0 .189.064.347.192.475a.645.645 0 0 0 .475.191h3.333Zm0-2.666a.645.645 0 0 0 .475-.192A.645.645 0 0 0 12 8a.645.645 0 0 0-.192-.475.645.645 0 0 0-.475-.192H8a.645.645 0 0 0-.475.192.645.645 0 0 0-.192.475c0 .189.064.347.192.475A.645.645 0 0 0 8 8.667h3.333Zm0-2.667a.645.645 0 0 0 .475-.192.645.645 0 0 0 .192-.475.645.645 0 0 0-.192-.475.645.645 0 0 0-.475-.191H8a.645.645 0 0 0-.475.191.645.645 0 0 0-.192.475c0 .19.064.348.192.475A.645.645 0 0 0 8 6h3.333Zm-8.666 8c-.367 0-.68-.13-.942-.392a1.284 1.284 0 0 1-.392-.941V3.333c0-.366.13-.68.392-.941A1.28 1.28 0 0 1 2.667 2h10.666c.367 0 .68.13.942.392.261.26.392.575.392.941v9.334c0 .366-.13.68-.392.941a1.284 1.284 0 0 1-.942.392H2.667Zm0-1.333h10.666V3.333H2.667v9.334Z"/>
</svg>
