<svg xmlns="http://www.w3.org/2000/svg" width="16" height="17" fill="none" viewBox="0 0 16 17">
  <path fill="#C0CCD9" d="M4.667 11.603a.645.645 0 0 0 .475-.192.645.645 0 0 0 .191-.475.645.645 0 0 0-.191-.475.645.645 0 0 0-.475-.191.645.645 0 0 0-.475.191.645.645 0 0 0-.192.475c0 .19.064.348.192.475a.645.645 0 0 0 .475.192Zm0-6.667a.645.645 0 0 0-.475.192.645.645 0 0 0-.192.475V8.27c0 .189.064.347.192.475a.645.645 0 0 0 .475.191.645.645 0 0 0 .475-.191.645.645 0 0 0 .191-.475V5.603a.645.645 0 0 0-.191-.475.645.645 0 0 0-.475-.192Zm6.666 6.667a.645.645 0 0 0 .475-.192.645.645 0 0 0 .192-.475.645.645 0 0 0-.192-.475.645.645 0 0 0-.475-.191H8a.645.645 0 0 0-.475.191.645.645 0 0 0-.192.475c0 .19.064.348.192.475a.645.645 0 0 0 .475.192h3.333Zm0-2.667a.645.645 0 0 0 .475-.191A.645.645 0 0 0 12 8.27a.645.645 0 0 0-.192-.475.645.645 0 0 0-.475-.192H8a.645.645 0 0 0-.475.192.645.645 0 0 0-.192.475c0 .189.064.347.192.475A.645.645 0 0 0 8 8.936h3.333Zm0-2.666a.645.645 0 0 0 .475-.192.645.645 0 0 0 .192-.475.645.645 0 0 0-.192-.475.645.645 0 0 0-.475-.192H8a.645.645 0 0 0-.475.192.645.645 0 0 0-.192.475c0 .189.064.347.192.475A.645.645 0 0 0 8 6.27h3.333Zm-8.666 8c-.367 0-.68-.13-.942-.392a1.284 1.284 0 0 1-.392-.942V3.603c0-.367.13-.68.392-.942.261-.26.575-.391.942-.391h10.666c.367 0 .68.13.942.391.261.261.392.575.392.942v9.333c0 .367-.13.68-.392.942a1.284 1.284 0 0 1-.942.392H2.667Zm0-1.334h10.666V3.603H2.667v9.333Z"/>
</svg>
