<svg xmlns="http://www.w3.org/2000/svg" width="16" height="16" fill="none" viewBox="0 0 16 16">
  <path fill="#C0CCD9" d="M3.333 12.667a.645.645 0 0 1-.475-.192.645.645 0 0 1-.191-.475c0-.189.064-.347.191-.475a.645.645 0 0 1 .475-.192H4V6.667c0-.923.278-1.742.833-2.459A3.845 3.845 0 0 1 7 2.8v-.467c0-.277.097-.514.292-.708A.964.964 0 0 1 8 1.333c.278 0 .514.098.708.292A.96.96 0 0 1 9 2.333V2.8a3.845 3.845 0 0 1 2.167 1.408c.555.717.833 1.536.833 2.459v4.666h.667c.188 0 .347.064.475.192a.645.645 0 0 1 .191.475.645.645 0 0 1-.191.475.645.645 0 0 1-.475.192H3.333Zm4.667 2c-.367 0-.68-.13-.942-.392a1.284 1.284 0 0 1-.391-.942h2.666c0 .367-.13.68-.391.942a1.284 1.284 0 0 1-.942.392Zm-2.667-3.334h5.334V6.667c0-.734-.261-1.361-.784-1.884A2.568 2.568 0 0 0 8 4c-.733 0-1.361.261-1.883.783a2.568 2.568 0 0 0-.784 1.884v4.666Z"/>
</svg>
