<svg xmlns="http://www.w3.org/2000/svg" width="16" height="16" fill="none" viewBox="0 0 16 16">
  <path fill="#C0CCD9" d="M2.5 14.667a.485.485 0 0 1-.5-.5.486.486 0 0 1 .5-.5h1.167v-.5h-.5a.485.485 0 0 1-.5-.5.486.486 0 0 1 .5-.5h.5v-.5H2.5a.485.485 0 0 1-.5-.5.486.486 0 0 1 .5-.5H4c.189 0 .347.064.475.191a.645.645 0 0 1 .192.475V12a.645.645 0 0 1-.192.475.645.645 0 0 1-.475.192c.189 0 .347.064.475.191a.645.645 0 0 1 .192.475V14a.645.645 0 0 1-.192.475.645.645 0 0 1-.475.192H2.5ZM2.5 10a.486.486 0 0 1-.5-.5V8.167c0-.19.064-.348.192-.475a.645.645 0 0 1 .475-.192h1V7H2.5a.486.486 0 0 1-.5-.5.486.486 0 0 1 .5-.5H4c.189 0 .347.064.475.192a.645.645 0 0 1 .192.475v1.166a.645.645 0 0 1-.192.475A.645.645 0 0 1 4 8.5H3V9h1.167a.486.486 0 0 1 .5.5.486.486 0 0 1-.5.5H2.5Zm1-4.667a.486.486 0 0 1-.5-.5v-2.5h-.5a.486.486 0 0 1-.5-.5.486.486 0 0 1 .5-.5h1a.486.486 0 0 1 .5.5v3a.486.486 0 0 1-.5.5Zm3.167 7.334a.645.645 0 0 1-.475-.192A.645.645 0 0 1 6 12c0-.189.064-.347.192-.475a.645.645 0 0 1 .475-.192h6.666c.19 0 .348.064.475.192A.645.645 0 0 1 14 12a.645.645 0 0 1-.192.475.645.645 0 0 1-.475.192H6.667Zm0-4a.645.645 0 0 1-.475-.192A.645.645 0 0 1 6 8c0-.189.064-.347.192-.475a.645.645 0 0 1 .475-.192h6.666c.19 0 .348.064.475.192A.645.645 0 0 1 14 8a.645.645 0 0 1-.192.475.645.645 0 0 1-.475.192H6.667Zm0-4a.645.645 0 0 1-.475-.192A.645.645 0 0 1 6 4c0-.189.064-.347.192-.475a.645.645 0 0 1 .475-.192h6.666c.19 0 .348.064.475.192A.645.645 0 0 1 14 4a.645.645 0 0 1-.192.475.645.645 0 0 1-.475.192H6.667Z"/>
</svg>
