<svg xmlns="http://www.w3.org/2000/svg" width="16" height="16" fill="none" viewBox="0 0 16 16">
  <path fill="#C0CCD9" d="M3.267 9.733 2.883 10.9a.664.664 0 0 1-.233.308.597.597 0 0 1-.367.125.649.649 0 0 1-.541-.275.586.586 0 0 1-.075-.608l2-5.35a.71.71 0 0 1 .25-.317.652.652 0 0 1 .383-.116h.5c.144 0 .272.039.383.116a.71.71 0 0 1 .25.317l2.017 5.383a.593.593 0 0 1-.075.584.612.612 0 0 1-.525.266.597.597 0 0 1-.367-.125.664.664 0 0 1-.233-.308l-.417-1.167H3.267Zm.4-1.133H5.4l-.8-2.5h-.1l-.833 2.5Zm6.966 1.533H13.4c.167 0 .308.059.425.175a.579.579 0 0 1 .175.425.578.578 0 0 1-.175.425.578.578 0 0 1-.425.175H9.533a.386.386 0 0 1-.283-.116.386.386 0 0 1-.117-.284V10.3a.76.76 0 0 1 .034-.225.459.459 0 0 1 .116-.192L12.5 5.867H9.867a.579.579 0 0 1-.425-.175.579.579 0 0 1-.175-.425c0-.167.058-.309.175-.425a.579.579 0 0 1 .425-.175h3.7a.39.39 0 0 1 .283.116.386.386 0 0 1 .117.284V5.7a.761.761 0 0 1-.034.225.46.46 0 0 1-.116.192l-3.184 4.016ZM6.4 3.333c-.078 0-.13-.033-.158-.1-.028-.066-.014-.127.041-.183l1.484-1.483a.32.32 0 0 1 .466 0L9.717 3.05c.055.056.07.117.041.183-.027.067-.08.1-.158.1H6.4Zm1.367 11.1L6.283 12.95c-.055-.055-.07-.117-.041-.183.027-.067.08-.1.158-.1h3.2c.078 0 .13.033.158.1.028.066.014.128-.041.183l-1.484 1.483a.32.32 0 0 1-.233.1.32.32 0 0 1-.233-.1Z"/>
</svg>
