<svg xmlns="http://www.w3.org/2000/svg" width="16" height="16" fill="none" viewBox="0 0 16 16">
  <path fill="#C0CCD9" d="M10 12.667c-.367 0-.68-.13-.942-.392a1.284 1.284 0 0 1-.391-.942V4.667c0-.367.13-.68.391-.942.261-.261.575-.392.942-.392h1.333c.367 0 .68.13.942.392.261.261.392.575.392.942v6.666c0 .367-.13.68-.392.942a1.284 1.284 0 0 1-.942.392H10Zm-5.333 0c-.367 0-.68-.13-.942-.392a1.284 1.284 0 0 1-.392-.942V4.667c0-.367.13-.68.392-.942.261-.261.575-.392.942-.392H6c.367 0 .68.13.942.392.26.261.391.575.391.942v6.666c0 .367-.13.68-.391.942a1.284 1.284 0 0 1-.942.392H4.667ZM10 11.333h1.333V4.667H10v6.666Zm-5.333 0H6V4.667H4.667v6.666Z"/>
</svg>
