<svg xmlns="http://www.w3.org/2000/svg" width="16" height="16" fill="none" viewBox="0 0 16 16">
  <path fill="#C0CCD9" d="M3.333 14c-.366 0-.68-.13-.941-.392A1.284 1.284 0 0 1 2 12.667V3.333c0-.366.13-.68.392-.941.26-.261.575-.392.941-.392h9.334c.366 0 .68.13.941.392.261.26.392.575.392.941v9.334c0 .366-.13.68-.392.941a1.284 1.284 0 0 1-.941.392H3.333Zm0-1.333h9.334V3.333H3.333v9.334Zm1.334-1.334h6.666a.322.322 0 0 0 .3-.183.293.293 0 0 0-.033-.35L9.767 8.35a.317.317 0 0 0-.267-.133c-.111 0-.2.044-.267.133L7.5 10.667l-1.233-1.65A.317.317 0 0 0 6 8.883c-.111 0-.2.045-.267.134L4.4 10.8a.293.293 0 0 0-.033.35.322.322 0 0 0 .3.183Z"/>
</svg>
