<svg xmlns="http://www.w3.org/2000/svg" width="16" height="16" fill="none" viewBox="0 0 16 16">
  <path fill="#C0CCD9" d="m7.333 7.9-1.25 1.25a.62.62 0 0 1-.475.192.68.68 0 0 1-.666-.675.61.61 0 0 1 .191-.467l2.4-2.4a.585.585 0 0 1 .217-.142.738.738 0 0 1 .25-.041c.089 0 .172.014.25.041.078.028.15.075.217.142l2.4 2.4a.61.61 0 0 1 .191.467.68.68 0 0 1-.667.675.62.62 0 0 1-.474-.192L8.667 7.9v4.767a.645.645 0 0 1-.192.475.645.645 0 0 1-.475.191.645.645 0 0 1-.475-.191.645.645 0 0 1-.192-.475V7.9ZM2.667 5.333V4c0-.367.13-.68.391-.942.261-.26.575-.391.942-.391h8c.367 0 .68.13.942.391.26.261.391.575.391.942v1.333a.645.645 0 0 1-.191.475.645.645 0 0 1-.475.192.645.645 0 0 1-.475-.192.645.645 0 0 1-.192-.475V4H4v1.333a.645.645 0 0 1-.192.475.645.645 0 0 1-.475.192.645.645 0 0 1-.475-.192.645.645 0 0 1-.191-.475Z"/>
</svg>
