<svg xmlns="http://www.w3.org/2000/svg" width="16" height="16" fill="none" viewBox="0 0 16 16">
  <path fill="#C0CCD9" d="M2 6.667v-4c0-.19.064-.348.192-.475A.645.645 0 0 1 2.667 2h4c.189 0 .347.064.475.192a.645.645 0 0 1 .191.475v4a.645.645 0 0 1-.191.475.645.645 0 0 1-.475.191h-4a.645.645 0 0 1-.475-.191A.645.645 0 0 1 2 6.667ZM3.333 6H6V3.333H3.333V6ZM2 13.333v-4c0-.189.064-.347.192-.475a.645.645 0 0 1 .475-.191h4c.189 0 .347.064.475.191a.645.645 0 0 1 .191.475v4a.645.645 0 0 1-.191.475.645.645 0 0 1-.475.192h-4a.645.645 0 0 1-.475-.192.645.645 0 0 1-.192-.475Zm1.333-.666H6V10H3.333v2.667Zm5.334-6v-4c0-.19.064-.348.191-.475A.645.645 0 0 1 9.333 2h4c.19 0 .348.064.475.192a.645.645 0 0 1 .192.475v4a.645.645 0 0 1-.192.475.645.645 0 0 1-.475.191h-4a.645.645 0 0 1-.475-.191.645.645 0 0 1-.191-.475ZM10 6h2.667V3.333H10V6Zm2.667 8v-1.333H14V14h-1.333Zm-4-4V8.667H10V10H8.667ZM10 11.333V10h1.333v1.333H10Zm-1.333 1.334v-1.334H10v1.334H8.667ZM10 14v-1.333h1.333V14H10Zm1.333-1.333v-1.334h1.334v1.334h-1.334Zm0-2.667V8.667h1.334V10h-1.334Zm1.334 1.333V10H14v1.333h-1.333Z"/>
</svg>
