<svg xmlns="http://www.w3.org/2000/svg" width="16" height="16" fill="none" viewBox="0 0 16 16">
  <path fill="#C0CCD9" d="M8.033 13.333c-1.489 0-2.755-.516-3.8-1.55C3.19 10.75 2.667 9.49 2.667 8v-.117l-.6.6a.632.632 0 0 1-.467.184.632.632 0 0 1-.467-.184.632.632 0 0 1-.183-.466c0-.19.061-.345.183-.467l1.734-1.733a.64.64 0 0 1 .466-.2.64.64 0 0 1 .467.2L5.533 7.55a.632.632 0 0 1 .184.467.632.632 0 0 1-.184.466.632.632 0 0 1-.466.184.632.632 0 0 1-.467-.184l-.6-.6V8c0 1.111.392 2.056 1.175 2.833C5.958 11.611 6.911 12 8.033 12c.178 0 .353-.011.525-.033.173-.023.342-.062.509-.117a.795.795 0 0 1 .533.017.735.735 0 0 1 .383.35.603.603 0 0 1-.366.866 4.243 4.243 0 0 1-.784.192 5.55 5.55 0 0 1-.8.058ZM7.967 4c-.178 0-.353.011-.525.033a2.694 2.694 0 0 0-.509.117.82.82 0 0 1-.541-.017.731.731 0 0 1-.392-.35.566.566 0 0 1-.025-.508.575.575 0 0 1 .375-.342 4.96 4.96 0 0 1 1.617-.267c1.489 0 2.755.517 3.8 1.55C12.81 5.25 13.333 6.512 13.333 8v.117l.6-.6a.632.632 0 0 1 .467-.184.63.63 0 0 1 .467.184.632.632 0 0 1 .183.466.632.632 0 0 1-.183.467l-1.734 1.733a.64.64 0 0 1-.466.2.64.64 0 0 1-.467-.2L10.467 8.45a.632.632 0 0 1-.184-.467c0-.189.062-.344.184-.466a.632.632 0 0 1 .466-.184c.19 0 .345.061.467.184l.6.6V8c0-1.111-.392-2.056-1.175-2.833C10.042 4.389 9.089 4 7.967 4Z"/>
</svg>
