<svg xmlns="http://www.w3.org/2000/svg" width="18" height="18" fill="none" viewBox="0 0 18 18">
  <path fill="#C0CCD9" d="M12.375 11.1V6.9c0-.175-.075-.294-.225-.356-.15-.063-.287-.031-.412.094L9.9 8.475A.72.72 0 0 0 9.675 9c0 .2.075.375.225.525l1.838 1.838c.125.125.262.156.412.093.15-.062.225-.181.225-.356ZM3.75 15.75c-.413 0-.765-.147-1.059-.44a1.447 1.447 0 0 1-.441-1.06V3.75c0-.413.147-.765.441-1.059.294-.293.647-.44 1.059-.441h10.5c.412 0 .766.147 1.06.441.294.294.44.647.44 1.059v10.5c0 .412-.147.766-.44 1.06a1.44 1.44 0 0 1-1.06.44H3.75ZM6 14.25V3.75H3.75v10.5H6Zm1.5 0h6.75V3.75H7.5v10.5Z"/>
</svg>
