<svg xmlns="http://www.w3.org/2000/svg" width="16" height="16" fill="none" viewBox="0 0 16 16">
  <path fill="#C0CCD9" d="M3.333 14c-.366 0-.68-.13-.941-.392A1.284 1.284 0 0 1 2 12.667V3.333c0-.366.13-.68.392-.941.26-.261.575-.392.941-.392h7.45a1.317 1.317 0 0 1 .934.383l1.9 1.9a1.316 1.316 0 0 1 .383.933v7.45c0 .367-.13.681-.392.942a1.284 1.284 0 0 1-.941.392H3.333Zm9.334-8.767-1.9-1.9H3.333v9.334h9.334V5.233ZM8 12c.556 0 1.028-.194 1.417-.583.389-.39.583-.861.583-1.417s-.194-1.028-.583-1.417A1.929 1.929 0 0 0 8 8c-.556 0-1.028.194-1.417.583A1.929 1.929 0 0 0 6 10c0 .556.194 1.028.583 1.417.39.389.861.583 1.417.583ZM4.667 6.667h4.666a.645.645 0 0 0 .475-.192A.645.645 0 0 0 10 6V4.667a.645.645 0 0 0-.192-.475A.645.645 0 0 0 9.333 4H4.667a.645.645 0 0 0-.475.192.645.645 0 0 0-.192.475V6c0 .189.064.347.192.475a.645.645 0 0 0 .475.192Z"/>
</svg>
