<svg xmlns="http://www.w3.org/2000/svg" width="16" height="17" fill="none" viewBox="0 0 16 17">
  <path fill="#C0CCD9" d="M3.333 14.27c-.366 0-.68-.13-.941-.392A1.284 1.284 0 0 1 2 12.936V3.603c0-.367.13-.68.392-.942.26-.26.575-.391.941-.391h7.45a1.317 1.317 0 0 1 .934.383l1.9 1.9a1.316 1.316 0 0 1 .383.933v7.45c0 .367-.13.68-.392.942a1.284 1.284 0 0 1-.941.392H3.333Zm9.334-8.767-1.9-1.9H3.333v9.333h9.334V5.503ZM8 12.27a1.93 1.93 0 0 0 1.417-.584c.389-.389.583-.86.583-1.416 0-.556-.194-1.028-.583-1.417A1.929 1.929 0 0 0 8 8.27c-.556 0-1.028.194-1.417.583A1.929 1.929 0 0 0 6 10.27c0 .555.194 1.027.583 1.416.39.39.861.584 1.417.584ZM4.667 6.936h4.666a.645.645 0 0 0 .475-.191A.645.645 0 0 0 10 6.27V4.936a.645.645 0 0 0-.192-.475.645.645 0 0 0-.475-.191H4.667a.645.645 0 0 0-.475.191.645.645 0 0 0-.192.475V6.27c0 .189.064.347.192.475a.645.645 0 0 0 .475.191Z"/>
</svg>
