<svg xmlns="http://www.w3.org/2000/svg" width="16" height="16" fill="none" viewBox="0 0 16 16">
  <path fill="#C0CCD9" d="M7.217 14.667c-.3 0-.559-.1-.775-.3a1.225 1.225 0 0 1-.392-.734l-.15-1.1a2.524 2.524 0 0 1-.408-.2 5.503 5.503 0 0 1-.375-.25l-1.034.434a1.085 1.085 0 0 1-.833.033 1.228 1.228 0 0 1-.65-.533l-.783-1.367a1.058 1.058 0 0 1-.134-.817c.067-.289.217-.527.45-.716l.884-.667A1.592 1.592 0 0 1 3 8.225v-.45c0-.072.006-.147.017-.225l-.884-.667a1.265 1.265 0 0 1-.45-.716 1.058 1.058 0 0 1 .134-.817L2.6 3.983c.156-.255.372-.433.65-.533.278-.1.556-.089.833.033l1.034.434a4.13 4.13 0 0 1 .783-.45l.15-1.1a1.22 1.22 0 0 1 .392-.734c.216-.2.475-.3.775-.3h1.566c.3 0 .559.1.775.3.217.2.348.445.392.734l.15 1.1c.144.055.28.122.408.2.128.077.253.16.375.25l1.034-.434c.277-.122.555-.133.833-.033.278.1.494.278.65.533l.783 1.367c.156.256.2.528.134.817a1.265 1.265 0 0 1-.45.716l-.884.667c.011.078.017.153.017.225v.45a.819.819 0 0 1-.033.225l.883.667c.233.189.383.427.45.716.067.29.022.561-.133.817l-.8 1.367a1.229 1.229 0 0 1-.65.533c-.278.1-.556.089-.834-.033l-1-.434c-.122.09-.25.172-.383.25a3.345 3.345 0 0 1-.4.2l-.15 1.1a1.225 1.225 0 0 1-.392.734c-.216.2-.475.3-.775.3H7.217Zm.116-1.334H8.65l.233-1.766a3.79 3.79 0 0 0 1.767-1.017l1.65.683.65-1.133-1.433-1.083c.055-.156.094-.32.116-.492a4.102 4.102 0 0 0 0-1.05 2.355 2.355 0 0 0-.116-.492L12.95 5.9l-.65-1.133-1.65.7a3.704 3.704 0 0 0-.808-.642 3.737 3.737 0 0 0-.959-.392l-.216-1.766H7.35l-.233 1.766A3.79 3.79 0 0 0 5.35 5.45L3.7 4.767 3.05 5.9l1.433 1.067a2.714 2.714 0 0 0-.116.5 4.04 4.04 0 0 0 0 1.05c.022.166.06.333.116.5L3.05 10.1l.65 1.133 1.65-.7a3.7 3.7 0 0 0 .808.642c.295.172.614.303.959.392l.216 1.766Zm.7-3c.645 0 1.195-.228 1.65-.683A2.248 2.248 0 0 0 10.367 8c0-.644-.228-1.194-.684-1.65a2.248 2.248 0 0 0-1.65-.683 2.24 2.24 0 0 0-1.658.683A2.262 2.262 0 0 0 5.7 8c0 .644.225 1.194.675 1.65a2.24 2.24 0 0 0 1.658.683Z"/>
</svg>
