<svg xmlns="http://www.w3.org/2000/svg" width="16" height="16" fill="none" viewBox="0 0 16 16">
  <path fill="#C0CCD9" d="M11.333 14.667a1.929 1.929 0 0 1-1.416-.584 1.929 1.929 0 0 1-.584-1.416c0-.067.017-.223.05-.467L4.7 9.467A1.977 1.977 0 0 1 3.333 10a1.929 1.929 0 0 1-1.416-.583A1.929 1.929 0 0 1 1.333 8c0-.556.195-1.028.584-1.417A1.929 1.929 0 0 1 3.333 6a1.98 1.98 0 0 1 1.367.533L9.383 3.8a1.137 1.137 0 0 1-.041-.225 3.172 3.172 0 0 1-.009-.242c0-.555.195-1.027.584-1.416a1.929 1.929 0 0 1 1.416-.584 1.93 1.93 0 0 1 1.417.584c.389.389.583.86.583 1.416 0 .556-.194 1.028-.583 1.417a1.929 1.929 0 0 1-1.417.583A1.98 1.98 0 0 1 9.967 4.8L5.283 7.533c.023.078.036.153.042.225a3.172 3.172 0 0 1 0 .484c-.006.072-.02.147-.042.225L9.967 11.2a1.977 1.977 0 0 1 1.366-.533c.556 0 1.028.194 1.417.583.389.389.583.861.583 1.417 0 .555-.194 1.027-.583 1.416a1.928 1.928 0 0 1-1.417.584Zm0-1.334a.645.645 0 0 0 .475-.191.645.645 0 0 0 .192-.475.645.645 0 0 0-.192-.475.645.645 0 0 0-.475-.192.645.645 0 0 0-.475.192.645.645 0 0 0-.191.475c0 .189.064.347.191.475a.645.645 0 0 0 .475.191Zm-8-4.666a.645.645 0 0 0 .475-.192A.645.645 0 0 0 4 8a.645.645 0 0 0-.192-.475.645.645 0 0 0-.475-.192.645.645 0 0 0-.475.192.645.645 0 0 0-.191.475c0 .189.064.347.191.475a.645.645 0 0 0 .475.192Zm8-4.667a.645.645 0 0 0 .475-.192.645.645 0 0 0 .192-.475.645.645 0 0 0-.192-.475.645.645 0 0 0-.475-.191.645.645 0 0 0-.475.191.645.645 0 0 0-.191.475c0 .19.064.348.191.475a.645.645 0 0 0 .475.192Z"/>
</svg>
