<svg xmlns="http://www.w3.org/2000/svg" width="16" height="17" fill="none" viewBox="0 0 16 17">
  <path fill="#C0CCD9" d="M11.333 14.936a1.929 1.929 0 0 1-1.416-.583 1.929 1.929 0 0 1-.584-1.417c0-.066.017-.222.05-.466L4.7 9.736a1.976 1.976 0 0 1-1.367.534 1.929 1.929 0 0 1-1.416-.584 1.929 1.929 0 0 1-.584-1.416c0-.556.195-1.028.584-1.417a1.929 1.929 0 0 1 1.416-.583 1.98 1.98 0 0 1 1.367.533L9.383 4.07a1.137 1.137 0 0 1-.041-.225 3.171 3.171 0 0 1-.009-.242c0-.556.195-1.028.584-1.417a1.929 1.929 0 0 1 1.416-.583c.556 0 1.028.194 1.417.583.389.39.583.861.583 1.417s-.194 1.028-.583 1.417a1.929 1.929 0 0 1-1.417.583 1.98 1.98 0 0 1-1.366-.533L5.283 7.803c.023.078.036.153.042.225a3.172 3.172 0 0 1 0 .483c-.006.073-.02.148-.042.225l4.684 2.734a1.977 1.977 0 0 1 1.366-.534 1.93 1.93 0 0 1 1.417.584c.389.389.583.86.583 1.416 0 .556-.194 1.028-.583 1.417a1.929 1.929 0 0 1-1.417.583Zm0-1.333a.645.645 0 0 0 .475-.192.645.645 0 0 0 .192-.475.645.645 0 0 0-.192-.475.645.645 0 0 0-.475-.191.645.645 0 0 0-.475.191.645.645 0 0 0-.191.475c0 .19.064.348.191.475a.645.645 0 0 0 .475.192Zm-8-4.667a.645.645 0 0 0 .475-.191A.645.645 0 0 0 4 8.27a.645.645 0 0 0-.192-.475.645.645 0 0 0-.475-.192.645.645 0 0 0-.475.192.645.645 0 0 0-.191.475c0 .189.064.347.191.475a.645.645 0 0 0 .475.191Zm8-4.666a.645.645 0 0 0 .475-.192.645.645 0 0 0 .192-.475.645.645 0 0 0-.192-.475.645.645 0 0 0-.475-.192.645.645 0 0 0-.475.192.645.645 0 0 0-.191.475c0 .189.064.347.191.475a.645.645 0 0 0 .475.192Z"/>
</svg>
