<svg xmlns="http://www.w3.org/2000/svg" width="16" height="16" fill="none" viewBox="0 0 16 16">
  <path fill="#C0CCD9" d="M8 10.667c.833 0 1.542-.292 2.125-.875A2.893 2.893 0 0 0 11 7.667c0-.834-.292-1.542-.875-2.125A2.893 2.893 0 0 0 8 4.667a2.89 2.89 0 0 0-2.125.875A2.893 2.893 0 0 0 5 7.667c0 .833.292 1.541.875 2.125A2.893 2.893 0 0 0 8 10.667Zm0-1.2c-.5 0-.925-.175-1.275-.525A1.736 1.736 0 0 1 6.2 7.667c0-.5.175-.925.525-1.275.35-.35.775-.525 1.275-.525.5 0 .925.175 1.275.525.35.35.525.775.525 1.275 0 .5-.175.925-.525 1.275-.35.35-.775.525-1.275.525Zm0 3.2c-1.489 0-2.847-.4-4.075-1.2A8.62 8.62 0 0 1 1.017 8.3a1.272 1.272 0 0 1-.125-.958c.028-.106.07-.209.125-.309a8.62 8.62 0 0 1 2.908-3.166A7.309 7.309 0 0 1 8 2.667c1.489 0 2.847.4 4.075 1.2a8.621 8.621 0 0 1 2.908 3.166 1.27 1.27 0 0 1 .125.958 1.33 1.33 0 0 1-.125.309 8.621 8.621 0 0 1-2.908 3.167A7.309 7.309 0 0 1 8 12.667Zm0-1.334c1.256 0 2.408-.33 3.458-.991a6.515 6.515 0 0 0 2.409-2.675 6.515 6.515 0 0 0-2.409-2.675A6.363 6.363 0 0 0 8 4c-1.255 0-2.408.33-3.458.992a6.515 6.515 0 0 0-2.409 2.675 6.515 6.515 0 0 0 2.409 2.675A6.363 6.363 0 0 0 8 11.333Z"/>
</svg>
