<svg xmlns="http://www.w3.org/2000/svg" width="17" height="16" fill="none" viewBox="0 0 17 16">
  <path stroke="#999" stroke-linecap="square" stroke-linejoin="round" stroke-width="1.2" d="M10.311 7.999c0 .622-.267 1.155-.622 1.51a2.082 2.082 0 0 1-1.511.623 2.144 2.144 0 0 1-1.511-.622 1.899 1.899 0 0 1-.711-1.511c0-.623.266-1.156.622-1.511a2.082 2.082 0 0 1 1.51-.623c.623 0 1.156.267 1.512.623.533.444.711.977.711 1.51Z"/>
  <path stroke="#999" stroke-linecap="square" stroke-linejoin="round" stroke-width="1.2" d="M.889 7.999C2.044 5.065 4.8 2.932 8.178 2.932c3.378 0 6.133 2.133 7.289 5.067-1.156 3.022-3.911 5.066-7.29 5.066C4.8 13.155 2.045 11.021.89 8Z"/>
</svg>
