<svg xmlns="http://www.w3.org/2000/svg" width="16" height="16" fill="none" viewBox="0 0 16 16">
  <path fill="#C0CCD9" d="M5.9 11.217 8 9.95l2.1 1.283-.55-2.4 1.85-1.6-2.433-.216L8 4.75 7.033 7 4.6 7.217l1.85 1.616-.55 2.384Zm2.1.3-2.767 1.666a.605.605 0 0 1-.383.1.645.645 0 0 1-.35-.133.8.8 0 0 1-.233-.292.583.583 0 0 1-.034-.391l.734-3.15L2.517 7.2a.639.639 0 0 1-.184-.717.714.714 0 0 1 .2-.3.693.693 0 0 1 .367-.15l3.233-.283 1.25-2.967a.598.598 0 0 1 .259-.3.714.714 0 0 1 .358-.1c.122 0 .242.034.358.1a.598.598 0 0 1 .259.3l1.25 2.967 3.233.283a.693.693 0 0 1 .367.15.715.715 0 0 1 .225.675.639.639 0 0 1-.209.342l-2.45 2.117.734 3.15a.583.583 0 0 1-.034.391.8.8 0 0 1-.233.292.645.645 0 0 1-.35.133.605.605 0 0 1-.383-.1L8 11.517Z"/>
</svg>
