<svg xmlns="http://www.w3.org/2000/svg" width="16" height="16" fill="none" viewBox="0 0 16 16">
  <path fill="#C0CCD9" fill-rule="evenodd" d="M2.43 2.249a.6.6 0 1 0-.86.836l2.744 2.824-1.414.124a.693.693 0 0 0-.367.15.714.714 0 0 0-.225.675.639.639 0 0 0 .209.342l2.45 2.117-.734 3.15a.583.583 0 0 0 .034.391.8.8 0 0 0 .233.292c.1.078.217.122.35.133a.605.605 0 0 0 .383-.1L8 11.517l2.767 1.666c.122.078.25.111.383.1a.66.66 0 0 0 .256-.072l1.497 1.54a.6.6 0 1 0 .86-.836L2.43 2.25Zm6.157 8.06L5.505 7.136l-.905.08 1.85 1.617-.55 2.384L8 9.95l.587.359Z" clip-rule="evenodd"/>
  <path fill="#C0CCD9" d="M11.4 7.233 10.062 8.39l.994 1.022-.023-.095 2.45-2.117a.64.64 0 0 0 .184-.717.715.715 0 0 0-.2-.3.693.693 0 0 0-.367-.15L9.867 5.75l-1.25-2.967a.598.598 0 0 0-.259-.3.714.714 0 0 0-.358-.1.714.714 0 0 0-.358.1.598.598 0 0 0-.259.3L6.546 4.77l1.002 1.032L8 4.75l.967 2.267 2.433.216Z"/>
</svg>
