<svg xmlns="http://www.w3.org/2000/svg" width="16" height="16" fill="none" viewBox="0 0 16 16">
  <path fill="#C0CCD9" d="M2 12.667V3.333c0-.366.13-.68.392-.941.26-.261.575-.392.941-.392h9.334c.366 0 .68.13.941.392.261.26.392.575.392.941v9.334c0 .366-.13.68-.392.941a1.284 1.284 0 0 1-.941.392H3.333c-.366 0-.68-.13-.941-.392A1.284 1.284 0 0 1 2 12.667ZM3.333 6h9.334V3.333H3.333V6Zm3.55 3.333h2.234v-2H6.883v2Zm0 3.334h2.234v-2H6.883v2Zm-3.55-3.334H5.55v-2H3.333v2Zm7.117 0h2.217v-2H10.45v2Zm-7.117 3.334H5.55v-2H3.333v2Zm7.117 0h2.217v-2H10.45v2Z"/>
</svg>
