<svg xmlns="http://www.w3.org/2000/svg" width="16" height="16" fill="none" viewBox="0 0 16 16">
  <path fill="#C0CCD9" d="M6.667 14.667V14H3.333c-.366 0-.68-.13-.941-.392A1.284 1.284 0 0 1 2 12.667V3.333c0-.366.13-.68.392-.941.26-.261.575-.392.941-.392h3.334v-.667c0-.189.064-.347.191-.475a.645.645 0 0 1 .475-.191c.19 0 .348.064.475.191A.645.645 0 0 1 8 1.333v13.334a.645.645 0 0 1-.192.475.645.645 0 0 1-.475.191.645.645 0 0 1-.475-.191.645.645 0 0 1-.191-.475Zm-3.334-2h3.334v-1.334H5.333a.645.645 0 0 1-.475-.191.645.645 0 0 1-.191-.475c0-.19.064-.348.191-.475A.645.645 0 0 1 5.333 10h1.334V8.667H5.333a.645.645 0 0 1-.475-.192A.645.645 0 0 1 4.667 8c0-.189.064-.347.191-.475a.645.645 0 0 1 .475-.192h1.334V6H5.333a.645.645 0 0 1-.475-.192.645.645 0 0 1-.191-.475c0-.189.064-.347.191-.475a.645.645 0 0 1 .475-.191h1.334V3.333H3.333v9.334ZM10 14a.645.645 0 0 1-.475-.192.645.645 0 0 1-.192-.475c0-.189.064-.347.192-.475a.645.645 0 0 1 .475-.191h2.667V3.333H10a.645.645 0 0 1-.475-.191.645.645 0 0 1-.192-.475c0-.19.064-.348.192-.475A.645.645 0 0 1 10 2h2.667c.366 0 .68.13.941.392.261.26.392.575.392.941v9.334c0 .366-.13.68-.392.941a1.284 1.284 0 0 1-.941.392H10Zm0-5.333a.645.645 0 0 1-.475-.192A.645.645 0 0 1 9.333 8c0-.189.064-.347.192-.475A.645.645 0 0 1 10 7.333h.667c.189 0 .347.064.475.192a.645.645 0 0 1 .191.475.645.645 0 0 1-.191.475.645.645 0 0 1-.475.192H10ZM10 6a.645.645 0 0 1-.475-.192.645.645 0 0 1-.192-.475c0-.189.064-.347.192-.475A.645.645 0 0 1 10 4.667h.667c.189 0 .347.064.475.191a.645.645 0 0 1 .191.475.645.645 0 0 1-.191.475.645.645 0 0 1-.475.192H10Z"/>
</svg>
