<svg xmlns="http://www.w3.org/2000/svg" width="16" height="16" fill="none" viewBox="0 0 16 16">
  <path fill="#C0CCD9" d="M2 10.667a1.28 1.28 0 0 1-.933-.4 1.28 1.28 0 0 1-.4-.934V8c0-.078.01-.161.033-.25.022-.089.044-.172.067-.25l2-4.7c.1-.222.266-.411.5-.567C3.5 2.078 3.744 2 4 2h7.333v8.667l-4 3.966a.985.985 0 0 1-.591.292 1.098 1.098 0 0 1-.659-.125 1.053 1.053 0 0 1-.466-.467.852.852 0 0 1-.067-.616l.75-3.05H2Zm8-.567V3.333H4L2 8v1.333h6L7.1 13l2.9-2.9ZM13.333 2c.367 0 .68.13.942.392.261.26.392.575.392.941v6c0 .367-.13.68-.392.942a1.284 1.284 0 0 1-.942.392h-2V9.333h2v-6h-2V2h2Z"/>
</svg>
