<svg xmlns="http://www.w3.org/2000/svg" width="16" height="16" fill="none" viewBox="0 0 16 16">
  <path fill="#C0CCD9" d="M14 5.333c.355 0 .667.134.933.4.267.267.4.578.4.934V8c0 .078-.01.161-.033.25a7.778 7.778 0 0 1-.067.25l-2 4.7c-.1.222-.266.411-.5.567A1.302 1.302 0 0 1 12 14H4.667V5.333l4-3.966a.985.985 0 0 1 .591-.292 1.1 1.1 0 0 1 .659.125c.21.111.366.267.466.467.1.2.123.405.067.616l-.75 3.05H14ZM6 5.9v6.767h6L14 8V6.667H8L8.9 3 6 5.9ZM2.667 14c-.367 0-.68-.13-.942-.392a1.284 1.284 0 0 1-.392-.941v-6c0-.367.13-.68.392-.942.261-.261.575-.392.942-.392h2v1.334h-2v6h2V14h-2Z"/>
</svg>
