<svg xmlns="http://www.w3.org/2000/svg" width="16" height="16" fill="none" viewBox="0 0 16 16">
  <path fill="#C0CCD9" d="M7.033 12.133 10.483 8H7.817L8.3 4.217l-3.083 4.45h2.316l-.5 3.466ZM6 10H3.933a.63.63 0 0 1-.591-.358.617.617 0 0 1 .041-.692l4.984-7.167a.868.868 0 0 1 .433-.325.814.814 0 0 1 .55.009.727.727 0 0 1 .417.35.888.888 0 0 1 .1.533l-.534 4.317h2.584c.289 0 .491.128.608.383.117.256.08.495-.108.717l-5.484 6.566a.847.847 0 0 1-.45.284.754.754 0 0 1-.516-.05.873.873 0 0 1-.392-.359.822.822 0 0 1-.108-.525L6 10Z"/>
</svg>
