<svg xmlns="http://www.w3.org/2000/svg" width="16" height="16" fill="none" viewBox="0 0 16 16">
  <path fill="#C0CCD9" d="M8.667 7.733v-2.4a.645.645 0 0 0-.192-.475A.645.645 0 0 0 8 4.667a.645.645 0 0 0-.475.191.645.645 0 0 0-.192.475v2.65a.69.69 0 0 0 .2.484l2.2 2.2a.632.632 0 0 0 .467.183.632.632 0 0 0 .467-.183.632.632 0 0 0 .183-.467.632.632 0 0 0-.183-.467l-2-2ZM8 14.667a6.492 6.492 0 0 1-2.6-.525 6.732 6.732 0 0 1-2.117-1.425A6.732 6.732 0 0 1 1.858 10.6 6.492 6.492 0 0 1 1.333 8c0-.922.175-1.789.525-2.6a6.732 6.732 0 0 1 1.425-2.117c.6-.6 1.306-1.075 2.117-1.425A6.492 6.492 0 0 1 8 1.333c.922 0 1.789.175 2.6.525.811.35 1.517.825 2.117 1.425.6.6 1.075 1.306 1.425 2.117.35.811.525 1.678.525 2.6 0 .922-.175 1.789-.525 2.6a6.732 6.732 0 0 1-1.425 2.117c-.6.6-1.306 1.075-2.117 1.425a6.491 6.491 0 0 1-2.6.525Zm0-1.334c1.478 0 2.736-.52 3.775-1.558 1.039-1.039 1.558-2.297 1.558-3.775 0-1.478-.52-2.736-1.558-3.775C10.736 3.186 9.478 2.667 8 2.667c-1.478 0-2.736.52-3.775 1.558C3.186 5.264 2.667 6.522 2.667 8c0 1.478.52 2.736 1.558 3.775C5.264 12.814 6.522 13.333 8 13.333Z"/>
</svg>
