<svg xmlns="http://www.w3.org/2000/svg" width="16" height="16" fill="none" viewBox="0 0 16 16">
  <path fill="#C0CCD9" d="M8 14.667a6.492 6.492 0 0 1-2.6-.525 6.732 6.732 0 0 1-2.117-1.425A6.732 6.732 0 0 1 1.858 10.6 6.491 6.491 0 0 1 1.333 8c0-.922.175-1.789.525-2.6a6.732 6.732 0 0 1 1.425-2.117c.6-.6 1.306-1.075 2.117-1.425A6.492 6.492 0 0 1 8 1.333c.922 0 1.789.175 2.6.525.811.35 1.517.825 2.117 1.425.6.6 1.075 1.306 1.425 2.117.35.811.525 1.678.525 2.6 0 .922-.175 1.789-.525 2.6a6.732 6.732 0 0 1-1.425 2.117c-.6.6-1.306 1.075-2.117 1.425a6.491 6.491 0 0 1-2.6.525Zm.667-1.384a5.215 5.215 0 0 0 3.325-1.741c.894-.995 1.341-2.175 1.341-3.542s-.447-2.547-1.341-3.542a5.215 5.215 0 0 0-3.325-1.741v10.566Z"/>
</svg>
