<svg xmlns="http://www.w3.org/2000/svg" width="16" height="16" fill="none" viewBox="0 0 16 16">
  <path fill="#C0CCD9" d="M6 10c-1.111 0-2.056-.389-2.833-1.167C2.389 8.056 2 7.111 2 6c0-.222.017-.444.05-.667.033-.222.094-.433.183-.633a.63.63 0 0 1 .209-.25.807.807 0 0 1 .275-.117.646.646 0 0 1 .6.184l1.75 1.75 1.2-1.2-1.75-1.75a.643.643 0 0 1-.184-.6.807.807 0 0 1 .117-.275.63.63 0 0 1 .25-.209c.2-.089.411-.15.633-.183C5.556 2.017 5.778 2 6 2c1.111 0 2.056.389 2.833 1.167C9.611 3.944 10 4.889 10 6c0 .256-.022.497-.067.725a3.746 3.746 0 0 1-.2.675l3.367 3.333c.322.323.483.717.483 1.184 0 .466-.16.86-.483 1.183a1.61 1.61 0 0 1-1.183.483c-.467 0-.861-.166-1.184-.5L7.4 9.733a3.746 3.746 0 0 1-.675.2C6.497 9.978 6.255 10 6 10Zm0-1.333c.289 0 .578-.045.867-.134.289-.089.55-.227.783-.416l4.05 4.05a.28.28 0 0 0 .225.075.333.333 0 0 0 .225-.092.304.304 0 0 0 .083-.225.304.304 0 0 0-.083-.225L8.1 7.667c.2-.223.344-.48.433-.775A3.07 3.07 0 0 0 8.667 6c0-.667-.214-1.247-.642-1.742a2.579 2.579 0 0 0-1.592-.891L7.667 4.6a.64.64 0 0 1 .2.467.64.64 0 0 1-.2.466L5.533 7.667a.64.64 0 0 1-.466.2.64.64 0 0 1-.467-.2L3.367 6.433c.1.634.397 1.164.891 1.592A2.578 2.578 0 0 0 6 8.667Z"/>
</svg>
