<svg xmlns="http://www.w3.org/2000/svg" width="16" height="16" fill="none" viewBox="0 0 16 16">
  <path fill="#C0CCD9" d="m4.55 8 1.933 1.933a.61.61 0 0 1 .192.467.67.67 0 0 1-.208.467.704.704 0 0 1-.467.191.611.611 0 0 1-.467-.191L2.467 7.8a.64.64 0 0 1-.2-.467.64.64 0 0 1 .2-.466L5.533 3.8a.622.622 0 0 1 .459-.183.68.68 0 0 1 .475.183.65.65 0 0 1 .2.475.649.649 0 0 1-.2.475L4.55 6.667h6.117c.922 0 1.708.325 2.358.975.65.65.975 1.436.975 2.358v2a.645.645 0 0 1-.192.475.645.645 0 0 1-.475.192.645.645 0 0 1-.475-.192.645.645 0 0 1-.191-.475v-2a1.93 1.93 0 0 0-.584-1.417A1.929 1.929 0 0 0 10.667 8H4.55Z"/>
</svg>
