<svg xmlns="http://www.w3.org/2000/svg" width="16" height="16" fill="none" viewBox="0 0 16 16">
  <path fill="#C0CCD9" d="M4 13.333c-.367 0-.68-.13-.942-.391A1.284 1.284 0 0 1 2.667 12v-1.333c0-.19.064-.348.191-.475A.645.645 0 0 1 3.333 10c.19 0 .348.064.475.192a.645.645 0 0 1 .192.475V12h8v-1.333c0-.19.064-.348.192-.475a.645.645 0 0 1 .475-.192c.188 0 .347.064.475.192a.645.645 0 0 1 .191.475V12c0 .367-.13.68-.391.942a1.284 1.284 0 0 1-.942.391H4Zm3.333-8.1-1.25 1.25a.62.62 0 0 1-.475.192A.68.68 0 0 1 4.942 6a.61.61 0 0 1 .191-.467l2.4-2.4a.585.585 0 0 1 .217-.141A.738.738 0 0 1 8 2.95c.089 0 .172.014.25.042.078.027.15.075.217.141l2.4 2.4a.61.61 0 0 1 .191.467.68.68 0 0 1-.667.675.62.62 0 0 1-.474-.192l-1.25-1.25V10a.645.645 0 0 1-.192.475.645.645 0 0 1-.475.192.645.645 0 0 1-.475-.192.645.645 0 0 1-.192-.475V5.233Z"/>
</svg>
