<svg xmlns="http://www.w3.org/2000/svg" width="16" height="16" fill="none" viewBox="0 0 16 16">
  <path fill="#C0CCD9" d="M8 8a2.568 2.568 0 0 1-1.883-.783 2.568 2.568 0 0 1-.784-1.884c0-.733.261-1.36.784-1.883A2.568 2.568 0 0 1 8 2.667c.733 0 1.361.26 1.883.783.523.522.784 1.15.784 1.883 0 .734-.261 1.361-.784 1.884A2.568 2.568 0 0 1 8 8Zm-5.333 4v-.533c0-.378.097-.725.291-1.042a1.95 1.95 0 0 1 .775-.725 9.898 9.898 0 0 1 2.1-.775 9.173 9.173 0 0 1 4.334 0 9.9 9.9 0 0 1 2.1.775c.322.167.58.408.775.725.194.317.291.664.291 1.042V12c0 .367-.13.68-.391.942a1.284 1.284 0 0 1-.942.391H4c-.367 0-.68-.13-.942-.391A1.284 1.284 0 0 1 2.667 12ZM4 12h8v-.533a.65.65 0 0 0-.333-.567 8.69 8.69 0 0 0-1.817-.675 7.734 7.734 0 0 0-3.7 0 8.69 8.69 0 0 0-1.817.675.65.65 0 0 0-.333.567V12Zm4-5.333c.367 0 .68-.13.942-.392.26-.261.391-.575.391-.942 0-.366-.13-.68-.391-.941A1.284 1.284 0 0 0 8 4c-.367 0-.68.13-.942.392a1.284 1.284 0 0 0-.391.941c0 .367.13.68.391.942.261.261.575.392.942.392Z"/>
</svg>
