<svg xmlns="http://www.w3.org/2000/svg" width="16" height="16" fill="none" viewBox="0 0 16 16">
  <path fill="#C0CCD9" d="M12.667 14c-.434 0-.822-.125-1.167-.375a1.94 1.94 0 0 1-.717-.958h-3.45a2.568 2.568 0 0 1-1.883-.784A2.568 2.568 0 0 1 4.667 10c0-.733.26-1.361.783-1.883a2.568 2.568 0 0 1 1.883-.784h1.334c.366 0 .68-.13.941-.391C9.87 6.68 10 6.367 10 6s-.13-.68-.392-.942a1.284 1.284 0 0 0-.941-.391h-3.45a2.06 2.06 0 0 1-.725.958c-.34.25-.725.375-1.159.375a1.929 1.929 0 0 1-1.416-.583A1.929 1.929 0 0 1 1.333 4c0-.556.195-1.028.584-1.417A1.929 1.929 0 0 1 3.333 2c.434 0 .82.125 1.159.375.339.25.58.57.725.958h3.45c.733 0 1.36.261 1.883.784.522.522.783 1.15.783 1.883 0 .733-.26 1.361-.783 1.883a2.568 2.568 0 0 1-1.883.784H7.333c-.366 0-.68.13-.941.391A1.284 1.284 0 0 0 6 10c0 .367.13.68.392.942.26.26.575.391.941.391h3.45a2.06 2.06 0 0 1 .725-.958c.34-.25.725-.375 1.159-.375.555 0 1.027.194 1.416.583.39.39.584.861.584 1.417s-.195 1.028-.584 1.417a1.929 1.929 0 0 1-1.416.583ZM3.333 4.667a.645.645 0 0 0 .475-.192A.645.645 0 0 0 4 4a.645.645 0 0 0-.192-.475.645.645 0 0 0-.475-.192.645.645 0 0 0-.475.192.645.645 0 0 0-.191.475c0 .189.064.347.191.475a.645.645 0 0 0 .475.192Z"/>
</svg>
