<svg xmlns="http://www.w3.org/2000/svg" width="16" height="16" fill="none" viewBox="0 0 16 16">
  <path fill="#C0CCD9" d="M1.817 14a.649.649 0 0 1-.567-.333.732.732 0 0 1-.092-.325A.599.599 0 0 1 1.25 13L7.417 2.333a.656.656 0 0 1 .258-.25A.69.69 0 0 1 8 2a.69.69 0 0 1 .325.083.656.656 0 0 1 .258.25L14.75 13a.599.599 0 0 1 .092.342.733.733 0 0 1-.092.325.649.649 0 0 1-.567.333H1.817Zm1.15-1.333h10.066L8 4l-5.033 8.667ZM8 12a.645.645 0 0 0 .475-.192.645.645 0 0 0 .192-.475.645.645 0 0 0-.192-.475.645.645 0 0 0-.475-.191.645.645 0 0 0-.475.191.645.645 0 0 0-.192.475c0 .19.064.348.192.475A.645.645 0 0 0 8 12Zm0-2a.645.645 0 0 0 .475-.192.645.645 0 0 0 .192-.475v-2a.645.645 0 0 0-.192-.475A.645.645 0 0 0 8 6.667a.645.645 0 0 0-.475.191.645.645 0 0 0-.192.475v2c0 .19.064.348.192.475A.645.645 0 0 0 8 10Z"/>
</svg>
