<svg xmlns="http://www.w3.org/2000/svg" width="16" height="16" fill="none" viewBox="0 0 16 16">
  <path fill="#C0CCD9" d="M4.267 12.667h1.066c.19 0 .348.064.475.191a.645.645 0 0 1 .192.475.645.645 0 0 1-.192.475.645.645 0 0 1-.475.192H2.667a.645.645 0 0 1-.475-.192.645.645 0 0 1-.192-.475v-2.666c0-.19.064-.348.192-.475A.645.645 0 0 1 2.667 10c.189 0 .347.064.475.192a.645.645 0 0 1 .191.475v1.066l1.6-1.6A.632.632 0 0 1 5.4 9.95c.189 0 .344.061.467.183a.632.632 0 0 1 .183.467.632.632 0 0 1-.183.467l-1.6 1.6Zm7.466 0-1.6-1.6a.632.632 0 0 1-.183-.467c0-.189.061-.344.183-.467a.632.632 0 0 1 .467-.183c.189 0 .344.061.467.183l1.6 1.6v-1.066c0-.19.064-.348.191-.475a.645.645 0 0 1 .475-.192c.19 0 .348.064.475.192a.645.645 0 0 1 .192.475v2.666a.645.645 0 0 1-.192.475.645.645 0 0 1-.475.192h-2.666a.645.645 0 0 1-.475-.192.645.645 0 0 1-.192-.475c0-.189.064-.347.192-.475a.645.645 0 0 1 .475-.191h1.066Zm-8.4-8.4v1.066a.645.645 0 0 1-.191.475.645.645 0 0 1-.475.192.645.645 0 0 1-.475-.192A.645.645 0 0 1 2 5.333V2.667c0-.19.064-.348.192-.475A.645.645 0 0 1 2.667 2h2.666c.19 0 .348.064.475.192A.645.645 0 0 1 6 2.667a.645.645 0 0 1-.192.475.645.645 0 0 1-.475.191H4.267l1.6 1.6a.632.632 0 0 1 .183.467.632.632 0 0 1-.183.467.632.632 0 0 1-.467.183.632.632 0 0 1-.467-.183l-1.6-1.6Zm9.334 0-1.6 1.6a.632.632 0 0 1-.467.183.632.632 0 0 1-.467-.183.632.632 0 0 1-.183-.467c0-.189.061-.344.183-.467l1.6-1.6h-1.066a.645.645 0 0 1-.475-.191.645.645 0 0 1-.192-.475c0-.19.064-.348.192-.475A.645.645 0 0 1 10.667 2h2.666c.19 0 .348.064.475.192a.645.645 0 0 1 .192.475v2.666a.645.645 0 0 1-.192.475.645.645 0 0 1-.475.192.645.645 0 0 1-.475-.192.645.645 0 0 1-.191-.475V4.267Z"/>
</svg>
