<svg xmlns="http://www.w3.org/2000/svg" data-scheme="multicolor" viewBox="0 0 16 16"><defs><path id="icon-def" fill="var(--08)" d="M15 16.09H.79a.86.86 0 0 1-.85-.86V1A.86.86 0 0 1 .79.16H15a.86.86 0 0 1 .85.86v14.21a.86.86 0 0 1-.85.86m-14.07-1h13.93V1.16H.94zM9.53 12a6.2 6.2 0 0 1-1.27.75 3.6 3.6 0 0 1-1.46.31 3 3 0 0 1-3.08-3 3.2 3.2 0 0 1 1.86-2.83A3.3 3.3 0 0 1 5 6.34a2.1 2.1 0 0 1-.24-1 2.2 2.2 0 0 1 .6-1.56A2 2 0 0 1 7 3.17a2.06 2.06 0 0 1 1.59.65 2.3 2.3 0 0 1 .6 1.56 2.41 2.41 0 0 1-1.66 2.18l2.08 2.51a5.3 5.3 0 0 0 .85-1.63l1.25.49a7.4 7.4 0 0 1-.53 1.1 5.5 5.5 0 0 1-.75 1l1.65 2h-1.65zM6.36 8.17c-1 .55-1.42 1.19-1.41 1.9a1.68 1.68 0 0 0 .55 1.26 1.7 1.7 0 0 0 1.26.52 3 3 0 0 0 2-.86zM6 5.33a1 1 0 0 0 .22.61c.13.24.3.456.5.64A2.6 2.6 0 0 0 7.68 6a1 1 0 0 0 .25-.67.94.94 0 0 0-.26-.67A1 1 0 0 0 7 4.4a.87.87 0 0 0-.67.26.85.85 0 0 0-.33.67"/></defs><view id="enabled" viewBox="0 0 16 16"/><use href="#icon-def" style="--08:#f7941d"/><view id="hover" viewBox="16 0 16 16"/><use x="16" href="#icon-def" style="--08:#fab454"/><view id="active" viewBox="32 0 16 16"/><use x="32" href="#icon-def" style="--08:#f3891b"/><view id="disabled" viewBox="48 0 16 16"/><use x="48" href="#icon-def" style="--08:#a4a5a6"/></svg>