<svg xmlns="http://www.w3.org/2000/svg" width="16" height="16" fill="none" viewBox="0 0 16 16">
  <g class="android">
    <g class="android">
      <path fill="#81888E" fill-rule="evenodd" d="m6.29 15.42-.18-.08a.93.93 0 0 1-.54-.92v-1.77c0-.25 0-.25-.25-.25h-1c-.31 0-.41-.11-.41-.41v-6.1c0-.32.1-.41.42-.41h7.29c.31 0 .41.09.41.41V12c0 .32-.1.42-.42.42h-1c-.2 0-.21 0-.21.2v1.69c0 .68-.13.88-.75 1.13h-.32a1 1 0 0 1-.69-1v-1.79c0-.14 0-.18-.17-.17h-.9c-.14 0-.18 0-.18.18v1.74a1 1 0 0 1-.72 1.09h-.38v-.07Zm4.09-14.16c.08-.15.16-.29.23-.44a.15.15 0 0 0-.06-.22c-.09 0-.16 0-.21.07l-.07.11c-.16.3-.33.6-.49.91a.15.15 0 0 1-.21.07 4 4 0 0 0-3.16 0c-.11 0-.16 0-.21-.09L5.68.72C5.62.63 5.56.54 5.43.6s-.11.14 0 .27c.17.31.34.6.5.9.16.3.1.18-.07.29A4.09 4.09 0 0 0 4 4.62a.33.33 0 0 0 .33.38h7.37a.3.3 0 0 0 .3-.35 4 4 0 0 0-1.38-2.25c-.19-.16-.4-.3-.62-.46.13-.23.25-.46.38-.68Zm-.19 2.08a.34.34 0 1 1-.68 0 .34.34 0 0 1 .68 0Zm-4.06.34a.34.34 0 0 1-.33-.34.32.32 0 0 1 .33-.34.34.34 0 0 1 0 .68ZM1.77 10a.89.89 0 1 0 1.78-.07v-3.5a1 1 0 0 0-.31-.73.86.86 0 0 0-.94-.16.85.85 0 0 0-.54.81v1.82c0 .61 0 1.23.01 1.83Zm12.46-3.64a.89.89 0 0 0-1.78.07v3.51a.901.901 0 0 0 .32.73.84.84 0 0 0 .94.14.85.85 0 0 0 .53-.8V8.19c0-.6 0-1.19-.01-1.83Z" class="icons09" clip-rule="evenodd"/>
    </g>
  </g>
</svg>
