<svg xmlns="http://www.w3.org/2000/svg" width="16" height="16" fill="none" viewBox="0 0 16 16">
  <g class="apple">
    <g class="apple">
      <path fill="#81888E" fill-rule="evenodd" d="M13.83 5.52a3.3 3.3 0 0 0 .44 5.93 9.308 9.308 0 0 1-2.42 3.48 1.74 1.74 0 0 1-2 .23 3.51 3.51 0 0 0-3.26 0A2 2 0 0 1 4 14.48 9.13 9.13 0 0 1 1.75 10 5.68 5.68 0 0 1 2 6.37a3.81 3.81 0 0 1 3.06-2.3A3.62 3.62 0 0 1 7 4.41a2.91 2.91 0 0 0 2.43 0 3.89 3.89 0 0 1 .68-.23 3.58 3.58 0 0 1 3.72 1.34Zm-6-1.42A3.15 3.15 0 0 0 10.71.63C9.1.6 7.27 2.78 7.78 4.1h.05Z" class="icons09" clip-rule="evenodd"/>
    </g>
  </g>
</svg>
