<svg xmlns="http://www.w3.org/2000/svg" width="16" height="16" fill="none" viewBox="0 0 16 16">
  <g class="csharp">
    <g class="csharp">
      <path fill="#8973CA" d="M14.41 3.82 8.66.47a1.13 1.13 0 0 0-1.14 0L1.74 3.75a1.19 1.19 0 0 0-.58 1v6.65a1.15 1.15 0 0 0 .57 1l5.74 3.35a1.13 1.13 0 0 0 1.14 0l5.78-3.3a1.12 1.12 0 0 0 .58-1V4.8a1.14 1.14 0 0 0-.56-.98Zm-6.22 9a4.73 4.73 0 1 1 4-7.28l-1.96 1.3a2.41 2.41 0 1 0 .13 2.29l2.08 1a4.73 4.73 0 0 1-4.25 2.7v-.01Zm4.45-5.39h-.3l-.1.49h.4v.38h-.48L12 9h-.37l.12-.65h-.37l-.1.65h-.38l.1-.7h-.22v-.37h.3l.1-.49h-.4v-.37h.47l.14-.66h.37l-.13.66H12l.13-.66h.39l-.14.66h.23l.03.36Zm-1.06 0H12l-.09.49h-.37l.04-.49Z" class="icons02"/>
    </g>
  </g>
</svg>
