<svg xmlns="http://www.w3.org/2000/svg" width="16" height="16" fill="none" viewBox="0 0 16 16">
  <g class="datastore">
    <g class="datastore-category">
      <path fill="#00746B" d="M3.5 4V3h-1v1h1Zm11-2a1 1 0 0 0-1-1h-12a1 1 0 0 0-1 1v3a1 1 0 0 0 .16.52A1 1 0 0 0 .5 6v3a1 1 0 0 0 .15.5.92.92 0 0 0-.15.5v3a1 1 0 0 0 1 1h7v-1h-7v-3h7V9h-7V6h6V5h-6V2h12v3h-1v1h1v1h1V6a1 1 0 0 0-.16-.52A1 1 0 0 0 14.5 5V2Zm-11 10v-1h-1v1h1Zm0-4V7h-1v1h1Z" class="icons03"/>
      <path fill="#F26522" d="M15.5 11V8h-3v1h-2V8h1V5h-3v3h1v6h3v1h3v-3h-3v1h-2v-3h2v1h3Zm-6-5h1v1h-1V6Z" class="icons07"/>
    </g>
  </g>
</svg>
