<svg xmlns="http://www.w3.org/2000/svg" width="16" height="16" fill="none" viewBox="0 0 16 16">
  <g class="environment-select" clip-path="url(#a)">
    <g class="environment-select">
      <path fill="#F7941D" d="M10.21 8.56 15 11.35a.4.4 0 0 1 0 .65l-4.83 2.79a.4.4 0 0 1-.59-.35V8.91a.4.4 0 0 1 .63-.35Z" class="icons08"/>
      <path fill="#39B54A" d="M10.48 5.09a.76.76 0 1 1 1.52 0 .76.76 0 0 1-1.52 0ZM8.62 13l-.24.43a.28.28 0 0 1-.37.11l-.74-.4a3.43 3.43 0 0 1-.88.72l.23.81a.26.26 0 0 1-.18.33l-.91.27a.28.28 0 0 1-.34-.18L5 14.32a3.328 3.328 0 0 1-1.14-.13l-.4.74a.28.28 0 0 1-.37.11l-.84-.45a.28.28 0 0 1-.11-.37l.41-.74a3.16 3.16 0 0 1-.73-.89l-.8.24a.268.268 0 0 1-.29-.086.27.27 0 0 1-.05-.094l-.27-.91a.28.28 0 0 1 .18-.34l.81-.24A3.27 3.27 0 0 1 1.48 10l-.74-.38a.27.27 0 0 1-.11-.36l.45-.84a.28.28 0 0 1 .37-.11l.74.4A3.47 3.47 0 0 1 3.08 8l-.24-.8A.27.27 0 0 1 3 6.85l.91-.27a.27.27 0 0 1 .34.18l.24.81a3.36 3.36 0 0 1 1.14.12L6.05 7a.27.27 0 0 1 .37-.11l.83.45a.28.28 0 0 1 .11.37L7 8.4c.288.255.531.556.72.89l.81-.24a.3.3 0 0 1 .13 0v1.51l-.51.15A3.36 3.36 0 0 1 8 11.86l.64.34-.02.8Zm-1.69-2.71a2.29 2.29 0 1 0-1.55 2.85 2.31 2.31 0 0 0 1.55-2.85Zm-2.41-.07A.76.76 0 0 0 5 11.66a.75.75 0 1 0-.43-1.44h-.05Zm2.3-4.65v-1a.28.28 0 0 1 .27-.27h.84a3.33 3.33 0 0 1 .45-1.06l-.6-.59a.27.27 0 0 1 0-.39l.67-.67a.28.28 0 0 1 .38 0l.6.6a3.1 3.1 0 0 1 1.06-.44V1a.27.27 0 0 1 .27-.27h1A.27.27 0 0 1 12 1v.8a3 3 0 0 1 1 .44l.6-.6a.28.28 0 0 1 .38 0l.67.67a.27.27 0 0 1 0 .39l-.59.59c.203.327.352.685.44 1.06h.84a.27.27 0 0 1 .27.27v1a.27.27 0 0 1-.27.27h-.84a3.55 3.55 0 0 1-.44 1.06l.59.59a.27.27 0 0 1 0 .39l-.65.62a.28.28 0 0 1-.38 0L13 8a3.25 3.25 0 0 1-1 .44l-1.29-.74a1.32 1.32 0 0 0-.7-.19 1.4 1.4 0 0 0-1.37 1.12.27.27 0 0 1-.19-.08l-.67-.67a.27.27 0 0 1 0-.39l.59-.59a3.55 3.55 0 0 1-.44-1.06h-.84a.28.28 0 0 1-.27-.27Zm2.12-.48a2.29 2.29 0 1 0 2.29-2.29 2.3 2.3 0 0 0-2.29 2.29Z" class="icons06"/>
    </g>
  </g>
</svg>