<svg xmlns="http://www.w3.org/2000/svg" width="16" height="16" fill="none" viewBox="0 0 16 16">
  <g class="generator" clip-path="url(#a)">
    <g class="generator">
      <path fill="#00A99D" d="M14.92 8v7h-6V8h6Zm0-1h-6a1 1 0 0 0-1 1v7a1 1 0 0 0 1 1h6a1 1 0 0 0 1-1V8a1 1 0 0 0-1-1Zm-1 4h-4v1h4v-1Zm0-2h-4v1h4V9Zm0 4h-4v1h4v-1Zm-9 2H1.17a.6.6 0 0 1-.09-.34V4.92h4.14a2 2 0 0 1 1.7-1h8c.353 0 .699.097 1 .28V1.3c0-.74-.45-1.34-1-1.34H1.07c-.54 0-1 .6-1 1.34v13.36c0 .74.45 1.34 1 1.34h4.15a2 2 0 0 1-.3-1ZM2.06 1.89H11v1H2.06v-1Z" class="icons04"/>
      <path fill="#F26522" d="M16 6v2a1 1 0 0 0-1-1V6H7v9h1a1 1 0 0 0 1 1H7a1 1 0 0 1-1-1V6a1 1 0 0 1 1-1h8a1 1 0 0 1 1 1Z" class="icons07"/>
    </g>
  </g>
</svg>