<svg xmlns="http://www.w3.org/2000/svg" width="16" height="16" fill="none" viewBox="0 0 16 16">
  <g class="informix" clip-path="url(#a)">
    <g class="informix">
      <path fill="#F26522" fill-rule="evenodd" d="M8.94 9.9a.77.77 0 1 0-.77-.77.76.76 0 0 0 .76.76l.01.01Zm0 2L8 14.57c-.057.132-.1.27-.13.41 0 .19.06.21.19.15.36-.15.79-.79 1-1l.17.09c-.38.7-1.11 1.77-2 1.77a.631.631 0 0 1-.66-.64c.006-.31.07-.615.19-.9l1-2.47.15-.43c0-.17-.09-.19-.22-.12-.36.15-.78.78-1 1l-.17-.09c.41-.7 1.13-1.77 2-1.77a.58.58 0 0 1 .64.47c.035.329-.02.66-.16.96l-.06-.1Z" class="icons07" clip-rule="evenodd"/>
      <path fill="#0266A0" d="M3 10v1H2v-1h1ZM2 6v1h1V6H2Zm0-4v1h1V2H2Zm7.17 13.83H12l1.11-1.58 1.09 1.58h1.62l-1.94-2.58 1.79-2.56H14l-.94 1.47-1-1.47H9.28l2.49.43-2.07.15 2.43.38-2.06.17 2.45.36-2.09.22 2.45.32-2.09.28 2.45.3-2.47.28 2.09.25-2.47.35 2.06.19-2.45.33 2.07.19-2.45.39 2.07.14-2.52.41ZM5.55 13H1a1 1 0 0 1-1-1V9a1 1 0 0 1 .15-.5A1 1 0 0 1 0 8V5a1 1 0 0 1 .16-.51A1 1 0 0 1 0 4V1a1 1 0 0 1 1-1h12a1 1 0 0 1 1 1v3a1 1 0 0 1-.16.52A1 1 0 0 1 14 5v3a1 1 0 0 1-.15.5A1 1 0 0 1 14 9v.69h-1V9h-2.29a1.78 1.78 0 0 0-.4-1H13V5H1v3h6.59a1.79 1.79 0 0 0-.41 1H1v3h4.48l-.43.75.5.25ZM1 4h12V1H1v3Z" class="icons01"/>
    </g>
  </g>
</svg>