<svg xmlns="http://www.w3.org/2000/svg" width="16" height="16" fill="none" viewBox="0 0 16 16">
  <g class="knowledge-base" clip-path="url(#a)">
    <g class="knowledge-base">
      <path fill="#00A99D" d="m8 3.23-3-1.4L8 .47a.42.42 0 0 1 .27 0l2.86 1.34L8 3.23Zm-1.09.51-3-1.41L.72 3.77l3 1.4 3.19-1.43Zm5.39 1.48 3-1.4a.07.07 0 0 0-.05-.06l-3.06-1.45-3.1 1.43 3.21 1.48ZM9.57 6.49l1.63-.76L8 4.25 4.8 5.73 8 7.2h.08l1.49-.71Z" class="icons04"/>
      <path fill="#39B54A" d="m4.55 6.76 3 1.48v3.1l-3-1.48v-3.1Zm-.91-.46L.54 4.77v3.09l3.1 1.54V6.3Zm.91 7.77 3 1.48v-3.1l-3-1.45v3.07Zm-.91-3.56L.54 9v3.1l3.1 1.53v-3.12Z" class="icons05"/>
      <path fill="#F7941D" d="m8.46 8.25 3-1.48v3.11l-3 1.47v-3.1Zm3.88 1.17 3.12-1.55v-3.1l-3.12 1.55v3.1Zm-3.88 6.13 3-1.47V11l-3 1.47v3.08Zm3.88-1.92 3.12-1.55V9l-3.12 1.55v3.08Z" class="icons08"/>
    </g>
  </g>
</svg>