<svg xmlns="http://www.w3.org/2000/svg" width="16" height="16" fill="none" viewBox="0 0 16 16">
  <g class="mysql" clip-path="url(#a)">
    <g class="mysql">
      <g class="icons04">
        <path fill="#00A99D" d="M7.56 6.91a.68.68 0 0 0 0 .14v.14l-.47.07-.76-1.06.45.12h.25a.71.71 0 0 1 .4.17.75.75 0 0 1 .13.42ZM2.12 10v1h1v-1h-1Zm0-4v1h1V6h-1Zm0-4v1h1V2h-1ZM5 12H1.09V9H5a.36.36 0 0 0 0-.09A5.06 5.06 0 0 1 4.43 8H1.09V5h2.12a.34.34 0 0 0 0-.1 2 2 0 0 1 .5-.9H1.09V1h12v3h-6a3 3 0 0 0 .86.3c.65.1 1.27.34 1.82.7h3.32v3h-.65l.25.41L13 9h.05v.08c.121.223.228.453.32.69v.07l.05.13c.124.375.333.718.61 1V9a1 1 0 0 0-.15-.5 1 1 0 0 0 .15-.5V5a1.06 1.06 0 0 0-.16-.52 1 1 0 0 0 .22-.48V1a1 1 0 0 0-1-1h-12a1 1 0 0 0-1 1v3a1 1 0 0 0 .16.51A1.06 1.06 0 0 0 .09 5v3a1 1 0 0 0 .15.5 1 1 0 0 0-.15.5v3a1 1 0 0 0 1 1h4.26A3.93 3.93 0 0 1 5 12Zm9.1 3.2c.374.25.761.48 1.16.69l.21.11H16v-.36l-1.35-1.18 1.35-.28v-.5a3.9 3.9 0 0 0-1.85-1.53 2.68 2.68 0 0 1-1.59-1.77 1.81 1.81 0 0 1-.08-.21 3.617 3.617 0 0 0-.28-.6c-.13-.21-.25-.42-.37-.63-.347-.63-.749-1.23-1.2-1.79a4.89 4.89 0 0 0-2.84-1.86 5 5 0 0 1-1.62-.63 7.75 7.75 0 0 0-.71-.34h-.54a1.15 1.15 0 0 0-.67.78 1.08 1.08 0 0 0 .27.9c.295.382.522.811.67 1.27.139.39.323.763.55 1.11a2.25 2.25 0 0 1 .26 1.8c0 .22-.07.46-.08.69A2.83 2.83 0 0 0 6.56 13a.91.91 0 0 0 .77.3c.23-.07.38-.35.5-.61a1.72 1.72 0 0 0 .07-.21l.78 1 .45-.21-1.24-2.48-.4-.1L7 12.33a.41.41 0 0 1-.08-.14c0-.14-.06-.28-.09-.42a2.45 2.45 0 0 1-.1-1.15 3.24 3.24 0 0 0-.34-2.7A7.62 7.62 0 0 1 5.94 7a5.4 5.4 0 0 0-.83-1.5.62.62 0 0 1 0-.26.88.88 0 0 1 .22 0A7.87 7.87 0 0 0 7 5.92c.28.08.55.17.82.27a6.16 6.16 0 0 1 3.45 3.44l.16.36.79 1.77c.191.395.528.7.94.85.5.244.984.518 1.45.82l.27.16L13 14l.19.23c.12.14.22.27.31.39.17.222.372.418.6.58Z" class="Vector"/>
      </g>
    </g>
  </g>
</svg>