<svg xmlns="http://www.w3.org/2000/svg" width="16" height="16" fill="none" viewBox="0 0 16 16">
  <g class="oracle" clip-path="url(#a)">
    <g class="oracle">
      <path fill="#ED145B" d="M6.07 12.94v-.4l.06-.38a3.12 3.12 0 0 1 3.09-2.55h3.63a3.13 3.13 0 1 1-.01 6.26h-3.6a3.08 3.08 0 0 1-3.07-2.38c-.04-.19-.07-.37-.1-.55Zm5 1.84h2.02a2.042 2.042 0 1 0-.35-4.07h-3.4a1.99 1.99 0 0 0-.34 0 2.035 2.035 0 0 0 .29 4.06l1.78.01ZM2 10v1h1v-1H2Zm0-4v1h1V6H2Zm0-4v1h1V2H2Zm3.07 10.94v-.92H1V9h6.44a4 4 0 0 1 1.76-.39h3.66c.255-.002.51.021.76.07.108.024.215.054.32.09a.801.801 0 0 0-.11-.25A1 1 0 0 0 14 8V5a1 1 0 0 0-.16-.52A.91.91 0 0 0 14 4V1a1 1 0 0 0-1-1H1a1 1 0 0 0-1 1v3a.92.92 0 0 0 .17.51A1 1 0 0 0 0 5v3a1 1 0 0 0 .16.5A1 1 0 0 0 0 9v3a1 1 0 0 0 1 1h4.07v-.06ZM1 1h12v3H1V1Zm0 4h12v3H1V5Z" class="icons06"/>
    </g>
  </g>
</svg>