<svg xmlns="http://www.w3.org/2000/svg" width="16" height="16" fill="none" viewBox="0 0 16 16">
  <g class="postgre-sql" clip-path="url(#a)">
    <g class="postgre-sql">
      <path fill="#0266A0" d="M3 10v1H2v-1h1ZM2 6v1h1V6H2Zm0-4v1h1V2H2Zm10.29 14h.18a1.65 1.65 0 0 0 1.39-1.45c.07-.42.1-.85.16-1.29.77-.05 1.55-.12 2-.92v-.31a.63.63 0 0 0-.75-.28l-.49.07.08-.17a9.26 9.26 0 0 0 1.09-3.06c.17-1.16-.28-1.79-1.43-2.28a4.93 4.93 0 0 0-.88-.31H13a4.51 4.51 0 0 1-1.42.13 2.23 2.23 0 0 0-1.31.23.46.46 0 0 1-.26 0 4.91 4.91 0 0 0-1.79-.2 2 2 0 0 0-1.83 1.91v.68c.15.74.28 1.47.46 2.2a5.85 5.85 0 0 0 .8 1.87 1 1 0 0 0 1.48.38 1.7 1.7 0 0 0 1.67.22c0 .41.05.81.11 1.2.1.61.31 1.16 1 1.33l.38.05Zm-2.63-2.81a.46.46 0 0 1-.21-.1.5.5 0 0 1-.17-.28c0-.08.11-.18.19-.22.14-.063.288-.107.44-.13a.649.649 0 0 0 .46-.35 4.74 4.74 0 0 0-.46-.11.26.26 0 0 0-.18.09c-.22.24-.43.49-.64.73-.39.44-.81.45-1.15 0a6 6 0 0 1-.6-1.15 10.28 10.28 0 0 1-.7-2.84 3.54 3.54 0 0 1 .09-1.08 1.67 1.67 0 0 1 1.68-1.37 4.57 4.57 0 0 1 1.6.24.39.39 0 0 0 .35 0 2.29 2.29 0 0 1 1.5-.21c.155.03.315.03.47 0a3.27 3.27 0 0 1 2.49.28c.13.08.25.18.37.27a1.35 1.35 0 0 1 .49 1.2 7.83 7.83 0 0 1-.87 2.84c-.15.3-.32.58-.49.89.282.095.588.095.87 0h.11c.14 0 .35-.07.39.11a.56.56 0 0 1-.16.39 1.82 1.82 0 0 1-1.29.45h-.44c0 .3-.07.61-.12.93a6.755 6.755 0 0 1-.18 1 1.38 1.38 0 0 1-1.76.83 1.21 1.21 0 0 1-.67-1.12c0-.51-.05-1-.07-1.55a1.46 1.46 0 0 1-1.34.26Zm1.68-.57v1.91a.82.82 0 0 0 .51.81 1.001 1.001 0 0 0 1.34-.72c.12-.66.2-1.32.27-2 0-.32 0-.65.38-.78-.25-.45-.5-.88-.71-1.32a6.25 6.25 0 0 1-.35-1 .72.72 0 0 1 .58-.9 5 5 0 0 1 .64-.09v-.1a2.79 2.79 0 0 0-2.4-1.77 1.64 1.64 0 0 0-1.38.46 2.69 2.69 0 0 0-.67 1.69c.22-.07.41-.14.62-.19a.75.75 0 0 1 1 .51 3 3 0 0 1-.17 2.11c-.09.18-.15.37-.23.56.45.2.56.32.57.82Zm-2.25-2.07c0-.37.05-.74 0-1.11a3.73 3.73 0 0 1 .73-2.5 3.69 3.69 0 0 0-1.58-.2 1.28 1.28 0 0 0-1.21 1A3.46 3.46 0 0 0 7 8.8c.102.91.32 1.805.65 2.66.126.44.344.85.64 1.2a.34.34 0 0 0 .55 0c.27-.29.52-.59.78-.89a1.63 1.63 0 0 1-.53-1.22Zm6.28-2.33a1.17 1.17 0 0 0-.46-1.15 2.84 2.84 0 0 0-2.26-.45 3.38 3.38 0 0 1 1.58 1.7c.103.253.137.53.1.8-.02.376-.02.754 0 1.13a2.3 2.3 0 0 1-.15 1.27 8 8 0 0 0 1.19-3.3Zm-4.59 1.07a.39.39 0 0 0-.48-.36 3.31 3.31 0 0 0-.68.2c-.13 0-.16.13-.16.27v1.19a1.12 1.12 0 0 0 .75 1.15c.16 0 .27 0 .31-.16.045-.143.098-.284.16-.42l.28-.93c-.1-.38-.13-.66-.18-.94Zm-.1-.06c-.09.06-.19.18-.26.16-.07-.02-.19-.14-.28-.21l.25-.18.29.23Zm3-.35c-.43 0-.6.23-.52.67.157.591.418 1.15.77 1.65.18-.76-.14-1.54.14-2.32h-.39Zm.13.2a.82.82 0 0 1-.28.19c-.06 0-.14-.1-.22-.15l.31-.22.19.18ZM11 12.55a.25.25 0 0 0-.07-.35c-.12-.1-.2 0-.26.09a1.15 1.15 0 0 1-.8.5l-.15.05a1.06 1.06 0 0 0 1.28-.29Zm3.72-.28a5.22 5.22 0 0 1-.54-.12.211.211 0 0 0-.254.096.21.21 0 0 0-.026.094c0 .06.06.18.1.18a1.698 1.698 0 0 0 1.3-.29c-.205.036-.413.05-.62.04h.04ZM6.79 13H1a1 1 0 0 1-1-1V9a1 1 0 0 1 .15-.5A1 1 0 0 1 0 8V5a1 1 0 0 1 .16-.51A1 1 0 0 1 0 4V1a1 1 0 0 1 1-1h12a1 1 0 0 1 1 1v3a1 1 0 0 1-.16.52A1 1 0 0 1 14 5v.36h-1V5H1v3h4.75v1H1v3h5.36c.113.345.257.68.43 1ZM1 4h12V1H1v3Z" class="icons01"/>
    </g>
  </g>
</svg>