<svg xmlns="http://www.w3.org/2000/svg" width="16" height="16" fill="none" viewBox="0 0 16 16">
  <g class="qr-code">
    <g class="Developer-Menu-V5">
      <g class="Native-Apps">
        <g class="Group-8">
          <g class="QR-Code-Icon">
            <path fill="#FEFEFE" d="M.573 5.778h5.584V0H.573v5.778Zm1.396-4.334H4.76v2.89H1.97v-2.89ZM.573 13h5.584V7.222H.573V13Zm1.396-4.333H4.76v2.889H1.97v-2.89ZM7.554 0v5.778h5.584V0H7.554Zm4.188 4.333H8.95V1.444h2.792v2.89Zm-4.181 2.89h1.396v1.444H7.56V7.222Zm1.396 1.444h1.396v1.444H8.957V8.667ZM7.56 10.11h1.396v1.445H7.56V10.11Zm2.792 0h1.396v1.445h-1.396V10.11Zm1.396 1.445h1.396V13H11.75v-1.444Zm-2.792 0h1.396V13H8.957v-1.444Zm1.396-4.334h1.396v1.445h-1.396V7.222Zm1.396 1.445h1.396v1.444H11.75V8.667Z" class="Shape"/>
          </g>
        </g>
      </g>
    </g>
  </g>
</svg>
