<svg xmlns="http://www.w3.org/2000/svg" width="16" height="16" fill="none" viewBox="0 0 16 16">
  <g class="qr-code">
    <g class="Developer-Menu-V5">
      <g class="Native-Apps">
        <g class="Group-8">
          <g class="QR-Code-Icon">
            <path fill="#999" d="M2 7.778h5.585V2H2v5.778Zm1.396-4.334H6.19v2.89H3.396v-2.89ZM2 15h5.585V9.222H2V15Zm1.396-4.333H6.19v2.889H3.396v-2.89ZM8.981 2v5.778h5.585V2H8.98Zm4.188 4.333h-2.792V3.444h2.792v2.89Zm-4.181 2.89h1.396v1.444H8.988V9.222Zm1.396 1.444h1.396v1.444h-1.396v-1.444ZM8.988 12.11h1.396v1.445H8.988V12.11Zm2.792 0h1.396v1.445H11.78V12.11Zm1.396 1.445h1.397V15h-1.397v-1.444Zm-2.792 0h1.396V15h-1.396v-1.444Zm1.396-4.334h1.396v1.445H11.78V9.222Zm1.396 1.445h1.397v1.444h-1.397v-1.444Z" class="icons09"/>
          </g>
        </g>
      </g>
    </g>
  </g>
</svg>