<svg xmlns="http://www.w3.org/2000/svg" width="16" height="16" fill="none" viewBox="0 0 16 16">
  <g class="references" clip-path="url(#a)">
    <g class="references">
      <path fill="#00A99D" d="m15.78 4.44-1.15-1.85a.33.33 0 0 0-.27-.15H8.7a.39.39 0 0 0-.34.19L7.28 4.35a.83.83 0 0 0-.28.59v5H5.79V8.35a.89.89 0 0 0-.22-.56l-.65-1a.38.38 0 0 0-.32-.18H1.21a.43.43 0 0 0-.35.2l-.64 1a.89.89 0 0 0-.22.54v4.08a.85.85 0 0 0 .85.85h4.09a.85.85 0 0 0 .85-.85v-1.54H7v1.68a.85.85 0 0 0 .85.85h7.22a.85.85 0 0 0 .85-.85V4.94a.8.8 0 0 0-.14-.5Zm-11 7.84H1V8.5h3.79l-.01 3.78Zm6.21.14H8V9.25h3l-.01 3.17Zm0-4.17H8V5.08h3l-.01 3.17Zm4 4.17H12V9.25h3l-.01 3.17Zm0-4.17H12V5.08h3l-.01 3.17Z" class="icons04"/>
    </g>
  </g>
</svg>