<svg xmlns="http://www.w3.org/2000/svg" width="16" height="16" fill="none" viewBox="0 0 16 16">
  <g class="sd-web" clip-path="url(#a)">
    <path fill="#00746B" d="M15.23 9.3h-.12l-.68.06-.2.31h-.14l-.54-.49-.08-.26-.1-.27-.37-.3-.4-.08v.18l.39.39.19.22-.18.12h-.18L12.55 9v-.2l-.35-.14-.11.5-.35.08v.28l.46.09.07-.45.38.06.17.1h.28l.2.38.5.52v.2l-.41-.06-.71.36-.51.61-.07.27h-.18l-.34-.15-.33.15.08.35.14-.16h.26v.31l.21.06.21.24.34-.1.39.06.46.13h.22l.39.44.74.44-.48.91-.51.24-.19.52-.73.49-.08.28a4.25 4.25 0 0 0 2.53-6.51Zm-3.05 4.61-.31-.58.28-.59-.28-.09-.32-.32-.71-.16-.24-.49V12h-.1l-.61-.83v-.68l-.45-.73-.71.13h-.48L8 9.7l.31-.24-.31.07a4.22 4.22 0 0 0-.59 2.15A4.27 4.27 0 0 0 11.69 16c.176.01.353.01.53 0v-.52s.2-.77.2-.79l-.24-.78ZM9 8.79l.75-.11.35-.19.4.11h.63l.21-.34h.31l.77-.07.22-.19.29-.2.42.06h.16a4.29 4.29 0 0 0-1.82-.41A4.23 4.23 0 0 0 8.4 9l.6-.21Zm2.86-1 .43-.24.28.17-.4.3h-.39L11.62 8l.24-.21Zm-1.29 0 .19.08H11l.14.24-.58.15-.26-.16s.27-.18.28-.23l-.01-.08Zm-3 7.07h-.93V14h.29a5.29 5.29 0 0 1-.36-1h-4.9V3h9v3.5a4.62 4.62 0 0 1 1-.1V1a1 1 0 0 0-1-1h-9a1 1 0 0 0-1 1v13.94a1 1 0 0 0 1 1h6.91a4.791 4.791 0 0 1-1.02-1l.01-.08ZM1.67 1h9v1h-9V1Zm4 13.91h-4V14h4v.91Z" class="icons03"/>
  </g>
</svg>