<svg xmlns="http://www.w3.org/2000/svg" width="16" height="16" fill="none" viewBox="0 0 16 16">
  <g class="sql-server" clip-path="url(#a)">
    <g class="sql-server">
      <path fill="#8973CA" d="M3 10v1H2v-1h1ZM2 6v1h1V6H2Zm0-4v1h1V2H2Zm14 8.3v5.36a.38.38 0 0 1-.38.38H3.86a.38.38 0 0 1-.37-.38v-5.37a.38.38 0 0 1 .37-.38h11.76a.38.38 0 0 1 .38.38v.01Zm-8.55 3.75a1.39 1.39 0 0 0-.34-.93 1.51 1.51 0 0 0-1-.5l-.56-.08a.91.91 0 0 1-.55-.25.53.53 0 0 1-.17-.38.67.67 0 0 1 .25-.54.94.94 0 0 1 .59-.18c.437.01.863.142 1.23.38l.4-.57a2.79 2.79 0 0 0-1.62-.51 1.65 1.65 0 0 0-1.19.4 1.37 1.37 0 0 0-.43 1.05c-.01.34.112.669.34.92a1.6 1.6 0 0 0 1 .48l.66.09c.44.08.65.3.65.67 0 .37-.34.69-1 .7a2.19 2.19 0 0 1-1.41-.5l-.5.57a2.86 2.86 0 0 0 1.91.68c1.13-.06 1.71-.55 1.74-1.5Zm4.66 1-.66-.52a1.23 1.23 0 0 0 .15-.48v-1.08a9.717 9.717 0 0 0 0-1.16 1.18 1.18 0 0 0-.18-.48 1.74 1.74 0 0 0-1.56-.89 1.62 1.62 0 0 0-1 .28 1.76 1.76 0 0 0-.58.61 1.57 1.57 0 0 0-.17.48 9.002 9.002 0 0 0 0 1.16 8.998 8.998 0 0 0 0 1.15c.014.092.037.183.07.27l.1.22c.139.246.338.453.58.6a1.82 1.82 0 0 0 2.14-.14l.63.5.48-.52Zm3.59-.3h-2.43v-4.27h-.76v5h3.19v-.73Zm-5.08-3.2a.84.84 0 0 0-.3-.25 1 1 0 0 0-1.24.25.82.82 0 0 0-.19.42 5.35 5.35 0 0 0-.06 1c-.012.335.008.67.06 1a.75.75 0 0 0 .19.42.84.84 0 0 0 .31.25.88.88 0 0 0 .46.12.82.82 0 0 0 .56-.18l-.64-.5.45-.52.58.46c.06-.33.083-.665.07-1 .03-.333.03-.667 0-1a.83.83 0 0 0-.25-.47ZM2.49 13H1a1 1 0 0 1-1-1V9a1 1 0 0 1 .15-.5A1 1 0 0 1 0 8V5a1 1 0 0 1 .16-.51A1 1 0 0 1 0 4V1a1 1 0 0 1 1-1h12a1 1 0 0 1 1 1v3a.92.92 0 0 1-.17.52c.1.14.16.307.17.48v3a1 1 0 0 1-.15.5c.09.152.142.324.15.5H1v3h1.49v1ZM1 4h12V1H1v3Zm0 4h12V5H1v3Z" class="icons02"/>
    </g>
  </g>
</svg>