<svg xmlns="http://www.w3.org/2000/svg" width="16" height="16" fill="none" viewBox="0 0 16 16">
  <g class="swift" clip-path="url(#a)">
    <g class="swift">
      <path fill="#F26522" d="M8 15.94H4.16a7.677 7.677 0 0 1-1.51-.16 3.27 3.27 0 0 1-2.56-2.96C0 12.27 0 11.71 0 11.16V4.45a7.35 7.35 0 0 1 .17-1.81A3.26 3.26 0 0 1 2.15.3 4.71 4.71 0 0 1 4 0h8a4.55 4.55 0 0 1 2 .36 3.2 3.2 0 0 1 1.7 1.73A4.64 4.64 0 0 1 16 4v7.94a4.542 4.542 0 0 1-.34 2 3.251 3.251 0 0 1-2.53 1.95 9.875 9.875 0 0 1-1.44.11H8v-.06ZM1.63 9.19v.06a8.35 8.35 0 0 0 3.22 2.91c.852.46 1.787.745 2.75.84a5.55 5.55 0 0 0 2.73-.44c.36-.18.73-.337 1.11-.47a1.621 1.621 0 0 1 1.29.11c.306.172.556.43.72.74l.11.11s.08-.08.09-.13c.014-.12.014-.24 0-.36A4.08 4.08 0 0 0 12.8 10a.32.32 0 0 1-.05-.31c.171-.635.209-1.3.11-1.95a6.9 6.9 0 0 0-1-2.78 8.53 8.53 0 0 0-2.25-2.38c-.18-.13-.36-.24-.54-.35A6.27 6.27 0 0 1 10.14 8a38.099 38.099 0 0 1-5.92-4.77c.5.73 1 1.44 1.56 2.13s1.11 1.35 1.69 2.05a49.68 49.68 0 0 1-4.7-3.53A31.59 31.59 0 0 0 8.42 10l-.08.05a5 5 0 0 1-3 .58 7.25 7.25 0 0 1-3.27-1.16l-.44-.28Z" class="icons07"/>
    </g>
  </g>
</svg>