<svg viewBox="0 0 16 16" xmlns="http://www.w3.org/2000/svg" data-scheme="monochrome"><defs><g id="icon-def"><path stroke="var(--color)" stroke-linecap="round" stroke-linejoin="round" stroke-width="1.2" d="M8 6.35c3.927 0 7.111-1.024 7.111-2.287 0-1.262-3.184-2.285-7.111-2.285C4.073 1.778.889 2.8.889 4.063.889 5.326 4.073 6.35 8 6.35Z" fill="transparent"/><path stroke="var(--color)" stroke-linejoin="round" stroke-width="1.2" d="M15.111 4.063v7.874c0 1.27-3.132 2.285-7.111 2.285-3.979 0-7.111-1.016-7.111-2.285V4.063" fill="transparent"/><path stroke="var(--color)" stroke-linejoin="round" stroke-width="1.2" d="M15.111 7.958v.169c0 1.27-3.132 2.286-7.111 2.286-3.979 0-7.111-1.016-7.111-2.286v-.085" fill="transparent"/></g></defs><view id="primary-active" viewBox="0 0 16 16"/><use href="#icon-def" x="0" y="0" style="--color:#335884"/><view id="primary-disabled" viewBox="16 0 16 16"/><use href="#icon-def" x="16" y="0" style="--color:#333333"/><view id="on-primary" viewBox="32 0 16 16"/><use href="#icon-def" x="32" y="0" style="--color:#1A1A1A"/><view id="on-primary-hover" viewBox="48 0 16 16"/><use href="#icon-def" x="48" y="0" style="--color:#437DC0"/><view id="on-primary-active" viewBox="64 0 16 16"/><use href="#icon-def" x="64" y="0" style="--color:#FFFFFF"/><view id="on-disabled" viewBox="80 0 16 16"/><use href="#icon-def" x="80" y="0" style="--color:#666666"/><view id="neutral" viewBox="96 0 16 16"/><use href="#icon-def" x="96" y="0" style="--color:#B3B3B3"/></svg>