<svg xmlns="http://www.w3.org/2000/svg" viewBox="0 0 46 47"><defs><g id="a" fill-rule="evenodd" clip-rule="evenodd"><path fill="var(--c)" d="M3.5 11A4.5 4.5 0 0 1 8 6.5h9.846a4.5 4.5 0 0 1 4.5 4.5v9.846a4.5 4.5 0 0 1-4.5 4.5H8a4.5 4.5 0 0 1-4.5-4.5zm5 .5v8.846h8.846V11.5z"/><path fill="var(--b)" d="M17.538 32.27a2.115 2.115 0 1 0 0 4.23 2.115 2.115 0 0 0 0-4.23m-7.115 2.114a7.115 7.115 0 1 1 14.23 0 7.115 7.115 0 0 1-14.23 0"/><path fill="var(--a)" d="M33.692 20.154a4.423 4.423 0 1 0 0 8.846 4.423 4.423 0 0 0 0-8.846m-9.423 4.423a9.423 9.423 0 0 1 9.423-9.423 9.423 9.423 0 1 1-9.423 9.423"/></g></defs><view id="enabled" viewBox="$x-enabled$ 0 46 47"/><use x="$x-enabled$" href="#a" style="--a:#0266a0;--b:#605cab;--c:#00746b;--d:#00a99d;--e:#39b54a;--f:#ed145b;--g:#f26522;--h:#f7941d;--i:#616164"/><view id="hover" viewBox="$x-hover$ 0 46 47"/><use x="$x-hover$" href="#a" style="--a:#2088c2;--b:#9e9ecc;--c:#009187;--d:#7ccdc7;--e:#79cc81;--f:#f4608d;--g:#f59065;--h:#fab454;--i:#828385"/><view id="active" viewBox="$x-active$ 0 46 47"/><use x="$x-active$" href="#a" style="--a:#004a81;--b:#484099;--c:#02645b;--d:#00998c;--e:#2fa640;--f:#dc105a;--g:#e75e1e;--h:#f3891b;--i:#3e3f42"/><view id="disabled" viewBox="$x-disabled$ 0 46 47"/><use x="$x-disabled$" href="#a" style="--a:#a4a5a6;--b:#a4a5a6;--c:#a4a5a6;--d:#a4a5a6;--e:#a4a5a6;--f:#a4a5a6;--g:#a4a5a6;--h:#a4a5a6;--i:#a4a5a6"/></svg>