<svg xmlns="http://www.w3.org/2000/svg" viewBox="0 0 46 47"><defs><path id="a" fill="var(--icon-color)" fill-rule="evenodd" d="M3.5 11A4.5 4.5 0 0 1 8 6.5h9.846a4.5 4.5 0 0 1 4.5 4.5v9.846a4.5 4.5 0 0 1-4.5 4.5H8a4.5 4.5 0 0 1-4.5-4.5zm5 .5v8.846h8.846V11.5zm9.038 20.77a2.115 2.115 0 1 0 0 4.23 2.115 2.115 0 0 0 0-4.23m-7.115 2.114a7.115 7.115 0 1 1 14.23 0 7.115 7.115 0 0 1-14.23 0m23.269-14.23a4.423 4.423 0 1 0 0 8.846 4.423 4.423 0 0 0 0-8.846m-9.423 4.423a9.423 9.423 0 0 1 9.423-9.423 9.423 9.423 0 1 1-9.423 9.423" clip-rule="evenodd"/></defs><view id="on-surface" viewBox="0 0 46 47"/><use data-state="on-surface" href="#a" style="--icon-color:green"/><view id="on-primary" viewBox="46 0 46 47"/><use x="46" data-state="on-primary" href="#a" style="--icon-color:blue"/><view id="on-primary--active" viewBox="92 0 46 47"/><use x="92" data-state="on-primary--active" href="#a" style="--icon-color:purple"/></svg>