<svg xmlns="http://www.w3.org/2000/svg" width="16" height="16" fill="none" viewBox="0 0 16 16">
  <g class="private">
    <g class="private">
      <path fill="#0266A0" d="M10.9 7.17h-.05v-.84a3 3 0 0 0-6 0v.84a.38.38 0 0 0-.38.38V12a.38.38 0 0 0 .38.38h6.05a.38.38 0 0 0 .38-.38V7.55a.38.38 0 0 0-.38-.38ZM8.36 9.63v1.2a.17.17 0 0 1-.17.16h-.64a.16.16 0 0 1-.16-.16v-1.2a.56.56 0 0 1-.12-.34.6.6 0 1 1 1.2 0 .55.55 0 0 1-.11.34Zm1.49-2.46h-4v-.84a2 2 0 1 1 4 0v.84Z" class="icons01"/>
    </g>
  </g>
</svg>
