<svg xmlns="http://www.w3.org/2000/svg" width="16" height="16" viewBox="0 0 16 16">
    <path class="mer-04" fill="#CCC" d="M5.79,14.25h4.68V16H5.79Zm7-4.21-.49.22a4,4,0,0,0-2.28,3H9a4.73,4.73,0,0,1,2.4-3.63L8.69,4.48V7.84a1.3,1.3,0,1,1-1,0V4.26L4.82,9.6a4.75,4.75,0,0,1,2.39,3.63h-1a4,4,0,0,0-2.28-3L3.45,10,7.71,2.1l.42.23.42-.23ZM8.48,9a.3.3,0,1,0-.29.29A.29.29,0,0,0,8.48,9Z"/>
    <path class="mer-09" fill="#CCC" d="M8.76.05H7.59A1.32,1.32,0,0,0,6.33,1,5.76,5.76,0,0,0,2.17,2,4.31,4.31,0,0,0,.75,5.4h1A3.29,3.29,0,0,1,2.81,2.76,4.81,4.81,0,0,1,6.26,2v.54a1.45,1.45,0,0,0,.06.3l.94-1.48a.33.33,0,0,1,.33-.33H8.76a.33.33,0,0,1,.33.33L10,3.06a1.21,1.21,0,0,0,.1-.5V1.38A1.33,1.33,0,0,0,8.76.05Z"/>
</svg>