<svg xmlns="http://www.w3.org/2000/svg" width="16" height="16" viewBox="0 0 16 16">
    <g>
        <path class="mer-05" fill="#CCC" d="M12.88,12.83H6V5.93h6.9Z"/>
        <path class="mer-03" fill="#CCC" d="M14.89,12.91V3.2A1.63,1.63,0,0,0,16,1.67a1.62,1.62,0,0,0-3.16-.52H3.12a1.62,1.62,0,1,0-2,2.06v9.7A1.62,1.62,0,1,0,3.14,15h9.72a1.62,1.62,0,1,0,2-2.05Zm-2,1.05H3.15A1.63,1.63,0,0,0,2.09,12.9V3.21a1.66,1.66,0,0,0,1-1.06h9.7a1.63,1.63,0,0,0,1.06,1.06v9.7A1.63,1.63,0,0,0,12.85,14ZM14.37,1.05a.62.62,0,1,1-.62.62A.63.63,0,0,1,14.37,1.05Zm-12.78,0A.62.62,0,1,1,1,1.67.62.62,0,0,1,1.59,1.05Zm0,14a.63.63,0,1,1,.62-.63A.63.63,0,0,1,1.61,15.07Zm12.78,0a.63.63,0,1,1,.63-.63A.63.63,0,0,1,14.39,15.07ZM5,10H3.07V3.11H10V4.93H5V10Z"/>
    </g>
</svg>