<svg xmlns="http://www.w3.org/2000/svg" width="16" height="16" viewBox="0 0 16 16">
    <g>
        <path class="icons07" fill="#CCC" d="M12.53,3.39A5.27,5.27,0,0,0,3.28,3L8.12,7.81Z"/>
        <path class="icons07" fill="#CCC" d="M12.53,3.39A5.27,5.27,0,0,0,3.28,3L8.12,7.81Z"/>
        <path class="icons08" fill="#CCC" d="M8.12,7.81,3.28,3a5.24,5.24,0,0,0,2.19,7.49Z"/>
        <path class="icons07" fill="#CCC" d="M3.67,12.18a5.27,5.27,0,0,0,9.25.42L8.08,7.76Z"/>
        <path class="icons04" fill="#CCC" d="M3.67,12.18a5.27,5.27,0,0,0,9.25.42L8.08,7.76Z"/>
        <path class="icons01" fill="#CCC" d="M8.08,7.76l4.84,4.84a5.24,5.24,0,0,0-2.19-7.49Z"/>
    </g>
</svg>