<svg xmlns="http://www.w3.org/2000/svg" width="16" height="16" viewBox="0 0 16 16">
    <g>
        <path class="mer-02" fill="#CCC" d="M8,9A1,1,0,0,0,7,8H1A1,1,0,0,0,0,9v1H0v5a1,1,0,0,0,1,1H7a1,1,0,0,0,1-1V10H8ZM7,15H1V10H7Z"/>
        <path class="mer-05" fill="#CCC" d="M16,9a1,1,0,0,0-1-1H9A1,1,0,0,0,8,9v1H8v5a1,1,0,0,0,1,1h6a1,1,0,0,0,1-1V10h0Zm-1,6H9V10h6Z"/>
        <path class="mer-07" fill="#CCC" d="M12,1a1,1,0,0,0-1-1H5A1,1,0,0,0,4,1V2H4V7A1,1,0,0,0,5,8h6a1,1,0,0,0,1-1V2h0ZM11,7H5V2h6Z"/>
    </g>
</svg>