<svg xmlns="http://www.w3.org/2000/svg" width="16" height="17" fill="none" viewBox="0 0 16 17">
  <path fill="#999" d="M7.911 12.622c-.444 0-.8-.178-1.067-.444A1.472 1.472 0 0 1 6.4 11.11c0-.889.711-1.511 1.511-1.511.445 0 .8.178 1.067.444.266.267.444.712.444 1.067 0 .356-.089.8-.355 1.067-.356.355-.711.444-1.156.444Z"/>
  <path stroke="#999" stroke-linecap="square" stroke-linejoin="round" stroke-width="1.2" d="M13.244 6.489H2.667v8.978h10.577V6.489Zm-8.444 0V4C4.8 2.311 6.222.889 7.911.889 9.6.889 11.022 2.31 11.022 4v2.489"/>
</svg>
