<svg xmlns="http://www.w3.org/2000/svg" width="16" height="16" fill="none" viewBox="0 0 16 16">
  <path stroke="#999" stroke-linecap="square" stroke-linejoin="round" stroke-width="1.2" d="M11.467 2.667h2.666a.81.81 0 0 1 .623.266.807.807 0 0 1 .266.623v9.688c0 .445-.178.89-.533 1.245-.356.355-.8.533-1.245.533m0 0c-.444 0-.888-.178-1.244-.533a1.755 1.755 0 0 1-.533-1.245V1.778a.807.807 0 0 0-.267-.622.807.807 0 0 0-.622-.267h-8.8a.807.807 0 0 0-.622.267.807.807 0 0 0-.267.622v10.578c0 .71.267 1.333.8 1.866.533.534 1.155.8 1.867.8h9.688Zm-8.8-10.578H8M4.444 7.911H8m-3.556 3.556H8"/>
</svg>
