<svg xmlns="http://www.w3.org/2000/svg" width="18" height="18" fill="none" viewBox="0 0 18 18">
  <path stroke="#999" stroke-linecap="round" stroke-linejoin="round" stroke-width="1.2" d="M8.1 1H1v7.1h7.1V1Zm0 8.9H1V17h7.1V9.9ZM17 1H9.9v7.1H17V1Z"/>
  <path fill="#999" d="M11.7 9.9H9.9v1.8h1.8V9.9Z"/>
  <path fill="#999" d="M13.5 11.7h-1.8v1.8h1.8v-1.8Zm-1.8 1.8H9.9v1.8h1.8v-1.8Zm3.6 0h-1.8v1.8h1.8v-1.8Zm1.8 1.8h-1.8v1.8h1.8v-1.8Zm-3.6 0h-1.8v1.8h1.8v-1.8Zm1.8-5.4h-1.8v1.8h1.8V9.9Zm1.8 1.8h-1.8v1.8h1.8v-1.8Z"/>
</svg>
