<svg viewBox="0 0 32 32" xmlns="http://www.w3.org/2000/svg" data-scheme="monochrome"><defs><g id="icon-def"><path fill="var(--color)" d="M16 31.26a15.5 15.5 0 1 1 15.5-15.5A15.52 15.52 0 0 1 16 31.26Zm0-30a14.5 14.5 0 1 0 14.5 14.5A14.52 14.52 0 0 0 16 1.26Zm0 27a12.5 12.5 0 1 1 12.5-12.5A12.52 12.52 0 0 1 16 28.26Zm0-24a11.5 11.5 0 1 0 11.5 11.5A11.51 11.51 0 0 0 16 4.26Zm4.7 18.47h-9.4a.5.5 0 0 1-.48-.35l-2.9-8.94a.49.49 0 0 1 .18-.56l7.61-5.53a.51.51 0 0 1 .58 0l7.61 5.53a.49.49 0 0 1 .18.56l-2.9 8.94a.5.5 0 0 1-.51.35h.03Zm-9-1h8.68L23 13.48l-7-5.1-7 5.1 2.7 8.25Z"/></g></defs><view id="neutral--enabled" viewBox="0 288 32 32"/><use href="#icon-def" x="0" y="288" style="--color:#616161"/><view id="neutral--hover" viewBox="32 288 32 32"/><use href="#icon-def" x="32" y="288" style="--color:#437DC0"/><view id="neutral--active" viewBox="64 288 32 32"/><use href="#icon-def" x="64" y="288" style="--color:#363636"/><view id="neutral--disabled" viewBox="96 288 32 32"/><use href="#icon-def" x="96" y="288" style="--color:#666666"/></svg>