<svg viewBox="0 0 17 16" xmlns="http://www.w3.org/2000/svg" data-scheme="monochrome"><defs><g id="icon-def"><path fill="var(--color)" d="M1.848 4.727H.777L2.409 0h1.288l1.63 4.727H4.254L3.071 1.08h-.037L1.848 4.727ZM1.78 2.87h2.53v.78H1.78v-.78ZM.781 16v-.593l2.36-3.31H.776v-.824h3.619v.593l-2.361 3.31H4.4V16H.78Z"/><path stroke="var(--color)" stroke-width="1.2" d="m6.327.865 10.449.193m-10.449 4.5 10.449.192m-10.449 4.5 10.449.192m-10.449 4.5 10.449.193" fill="transparent"/></g></defs><view id="on-surface-enabled" viewBox="0 0 17 16"/><use href="#icon-def" x="0" y="0" style="--color:#999999"/><view id="on-primary-enabled" viewBox="0 16 17 16"/><use href="#icon-def" x="0" y="16" style="--color:#1A1A1A"/><view id="on-primary-hover" viewBox="17 16 17 16"/><use href="#icon-def" x="17" y="16" style="--color:#1A1A1A"/><view id="on-primary-active" viewBox="34 16 17 16"/><use href="#icon-def" x="34" y="16" style="--color:#FFFFFF"/><view id="on-primary-disabled" viewBox="51 16 17 16"/><use href="#icon-def" x="51" y="16" style="--color:#7F7F7F"/><view id="on-disabled-enabled" viewBox="0 32 17 16"/><use href="#icon-def" x="0" y="32" style="--color:#7F7F7F"/><view id="on-message-enabled" viewBox="0 48 17 16"/><use href="#icon-def" x="0" y="48" style="--color:#333333"/><view id="on-elevation-enabled" viewBox="0 64 17 16"/><use href="#icon-def" x="0" y="64" style="--color:#CCCCCC"/><view id="primary-enabled" viewBox="0 80 17 16"/><use href="#icon-def" x="0" y="80" style="--color:#5BA7FF"/><view id="primary-hover" viewBox="17 80 17 16"/><use href="#icon-def" x="17" y="80" style="--color:#437DC0"/><view id="primary-active" viewBox="34 80 17 16"/><use href="#icon-def" x="34" y="80" style="--color:#335884"/><view id="primary-disabled" viewBox="51 80 17 16"/><use href="#icon-def" x="51" y="80" style="--color:#4D4D4D"/><view id="neutral-enabled" viewBox="0 144 17 16"/><use href="#icon-def" x="0" y="144" style="--color:#B3B3B3"/><view id="neutral-hover" viewBox="17 144 17 16"/><use href="#icon-def" x="17" y="144" style="--color:#437DC0"/><view id="neutral-active" viewBox="34 144 17 16"/><use href="#icon-def" x="34" y="144" style="--color:#FFFFFF"/><view id="neutral-disabled" viewBox="51 144 17 16"/><use href="#icon-def" x="51" y="144" style="--color:#7F7F7F"/><view id="highlighted-enabled" viewBox="0 160 17 16"/><use href="#icon-def" x="0" y="160" style="--color:#CCCCCC"/><view id="bright-enabled" viewBox="0 176 17 16"/><use href="#icon-def" x="0" y="176" style="--color:#FFFFFF"/></svg>