<svg viewBox="0 0 17 16" xmlns="http://www.w3.org/2000/svg" data-scheme="monochrome"><defs><g id="icon-def"><path fill="var(--color)" d="M1.848 4.727H.777L2.409 0h1.288l1.63 4.727H4.254L3.071 1.08h-.037L1.848 4.727ZM1.78 2.87h2.53v.78H1.78v-.78ZM.781 16v-.593l2.36-3.31H.776v-.824h3.619v.593l-2.361 3.31H4.4V16H.78Z"/><path stroke="var(--color)" stroke-width="1.2" d="m6.327.865 10.449.193m-10.449 4.5 10.449.192m-10.449 4.5 10.449.192m-10.449 4.5 10.449.193" fill="transparent"/></g></defs><view id="on-surface-enabled" viewBox="0 0 17 16"/><use href="#icon-def" x="0" y="0" style="--color:#696969"/><view id="on-surface-hover" viewBox="17 0 17 16"/><use href="#icon-def" x="17" y="0" style="--color:null"/><view id="on-surface-active" viewBox="34 0 17 16"/><use href="#icon-def" x="34" y="0" style="--color:null"/><view id="on-surface-disabled" viewBox="51 0 17 16"/><use href="#icon-def" x="51" y="0" style="--color:null"/><view id="on-primary-enabled" viewBox="0 16 17 16"/><use href="#icon-def" x="0" y="16" style="--color:#CCCCCC"/><view id="on-primary-hover" viewBox="17 16 17 16"/><use href="#icon-def" x="17" y="16" style="--color:#616161"/><view id="on-primary-active" viewBox="34 16 17 16"/><use href="#icon-def" x="34" y="16" style="--color:#363636"/><view id="on-primary-disabled" viewBox="51 16 17 16"/><use href="#icon-def" x="51" y="16" style="--color:#666666"/><view id="on-disabled-enabled" viewBox="0 32 17 16"/><use href="#icon-def" x="0" y="32" style="--color:#666666"/><view id="on-disabled-hover" viewBox="17 32 17 16"/><use href="#icon-def" x="17" y="32" style="--color:null"/><view id="on-disabled-active" viewBox="34 32 17 16"/><use href="#icon-def" x="34" y="32" style="--color:null"/><view id="on-disabled-disabled" viewBox="51 32 17 16"/><use href="#icon-def" x="51" y="32" style="--color:null"/><view id="on-message-enabled" viewBox="0 48 17 16"/><use href="#icon-def" x="0" y="48" style="--color:#B3B3B3"/><view id="on-message-hover" viewBox="17 48 17 16"/><use href="#icon-def" x="17" y="48" style="--color:null"/><view id="on-message-active" viewBox="34 48 17 16"/><use href="#icon-def" x="34" y="48" style="--color:null"/><view id="on-message-disabled" viewBox="51 48 17 16"/><use href="#icon-def" x="51" y="48" style="--color:null"/><view id="on-elevation-enabled" viewBox="0 64 17 16"/><use href="#icon-def" x="0" y="64" style="--color:#525151"/><view id="on-elevation-hover" viewBox="17 64 17 16"/><use href="#icon-def" x="17" y="64" style="--color:null"/><view id="on-elevation-active" viewBox="34 64 17 16"/><use href="#icon-def" x="34" y="64" style="--color:null"/><view id="on-elevation-disabled" viewBox="51 64 17 16"/><use href="#icon-def" x="51" y="64" style="--color:null"/><view id="primary-enabled" viewBox="0 80 17 16"/><use href="#icon-def" x="0" y="80" style="--color:#2070CE"/><view id="primary-hover" viewBox="17 80 17 16"/><use href="#icon-def" x="17" y="80" style="--color:#437DC0"/><view id="primary-active" viewBox="34 80 17 16"/><use href="#icon-def" x="34" y="80" style="--color:#335884"/><view id="primary-disabled" viewBox="51 80 17 16"/><use href="#icon-def" x="51" y="80" style="--color:#999999"/><view id="neutral-enabled" viewBox="0 144 17 16"/><use href="#icon-def" x="0" y="144" style="--color:#616161"/><view id="neutral-hover" viewBox="17 144 17 16"/><use href="#icon-def" x="17" y="144" style="--color:null"/><view id="neutral-active" viewBox="34 144 17 16"/><use href="#icon-def" x="34" y="144" style="--color:null"/><view id="neutral-disabled" viewBox="51 144 17 16"/><use href="#icon-def" x="51" y="144" style="--color:null"/><view id="highlighted-enabled" viewBox="0 160 17 16"/><use href="#icon-def" x="0" y="160" style="--color:#525151"/><view id="highlighted-hover" viewBox="17 160 17 16"/><use href="#icon-def" x="17" y="160" style="--color:null"/><view id="highlighted-active" viewBox="34 160 17 16"/><use href="#icon-def" x="34" y="160" style="--color:null"/><view id="highlighted-disabled" viewBox="51 160 17 16"/><use href="#icon-def" x="51" y="160" style="--color:null"/><view id="bright-enabled" viewBox="0 176 17 16"/><use href="#icon-def" x="0" y="176" style="--color:#363636"/><view id="bright-hover" viewBox="17 176 17 16"/><use href="#icon-def" x="17" y="176" style="--color:null"/><view id="bright-active" viewBox="34 176 17 16"/><use href="#icon-def" x="34" y="176" style="--color:null"/><view id="bright-disabled" viewBox="51 176 17 16"/><use href="#icon-def" x="51" y="176" style="--color:null"/></svg>