<svg viewBox="0 0 16 17" xmlns="http://www.w3.org/2000/svg" data-scheme="monochrome"><defs><g id="icon-def"><path stroke="var(--color)" stroke-linecap="round" stroke-linejoin="round" stroke-width="1.2" d="M11.86 8.12c0 3.73-2.558 6.754-3.871 6.754-1.314 0-3.87-3.024-3.87-6.754 0-3.73 1.732-6.754 3.87-6.754s3.87 3.024 3.87 6.754Z" fill="transparent"/><path stroke="var(--color)" stroke-linejoin="round" stroke-miterlimit="10" stroke-width="1.2" d="m4.262 5.966 7.597.067m-.099-.199c1.03.079 3.078.258 3.238 3.43m-3.562.532c1.03.079 3.079.259 3.239 3.43m-4.444-.183c.99.043 2.959.15 3.048 3.26M4.344 5.834c-1.03.079-3.08.258-3.24 3.43m3.563.532c-1.03.079-3.079.259-3.239 3.43m4.368-.206c-.996.048-2.975.165-3.074 3.282" fill="transparent"/></g></defs><view id="on-surface-enabled" viewBox="0 0 16 17"/><use href="#icon-def" x="0" y="0" style="--color:#696969"/><view id="on-surface-hover" viewBox="16 0 16 17"/><use href="#icon-def" x="16" y="0" style="--color:null"/><view id="on-surface-active" viewBox="32 0 16 17"/><use href="#icon-def" x="32" y="0" style="--color:null"/><view id="on-surface-disabled" viewBox="48 0 16 17"/><use href="#icon-def" x="48" y="0" style="--color:null"/><view id="on-primary-enabled" viewBox="0 17 16 17"/><use href="#icon-def" x="0" y="17" style="--color:#CCCCCC"/><view id="on-primary-hover" viewBox="16 17 16 17"/><use href="#icon-def" x="16" y="17" style="--color:#616161"/><view id="on-primary-active" viewBox="32 17 16 17"/><use href="#icon-def" x="32" y="17" style="--color:#363636"/><view id="on-primary-disabled" viewBox="48 17 16 17"/><use href="#icon-def" x="48" y="17" style="--color:#666666"/><view id="on-disabled-enabled" viewBox="0 34 16 17"/><use href="#icon-def" x="0" y="34" style="--color:#666666"/><view id="on-disabled-hover" viewBox="16 34 16 17"/><use href="#icon-def" x="16" y="34" style="--color:null"/><view id="on-disabled-active" viewBox="32 34 16 17"/><use href="#icon-def" x="32" y="34" style="--color:null"/><view id="on-disabled-disabled" viewBox="48 34 16 17"/><use href="#icon-def" x="48" y="34" style="--color:null"/><view id="on-message-enabled" viewBox="0 51 16 17"/><use href="#icon-def" x="0" y="51" style="--color:#B3B3B3"/><view id="on-message-hover" viewBox="16 51 16 17"/><use href="#icon-def" x="16" y="51" style="--color:null"/><view id="on-message-active" viewBox="32 51 16 17"/><use href="#icon-def" x="32" y="51" style="--color:null"/><view id="on-message-disabled" viewBox="48 51 16 17"/><use href="#icon-def" x="48" y="51" style="--color:null"/><view id="on-elevation-enabled" viewBox="0 68 16 17"/><use href="#icon-def" x="0" y="68" style="--color:#525151"/><view id="on-elevation-hover" viewBox="16 68 16 17"/><use href="#icon-def" x="16" y="68" style="--color:null"/><view id="on-elevation-active" viewBox="32 68 16 17"/><use href="#icon-def" x="32" y="68" style="--color:null"/><view id="on-elevation-disabled" viewBox="48 68 16 17"/><use href="#icon-def" x="48" y="68" style="--color:null"/><view id="primary-enabled" viewBox="0 85 16 17"/><use href="#icon-def" x="0" y="85" style="--color:#2070CE"/><view id="primary-hover" viewBox="16 85 16 17"/><use href="#icon-def" x="16" y="85" style="--color:#437DC0"/><view id="primary-active" viewBox="32 85 16 17"/><use href="#icon-def" x="32" y="85" style="--color:#335884"/><view id="primary-disabled" viewBox="48 85 16 17"/><use href="#icon-def" x="48" y="85" style="--color:#999999"/><view id="neutral-enabled" viewBox="0 153 16 17"/><use href="#icon-def" x="0" y="153" style="--color:#616161"/><view id="neutral-hover" viewBox="16 153 16 17"/><use href="#icon-def" x="16" y="153" style="--color:null"/><view id="neutral-active" viewBox="32 153 16 17"/><use href="#icon-def" x="32" y="153" style="--color:null"/><view id="neutral-disabled" viewBox="48 153 16 17"/><use href="#icon-def" x="48" y="153" style="--color:null"/></svg>