<svg viewBox="0 0 17 17" xmlns="http://www.w3.org/2000/svg" data-scheme="monochrome"><defs><g id="icon-def"><path stroke="var(--color)" stroke-linecap="square" stroke-linejoin="round" stroke-width="1.2" d="m3.238 1.797 4.09 5.245c0 .089.088.089.088.177v6.134c0 .089 0 .178.089.267l1.689 1.688c.178.178.533 0 .533-.266V7.219c0-.088 0-.177.089-.177l4.089-5.245c.178-.178 0-.533-.267-.533H3.505c-.267 0-.445.267-.267.533Z" fill="transparent"/><path fill="var(--color)" fill-rule="evenodd" d="m11.5 9.76-.42-.62 1.18-.72-1.18-.73.42-.66 1.14.66V6.27h.86v1.38l1.14-.66.43.66-1.19.73 1.19.76-.43.66-1.14-.66v1.34h-.86V9.14l-1.14.62Z" clip-rule="evenodd"/></g></defs><view id="on-surface-enabled" viewBox="0 0 17 17"/><use href="#icon-def" x="0" y="0" style="--color:#696969"/><view id="on-primary-enabled" viewBox="0 17 17 17"/><use href="#icon-def" x="0" y="17" style="--color:#CCCCCC"/><view id="on-primary-hover" viewBox="17 17 17 17"/><use href="#icon-def" x="17" y="17" style="--color:#CCCCCC"/><view id="on-primary-active" viewBox="34 17 17 17"/><use href="#icon-def" x="34" y="17" style="--color:#363636"/><view id="on-primary-disabled" viewBox="51 17 17 17"/><use href="#icon-def" x="51" y="17" style="--color:#666666"/><view id="on-disabled-enabled" viewBox="0 34 17 17"/><use href="#icon-def" x="0" y="34" style="--color:#666666"/><view id="on-message-enabled" viewBox="0 51 17 17"/><use href="#icon-def" x="0" y="51" style="--color:#B3B3B3"/><view id="on-elevation-enabled" viewBox="0 68 17 17"/><use href="#icon-def" x="0" y="68" style="--color:#525151"/><view id="primary-enabled" viewBox="0 85 17 17"/><use href="#icon-def" x="0" y="85" style="--color:#2070CE"/><view id="primary-hover" viewBox="17 85 17 17"/><use href="#icon-def" x="17" y="85" style="--color:#437DC0"/><view id="primary-active" viewBox="34 85 17 17"/><use href="#icon-def" x="34" y="85" style="--color:#335884"/><view id="primary-disabled" viewBox="51 85 17 17"/><use href="#icon-def" x="51" y="85" style="--color:#999999"/><view id="neutral-enabled" viewBox="0 153 17 17"/><use href="#icon-def" x="0" y="153" style="--color:#616161"/><view id="neutral-hover" viewBox="17 153 17 17"/><use href="#icon-def" x="17" y="153" style="--color:#437DC0"/><view id="neutral-active" viewBox="34 153 17 17"/><use href="#icon-def" x="34" y="153" style="--color:#363636"/><view id="neutral-disabled" viewBox="51 153 17 17"/><use href="#icon-def" x="51" y="153" style="--color:#666666"/><view id="highlighted-enabled" viewBox="0 170 17 17"/><use href="#icon-def" x="0" y="170" style="--color:#525151"/><view id="bright-enabled" viewBox="0 187 17 17"/><use href="#icon-def" x="0" y="187" style="--color:#363636"/></svg>