<svg viewBox="0 0 16 16" xmlns="http://www.w3.org/2000/svg" data-scheme="monochrome"><defs><g id="icon-def"><path fill="var(--color)" stroke="var(--color)" stroke-miterlimit="10" stroke-width="1.2" d="M10.516 10.871h3.94v3.94h-3.94z"/><path stroke="var(--color)" stroke-miterlimit="10" stroke-width="1.2" d="M1.096 10.871h3.94v3.94h-3.94zm0-9.671h3.94v3.94h-3.94zm9.063 12.088H5.655m-2.589-2.417V5.14" fill="transparent"/><path stroke="var(--color)" stroke-linecap="round" stroke-linejoin="round" stroke-width="1.2" d="M12 7.2a2.75 2.75 0 1 1 0-5.5 2.75 2.75 0 0 1 0 5.5Zm-1.9-.8L7.636 8.584" fill="transparent"/></g></defs><view id="on-surface-enabled" viewBox="0 0 16 16"/><use href="#icon-def" x="0" y="0" style="--color:#696969"/><view id="on-primary-enabled" viewBox="0 16 16 16"/><use href="#icon-def" x="0" y="16" style="--color:#CCCCCC"/><view id="on-primary-hover" viewBox="16 16 16 16"/><use href="#icon-def" x="16" y="16" style="--color:#CCCCCC"/><view id="on-primary-active" viewBox="32 16 16 16"/><use href="#icon-def" x="32" y="16" style="--color:#363636"/><view id="on-primary-disabled" viewBox="48 16 16 16"/><use href="#icon-def" x="48" y="16" style="--color:#666666"/><view id="on-disabled-enabled" viewBox="0 32 16 16"/><use href="#icon-def" x="0" y="32" style="--color:#666666"/><view id="on-message-enabled" viewBox="0 48 16 16"/><use href="#icon-def" x="0" y="48" style="--color:#B3B3B3"/><view id="on-elevation-enabled" viewBox="0 64 16 16"/><use href="#icon-def" x="0" y="64" style="--color:#525151"/><view id="primary-enabled" viewBox="0 80 16 16"/><use href="#icon-def" x="0" y="80" style="--color:#2070CE"/><view id="primary-hover" viewBox="16 80 16 16"/><use href="#icon-def" x="16" y="80" style="--color:#437DC0"/><view id="primary-active" viewBox="32 80 16 16"/><use href="#icon-def" x="32" y="80" style="--color:#335884"/><view id="primary-disabled" viewBox="48 80 16 16"/><use href="#icon-def" x="48" y="80" style="--color:#999999"/><view id="neutral-enabled" viewBox="0 144 16 16"/><use href="#icon-def" x="0" y="144" style="--color:#616161"/><view id="highlighted-enabled" viewBox="0 160 16 16"/><use href="#icon-def" x="0" y="160" style="--color:#525151"/><view id="bright-enabled" viewBox="0 176 16 16"/><use href="#icon-def" x="0" y="176" style="--color:#363636"/></svg>