<svg viewBox="0 0 17 17" xmlns="http://www.w3.org/2000/svg" data-scheme="monochrome"><defs><g id="icon-def"><path stroke="var(--color)" stroke-linecap="round" stroke-linejoin="round" stroke-width="1.2" d="M9.195 8.706H4.163m1.244-1.867L3.63 8.706l1.777 1.955m10.109-4.846h-4.144V1.672" fill="transparent"/><path stroke="var(--color)" stroke-miterlimit="10" stroke-width="1.2" d="M6.412 15.385h8.413a1 1 0 0 0 1-1V6.297a1 1 0 0 0-.293-.707l-3.986-3.986a1 1 0 0 0-.707-.293H6.412" fill="transparent"/></g></defs><view id="on-surface-enabled" viewBox="0 0 17 17"/><use href="#icon-def" x="0" y="0" style="--color:#696969"/><view id="on-surface-hover" viewBox="17 0 17 17"/><use href="#icon-def" x="17" y="0" style="--color:null"/><view id="on-surface-active" viewBox="34 0 17 17"/><use href="#icon-def" x="34" y="0" style="--color:null"/><view id="on-surface-disabled" viewBox="51 0 17 17"/><use href="#icon-def" x="51" y="0" style="--color:null"/><view id="on-primary-enabled" viewBox="0 17 17 17"/><use href="#icon-def" x="0" y="17" style="--color:#CCCCCC"/><view id="on-primary-hover" viewBox="17 17 17 17"/><use href="#icon-def" x="17" y="17" style="--color:#616161"/><view id="on-primary-active" viewBox="34 17 17 17"/><use href="#icon-def" x="34" y="17" style="--color:#363636"/><view id="on-primary-disabled" viewBox="51 17 17 17"/><use href="#icon-def" x="51" y="17" style="--color:#666666"/><view id="on-disabled-enabled" viewBox="0 34 17 17"/><use href="#icon-def" x="0" y="34" style="--color:#666666"/><view id="on-disabled-hover" viewBox="17 34 17 17"/><use href="#icon-def" x="17" y="34" style="--color:null"/><view id="on-disabled-active" viewBox="34 34 17 17"/><use href="#icon-def" x="34" y="34" style="--color:null"/><view id="on-disabled-disabled" viewBox="51 34 17 17"/><use href="#icon-def" x="51" y="34" style="--color:null"/><view id="on-message-enabled" viewBox="0 51 17 17"/><use href="#icon-def" x="0" y="51" style="--color:#B3B3B3"/><view id="on-message-hover" viewBox="17 51 17 17"/><use href="#icon-def" x="17" y="51" style="--color:null"/><view id="on-message-active" viewBox="34 51 17 17"/><use href="#icon-def" x="34" y="51" style="--color:null"/><view id="on-message-disabled" viewBox="51 51 17 17"/><use href="#icon-def" x="51" y="51" style="--color:null"/><view id="on-elevation-enabled" viewBox="0 68 17 17"/><use href="#icon-def" x="0" y="68" style="--color:#525151"/><view id="on-elevation-hover" viewBox="17 68 17 17"/><use href="#icon-def" x="17" y="68" style="--color:null"/><view id="on-elevation-active" viewBox="34 68 17 17"/><use href="#icon-def" x="34" y="68" style="--color:null"/><view id="on-elevation-disabled" viewBox="51 68 17 17"/><use href="#icon-def" x="51" y="68" style="--color:null"/><view id="primary-enabled" viewBox="0 85 17 17"/><use href="#icon-def" x="0" y="85" style="--color:#2070CE"/><view id="primary-hover" viewBox="17 85 17 17"/><use href="#icon-def" x="17" y="85" style="--color:#437DC0"/><view id="primary-active" viewBox="34 85 17 17"/><use href="#icon-def" x="34" y="85" style="--color:#335884"/><view id="primary-disabled" viewBox="51 85 17 17"/><use href="#icon-def" x="51" y="85" style="--color:#999999"/><view id="neutral-enabled" viewBox="0 153 17 17"/><use href="#icon-def" x="0" y="153" style="--color:#616161"/><view id="neutral-hover" viewBox="17 153 17 17"/><use href="#icon-def" x="17" y="153" style="--color:null"/><view id="neutral-active" viewBox="34 153 17 17"/><use href="#icon-def" x="34" y="153" style="--color:null"/><view id="neutral-disabled" viewBox="51 153 17 17"/><use href="#icon-def" x="51" y="153" style="--color:null"/><view id="highlighted-enabled" viewBox="0 170 17 17"/><use href="#icon-def" x="0" y="170" style="--color:#525151"/><view id="highlighted-hover" viewBox="17 170 17 17"/><use href="#icon-def" x="17" y="170" style="--color:null"/><view id="highlighted-active" viewBox="34 170 17 17"/><use href="#icon-def" x="34" y="170" style="--color:null"/><view id="highlighted-disabled" viewBox="51 170 17 17"/><use href="#icon-def" x="51" y="170" style="--color:null"/><view id="bright-enabled" viewBox="0 187 17 17"/><use href="#icon-def" x="0" y="187" style="--color:#363636"/><view id="bright-hover" viewBox="17 187 17 17"/><use href="#icon-def" x="17" y="187" style="--color:null"/><view id="bright-active" viewBox="34 187 17 17"/><use href="#icon-def" x="34" y="187" style="--color:null"/><view id="bright-disabled" viewBox="51 187 17 17"/><use href="#icon-def" x="51" y="187" style="--color:null"/></svg>