<svg viewBox="0 0 16 16" xmlns="http://www.w3.org/2000/svg" data-scheme="monochrome"><defs><g id="icon-def"><path fill="var(--color)" d="M3.333 7.333c-.366 0-.68-.13-.941-.391A1.284 1.284 0 0 1 2 6V3.333c0-.366.13-.68.392-.941.26-.261.575-.392.941-.392H6c.367 0 .68.13.942.392.26.26.391.575.391.941V6c0 .367-.13.68-.391.942A1.284 1.284 0 0 1 6 7.333H3.333Zm0 6.667c-.366 0-.68-.13-.941-.392A1.284 1.284 0 0 1 2 12.667V10c0-.367.13-.68.392-.942.26-.26.575-.391.941-.391H6c.367 0 .68.13.942.391.26.261.391.575.391.942v2.667c0 .366-.13.68-.391.941A1.284 1.284 0 0 1 6 14H3.333ZM10 7.333c-.367 0-.68-.13-.942-.391A1.284 1.284 0 0 1 8.667 6V3.333c0-.366.13-.68.391-.941C9.32 2.13 9.633 2 10 2h2.667c.366 0 .68.13.941.392.261.26.392.575.392.941V6c0 .367-.13.68-.392.942a1.284 1.284 0 0 1-.941.391H10ZM10 14c-.367 0-.68-.13-.942-.392a1.284 1.284 0 0 1-.391-.941V10c0-.367.13-.68.391-.942.261-.26.575-.391.942-.391h2.667c.366 0 .68.13.941.391.261.261.392.575.392.942v2.667c0 .366-.13.68-.392.941a1.284 1.284 0 0 1-.941.392H10ZM3.333 6H6V3.333H3.333V6ZM10 6h2.667V3.333H10V6Zm0 6.667h2.667V10H10v2.667Zm-6.667 0H6V10H3.333v2.667Z"/></g></defs><view id="on-surface--enabled" viewBox="0 0 16 16"/><use href="#icon-def" x="0" y="0" style="--color:#999999"/><view id="on-surface--hover" viewBox="16 0 16 16"/><use href="#icon-def" x="16" y="0" style="--color:#999999"/><view id="on-surface--active" viewBox="32 0 16 16"/><use href="#icon-def" x="32" y="0" style="--color:#999999"/><view id="on-surface--disabled" viewBox="48 0 16 16"/><use href="#icon-def" x="48" y="0" style="--color:#999999"/><view id="on-primary--enabled" viewBox="0 16 16 16"/><use href="#icon-def" x="0" y="16" style="--color:#1A1A1A"/><view id="on-primary--hover" viewBox="16 16 16 16"/><use href="#icon-def" x="16" y="16" style="--color:#1A1A1A"/><view id="on-primary--active" viewBox="32 16 16 16"/><use href="#icon-def" x="32" y="16" style="--color:#FFFFFF"/><view id="on-primary--disabled" viewBox="48 16 16 16"/><use href="#icon-def" x="48" y="16" style="--color:#7F7F7F"/><view id="on-disabled--enabled" viewBox="0 32 16 16"/><use href="#icon-def" x="0" y="32" style="--color:#7F7F7F"/><view id="on-message--enabled" viewBox="0 48 16 16"/><use href="#icon-def" x="0" y="48" style="--color:#333333"/><view id="on-elevation--enabled" viewBox="0 64 16 16"/><use href="#icon-def" x="0" y="64" style="--color:#CCCCCC"/><view id="primary--enabled" viewBox="0 80 16 16"/><use href="#icon-def" x="0" y="80" style="--color:#5ba7ff"/><view id="primary--hover" viewBox="16 80 16 16"/><use href="#icon-def" x="16" y="80" style="--color:#437dc0"/><view id="primary--active" viewBox="32 80 16 16"/><use href="#icon-def" x="32" y="80" style="--color:#335884"/><view id="primary--disabled" viewBox="48 80 16 16"/><use href="#icon-def" x="48" y="80" style="--color:#4D4D4D"/><view id="error--enabled" viewBox="0 96 16 16"/><use href="#icon-def" x="0" y="96" style="--color:#E35861"/><view id="error-actionable--enabled" viewBox="0 112 16 16"/><use href="#icon-def" x="0" y="112" style="--color:#E1ECF9"/><view id="error-actionable--hover" viewBox="16 112 16 16"/><use href="#icon-def" x="16" y="112" style="--color:#A63A41"/><view id="error-actionable--active" viewBox="32 112 16 16"/><use href="#icon-def" x="32" y="112" style="--color:#E1ECF9"/><view id="error-actionable--disabled" viewBox="48 112 16 16"/><use href="#icon-def" x="48" y="112" style="--color:#828B96"/><view id="warning--enabled" viewBox="0 128 16 16"/><use href="#icon-def" x="0" y="128" style="--color:#F9BD56"/><view id="success--enabled" viewBox="0 144 16 16"/><use href="#icon-def" x="0" y="144" style="--color:#3FA89B"/><view id="neutral--enabled" viewBox="0 160 16 16"/><use href="#icon-def" x="0" y="160" style="--color:#B3B3B3"/><view id="neutral--hover" viewBox="16 160 16 16"/><use href="#icon-def" x="16" y="160" style="--color:#437DC0"/><view id="neutral--active" viewBox="32 160 16 16"/><use href="#icon-def" x="32" y="160" style="--color:#FFFFFF"/><view id="neutral--disabled" viewBox="48 160 16 16"/><use href="#icon-def" x="48" y="160" style="--color:#7F7F7F"/><view id="highlighted--enabled" viewBox="0 176 16 16"/><use href="#icon-def" x="0" y="176" style="--color:#CCCCCC"/><view id="bright--enabled" viewBox="0 192 16 16"/><use href="#icon-def" x="0" y="192" style="--color:#FFFFFF"/></svg>