<svg viewBox="0 0 16 17" xmlns="http://www.w3.org/2000/svg" data-scheme="monochrome"><defs><g id="icon-def"><path fill="var(--color)" d="M3.333 14.936c-.366 0-.68-.13-.941-.391A1.284 1.284 0 0 1 2 13.603V4.27c0-.367.13-.68.392-.942.26-.261.575-.392.941-.392H4V2.27c0-.19.064-.348.192-.475a.645.645 0 0 1 .475-.192c.189 0 .347.064.475.192a.645.645 0 0 1 .191.475v.666h5.334V2.27c0-.19.064-.348.191-.475a.645.645 0 0 1 .475-.192c.19 0 .348.064.475.192A.645.645 0 0 1 12 2.27v.666h.667c.366 0 .68.13.941.392.261.261.392.575.392.942v9.333c0 .367-.13.68-.392.942a1.284 1.284 0 0 1-.941.391H3.333Zm0-1.333h9.334V6.936H3.333v6.667Zm0-8h9.334V4.27H3.333v1.333Z"/></g></defs><view id="on-surface--enabled" viewBox="0 0 16 17"/><use href="#icon-def" x="0" y="0" style="--color:#999999"/><view id="on-surface--hover" viewBox="16 0 16 17"/><use href="#icon-def" x="16" y="0" style="--color:#999999"/><view id="on-surface--active" viewBox="32 0 16 17"/><use href="#icon-def" x="32" y="0" style="--color:#999999"/><view id="on-surface--disabled" viewBox="48 0 16 17"/><use href="#icon-def" x="48" y="0" style="--color:#999999"/><view id="on-primary--enabled" viewBox="0 17 16 17"/><use href="#icon-def" x="0" y="17" style="--color:#1A1A1A"/><view id="on-primary--hover" viewBox="16 17 16 17"/><use href="#icon-def" x="16" y="17" style="--color:#1A1A1A"/><view id="on-primary--active" viewBox="32 17 16 17"/><use href="#icon-def" x="32" y="17" style="--color:#FFFFFF"/><view id="on-primary--disabled" viewBox="48 17 16 17"/><use href="#icon-def" x="48" y="17" style="--color:#7F7F7F"/><view id="on-disabled--enabled" viewBox="0 34 16 17"/><use href="#icon-def" x="0" y="34" style="--color:#7F7F7F"/><view id="on-message--enabled" viewBox="0 51 16 17"/><use href="#icon-def" x="0" y="51" style="--color:#333333"/><view id="on-elevation--enabled" viewBox="0 68 16 17"/><use href="#icon-def" x="0" y="68" style="--color:#CCCCCC"/><view id="primary--enabled" viewBox="0 85 16 17"/><use href="#icon-def" x="0" y="85" style="--color:#5ba7ff"/><view id="primary--hover" viewBox="16 85 16 17"/><use href="#icon-def" x="16" y="85" style="--color:#437dc0"/><view id="primary--active" viewBox="32 85 16 17"/><use href="#icon-def" x="32" y="85" style="--color:#335884"/><view id="primary--disabled" viewBox="48 85 16 17"/><use href="#icon-def" x="48" y="85" style="--color:#4D4D4D"/><view id="error--enabled" viewBox="0 102 16 17"/><use href="#icon-def" x="0" y="102" style="--color:#E35861"/><view id="error-actionable--enabled" viewBox="0 119 16 17"/><use href="#icon-def" x="0" y="119" style="--color:#E1ECF9"/><view id="error-actionable--hover" viewBox="16 119 16 17"/><use href="#icon-def" x="16" y="119" style="--color:#A63A41"/><view id="error-actionable--active" viewBox="32 119 16 17"/><use href="#icon-def" x="32" y="119" style="--color:#E1ECF9"/><view id="error-actionable--disabled" viewBox="48 119 16 17"/><use href="#icon-def" x="48" y="119" style="--color:#828B96"/><view id="warning--enabled" viewBox="0 136 16 17"/><use href="#icon-def" x="0" y="136" style="--color:#F9BD56"/><view id="success--enabled" viewBox="0 153 16 17"/><use href="#icon-def" x="0" y="153" style="--color:#3FA89B"/><view id="neutral--enabled" viewBox="0 170 16 17"/><use href="#icon-def" x="0" y="170" style="--color:#B3B3B3"/><view id="neutral--hover" viewBox="16 170 16 17"/><use href="#icon-def" x="16" y="170" style="--color:#437DC0"/><view id="neutral--active" viewBox="32 170 16 17"/><use href="#icon-def" x="32" y="170" style="--color:#FFFFFF"/><view id="neutral--disabled" viewBox="48 170 16 17"/><use href="#icon-def" x="48" y="170" style="--color:#7F7F7F"/><view id="highlighted--enabled" viewBox="0 187 16 17"/><use href="#icon-def" x="0" y="187" style="--color:#CCCCCC"/><view id="bright--enabled" viewBox="0 204 16 17"/><use href="#icon-def" x="0" y="204" style="--color:#FFFFFF"/></svg>