<svg viewBox="0 0 16 17" xmlns="http://www.w3.org/2000/svg" data-scheme="monochrome"><defs><g id="icon-def"><path fill="var(--color)" d="M1.333 13.603V3.77c0-.111.023-.211.067-.3a.662.662 0 0 1 .2-.234l2.667-2a.666.666 0 0 1 .8 0l2.666 2a.662.662 0 0 1 .2.234.661.661 0 0 1 .067.3v1.166h6c.189 0 .347.064.475.192a.645.645 0 0 1 .192.475v8a.645.645 0 0 1-.192.475.645.645 0 0 1-.475.192H2a.645.645 0 0 1-.475-.192.645.645 0 0 1-.192-.475Zm1.334-.667H4v-1.333H2.667v1.333Zm0-2.666H4V8.936H2.667v1.334Zm0-2.667H4V6.27H2.667v1.333Zm0-2.667H4V3.603H2.667v1.333Zm2.666 0h1.334V3.603H5.333v1.333Zm0 8h8V6.27h-8v6.666ZM10 7.603h1.333c.19 0 .348.064.475.192A.645.645 0 0 1 12 8.27a.645.645 0 0 1-.192.475.645.645 0 0 1-.475.191H10a.645.645 0 0 1-.475-.191.645.645 0 0 1-.192-.475c0-.19.064-.348.192-.475A.645.645 0 0 1 10 7.603Zm0 2.667h1.333c.19 0 .348.064.475.191a.645.645 0 0 1 .192.475.645.645 0 0 1-.192.475.645.645 0 0 1-.475.192H10a.645.645 0 0 1-.475-.192.645.645 0 0 1-.192-.475c0-.188.064-.347.192-.475A.645.645 0 0 1 10 10.27Zm-2-2a.645.645 0 0 1-.192.475.645.645 0 0 1-.475.191.645.645 0 0 1-.475-.191.645.645 0 0 1-.191-.475c0-.19.064-.348.191-.475a.645.645 0 0 1 .475-.192c.19 0 .348.064.475.192A.645.645 0 0 1 8 8.27Zm-.667 3.333a.645.645 0 0 1-.475-.192.645.645 0 0 1-.191-.475.65.65 0 0 1 .191-.475.645.645 0 0 1 .475-.191c.19 0 .348.064.475.191a.645.645 0 0 1 .192.475.645.645 0 0 1-.192.475.645.645 0 0 1-.475.192Z"/></g></defs><view id="on-surface--enabled" viewBox="0 0 16 17"/><use href="#icon-def" x="0" y="0" style="--color:#999999"/><view id="on-surface--hover" viewBox="16 0 16 17"/><use href="#icon-def" x="16" y="0" style="--color:#999999"/><view id="on-surface--active" viewBox="32 0 16 17"/><use href="#icon-def" x="32" y="0" style="--color:#999999"/><view id="on-surface--disabled" viewBox="48 0 16 17"/><use href="#icon-def" x="48" y="0" style="--color:#999999"/><view id="on-primary--enabled" viewBox="0 17 16 17"/><use href="#icon-def" x="0" y="17" style="--color:#1A1A1A"/><view id="on-primary--hover" viewBox="16 17 16 17"/><use href="#icon-def" x="16" y="17" style="--color:#1A1A1A"/><view id="on-primary--active" viewBox="32 17 16 17"/><use href="#icon-def" x="32" y="17" style="--color:#FFFFFF"/><view id="on-primary--disabled" viewBox="48 17 16 17"/><use href="#icon-def" x="48" y="17" style="--color:#7F7F7F"/><view id="on-disabled--enabled" viewBox="0 34 16 17"/><use href="#icon-def" x="0" y="34" style="--color:#7F7F7F"/><view id="on-message--enabled" viewBox="0 51 16 17"/><use href="#icon-def" x="0" y="51" style="--color:#333333"/><view id="on-elevation--enabled" viewBox="0 68 16 17"/><use href="#icon-def" x="0" y="68" style="--color:#CCCCCC"/><view id="primary--enabled" viewBox="0 85 16 17"/><use href="#icon-def" x="0" y="85" style="--color:#5ba7ff"/><view id="primary--hover" viewBox="16 85 16 17"/><use href="#icon-def" x="16" y="85" style="--color:#437dc0"/><view id="primary--active" viewBox="32 85 16 17"/><use href="#icon-def" x="32" y="85" style="--color:#335884"/><view id="primary--disabled" viewBox="48 85 16 17"/><use href="#icon-def" x="48" y="85" style="--color:#4D4D4D"/><view id="error--enabled" viewBox="0 102 16 17"/><use href="#icon-def" x="0" y="102" style="--color:#E35861"/><view id="error-actionable--enabled" viewBox="0 119 16 17"/><use href="#icon-def" x="0" y="119" style="--color:#E1ECF9"/><view id="error-actionable--hover" viewBox="16 119 16 17"/><use href="#icon-def" x="16" y="119" style="--color:#A63A41"/><view id="error-actionable--active" viewBox="32 119 16 17"/><use href="#icon-def" x="32" y="119" style="--color:#E1ECF9"/><view id="error-actionable--disabled" viewBox="48 119 16 17"/><use href="#icon-def" x="48" y="119" style="--color:#828B96"/><view id="warning--enabled" viewBox="0 136 16 17"/><use href="#icon-def" x="0" y="136" style="--color:#F9BD56"/><view id="success--enabled" viewBox="0 153 16 17"/><use href="#icon-def" x="0" y="153" style="--color:#3FA89B"/><view id="neutral--enabled" viewBox="0 170 16 17"/><use href="#icon-def" x="0" y="170" style="--color:#B3B3B3"/><view id="neutral--hover" viewBox="16 170 16 17"/><use href="#icon-def" x="16" y="170" style="--color:#437DC0"/><view id="neutral--active" viewBox="32 170 16 17"/><use href="#icon-def" x="32" y="170" style="--color:#FFFFFF"/><view id="neutral--disabled" viewBox="48 170 16 17"/><use href="#icon-def" x="48" y="170" style="--color:#7F7F7F"/><view id="highlighted--enabled" viewBox="0 187 16 17"/><use href="#icon-def" x="0" y="187" style="--color:#CCCCCC"/><view id="bright--enabled" viewBox="0 204 16 17"/><use href="#icon-def" x="0" y="204" style="--color:#FFFFFF"/></svg>