<svg viewBox="0 0 16 16" xmlns="http://www.w3.org/2000/svg" data-scheme="monochrome"><defs><g id="icon-def"><path fill="var(--color)" d="M8 9.333 6.433 10.9c.09.167.15.345.184.533.033.19.05.378.05.567 0 .733-.261 1.361-.784 1.883A2.568 2.568 0 0 1 4 14.667a2.568 2.568 0 0 1-1.883-.784A2.568 2.568 0 0 1 1.333 12c0-.733.261-1.361.784-1.883A2.568 2.568 0 0 1 4 9.333c.189 0 .378.017.567.05.189.034.366.095.533.184L6.667 8 5.1 6.433c-.167.09-.344.15-.533.184a3.3 3.3 0 0 1-.567.05 2.568 2.568 0 0 1-1.883-.784A2.568 2.568 0 0 1 1.333 4c0-.733.261-1.361.784-1.883A2.568 2.568 0 0 1 4 1.333c.733 0 1.361.261 1.883.784.523.522.784 1.15.784 1.883 0 .189-.017.378-.05.567a1.785 1.785 0 0 1-.184.533l7.3 7.3c.3.3.367.642.2 1.025-.166.383-.46.575-.883.575a.974.974 0 0 1-.667-.283L8 9.333Zm2-2L8.667 6l3.716-3.717a.975.975 0 0 1 .309-.208A.901.901 0 0 1 13.05 2c.422 0 .714.194.875.583.161.39.092.734-.208 1.034L10 7.333Zm-6-2c.367 0 .68-.13.942-.391.26-.261.391-.575.391-.942s-.13-.68-.391-.942A1.284 1.284 0 0 0 4 2.667c-.367 0-.68.13-.942.391A1.284 1.284 0 0 0 2.667 4c0 .367.13.68.391.942.261.26.575.391.942.391Zm4 3a.32.32 0 0 0 .233-.1.32.32 0 0 0 0-.466.32.32 0 0 0-.466 0 .32.32 0 0 0 0 .466.32.32 0 0 0 .233.1Zm-4 5c.367 0 .68-.13.942-.391.26-.261.391-.575.391-.942s-.13-.68-.391-.942A1.284 1.284 0 0 0 4 10.667c-.367 0-.68.13-.942.391a1.284 1.284 0 0 0-.391.942c0 .367.13.68.391.942.261.26.575.391.942.391Z"/></g></defs><view id="on-surface--enabled" viewBox="0 0 16 16"/><use href="#icon-def" x="0" y="0" style="--color:#999999"/><view id="on-surface--hover" viewBox="16 0 16 16"/><use href="#icon-def" x="16" y="0" style="--color:#999999"/><view id="on-surface--active" viewBox="32 0 16 16"/><use href="#icon-def" x="32" y="0" style="--color:#999999"/><view id="on-surface--disabled" viewBox="48 0 16 16"/><use href="#icon-def" x="48" y="0" style="--color:#999999"/><view id="on-primary--enabled" viewBox="0 16 16 16"/><use href="#icon-def" x="0" y="16" style="--color:#1A1A1A"/><view id="on-primary--hover" viewBox="16 16 16 16"/><use href="#icon-def" x="16" y="16" style="--color:#1A1A1A"/><view id="on-primary--active" viewBox="32 16 16 16"/><use href="#icon-def" x="32" y="16" style="--color:#FFFFFF"/><view id="on-primary--disabled" viewBox="48 16 16 16"/><use href="#icon-def" x="48" y="16" style="--color:#7F7F7F"/><view id="on-disabled--enabled" viewBox="0 32 16 16"/><use href="#icon-def" x="0" y="32" style="--color:#7F7F7F"/><view id="on-message--enabled" viewBox="0 48 16 16"/><use href="#icon-def" x="0" y="48" style="--color:#333333"/><view id="on-elevation--enabled" viewBox="0 64 16 16"/><use href="#icon-def" x="0" y="64" style="--color:#CCCCCC"/><view id="primary--enabled" viewBox="0 80 16 16"/><use href="#icon-def" x="0" y="80" style="--color:#5ba7ff"/><view id="primary--hover" viewBox="16 80 16 16"/><use href="#icon-def" x="16" y="80" style="--color:#437dc0"/><view id="primary--active" viewBox="32 80 16 16"/><use href="#icon-def" x="32" y="80" style="--color:#335884"/><view id="primary--disabled" viewBox="48 80 16 16"/><use href="#icon-def" x="48" y="80" style="--color:#4D4D4D"/><view id="error--enabled" viewBox="0 96 16 16"/><use href="#icon-def" x="0" y="96" style="--color:#E35861"/><view id="error-actionable--enabled" viewBox="0 112 16 16"/><use href="#icon-def" x="0" y="112" style="--color:#E1ECF9"/><view id="error-actionable--hover" viewBox="16 112 16 16"/><use href="#icon-def" x="16" y="112" style="--color:#A63A41"/><view id="error-actionable--active" viewBox="32 112 16 16"/><use href="#icon-def" x="32" y="112" style="--color:#E1ECF9"/><view id="error-actionable--disabled" viewBox="48 112 16 16"/><use href="#icon-def" x="48" y="112" style="--color:#828B96"/><view id="warning--enabled" viewBox="0 128 16 16"/><use href="#icon-def" x="0" y="128" style="--color:#F9BD56"/><view id="success--enabled" viewBox="0 144 16 16"/><use href="#icon-def" x="0" y="144" style="--color:#3FA89B"/><view id="neutral--enabled" viewBox="0 160 16 16"/><use href="#icon-def" x="0" y="160" style="--color:#B3B3B3"/><view id="neutral--hover" viewBox="16 160 16 16"/><use href="#icon-def" x="16" y="160" style="--color:#437DC0"/><view id="neutral--active" viewBox="32 160 16 16"/><use href="#icon-def" x="32" y="160" style="--color:#FFFFFF"/><view id="neutral--disabled" viewBox="48 160 16 16"/><use href="#icon-def" x="48" y="160" style="--color:#7F7F7F"/><view id="highlighted--enabled" viewBox="0 176 16 16"/><use href="#icon-def" x="0" y="176" style="--color:#CCCCCC"/><view id="bright--enabled" viewBox="0 192 16 16"/><use href="#icon-def" x="0" y="192" style="--color:#FFFFFF"/></svg>