<svg viewBox="0 0 18 18" xmlns="http://www.w3.org/2000/svg" data-scheme="monochrome"><defs><g id="icon-def"><path d="M9 7.14286C13.4183 7.14286 17 5.99159 17 4.57143C17 3.15127 13.4183 2 9 2C4.58172 2 1 3.15127 1 4.57143C1 5.99159 4.58172 7.14286 9 7.14286Z" stroke="var(--color)" stroke-width="1.2" stroke-linecap="round" stroke-linejoin="round" fill="transparent"/><path d="M17 4.57143V13.2381C17 13.3333 17 13.3333 17 13.4286C17 14.8571 13.4762 16 9 16C4.52381 16 1 14.8571 1 13.4286V13.3333V4.57143" stroke="var(--color)" stroke-width="1.2" stroke-linejoin="round" fill="transparent"/><path d="M17 8.95238C17 9.04762 17 9.04762 17 9.14286C17 10.5714 13.4762 11.7143 9 11.7143C4.52381 11.7143 1 10.5714 1 9.14286V9.04762" stroke="var(--color)" stroke-width="1.2" stroke-linejoin="round" fill="transparent"/></g></defs><view id="on-surface--enabled" viewBox="0 0 18 18"/><use href="#icon-def" x="0" y="0" style="--color:#999999"/><view id="on-surface--hover" viewBox="18 0 18 18"/><use href="#icon-def" x="18" y="0" style="--color:#999999"/><view id="on-surface--active" viewBox="36 0 18 18"/><use href="#icon-def" x="36" y="0" style="--color:#999999"/><view id="on-surface--disabled" viewBox="54 0 18 18"/><use href="#icon-def" x="54" y="0" style="--color:#999999"/><view id="on-elevation--enabled" viewBox="0 72 18 18"/><use href="#icon-def" x="0" y="72" style="--color:#CCCCCC"/></svg>