<svg viewBox="0 0 16 16" xmlns="http://www.w3.org/2000/svg" data-scheme="monochrome"><defs><g id="icon-def"><path fill="var(--color)" d="M10 13.333a.645.645 0 0 1-.475-.191.645.645 0 0 1-.192-.475c0-.19.064-.348.192-.475A.645.645 0 0 1 10 12h1.333a.645.645 0 0 0 .475-.192.645.645 0 0 0 .192-.475V10c0-.422.122-.806.367-1.15a1.98 1.98 0 0 1 .966-.733v-.234a1.984 1.984 0 0 1-.966-.733A1.942 1.942 0 0 1 12 6V4.667a.645.645 0 0 0-.192-.475.645.645 0 0 0-.475-.192H10a.645.645 0 0 1-.475-.192.645.645 0 0 1-.192-.475c0-.189.064-.347.192-.475A.645.645 0 0 1 10 2.667h1.333c.556 0 1.028.194 1.417.583.389.389.583.861.583 1.417V6c0 .189.064.347.192.475a.645.645 0 0 0 .475.192c.189 0 .347.064.475.191a.645.645 0 0 1 .192.475v1.334a.645.645 0 0 1-.192.475.645.645 0 0 1-.475.191.645.645 0 0 0-.475.192.645.645 0 0 0-.192.475v1.333c0 .556-.194 1.028-.583 1.417a1.929 1.929 0 0 1-1.417.583H10Zm-5.333 0a1.929 1.929 0 0 1-1.417-.583 1.929 1.929 0 0 1-.583-1.417V10a.645.645 0 0 0-.192-.475A.645.645 0 0 0 2 9.333a.645.645 0 0 1-.475-.191.645.645 0 0 1-.192-.475V7.333c0-.189.064-.347.192-.475A.645.645 0 0 1 2 6.667a.645.645 0 0 0 .475-.192A.645.645 0 0 0 2.667 6V4.667c0-.556.194-1.028.583-1.417a1.929 1.929 0 0 1 1.417-.583H6c.189 0 .347.064.475.191a.645.645 0 0 1 .192.475.645.645 0 0 1-.192.475A.645.645 0 0 1 6 4H4.667a.645.645 0 0 0-.475.192.645.645 0 0 0-.192.475V6c0 .422-.122.806-.367 1.15a1.985 1.985 0 0 1-.966.733v.234c.4.144.722.389.966.733.245.344.367.728.367 1.15v1.333c0 .19.064.348.192.475a.645.645 0 0 0 .475.192H6c.189 0 .347.064.475.192a.645.645 0 0 1 .192.475.645.645 0 0 1-.192.475.645.645 0 0 1-.475.191H4.667Z"/></g></defs><view id="on-surface--enabled" viewBox="0 0 16 16"/><use href="#icon-def" x="0" y="0" style="--color:#999999"/><view id="on-surface--hover" viewBox="16 0 16 16"/><use href="#icon-def" x="16" y="0" style="--color:#999999"/><view id="on-surface--active" viewBox="32 0 16 16"/><use href="#icon-def" x="32" y="0" style="--color:#999999"/><view id="on-surface--disabled" viewBox="48 0 16 16"/><use href="#icon-def" x="48" y="0" style="--color:#999999"/><view id="on-primary--enabled" viewBox="0 16 16 16"/><use href="#icon-def" x="0" y="16" style="--color:#1A1A1A"/><view id="on-primary--hover" viewBox="16 16 16 16"/><use href="#icon-def" x="16" y="16" style="--color:#1A1A1A"/><view id="on-primary--active" viewBox="32 16 16 16"/><use href="#icon-def" x="32" y="16" style="--color:#FFFFFF"/><view id="on-primary--disabled" viewBox="48 16 16 16"/><use href="#icon-def" x="48" y="16" style="--color:#7F7F7F"/><view id="on-disabled--enabled" viewBox="0 32 16 16"/><use href="#icon-def" x="0" y="32" style="--color:#7F7F7F"/><view id="on-message--enabled" viewBox="0 48 16 16"/><use href="#icon-def" x="0" y="48" style="--color:#333333"/><view id="on-elevation--enabled" viewBox="0 64 16 16"/><use href="#icon-def" x="0" y="64" style="--color:#CCCCCC"/><view id="primary--enabled" viewBox="0 80 16 16"/><use href="#icon-def" x="0" y="80" style="--color:#5ba7ff"/><view id="primary--hover" viewBox="16 80 16 16"/><use href="#icon-def" x="16" y="80" style="--color:#437dc0"/><view id="primary--active" viewBox="32 80 16 16"/><use href="#icon-def" x="32" y="80" style="--color:#335884"/><view id="primary--disabled" viewBox="48 80 16 16"/><use href="#icon-def" x="48" y="80" style="--color:#4D4D4D"/><view id="error--enabled" viewBox="0 96 16 16"/><use href="#icon-def" x="0" y="96" style="--color:#E35861"/><view id="error-actionable--enabled" viewBox="0 112 16 16"/><use href="#icon-def" x="0" y="112" style="--color:#E1ECF9"/><view id="error-actionable--hover" viewBox="16 112 16 16"/><use href="#icon-def" x="16" y="112" style="--color:#A63A41"/><view id="error-actionable--active" viewBox="32 112 16 16"/><use href="#icon-def" x="32" y="112" style="--color:#E1ECF9"/><view id="error-actionable--disabled" viewBox="48 112 16 16"/><use href="#icon-def" x="48" y="112" style="--color:#828B96"/><view id="warning--enabled" viewBox="0 128 16 16"/><use href="#icon-def" x="0" y="128" style="--color:#F9BD56"/><view id="success--enabled" viewBox="0 144 16 16"/><use href="#icon-def" x="0" y="144" style="--color:#3FA89B"/><view id="neutral--enabled" viewBox="0 160 16 16"/><use href="#icon-def" x="0" y="160" style="--color:#B3B3B3"/><view id="neutral--hover" viewBox="16 160 16 16"/><use href="#icon-def" x="16" y="160" style="--color:#437DC0"/><view id="neutral--active" viewBox="32 160 16 16"/><use href="#icon-def" x="32" y="160" style="--color:#FFFFFF"/><view id="neutral--disabled" viewBox="48 160 16 16"/><use href="#icon-def" x="48" y="160" style="--color:#7F7F7F"/><view id="highlighted--enabled" viewBox="0 176 16 16"/><use href="#icon-def" x="0" y="176" style="--color:#CCCCCC"/><view id="bright--enabled" viewBox="0 192 16 16"/><use href="#icon-def" x="0" y="192" style="--color:#FFFFFF"/></svg>