<svg viewBox="0 0 16 16" xmlns="http://www.w3.org/2000/svg" data-scheme="monochrome"><defs><g id="icon-def"><path fill="var(--color)" d="M8 14c-1.678 0-3.097-.258-4.258-.775S2 12.078 2 11.333V4.667c0-.734.586-1.361 1.758-1.884C4.931 2.261 6.344 2 8 2c1.656 0 3.07.261 4.242.783C13.414 3.306 14 3.933 14 4.667v6.666c0 .745-.58 1.375-1.742 1.892-1.16.517-2.58.775-4.258.775Zm0-7.983c.989 0 1.983-.142 2.983-.425 1-.284 1.561-.586 1.684-.909-.123-.322-.68-.627-1.675-.916a10.58 10.58 0 0 0-5.967-.008c-.972.283-1.536.591-1.692.924.156.334.72.64 1.692.917.972.278 1.964.417 2.975.417Zm0 3.316c.467 0 .917-.022 1.35-.066.433-.045.847-.109 1.242-.192a9.077 9.077 0 0 0 1.116-.308c.35-.123.67-.261.959-.417v-2a6.632 6.632 0 0 1-.959.417c-.35.122-.722.225-1.116.308-.395.083-.809.147-1.242.192a13.732 13.732 0 0 1-2.717 0 11.75 11.75 0 0 1-1.258-.192 8.677 8.677 0 0 1-1.108-.308 6.048 6.048 0 0 1-.934-.417v2c.278.156.59.294.934.417.344.122.714.225 1.108.308.394.083.814.147 1.258.192.445.044.9.066 1.367.066Zm0 3.334c.511 0 1.03-.04 1.558-.117.528-.078 1.014-.18 1.459-.308a5.723 5.723 0 0 0 1.116-.434c.3-.16.478-.325.534-.491V9.683a6.63 6.63 0 0 1-.959.417c-.35.122-.722.225-1.116.308-.395.084-.809.148-1.242.192a13.744 13.744 0 0 1-2.717 0 11.72 11.72 0 0 1-1.258-.192 8.675 8.675 0 0 1-1.108-.308 6.047 6.047 0 0 1-.934-.417v1.65c.056.167.23.328.525.484.295.155.664.297 1.109.425.444.127.933.23 1.466.308.534.078 1.056.117 1.567.117Z"/></g></defs><view id="on-surface--enabled" viewBox="0 0 16 16"/><use href="#icon-def" x="0" y="0" style="--color:#999999"/><view id="on-surface--hover" viewBox="16 0 16 16"/><use href="#icon-def" x="16" y="0" style="--color:#999999"/><view id="on-surface--active" viewBox="32 0 16 16"/><use href="#icon-def" x="32" y="0" style="--color:#999999"/><view id="on-surface--disabled" viewBox="48 0 16 16"/><use href="#icon-def" x="48" y="0" style="--color:#999999"/><view id="on-primary--enabled" viewBox="0 16 16 16"/><use href="#icon-def" x="0" y="16" style="--color:#1A1A1A"/><view id="on-primary--hover" viewBox="16 16 16 16"/><use href="#icon-def" x="16" y="16" style="--color:#1A1A1A"/><view id="on-primary--active" viewBox="32 16 16 16"/><use href="#icon-def" x="32" y="16" style="--color:#FFFFFF"/><view id="on-primary--disabled" viewBox="48 16 16 16"/><use href="#icon-def" x="48" y="16" style="--color:#7F7F7F"/><view id="on-disabled--enabled" viewBox="0 32 16 16"/><use href="#icon-def" x="0" y="32" style="--color:#7F7F7F"/><view id="on-message--enabled" viewBox="0 48 16 16"/><use href="#icon-def" x="0" y="48" style="--color:#333333"/><view id="on-elevation--enabled" viewBox="0 64 16 16"/><use href="#icon-def" x="0" y="64" style="--color:#CCCCCC"/><view id="primary--enabled" viewBox="0 80 16 16"/><use href="#icon-def" x="0" y="80" style="--color:#5ba7ff"/><view id="primary--hover" viewBox="16 80 16 16"/><use href="#icon-def" x="16" y="80" style="--color:#437dc0"/><view id="primary--active" viewBox="32 80 16 16"/><use href="#icon-def" x="32" y="80" style="--color:#335884"/><view id="primary--disabled" viewBox="48 80 16 16"/><use href="#icon-def" x="48" y="80" style="--color:#4D4D4D"/><view id="error--enabled" viewBox="0 96 16 16"/><use href="#icon-def" x="0" y="96" style="--color:#E35861"/><view id="error-actionable--enabled" viewBox="0 112 16 16"/><use href="#icon-def" x="0" y="112" style="--color:#E1ECF9"/><view id="error-actionable--hover" viewBox="16 112 16 16"/><use href="#icon-def" x="16" y="112" style="--color:#A63A41"/><view id="error-actionable--active" viewBox="32 112 16 16"/><use href="#icon-def" x="32" y="112" style="--color:#E1ECF9"/><view id="error-actionable--disabled" viewBox="48 112 16 16"/><use href="#icon-def" x="48" y="112" style="--color:#828B96"/><view id="warning--enabled" viewBox="0 128 16 16"/><use href="#icon-def" x="0" y="128" style="--color:#F9BD56"/><view id="success--enabled" viewBox="0 144 16 16"/><use href="#icon-def" x="0" y="144" style="--color:#3FA89B"/><view id="neutral--enabled" viewBox="0 160 16 16"/><use href="#icon-def" x="0" y="160" style="--color:#B3B3B3"/><view id="neutral--hover" viewBox="16 160 16 16"/><use href="#icon-def" x="16" y="160" style="--color:#437DC0"/><view id="neutral--active" viewBox="32 160 16 16"/><use href="#icon-def" x="32" y="160" style="--color:#FFFFFF"/><view id="neutral--disabled" viewBox="48 160 16 16"/><use href="#icon-def" x="48" y="160" style="--color:#7F7F7F"/><view id="highlighted--enabled" viewBox="0 176 16 16"/><use href="#icon-def" x="0" y="176" style="--color:#CCCCCC"/><view id="bright--enabled" viewBox="0 192 16 16"/><use href="#icon-def" x="0" y="192" style="--color:#FFFFFF"/></svg>