<svg viewBox="0 0 16 16" xmlns="http://www.w3.org/2000/svg" data-scheme="monochrome"><defs><g id="icon-def"><path fill="var(--color)" d="M6 13.333c-.367 0-.68-.13-.942-.391A1.284 1.284 0 0 1 4.667 12c0-.367.13-.68.391-.942.261-.26.575-.391.942-.391s.68.13.942.391c.26.261.391.575.391.942s-.13.68-.391.942a1.284 1.284 0 0 1-.942.391Zm4 0c-.367 0-.68-.13-.942-.391A1.284 1.284 0 0 1 8.667 12c0-.367.13-.68.391-.942.261-.26.575-.391.942-.391s.68.13.942.391c.26.261.391.575.391.942s-.13.68-.391.942a1.284 1.284 0 0 1-.942.391Zm-4-4c-.367 0-.68-.13-.942-.391A1.284 1.284 0 0 1 4.667 8c0-.367.13-.68.391-.942.261-.26.575-.391.942-.391s.68.13.942.391c.26.261.391.575.391.942s-.13.68-.391.942A1.284 1.284 0 0 1 6 9.333Zm4 0c-.367 0-.68-.13-.942-.391A1.284 1.284 0 0 1 8.667 8c0-.367.13-.68.391-.942.261-.26.575-.391.942-.391s.68.13.942.391c.26.261.391.575.391.942s-.13.68-.391.942a1.284 1.284 0 0 1-.942.391Zm-4-4c-.367 0-.68-.13-.942-.391A1.284 1.284 0 0 1 4.667 4c0-.367.13-.68.391-.942.261-.26.575-.391.942-.391s.68.13.942.391c.26.261.391.575.391.942s-.13.68-.391.942A1.284 1.284 0 0 1 6 5.333Zm4 0c-.367 0-.68-.13-.942-.391A1.284 1.284 0 0 1 8.667 4c0-.367.13-.68.391-.942.261-.26.575-.391.942-.391s.68.13.942.391c.26.261.391.575.391.942s-.13.68-.391.942a1.284 1.284 0 0 1-.942.391Z"/></g></defs><view id="on-surface--enabled" viewBox="0 0 16 16"/><use href="#icon-def" x="0" y="0" style="--color:#999999"/><view id="on-surface--hover" viewBox="16 0 16 16"/><use href="#icon-def" x="16" y="0" style="--color:#999999"/><view id="on-surface--active" viewBox="32 0 16 16"/><use href="#icon-def" x="32" y="0" style="--color:#999999"/><view id="on-surface--disabled" viewBox="48 0 16 16"/><use href="#icon-def" x="48" y="0" style="--color:#999999"/><view id="on-primary--enabled" viewBox="0 16 16 16"/><use href="#icon-def" x="0" y="16" style="--color:#1A1A1A"/><view id="on-primary--hover" viewBox="16 16 16 16"/><use href="#icon-def" x="16" y="16" style="--color:#1A1A1A"/><view id="on-primary--active" viewBox="32 16 16 16"/><use href="#icon-def" x="32" y="16" style="--color:#FFFFFF"/><view id="on-primary--disabled" viewBox="48 16 16 16"/><use href="#icon-def" x="48" y="16" style="--color:#7F7F7F"/><view id="on-disabled--enabled" viewBox="0 32 16 16"/><use href="#icon-def" x="0" y="32" style="--color:#7F7F7F"/><view id="on-message--enabled" viewBox="0 48 16 16"/><use href="#icon-def" x="0" y="48" style="--color:#333333"/><view id="on-elevation--enabled" viewBox="0 64 16 16"/><use href="#icon-def" x="0" y="64" style="--color:#CCCCCC"/><view id="primary--enabled" viewBox="0 80 16 16"/><use href="#icon-def" x="0" y="80" style="--color:#5ba7ff"/><view id="primary--hover" viewBox="16 80 16 16"/><use href="#icon-def" x="16" y="80" style="--color:#437dc0"/><view id="primary--active" viewBox="32 80 16 16"/><use href="#icon-def" x="32" y="80" style="--color:#335884"/><view id="primary--disabled" viewBox="48 80 16 16"/><use href="#icon-def" x="48" y="80" style="--color:#4D4D4D"/><view id="error--enabled" viewBox="0 96 16 16"/><use href="#icon-def" x="0" y="96" style="--color:#E35861"/><view id="warning--enabled" viewBox="0 112 16 16"/><use href="#icon-def" x="0" y="112" style="--color:#F9BD56"/><view id="success--enabled" viewBox="0 128 16 16"/><use href="#icon-def" x="0" y="128" style="--color:#3FA89B"/><view id="neutral--enabled" viewBox="0 144 16 16"/><use href="#icon-def" x="0" y="144" style="--color:#B3B3B3"/><view id="neutral--hover" viewBox="16 144 16 16"/><use href="#icon-def" x="16" y="144" style="--color:#437DC0"/><view id="neutral--active" viewBox="32 144 16 16"/><use href="#icon-def" x="32" y="144" style="--color:#FFFFFF"/><view id="neutral--disabled" viewBox="48 144 16 16"/><use href="#icon-def" x="48" y="144" style="--color:#7F7F7F"/><view id="highlighted--enabled" viewBox="0 160 16 16"/><use href="#icon-def" x="0" y="160" style="--color:#CCCCCC"/><view id="bright--enabled" viewBox="0 176 16 16"/><use href="#icon-def" x="0" y="176" style="--color:#FFFFFF"/></svg>