<svg viewBox="0 0 18 19" xmlns="http://www.w3.org/2000/svg" data-scheme="monochrome"><defs><g id="icon-def"><path d="M15.6 6.6L11.8 2.8L13.1 1.5C13.4 1.2 13.9 1 14.4 1C14.9 1 15.3 1.2 15.7 1.5L17 2.8C17.2 3.2 17.4 3.6 17.4 4.1C17.4 4.6 17.3 5 16.9 5.3L15.6 6.6ZM14.3 8L4.8 17.5H1V13.7L10.5 4.2L14.3 8Z" fill="var(--color)" stroke="var(--color)" stroke-width="1.2" stroke-linecap="round" stroke-linejoin="round"/></g></defs><view id="on-surface--enabled" viewBox="0 0 18 19"/><use href="#icon-def" x="0" y="0" style="--color:#999999"/><view id="on-surface--hover" viewBox="18 0 18 19"/><use href="#icon-def" x="18" y="0" style="--color:#999999"/><view id="on-surface--active" viewBox="36 0 18 19"/><use href="#icon-def" x="36" y="0" style="--color:#999999"/><view id="on-surface--disabled" viewBox="54 0 18 19"/><use href="#icon-def" x="54" y="0" style="--color:#999999"/><view id="on-elevation--enabled" viewBox="0 76 18 19"/><use href="#icon-def" x="0" y="76" style="--color:#CCCCCC"/><view id="primary--enabled" viewBox="0 95 18 19"/><use href="#icon-def" x="0" y="95" style="--color:#5ba7ff"/><view id="primary--hover" viewBox="18 95 18 19"/><use href="#icon-def" x="18" y="95" style="--color:#437dc0"/><view id="primary--active" viewBox="36 95 18 19"/><use href="#icon-def" x="36" y="95" style="--color:#335884"/><view id="primary--disabled" viewBox="54 95 18 19"/><use href="#icon-def" x="54" y="95" style="--color:#4D4D4D"/></svg>