<svg viewBox="0 0 16 16" xmlns="http://www.w3.org/2000/svg" data-scheme="monochrome"><defs><g id="icon-def"><path fill="var(--color)" d="M0 0h16v16H0z"/><path fill="var(--color)" d="M6 13.333H3.333c-.366 0-.68-.13-.941-.391A1.284 1.284 0 0 1 2 12V2.667c0-.367.13-.68.392-.942.26-.261.575-.392.941-.392h9.334c.366 0 .68.13.941.392.261.261.392.575.392.942V12c0 .367-.13.68-.392.942a1.284 1.284 0 0 1-.941.391H10l-1.533 1.534a.64.64 0 0 1-.467.2.64.64 0 0 1-.467-.2L6 13.333ZM3.333 12h3.2L8 13.467 9.467 12h3.2V2.667H3.333V12Zm4.6-.667c.234 0 .43-.08.592-.241a.805.805 0 0 0 .242-.592c0-.233-.08-.43-.242-.592a.805.805 0 0 0-.592-.241c-.233 0-.43.08-.591.241a.805.805 0 0 0-.242.592c0 .233.08.43.242.592a.804.804 0 0 0 .591.241Zm1.167-6c0 .19-.061.392-.183.609-.123.216-.328.452-.617.708a3.584 3.584 0 0 0-.458.475 2.77 2.77 0 0 0-.292.458 1.303 1.303 0 0 0-.1.267 6.527 6.527 0 0 0-.067.3.514.514 0 0 0 .134.433.558.558 0 0 0 .433.184.603.603 0 0 0 .417-.167.854.854 0 0 0 .25-.45c.033-.156.097-.3.191-.433a4.37 4.37 0 0 1 .459-.517c.389-.389.664-.717.825-.983.16-.267.241-.561.241-.884 0-.6-.202-1.083-.608-1.45-.406-.366-.958-.55-1.658-.55-.5 0-.934.106-1.3.317a2.406 2.406 0 0 0-.884.883.414.414 0 0 0-.008.417.589.589 0 0 0 .342.3.584.584 0 0 0 .433 0A.76.76 0 0 0 7 4.983a1.3 1.3 0 0 1 1.067-.516c.289 0 .533.08.733.241.2.161.3.37.3.625Z"/></g></defs><view id="on-surface--enabled" viewBox="0 0 16 16"/><use href="#icon-def" x="0" y="0" style="--color:#999999"/><view id="on-surface--hover" viewBox="16 0 16 16"/><use href="#icon-def" x="16" y="0" style="--color:#999999"/><view id="on-surface--active" viewBox="32 0 16 16"/><use href="#icon-def" x="32" y="0" style="--color:#999999"/><view id="on-surface--disabled" viewBox="48 0 16 16"/><use href="#icon-def" x="48" y="0" style="--color:#999999"/><view id="on-primary--enabled" viewBox="0 16 16 16"/><use href="#icon-def" x="0" y="16" style="--color:#1A1A1A"/><view id="on-primary--hover" viewBox="16 16 16 16"/><use href="#icon-def" x="16" y="16" style="--color:#1A1A1A"/><view id="on-primary--active" viewBox="32 16 16 16"/><use href="#icon-def" x="32" y="16" style="--color:#FFFFFF"/><view id="on-primary--disabled" viewBox="48 16 16 16"/><use href="#icon-def" x="48" y="16" style="--color:#7F7F7F"/><view id="on-disabled--enabled" viewBox="0 32 16 16"/><use href="#icon-def" x="0" y="32" style="--color:#7F7F7F"/><view id="on-message--enabled" viewBox="0 48 16 16"/><use href="#icon-def" x="0" y="48" style="--color:#333333"/><view id="on-elevation--enabled" viewBox="0 64 16 16"/><use href="#icon-def" x="0" y="64" style="--color:#CCCCCC"/><view id="primary--enabled" viewBox="0 80 16 16"/><use href="#icon-def" x="0" y="80" style="--color:#5ba7ff"/><view id="primary--hover" viewBox="16 80 16 16"/><use href="#icon-def" x="16" y="80" style="--color:#437dc0"/><view id="primary--active" viewBox="32 80 16 16"/><use href="#icon-def" x="32" y="80" style="--color:#335884"/><view id="primary--disabled" viewBox="48 80 16 16"/><use href="#icon-def" x="48" y="80" style="--color:#4D4D4D"/><view id="error--enabled" viewBox="0 96 16 16"/><use href="#icon-def" x="0" y="96" style="--color:#E35861"/><view id="warning--enabled" viewBox="0 112 16 16"/><use href="#icon-def" x="0" y="112" style="--color:#F9BD56"/><view id="success--enabled" viewBox="0 128 16 16"/><use href="#icon-def" x="0" y="128" style="--color:#3FA89B"/><view id="neutral--enabled" viewBox="0 144 16 16"/><use href="#icon-def" x="0" y="144" style="--color:#B3B3B3"/><view id="neutral--hover" viewBox="16 144 16 16"/><use href="#icon-def" x="16" y="144" style="--color:#437DC0"/><view id="neutral--active" viewBox="32 144 16 16"/><use href="#icon-def" x="32" y="144" style="--color:#FFFFFF"/><view id="neutral--disabled" viewBox="48 144 16 16"/><use href="#icon-def" x="48" y="144" style="--color:#7F7F7F"/><view id="highlighted--enabled" viewBox="0 160 16 16"/><use href="#icon-def" x="0" y="160" style="--color:#CCCCCC"/><view id="bright--enabled" viewBox="0 176 16 16"/><use href="#icon-def" x="0" y="176" style="--color:#FFFFFF"/></svg>