<svg viewBox="0 0 18 19" xmlns="http://www.w3.org/2000/svg" data-scheme="monochrome"><defs><g id="icon-def"><path d="M2.3 15.3H6.8C6.9 15.3 7 15.3 7 15.4L9 17.4C9.1 17.5 9.3 17.5 9.4 17.4L11.4 15.4C11.5 15.3 11.5 15.3 11.6 15.3H16.1C16.3 15.3 16.4 15.2 16.4 15V1.3C16.4 1.1 16.3 1 16.1 1H2.3C2.1 1 2 1.1 2 1.3V15C2 15.2 2.1 15.3 2.3 15.3Z" stroke="var(--color)" stroke-width="1.2" stroke-linecap="round" stroke-linejoin="round" fill="transparent"/><path d="M9.5 13.5C9.94183 13.5 10.3 13.1418 10.3 12.7C10.3 12.2582 9.94183 11.9 9.5 11.9C9.05817 11.9 8.7 12.2582 8.7 12.7C8.7 13.1418 9.05817 13.5 9.5 13.5Z" fill="var(--color)"/><path d="M6.3 6.3C6.4 5.5 6.7 4.9 7.2 4.5C7.7 4.1 8.3 3.8 9.2 3.8C10.1 3.8 10.7 4 11.3 4.5C11.8 5 12.1 5.5 12.1 6.2C12.1 6.6 12 6.9 11.8 7.3C11.5 7.6 11 8 10.4 8.5C10.1 8.8 9.9 9 9.8 9.1C9.7 9.3 9.6 9.5 9.5 9.7C9.4 9.9 9.4 10.2 9.4 10.6" stroke="var(--color)" stroke-width="1.2" stroke-linecap="round" stroke-linejoin="round" fill="transparent"/></g></defs><view id="on-surface--enabled" viewBox="0 0 18 19"/><use href="#icon-def" x="0" y="0" style="--color:#999999"/><view id="on-surface--hover" viewBox="18 0 18 19"/><use href="#icon-def" x="18" y="0" style="--color:#999999"/><view id="on-surface--active" viewBox="36 0 18 19"/><use href="#icon-def" x="36" y="0" style="--color:#999999"/><view id="on-surface--disabled" viewBox="54 0 18 19"/><use href="#icon-def" x="54" y="0" style="--color:#999999"/><view id="on-elevation--enabled" viewBox="0 76 18 19"/><use href="#icon-def" x="0" y="76" style="--color:#CCCCCC"/><view id="primary--enabled" viewBox="0 95 18 19"/><use href="#icon-def" x="0" y="95" style="--color:#5ba7ff"/><view id="primary--hover" viewBox="18 95 18 19"/><use href="#icon-def" x="18" y="95" style="--color:#437dc0"/><view id="primary--active" viewBox="36 95 18 19"/><use href="#icon-def" x="36" y="95" style="--color:#335884"/><view id="primary--disabled" viewBox="54 95 18 19"/><use href="#icon-def" x="54" y="95" style="--color:#4D4D4D"/></svg>