<svg viewBox="0 0 16 16" xmlns="http://www.w3.org/2000/svg" data-scheme="monochrome"><defs><g id="icon-def"><path fill="var(--color)" d="M8 15c-.957 0-1.86-.184-2.713-.551a7.099 7.099 0 0 1-2.23-1.505 7.1 7.1 0 0 1-1.506-2.232A6.773 6.773 0 0 1 1 8c0-.968.184-1.875.551-2.721a7.128 7.128 0 0 1 1.505-2.223 7.1 7.1 0 0 1 2.231-1.505A6.773 6.773 0 0 1 8 1c.968 0 1.875.184 2.721.551.846.368 1.587.87 2.223 1.505a7.127 7.127 0 0 1 1.505 2.223C14.816 6.125 15 7.032 15 8c0 .957-.184 1.86-.551 2.713a7.098 7.098 0 0 1-1.505 2.23 7.126 7.126 0 0 1-2.223 1.506A6.754 6.754 0 0 1 8 15Zm0-1.435c.303-.42.566-.857.787-1.313.222-.455.403-.939.543-1.452H6.67c.14.513.32.997.543 1.452.221.455.484.893.787 1.313Zm-1.82-.28a9.705 9.705 0 0 1-.551-1.199 10.283 10.283 0 0 1-.394-1.286H3.17a5.81 5.81 0 0 0 1.269 1.522 5.036 5.036 0 0 0 1.741.963Zm3.64 0a5.037 5.037 0 0 0 1.741-.963c.508-.431.93-.939 1.269-1.522h-2.065a10.3 10.3 0 0 1-.394 1.286 9.72 9.72 0 0 1-.551 1.199ZM2.575 9.4h2.38a9.246 9.246 0 0 1-.079-2.109 9.95 9.95 0 0 1 .079-.691h-2.38A5.571 5.571 0 0 0 2.4 8a5.571 5.571 0 0 0 .175 1.4Zm3.78 0h3.29a9.246 9.246 0 0 0 .079-2.109 9.648 9.648 0 0 0-.079-.691h-3.29a9.246 9.246 0 0 0-.079 2.109c.018.227.044.458.079.691Zm4.69 0h2.38A5.565 5.565 0 0 0 13.6 8a5.565 5.565 0 0 0-.175-1.4h-2.38a9.246 9.246 0 0 1 .079 2.109 9.706 9.706 0 0 1-.079.691Zm-.28-4.2h2.065a5.808 5.808 0 0 0-1.269-1.522 5.037 5.037 0 0 0-1.741-.963c.21.385.394.785.551 1.199.158.414.289.843.394 1.286Zm-4.095 0h2.66a8.285 8.285 0 0 0-.543-1.453A8.887 8.887 0 0 0 8 2.436c-.303.42-.566.857-.787 1.313a8.235 8.235 0 0 0-.543 1.452Zm-3.5 0h2.065c.105-.443.236-.872.394-1.286.157-.414.341-.814.551-1.199-.653.21-1.234.53-1.741.963-.508.431-.93.939-1.269 1.522Z"/></g></defs><view id="on-surface--enabled" viewBox="0 0 16 16"/><use href="#icon-def" x="0" y="0" style="--color:#999999"/><view id="on-surface--hover" viewBox="16 0 16 16"/><use href="#icon-def" x="16" y="0" style="--color:#999999"/><view id="on-surface--active" viewBox="32 0 16 16"/><use href="#icon-def" x="32" y="0" style="--color:#999999"/><view id="on-surface--disabled" viewBox="48 0 16 16"/><use href="#icon-def" x="48" y="0" style="--color:#999999"/><view id="on-primary--enabled" viewBox="0 16 16 16"/><use href="#icon-def" x="0" y="16" style="--color:#1A1A1A"/><view id="on-primary--hover" viewBox="16 16 16 16"/><use href="#icon-def" x="16" y="16" style="--color:#1A1A1A"/><view id="on-primary--active" viewBox="32 16 16 16"/><use href="#icon-def" x="32" y="16" style="--color:#FFFFFF"/><view id="on-primary--disabled" viewBox="48 16 16 16"/><use href="#icon-def" x="48" y="16" style="--color:#7F7F7F"/><view id="on-disabled--enabled" viewBox="0 32 16 16"/><use href="#icon-def" x="0" y="32" style="--color:#7F7F7F"/><view id="on-message--enabled" viewBox="0 48 16 16"/><use href="#icon-def" x="0" y="48" style="--color:#333333"/><view id="on-elevation--enabled" viewBox="0 64 16 16"/><use href="#icon-def" x="0" y="64" style="--color:#CCCCCC"/><view id="primary--enabled" viewBox="0 80 16 16"/><use href="#icon-def" x="0" y="80" style="--color:#5ba7ff"/><view id="primary--hover" viewBox="16 80 16 16"/><use href="#icon-def" x="16" y="80" style="--color:#437dc0"/><view id="primary--active" viewBox="32 80 16 16"/><use href="#icon-def" x="32" y="80" style="--color:#335884"/><view id="primary--disabled" viewBox="48 80 16 16"/><use href="#icon-def" x="48" y="80" style="--color:#4D4D4D"/><view id="error--enabled" viewBox="0 96 16 16"/><use href="#icon-def" x="0" y="96" style="--color:#E35861"/><view id="warning--enabled" viewBox="0 112 16 16"/><use href="#icon-def" x="0" y="112" style="--color:#F9BD56"/><view id="success--enabled" viewBox="0 128 16 16"/><use href="#icon-def" x="0" y="128" style="--color:#3FA89B"/><view id="neutral--enabled" viewBox="0 144 16 16"/><use href="#icon-def" x="0" y="144" style="--color:#B3B3B3"/><view id="neutral--hover" viewBox="16 144 16 16"/><use href="#icon-def" x="16" y="144" style="--color:#437DC0"/><view id="neutral--active" viewBox="32 144 16 16"/><use href="#icon-def" x="32" y="144" style="--color:#FFFFFF"/><view id="neutral--disabled" viewBox="48 144 16 16"/><use href="#icon-def" x="48" y="144" style="--color:#7F7F7F"/><view id="highlighted--enabled" viewBox="0 160 16 16"/><use href="#icon-def" x="0" y="160" style="--color:#CCCCCC"/><view id="bright--enabled" viewBox="0 176 16 16"/><use href="#icon-def" x="0" y="176" style="--color:#FFFFFF"/></svg>