<svg viewBox="0 0 18 18" xmlns="http://www.w3.org/2000/svg" data-scheme="monochrome"><defs><g id="icon-def"><path d="M8.175 11.975C7.775 11.775 7.375 11.575 7.075 11.275L6.775 10.975C5.475 9.675 5.475 7.575 6.775 6.275L11.075 1.975C12.375 0.675 14.475 0.675 15.775 1.975L16.075 2.275C17.375 3.575 17.375 5.675 16.075 6.975L13.975 9.075M9.875 5.675C10.275 5.875 10.675 6.075 10.975 6.375L11.275 6.675C12.575 7.975 12.575 10.075 11.275 11.375L6.975 15.675C5.675 16.975 3.575 16.975 2.275 15.675L1.975 15.375C0.675 14.075 0.675 11.975 1.975 10.675L4.075 8.575" stroke="var(--color)" stroke-width="1.2" stroke-linecap="round" stroke-linejoin="round" fill="transparent"/></g></defs><view id="on-surface--enabled" viewBox="0 0 18 18"/><use href="#icon-def" x="0" y="0" style="--color:#999999"/><view id="on-surface--hover" viewBox="18 0 18 18"/><use href="#icon-def" x="18" y="0" style="--color:#999999"/><view id="on-surface--active" viewBox="36 0 18 18"/><use href="#icon-def" x="36" y="0" style="--color:#999999"/><view id="on-surface--disabled" viewBox="54 0 18 18"/><use href="#icon-def" x="54" y="0" style="--color:#999999"/><view id="on-elevation--enabled" viewBox="0 72 18 18"/><use href="#icon-def" x="0" y="72" style="--color:#CCCCCC"/><view id="primary--enabled" viewBox="0 90 18 18"/><use href="#icon-def" x="0" y="90" style="--color:#5ba7ff"/><view id="primary--hover" viewBox="18 90 18 18"/><use href="#icon-def" x="18" y="90" style="--color:#437dc0"/><view id="primary--active" viewBox="36 90 18 18"/><use href="#icon-def" x="36" y="90" style="--color:#335884"/><view id="primary--disabled" viewBox="54 90 18 18"/><use href="#icon-def" x="54" y="90" style="--color:#4D4D4D"/></svg>