<svg viewBox="0 0 18 19" xmlns="http://www.w3.org/2000/svg" data-scheme="monochrome"><defs><g id="icon-def"><path d="M3 3.9V14.6C3 15.6 3 16.1 3.2 16.5C3.4 16.8 3.8 17.1 4.2 17.3C4.7 17.5 5.3 17.5 6.6 17.5H10.7C12 17.5 12.6 17.5 13.1 17.3C13.5 17.1 13.9 16.8 14.1 16.5C14.3 16.1 14.3 15.6 14.3 14.6V3.9C14.3 2.9 14.3 2.4 14.1 2C13.9 1.7 13.5 1.4 13.1 1.2C12.6 1 12 1 10.7 1H6.6C5.3 1 4.7 1 4.2 1.2C3.8 1.4 3.5 1.7 3.2 2C3 2.4 3 2.9 3 3.9Z" stroke="var(--color)" stroke-width="1.2" stroke-linecap="round" stroke-linejoin="round" fill="transparent"/><path d="M8.59999 14.4C9.26274 14.4 9.79999 13.8627 9.79999 13.2C9.79999 12.5373 9.26274 12 8.59999 12C7.93725 12 7.39999 12.5373 7.39999 13.2C7.39999 13.8627 7.93725 14.4 8.59999 14.4Z" fill="var(--color)" stroke="var(--color)" stroke-width="1.2" stroke-miterlimit="10"/></g></defs><view id="on-surface--enabled" viewBox="0 0 18 19"/><use href="#icon-def" x="0" y="0" style="--color:#999999"/><view id="on-surface--hover" viewBox="18 0 18 19"/><use href="#icon-def" x="18" y="0" style="--color:#999999"/><view id="on-surface--active" viewBox="36 0 18 19"/><use href="#icon-def" x="36" y="0" style="--color:#999999"/><view id="on-surface--disabled" viewBox="54 0 18 19"/><use href="#icon-def" x="54" y="0" style="--color:#999999"/><view id="on-elevation--enabled" viewBox="0 76 18 19"/><use href="#icon-def" x="0" y="76" style="--color:#CCCCCC"/><view id="primary--enabled" viewBox="0 95 18 19"/><use href="#icon-def" x="0" y="95" style="--color:#5ba7ff"/><view id="primary--hover" viewBox="18 95 18 19"/><use href="#icon-def" x="18" y="95" style="--color:#437dc0"/><view id="primary--active" viewBox="36 95 18 19"/><use href="#icon-def" x="36" y="95" style="--color:#335884"/><view id="primary--disabled" viewBox="54 95 18 19"/><use href="#icon-def" x="54" y="95" style="--color:#4D4D4D"/></svg>