<svg viewBox="0 0 16 16" xmlns="http://www.w3.org/2000/svg" data-scheme="monochrome"><defs><g id="icon-def"><path fill="var(--color)" d="M3.267 9.733 2.883 10.9a.664.664 0 0 1-.233.308.597.597 0 0 1-.367.125.649.649 0 0 1-.541-.275.586.586 0 0 1-.075-.608l2-5.35a.71.71 0 0 1 .25-.317.652.652 0 0 1 .383-.116h.5c.144 0 .272.039.383.116a.71.71 0 0 1 .25.317l2.017 5.383a.593.593 0 0 1-.075.584.612.612 0 0 1-.525.266.597.597 0 0 1-.367-.125.664.664 0 0 1-.233-.308l-.417-1.167H3.267Zm.4-1.133H5.4l-.8-2.5h-.1l-.833 2.5Zm6.966 1.533H13.4c.167 0 .308.059.425.175a.579.579 0 0 1 .175.425.578.578 0 0 1-.175.425.578.578 0 0 1-.425.175H9.533a.386.386 0 0 1-.283-.116.386.386 0 0 1-.117-.284V10.3a.76.76 0 0 1 .034-.225.459.459 0 0 1 .116-.192L12.5 5.867H9.867a.579.579 0 0 1-.425-.175.579.579 0 0 1-.175-.425c0-.167.058-.309.175-.425a.579.579 0 0 1 .425-.175h3.7a.39.39 0 0 1 .283.116.386.386 0 0 1 .117.284V5.7a.761.761 0 0 1-.034.225.46.46 0 0 1-.116.192l-3.184 4.016ZM6.4 3.333c-.078 0-.13-.033-.158-.1-.028-.066-.014-.127.041-.183l1.484-1.483a.32.32 0 0 1 .466 0L9.717 3.05c.055.056.07.117.041.183-.027.067-.08.1-.158.1H6.4Zm1.367 11.1L6.283 12.95c-.055-.055-.07-.117-.041-.183.027-.067.08-.1.158-.1h3.2c.078 0 .13.033.158.1.028.066.014.128-.041.183l-1.484 1.483a.32.32 0 0 1-.233.1.32.32 0 0 1-.233-.1Z"/></g></defs><view id="on-surface--enabled" viewBox="0 0 16 16"/><use href="#icon-def" x="0" y="0" style="--color:#999999"/><view id="on-surface--hover" viewBox="16 0 16 16"/><use href="#icon-def" x="16" y="0" style="--color:#999999"/><view id="on-surface--active" viewBox="32 0 16 16"/><use href="#icon-def" x="32" y="0" style="--color:#999999"/><view id="on-surface--disabled" viewBox="48 0 16 16"/><use href="#icon-def" x="48" y="0" style="--color:#999999"/><view id="on-primary--enabled" viewBox="0 16 16 16"/><use href="#icon-def" x="0" y="16" style="--color:#1A1A1A"/><view id="on-primary--hover" viewBox="16 16 16 16"/><use href="#icon-def" x="16" y="16" style="--color:#1A1A1A"/><view id="on-primary--active" viewBox="32 16 16 16"/><use href="#icon-def" x="32" y="16" style="--color:#FFFFFF"/><view id="on-primary--disabled" viewBox="48 16 16 16"/><use href="#icon-def" x="48" y="16" style="--color:#7F7F7F"/><view id="on-disabled--enabled" viewBox="0 32 16 16"/><use href="#icon-def" x="0" y="32" style="--color:#7F7F7F"/><view id="on-message--enabled" viewBox="0 48 16 16"/><use href="#icon-def" x="0" y="48" style="--color:#333333"/><view id="on-elevation--enabled" viewBox="0 64 16 16"/><use href="#icon-def" x="0" y="64" style="--color:#CCCCCC"/><view id="primary--enabled" viewBox="0 80 16 16"/><use href="#icon-def" x="0" y="80" style="--color:#5ba7ff"/><view id="primary--hover" viewBox="16 80 16 16"/><use href="#icon-def" x="16" y="80" style="--color:#437dc0"/><view id="primary--active" viewBox="32 80 16 16"/><use href="#icon-def" x="32" y="80" style="--color:#335884"/><view id="primary--disabled" viewBox="48 80 16 16"/><use href="#icon-def" x="48" y="80" style="--color:#4D4D4D"/><view id="error--enabled" viewBox="0 96 16 16"/><use href="#icon-def" x="0" y="96" style="--color:#E35861"/><view id="error-actionable--enabled" viewBox="0 112 16 16"/><use href="#icon-def" x="0" y="112" style="--color:#E1ECF9"/><view id="error-actionable--hover" viewBox="16 112 16 16"/><use href="#icon-def" x="16" y="112" style="--color:#A63A41"/><view id="error-actionable--active" viewBox="32 112 16 16"/><use href="#icon-def" x="32" y="112" style="--color:#E1ECF9"/><view id="error-actionable--disabled" viewBox="48 112 16 16"/><use href="#icon-def" x="48" y="112" style="--color:#828B96"/><view id="warning--enabled" viewBox="0 128 16 16"/><use href="#icon-def" x="0" y="128" style="--color:#F9BD56"/><view id="success--enabled" viewBox="0 144 16 16"/><use href="#icon-def" x="0" y="144" style="--color:#3FA89B"/><view id="neutral--enabled" viewBox="0 160 16 16"/><use href="#icon-def" x="0" y="160" style="--color:#B3B3B3"/><view id="neutral--hover" viewBox="16 160 16 16"/><use href="#icon-def" x="16" y="160" style="--color:#437DC0"/><view id="neutral--active" viewBox="32 160 16 16"/><use href="#icon-def" x="32" y="160" style="--color:#FFFFFF"/><view id="neutral--disabled" viewBox="48 160 16 16"/><use href="#icon-def" x="48" y="160" style="--color:#7F7F7F"/><view id="highlighted--enabled" viewBox="0 176 16 16"/><use href="#icon-def" x="0" y="176" style="--color:#CCCCCC"/><view id="bright--enabled" viewBox="0 192 16 16"/><use href="#icon-def" x="0" y="192" style="--color:#FFFFFF"/></svg>