<svg viewBox="0 0 16 16" xmlns="http://www.w3.org/2000/svg" data-scheme="monochrome"><defs><g id="icon-def"><path fill="var(--color)" d="M2.5 14.667a.485.485 0 0 1-.5-.5.486.486 0 0 1 .5-.5h1.167v-.5h-.5a.485.485 0 0 1-.5-.5.486.486 0 0 1 .5-.5h.5v-.5H2.5a.485.485 0 0 1-.5-.5.486.486 0 0 1 .5-.5H4c.189 0 .347.064.475.191a.645.645 0 0 1 .192.475V12a.645.645 0 0 1-.192.475.645.645 0 0 1-.475.192c.189 0 .347.064.475.191a.645.645 0 0 1 .192.475V14a.645.645 0 0 1-.192.475.645.645 0 0 1-.475.192H2.5ZM2.5 10a.486.486 0 0 1-.5-.5V8.167c0-.19.064-.348.192-.475a.645.645 0 0 1 .475-.192h1V7H2.5a.486.486 0 0 1-.5-.5.486.486 0 0 1 .5-.5H4c.189 0 .347.064.475.192a.645.645 0 0 1 .192.475v1.166a.645.645 0 0 1-.192.475A.645.645 0 0 1 4 8.5H3V9h1.167a.486.486 0 0 1 .5.5.486.486 0 0 1-.5.5H2.5Zm1-4.667a.486.486 0 0 1-.5-.5v-2.5h-.5a.486.486 0 0 1-.5-.5.486.486 0 0 1 .5-.5h1a.486.486 0 0 1 .5.5v3a.486.486 0 0 1-.5.5Zm3.167 7.334a.645.645 0 0 1-.475-.192A.645.645 0 0 1 6 12c0-.189.064-.347.192-.475a.645.645 0 0 1 .475-.192h6.666c.19 0 .348.064.475.192A.645.645 0 0 1 14 12a.645.645 0 0 1-.192.475.645.645 0 0 1-.475.192H6.667Zm0-4a.645.645 0 0 1-.475-.192A.645.645 0 0 1 6 8c0-.189.064-.347.192-.475a.645.645 0 0 1 .475-.192h6.666c.19 0 .348.064.475.192A.645.645 0 0 1 14 8a.645.645 0 0 1-.192.475.645.645 0 0 1-.475.192H6.667Zm0-4a.645.645 0 0 1-.475-.192A.645.645 0 0 1 6 4c0-.189.064-.347.192-.475a.645.645 0 0 1 .475-.192h6.666c.19 0 .348.064.475.192A.645.645 0 0 1 14 4a.645.645 0 0 1-.192.475.645.645 0 0 1-.475.192H6.667Z"/></g></defs><view id="on-surface--enabled" viewBox="0 0 16 16"/><use href="#icon-def" x="0" y="0" style="--color:#999999"/><view id="on-surface--hover" viewBox="16 0 16 16"/><use href="#icon-def" x="16" y="0" style="--color:#999999"/><view id="on-surface--active" viewBox="32 0 16 16"/><use href="#icon-def" x="32" y="0" style="--color:#999999"/><view id="on-surface--disabled" viewBox="48 0 16 16"/><use href="#icon-def" x="48" y="0" style="--color:#999999"/><view id="on-primary--enabled" viewBox="0 16 16 16"/><use href="#icon-def" x="0" y="16" style="--color:#1A1A1A"/><view id="on-primary--hover" viewBox="16 16 16 16"/><use href="#icon-def" x="16" y="16" style="--color:#1A1A1A"/><view id="on-primary--active" viewBox="32 16 16 16"/><use href="#icon-def" x="32" y="16" style="--color:#FFFFFF"/><view id="on-primary--disabled" viewBox="48 16 16 16"/><use href="#icon-def" x="48" y="16" style="--color:#7F7F7F"/><view id="on-disabled--enabled" viewBox="0 32 16 16"/><use href="#icon-def" x="0" y="32" style="--color:#7F7F7F"/><view id="on-message--enabled" viewBox="0 48 16 16"/><use href="#icon-def" x="0" y="48" style="--color:#333333"/><view id="on-elevation--enabled" viewBox="0 64 16 16"/><use href="#icon-def" x="0" y="64" style="--color:#CCCCCC"/><view id="primary--enabled" viewBox="0 80 16 16"/><use href="#icon-def" x="0" y="80" style="--color:#5ba7ff"/><view id="primary--hover" viewBox="16 80 16 16"/><use href="#icon-def" x="16" y="80" style="--color:#437dc0"/><view id="primary--active" viewBox="32 80 16 16"/><use href="#icon-def" x="32" y="80" style="--color:#335884"/><view id="primary--disabled" viewBox="48 80 16 16"/><use href="#icon-def" x="48" y="80" style="--color:#4D4D4D"/><view id="error--enabled" viewBox="0 96 16 16"/><use href="#icon-def" x="0" y="96" style="--color:#E35861"/><view id="error-actionable--enabled" viewBox="0 112 16 16"/><use href="#icon-def" x="0" y="112" style="--color:#E1ECF9"/><view id="error-actionable--hover" viewBox="16 112 16 16"/><use href="#icon-def" x="16" y="112" style="--color:#A63A41"/><view id="error-actionable--active" viewBox="32 112 16 16"/><use href="#icon-def" x="32" y="112" style="--color:#E1ECF9"/><view id="error-actionable--disabled" viewBox="48 112 16 16"/><use href="#icon-def" x="48" y="112" style="--color:#828B96"/><view id="warning--enabled" viewBox="0 128 16 16"/><use href="#icon-def" x="0" y="128" style="--color:#F9BD56"/><view id="success--enabled" viewBox="0 144 16 16"/><use href="#icon-def" x="0" y="144" style="--color:#3FA89B"/><view id="neutral--enabled" viewBox="0 160 16 16"/><use href="#icon-def" x="0" y="160" style="--color:#B3B3B3"/><view id="neutral--hover" viewBox="16 160 16 16"/><use href="#icon-def" x="16" y="160" style="--color:#437DC0"/><view id="neutral--active" viewBox="32 160 16 16"/><use href="#icon-def" x="32" y="160" style="--color:#FFFFFF"/><view id="neutral--disabled" viewBox="48 160 16 16"/><use href="#icon-def" x="48" y="160" style="--color:#7F7F7F"/><view id="highlighted--enabled" viewBox="0 176 16 16"/><use href="#icon-def" x="0" y="176" style="--color:#CCCCCC"/><view id="bright--enabled" viewBox="0 192 16 16"/><use href="#icon-def" x="0" y="192" style="--color:#FFFFFF"/></svg>