<svg viewBox="0 0 18 18" xmlns="http://www.w3.org/2000/svg" data-scheme="monochrome"><defs><g id="icon-def"><path d="M8.1 1H1V8.1H8.1V1Z" stroke="var(--color)" stroke-width="1.2" stroke-linecap="round" stroke-linejoin="round" fill="transparent"/><path d="M8.1 9.9H1V17H8.1V9.9Z" stroke="var(--color)" stroke-width="1.2" stroke-linecap="round" stroke-linejoin="round" fill="transparent"/><path d="M17 1H9.9V8.1H17V1Z" stroke="var(--color)" stroke-width="1.2" stroke-linecap="round" stroke-linejoin="round" fill="transparent"/><path d="M11.7 9.9H9.9V11.7H11.7V9.9Z" fill="var(--color)"/><path d="M13.5 11.7H11.7V13.5H13.5V11.7Z" fill="var(--color)"/><path d="M11.7 13.5H9.9V15.3H11.7V13.5Z" fill="var(--color)"/><path d="M15.3 13.5H13.5V15.3H15.3V13.5Z" fill="var(--color)"/><path d="M17.1 15.3H15.3V17.1H17.1V15.3Z" fill="var(--color)"/><path d="M13.5 15.3H11.7V17.1H13.5V15.3Z" fill="var(--color)"/><path d="M15.3 9.9H13.5V11.7H15.3V9.9Z" fill="var(--color)"/><path d="M17.1 11.7H15.3V13.5H17.1V11.7Z" fill="var(--color)"/></g></defs><view id="on-surface--enabled" viewBox="0 0 18 18"/><use href="#icon-def" x="0" y="0" style="--color:#999999"/><view id="on-surface--hover" viewBox="18 0 18 18"/><use href="#icon-def" x="18" y="0" style="--color:#999999"/><view id="on-surface--active" viewBox="36 0 18 18"/><use href="#icon-def" x="36" y="0" style="--color:#999999"/><view id="on-surface--disabled" viewBox="54 0 18 18"/><use href="#icon-def" x="54" y="0" style="--color:#999999"/><view id="on-elevation--enabled" viewBox="0 72 18 18"/><use href="#icon-def" x="0" y="72" style="--color:#CCCCCC"/></svg>