<svg viewBox="0 0 18 18" xmlns="http://www.w3.org/2000/svg" data-scheme="monochrome"><defs><g id="icon-def"><path d="M11.7 1H2.7C1.7 1 1 1.8 1 2.7V14.9C1 15.9 1.8 16.6 2.7 16.6H14.9C15.9 16.6 16.6 15.8 16.6 14.9V5.9L11.7 1Z" stroke="var(--color)" stroke-width="1.2" stroke-linecap="round" stroke-linejoin="round" fill="transparent"/><path d="M11.6 1V4.8H5.5V1" stroke="var(--color)" stroke-width="1.2" stroke-linecap="round" stroke-linejoin="round" fill="transparent"/><path d="M4.5 16.3V12C4.5 11.1 5.3 10.3 6.2 10.3H11.3C12.2 10.3 13 11.1 13 12V16.3" stroke="var(--color)" stroke-width="1.2" stroke-linecap="round" stroke-linejoin="round" fill="transparent"/></g></defs><view id="on-surface--enabled" viewBox="0 0 18 18"/><use href="#icon-def" x="0" y="0" style="--color:#999999"/><view id="on-surface--hover" viewBox="18 0 18 18"/><use href="#icon-def" x="18" y="0" style="--color:#999999"/><view id="on-surface--active" viewBox="36 0 18 18"/><use href="#icon-def" x="36" y="0" style="--color:#999999"/><view id="on-surface--disabled" viewBox="54 0 18 18"/><use href="#icon-def" x="54" y="0" style="--color:#999999"/><view id="on-elevation--enabled" viewBox="0 72 18 18"/><use href="#icon-def" x="0" y="72" style="--color:#CCCCCC"/><view id="primary--enabled" viewBox="0 90 18 18"/><use href="#icon-def" x="0" y="90" style="--color:#5ba7ff"/><view id="primary--hover" viewBox="18 90 18 18"/><use href="#icon-def" x="18" y="90" style="--color:#437dc0"/><view id="primary--active" viewBox="36 90 18 18"/><use href="#icon-def" x="36" y="90" style="--color:#335884"/><view id="primary--disabled" viewBox="54 90 18 18"/><use href="#icon-def" x="54" y="90" style="--color:#4D4D4D"/></svg>