<svg viewBox="0 0 16 17" xmlns="http://www.w3.org/2000/svg" data-scheme="monochrome"><defs><g id="icon-def"><path fill="var(--color)" d="M11.333 14.936a1.929 1.929 0 0 1-1.416-.583 1.929 1.929 0 0 1-.584-1.417c0-.066.017-.222.05-.466L4.7 9.736a1.976 1.976 0 0 1-1.367.534 1.929 1.929 0 0 1-1.416-.584 1.929 1.929 0 0 1-.584-1.416c0-.556.195-1.028.584-1.417a1.929 1.929 0 0 1 1.416-.583 1.98 1.98 0 0 1 1.367.533L9.383 4.07a1.137 1.137 0 0 1-.041-.225 3.171 3.171 0 0 1-.009-.242c0-.556.195-1.028.584-1.417a1.929 1.929 0 0 1 1.416-.583c.556 0 1.028.194 1.417.583.389.39.583.861.583 1.417s-.194 1.028-.583 1.417a1.929 1.929 0 0 1-1.417.583 1.98 1.98 0 0 1-1.366-.533L5.283 7.803c.023.078.036.153.042.225a3.172 3.172 0 0 1 0 .483c-.006.073-.02.148-.042.225l4.684 2.734a1.977 1.977 0 0 1 1.366-.534 1.93 1.93 0 0 1 1.417.584c.389.389.583.86.583 1.416 0 .556-.194 1.028-.583 1.417a1.929 1.929 0 0 1-1.417.583Zm0-1.333a.645.645 0 0 0 .475-.192.645.645 0 0 0 .192-.475.645.645 0 0 0-.192-.475.645.645 0 0 0-.475-.191.645.645 0 0 0-.475.191.645.645 0 0 0-.191.475c0 .19.064.348.191.475a.645.645 0 0 0 .475.192Zm-8-4.667a.645.645 0 0 0 .475-.191A.645.645 0 0 0 4 8.27a.645.645 0 0 0-.192-.475.645.645 0 0 0-.475-.192.645.645 0 0 0-.475.192.645.645 0 0 0-.191.475c0 .189.064.347.191.475a.645.645 0 0 0 .475.191Zm8-4.666a.645.645 0 0 0 .475-.192.645.645 0 0 0 .192-.475.645.645 0 0 0-.192-.475.645.645 0 0 0-.475-.192.645.645 0 0 0-.475.192.645.645 0 0 0-.191.475c0 .189.064.347.191.475a.645.645 0 0 0 .475.192Z"/></g></defs><view id="on-surface--enabled" viewBox="0 0 16 17"/><use href="#icon-def" x="0" y="0" style="--color:#999999"/><view id="on-surface--hover" viewBox="16 0 16 17"/><use href="#icon-def" x="16" y="0" style="--color:#999999"/><view id="on-surface--active" viewBox="32 0 16 17"/><use href="#icon-def" x="32" y="0" style="--color:#999999"/><view id="on-surface--disabled" viewBox="48 0 16 17"/><use href="#icon-def" x="48" y="0" style="--color:#999999"/><view id="on-primary--enabled" viewBox="0 17 16 17"/><use href="#icon-def" x="0" y="17" style="--color:#1A1A1A"/><view id="on-primary--hover" viewBox="16 17 16 17"/><use href="#icon-def" x="16" y="17" style="--color:#1A1A1A"/><view id="on-primary--active" viewBox="32 17 16 17"/><use href="#icon-def" x="32" y="17" style="--color:#FFFFFF"/><view id="on-primary--disabled" viewBox="48 17 16 17"/><use href="#icon-def" x="48" y="17" style="--color:#7F7F7F"/><view id="on-disabled--enabled" viewBox="0 34 16 17"/><use href="#icon-def" x="0" y="34" style="--color:#7F7F7F"/><view id="on-message--enabled" viewBox="0 51 16 17"/><use href="#icon-def" x="0" y="51" style="--color:#333333"/><view id="on-elevation--enabled" viewBox="0 68 16 17"/><use href="#icon-def" x="0" y="68" style="--color:#CCCCCC"/><view id="primary--enabled" viewBox="0 85 16 17"/><use href="#icon-def" x="0" y="85" style="--color:#5ba7ff"/><view id="primary--hover" viewBox="16 85 16 17"/><use href="#icon-def" x="16" y="85" style="--color:#437dc0"/><view id="primary--active" viewBox="32 85 16 17"/><use href="#icon-def" x="32" y="85" style="--color:#335884"/><view id="primary--disabled" viewBox="48 85 16 17"/><use href="#icon-def" x="48" y="85" style="--color:#4D4D4D"/><view id="error--enabled" viewBox="0 102 16 17"/><use href="#icon-def" x="0" y="102" style="--color:#E35861"/><view id="error-actionable--enabled" viewBox="0 119 16 17"/><use href="#icon-def" x="0" y="119" style="--color:#E1ECF9"/><view id="error-actionable--hover" viewBox="16 119 16 17"/><use href="#icon-def" x="16" y="119" style="--color:#A63A41"/><view id="error-actionable--active" viewBox="32 119 16 17"/><use href="#icon-def" x="32" y="119" style="--color:#E1ECF9"/><view id="error-actionable--disabled" viewBox="48 119 16 17"/><use href="#icon-def" x="48" y="119" style="--color:#828B96"/><view id="warning--enabled" viewBox="0 136 16 17"/><use href="#icon-def" x="0" y="136" style="--color:#F9BD56"/><view id="success--enabled" viewBox="0 153 16 17"/><use href="#icon-def" x="0" y="153" style="--color:#3FA89B"/><view id="neutral--enabled" viewBox="0 170 16 17"/><use href="#icon-def" x="0" y="170" style="--color:#B3B3B3"/><view id="neutral--hover" viewBox="16 170 16 17"/><use href="#icon-def" x="16" y="170" style="--color:#437DC0"/><view id="neutral--active" viewBox="32 170 16 17"/><use href="#icon-def" x="32" y="170" style="--color:#FFFFFF"/><view id="neutral--disabled" viewBox="48 170 16 17"/><use href="#icon-def" x="48" y="170" style="--color:#7F7F7F"/><view id="highlighted--enabled" viewBox="0 187 16 17"/><use href="#icon-def" x="0" y="187" style="--color:#CCCCCC"/><view id="bright--enabled" viewBox="0 204 16 17"/><use href="#icon-def" x="0" y="204" style="--color:#FFFFFF"/></svg>