<svg viewBox="0 0 16 16" xmlns="http://www.w3.org/2000/svg" data-scheme="monochrome"><defs><g id="icon-def"><path fill="var(--color)" d="M11.333 14.667a1.929 1.929 0 0 1-1.416-.584 1.929 1.929 0 0 1-.584-1.416c0-.067.017-.223.05-.467L4.7 9.467A1.977 1.977 0 0 1 3.333 10a1.929 1.929 0 0 1-1.416-.583A1.929 1.929 0 0 1 1.333 8c0-.556.195-1.028.584-1.417A1.929 1.929 0 0 1 3.333 6a1.98 1.98 0 0 1 1.367.533L9.383 3.8a1.137 1.137 0 0 1-.041-.225 3.172 3.172 0 0 1-.009-.242c0-.555.195-1.027.584-1.416a1.929 1.929 0 0 1 1.416-.584 1.93 1.93 0 0 1 1.417.584c.389.389.583.86.583 1.416 0 .556-.194 1.028-.583 1.417a1.929 1.929 0 0 1-1.417.583A1.98 1.98 0 0 1 9.967 4.8L5.283 7.533c.023.078.036.153.042.225a3.172 3.172 0 0 1 0 .484c-.006.072-.02.147-.042.225L9.967 11.2a1.977 1.977 0 0 1 1.366-.533c.556 0 1.028.194 1.417.583.389.389.583.861.583 1.417 0 .555-.194 1.027-.583 1.416a1.928 1.928 0 0 1-1.417.584Zm0-1.334a.645.645 0 0 0 .475-.191.645.645 0 0 0 .192-.475.645.645 0 0 0-.192-.475.645.645 0 0 0-.475-.192.645.645 0 0 0-.475.192.645.645 0 0 0-.191.475c0 .189.064.347.191.475a.645.645 0 0 0 .475.191Zm-8-4.666a.645.645 0 0 0 .475-.192A.645.645 0 0 0 4 8a.645.645 0 0 0-.192-.475.645.645 0 0 0-.475-.192.645.645 0 0 0-.475.192.645.645 0 0 0-.191.475c0 .189.064.347.191.475a.645.645 0 0 0 .475.192Zm8-4.667a.645.645 0 0 0 .475-.192.645.645 0 0 0 .192-.475.645.645 0 0 0-.192-.475.645.645 0 0 0-.475-.191.645.645 0 0 0-.475.191.645.645 0 0 0-.191.475c0 .19.064.348.191.475a.645.645 0 0 0 .475.192Z"/></g></defs><view id="on-surface--enabled" viewBox="0 0 16 16"/><use href="#icon-def" x="0" y="0" style="--color:#999999"/><view id="on-surface--hover" viewBox="16 0 16 16"/><use href="#icon-def" x="16" y="0" style="--color:#999999"/><view id="on-surface--active" viewBox="32 0 16 16"/><use href="#icon-def" x="32" y="0" style="--color:#999999"/><view id="on-surface--disabled" viewBox="48 0 16 16"/><use href="#icon-def" x="48" y="0" style="--color:#999999"/><view id="on-primary--enabled" viewBox="0 16 16 16"/><use href="#icon-def" x="0" y="16" style="--color:#1A1A1A"/><view id="on-primary--hover" viewBox="16 16 16 16"/><use href="#icon-def" x="16" y="16" style="--color:#1A1A1A"/><view id="on-primary--active" viewBox="32 16 16 16"/><use href="#icon-def" x="32" y="16" style="--color:#FFFFFF"/><view id="on-primary--disabled" viewBox="48 16 16 16"/><use href="#icon-def" x="48" y="16" style="--color:#7F7F7F"/><view id="on-disabled--enabled" viewBox="0 32 16 16"/><use href="#icon-def" x="0" y="32" style="--color:#7F7F7F"/><view id="on-message--enabled" viewBox="0 48 16 16"/><use href="#icon-def" x="0" y="48" style="--color:#333333"/><view id="on-elevation--enabled" viewBox="0 64 16 16"/><use href="#icon-def" x="0" y="64" style="--color:#CCCCCC"/><view id="primary--enabled" viewBox="0 80 16 16"/><use href="#icon-def" x="0" y="80" style="--color:#5ba7ff"/><view id="primary--hover" viewBox="16 80 16 16"/><use href="#icon-def" x="16" y="80" style="--color:#437dc0"/><view id="primary--active" viewBox="32 80 16 16"/><use href="#icon-def" x="32" y="80" style="--color:#335884"/><view id="primary--disabled" viewBox="48 80 16 16"/><use href="#icon-def" x="48" y="80" style="--color:#4D4D4D"/><view id="error--enabled" viewBox="0 96 16 16"/><use href="#icon-def" x="0" y="96" style="--color:#E35861"/><view id="error-actionable--enabled" viewBox="0 112 16 16"/><use href="#icon-def" x="0" y="112" style="--color:#E1ECF9"/><view id="error-actionable--hover" viewBox="16 112 16 16"/><use href="#icon-def" x="16" y="112" style="--color:#A63A41"/><view id="error-actionable--active" viewBox="32 112 16 16"/><use href="#icon-def" x="32" y="112" style="--color:#E1ECF9"/><view id="error-actionable--disabled" viewBox="48 112 16 16"/><use href="#icon-def" x="48" y="112" style="--color:#828B96"/><view id="warning--enabled" viewBox="0 128 16 16"/><use href="#icon-def" x="0" y="128" style="--color:#F9BD56"/><view id="success--enabled" viewBox="0 144 16 16"/><use href="#icon-def" x="0" y="144" style="--color:#3FA89B"/><view id="neutral--enabled" viewBox="0 160 16 16"/><use href="#icon-def" x="0" y="160" style="--color:#B3B3B3"/><view id="neutral--hover" viewBox="16 160 16 16"/><use href="#icon-def" x="16" y="160" style="--color:#437DC0"/><view id="neutral--active" viewBox="32 160 16 16"/><use href="#icon-def" x="32" y="160" style="--color:#FFFFFF"/><view id="neutral--disabled" viewBox="48 160 16 16"/><use href="#icon-def" x="48" y="160" style="--color:#7F7F7F"/><view id="highlighted--enabled" viewBox="0 176 16 16"/><use href="#icon-def" x="0" y="176" style="--color:#CCCCCC"/><view id="bright--enabled" viewBox="0 192 16 16"/><use href="#icon-def" x="0" y="192" style="--color:#FFFFFF"/></svg>