<svg viewBox="0 0 16 16" xmlns="http://www.w3.org/2000/svg" data-scheme="monochrome"><defs><g id="icon-def"><path fill="var(--color)" d="M8 10.667c.833 0 1.542-.292 2.125-.875A2.893 2.893 0 0 0 11 7.667c0-.834-.292-1.542-.875-2.125A2.893 2.893 0 0 0 8 4.667a2.89 2.89 0 0 0-2.125.875A2.893 2.893 0 0 0 5 7.667c0 .833.292 1.541.875 2.125A2.893 2.893 0 0 0 8 10.667Zm0-1.2c-.5 0-.925-.175-1.275-.525A1.736 1.736 0 0 1 6.2 7.667c0-.5.175-.925.525-1.275.35-.35.775-.525 1.275-.525.5 0 .925.175 1.275.525.35.35.525.775.525 1.275 0 .5-.175.925-.525 1.275-.35.35-.775.525-1.275.525Zm0 3.2c-1.489 0-2.847-.4-4.075-1.2A8.62 8.62 0 0 1 1.017 8.3a1.272 1.272 0 0 1-.125-.958c.028-.106.07-.209.125-.309a8.62 8.62 0 0 1 2.908-3.166A7.309 7.309 0 0 1 8 2.667c1.489 0 2.847.4 4.075 1.2a8.621 8.621 0 0 1 2.908 3.166 1.27 1.27 0 0 1 .125.958 1.33 1.33 0 0 1-.125.309 8.621 8.621 0 0 1-2.908 3.167A7.309 7.309 0 0 1 8 12.667Zm0-1.334c1.256 0 2.408-.33 3.458-.991a6.515 6.515 0 0 0 2.409-2.675 6.515 6.515 0 0 0-2.409-2.675A6.363 6.363 0 0 0 8 4c-1.255 0-2.408.33-3.458.992a6.515 6.515 0 0 0-2.409 2.675 6.515 6.515 0 0 0 2.409 2.675A6.363 6.363 0 0 0 8 11.333Z"/></g></defs><view id="on-surface--enabled" viewBox="0 0 16 16"/><use href="#icon-def" x="0" y="0" style="--color:#999999"/><view id="on-surface--hover" viewBox="16 0 16 16"/><use href="#icon-def" x="16" y="0" style="--color:#999999"/><view id="on-surface--active" viewBox="32 0 16 16"/><use href="#icon-def" x="32" y="0" style="--color:#999999"/><view id="on-surface--disabled" viewBox="48 0 16 16"/><use href="#icon-def" x="48" y="0" style="--color:#999999"/><view id="on-primary--enabled" viewBox="0 16 16 16"/><use href="#icon-def" x="0" y="16" style="--color:#1A1A1A"/><view id="on-primary--hover" viewBox="16 16 16 16"/><use href="#icon-def" x="16" y="16" style="--color:#1A1A1A"/><view id="on-primary--active" viewBox="32 16 16 16"/><use href="#icon-def" x="32" y="16" style="--color:#FFFFFF"/><view id="on-primary--disabled" viewBox="48 16 16 16"/><use href="#icon-def" x="48" y="16" style="--color:#7F7F7F"/><view id="on-disabled--enabled" viewBox="0 32 16 16"/><use href="#icon-def" x="0" y="32" style="--color:#7F7F7F"/><view id="on-message--enabled" viewBox="0 48 16 16"/><use href="#icon-def" x="0" y="48" style="--color:#333333"/><view id="on-elevation--enabled" viewBox="0 64 16 16"/><use href="#icon-def" x="0" y="64" style="--color:#CCCCCC"/><view id="primary--enabled" viewBox="0 80 16 16"/><use href="#icon-def" x="0" y="80" style="--color:#5ba7ff"/><view id="primary--hover" viewBox="16 80 16 16"/><use href="#icon-def" x="16" y="80" style="--color:#437dc0"/><view id="primary--active" viewBox="32 80 16 16"/><use href="#icon-def" x="32" y="80" style="--color:#335884"/><view id="primary--disabled" viewBox="48 80 16 16"/><use href="#icon-def" x="48" y="80" style="--color:#4D4D4D"/><view id="error--enabled" viewBox="0 96 16 16"/><use href="#icon-def" x="0" y="96" style="--color:#E35861"/><view id="error-actionable--enabled" viewBox="0 112 16 16"/><use href="#icon-def" x="0" y="112" style="--color:#E1ECF9"/><view id="error-actionable--hover" viewBox="16 112 16 16"/><use href="#icon-def" x="16" y="112" style="--color:#A63A41"/><view id="error-actionable--active" viewBox="32 112 16 16"/><use href="#icon-def" x="32" y="112" style="--color:#E1ECF9"/><view id="error-actionable--disabled" viewBox="48 112 16 16"/><use href="#icon-def" x="48" y="112" style="--color:#828B96"/><view id="warning--enabled" viewBox="0 128 16 16"/><use href="#icon-def" x="0" y="128" style="--color:#F9BD56"/><view id="success--enabled" viewBox="0 144 16 16"/><use href="#icon-def" x="0" y="144" style="--color:#3FA89B"/><view id="neutral--enabled" viewBox="0 160 16 16"/><use href="#icon-def" x="0" y="160" style="--color:#B3B3B3"/><view id="neutral--hover" viewBox="16 160 16 16"/><use href="#icon-def" x="16" y="160" style="--color:#437DC0"/><view id="neutral--active" viewBox="32 160 16 16"/><use href="#icon-def" x="32" y="160" style="--color:#FFFFFF"/><view id="neutral--disabled" viewBox="48 160 16 16"/><use href="#icon-def" x="48" y="160" style="--color:#7F7F7F"/><view id="highlighted--enabled" viewBox="0 176 16 16"/><use href="#icon-def" x="0" y="176" style="--color:#CCCCCC"/><view id="bright--enabled" viewBox="0 192 16 16"/><use href="#icon-def" x="0" y="192" style="--color:#FFFFFF"/></svg>