<svg viewBox="0 0 18 18" xmlns="http://www.w3.org/2000/svg" data-scheme="monochrome"><defs><g id="icon-def"><path d="M12.6 16.6C11.4 15.6 8.5 11.8 8.5 11.8C8.5 11.8 5.4 12.6 3 10.9C-0.699999 8.3 1.2 4.4 1.2 4.4L4.3 7.4L7.1 7L7.3 4.2L4.3 1.1C4.3 1.1 8.2 -0.800001 10.8 2.9C12.5 5.4 11.7 8.4 11.7 8.4C11.7 8.4 15.5 11.3 16.5 12.5C17 13.1 17.9 14.5 16.2 16.3C14.5 18.1 13.2 17.1 12.6 16.6Z" stroke="var(--color)" stroke-width="1.2" stroke-linecap="square" stroke-linejoin="round" fill="transparent"/></g></defs><view id="on-surface--enabled" viewBox="0 0 18 18"/><use href="#icon-def" x="0" y="0" style="--color:#999999"/><view id="on-surface--hover" viewBox="18 0 18 18"/><use href="#icon-def" x="18" y="0" style="--color:#999999"/><view id="on-surface--active" viewBox="36 0 18 18"/><use href="#icon-def" x="36" y="0" style="--color:#999999"/><view id="on-surface--disabled" viewBox="54 0 18 18"/><use href="#icon-def" x="54" y="0" style="--color:#999999"/><view id="on-elevation--enabled" viewBox="0 72 18 18"/><use href="#icon-def" x="0" y="72" style="--color:#CCCCCC"/><view id="primary--enabled" viewBox="0 90 18 18"/><use href="#icon-def" x="0" y="90" style="--color:#5ba7ff"/><view id="primary--hover" viewBox="18 90 18 18"/><use href="#icon-def" x="18" y="90" style="--color:#437dc0"/><view id="primary--active" viewBox="36 90 18 18"/><use href="#icon-def" x="36" y="90" style="--color:#335884"/><view id="primary--disabled" viewBox="54 90 18 18"/><use href="#icon-def" x="54" y="90" style="--color:#4D4D4D"/></svg>