<svg viewBox="0 0 19 18" xmlns="http://www.w3.org/2000/svg" data-scheme="monochrome"><defs><g id="icon-def"><path d="M9.5266 1.075L17.5266 16.275C17.6266 16.475 17.5266 16.775 17.2266 16.775H1.3266C1.1266 16.775 0.926599 16.475 1.0266 16.275L9.0266 1.075C9.1266 0.975 9.4266 0.975 9.5266 1.075Z" stroke="var(--color)" stroke-width="1.2" stroke-linecap="round" stroke-linejoin="round" fill="transparent"/><path d="M9.3266 6.47501V11.275" stroke="var(--color)" stroke-width="1.2" stroke-linecap="round" stroke-linejoin="round" fill="transparent"/><path d="M9.3266 14.275C9.76843 14.275 10.1266 13.9168 10.1266 13.475C10.1266 13.0332 9.76843 12.675 9.3266 12.675C8.88477 12.675 8.5266 13.0332 8.5266 13.475C8.5266 13.9168 8.88477 14.275 9.3266 14.275Z" fill="var(--color)"/></g></defs><view id="on-surface--enabled" viewBox="0 0 19 18"/><use href="#icon-def" x="0" y="0" style="--color:#999999"/><view id="on-surface--hover" viewBox="19 0 19 18"/><use href="#icon-def" x="19" y="0" style="--color:#999999"/><view id="on-surface--active" viewBox="38 0 19 18"/><use href="#icon-def" x="38" y="0" style="--color:#999999"/><view id="on-surface--disabled" viewBox="57 0 19 18"/><use href="#icon-def" x="57" y="0" style="--color:#999999"/><view id="on-elevation--enabled" viewBox="0 72 19 18"/><use href="#icon-def" x="0" y="72" style="--color:#CCCCCC"/><view id="primary--enabled" viewBox="0 90 19 18"/><use href="#icon-def" x="0" y="90" style="--color:#5ba7ff"/><view id="primary--hover" viewBox="19 90 19 18"/><use href="#icon-def" x="19" y="90" style="--color:#437dc0"/><view id="primary--active" viewBox="38 90 19 18"/><use href="#icon-def" x="38" y="90" style="--color:#335884"/><view id="primary--disabled" viewBox="57 90 19 18"/><use href="#icon-def" x="57" y="90" style="--color:#4D4D4D"/></svg>