<svg viewBox="0 0 16 16" xmlns="http://www.w3.org/2000/svg" data-scheme="monochrome"><defs><g id="icon-def"><path stroke="var(--color)" stroke-linecap="round" stroke-linejoin="round" stroke-width="1.2" d="m5.511 10.578 7.822-9.69m-10.666 0 7.822 9.69m-9.6 1.867c0 .355.089.71.178.977.177.356.355.622.622.89.267.266.533.444.889.621.355.178.71.178.978.178.355 0 .71-.089.977-.178.356-.177.623-.355.89-.622a3.19 3.19 0 0 0 .621-.889c.178-.355.178-.71.178-.978 0-.355-.089-.71-.178-.977a3.192 3.192 0 0 0-.622-.89 3.193 3.193 0 0 0-.889-.621c-.355-.178-.71-.178-.977-.178-.356 0-.712.089-.978.178a3.193 3.193 0 0 0-.89.622 3.192 3.192 0 0 0-.621.889 3.195 3.195 0 0 0-.178.977Zm8.889 0c0 .71.266 1.422.8 1.866.533.534 1.155.8 1.866.8.712 0 1.423-.267 1.867-.8.533-.533.8-1.155.8-1.867 0-.71-.267-1.422-.8-1.866-.533-.534-1.155-.8-1.867-.8-.71 0-1.422.266-1.866.8-.534.444-.8 1.155-.8 1.867Z" fill="transparent"/></g></defs><view id="on-surface--enabled" viewBox="0 0 16 16"/><use href="#icon-def" x="0" y="0" style="--color:#999999"/><view id="on-surface--hover" viewBox="16 0 16 16"/><use href="#icon-def" x="16" y="0" style="--color:#999999"/><view id="on-surface--active" viewBox="32 0 16 16"/><use href="#icon-def" x="32" y="0" style="--color:#999999"/><view id="on-surface--disabled" viewBox="48 0 16 16"/><use href="#icon-def" x="48" y="0" style="--color:#999999"/><view id="on-primary--enabled" viewBox="0 16 16 16"/><use href="#icon-def" x="0" y="16" style="--color:#1A1A1A"/><view id="on-primary--hover" viewBox="16 16 16 16"/><use href="#icon-def" x="16" y="16" style="--color:#1A1A1A"/><view id="on-primary--active" viewBox="32 16 16 16"/><use href="#icon-def" x="32" y="16" style="--color:#FFFFFF"/><view id="on-primary--disabled" viewBox="48 16 16 16"/><use href="#icon-def" x="48" y="16" style="--color:#7F7F7F"/><view id="on-disabled--enabled" viewBox="0 32 16 16"/><use href="#icon-def" x="0" y="32" style="--color:#7F7F7F"/><view id="on-message--enabled" viewBox="0 48 16 16"/><use href="#icon-def" x="0" y="48" style="--color:#333333"/><view id="on-elevation--enabled" viewBox="0 64 16 16"/><use href="#icon-def" x="0" y="64" style="--color:#CCCCCC"/><view id="primary--enabled" viewBox="0 80 16 16"/><use href="#icon-def" x="0" y="80" style="--color:#5BA7FF"/><view id="primary--hover" viewBox="16 80 16 16"/><use href="#icon-def" x="16" y="80" style="--color:#437DC0"/><view id="primary--active" viewBox="32 80 16 16"/><use href="#icon-def" x="32" y="80" style="--color:#335884"/><view id="primary--disabled" viewBox="48 80 16 16"/><use href="#icon-def" x="48" y="80" style="--color:#4D4D4D"/><view id="neutral--enabled" viewBox="0 144 16 16"/><use href="#icon-def" x="0" y="144" style="--color:#B3B3B3"/><view id="neutral--hover" viewBox="16 144 16 16"/><use href="#icon-def" x="16" y="144" style="--color:#437DC0"/><view id="neutral--active" viewBox="32 144 16 16"/><use href="#icon-def" x="32" y="144" style="--color:#FFFFFF"/><view id="neutral--disabled" viewBox="48 144 16 16"/><use href="#icon-def" x="48" y="144" style="--color:#7F7F7F"/><view id="highlighted--enabled" viewBox="0 160 16 16"/><use href="#icon-def" x="0" y="160" style="--color:#CCCCCC"/><view id="bright--enabled" viewBox="0 176 16 16"/><use href="#icon-def" x="0" y="176" style="--color:#FFFFFF"/></svg>