<svg xmlns="http://www.w3.org/2000/svg" data-scheme="multicolor" viewBox="0 0 16 16"><defs><path id="icon-def" fill="var(--06)" d="M15.32 2.83c-.25 2.24-.49 4.34-.73 6.43-.11.92-.23 1.83-.31 2.75a.69.69 0 0 1-.4.62l-5.65 3.1a.6.6 0 0 1-.49 0c-1.9-1-3.8-2.08-5.68-3.15a.78.78 0 0 1-.35-.53c-.34-2.74-.64-5.49-1-8.24-.1-1.11-.12-1.1.95-1.49 2-.71 4-1.43 6-2.13.199-.06.411-.06.61 0Q11.64 1.35 15 2.58q.186.092.32.25m-2.73 9.31L8 1.8 3.38 12.14h1.38a.41.41 0 0 0 .48-.32q.31-.87.69-1.71c.05-.11.2-.27.31-.27h3.69c.27.69.53 1.35.82 2 .05.12.2.28.31.28.48.04.94.02 1.53.02M8 5.18 6.65 8.39h2.66z"/></defs><view id="enabled" viewBox="0 0 16 16"/><use href="#icon-def" style="--06:#f4608d"/><view id="hover" viewBox="16 0 16 16"/><use x="16" href="#icon-def" style="--06:#f78ead"/><view id="active" viewBox="32 0 16 16"/><use x="32" href="#icon-def" style="--06:#f03d73"/><view id="disabled" viewBox="48 0 16 16"/><use x="48" href="#icon-def" style="--06:#3e3f42"/></svg>