<svg xmlns="http://www.w3.org/2000/svg" data-scheme="multicolor" viewBox="0 0 16 16"><defs><g id="icon-def"><path fill="var(--04)" d="m8 3.23-3-1.4L8 .47a.42.42 0 0 1 .27 0l2.86 1.34zm-1.09.51-3-1.41L.72 3.77l3 1.4zm5.39 1.48 3-1.4a.07.07 0 0 0-.05-.06l-3.06-1.45-3.1 1.43zM9.57 6.49l1.63-.76L8 4.25 4.8 5.73 8 7.2h.08z"/><path fill="var(--05)" d="m4.55 6.76 3 1.48v3.1l-3-1.48zm-.91-.46L.54 4.77v3.09l3.1 1.54zm.91 7.77 3 1.48v-3.1l-3-1.45zm-.91-3.56L.54 9v3.1l3.1 1.53z"/><path fill="var(--08)" d="m8.46 8.25 3-1.48v3.11l-3 1.47zm3.88 1.17 3.12-1.55v-3.1l-3.12 1.55zm-3.88 6.13 3-1.47V11l-3 1.47zm3.88-1.92 3.12-1.55V9l-3.12 1.55z"/></g></defs><view id="enabled" viewBox="0 0 16 16"/><use href="#icon-def" style="--04:#7ccdc7;--05:#a1daa5;--08:#fab454"/><view id="hover" viewBox="16 0 16 16"/><use x="16" href="#icon-def" style="--04:#b0e0dd;--05:#c6e8c8;--08:#fddfb4"/><view id="active" viewBox="32 0 16 16"/><use x="32" href="#icon-def" style="--04:#45b9b1;--05:#7bcc81;--08:#f9a533"/><view id="disabled" viewBox="48 0 16 16"/><use x="48" href="#icon-def" style="--04:#3e3f42;--05:#3e3f42;--08:#3e3f42"/></svg>