<svg xmlns="http://www.w3.org/2000/svg" data-scheme="multicolor" viewBox="0 0 16 16"><defs><path id="icon-def" fill="var(--02)" d="M3 10v1H2v-1zM2 6v1h1V6zm0-4v1h1V2zm14 8.3v5.36a.38.38 0 0 1-.38.38H3.86a.38.38 0 0 1-.37-.38v-5.37a.38.38 0 0 1 .37-.38h11.76a.38.38 0 0 1 .38.38zm-8.55 3.75a1.4 1.4 0 0 0-.34-.93 1.5 1.5 0 0 0-1-.5l-.56-.08a.9.9 0 0 1-.55-.25.53.53 0 0 1-.17-.38.67.67 0 0 1 .25-.54.94.94 0 0 1 .59-.18c.437.01.863.142 1.23.38l.4-.57a2.8 2.8 0 0 0-1.62-.51 1.65 1.65 0 0 0-1.19.4 1.37 1.37 0 0 0-.43 1.05c-.01.34.112.669.34.92a1.6 1.6 0 0 0 1 .48l.66.09c.44.08.65.3.65.67s-.34.69-1 .7a2.2 2.2 0 0 1-1.41-.5l-.5.57a2.86 2.86 0 0 0 1.91.68c1.13-.06 1.71-.55 1.74-1.5m4.66 1-.66-.52a1.2 1.2 0 0 0 .15-.48v-1.08a10 10 0 0 0 0-1.16 1.2 1.2 0 0 0-.18-.48 1.74 1.74 0 0 0-1.56-.89 1.62 1.62 0 0 0-1 .28 1.76 1.76 0 0 0-.58.61 1.6 1.6 0 0 0-.17.48 9 9 0 0 0 0 1.16 9 9 0 0 0 0 1.15q.02.139.07.27l.1.22c.139.246.338.453.58.6a1.82 1.82 0 0 0 2.14-.14l.63.5zm3.59-.3h-2.43v-4.27h-.76v5h3.19zm-5.08-3.2a.84.84 0 0 0-.3-.25 1 1 0 0 0-1.24.25.8.8 0 0 0-.19.42 5.4 5.4 0 0 0-.06 1q-.018.504.06 1a.75.75 0 0 0 .19.42.84.84 0 0 0 .31.25.9.9 0 0 0 .46.12.82.82 0 0 0 .56-.18l-.64-.5.45-.52.58.46q.09-.496.07-1 .045-.5 0-1a.83.83 0 0 0-.25-.47M2.49 13H1a1 1 0 0 1-1-1V9a1 1 0 0 1 .15-.5A1 1 0 0 1 0 8V5a1 1 0 0 1 .16-.51A1 1 0 0 1 0 4V1a1 1 0 0 1 1-1h12a1 1 0 0 1 1 1v3a.9.9 0 0 1-.17.52c.1.14.16.307.17.48v3a1 1 0 0 1-.15.5c.09.152.142.324.15.5H1v3h1.49zM1 4h12V1H1zm0 4h12V5H1z"/></defs><view id="enabled" viewBox="0 0 16 16"/><use href="#icon-def" style="--02:#9e9ecc"/><view id="hover" viewBox="16 0 16 16"/><use x="16" href="#icon-def" style="--02:#c4c4e1"/><view id="active" viewBox="32 0 16 16"/><use x="32" href="#icon-def" style="--02:#7979b8"/><view id="disabled" viewBox="48 0 16 16"/><use x="48" href="#icon-def" style="--02:#3e3f42"/></svg>