<svg xmlns="http://www.w3.org/2000/svg" data-scheme="multicolor" viewBox="0 0 16 16"><defs><path id="icon-def" fill="var(--07)" d="M8 15.94H4.16a7.7 7.7 0 0 1-1.51-.16 3.27 3.27 0 0 1-2.56-2.96C0 12.27 0 11.71 0 11.16V4.45a7.4 7.4 0 0 1 .17-1.81A3.26 3.26 0 0 1 2.15.3 4.7 4.7 0 0 1 4 0h8a4.55 4.55 0 0 1 2 .36 3.2 3.2 0 0 1 1.7 1.73A4.6 4.6 0 0 1 16 4v7.94a4.54 4.54 0 0 1-.34 2 3.25 3.25 0 0 1-2.53 1.95 10 10 0 0 1-1.44.11H8zM1.63 9.19v.06a8.35 8.35 0 0 0 3.22 2.91c.852.46 1.787.745 2.75.84a5.55 5.55 0 0 0 2.73-.44q.54-.27 1.11-.47a1.62 1.62 0 0 1 1.29.11c.306.172.556.43.72.74l.11.11s.08-.08.09-.13q.021-.18 0-.36A4.08 4.08 0 0 0 12.8 10a.32.32 0 0 1-.05-.31c.171-.635.209-1.3.11-1.95a6.9 6.9 0 0 0-1-2.78 8.5 8.5 0 0 0-2.25-2.38c-.18-.13-.36-.24-.54-.35A6.27 6.27 0 0 1 10.14 8a38 38 0 0 1-5.92-4.77c.5.73 1 1.44 1.56 2.13s1.11 1.35 1.69 2.05a50 50 0 0 1-4.7-3.53A31.6 31.6 0 0 0 8.42 10l-.08.05a5 5 0 0 1-3 .58 7.25 7.25 0 0 1-3.27-1.16z"/></defs><view id="enabled" viewBox="0 0 16 16"/><use href="#icon-def" style="--07:#f59065"/><view id="hover" viewBox="16 0 16 16"/><use x="16" href="#icon-def" style="--07:#facebc"/><view id="active" viewBox="32 0 16 16"/><use x="32" href="#icon-def" style="--07:#f37943"/><view id="disabled" viewBox="48 0 16 16"/><use x="48" href="#icon-def" style="--07:#3e3f42"/></svg>