<svg viewBox="0 0 16 16" xmlns="http://www.w3.org/2000/svg" data-scheme="monochrome"><defs><g id="icon-def"><path fill="var(--color)" d="m13.4 1.74-1 3.14-.87-1.21L.82 11.5a.46.46 0 0 1-.29.1.51.51 0 0 1-.41-.2.51.51 0 0 1 .11-.7l10.7-7.84-.88-1.22 3.35.1Zm2.51 3.55-3.36-.1.88 1.21-.68.5.59.8.66-.49.88 1.21 1.03-3.13ZM5.33 12.34l.59.8 2.66-2-.58-.75-2.67 1.95ZM9 9.62l.59.8 2.66-1.95-.59-.8L9 9.62Zm-6.34 4.67.59.8 1.62-1.18-.59-.8-1.62 1.18Z"/></g></defs><view id="neutral--enabled" viewBox="0 144 16 16"/><use href="#icon-def" x="0" y="144" style="--color:#B3B3B3"/><view id="neutral--hover" viewBox="16 144 16 16"/><use href="#icon-def" x="16" y="144" style="--color:#96aa22"/><view id="neutral--active" viewBox="32 144 16 16"/><use href="#icon-def" x="32" y="144" style="--color:#FFFFFF"/><view id="neutral--disabled" viewBox="48 144 16 16"/><use href="#icon-def" x="48" y="144" style="--color:#7F7F7F"/></svg>