<svg viewBox="0 0 16 16" xmlns="http://www.w3.org/2000/svg" data-scheme="monochrome"><defs><g id="icon-def"><path fill="var(--color)" d="M15.15 6.49 9.45.79a2.19 2.19 0 0 0-3 0L.72 6.49a2.12 2.12 0 0 0 0 3l5.7 5.7a2.14 2.14 0 0 0 3 0l5.7-5.7a2.12 2.12 0 0 0 0-3h.03Zm-.71 2.31-5.7 5.71a1.15 1.15 0 0 1-1.61 0L1.43 8.8a1.12 1.12 0 0 1 0-1.6l5.7-5.71a1.15 1.15 0 0 1 1.61 0l5.7 5.71a1.111 1.111 0 0 1 0 1.6Zm-2-.8a.5.5 0 0 1-.5.5H8.67v3.25a.5.5 0 0 1-1 0V8.5H4.42a.5.5 0 0 1 0-1h3.25V4.25a.5.5 0 0 1 1 0V7.5h3.25a.5.5 0 0 1 .5.5h.02Z"/></g></defs><view id="neutral--enabled" viewBox="0 144 16 16"/><use href="#icon-def" x="0" y="144" style="--color:#B3B3B3"/><view id="neutral--hover" viewBox="16 144 16 16"/><use href="#icon-def" x="16" y="144" style="--color:#96aa22"/><view id="neutral--active" viewBox="32 144 16 16"/><use href="#icon-def" x="32" y="144" style="--color:#FFFFFF"/><view id="neutral--disabled" viewBox="48 144 16 16"/><use href="#icon-def" x="48" y="144" style="--color:#7F7F7F"/></svg>