<svg viewBox="0 0 32 32" xmlns="http://www.w3.org/2000/svg" data-scheme="monochrome"><defs><g id="icon-def"><path fill="var(--color)" d="M16.09 31.54A15.5 15.5 0 1 1 31.59 16a15.521 15.521 0 0 1-15.5 15.54Zm0-30A14.5 14.5 0 1 0 30.59 16a14.52 14.52 0 0 0-14.5-14.46Zm0 27A12.5 12.5 0 1 1 28.59 16a12.52 12.52 0 0 1-12.5 12.54Zm0-24A11.5 11.5 0 1 0 27.59 16a11.51 11.51 0 0 0-11.5-11.46Zm6 20h-12A1.499 1.499 0 0 1 8.59 23V9a1.5 1.5 0 0 1 1.5-1.5h12a1.5 1.5 0 0 1 1.5 1.5v14a1.499 1.499 0 0 1-1.5 1.54Zm-12-16a.51.51 0 0 0-.5.5V23a.5.5 0 0 0 .5.5h12a.5.5 0 0 0 .5-.5V9a.5.5 0 0 0-.5-.5l-12 .04Zm1 5.5h10V13h-10v1.04Zm0 2h10V15h-10v1.04Zm0 2h10V17h-10v1.04Z"/></g></defs><view id="neutral--enabled" viewBox="0 288 32 32"/><use href="#icon-def" x="0" y="288" style="--color:#B3B3B3"/><view id="neutral--hover" viewBox="32 288 32 32"/><use href="#icon-def" x="32" y="288" style="--color:#96aa22"/><view id="neutral--active" viewBox="64 288 32 32"/><use href="#icon-def" x="64" y="288" style="--color:#FFFFFF"/><view id="neutral--disabled" viewBox="96 288 32 32"/><use href="#icon-def" x="96" y="288" style="--color:#7F7F7F"/></svg>