<svg viewBox="0 0 16 16" xmlns="http://www.w3.org/2000/svg" data-scheme="monochrome"><defs><g id="icon-def"><path fill="var(--color)" fill-rule="evenodd" d="m9.75 0 1 1.33H14v1.34H1.53V1.33h3.23L5.75 0h4Zm2 5.38v9.13a.29.29 0 0 1-.22.11H4a.21.21 0 0 1-.21-.11V5.38h7.96Zm-9.33 9.13A1.55 1.55 0 0 0 4 16h7.48a1.54 1.54 0 0 0 1.59-1.49V4H2.42v10.51Z" clip-rule="evenodd"/></g></defs><view id="neutral--enabled" viewBox="0 144 16 16"/><use href="#icon-def" x="0" y="144" style="--color:#B3B3B3"/><view id="neutral--hover" viewBox="16 144 16 16"/><use href="#icon-def" x="16" y="144" style="--color:#96aa22"/><view id="neutral--active" viewBox="32 144 16 16"/><use href="#icon-def" x="32" y="144" style="--color:#FFFFFF"/><view id="neutral--disabled" viewBox="48 144 16 16"/><use href="#icon-def" x="48" y="144" style="--color:#7F7F7F"/></svg>