<svg viewBox="0 0 32 32" xmlns="http://www.w3.org/2000/svg" data-scheme="monochrome"><defs><g id="icon-def"><path fill="var(--color)" d="M23 9.54H9A1.5 1.5 0 0 0 7.54 11v9A1.5 1.5 0 0 0 9 21.54h14a1.5 1.5 0 0 0 1.5-1.5V11A1.5 1.5 0 0 0 23 9.54Zm0 1c.08.005.158.025.23.06l-6.7 5.75a.601.601 0 0 1-.86 0L9 10.55h14v-.01Zm0 10H9a.5.5 0 0 1-.5-.5v-8.56l6.5 5.57a1.558 1.558 0 0 0 1.13.47 1.52 1.52 0 0 0 1.08-.44l6.29-5.39V20a.511.511 0 0 1-.5.54Zm-7 11A15.5 15.5 0 1 1 31.54 16 15.52 15.52 0 0 1 16 31.5v.04Zm0-30A14.5 14.5 0 1 0 30.54 16 14.51 14.51 0 0 0 16 1.5v.04Z"/></g></defs><view id="neutral--enabled" viewBox="0 288 32 32"/><use href="#icon-def" x="0" y="288" style="--color:#B3B3B3"/><view id="neutral--hover" viewBox="32 288 32 32"/><use href="#icon-def" x="32" y="288" style="--color:#96aa22"/><view id="neutral--active" viewBox="64 288 32 32"/><use href="#icon-def" x="64" y="288" style="--color:#FFFFFF"/><view id="neutral--disabled" viewBox="96 288 32 32"/><use href="#icon-def" x="96" y="288" style="--color:#7F7F7F"/></svg>