<svg viewBox="0 0 32 32" xmlns="http://www.w3.org/2000/svg" data-scheme="monochrome"><defs><g id="icon-def"><path fill="var(--color)" d="M16 31.49h-.3v-1H17l.07 1c-.36-.01-.71 0-1.07 0Zm-1.33-.06c-.35 0-.69-.07-1-.12l.16-1c.31.05.63.09.95.11l-.11 1.01Zm3.39-.08-.14-1c.33 0 .64-.09 1-.16l.19 1c-.35.06-.69.12-1.03.16h-.02Zm-5.43-.23c-.34-.07-.67-.16-1-.26l.28-1c.31.09.62.17.94.24l-.22 1.02Zm7.45-.18-.26-1c.31-.09.62-.18.92-.29l.33.95a6.23 6.23 0 0 1-.97.34h-.02Zm-9.43-.4c-.327-.12-.66-.25-1-.39l.41-.91c.29.13.59.25.89.36l-.3.94Zm11.38-.27-.39-.92c.3-.13.59-.26.88-.41l.45.89c-.29.17-.6.3-.92.44h-.02ZM8.78 29.7c-.3-.16-.6-.33-.89-.51l.52-.85c.28.173.56.333.84.48l-.47.88Zm15.12-.36-.51-.86.82-.52.56.82c-.28.22-.58.38-.87.56ZM7 28.62c-.28-.2-.56-.41-.82-.63l.63-.77c.25.2.51.4.77.58l-.58.82Zm18.57-.45-.57-.79c.26-.2.5-.4.74-.62l.67.74c-.27.23-.54.5-.81.67h-.03Zm-20.14-.86c-.25-.24-.49-.48-.73-.73l.73-.68c.22.23.45.46.68.68l-.68.73Zm21.71-.52-.72-.7c.22-.23.44-.47.65-.72l.76.65c-.22.26-.45.52-.69.77ZM4 25.8c-.22-.26-.43-.54-.63-.82l.82-.58c.18.26.38.52.58.77L4 25.8Zm24.45-.59-.8-.59c.19-.26.37-.53.55-.8l.84.54c-.17.29-.36.58-.57.85h-.02ZM2.82 24.12c-.18-.293-.35-.593-.51-.9l.88-.46c.153.28.313.56.48.84l-.85.52Zm26.77-.64-.88-.48c.16-.29.31-.57.44-.86l.91.42c-.15.31-.3.62-.47.92ZM1.86 22.3c-.15-.32-.28-.64-.4-1l.94-.3c.12.31.24.6.37.9l-.91.4Zm28.6-.69-.93-.36c.12-.3.23-.6.32-.91l1 .3c-.15.36-.26.65-.39.97ZM1.14 20.36C1 20 1 19.69.88 19.35l1-.21c.07.31.15.63.24.93l-.98.29Zm29.94-.72-1-.23c.08-.31.14-.63.2-.95l1 .17a9.5 9.5 0 0 1-.2 1.01ZM.69 18.34c0-.34-.09-.68-.12-1l1-.08c0 .32.06.64.11 1l-.99.08Zm30.74-.73-1-.11c0-.31 0-.64.07-1h1c-.01.43-.03.77-.07 1.11ZM.52 16.28v-1.02l1 .05v.96l-1 .01Zm30-.71c0-.32-.02-.653-.06-1l1-.1c0 .34.05.69.06 1l-1 .1ZM1.61 14.33l-1-.11c.04-.34.09-.673.15-1l1 .18c-.07.29-.11.6-.15.93Zm28.72-.68c0-.32-.11-.63-.19-1l1-.22c.07.33.14.67.2 1l-1.01.22ZM2 12.43l-1-.24c.08-.34.18-.67.28-1l1 .31c-.16.31-.28.62-.28.93Zm27.94-.66c-.09-.31-.19-.61-.31-.91l.94-.36c.12.32.23.65.33 1l-.96.27ZM2.55 10.6l-.93-.38c.13-.32.27-.63.42-.94l.9.43c-.14.29-.27.59-.39.89Zm26.66-.6c-.13-.29-.28-.58-.43-.86l.88-.48c.16.3.32.61.46.93l-.91.41ZM3.39 8.86l-.87-.49c.17-.3.35-.6.53-.88l.84.51c-.18.3-.34.58-.5.86Zm24.9-.6c-.17-.27-.35-.54-.54-.8l.81-.59c.2.28.39.57.58.86l-.85.53Zm-23.84-1-.8-.61c.21-.27.42-.54.65-.8l.76.66a8.69 8.69 0 0 0-.61.74v.01Zm22.7-.55c-.2-.25-.42-.49-.64-.72l.72-.69c.24.25.47.5.69.77l-.77.64ZM5.71 5.79 5 5.08c.24-.24.49-.48.75-.71l.66.75-.7.67Zm20.11-.49c-.24-.22-.48-.43-.74-.63l.63-.78c.27.22.53.44.78.67l-.67.74ZM7.16 4.51l-.61-.8c.273-.207.553-.407.84-.6l.55.83c-.26.18-.53.37-.78.57Zm17.15-.42c-.26-.18-.53-.36-.81-.52l.5-.86.86.56-.55.82ZM8.76 3.43l-.5-.87c.3-.17.6-.33.91-.48l.45.92c-.29.12-.62.27-.86.43Zm13.9-.33a11.542 11.542 0 0 0-.87-.42l.4-.92.93.45-.46.89ZM10.5 2.57l-.38-.92c.32-.13.64-.25 1-.36l.31 1c-.287.067-.597.16-.93.28Zm10.39-.24c-.3-.11-.61-.21-.92-.3l.27-1c.34.09.66.2 1 .32l-.35.98ZM12.33 2l-.25-1 1-.23.19 1c-.27.04-.63.11-.94.23ZM19 1.8c-.31-.07-.63-.12-1-.17l.14-1c.353.047.687.107 1 .18L19 1.8Zm-4.8-.2-.1-1c.34 0 .69-.07 1-.09l.06 1c-.307.02-.617.05-.93.09h-.03Zm2.89-.07h-1v-1h1v1Zm-1.1 27v-1h1l.08 1c-.36-.06-.7-.04-1.07-.04l-.01.04Zm-.45 0c-.35 0-.7 0-1-.08l.12-1c.31 0 .63.06.95.07l-.07 1.01Zm2.52-.16-.17-1c.32 0 .63-.12.94-.2l.25 1c-.31.02-.64.09-.99.15l-.03.05Zm-4.59-.09c-.34-.07-.67-.15-1-.25l.27-1c.31.09.62.17.94.23l-.21 1.02Zm6.61-.43-.33-.94c.3-.11.6-.22.89-.35l.41.91c-.29.09-.61.22-.94.33l-.03.05Zm-8.6-.15c-.33-.13-.64-.26-1-.42l.44-.89.88.38-.32.93ZM22 27l-.48-.88c.28-.15.55-.31.82-.49l.55.83c-.28.15-.57.33-.89.54Zm-12.36-.26c-.3-.18-.59-.37-.87-.57l.58-.81c.26.18.52.36.8.52l-.51.86Zm14.11-.93-.62-.81c.253-.2.493-.41.72-.63l.69.74c-.26.26-.54.49-.79.7Zm-15.81-.28c-.26-.22-.52-.46-.76-.7l.71-.71c.22.23.46.44.7.65l-.65.76Zm17.33-1.14-.74-.67c.21-.23.42-.48.61-.73l.8.61c-.22.27-.44.54-.67.79Zm-18.8-.33c-.22-.26-.43-.54-.64-.82l.82-.58c.182.26.38.511.59.75l-.77.65Zm20.06-1.32-.84-.54c.179-.264.342-.538.49-.82l.88.47c-.16.3-.34.6-.53.89Zm-21.26-.37c-.18-.3-.35-.61-.5-.92l.9-.44c.14.287.29.567.45.84l-.85.52Zm22.24-1.46-.92-.4c.13-.29.24-.59.34-.89l.95.31a10.4 10.4 0 0 1-.37.98Zm-23.16-.42c-.12-.32-.23-.65-.33-1l1-.28c.09.31.19.61.31.91l-.98.37Zm23.82-1.55-1-.24c.07-.31.13-.62.18-.94l1 .15c-.03.35-.1.69-.18 1.03Zm-24.4-.44c-.07-.34-.13-.68-.17-1l1-.12c.03.32.08.637.15.95l-.98.17Zm24.72-1.62-1-.07v-.95h1V16c.03.29.02.59 0 .88Zm-25-.45V15.4h1v.96l-1 .07Zm24-1.54c0-.32-.08-.63-.13-.94l1-.18c.06.34.11.68.14 1l-1.01.12Zm-22.88-.41-1-.12c0-.35.11-.69.18-1l1 .21c-.08.28-.13.6-.18.91ZM27.13 13a8.787 8.787 0 0 0-.29-.91l.94-.34c.12.32.22.66.31 1l-.96.25ZM5 12.62l-1-.3c.1-.33.22-.66.35-1l.93.37c-.06.31-.17.62-.28.93Zm21.46-1.41c-.13-.29-.28-.58-.43-.85l.87-.49c.17.3.33.61.47.92l-.91.42Zm-20.73-.37-.89-.45c.15-.31.32-.61.5-.91l.86.52c-.2.27-.32.55-.47.84Zm19.81-1.3c-.18-.26-.37-.52-.57-.77l.78-.63c.22.27.42.55.62.84l-.83.56ZM6.73 9.21l-.81-.59c.21-.28.42-.56.65-.82l.76.66c-.22.24-.42.49-.6.75Zm17.61-1.16a9.19 9.19 0 0 0-.69-.66l.66-.75c.26.233.51.473.75.72l-.72.69ZM8 7.76l-.7-.71c.248-.246.508-.48.78-.7l.63.77c-.26.2-.5.42-.71.64Zm14.93-1c-.26-.19-.52-.37-.79-.54l.53-.85c.29.19.58.38.86.59l-.6.8ZM9.46 6.54l-.57-.82c.28-.2.57-.38.87-.56l.51.87c-.28.16-.55.33-.81.51Zm11.83-.78c-.28-.14-.57-.28-.87-.4l.38-.92c.32.13.64.28.95.43l-.46.89Zm-10.17-.18-.43-.9c.326-.154.66-.291 1-.41l.35.94c-.34.11-.64.24-.92.37Zm8.4-.58c-.3-.1-.61-.18-.92-.25l.22-1c.34.08.68.17 1 .28l-.3.97Zm-6.61-.12-.27-1c.33-.09.67-.17 1-.24l.19 1c-.3.11-.61.19-.92.27v-.03Zm4.74-.31c-.31 0-.63-.07-.95-.09l.06-1c.35 0 .7.05 1 .1l-.11.99Zm-2.86 0-.11-1c.34 0 .69-.06 1-.07v1c-.26 0-.58.02-.89.05v.02ZM23 10.08H9a1.5 1.5 0 0 0-1.5 1.5v9a1.5 1.5 0 0 0 1.5 1.5h14a1.5 1.5 0 0 0 1.5-1.5v-9a1.5 1.5 0 0 0-1.5-1.5Zm0 1a.48.48 0 0 1 .23.07l-6.7 5.74a.599.599 0 0 1-.86 0L9 11.09h14v-.01Zm0 10H9a.5.5 0 0 1-.5-.5V12l6.5 5.6a1.59 1.59 0 0 0 1.13.46 1.511 1.511 0 0 0 1.08-.43l6.29-5.4v8.35a.5.5 0 0 1-.5.5Z"/></g></defs><view id="neutral--enabled" viewBox="0 288 32 32"/><use href="#icon-def" x="0" y="288" style="--color:#B3B3B3"/><view id="neutral--hover" viewBox="32 288 32 32"/><use href="#icon-def" x="32" y="288" style="--color:#96aa22"/><view id="neutral--active" viewBox="64 288 32 32"/><use href="#icon-def" x="64" y="288" style="--color:#FFFFFF"/><view id="neutral--disabled" viewBox="96 288 32 32"/><use href="#icon-def" x="96" y="288" style="--color:#7F7F7F"/></svg>