<svg viewBox="0 0 32 32" xmlns="http://www.w3.org/2000/svg" data-scheme="monochrome"><defs><g id="icon-def"><path fill="var(--color)" d="M15.94 31.52h-.3v-1h1.27l.07 1c-.35-.02-.69 0-1.04 0Zm-1.33-.06c-.34 0-.69-.07-1-.12l.15-1c.31 0 .63.09 1 .11l-.15 1.01Zm3.39-.08-.13-1c.32 0 .63-.1.95-.16l.2 1c-.34.06-.68.11-1.02.16Zm-5.43-.23c-.34-.08-.67-.16-1-.26l.28-1c.31.09.62.17.94.24l-.22 1.02ZM20 31l-.26-1c.31-.09.62-.18.92-.29l.33 1c-.31.07-.63.17-.99.29Zm-9.43-.4c-.32-.12-.653-.25-1-.39l.41-.91c.293.127.593.247.9.36l-.31.94ZM22 30.3l-.39-.92.88-.41.45.89c-.34.14-.65.3-.94.44Zm-13.29-.57c-.307-.16-.607-.33-.9-.51l.53-.85.83.48-.46.88Zm15.11-.36-.51-.87c.28-.16.55-.33.82-.52l.56.83c-.28.19-.57.38-.87.56ZM7 28.65c-.28-.2-.55-.41-.82-.63l.63-.77c.25.2.51.39.77.58l-.58.82Zm18.57-.45-.62-.79c.26-.2.5-.41.74-.62l.67.74c-.3.23-.57.47-.84.67h.05Zm-20.22-.86c-.25-.24-.49-.48-.73-.73l.73-.69c.22.24.45.47.69.69l-.69.73Zm21.71-.52-.72-.7c.22-.23.44-.47.65-.72l.76.65c-.22.26-.45.52-.69.77Zm-23.12-1c-.22-.26-.43-.54-.63-.82l.82-.58c.19.26.38.52.59.77l-.78.63Zm24.45-.59-.8-.59c.19-.26.38-.53.55-.8l.84.54c-.19.3-.38.62-.59.86v-.01ZM2.74 24.15c-.18-.287-.35-.587-.51-.9l.88-.46c.153.28.313.56.48.84l-.85.52Zm26.77-.64-.87-.51c.15-.28.3-.56.43-.86l.91.43c-.15.33-.3.64-.47.94ZM1.78 22.32a10.14 10.14 0 0 1-.39-1l.94-.32c.113.3.233.6.36.9l-.91.42Zm28.61-.68-.94-.36c.12-.3.23-.61.32-.91l1 .3c-.15.33-.26.65-.38.97ZM1.06 20.39c-.09-.33-.18-.67-.25-1l1-.21c.07.31.15.63.24.93l-.99.28Zm30-.72-1-.24c.08-.31.14-.62.2-.94l1 .17c-.1.34-.17.68-.26 1.01h.06ZM.62 18.37c-.06-.34-.1-.68-.13-1l1-.08c0 .32.07.64.11.95l-.98.13Zm30.73-.73-1-.11c0-.32.06-.64.07-1h1c-.01.47-.03.77-.07 1.11ZM.44 16.31v-1.05l1 .05v.96l-1 .04Zm30-.71c0-.32-.02-.653-.06-1l1-.1c0 .34.05.69.06 1l-1 .1ZM1.53 14.36l-1-.11c0-.34.09-.69.15-1l1 .18c-.06.29-.11.57-.15.93Zm28.72-.68c-.05-.32-.11-.64-.19-.95l1-.23c.08.34.14.68.2 1l-1.01.18ZM1.88 12.46l-1-.24c.08-.34.18-.67.28-1l1 .31c-.16.31-.16.62-.28.93Zm27.94-.66c-.1-.31-.2-.62-.32-.92l.94-.35c.12.32.23.65.33 1l-.95.27ZM2.47 10.63l-.93-.38c.13-.32.27-.63.42-.94l.9.43c-.14.26-.27.59-.39.89ZM29.13 10c-.13-.3-.28-.58-.43-.87l.88-.47c.16.3.32.61.46.92l-.91.42ZM3.31 8.89l-.87-.49c.17-.3.35-.6.54-.88l.83.54c-.17.27-.34.55-.5.83Zm24.9-.6c-.17-.27-.35-.54-.54-.8l.81-.59c.2.28.39.56.58.86l-.85.53Zm-23.84-1-.8-.61c.21-.27.43-.54.65-.8l.78.64c-.23.25-.44.48-.63.76v.01Zm22.7-.55c-.2-.25-.42-.49-.64-.72l.72-.7c.24.253.47.513.69.78l-.77.64ZM5.63 5.81l-.71-.7.75-.71.67.75c-.25.21-.48.44-.71.66Zm20.11-.48c-.24-.22-.48-.43-.73-.63l.62-.78.79.67-.68.74ZM7.08 4.54l-.61-.8c.273-.213.553-.413.84-.6l.55.86c-.26.15-.53.34-.78.54Zm17.15-.42c-.26-.18-.53-.36-.81-.53l.52-.85c.29.18.58.36.86.56l-.57.82ZM8.68 3.46l-.5-.87.91-.49.45.9c-.29.14-.54.3-.86.46Zm13.9-.34-.87-.41.4-.92.93.44-.46.89ZM10.42 2.6 10 1.68c.32-.13.64-.25 1-.36l.32 1c-.32.05-.6.16-.9.28Zm10.39-.24c-.3-.11-.61-.21-.92-.3l.27-1c.34.09.66.2 1 .31l-.35.99ZM12.25 2 12 1l1-.23.19 1c-.31.07-.63.14-.94.23ZM19 1.83c-.31-.07-.63-.12-.95-.17l.14-1c.347.047.68.107 1 .18l-.19.99Zm-4.8-.2-.2-1c.34-.04.673-.07 1-.09l.06 1c-.27.02-.6.05-.91.09h.05Zm2.8-.07h-1v-1h1v1Zm6 8H9A1.5 1.5 0 0 0 7.54 11v9A1.5 1.5 0 0 0 9 21.54h14a1.5 1.5 0 0 0 1.5-1.5V11A1.5 1.5 0 0 0 23 9.54v.02Zm0 1c.08.005.158.025.23.06l-6.7 5.75a.6.6 0 0 1-.86 0L9 10.55h14v.01Zm0 10H9a.5.5 0 0 1-.5-.5v-8.58l6.5 5.57a1.558 1.558 0 0 0 1.13.47 1.52 1.52 0 0 0 1.08-.44l6.29-5.39V20a.509.509 0 0 1-.5.54v.02Z"/></g></defs><view id="neutral--enabled" viewBox="0 288 32 32"/><use href="#icon-def" x="0" y="288" style="--color:#B3B3B3"/><view id="neutral--hover" viewBox="32 288 32 32"/><use href="#icon-def" x="32" y="288" style="--color:#96aa22"/><view id="neutral--active" viewBox="64 288 32 32"/><use href="#icon-def" x="64" y="288" style="--color:#FFFFFF"/><view id="neutral--disabled" viewBox="96 288 32 32"/><use href="#icon-def" x="96" y="288" style="--color:#7F7F7F"/></svg>