<svg viewBox="0 0 16 16" xmlns="http://www.w3.org/2000/svg" data-scheme="monochrome"><defs><g id="icon-def"><path fill="var(--color)" d="M8 15.92A7.92 7.92 0 1 1 15.92 8 7.93 7.93 0 0 1 8 15.92ZM8 1.08A6.92 6.92 0 1 0 14.92 8 6.94 6.94 0 0 0 8 1.08Zm0 12.54A5.62 5.62 0 1 1 8 2.381 5.62 5.62 0 0 1 8 13.62ZM8 3.38a4.62 4.62 0 1 0 0 9.24 4.62 4.62 0 0 0 0-9.24Z"/></g></defs><view id="neutral--enabled" viewBox="0 144 16 16"/><use href="#icon-def" x="0" y="144" style="--color:#B3B3B3"/><view id="neutral--hover" viewBox="16 144 16 16"/><use href="#icon-def" x="16" y="144" style="--color:#96aa22"/><view id="neutral--active" viewBox="32 144 16 16"/><use href="#icon-def" x="32" y="144" style="--color:#FFFFFF"/><view id="neutral--disabled" viewBox="48 144 16 16"/><use href="#icon-def" x="48" y="144" style="--color:#7F7F7F"/></svg>