<svg viewBox="0 0 32 32" xmlns="http://www.w3.org/2000/svg" data-scheme="monochrome"><defs><g id="icon-def"><path fill="var(--color)" d="M16 31.69a15.5 15.5 0 1 1 15.5-15.5A15.51 15.51 0 0 1 16 31.69Zm0-30a14.5 14.5 0 1 0 14.5 14.5A14.52 14.52 0 0 0 16 1.69Zm0 27a12.5 12.5 0 1 1 12.5-12.5A12.52 12.52 0 0 1 16 28.69Zm0-24a11.5 11.5 0 1 0 11.5 11.5A11.51 11.51 0 0 0 16 4.69Zm8 18H8a.49.49 0 0 1-.42-.24.48.48 0 0 1 0-.48l8-16a.52.52 0 0 1 .9 0l8 16a.48.48 0 0 1 0 .48.51.51 0 0 1-.48.24Z"/></g></defs><view id="neutral--enabled" viewBox="0 288 32 32"/><use href="#icon-def" x="0" y="288" style="--color:#B3B3B3"/><view id="neutral--hover" viewBox="32 288 32 32"/><use href="#icon-def" x="32" y="288" style="--color:#96aa22"/><view id="neutral--active" viewBox="64 288 32 32"/><use href="#icon-def" x="64" y="288" style="--color:#FFFFFF"/><view id="neutral--disabled" viewBox="96 288 32 32"/><use href="#icon-def" x="96" y="288" style="--color:#7F7F7F"/></svg>