<svg viewBox="0 0 32 32" xmlns="http://www.w3.org/2000/svg" data-scheme="monochrome"><defs><g id="icon-def"><path fill="var(--color)" d="M15.79 31.74h-.3v-1h1.27l.07 1c-.35-.01-.7 0-1.04 0Zm-1.33-.06c-.35 0-.69-.07-1-.12l.15-1c.32.05.64.09 1 .11l-.15 1.01Zm3.38-.08-.13-1c.32 0 .64-.1 1-.16l.19 1c-.37.06-.71.12-1.06.16Zm-5.42-.23c-.34-.08-.67-.16-1-.26l.28-1c.307.087.617.167.93.24l-.21 1.02Zm7.45-.18-.26-1c.31-.09.62-.18.92-.29l.33.95a6.96 6.96 0 0 1-.99.34Zm-9.44-.4c-.32-.12-.64-.25-.95-.39l.41-.91c.29.13.59.25.89.36l-.35.94Zm11.39-.27-.39-.92.88-.41.45.89c-.31.16-.62.3-.94.44ZM8.55 30c-.3-.16-.6-.33-.89-.51l.52-.86.84.49-.47.88Zm15.12-.36-.51-.87c.291-.173.572-.364.84-.57l.57.83-.9.61ZM6.8 28.87c-.28-.2-.56-.41-.82-.63l.63-.77c.25.2.51.4.77.58l-.58.82Zm18.57-.45-.62-.79c.25-.2.5-.4.74-.62l.67.74c-.26.25-.52.46-.79.67ZM5.2 27.56c-.25-.24-.5-.48-.73-.73l.73-.68c.22.23.45.46.68.68l-.68.73ZM26.9 27l-.71-.7c.22-.23.44-.47.65-.72l.76.65c-.22.3-.46.56-.7.77ZM3.79 26c-.22-.27-.43-.54-.63-.82l.84-.53c.19.26.39.52.59.77l-.8.58Zm24.45-.59-.8-.59c.19-.26.37-.53.55-.8l.84.54c-.19.34-.38.63-.59.9v-.05ZM2.59 24.37c-.18-.293-.35-.593-.51-.9L3 23c.147.287.307.567.48.84l-.89.53Zm26.77-.64-.88-.49c.16-.28.3-.56.44-.86l.91.43c-.15.31-.31.62-.47.92ZM1.62 22.54c-.14-.307-.27-.64-.39-1l.94-.34c.11.3.23.6.37.89l-.92.45Zm28.61-.68-.93-.36c.12-.3.22-.6.32-.91l.95.3c-.1.33-.21.65-.34.97ZM.91 20.61c-.1-.33-.18-.67-.26-1l1-.21c.07.31.15.63.24.93l-.98.28Zm29.94-.72-1-.23c.08-.31.14-.63.19-.95l1 .17c-.04.34-.11.68-.19 1.01ZM.46 18.59c-.05-.34-.09-.68-.12-1l1-.08c0 .32.06.64.11.95l-.99.13Zm30.74-.73-1-.11c0-.32.02-.653.06-1h1c0 .42-.02.77-.06 1.11ZM.29 16.53V15.5h1v.97l-1 .06Zm30-.71c0-.32-.02-.653-.06-1l1-.1c0 .34.05.69.06 1l-1 .1ZM1.38 14.58l-1-.11c0-.34.09-.69.16-1l1 .18c-.08.29-.13.61-.16.93Zm28.72-.68c-.05-.32-.12-.64-.19-1l1-.22c.07.33.14.67.2 1l-1.01.22ZM1.72 12.68l-1-.24c.09-.34.18-.67.29-1l1 .3c-.113.32-.21.633-.29.94ZM29.66 12c-.09-.31-.2-.62-.31-.92l.94-.35c.12.32.23.65.33 1l-.96.27ZM2.32 10.85l-.93-.38c.13-.32.27-.63.42-.94l.9.43c-.14.29-.27.59-.39.89ZM29 10.21c-.14-.29-.28-.58-.43-.87l.88-.47c.16.3.31.61.46.92l-.91.42ZM3.16 9.11l-.88-.49c.17-.3.35-.6.54-.89l.84.55c-.18.27-.35.55-.5.83Zm24.9-.6c-.17-.27-.35-.54-.54-.8l.8-.59c.209.283.402.577.58.88l-.84.51ZM4.21 7.5l-.79-.61c.21-.27.42-.54.65-.8l.75.65c-.21.26-.41.5-.61.76ZM26.92 7c-.21-.25-.42-.49-.64-.72l.72-.74c.243.245.473.502.69.77l-.77.69ZM5.48 6l-.71-.71c.24-.24.49-.48.75-.71l.66.75c-.24.25-.47.48-.7.67Zm20.11-.49c-.24-.22-.49-.43-.74-.63l.63-.78c.27.22.53.44.78.67l-.67.74ZM6.93 4.76 6.32 4c.27-.21.55-.41.83-.6l.56.83a6.44 6.44 0 0 0-.78.53Zm17.15-.42c-.26-.18-.53-.36-.81-.53l.52-.81.86.56-.57.78ZM8.53 3.68 8 2.81c.3-.17.6-.33.91-.48l.45.89c-.26.14-.55.3-.83.46Zm13.9-.34-.87-.41L22 2l.93.45-.5.89Zm-12.16-.52-.38-.92c.31-.13.64-.25 1-.36l.32.94c-.34.11-.65.22-.94.34Zm10.39-.24c-.3-.11-.61-.21-.92-.3l.27-1c.34.09.66.2 1 .31l-.35.99Zm-8.56-.37-.26-1 1-.23L13 2c-.28.06-.59.13-.9.21Zm6.7-.16c-.31-.07-.63-.12-.95-.17l.14-1c.35 0 .68.11 1 .18l-.19.99Zm-4.8-.2-.12-1c.34 0 .69-.07 1-.09l.06 1c-.31.02-.63.05-.94.09Zm2.9-.07h-1v-1h1v1Zm6.9 21h-16a.5.5 0 0 1-.43-.24.5.5 0 0 1 0-.49l8-16a.52.52 0 0 1 .89 0l8 16a.5.5 0 0 1 0 .49.49.49 0 0 1-.47.2l.01.04Zm-15.2-1H23L15.79 7.35 8.6 21.78Z"/></g></defs><view id="neutral--enabled" viewBox="0 288 32 32"/><use href="#icon-def" x="0" y="288" style="--color:#B3B3B3"/><view id="neutral--hover" viewBox="32 288 32 32"/><use href="#icon-def" x="32" y="288" style="--color:#96aa22"/><view id="neutral--active" viewBox="64 288 32 32"/><use href="#icon-def" x="64" y="288" style="--color:#FFFFFF"/><view id="neutral--disabled" viewBox="96 288 32 32"/><use href="#icon-def" x="96" y="288" style="--color:#7F7F7F"/></svg>