<svg viewBox="0 0 32 32" xmlns="http://www.w3.org/2000/svg" data-scheme="monochrome"><defs><g id="icon-def"><path fill="var(--color)" d="M16.08 32.15a16.5 16.5 0 1 1 16.5-16.5 16.52 16.52 0 0 1-16.5 16.5Zm0-30a13.5 13.5 0 1 0 13.5 13.5 13.51 13.51 0 0 0-13.5-13.5Zm8 20h-16a.54.54 0 0 1-.43-.23.53.53 0 0 1 0-.49l8-16a.52.52 0 0 1 .9 0l8 16a.53.53 0 0 1 0 .49.54.54 0 0 1-.47.21v.02Z"/></g></defs><view id="neutral--enabled" viewBox="0 288 32 32"/><use href="#icon-def" x="0" y="288" style="--color:#B3B3B3"/><view id="neutral--hover" viewBox="32 288 32 32"/><use href="#icon-def" x="32" y="288" style="--color:#96aa22"/><view id="neutral--active" viewBox="64 288 32 32"/><use href="#icon-def" x="64" y="288" style="--color:#FFFFFF"/><view id="neutral--disabled" viewBox="96 288 32 32"/><use href="#icon-def" x="96" y="288" style="--color:#7F7F7F"/></svg>