<svg viewBox="0 0 32 32" xmlns="http://www.w3.org/2000/svg" data-scheme="monochrome"><defs><g id="icon-def"><path fill="var(--color)" d="M15.88 31.53h-.3v-1h1.28l.07 1c-.36-.01-.71 0-1.05 0Zm-1.33-.05c-.34 0-.69-.07-1-.12l.15-1c.31.05.63.08 1 .11l-.15 1.01Zm3.39-.08-.13-1 1-.16.19 1c-.38.06-.72.11-1.06.16Zm-5.43-.23c-.34-.08-.67-.16-1-.26l.28-1c.31.09.62.17.94.24l-.22 1.02ZM20 31l-.26-1c.31-.09.62-.18.92-.29l.33 1c-.353.1-.683.197-.99.29Zm-9.43-.4c-.33-.12-.64-.25-1-.39l.41-.92c.29.13.59.26.89.37l-.3.94Zm11.38-.28-.39-.92c.3-.12.59-.26.88-.4l.45.89c-.35.11-.66.29-.98.42l.04.01Zm-13.31-.57c-.3-.17-.6-.34-.89-.52l.52-.85c.28.173.56.333.84.48l-.47.89Zm15.12-.37-.51-.86c.28-.16.55-.34.82-.52l.56.83c-.28.17-.57.38-.87.55Zm-16.87-.72c-.28-.2-.56-.41-.82-.62l.63-.78c.25.21.51.4.77.59l-.58.81Zm18.57-.44-.62-.79c.26-.2.5-.41.74-.62l.67.74c-.25.23-.52.45-.79.67Zm-20.17-.86c-.25-.24-.49-.48-.73-.73l.73-.69c.22.24.45.47.68.69l-.68.73ZM27 26.83l-.72-.69c.22-.23.44-.47.65-.72l.76.65c-.22.26-.45.52-.69.76Zm-23.12-1c-.22-.27-.43-.54-.63-.82l.82-.58c.18.26.38.52.58.77l-.77.63Zm24.45-.59-.8-.6c.19-.25.37-.52.55-.79l.84.54c-.19.31-.38.61-.59.87v-.02ZM2.68 24.17c-.18-.3-.35-.6-.51-.9l.88-.47c.153.287.313.567.48.84l-.85.53Zm26.77-.64-.88-.53c.16-.28.31-.57.44-.86l.91.43c-.15.35-.3.66-.47.96ZM1.72 22.34a10.21 10.21 0 0 1-.4-1l.94-.34c.12.3.24.6.37.89l-.91.45Zm28.6-.68-.93-.36c.12-.3.23-.61.32-.92l1 .3c-.15.32-.26.66-.39.98ZM1 20.4c-.09-.33-.18-.66-.26-1l1-.21c.073.307.153.617.24.93L1 20.4Zm29.94-.71-1-.24c.08-.31.14-.62.2-.94l1 .17c-.05.32-.14.68-.2 1.01ZM.56 18.39c-.06-.34-.1-.68-.13-1l1-.08c0 .32.06.64.11.95l-.98.13Zm30.73-.74-1-.1c0-.32.05-.64.07-1h1c-.01.45-.03.76-.07 1.1ZM.38 16.33v-1.06h1v.97l-1 .09Zm30-.71c0-.32 0-.65-.06-1l1-.09c0 .34.05.68.06 1l-1 .09ZM1.47 14.38l-1-.11c.04-.347.09-.68.15-1l1 .18c-.07.29-.11.61-.15.93Zm28.72-.68c-.05-.32-.11-.64-.19-.95l1-.23c.07.34.14.68.2 1l-1.01.18ZM1.81 12.48l-1-.24c.08-.34.18-.67.28-1l1 .31c-.107.3-.2.61-.28.93Zm27.94-.66a9.94 9.94 0 0 0-.31-.92l.94-.36c.12.33.23.65.33 1l-.96.28ZM2.41 10.65l-.93-.38c.13-.32.27-.63.42-.94l.9.43c-.14.29-.27.59-.39.89ZM29.07 10c-.14-.3-.28-.59-.43-.87l.88-.47c.16.3.32.61.46.92l-.91.42ZM3.25 8.91l-.87-.49c.17-.31.35-.6.53-.89l.84.55c-.18.27-.34.54-.5.83Zm24.9-.6c-.17-.28-.35-.54-.54-.8l.8-.59c.21.28.4.56.59.85l-.85.54Zm-23.84-1-.8-.6c.21-.28.42-.54.65-.8l.76.65c-.22.23-.42.44-.61.73v.02ZM27 6.74c-.2-.24-.42-.48-.64-.72l.72-.69c.24.25.47.51.69.77l-.77.64ZM5.57 5.83l-.71-.7c.24-.25.49-.48.75-.71l.66.75c-.27.21-.47.43-.7.66Zm20.11-.48c-.24-.22-.48-.43-.74-.63l.63-.78c.27.21.53.44.78.67l-.67.74ZM7 4.55l-.61-.79c.267-.207.547-.407.84-.6l.58.84c-.27.17-.54.36-.81.55Zm17.15-.41c-.26-.19-.53-.36-.81-.53l.52-.85c.29.18.58.36.86.56l-.57.82ZM8.62 3.48l-.5-.87c.3-.17.6-.33.92-.49l.44.9c-.29.14-.58.29-.86.46Zm13.9-.34c-.29-.15-.58-.28-.87-.41l.4-.92.93.44-.46.89Zm-12.16-.52L10 1.7c.32-.13.64-.25 1-.36l.32.94-.96.34Zm10.39-.25-.92-.29.27-1c.34.09.66.2 1 .31l-.35.98ZM12.19 2l-.25-1c.33-.09.66-.16 1-.23l.19 1-.94.23Zm6.7-.16c-.31-.07-.63-.12-.95-.17l.14-1c.353.053.687.113 1 .18l-.19.99Zm-4.8-.21L14 .65c.34 0 .69-.07 1-.09l.06 1-.97.07ZM17 1.58c-.32 0-.64 0-1-.05v-1h1v1.05Zm-1.1 5a9.5 9.5 0 1 0 9.5 9.5 9.52 9.52 0 0 0-9.52-9.55l.02.05Zm0 18a8.5 8.5 0 1 1 8.5-8.5 8.51 8.51 0 0 1-8.52 8.45l.02.05Zm4-9h-3.5V12a.51.51 0 0 0-.5-.5.5.5 0 0 0-.5.5v4a.43.43 0 0 0 0 .11.15.15 0 0 0 0 .09.23.23 0 0 0 .07.1v.06l.12.08h4.2a.5.5 0 0 0 .5-.5.51.51 0 0 0-.41-.4l.02.04Zm2.94 0h-1a.5.5 0 0 0 0 1h1a.5.5 0 0 0 .5-.5.51.51 0 0 0-.52-.54l.02.04Zm-13 0h-1a.5.5 0 0 0 0 1h1a.5.5 0 0 0 .5-.5.51.51 0 0 0-.52-.54l.02.04Zm6 5.94a.5.5 0 0 0-.5.5v1a.5.5 0 0 0 .5.5.51.51 0 0 0 .5-.5V22a.5.5 0 0 0-.47-.52l-.03.04Zm0-11a.51.51 0 0 0 .5-.5V9a.5.5 0 0 0-1 0v1a.5.5 0 0 0 .53.48l-.03.04Z"/></g></defs><view id="neutral--enabled" viewBox="0 288 32 32"/><use href="#icon-def" x="0" y="288" style="--color:#B3B3B3"/><view id="neutral--hover" viewBox="32 288 32 32"/><use href="#icon-def" x="32" y="288" style="--color:#96aa22"/><view id="neutral--active" viewBox="64 288 32 32"/><use href="#icon-def" x="64" y="288" style="--color:#FFFFFF"/><view id="neutral--disabled" viewBox="96 288 32 32"/><use href="#icon-def" x="96" y="288" style="--color:#7F7F7F"/></svg>