<svg viewBox="0 0 32 32" xmlns="http://www.w3.org/2000/svg" data-scheme="monochrome"><defs><g id="icon-def"><path fill="var(--color)" d="M15.71 31.62a15.5 15.5 0 1 1 15.5-15.5 15.52 15.52 0 0 1-15.5 15.5Zm0-30a14.5 14.5 0 1 0 14.5 14.5 14.52 14.52 0 0 0-14.5-14.5Zm0 24a9.5 9.5 0 1 1 9.5-9.5 9.51 9.51 0 0 1-9.5 9.5Zm0-18a8.5 8.5 0 1 0 8.5 8.5 8.51 8.51 0 0 0-8.5-8.5Zm.5 8.5v-4a.5.5 0 0 0-1 0v4a.5.5 0 0 0 1 0Zm4 0a.5.5 0 0 0-.5-.5h-4a.5.5 0 0 0 0 1h4a.5.5 0 0 0 .5-.49v-.01Zm2.94 0a.5.5 0 0 0-.5-.5h-1a.5.5 0 0 0-.5.5.51.51 0 0 0 .5.5h1a.5.5 0 0 0 .5-.49v-.01Zm-13 0a.5.5 0 0 0-.5-.5h-1a.5.5 0 0 0-.5.5.51.51 0 0 0 .5.5h1a.5.5 0 0 0 .5-.49v-.01Zm6 6.93v-1a.5.5 0 1 0-1 0v1a.51.51 0 0 0 .5.5.5.5 0 0 0 .55-.49l-.05-.01Zm0-13v-1a.5.5 0 1 0-1 0v1a.51.51 0 0 0 .5.5.5.5 0 0 0 .55-.49l-.05-.01Z"/></g></defs><view id="neutral--enabled" viewBox="0 288 32 32"/><use href="#icon-def" x="0" y="288" style="--color:#B3B3B3"/><view id="neutral--hover" viewBox="32 288 32 32"/><use href="#icon-def" x="32" y="288" style="--color:#96aa22"/><view id="neutral--active" viewBox="64 288 32 32"/><use href="#icon-def" x="64" y="288" style="--color:#FFFFFF"/><view id="neutral--disabled" viewBox="96 288 32 32"/><use href="#icon-def" x="96" y="288" style="--color:#7F7F7F"/></svg>