<svg xmlns="http://www.w3.org/2000/svg" width="18" height="18" fill="currentColor" viewBox="0 0 18 18">
  <path d="m2 1 14.4 14.5M15 11.7c1-.9 1.8-2.1 2.3-3.4-1.3-3.4-4.4-5.7-8.2-5.7-1 0-2 .2-2.8.5"/>
  <path d="M9.2 5.8c.7 0 1.3.3 1.8.7.5.5.7 1.1.7 1.7m-.8 1.8c-.5.5-1.1.7-1.7.7-.6 0-1.3-.3-1.7-.7-.5-.4-.8-1.1-.8-1.7 0-.7.3-1.3.7-1.7"/>
  <path d="M4.7 3.8C3 4.8 1.7 6.4 1 8.3 2.3 11.7 5.4 14 9.2 14c1.7 0 3.2-.5 4.5-1.3m-2.1-4.4c0-.7-.3-1.3-.7-1.8-.5-.5-1.1-.7-1.7-.7"/>
  <path d="M7.5 6.6c-.5.4-.8 1-.8 1.7s.3 1.3.7 1.7c.5.5 1.1.7 1.7.7.6 0 1.3-.3 1.7-.7"/>
</svg>
