<svg xmlns="http://www.w3.org/2000/svg" width="16" height="16" fill="none" viewBox="0 0 16 16">
  <g class="attribute-formula" clip-path="url(#a)">
    <g class="attribute-formula">
      <path fill="#00A99D" d="M11 6V2h.5a.5.5 0 0 0 .5-.5v-1a.5.5 0 0 0-.5-.5h-7a.5.5 0 0 0-.5.5v1a.5.5 0 0 0 .5.5H5v4l-5 9a1 1 0 0 0 1 1h14a1 1 0 0 0 1-1l-5-9Zm-9.86 9 4.73-8.51.13-.23V2h4v4.26l.13.23L14.86 15H1.14Zm11.3-1.64a.63.63 0 0 1-.63.64H4.19a.63.63 0 0 1-.63-.64s1.86-3.44 2.56-4.72c.18-.31.28-.64.63-.64h2.5c.35 0 .45.33.63.64.7 1.28 2.56 4.72 2.56 4.72Z" class="icons04"/>
    </g>
  </g>
</svg>