<svg xmlns="http://www.w3.org/2000/svg" width="16" height="16" fill="none" viewBox="0 0 16 16">
  <g class="logical-attributes" clip-path="url(#a)">
    <g class="logical-attributes">
      <g>
        <path class="icons02" fill="#8973CA" d="M13.63 14.011c.03-.05.03-.11.03-.16l-1.65-3.048a2.73 2.73 0 0 1-.063-.112c-.085-.159-.16-.298-.347-.298H9.98c-.187 0-.261.139-.347.298-.02.037-.04.075-.063.112l-1.65 3.048a.38.38 0 0 0 .12.29c.03.04.08.07.13.09.05.02.11.03.16.03h4.92a.382.382 0 0 0 .29-.12c.04-.03.07-.08.09-.13Z"/>
        <path class="icons02" fill="#8973CA" fill-rule="evenodd" d="M8.07 5.395a.44.44 0 0 1 .34-.148h4.52a.475.475 0 0 1 .47.48v.649c0 .123-.041.24-.13.332a.44.44 0 0 1-.34.148h-.17v2.401L16 15.152v.039a.809.809 0 0 1-.234.565.81.81 0 0 1-.566.234H6.15a.81.81 0 0 1-.566-.234.809.809 0 0 1-.234-.566v-.038l3.23-5.876v-2.42h-.17a.476.476 0 0 1-.47-.48v-.65c0-.122.041-.24.13-.331Zm1.45 1.46v2.667l-.099.184-2.937 5.335h8.362l-2.938-5.336-.098-.183V6.856H9.52Z" clip-rule="evenodd"/>
      </g>
      <g>
        <path class="icons04" fill="#00A99D" d="m5.37 15.12-.02.07c0 .22.08.42.23.57.14.14.33.23.53.23H1a.99.99 0 0 1-.71-.29c-.18-.19-.29-.44-.29-.71l5-8.994V2h-.5a.51.51 0 0 1-.35-.15A.469.469 0 0 1 4 1.5v-1c0-.13.06-.26.15-.35.09-.1.22-.15.35-.15h7c.13 0 .26.06.35.15.1.09.15.22.15.35v1c0 .129-.06.259-.15.349a.47.47 0 0 1-.35.15H11v3.248h-1V1.999H6v4.257l-.13.23-4.73 8.505h4.3l-.07.13Z"/>
        <path class="icons04" fill="#00A99D" d="M6.75 7.995h1.135v1.249L5.151 13.94l-.95.05c-.08 0-.16-.02-.24-.05a.597.597 0 0 1-.21-.14.595.595 0 0 1-.14-.21.493.493 0 0 1-.05-.24s1.86-3.437 2.56-4.716l.088-.164c.134-.252.253-.476.541-.476Z"/>
      </g>
    </g>
  </g>
</svg>