<svg viewBox="0 0 16 17" xmlns="http://www.w3.org/2000/svg" data-scheme="monochrome"><defs><g id="icon-def"><path fill="var(--color)" fill-rule="evenodd" d="M3.493 10.29h-1v1h1v-1Zm0 2h-1v1h1v-1Zm2-2h-1v1h1v-1Zm0 2h-1v1h1v-1Zm2.06-2h-1v1h1v-1Zm0 2h-1v1h1v-1Zm2-2h-1v1h1v-1Zm0 2h-1v1h1v-1Zm2-2h-1v1h1v-1Zm0 2h-1v1h1v-1Zm2-2h-1v1h1v-1Zm0 2h-1v1h1v-1Z" clip-rule="evenodd"/><path stroke="var(--color)" stroke-linecap="round" stroke-linejoin="round" stroke-width=".8" d="M4.588 1.29v3.677m2.095-1.623L4.627 5.44h-.039L2.493 3.344m8.285-2.054v3.677m2.095-1.623L10.817 5.44h-.039L8.683 3.344" fill="transparent"/><rect width="14.179" height="7.94" x=".911" y="7.771" stroke="var(--color)" stroke-linecap="round" stroke-linejoin="round" stroke-width="1.2" rx="1" fill="transparent"/></g></defs><view id="on-surface-enabled" viewBox="0 0 16 17"/><use href="#icon-def" x="0" y="0" style="--color:#696969"/><view id="on-primary-enabled" viewBox="0 17 16 17"/><use href="#icon-def" x="0" y="17" style="--color:#CCCCCC"/><view id="on-primary-hover" viewBox="16 17 16 17"/><use href="#icon-def" x="16" y="17" style="--color:#CCCCCC"/><view id="on-primary-active" viewBox="32 17 16 17"/><use href="#icon-def" x="32" y="17" style="--color:#363636"/><view id="on-primary-disabled" viewBox="48 17 16 17"/><use href="#icon-def" x="48" y="17" style="--color:#666666"/><view id="on-disabled-enabled" viewBox="0 34 16 17"/><use href="#icon-def" x="0" y="34" style="--color:#666666"/><view id="on-message-enabled" viewBox="0 51 16 17"/><use href="#icon-def" x="0" y="51" style="--color:#B3B3B3"/><view id="on-elevation-enabled" viewBox="0 68 16 17"/><use href="#icon-def" x="0" y="68" style="--color:#525151"/><view id="primary-enabled" viewBox="0 85 16 17"/><use href="#icon-def" x="0" y="85" style="--color:#2070CE"/><view id="primary-hover" viewBox="16 85 16 17"/><use href="#icon-def" x="16" y="85" style="--color:#437DC0"/><view id="primary-active" viewBox="32 85 16 17"/><use href="#icon-def" x="32" y="85" style="--color:#335884"/><view id="primary-disabled" viewBox="48 85 16 17"/><use href="#icon-def" x="48" y="85" style="--color:#999999"/><view id="neutral-enabled" viewBox="0 153 16 17"/><use href="#icon-def" x="0" y="153" style="--color:#616161"/><view id="neutral-hover" viewBox="16 153 16 17"/><use href="#icon-def" x="16" y="153" style="--color:#437DC0"/><view id="neutral-active" viewBox="32 153 16 17"/><use href="#icon-def" x="32" y="153" style="--color:#363636"/><view id="neutral-disabled" viewBox="48 153 16 17"/><use href="#icon-def" x="48" y="153" style="--color:#666666"/><view id="highlighted-enabled" viewBox="0 170 16 17"/><use href="#icon-def" x="0" y="170" style="--color:#525151"/><view id="bright-enabled" viewBox="0 187 16 17"/><use href="#icon-def" x="0" y="187" style="--color:#363636"/></svg>