<svg viewBox="0 0 16 16" xmlns="http://www.w3.org/2000/svg" data-scheme="monochrome"><defs><g id="icon-def"><path fill="var(--color)" fill-rule="evenodd" d="M0 0v7h7V0H0Zm6 6H1V1h5v5ZM3 4H2V3h1V2h1v1h1v1H4v1H3V4Zm2 9v1H4v-1h1Zm0-4v1H4V9h1Zm11-5a1 1 0 0 0-1-1H8v1h7v3H8v1h7v3H3V8H2v3c.008.176.06.348.15.5A1 1 0 0 0 2 12v3a1 1 0 0 0 1 1h12a1 1 0 0 0 1-1v-3a1 1 0 0 0-.15-.5A1 1 0 0 0 16 11V8a1 1 0 0 0-.16-.52A1 1 0 0 0 16 7V4Zm-1 11H3v-3h12v3Z" clip-rule="evenodd"/><path fill="var(--color)" d="M0 0h16v16H0z"/></g></defs><view id="on-surface-enabled" viewBox="0 0 16 16"/><use href="#icon-def" x="0" y="0" style="--color:#696969"/><view id="on-surface-hover" viewBox="16 0 16 16"/><use href="#icon-def" x="16" y="0" style="--color:null"/><view id="on-surface-active" viewBox="32 0 16 16"/><use href="#icon-def" x="32" y="0" style="--color:null"/><view id="on-surface-disabled" viewBox="48 0 16 16"/><use href="#icon-def" x="48" y="0" style="--color:null"/><view id="on-primary-enabled" viewBox="0 16 16 16"/><use href="#icon-def" x="0" y="16" style="--color:#CCCCCC"/><view id="on-primary-hover" viewBox="16 16 16 16"/><use href="#icon-def" x="16" y="16" style="--color:#616161"/><view id="on-primary-active" viewBox="32 16 16 16"/><use href="#icon-def" x="32" y="16" style="--color:#363636"/><view id="on-primary-disabled" viewBox="48 16 16 16"/><use href="#icon-def" x="48" y="16" style="--color:#666666"/><view id="on-disabled-enabled" viewBox="0 32 16 16"/><use href="#icon-def" x="0" y="32" style="--color:#666666"/><view id="on-disabled-hover" viewBox="16 32 16 16"/><use href="#icon-def" x="16" y="32" style="--color:null"/><view id="on-disabled-active" viewBox="32 32 16 16"/><use href="#icon-def" x="32" y="32" style="--color:null"/><view id="on-disabled-disabled" viewBox="48 32 16 16"/><use href="#icon-def" x="48" y="32" style="--color:null"/><view id="on-message-enabled" viewBox="0 48 16 16"/><use href="#icon-def" x="0" y="48" style="--color:#B3B3B3"/><view id="on-message-hover" viewBox="16 48 16 16"/><use href="#icon-def" x="16" y="48" style="--color:null"/><view id="on-message-active" viewBox="32 48 16 16"/><use href="#icon-def" x="32" y="48" style="--color:null"/><view id="on-message-disabled" viewBox="48 48 16 16"/><use href="#icon-def" x="48" y="48" style="--color:null"/><view id="on-elevation-enabled" viewBox="0 64 16 16"/><use href="#icon-def" x="0" y="64" style="--color:#525151"/><view id="on-elevation-hover" viewBox="16 64 16 16"/><use href="#icon-def" x="16" y="64" style="--color:null"/><view id="on-elevation-active" viewBox="32 64 16 16"/><use href="#icon-def" x="32" y="64" style="--color:null"/><view id="on-elevation-disabled" viewBox="48 64 16 16"/><use href="#icon-def" x="48" y="64" style="--color:null"/><view id="primary-enabled" viewBox="0 80 16 16"/><use href="#icon-def" x="0" y="80" style="--color:#2070CE"/><view id="primary-hover" viewBox="16 80 16 16"/><use href="#icon-def" x="16" y="80" style="--color:#437DC0"/><view id="primary-active" viewBox="32 80 16 16"/><use href="#icon-def" x="32" y="80" style="--color:#335884"/><view id="primary-disabled" viewBox="48 80 16 16"/><use href="#icon-def" x="48" y="80" style="--color:#999999"/><view id="neutral-enabled" viewBox="0 144 16 16"/><use href="#icon-def" x="0" y="144" style="--color:#616161"/><view id="neutral-hover" viewBox="16 144 16 16"/><use href="#icon-def" x="16" y="144" style="--color:null"/><view id="neutral-active" viewBox="32 144 16 16"/><use href="#icon-def" x="32" y="144" style="--color:null"/><view id="neutral-disabled" viewBox="48 144 16 16"/><use href="#icon-def" x="48" y="144" style="--color:null"/></svg>