<svg xmlns="http://www.w3.org/2000/svg" data-scheme="multicolor" viewBox="0 0 16 16"><defs><g id="icon-def"><path fill="var(--03)" d="M16 11.55v1.52h-2.26v2.26h-1.53v-2.26H10v-1.52h2.25V9.29h1.53v2.26z"/><path fill="var(--05)" d="M9.2 8.05a.93.93 0 1 1-1.86 0 .93.93 0 0 1 1.86 0m5.48-1.93A9.8 9.8 0 0 1 13.82 8c0 .09.08.17.13.25h-1.47a2 2 0 0 0 .17-.25 15.6 15.6 0 0 0-2-2.48 14.3 14.3 0 0 0-2.53-2 14.7 14.7 0 0 0-4.45 4.53 14.3 14.3 0 0 0 2 2.48 15 15 0 0 0 2.52 2.06c.27-.18.53-.38.8-.58v2.16c-.26-.13-.53-.26-.79-.41q-.869.51-1.82.84a6 6 0 0 1-2 .38 3 3 0 0 1-2.19-.8c-.91-.9-1.09-2.39-.5-4.2.22-.67.504-1.316.85-1.93C1.09 5.56.86 3.18 2.13 1.93 3 1 4.53.88 6.34 1.5c.629.221 1.235.503 1.81.84A11 11 0 0 1 10 1.49c1.8-.62 3.3-.47 4.21.43.88.89 1.06 2.39.47 4.2M3.11 9a9 9 0 0 0-.52 1.25c-.46 1.42-.37 2.58.25 3.18s1.78.68 3.18.2q.61-.22 1.19-.51a15.3 15.3 0 0 1-2.28-1.91A16 16 0 0 1 3.11 9m4.08-6Q6.612 2.684 6 2.44C4.61 2 3.45 2 2.83 2.64c-.85.84-.67 2.56.28 4.44a15.4 15.4 0 0 1 1.81-2.21A16 16 0 0 1 7.19 3m6.29-.32A2.1 2.1 0 0 0 12 2.12a5.4 5.4 0 0 0-1.69.32 8.4 8.4 0 0 0-1.2.56c.82.562 1.583 1.202 2.28 1.91a17 17 0 0 1 1.82 2.2q.309-.605.52-1.25c.46-1.46.37-2.62-.25-3.23z"/></g></defs><view id="enabled" viewBox="0 0 16 16"/><use href="#icon-def" style="--03:#24a19a;--05:#a1daa5"/><view id="hover" viewBox="16 0 16 16"/><use x="16" href="#icon-def" style="--03:#7ec8c5;--05:#c6e8c8"/><view id="active" viewBox="32 0 16 16"/><use x="32" href="#icon-def" style="--03:#009088;--05:#7bcc81"/><view id="disabled" viewBox="48 0 16 16"/><use x="48" href="#icon-def" style="--03:#3e3f42;--05:#3e3f42"/></svg>