<svg xmlns="http://www.w3.org/2000/svg" data-scheme="multicolor" viewBox="0 0 16 16"><defs><path id="icon-def" fill="var(--07)" d="M15.11 0H.89A.85.85 0 0 0 0 .89v14.22a.85.85 0 0 0 .89.89h14.22a.85.85 0 0 0 .85-.85V.89a.85.85 0 0 0-.85-.89M15 15H1V1h14zM7.77 3.48H3.25v-1h4.52zm2 2.52H5.25V5h4.52zm3 2.47H5.25v-1h7.52zm0 2.47H3.25v-1h9.52zm-5 2.47H3.25v-1h4.52z"/></defs><view id="enabled" viewBox="0 0 16 16"/><use href="#icon-def" style="--07:#f59065"/><view id="hover" viewBox="16 0 16 16"/><use x="16" href="#icon-def" style="--07:#facebc"/><view id="active" viewBox="32 0 16 16"/><use x="32" href="#icon-def" style="--07:#f37943"/><view id="disabled" viewBox="48 0 16 16"/><use x="48" href="#icon-def" style="--07:#3e3f42"/></svg>