<svg xmlns="http://www.w3.org/2000/svg" data-scheme="multicolor" viewBox="0 0 16 16"><defs><path id="icon-def" fill="var(--04)" d="M15.38 0H.62A.62.62 0 0 0 0 .62v14.76a.62.62 0 0 0 .62.62h14.76a.62.62 0 0 0 .62-.62V.62a.62.62 0 0 0-.62-.62M6 1h4v4H6zM5 15H1v-4h4zm0-5H1V6h4zm0-5H1V1h4zm5 10H6v-4h4zm5 0h-4v-4h4zm0-5h-4V6h4zm0-5h-4V1h4z"/></defs><view id="enabled" viewBox="0 0 16 16"/><use href="#icon-def" style="--04:#7ccdc7"/><view id="hover" viewBox="16 0 16 16"/><use x="16" href="#icon-def" style="--04:#b0e0dd"/><view id="active" viewBox="32 0 16 16"/><use x="32" href="#icon-def" style="--04:#45b9b1"/><view id="disabled" viewBox="48 0 16 16"/><use x="48" href="#icon-def" style="--04:#3e3f42"/></svg>