<svg xmlns="http://www.w3.org/2000/svg" data-scheme="multicolor" viewBox="0 0 16 16"><defs><path id="icon-def" fill="var(--02)" d="M12.91 11.46a4.24 4.24 0 0 1-1.83 1.32 7.6 7.6 0 0 1-2.72.44 7.6 7.6 0 0 1-2.91-.52 4.1 4.1 0 0 1-2-1.67 4.74 4.74 0 0 1-.71-2.54 6.4 6.4 0 0 1 .66-2.76 4.66 4.66 0 0 1 1.88-2.05 5.87 5.87 0 0 1 3-.73A4.64 4.64 0 0 1 11.6 4a3.58 3.58 0 0 1 1.17 2.72 3.9 3.9 0 0 1-.41 1.75 3.7 3.7 0 0 1-1.09 1.35 1.56 1.56 0 0 1-.82.38.25.25 0 0 1-.18-.08.37.37 0 0 1-.08-.25q.023-.294.09-.58l1-4.74H9.54l-.17.74a1.9 1.9 0 0 0-1.74-.9A3.15 3.15 0 0 0 4.93 6a4.93 4.93 0 0 0-.88 2.83 2.8 2.8 0 0 0 .73 2 2.4 2.4 0 0 0 1.82.76 2.5 2.5 0 0 0 1.79-.75 1 1 0 0 0 .37.56c.252.144.54.21.83.19a4 4 0 0 0 3.34-1.72 4.88 4.88 0 0 0 1-3 5.1 5.1 0 0 0-.68-2.61 4.64 4.64 0 0 0-2-1.84 6.54 6.54 0 0 0-3-.65 7.34 7.34 0 0 0-3.49.81 5.73 5.73 0 0 0-2.4 2.4 7 7 0 0 0-.79 3.42 6.56 6.56 0 0 0 .77 3.13A5 5 0 0 0 4.7 13.7a8.9 8.9 0 0 0 3.77.74 7.7 7.7 0 0 0 3.82-.88 4.7 4.7 0 0 0 2-2.1zM8.75 8.6a3.5 3.5 0 0 1-.6 1.18 1.7 1.7 0 0 1-.5.42 1.43 1.43 0 0 1-.7.18 1 1 0 0 1-.84-.4 1.83 1.83 0 0 1-.34-1.23A5.1 5.1 0 0 1 6 7.31a2.6 2.6 0 0 1 .73-1.25 1.5 1.5 0 0 1 1-.44 1.09 1.09 0 0 1 .87.4c.27.318.412.724.4 1.14a4.6 4.6 0 0 1-.25 1.44"/></defs><view id="enabled" viewBox="0 0 16 16"/><use href="#icon-def" style="--02:#9e9ecc"/><view id="hover" viewBox="16 0 16 16"/><use x="16" href="#icon-def" style="--02:#c4c4e1"/><view id="active" viewBox="32 0 16 16"/><use x="32" href="#icon-def" style="--02:#7979b8"/><view id="disabled" viewBox="48 0 16 16"/><use x="48" href="#icon-def" style="--02:#3e3f42"/></svg>