<svg xmlns="http://www.w3.org/2000/svg" data-scheme="multicolor" viewBox="0 0 16 16"><defs><g id="icon-def"><path fill="var(--07)" d="M8.62 10.12h-2V8.45h1v-3h-3v3h1v5.41h3v-1h-2v-1.74h2zm-3-3.69h1v1h-1zm5.43 5.31H8.62V9.3h2.43zm0 2.83H8.62v-2.44h2.43z"/><path fill="var(--04)" fill-rule="evenodd" d="M15.5 0H.5a.5.5 0 0 0-.5.5v15a.5.5 0 0 0 .5.5h15a.5.5 0 0 0 .5-.5V.5a.5.5 0 0 0-.5-.5M2 2h9v1H2zM1 15V5h14v10z" clip-rule="evenodd"/></g></defs><view id="enabled" viewBox="0 0 16 16"/><use href="#icon-def" style="--07:#f59065;--04:#7ccdc7"/><view id="hover" viewBox="16 0 16 16"/><use x="16" href="#icon-def" style="--07:#facebc;--04:#b0e0dd"/><view id="active" viewBox="32 0 16 16"/><use x="32" href="#icon-def" style="--07:#f37943;--04:#45b9b1"/><view id="disabled" viewBox="48 0 16 16"/><use x="48" href="#icon-def" style="--07:#3e3f42;--04:#3e3f42"/></svg>