<svg xmlns="http://www.w3.org/2000/svg" data-scheme="multicolor" viewBox="0 0 16 16"><defs><path id="icon-def" fill="var(--05)" d="M15.38 0H.62A.62.62 0 0 0 0 .62v14.73a.62.62 0 0 0 .62.65h14.76a.62.62 0 0 0 .62-.62V.62a.62.62 0 0 0-.62-.62M6 1h4v4H6zM1 1h4v4H1zm4 14H1v-4h4zm0-9h1v4H5zm5 9H6v-4h4zm0-9h1v4h-1zm5 9h-4v-4h4zm0-10h-4V1h4z"/></defs><view id="enabled" viewBox="0 0 16 16"/><use href="#icon-def" style="--05:#a1daa5"/><view id="hover" viewBox="16 0 16 16"/><use x="16" href="#icon-def" style="--05:#c6e8c8"/><view id="active" viewBox="32 0 16 16"/><use x="32" href="#icon-def" style="--05:#7bcc81"/><view id="disabled" viewBox="48 0 16 16"/><use x="48" href="#icon-def" style="--05:#3e3f42"/></svg>