<svg xmlns="http://www.w3.org/2000/svg" data-scheme="multicolor" viewBox="0 0 16 16"><defs><path id="icon-def" fill="var(--07)" d="M15.11 15.87H.89A.86.86 0 0 1 0 15V.8a.86.86 0 0 1 .89-.86h14.22A.86.86 0 0 1 16 .8V15a.86.86 0 0 1-.89.87M1 14.87h14V.94H1zm11.13-5.36v-3h-3v1h-3v-2h1v-3h-3v3h1v7h4v1h3v-3h-3v1h-3v-3h3v1zm-7-5v-1h1v1z"/></defs><view id="enabled" viewBox="0 0 16 16"/><use href="#icon-def" style="--07:#f59065"/><view id="hover" viewBox="16 0 16 16"/><use x="16" href="#icon-def" style="--07:#facebc"/><view id="active" viewBox="32 0 16 16"/><use x="32" href="#icon-def" style="--07:#f37943"/><view id="disabled" viewBox="48 0 16 16"/><use x="48" href="#icon-def" style="--07:#3e3f42"/></svg>