<svg xmlns="http://www.w3.org/2000/svg" width="16" height="16" fill="none" viewBox="0 0 16 16">
  <g class="conditions" clip-path="url(#a)">
    <g class="conditions">
      <path fill="#F26522" d="M10.92 7.25v4.24a.92.92 0 0 1-.92.92h-.72a.92.92 0 0 1-.91-.92v-1.41l1-1.08v2.44h.55V8.36l1-1.11ZM6.31 2.76l-.95-1h8.57l-1 1h1.2L16 .74H3.28l1.83 2 1.2.02Zm6.41 1L7.63 9.4v5.12a.91.91 0 0 1-.91.91H6a.92.92 0 0 1-.92-.91V9.4L0 3.76h12.72Zm-2.08 1H2.07l4 4.29v5.38h.55V9.05l4.02-4.29Z" class="icons07"/>
    </g>
  </g>
</svg>