<svg width="24" height="24" viewBox="0 0 24 24" fill="none" xmlns="http://www.w3.org/2000/svg">
<path d="M10.35 23C9.844 23 9.3955 22.6665 9.246 22.1835L7.0495 14.812L0.7245 12.2935C0.2875 12.121 0 11.6955 0 11.2125C0 10.7295 0.3105 10.3155 0.759 10.143L7.1185 7.82L9.246 0.8165C9.3955 0.3335 9.844 0 10.35 0C10.856 0 11.3045 0.3335 11.454 0.8165L13.593 7.82L19.9525 10.143C20.401 10.304 20.7 10.7295 20.7115 11.2125C20.723 11.6955 20.424 12.121 19.987 12.2935L13.662 14.8005L11.4655 22.172C11.316 22.655 10.8675 22.9885 10.3615 22.9885L10.35 23ZM4.3815 11.27L8.418 12.88C8.74 13.0065 8.993 13.2825 9.0965 13.616L10.35 17.825L11.6035 13.616C11.707 13.2825 11.9485 13.0065 12.282 12.88L16.3185 11.27L12.2475 9.7865C11.914 9.66 11.6495 9.384 11.546 9.039L10.35 5.0945L9.154 9.039C9.0505 9.384 8.786 9.66 8.4525 9.7865L4.3815 11.27ZM19.55 23C19.205 23 18.9175 22.7355 18.883 22.3905C18.653 20.148 18.561 19.7225 16.7095 19.55C16.5432 19.5343 16.3888 19.4573 16.2761 19.334C16.1635 19.2108 16.1007 19.05 16.1 18.883C16.1 18.538 16.3645 18.2505 16.7095 18.216C18.561 18.0435 18.6645 17.756 18.883 15.548C18.9043 15.3862 18.9837 15.2376 19.1064 15.13C19.2291 15.0224 19.3868 14.963 19.55 14.963C19.7132 14.963 19.8709 15.0224 19.9936 15.13C20.1163 15.2376 20.1957 15.3862 20.217 15.548C20.4355 17.756 20.539 18.0435 22.3905 18.216C22.7355 18.2505 23 18.538 23 18.883C23 19.228 22.747 19.5155 22.402 19.55C20.5505 19.7225 20.447 20.148 20.217 22.3905C20.1825 22.7355 19.895 22.9885 19.55 22.9885V23Z" fill="white"/>
</svg>
