<svg viewBox="0 0 16 17" xmlns="http://www.w3.org/2000/svg" data-scheme="monochrome"><defs><g id="icon-def"><path fill="var(--color)" fill-rule="evenodd" d="M11.117 2.975a1.4 1.4 0 1 1 2.8 0 1.4 1.4 0 0 1-2.8 0Zm1.4-2.6a2.6 2.6 0 0 0-.6 5.13v10.47h1.2V5.505a2.601 2.601 0 0 0-.6-5.13ZM6.959 8.96a2.601 2.601 0 0 0 .123 5.086v1.929h1.2v-1.987a2.601 2.601 0 0 0-.123-5.028V.975h-1.2V8.96Zm-.8 2.53a1.4 1.4 0 1 1 2.8 0 1.4 1.4 0 0 1-2.8 0ZM2.198 3.51A2.6 2.6 0 0 0 2 8.608v7.366h1.2V8.609a2.601 2.601 0 0 0 .198-5.006V.975h-1.2v2.534ZM1.2 6.077a1.4 1.4 0 1 1 2.8 0 1.4 1.4 0 0 1-2.8 0Z" clip-rule="evenodd"/></g></defs><view id="on-surface--enabled" viewBox="0 0 16 17"/><use href="#icon-def" x="0" y="0" style="--color:#696969"/><view id="on-surface--hover" viewBox="16 0 16 17"/><use href="#icon-def" x="16" y="0" style="--color:#696969"/><view id="on-surface--active" viewBox="32 0 16 17"/><use href="#icon-def" x="32" y="0" style="--color:#696969"/><view id="on-surface--disabled" viewBox="48 0 16 17"/><use href="#icon-def" x="48" y="0" style="--color:#696969"/><view id="on-primary--enabled" viewBox="0 17 16 17"/><use href="#icon-def" x="0" y="17" style="--color:#CCCCCC"/><view id="on-primary--hover" viewBox="16 17 16 17"/><use href="#icon-def" x="16" y="17" style="--color:#CCCCCC"/><view id="on-primary--active" viewBox="32 17 16 17"/><use href="#icon-def" x="32" y="17" style="--color:#363636"/><view id="on-primary--disabled" viewBox="48 17 16 17"/><use href="#icon-def" x="48" y="17" style="--color:#666666"/><view id="on-disabled--enabled" viewBox="0 34 16 17"/><use href="#icon-def" x="0" y="34" style="--color:#666666"/><view id="on-message--enabled" viewBox="0 51 16 17"/><use href="#icon-def" x="0" y="51" style="--color:#B3B3B3"/><view id="on-elevation--enabled" viewBox="0 68 16 17"/><use href="#icon-def" x="0" y="68" style="--color:#525151"/><view id="primary--enabled" viewBox="0 85 16 17"/><use href="#icon-def" x="0" y="85" style="--color:#2070CE"/><view id="primary--hover" viewBox="16 85 16 17"/><use href="#icon-def" x="16" y="85" style="--color:#437DC0"/><view id="primary--active" viewBox="32 85 16 17"/><use href="#icon-def" x="32" y="85" style="--color:#335884"/><view id="primary--disabled" viewBox="48 85 16 17"/><use href="#icon-def" x="48" y="85" style="--color:#999999"/><view id="neutral--enabled" viewBox="0 153 16 17"/><use href="#icon-def" x="0" y="153" style="--color:#616161"/><view id="neutral--hover" viewBox="16 153 16 17"/><use href="#icon-def" x="16" y="153" style="--color:#437DC0"/><view id="neutral--active" viewBox="32 153 16 17"/><use href="#icon-def" x="32" y="153" style="--color:#363636"/><view id="neutral--disabled" viewBox="48 153 16 17"/><use href="#icon-def" x="48" y="153" style="--color:#666666"/><view id="highlighted--enabled" viewBox="0 170 16 17"/><use href="#icon-def" x="0" y="170" style="--color:#525151"/><view id="bright--enabled" viewBox="0 187 16 17"/><use href="#icon-def" x="0" y="187" style="--color:#363636"/></svg>