<svg viewBox="0 0 17 17" xmlns="http://www.w3.org/2000/svg" data-scheme="monochrome"><defs><g id="icon-def"><path stroke="var(--color)" stroke-linecap="square" stroke-linejoin="round" stroke-width="1.2" d="M11.7 14.88c-1.067-.888-3.644-4.266-3.644-4.266s-2.756.711-4.89-.8c-3.288-2.311-1.6-5.778-1.6-5.778l2.756 2.667 2.49-.356.177-2.489-2.667-2.755s3.467-1.69 5.778 1.6c1.511 2.222.8 4.889.8 4.889s3.378 2.577 4.267 3.644c.444.533 1.244 1.778-.267 3.378-1.511 1.6-2.667.711-3.2.266Z" fill="transparent"/></g></defs><view id="on-surface--enabled" viewBox="0 0 17 17"/><use href="#icon-def" x="0" y="0" style="--color:#696969"/><view id="on-surface--hover" viewBox="17 0 17 17"/><use href="#icon-def" x="17" y="0" style="--color:#696969"/><view id="on-surface--active" viewBox="34 0 17 17"/><use href="#icon-def" x="34" y="0" style="--color:#696969"/><view id="on-surface--disabled" viewBox="51 0 17 17"/><use href="#icon-def" x="51" y="0" style="--color:#696969"/><view id="on-primary--enabled" viewBox="0 17 17 17"/><use href="#icon-def" x="0" y="17" style="--color:#CCCCCC"/><view id="on-primary--hover" viewBox="17 17 17 17"/><use href="#icon-def" x="17" y="17" style="--color:#CCCCCC"/><view id="on-primary--active" viewBox="34 17 17 17"/><use href="#icon-def" x="34" y="17" style="--color:#363636"/><view id="on-primary--disabled" viewBox="51 17 17 17"/><use href="#icon-def" x="51" y="17" style="--color:#666666"/><view id="on-disabled--enabled" viewBox="0 34 17 17"/><use href="#icon-def" x="0" y="34" style="--color:#666666"/><view id="on-message--enabled" viewBox="0 51 17 17"/><use href="#icon-def" x="0" y="51" style="--color:#B3B3B3"/><view id="on-elevation--enabled" viewBox="0 68 17 17"/><use href="#icon-def" x="0" y="68" style="--color:#525151"/><view id="primary--enabled" viewBox="0 85 17 17"/><use href="#icon-def" x="0" y="85" style="--color:#2070CE"/><view id="primary--hover" viewBox="17 85 17 17"/><use href="#icon-def" x="17" y="85" style="--color:#437DC0"/><view id="primary--active" viewBox="34 85 17 17"/><use href="#icon-def" x="34" y="85" style="--color:#335884"/><view id="primary--disabled" viewBox="51 85 17 17"/><use href="#icon-def" x="51" y="85" style="--color:#999999"/><view id="neutral--enabled" viewBox="0 153 17 17"/><use href="#icon-def" x="0" y="153" style="--color:#616161"/><view id="neutral--hover" viewBox="17 153 17 17"/><use href="#icon-def" x="17" y="153" style="--color:#437DC0"/><view id="neutral--active" viewBox="34 153 17 17"/><use href="#icon-def" x="34" y="153" style="--color:#363636"/><view id="neutral--disabled" viewBox="51 153 17 17"/><use href="#icon-def" x="51" y="153" style="--color:#666666"/><view id="highlighted--enabled" viewBox="0 170 17 17"/><use href="#icon-def" x="0" y="170" style="--color:#525151"/><view id="bright--enabled" viewBox="0 187 17 17"/><use href="#icon-def" x="0" y="187" style="--color:#363636"/></svg>