<svg xmlns="http://www.w3.org/2000/svg" data-scheme="multicolor" viewBox="0 0 $width$ $height$"><defs><g id="icon-def" fill-rule="evenodd" clip-rule="evenodd"><path fill="var(--green)" d="M3.5 11A4.5 4.5 0 0 1 8 6.5h9.846a4.5 4.5 0 0 1 4.5 4.5v9.846a4.5 4.5 0 0 1-4.5 4.5H8a4.5 4.5 0 0 1-4.5-4.5zm5 .5v8.846h8.846V11.5z"/><path fill="var(--blue)" d="M17.538 32.27a2.115 2.115 0 1 0 0 4.23 2.115 2.115 0 0 0 0-4.23m-7.115 2.114a7.115 7.115 0 1 1 14.23 0 7.115 7.115 0 0 1-14.23 0"/><path fill="var(--orange)" d="M33.692 20.154a4.423 4.423 0 1 0 0 8.846 4.423 4.423 0 0 0 0-8.846m-9.423 4.423a9.423 9.423 0 0 1 9.423-9.423 9.423 9.423 0 1 1-9.423 9.423"/></g></defs><view id="enabled" viewBox="0 0 46 47"/><use href="#icon-def" style="--green:#66BB6A;--blue:#64B5F6;--orange:#FFB74D"/><view id="hover" viewBox="46 0 46 47"/><use x="46" href="#icon-def" style="--green:#81C784;--blue:#64B5F6;--orange:#FFB74D"/><view id="active" viewBox="92 0 46 47"/><use x="92" href="#icon-def" style="--green:#4CAF50;--blue:#42A5F5;--orange:#FFA726"/><view id="disabled" viewBox="138 0 46 47"/><use x="138" href="#icon-def" style="--green:#E0E0E0;--blue:#E0E0E0;--orange:#E0E0E0"/></svg>