<svg xmlns="http://www.w3.org/2000/svg" data-scheme="multicolor" viewBox="0 0 16 16"><defs><path id="icon-def" fill="var(--04)" d="M11.58.56a4.8 4.8 0 0 0-1.35-.19A4.92 4.92 0 0 0 5.49 4a4.86 4.86 0 0 0 .59 4L.9 13.72a.26.26 0 0 0 0 .37l1.66 1.48a.29.29 0 0 0 .38 0l5.14-5.79q.375.198.78.32c.443.122.9.186 1.36.19A4.93 4.93 0 0 0 11.58.56m2.2 5.75A3.71 3.71 0 0 1 10.24 9a3.5 3.5 0 0 1-1-.15 3.68 3.68 0 0 1 1-7.22 3.69 3.69 0 0 1 3.54 4.68"/></defs><view id="enabled" viewBox="0 0 16 16"/><use href="#icon-def" style="--04:#00a99d"/><view id="hover" viewBox="16 0 16 16"/><use x="16" href="#icon-def" style="--04:#7ccdc7"/><view id="active" viewBox="32 0 16 16"/><use x="32" href="#icon-def" style="--04:#00998c"/><view id="disabled" viewBox="48 0 16 16"/><use x="48" href="#icon-def" style="--04:#a4a5a6"/></svg>