<svg xmlns="http://www.w3.org/2000/svg" data-scheme="multicolor" viewBox="0 0 16 16"><defs><g id="icon-def"><path fill="var(--04)" d="M13.87 11.36 16 15c0 .27-.1.53-.29.71s-.44.29-.71.29H1a1 1 0 0 1-.71-.29C.11 15.52 0 15.27 0 15l5-9V2h-.5a.5.5 0 0 1-.35-.15A.47.47 0 0 1 4 1.5v-1c0-.13.06-.26.15-.35.09-.1.22-.15.35-.15h7c.13 0 .26.06.35.15.1.09.15.22.15.35v1c0 .13-.06.26-.15.35a.47.47 0 0 1-.35.15H11v1.2h-1V2H6v4.26l-.13.23L1.14 15h13.72l-2.13-3.64z"/><path fill="var(--04)" d="M3.61 13.6a.5.5 0 0 1-.05-.24h.01s.87-1.26 1.65-2.69v.78h3.31V14H4.2c-.08 0-.16-.02-.24-.05a.6.6 0 0 1-.21-.14.6.6 0 0 1-.14-.21"/><path fill="var(--02)" d="M12.09 7.96H12V4.31H9.56v3.65H5.91v2.43h3.65V14h2.25c.06 0 .13-.02.19-.04v-3.57h3.65V7.96z"/></g></defs><view id="enabled" viewBox="0 0 16 16"/><use href="#icon-def" style="--04:#00a99d;--02:#605cab"/><view id="hover" viewBox="16 0 16 16"/><use x="16" href="#icon-def" style="--04:#7ccdc7;--02:#9e9ecc"/><view id="active" viewBox="32 0 16 16"/><use x="32" href="#icon-def" style="--04:#00998c;--02:#484099"/><view id="disabled" viewBox="48 0 16 16"/><use x="48" href="#icon-def" style="--04:#a4a5a6;--02:#a4a5a6"/></svg>