<svg xmlns="http://www.w3.org/2000/svg" width="16" height="16" viewBox="0 0 16 16">
    <g>
        <path class="icons04" fill="#CCC" d="M7.2,5.26H5.43A.28.28,0,0,1,5.16,5V3.23A.28.28,0,0,1,5.43,3H7.2a.28.28,0,0,1,.27.27V5A.28.28,0,0,1,7.2,5.26ZM11,8.85V7.09a.27.27,0,0,0-.27-.27H9a.27.27,0,0,0-.27.27V8.85A.27.27,0,0,0,9,9.12h1.76A.27.27,0,0,0,11,8.85Z"/>
        <path class="icons08" fill="#CCC" d="M10.73,5.26H9A.27.27,0,0,1,8.7,5V3.23A.27.27,0,0,1,9,3h1.76a.27.27,0,0,1,.27.27V5A.27.27,0,0,1,10.73,5.26ZM7.47,12.72V11a.28.28,0,0,0-.27-.27H5.43a.28.28,0,0,0-.27.27v1.77a.28.28,0,0,0,.27.27H7.2A.28.28,0,0,0,7.47,12.72Z"/>
        <path class="icons01" fill="#CCC" d="M7.2,9.12H5.43a.28.28,0,0,1-.27-.27V7.09a.28.28,0,0,1,.27-.27H7.2a.28.28,0,0,1,.27.27V8.85A.28.28,0,0,1,7.2,9.12Zm3.8,3.6V11a.28.28,0,0,0-.27-.27H9A.28.28,0,0,0,8.7,11v1.77A.28.28,0,0,0,9,13h1.76A.28.28,0,0,0,11,12.72Z"/>
        <path class="icons09" style="fill:transparent" stroke="#CCC" d="M12.31,15.45H3.86a.68.68,0,0,1-.68-.69V1.19A.68.68,0,0,1,3.86.5h8.45a.69.69,0,0,1,.68.69V14.76A.69.69,0,0,1,12.31,15.45Z"/>
    </g>
</svg>