<svg viewBox="0 0 32 32" xmlns="http://www.w3.org/2000/svg" data-scheme="monochrome"><defs><g id="icon-def"><path fill="var(--color)" d="M15.57 31.36a15.5 15.5 0 1 1 15.5-15.5 15.52 15.52 0 0 1-15.5 15.5Zm0-30a14.5 14.5 0 1 0 14.5 14.5 14.52 14.52 0 0 0-14.5-14.5Zm0 27a12.5 12.5 0 1 1 12.5-12.5 12.51 12.51 0 0 1-12.5 12.5Zm0-24a11.5 11.5 0 1 0 11.5 11.5 11.51 11.51 0 0 0-11.5-11.5Zm5 17.51a1.47 1.47 0 0 1-1.06-.44l-3.91-3.89-3.89 3.89a1.49 1.49 0 0 1-2.12 0 1.51 1.51 0 0 1 0-2.12l3.89-3.89-3.89-3.89a1.5 1.5 0 1 1 2.12-2.12l3.89 3.89 3.89-3.89a1.51 1.51 0 0 1 2.448.486 1.49 1.49 0 0 1-.328 1.634l-3.89 3.89 3.89 3.89a1.49 1.49 0 0 1 0 2.12 1.47 1.47 0 0 1-1.06.44h.02Zm-5-5.74 4.6 4.6a.5.5 0 0 0 .848-.355.501.501 0 0 0-.148-.355l-4.59-4.6 4.59-4.59a.5.5 0 0 0 0-.71.48.48 0 0 0-.7 0l-4.6 4.6-4.57-4.6a.48.48 0 0 0-.7 0 .5.5 0 0 0 0 .71l4.59 4.59L10.3 20a.5.5 0 0 0 .35.853.5.5 0 0 0 .35-.143l4.57-4.58Z"/></g></defs><view id="neutral--enabled" viewBox="0 288 32 32"/><use href="#icon-def" x="0" y="288" style="--color:#B3B3B3"/><view id="neutral--hover" viewBox="32 288 32 32"/><use href="#icon-def" x="32" y="288" style="--color:#437DC0"/><view id="neutral--active" viewBox="64 288 32 32"/><use href="#icon-def" x="64" y="288" style="--color:#FFFFFF"/><view id="neutral--disabled" viewBox="96 288 32 32"/><use href="#icon-def" x="96" y="288" style="--color:#7F7F7F"/></svg>