<svg viewBox="0 0 32 32" xmlns="http://www.w3.org/2000/svg" data-scheme="monochrome"><defs><g id="icon-def"><path fill="var(--color)" d="M16 32.5A16.5 16.5 0 1 1 32.5 16 16.52 16.52 0 0 1 16 32.5Zm0-30A13.5 13.5 0 1 0 29.5 16 13.51 13.51 0 0 0 16 2.5Zm1.44 13.06 4.24-4.24a1 1 0 1 0-1.41-1.41L16 14.15l-4.22-4.24a1 1 0 0 0-1.41 1.41l4.24 4.24-4.24 4.25a1 1 0 1 0 1.41 1.41L16 17l4.24 4.24a1 1 0 1 0 1.41-1.41l-4.21-4.27Z"/></g></defs><view id="neutral--enabled" viewBox="0 288 32 32"/><use href="#icon-def" x="0" y="288" style="--color:#B3B3B3"/><view id="neutral--hover" viewBox="32 288 32 32"/><use href="#icon-def" x="32" y="288" style="--color:#437DC0"/><view id="neutral--active" viewBox="64 288 32 32"/><use href="#icon-def" x="64" y="288" style="--color:#FFFFFF"/><view id="neutral--disabled" viewBox="96 288 32 32"/><use href="#icon-def" x="96" y="288" style="--color:#7F7F7F"/></svg>