<svg viewBox="0 0 32 32" xmlns="http://www.w3.org/2000/svg" data-scheme="monochrome"><defs><g id="icon-def"><path fill="var(--color)" d="M16.11-.61a16.5 16.5 0 1 0 16.5 16.5 16.52 16.52 0 0 0-16.5-16.5Zm0 30a13.5 13.5 0 1 1 13.5-13.5 13.51 13.51 0 0 1-13.5 13.5Zm-7-7.12a.5.5 0 0 1-.493-.399.52.52 0 0 1 .033-.321l6.8-14a.49.49 0 0 1 .44-.28.46.46 0 0 1 .45.27l7.21 14a.5.5 0 0 1-.11.6.5.5 0 0 1-.61 0l-6.92-4.53-6.52 4.57a.51.51 0 0 1-.28.09Z"/></g></defs><view id="neutral--enabled" viewBox="0 288 32 32"/><use href="#icon-def" x="0" y="288" style="--color:#B3B3B3"/><view id="neutral--hover" viewBox="32 288 32 32"/><use href="#icon-def" x="32" y="288" style="--color:#437DC0"/><view id="neutral--active" viewBox="64 288 32 32"/><use href="#icon-def" x="64" y="288" style="--color:#FFFFFF"/><view id="neutral--disabled" viewBox="96 288 32 32"/><use href="#icon-def" x="96" y="288" style="--color:#7F7F7F"/></svg>