<svg viewBox="0 0 32 32" xmlns="http://www.w3.org/2000/svg" data-scheme="monochrome"><defs><g id="icon-def"><path fill="var(--color)" d="M15.83 31.3h-.3v-1h1v1h-.7Zm-1.33-.05c-.34 0-.69-.07-1-.13l.15-1c.32.05.63.08 1 .11l-.15 1.02Zm3.09-.05-.11-1c.32 0 .64-.08 1-.14l.18 1c-.38.05-.72.1-1.07.14Zm-5.13-.26-1-.26.28-1c.31.09.62.17.94.24l-.22 1.02Zm7.17-.11-.25-1c.32-.08.63-.16.93-.26l.31.95c-.33.13-.62.23-.99.31Zm-9.15-.48c-.32-.11-.64-.25-1-.39l.41-.91.89.37-.3.93Zm11.11-.16-.37-.92c.3-.12.59-.25.88-.39l.44.9c-.31.15-.63.29-.95.41Zm-13-.68c-.3-.16-.6-.33-.89-.51l.52-.85c.28.17.55.33.84.48l-.47.88Zm14.86-.21-.45-.87c.28-.16.55-.32.82-.5l.55.84c-.37.23-.62.36-.92.53Zm-16.62-.87c-.28-.2-.55-.41-.82-.63l.64-.8c.246.21.503.408.77.59l-.59.84Zm9-.13v-1h1l.08 1c-.39-.01-.73 0-1.08 0Zm-.45 0c-.35 0-.69 0-1-.08l.12-1c.32 0 .63.06.95.07l-.07 1.01Zm9.79-.12-.6-.8c.261-.19.511-.393.75-.61l.66.76c-.26.21-.53.47-.81.64v.01Zm-7.27 0-.16-1c.31-.05.63-.11.93-.19l.25 1a4.576 4.576 0 0 0-1.02.14v.05Zm-4.59-.08c-.34-.07-.67-.16-1-.25l.28-1c.3.09.61.16.93.23l-.21 1.02Zm6.61-.43-.33-.95c.3-.1.6-.22.89-.35l.41.92c-.32.09-.64.21-.97.33v.05Zm-8.6-.16c-.32-.12-.64-.26-1-.41l.43-.9c.29.14.58.27.88.38l-.31.93Zm-6.08-.34c-.25-.24-.5-.48-.73-.73l.73-.69c.22.24.44.47.68.69l-.68.73Zm21.49-.3-.7-.71c.23-.23.45-.46.66-.71l.75.67a10.02 10.02 0 0 1-.71.7v.05Zm-4.91-.05-.48-.87c.28-.16.56-.32.82-.5l.55.84a8.703 8.703 0 0 1-.89.48v.05Zm-12.37-.27c-.3-.168-.59-.352-.87-.55l.58-.82c.257.188.524.362.8.52l-.51.85Zm14.11-.92-.62-.79c.25-.2.49-.4.73-.62l.68.73c-.26.24-.52.46-.79.68Zm-19.73 0c-.22-.26-.43-.54-.63-.82l.8-.6c.19.26.39.52.59.77l-.76.65Zm3.93-.26c-.27-.23-.52-.46-.77-.71l.71-.71c.221.23.455.447.7.65l-.64.77Zm20.34-.08-.79-.61c.2-.26.39-.52.57-.79l.83.56c-.2.27-.4.55-.61.82v.02Zm-3-1.06-.74-.67c.21-.24.42-.48.61-.74l.8.61c-.23.26-.46.57-.69.78l.02.02Zm-22.47-.3c-.18-.29-.35-.59-.51-.89l.88-.47c.147.28.307.56.48.84l-.85.52Zm3.65-.05c-.22-.27-.43-.54-.63-.83l.81-.58c.19.26.38.52.59.76l-.77.65Zm23-.32-.86-.5c.16-.28.31-.57.45-.86l.9.44c-.18.36-.34.62-.52.92h.03Zm-2.9-1-.87-.56c.17-.27.33-.54.48-.83l.88.47c-.16.36-.34.63-.52.92h.03Zm-21.3-.38c-.18-.29-.34-.6-.5-.91l.9-.44c.137.288.291.569.46.84l-.86.51Zm-3.41-.07c-.14-.32-.27-.63-.39-1l.94-.34c.11.3.23.6.36.89l-.91.45Zm28.5-.41-.93-.38c.12-.3.24-.6.34-.91l1 .32c-.16.33-.28.65-.41.97Zm-2.85-1-.92-.39c.13-.29.24-.59.34-.89l1 .31a10.13 10.13 0 0 1-.42.99v-.02Zm-23.15-.39c-.13-.32-.24-.65-.34-1l1-.28c.09.31.2.61.31.91l-.97.37ZM1 20.17c-.09-.33-.18-.66-.25-1l1-.22c.07.32.15.63.24.94l-.99.28Zm29.87-.43-1-.25c.08-.31.15-.62.21-.94l1 .19c-.08.34-.17.67-.26 1h.05Zm-2.84-1-1-.24c.07-.3.13-.62.18-.93l1 .15c-.08.35-.15.69-.21 1.03l.03-.01Zm-24.4-.44c-.07-.33-.12-.68-.16-1l1-.11c0 .32.09.63.15.94l-.99.17Zm-3.12-.15c0-.33-.09-.68-.12-1l1-.09c0 .333.04.667.12 1l-1 .09Zm30.7-.43-1-.13c.04-.32.07-.653.09-1l1 .06c-.01.35-.05.73-.09 1.07Zm-2.91-1-1-.07v-.95h1v.15c.03.25.02.55 0 .84v.03Zm-25-.44v-1.04h1v.96l-1 .08Zm-3-.15v-1.3l1 .07v1.28l-1-.05Zm30-.43v-1l1-.08v1l-1 .08Zm-3-1c0-.32-.07-.64-.13-1l1-.18c.06.34.11.69.14 1l-1.01.18Zm-22.87-.4-1-.13c0-.35.1-.69.17-1l1 .22c-.08.28-.13.61-.17.91Zm-3-.43-1-.13c0-.34.11-.68.17-1l1 .19c-.05.31-.1.62-.14.94h-.03Zm28.72-.13c0-.32-.1-.64-.17-1l1-.21c.073.327.133.66.18 1l-1.01.21Zm-3.24-.91c-.08-.31-.18-.62-.29-.92l1-.33c.11.32.22.65.31 1l-1.02.25Zm-22.11-.4-1-.29c.1-.34.21-.66.34-1l.93.38c-.07.3-.14.6-.24.91H4.8Zm-3-.45-1-.26c.09-.33.19-.66.31-1l.94.33c-.05.31-.13.62-.21.95l-.04-.02Zm27.94-.13c-.08-.31-.18-.62-.29-.92l.94-.34c.12.33.22.65.32 1l-.97.26ZM26.29 11a8.61 8.61 0 0 0-.43-.86l.87-.49c.172.302.33.612.47.93l-.91.42Zm-20.75-.35-.89-.44c.16-.32.32-.62.5-.91l.85.52c-.16.27-.31.55-.46.83Zm-3.07-.5-.92-.38c.13-.32.28-.63.43-.94l.9.45c-.15.28-.28.58-.41.87ZM29.14 10c-.13-.29-.27-.59-.42-.87l.89-.46c.16.31.31.62.44.93l-.91.4Zm-3.79-.67a9.007 9.007 0 0 0-.57-.77l.78-.56c.221.27.428.55.62.84l-.83.49ZM6.54 9l-.81-.59c.21-.28.43-.55.65-.81l.76.65a18.44 18.44 0 0 0-.6.75Zm-3.2-.59-.86-.51c.18-.3.36-.59.56-.87l.82.56c-.18.29-.35.56-.52.84v-.02Zm24.91-.11c-.17-.28-.34-.55-.53-.81l.82-.57c.2.28.39.57.57.86l-.86.52Zm-4.1-.45a8.7 8.7 0 0 0-.69-.67l.67-.75c.26.227.51.467.75.72l-.73.7ZM7.8 7.58l-.7-.72c.24-.24.5-.47.77-.7l.64.77c-.248.204-.485.42-.71.65Zm-3.37-.74-.78-.62c.21-.27.43-.54.66-.79l.75.67c-.22.24-.43.48-.63.74Zm22.71-.11c-.2-.25-.41-.49-.62-.73l.73-.68c.24.26.46.52.68.79l-.79.62Zm-4.42-.13a8.57 8.57 0 0 0-.79-.55l.53-.84c.297.182.584.379.86.59l-.6.8ZM9.27 6.35l-.57-.82c.28-.19.58-.38.88-.55l.5.86c-.28.16-.55.33-.81.51Zm11.83-.77a8.586 8.586 0 0 0-.87-.4l.38-.93c.33.14.64.28.95.44l-.46.89ZM5.73 5.4 5 4.68c.25-.24.5-.47.76-.69l.65.76-.68.65Zm5.2 0-.43-.91c.31-.14.63-.28 1-.4l.35.93c-.34.12-.64.24-.92.38Zm14.91-.09c-.23-.22-.47-.44-.72-.64l.64-.77c.26.22.52.45.77.69l-.69.72Zm-6.51-.46c-.3-.1-.61-.18-.92-.26l.22-1c.34.08.68.17 1 .27l-.3.99Zm-6.61-.12-.27-1c.34-.09.67-.17 1-.24l.18 1c-.29.08-.63.15-.91.24Zm4.75-.31c-.32 0-.63-.08-.95-.1l.05-1c.35 0 .7.06 1 .11l-.1.99Zm-2.87 0-.1-1c.34 0 .68-.06 1-.06v1c-.3-.014-.6-.011-.9.01v.05Zm-7.4-.27-.6-.8c.28-.21.56-.4.85-.59L8 3.6c-.28.17-.54.4-.8.55Zm17.15-.08c-.26-.19-.52-.37-.79-.54l.53-.85c.29.19.58.38.85.59l-.59.8ZM8.82 3.1l-.48-.87c.3-.17.6-.32.92-.47l.42.91c-.29.13-.58.33-.86.43Zm13.9-.1c-.28-.15-.57-.3-.86-.43l.41-.91c.32.14.62.3.93.46l-.48.88Zm-12.15-.71-.36-.94c.31-.12.64-.23 1-.34l.3 1c-.34.05-.64.16-.94.28ZM21 2.24c-.3-.12-.6-.22-.91-.31l.29-1c.33.1.66.21 1 .33l-.38.98Zm-8.55-.53-.24-1c.34-.08.67-.15 1-.21l.17 1c-.38.07-.66.13-.97.21h.04Zm6.7 0c-.31-.08-.62-.14-.94-.19l.16-1 1 .2-.22.99Zm-4.8-.3-.1-1c.34 0 .68-.06 1-.08v1c-.25-.01-.62.02-.94.05l.04.03Zm2.9 0c-.32 0-.64-.05-1-.06v-1c.35 0 .69 0 1 .06v1Zm6.22 20.05-7.2-14a.52.52 0 0 0-.45-.27.51.51 0 0 0-.45.28l-6.79 14a.51.51 0 0 0 .12.6.52.52 0 0 0 .33.12c.1 0 .199-.03.28-.09l6.52-4.53 6.92 4.53a.5.5 0 0 0 .61 0 .49.49 0 0 0 .07-.68l.04.04Zm-7.41-4.96a.57.57 0 0 0-.28-.08.47.47 0 0 0-.28.09l-5.23 3.63L15.8 8.76l5.88 11.43-5.62-3.69Z"/></g></defs><view id="neutral--enabled" viewBox="0 288 32 32"/><use href="#icon-def" x="0" y="288" style="--color:#B3B3B3"/><view id="neutral--hover" viewBox="32 288 32 32"/><use href="#icon-def" x="32" y="288" style="--color:#437DC0"/><view id="neutral--active" viewBox="64 288 32 32"/><use href="#icon-def" x="64" y="288" style="--color:#FFFFFF"/><view id="neutral--disabled" viewBox="96 288 32 32"/><use href="#icon-def" x="96" y="288" style="--color:#7F7F7F"/></svg>