<svg viewBox="0 0 32 32" xmlns="http://www.w3.org/2000/svg" data-scheme="monochrome"><defs><g id="icon-def"><path fill="var(--color)" d="M15.79 32.74a16.5 16.5 0 1 1 16.5-16.5 16.52 16.52 0 0 1-16.5 16.5Zm0-30a13.5 13.5 0 1 0 13.5 13.5 13.51 13.51 0 0 0-13.5-13.5Zm4.7 20.47h-9.4a.5.5 0 0 1-.48-.35l-2.9-8.94a.49.49 0 0 1 .18-.56l7.61-5.53a.51.51 0 0 1 .58 0l7.61 5.53a.49.49 0 0 1 .18.56L21 22.86a.5.5 0 0 1-.51.35Z"/></g></defs><view id="neutral--enabled" viewBox="0 288 32 32"/><use href="#icon-def" x="0" y="288" style="--color:#B3B3B3"/><view id="neutral--hover" viewBox="32 288 32 32"/><use href="#icon-def" x="32" y="288" style="--color:#437DC0"/><view id="neutral--active" viewBox="64 288 32 32"/><use href="#icon-def" x="64" y="288" style="--color:#FFFFFF"/><view id="neutral--disabled" viewBox="96 288 32 32"/><use href="#icon-def" x="96" y="288" style="--color:#7F7F7F"/></svg>