<svg viewBox="0 0 32 32" xmlns="http://www.w3.org/2000/svg" data-scheme="monochrome"><defs><g id="icon-def"><path fill="var(--color)" d="M16.21 31.55h-.29v-1h.97v1h-.68Zm-1.32-.06c-.35 0-.69-.07-1-.12l.16-1c.31.05.63.09 1 .11l-.16 1.01Zm3.09 0-.11-1c.32 0 .64-.08.95-.14l.18 1c-.327.027-.66.06-1 .1l-.02.04Zm-5.13-.27c-.34-.08-.67-.16-1-.26l.28-1c.307.087.617.167.93.24l-.21 1.02Zm7.16-.1-.24-1c.307-.08.617-.17.93-.27l.3.95c-.32.1-.65.2-1 .28l.01.04Zm-9.14-.48c-.327-.12-.66-.25-1-.39l.4-.91c.3.127.6.247.9.36l-.3.94Zm11.13-.2-.38-.93c.3-.12.6-.25.89-.39l.43.9c-.33.15-.64.29-.94.42Zm-13-.68c-.31-.16-.6-.34-.9-.52l.53-.85c.273.167.553.327.84.48l-.47.89Zm14.85-.21-.49-.87c.28-.16.56-.33.83-.51l.55.84c-.31.19-.61.37-.91.54h.02Zm-16.63-.88c-.28-.2-.55-.41-.82-.63l.6-.77.77.59-.55.81Zm18.34-.26-.6-.79.75-.61.65.75c-.26.24-.53.45-.8.65ZM5.62 27.36c-.25-.23-.49-.48-.73-.73l.73-.63c.22.24.45.46.69.68l-.69.68Zm21.5-.3-.7-.71c.23-.23.45-.46.66-.7l.75.66c-.23.26-.47.51-.71.75Zm-22.91-1.2c-.22-.27-.42-.54-.62-.82l.81-.59c.19.27.38.52.59.77l-.78.64Zm24.28-.34-.79-.62c.19-.25.38-.51.56-.78l.83.56c-.187.28-.387.56-.6.84ZM3 24.18c-.18-.3-.35-.6-.51-.9l.89-.47c.153.293.313.573.48.84l-.86.53Zm26.63-.38-.87-.5c.16-.28.32-.56.46-.85l.9.44c-.12.31-.31.61-.48.91h-.01ZM2.05 22.35c-.14-.31-.27-.63-.39-1L2.6 21c.11.3.23.6.36.89l-.91.46Zm28.5-.4-.92-.38c.12-.3.23-.6.34-.91l.94.32c-.11.33-.23.65-.36 1.02v-.05ZM1.34 20.42c-.1-.33-.18-.67-.26-1l1-.21c.07.31.15.63.24.93l-.98.28ZM31.21 20l-1-.26c.08-.31.15-.62.22-.94l1 .19c-.06.33-.13.67-.22 1.01ZM.89 18.4c-.05-.34-.09-.68-.12-1l1-.08c0 .32.06.64.11 1l-.99.08ZM31.6 18l-1-.12c.04-.32.07-.653.09-1l1 .05c-.02.35-.05.69-.09 1.07ZM.72 16.34v-1.29l1 .07v1.27l-1-.05Zm30-.43v-1l1-.07v1l-1 .07ZM1.84 14.12.85 14c.05-.35.1-.69.17-1l1 .2c-.08.28-.14.6-.18.92ZM30.57 14c-.05-.32-.1-.64-.17-1l1-.21c.073.34.133.673.18 1l-1.01.21ZM2.22 12.23l-1-.27c.09-.33.19-.66.3-1l.95.32c-.07.33-.16.63-.25.95Zm28-.13c-.09-.32-.19-.62-.29-.93l.94-.33c.11.32.22.65.31 1l-.96.26ZM2.86 10.4l-.93-.4c.14-.32.28-.63.44-.94l.89.45c-.14.3-.26.59-.4.89Zm26.66-.12c-.13-.3-.27-.59-.41-.88l.89-.46c.15.31.3.62.44.94l-.92.4ZM3.73 8.67l-.86-.51c.17-.29.36-.58.55-.87l.83.57c-.19.26-.36.54-.52.81Zm24.91-.11c-.17-.27-.35-.54-.53-.81l.82-.57c.2.28.38.57.56.86l-.85.52ZM4.82 7.08 4 6.46c.22-.27.44-.53.67-.79l.74.67c-.18.24-.41.49-.59.74ZM27.53 7c-.2-.25-.41-.5-.63-.73l.74-.68c.23.25.45.51.67.78l-.78.63ZM6.11 5.65l-.69-.72c.24-.24.5-.47.76-.7l.65.77a12.95 12.95 0 0 0-.72.65Zm20.11-.09c-.23-.23-.47-.44-.72-.65l.64-.77c.27.23.53.45.78.69l-.7.73ZM7.58 4.39 7 3.59c.27-.2.56-.4.85-.59l.54.84c-.28.16-.55.36-.81.55Zm17.16-.07c-.26-.19-.53-.37-.8-.55l.53-.84c.3.18.58.38.86.58l-.59.81Zm-15.53-1-.49-.88.92-.44.43.91c-.29.14-.58.28-.86.44v-.03Zm13.9-.06a8.797 8.797 0 0 0-.87-.43l.42-.92c.31.15.62.3.92.47l-.47.88ZM11 2.53l-.36-.93c.32-.12.65-.24 1-.34l.31 1c-.39.05-.7.15-.95.27Zm10.4 0c-.3-.11-.61-.22-.92-.31l.29-1c.33.1.66.21 1 .34l-.37.97ZM12.8 2l-.24-1c.33-.08.67-.15 1-.21l.17 1c-.31.02-.62.09-.93.21Zm6.7 0-.95-.19.16-1c.34.05.68.12 1 .2L19.5 2Zm-4.8-.3-.11-1c.34 0 .69-.06 1-.07v1a4.369 4.369 0 0 0-.89-.01v.08Zm2.89 0c-.31 0-.64-.05-1-.06v-1c.34 0 .69 0 1 .07v.99Zm-1.38 26.85v-1h1l.08 1c-.38-.02-.73 0-1.08 0Zm-.44 0c-.35 0-.7 0-1-.08l.12-1c.31 0 .63.06 1 .07l-.12 1.01Zm2.52-.16-.17-1c.32-.05.63-.12.94-.2l.25 1c-.31.06-.68.13-1.02.19v.01Zm-4.59-.09c-.34-.07-.68-.15-1-.25l.28-1c.31.09.62.17.93.23l-.21 1.02Zm6.6-.43-.3-.95c.3-.11.6-.22.89-.35l.4.91c-.323.144-.654.27-.99.38v.01Zm-8.6-.15c-.32-.13-.64-.26-.95-.42l.44-.9c.28.14.58.27.88.39l-.37.93ZM22.21 27l-.48-.88c.28-.15.55-.31.82-.49l.55.83c-.29.21-.59.39-.89.54Zm-12.37-.2c-.3-.18-.59-.37-.88-.57l.58-.81c.26.18.53.36.8.52l-.5.86Zm14.1-.93-.62-.78c.25-.2.5-.41.73-.63l.68.74c-.252.236-.516.46-.79.67Zm-15.8-.28c-.26-.22-.52-.46-.76-.7l.7-.71c.23.23.46.44.71.65l-.65.76Zm17.32-1.14-.74-.67c.22-.23.42-.48.62-.73l.79.61c-.21.275-.433.538-.67.79Zm-18.79-.33c-.22-.26-.44-.54-.64-.82l.82-.58c.18.26.38.51.58.75l-.76.65Zm20.06-1.31-.84-.55c.17-.26.33-.54.48-.82l.89.47c-.16.3-.34.6-.53.9Zm-21.27-.38c-.17-.3-.34-.61-.49-.92l.9-.44c.14.29.29.57.45.85l-.86.51ZM27.71 21l-.92-.4c.12-.29.24-.59.34-.89l.95.32c-.08.3-.24.62-.37.97Zm-23.16-.45c-.12-.32-.23-.65-.33-1l1-.28c.09.31.19.61.31.91l-.98.37ZM28.37 19l-1-.24c.08-.31.14-.62.19-.94l1 .15c-.05.35-.11.69-.19 1.03ZM4 18.56c-.07-.34-.13-.68-.17-1l1-.12c0 .32.09.64.16.95l-.99.17Zm24.71-1.62-1-.07v-.95h1v.16c0 .27-.01.56-.03.86h.03Zm-25-.45v-1.04l1 .05v.96l-1 .03ZM27.66 15a9.45 9.45 0 0 0-.13-1l1-.18c.06.34.11.68.14 1l-1.01.18Zm-22.85-.46-1-.12c.05-.35.11-.69.18-1l1 .21c-.08.28-.14.59-.18.91Zm22.52-1.47c-.09-.31-.18-.61-.29-.91l.94-.34c.12.33.22.66.31 1l-.96.25Zm-22.11-.4-1-.29c.1-.33.22-.66.35-1l.93.37c-.08.32-.19.62-.28.92Zm21.46-1.4a9.78 9.78 0 0 0-.44-.85l.88-.49c.17.3.32.61.47.93l-.91.41ZM5.93 10.9 5 10.45c.16-.31.33-.61.51-.91l.85.52c-.13.27-.29.55-.43.84Zm19.81-1.3c-.18-.26-.37-.52-.57-.77L26 8.2c.22.27.42.55.62.84l-.88.56ZM6.93 9.27l-.81-.59c.2-.28.42-.55.65-.82l.75.66c-.21.239-.408.49-.59.75Zm17.61-1.16c-.22-.23-.45-.45-.69-.67l.66-.74c.26.227.51.467.75.72l-.72.69ZM8.18 7.82l-.7-.72c.25-.24.51-.47.77-.69l.64.77c-.24.2-.48.42-.71.64Zm14.93-1c-.26-.19-.52-.37-.79-.54l.53-.85c.29.19.58.38.85.59l-.59.8ZM9.66 6.6l-.58-.82c.29-.2.58-.39.88-.56l.5.87c-.27.16-.54.33-.8.51Zm11.82-.78c-.28-.14-.57-.28-.86-.4L21 4.5c.32.13.634.277.94.44l-.46.88Zm-10.17-.18-.42-.9c.31-.15.63-.28 1-.41l.34.94c-.34.11-.63.24-.92.37Zm8.41-.55c-.3-.09-.61-.18-.93-.25l.23-1c.34.08.67.17 1 .28l-.3.97ZM13.11 5l-.27-1c.33-.09.67-.17 1-.24l.19 1c-.31.05-.62.13-.92.24Zm4.74-.31c-.31 0-.63-.07-1-.09l.06-1c.35 0 .69.05 1 .1l-.06.99ZM15 4.61l-.11-1c.34 0 .69-.06 1-.07v1c-.27.02-.59.04-.89.07Zm9.13 8.33-7.62-5.53a.5.5 0 0 0-.59 0l-7.61 5.53a.49.49 0 0 0-.18.55l2.91 9a.48.48 0 0 0 .47.34h9.41a.49.49 0 0 0 .47-.34l2.91-9a.5.5 0 0 0-.18-.55h.01Zm-3.57 8.84h-8.68l-2.69-8.25 7-5.1 7 5.1-2.63 8.25Z"/></g></defs><view id="neutral--enabled" viewBox="0 288 32 32"/><use href="#icon-def" x="0" y="288" style="--color:#B3B3B3"/><view id="neutral--hover" viewBox="32 288 32 32"/><use href="#icon-def" x="32" y="288" style="--color:#437DC0"/><view id="neutral--active" viewBox="64 288 32 32"/><use href="#icon-def" x="64" y="288" style="--color:#FFFFFF"/><view id="neutral--disabled" viewBox="96 288 32 32"/><use href="#icon-def" x="96" y="288" style="--color:#7F7F7F"/></svg>