<svg viewBox="0 0 32 32" xmlns="http://www.w3.org/2000/svg" data-scheme="monochrome"><defs><g id="icon-def"><path fill="var(--color)" d="M16.05 31.55a15.5 15.5 0 1 1 15.5-15.5 15.51 15.51 0 0 1-15.5 15.5Zm0-30a14.5 14.5 0 1 0 14.5 14.5 14.52 14.52 0 0 0-14.5-14.5ZM20.75 23h-9.4a.511.511 0 0 1-.48-.34L8 13.73a.49.49 0 0 1 .18-.56l7.61-5.52a.48.48 0 0 1 .58 0L24 13.17a.49.49 0 0 1 .18.56l-2.9 9a.51.51 0 0 1-.53.27Zm-9-1h8.68l2.68-8.25-7-5.1-7 5.1L11.75 22Z"/></g></defs><view id="neutral--enabled" viewBox="0 288 32 32"/><use href="#icon-def" x="0" y="288" style="--color:#B3B3B3"/><view id="neutral--hover" viewBox="32 288 32 32"/><use href="#icon-def" x="32" y="288" style="--color:#437DC0"/><view id="neutral--active" viewBox="64 288 32 32"/><use href="#icon-def" x="64" y="288" style="--color:#FFFFFF"/><view id="neutral--disabled" viewBox="96 288 32 32"/><use href="#icon-def" x="96" y="288" style="--color:#7F7F7F"/></svg>