<svg viewBox="0 0 32 32" xmlns="http://www.w3.org/2000/svg" data-scheme="monochrome"><defs><g id="icon-def"><path fill="var(--color)" d="M16.13 31.52h-.29v-1h1.27l.07 1c-.35-.01-.7 0-1.05 0Zm-1.32-.06c-.35 0-.69-.07-1-.12l.15-1c.32 0 .64.09 1 .11l-.15 1.01Zm3.38-.08-.13-1c.32 0 .64-.09 1-.16l.2 1c-.38.06-.72.12-1.07.16Zm-5.42-.23c-.34-.07-.68-.16-1-.26l.29-1c.3.09.62.17.93.24l-.22 1.02Zm7.45-.15L20 30c.32-.09.63-.18.93-.29l.32 1c-.37.07-.7.17-1.03.29Zm-9.44-.4c-.32-.12-.64-.25-.95-.39l.41-.91c.29.13.59.25.89.36l-.35.94Zm11.39-.27-.39-.92.88-.41.45.89c-.31.11-.62.27-.94.41v.03Zm-13.27-.6c-.3-.16-.6-.33-.9-.51l.53-.85.84.48-.47.88Zm15.1-.36-.51-.86c.27-.17.55-.34.81-.53l.57.83c-.27.19-.56.38-.87.56Zm-16.86-.72c-.28-.2-.55-.41-.81-.63l.67-.77c.25.2.5.4.77.58l-.63.82Zm18.58-.45-.62-.79c.25-.2.5-.4.74-.62l.67.74c-.26.23-.51.47-.79.67Zm-20.17-.86c-.25-.24-.5-.48-.73-.73l.73-.68c.22.23.45.46.68.68l-.68.73Zm21.7-.52-.71-.7c.22-.23.44-.47.65-.72l.76.65c-.23.26-.46.52-.7.77Zm-23.11-1c-.22-.26-.43-.54-.63-.82l.81-.58c.19.26.39.52.59.77l-.77.63Zm24.45-.59-.8-.59c.19-.26.37-.53.55-.8l.84.54c-.18.3-.39.62-.59.86v-.01ZM2.94 24.15c-.18-.29-.36-.59-.52-.9l.89-.46c.153.28.313.56.48.84l-.85.52Zm26.77-.64-.88-.51c.16-.28.3-.56.44-.85l.91.42c-.18.33-.31.64-.47.94ZM2 22.33c-.14-.32-.27-.653-.39-1l.91-.33c.11.31.23.6.36.9l-.88.43Zm28.61-.69-.93-.36c.12-.3.22-.6.32-.91l1 .3c-.18.33-.3.65-.42.97h.03ZM1.26 20.39c-.1-.33-.18-.67-.26-1l1-.21c.07.31.15.63.24.93l-.98.28Zm29.94-.72-1-.23c.07-.31.14-.63.19-1l1 .17c-.04.39-.11.73-.19 1.06ZM.81 18.37c-.05-.34-.09-.68-.12-1l1-.08c0 .32.06.64.11 1l-.99.08Zm30.74-.73-1-.11c0-.31.05-.64.06-1h1c0 .47-.03.77-.06 1.11ZM.64 16.31v-1.05l1 .05v.96l-1 .04Zm30-.71c0-.32-.02-.653-.06-1l1-.1c0 .34.06.69.07 1l-1.01.1ZM1.73 14.36l-1-.11c.04-.34.09-.673.15-1l1 .18c-.07.29-.12.57-.15.93Zm28.72-.68c-.06-.32-.12-.64-.19-.95l1-.22c.08.33.15.67.2 1l-1.01.17ZM2.07 12.46l-1-.24c.09-.34.18-.67.29-1l1 .31c-.12.31-.21.62-.29.93ZM30 11.8c-.09-.31-.2-.62-.31-.92l.93-.35c.13.32.24.65.34 1l-.96.27ZM2.67 10.63l-.93-.37c.13-.33.27-.64.42-.95l.9.43c-.14.26-.27.59-.39.89ZM29.33 10c-.14-.29-.28-.58-.44-.87l.88-.47c.17.3.32.61.47.92l-.91.42ZM3.5 8.89l-.87-.49c.17-.3.35-.6.54-.88l.83.54c-.17.27-.34.55-.5.83Zm24.91-.6c-.18-.27-.36-.54-.55-.8l.81-.59c.2.28.4.57.58.86l-.84.53Zm-23.85-1-.79-.61c.2-.27.42-.54.65-.8l.75.65c-.17.24-.41.47-.61.75v.01Zm22.71-.55c-.21-.25-.42-.49-.65-.72l.73-.69c.24.24.46.5.69.77l-.77.64ZM5.83 5.82l-.71-.71c.24-.24.49-.48.75-.71l.66.75c-.24.21-.47.44-.7.67Zm20.1-.49c-.23-.22-.48-.43-.73-.63l.63-.78c.27.22.53.44.78.67l-.68.74ZM7.28 4.54l-.62-.79c.28-.22.56-.42.84-.61l.56.86a6.25 6.25 0 0 0-.78.54Zm17.15-.42c-.27-.18-.54-.36-.81-.52l.52-.86.86.56-.57.82ZM8.88 3.46l-.5-.87c.3-.17.6-.33.91-.48l.44.89c-.29.14-.57.3-.85.46Zm13.9-.34-.88-.41.4-.92c.32.14.63.29.94.45l-.46.88ZM10.62 2.6l-.39-.92c.32-.13.64-.25 1-.36l.32 1c-.327.067-.637.16-.93.28ZM21 2.36c-.31-.11-.61-.21-.93-.3l.28-1c.33.09.66.2 1 .31l-.35.99ZM12.45 2l-.26-1 1-.23.19 1c-.31.07-.62.14-.93.23Zm6.7-.16-.95-.17.14-1c.34.047.673.107 1 .18l-.19.99Zm-4.81-.2-.12-1c.34-.05.68-.08 1-.1l.05 1c-.3.02-.61.05-.93.09v.01Zm2.9-.07h-1v-1h1v1Zm-1.11 27v-1h1l.08 1c-.38-.07-.73-.05-1.08-.05v.05Zm-.44 0c-.35 0-.7 0-1-.08l.12-1c.31 0 .63.06 1 .07l-.12 1.01Zm2.52-.16-.17-1c.32-.05.63-.12.94-.2l.25 1c-.34.01-.68.08-1.02.14v.06Zm-4.59-.09c-.34-.07-.68-.15-1-.25l.28-1c.31.09.62.17.93.23l-.21 1.02Zm6.6-.43-.32-.94c.3-.11.6-.22.89-.35l.4.91c-.32.08-.64.21-.97.32v.06Zm-8.6-.15c-.32-.13-.64-.26-.95-.42l.44-.9c.28.14.58.27.88.39l-.37.93ZM22.13 27l-.48-.88c.28-.15.55-.32.81-.49l.56.83c-.29.18-.59.36-.89.54Zm-12.37-.23c-.3-.18-.59-.37-.88-.57l.58-.81c.26.18.53.36.8.52l-.5.86Zm14.1-.93-.62-.78c.25-.2.5-.41.73-.63l.68.74c-.25.23-.52.46-.79.67Zm-15.8-.28c-.26-.22-.52-.46-.76-.7l.7-.71c.23.22.46.44.71.65l-.65.76Zm17.32-1.14-.74-.67c.22-.23.42-.48.62-.73l.79.61c-.21.275-.433.538-.67.79Zm-18.79-.33c-.22-.26-.44-.54-.64-.82l.82-.58c.18.26.38.51.58.75l-.76.65Zm20.06-1.32-.84-.54c.17-.26.33-.54.48-.82l.89.47c-.18.3-.34.6-.53.89ZM5.38 22.4c-.17-.3-.34-.61-.49-.92l.9-.44c.14.287.29.567.45.84l-.86.52Zm22.25-1.46-.92-.4c.12-.29.24-.59.34-.89L28 20c-.11.3-.24.62-.37.94Zm-23.16-.42c-.12-.32-.23-.65-.33-1l1-.28c.093.307.193.607.3.9l-.97.38ZM28.29 19l-1-.24c.08-.31.14-.62.19-.94l1 .15c-.05.32-.11.66-.19 1.03Zm-24.41-.47c-.06-.34-.12-.68-.16-1l1-.12c0 .32.09.64.16.95l-1 .17Zm24.72-1.62-1-.07v-.95h1V16c.03.32.02.61 0 .91Zm-25-.45v-1.04l1 .05v.96l-1 .03Zm23.94-1.54c0-.32-.07-.63-.13-.94l1-.18c.06.34.1.68.14 1l-1.01.12Zm-22.81-.41-1-.12c.04-.337.101-.67.18-1l1 .21c-.08.28-.14.59-.18.91ZM27.25 13c-.09-.31-.18-.61-.29-.91l.94-.34c.12.32.22.66.31 1l-.96.25Zm-22.11-.4-1-.29c.1-.33.22-.66.35-1l.92.37c-.07.32-.18.66-.27.96v-.04Zm21.46-1.4c-.14-.29-.28-.58-.44-.85L27 9.9c.16.3.32.61.47.92l-.87.38Zm-20.75-.33L5 10.42c.16-.31.33-.61.51-.91l.85.52c-.21.27-.36.55-.51.84Zm19.81-1.3c-.18-.26-.37-.52-.57-.77l.78-.63c.21.27.42.55.62.84l-.83.56ZM6.85 9.23 6 8.64c.2-.27.42-.55.65-.81l.75.66c-.17.24-.4.51-.55.74Zm17.61-1.15c-.22-.23-.46-.45-.69-.67l.66-.74c.26.233.51.473.75.72l-.72.69ZM8.1 7.79l-.7-.72c.25-.24.51-.47.77-.69l.64.77c-.24.2-.48.42-.71.64ZM23 6.81c-.26-.19-.52-.37-.79-.54l.53-.85c.29.19.58.38.85.59l-.59.8ZM9.58 6.57 9 5.75c.29-.2.58-.39.88-.56l.5.87c-.27.16-.54.33-.8.51Zm11.82-.78c-.28-.14-.57-.28-.86-.4l.38-.92c.32.13.64.28.94.43l-.46.89Zm-10.17-.18-.42-.91c.31-.14.63-.28 1-.4l.35.94c-.35.11-.64.24-.93.37Zm8.41-.55c-.31-.1-.61-.18-.93-.25l.23-1c.34.08.67.17 1 .28l-.3.97ZM13 4.94l-.27-1c.33-.09.67-.17 1-.24l.19 1c-.28.08-.59.16-.92.24Zm4.74-.31c-.31 0-.63-.07-.95-.09l.05-1c.35 0 .7 0 1 .1l-.1.99Zm-2.87 0-.1-1c.34 0 .69-.06 1-.07v1l-.9.07ZM23.13 15h-6V9a1 1 0 1 0-2 0v6h-6a1 1 0 0 0 0 2h6v6a1 1 0 0 0 2 0v-6h6a1 1 0 0 0 0-2Z"/></g></defs><view id="neutral--enabled" viewBox="0 288 32 32"/><use href="#icon-def" x="0" y="288" style="--color:#B3B3B3"/><view id="neutral--hover" viewBox="32 288 32 32"/><use href="#icon-def" x="32" y="288" style="--color:#437DC0"/><view id="neutral--active" viewBox="64 288 32 32"/><use href="#icon-def" x="64" y="288" style="--color:#FFFFFF"/><view id="neutral--disabled" viewBox="96 288 32 32"/><use href="#icon-def" x="96" y="288" style="--color:#7F7F7F"/></svg>