<svg viewBox="0 0 16 16" xmlns="http://www.w3.org/2000/svg" data-scheme="monochrome"><defs><g id="icon-def"><path fill="var(--color)" d="M8.54 8.45a4.2 4.2 0 1 0-1.08 0C4.92 8.61.09 9.85.09 12.63v3.28h15.82v-3.28c0-2.78-4.83-4.02-7.37-4.18ZM4.8 4.3A3.2 3.2 0 1 1 8 7.5a3.21 3.21 0 0 1-3.2-3.2Zm10.11 10.61H1.09v-2.28c0-2 4.47-3.2 6.91-3.2 2.44 0 6.91 1.21 6.91 3.2v2.28Z"/></g></defs><view id="neutral--enabled" viewBox="0 144 16 16"/><use href="#icon-def" x="0" y="144" style="--color:#B3B3B3"/><view id="neutral--hover" viewBox="16 144 16 16"/><use href="#icon-def" x="16" y="144" style="--color:#437DC0"/><view id="neutral--active" viewBox="32 144 16 16"/><use href="#icon-def" x="32" y="144" style="--color:#FFFFFF"/><view id="neutral--disabled" viewBox="48 144 16 16"/><use href="#icon-def" x="48" y="144" style="--color:#7F7F7F"/></svg>