<svg viewBox="0 0 32 32" xmlns="http://www.w3.org/2000/svg" data-scheme="monochrome"><defs><g id="icon-def"><path fill="var(--color)" d="M15.89 31.59h-.3v-1h1.28l.06 1c-.35-.01-.69 0-1.04 0Zm-1.32-.06c-.35 0-.69-.07-1-.12l.15-1c.32 0 .64.09 1 .11l-.15 1.01Zm3.43-.08-.13-1c.32 0 .64-.09.95-.16l.2 1c-.39.06-.73.12-1.02.16Zm-5.43-.23c-.33-.07-.67-.16-1-.26l.29-1c.3.087.61.167.93.24l-.22 1.02ZM20 31l-.26-1c.31-.09.62-.18.93-.29l.32.95c-.34.167-.67.28-.99.34Zm-9.43-.4c-.32-.12-.64-.25-.95-.39l.4-.91c.3.13.59.25.9.36l-.35.94Zm11.39-.27-.39-.92.88-.41.45.89c-.34.2-.65.34-.97.48l.03-.04Zm-13.3-.53c-.31-.16-.6-.33-.9-.51l.53-.85.84.48-.47.88Zm15.11-.36-.51-.86c.28-.17.55-.34.82-.53l.56.83c-.28.2-.57.38-.87.56ZM6.9 28.72c-.28-.2-.55-.41-.82-.63l.64-.77c.25.2.5.4.76.58l-.58.82Zm18.58-.45-.62-.79c.25-.2.5-.4.74-.62l.67.74c-.27.23-.52.46-.79.67Zm-20.17-.86c-.26-.24-.5-.48-.74-.73l.74-.68c.21.23.44.46.68.68l-.68.73ZM27 26.89l-.72-.7c.23-.23.44-.47.65-.72l.76.65c-.21.26-.44.52-.69.77ZM3.9 25.9c-.22-.26-.43-.54-.63-.82l.81-.58c.19.26.38.52.59.77l-.77.63Zm24.45-.59-.81-.59c.19-.26.38-.53.55-.8l.84.54c-.18.29-.38.54-.58.85ZM2.69 24.22c-.18-.287-.35-.587-.51-.9l.88-.46c.16.28.32.56.49.84l-.86.52Zm26.77-.64-.87-.49c.15-.28.3-.56.44-.86l.9.43c-.14.34-.3.62-.47.92ZM1.73 22.4c-.14-.32-.27-.653-.39-1l.94-.35c.11.31.23.6.36.9l-.91.45Zm28.61-.69-.93-.36c.11-.3.22-.6.32-.91l.95.3c-.1.33-.22.65-.34.97ZM1 20.46c-.1-.33-.19-.67-.26-1l1-.21c.07.31.15.63.25.93l-.99.28Zm30-.72-1-.23c.08-.31.15-.63.2-1l1 .17c-.09.39-.2.73-.2 1.06ZM.57 18.44c0-.34-.09-.68-.12-1l1-.08c0 .32.04.653.12 1l-1 .08Zm30.74-.73-1-.11c0-.31.06-.64.07-1h1c-.01.4-.04.77-.07 1.11ZM.39 16.38v-1.03l1 .05v.96l-1 .02Zm30-.71c0-.32-.02-.653-.06-1l1-.1c0 .34.05.69.07 1l-1.01.1ZM1.48 14.43l-1-.11c.04-.34.09-.673.15-1l1 .18c-.06.29-.11.61-.15.93Zm28.72-.68c-.05-.32-.11-.64-.18-.95l1-.22c.08.33.15.67.2 1l-1.02.17ZM1.83 12.53l-1-.24c.08-.338.177-.672.29-1l1 .31c-.12.31-.21.62-.29.93Zm27.94-.66c-.1-.31-.2-.62-.31-.92l.93-.35c.12.32.23.65.34 1l-.96.27ZM2.43 10.7l-.93-.37c.13-.33.27-.64.41-.95l.91.43c-.14.29-.27.59-.39.89Zm26.65-.64c-.13-.29-.28-.58-.43-.87l.88-.47c.16.3.32.61.46.92l-.91.42ZM3.26 9l-.87-.49c.17-.3.35-.6.54-.88l.83.54c-.17.23-.34.51-.5.83Zm24.9-.6c-.17-.27-.35-.54-.54-.8l.81-.6c.2.28.4.57.58.86l-.85.54Zm-23.84-1-.8-.61c.21-.27.43-.54.65-.8l.76.65c-.21.2-.41.45-.61.71v.05ZM27 6.8c-.21-.25-.42-.49-.65-.72l.72-.69c.243.245.473.502.69.77L27 6.8ZM5.59 5.89l-.71-.71c.24-.24.49-.48.75-.71l.66.75c-.24.21-.48.44-.7.67Zm20.1-.49c-.24-.22-.48-.43-.73-.63l.62-.77.79.67-.68.73ZM7 4.61l-.61-.79a10 10 0 0 1 .84-.61l.59.79c-.27.22-.53.41-.82.61Zm17.16-.42c-.27-.18-.54-.36-.81-.52l.51-.86c.3.18.59.37.87.56l-.57.82ZM8.64 3.53l-.5-.87c.3-.17.6-.33.91-.48l.44.89c-.29.14-.57.3-.85.46Zm13.89-.34c-.28-.14-.57-.28-.87-.41l.4-.92c.32.14.63.29.93.45l-.46.88Zm-12.16-.52L10 1.75c.32-.13.64-.25 1-.36l.32 1c-.32.05-.65.16-.95.28Zm10.39-.24c-.3-.11-.61-.21-.92-.3l.28-1c.33.09.66.2 1 .31l-.36.99Zm-8.56-.37-.25-1 1-.23.19 1c-.31.08-.63.17-.94.23Zm6.71-.16-1-.17.15-1c.34.05.68.11 1 .18l-.15.99Zm-4.81-.2L14 .71c.34 0 .68-.08 1-.1l.05 1c-.313.02-.63.05-.95.09Zm2.9-.07h-1v-1h1v1Zm-1.1 27v-1h1l.08 1c-.4-.06-.74-.04-1.09-.04l.01.04Zm-.45 0c-.35 0-.69 0-1-.08l.12-1c.32 0 .63.06 1 .07l-.12 1.01Zm2.55-.21-.16-1c.31-.05.63-.12.93-.2l.25 1c-.37.07-.71.14-1.02.2Zm-4.58-.09a9.74 9.74 0 0 1-1-.25l.28-1c.306.093.616.17.93.23l-.21 1.02ZM20 27.9l-.35-.9c.3-.11.6-.22.89-.35l.41.91c-.32.1-.64.23-.95.34Zm-8.6-.15c-.32-.13-.64-.27-1-.42l.43-.9c.29.14.58.27.88.38l-.31.94Zm10.5-.69-.48-.88c.28-.15.55-.32.82-.49l.55.83c-.31.19-.6.37-.91.54h.02Zm-12.39-.22c-.3-.18-.59-.37-.87-.57l.58-.81c.26.18.52.35.8.52l-.51.86Zm14.11-.93-.62-.78c.25-.2.49-.41.73-.63l.68.73c-.26.24-.52.47-.79.68Zm-15.8-.28c-.27-.22-.52-.46-.77-.7l.71-.71c.22.22.46.44.7.65l-.64.76Zm17.32-1.14-.74-.67c.21-.23.42-.48.61-.73l.8.61c-.21.3-.44.54-.67.79Zm-18.8-.33c-.22-.27-.43-.54-.63-.82l.81-.58c.19.26.38.51.59.75l-.77.65Zm20.07-1.32-.85-.54c.18-.27.34-.54.49-.82l.88.47c-.16.3-.34.6-.52.89Zm-21.27-.38c-.18-.29-.34-.6-.5-.91l.9-.44c.136.305.29.603.46.89l-.86.46ZM27.38 21l-.92-.4c.13-.29.24-.59.34-.89l.95.31c-.11.34-.23.67-.37.98Zm-23.15-.41c-.13-.32-.24-.65-.34-1l1-.28c.09.3.19.61.31.9l-.97.38ZM28 19l-1-.23c.07-.31.13-.62.18-.94l1 .15c.01.38-.06.72-.18 1.02Zm-24.36-.4c-.07-.34-.12-.68-.17-1l1-.12c0 .32.09.64.15.95l-.98.17ZM28.36 17l-1-.07V16h1v.16c.03.23.02.52 0 .84Zm-25-.45v-1.04h1v.96l-1 .08ZM27.34 15c0-.32-.08-.63-.13-.94l1-.18c.06.34.11.68.14 1l-1.01.12Zm-22.85-.42-1-.13c0-.34.11-.69.18-1l1 .21c-.09.34-.14.6-.18.92ZM27 13.11c-.08-.31-.18-.62-.29-.92l.95-.33c.11.32.22.65.31 1l-.97.25Zm-22.11-.4-1-.29c.11-.33.22-.66.35-1l.93.37c-.08.31-.17.62-.28.92Zm21.46-1.4c-.13-.29-.28-.58-.43-.86l.87-.49c.17.31.33.62.47.93l-.91.42ZM5.6 10.94l-.89-.45c.15-.31.32-.61.5-.91l.86.52c-.17.27-.32.55-.47.84Zm19.81-1.3c-.18-.27-.37-.52-.57-.77l.78-.63c.221.27.428.55.62.84l-.83.56ZM6.6 9.3l-.81-.59c.21-.27.42-.55.65-.81l.76.66c-.2.24-.41.49-.6.74Zm17.61-1.15c-.22-.23-.45-.45-.69-.67l.66-.74c.26.227.51.467.75.72l-.72.69ZM7.85 7.86l-.7-.72c.253-.24.513-.47.78-.69l.64.77c-.25.2-.49.42-.72.64Zm14.93-1c-.26-.19-.52-.37-.79-.54l.53-.85c.297.182.584.379.86.59l-.6.8ZM9.33 6.64l-.57-.82c.283-.202.577-.389.88-.56l.5.87c-.28.16-.55.33-.81.51Zm11.83-.78a8.588 8.588 0 0 0-.87-.4l.38-.93c.33.14.64.28.95.44l-.46.89ZM11 5.68l-.43-.91c.31-.14.63-.28 1-.4l.35.94c-.35.11-.65.24-.92.37Zm8.4-.55c-.3-.1-.61-.18-.92-.25l.22-1c.34.08.68.17 1 .28l-.3.97ZM12.78 5l-.27-1c.33-.1.67-.17 1-.24l.19 1c-.3.09-.61.16-.92.24Zm4.74-.31c-.31 0-.62-.08-.95-.09l.06-1c.35 0 .7.05 1 .1l-.11.99Zm-2.86 0-.11-1c.35 0 .69-.06 1-.07v1c-.26-.02-.55 0-.89.03v.04Zm1.23 1.94a9.5 9.5 0 1 0 9.5 9.5 9.51 9.51 0 0 0-9.5-9.54v.04Zm0 18a8.5 8.5 0 1 1 8.5-8.5 8.51 8.51 0 0 1-8.5 8.46v.04Zm4-9h-3.5v-3.5a.5.5 0 0 0-1 0v4a.364.364 0 0 0 0 .1v.09a.23.23 0 0 0 .07.1v.06l.12.08h4.2a.51.51 0 0 0 .5-.5.5.5 0 0 0-.39-.46v.03Zm2.94 0h-1a.5.5 0 0 0 0 1h1a.5.5 0 0 0 .5-.5.5.5 0 0 0-.5-.53v.03Zm-13 0h-1a.5.5 0 0 0 0 1h1a.5.5 0 0 0 .5-.5.5.5 0 0 0-.5-.53v.03Zm6.05 5.93a.5.5 0 0 0-.5.5v1a.5.5 0 0 0 1 0V22a.5.5 0 0 0-.5-.47v.03Zm0-11a.5.5 0 0 0 .5-.5V9a.5.5 0 0 0-1 0v1a.5.5 0 0 0 .5.53v.03Z"/></g></defs><view id="neutral--enabled" viewBox="0 288 32 32"/><use href="#icon-def" x="0" y="288" style="--color:#B3B3B3"/><view id="neutral--hover" viewBox="32 288 32 32"/><use href="#icon-def" x="32" y="288" style="--color:#437DC0"/><view id="neutral--active" viewBox="64 288 32 32"/><use href="#icon-def" x="64" y="288" style="--color:#FFFFFF"/><view id="neutral--disabled" viewBox="96 288 32 32"/><use href="#icon-def" x="96" y="288" style="--color:#7F7F7F"/></svg>