<svg viewBox="0 0 32 32" xmlns="http://www.w3.org/2000/svg" data-scheme="monochrome"><defs><g id="icon-def"><path fill="var(--color)" d="M15.89 31.46A15.5 15.5 0 1 1 31.39 16a15.52 15.52 0 0 1-15.5 15.46Zm0-30A14.5 14.5 0 1 0 30.39 16a14.522 14.522 0 0 0-14.5-14.54Zm0 27A12.5 12.5 0 1 1 28.39 16a12.52 12.52 0 0 1-12.5 12.46Zm0-24A11.5 11.5 0 1 0 27.39 16a11.512 11.512 0 0 0-11.5-11.54Zm0 2a9.5 9.5 0 1 0 9.5 9.5 9.51 9.51 0 0 0-9.5-9.5Zm0 18a8.5 8.5 0 1 1 8.5-8.5 8.51 8.51 0 0 1-8.5 8.5Zm4-9h-3.5V12a.5.5 0 0 0-.5-.5.51.51 0 0 0-.5.5v4.2a.75.75 0 0 0 .07.1v.06a.35.35 0 0 0 .12.07.2.2 0 0 0 .11 0h4.08a.5.5 0 0 0 .5-.5.5.5 0 0 0-.38-.46v-.01Zm2.94 0h-1a.51.51 0 0 0-.5.5.5.5 0 0 0 .5.5h1a.5.5 0 0 0 .5-.5.5.5 0 0 0-.5-.49v-.01Zm-13 0h-1a.51.51 0 0 0-.5.5.5.5 0 0 0 .5.5h1a.5.5 0 0 0 .5-.5.5.5 0 0 0-.5-.49v-.01Zm6.05 5.93a.51.51 0 0 0-.5.5v1a.5.5 0 1 0 1 0v-1a.5.5 0 0 0-.5-.49v-.01Zm0-11a.5.5 0 0 0 .5-.5v-1a.5.5 0 0 0-.5-.5.51.51 0 0 0-.5.5v1a.5.5 0 0 0 .5.51v-.01Z"/></g></defs><view id="neutral--enabled" viewBox="0 288 32 32"/><use href="#icon-def" x="0" y="288" style="--color:#B3B3B3"/><view id="neutral--hover" viewBox="32 288 32 32"/><use href="#icon-def" x="32" y="288" style="--color:#437DC0"/><view id="neutral--active" viewBox="64 288 32 32"/><use href="#icon-def" x="64" y="288" style="--color:#FFFFFF"/><view id="neutral--disabled" viewBox="96 288 32 32"/><use href="#icon-def" x="96" y="288" style="--color:#7F7F7F"/></svg>