<svg xmlns="http://www.w3.org/2000/svg" width="17" height="17" fill="none" viewBox="0 0 17 17">
  <g clip-path="url(#a)">
    <path fill="#B3B3B3" fill-rule="evenodd" d="M13.587 4.75h-.92a3.64 3.64 0 0 0-.48-1.15l.65-.65a.29.29 0 0 0 0-.42l-.73-.78a.31.31 0 0 0-.42 0l-.65.65a3.64 3.64 0 0 0-1.15-.48v-.88a.29.29 0 0 0-.3-.29h-1a.3.3 0 0 0-.3.29v.92a3.64 3.64 0 0 0-1.15.48l-.68-.69a.31.31 0 0 0-.42 0l-.73.73a.31.31 0 0 0 0 .42l.65.65a3.64 3.64 0 0 0-.48 1.2h-.92a.29.29 0 0 0-.29.3v1a.29.29 0 0 0 .29.3h.92c.092.408.255.797.48 1.15l-.65.65a.31.31 0 0 0 0 .42l.73.73a.29.29 0 0 0 .42 0l.65-.65a3.64 3.64 0 0 0 1.15.48v.92a.3.3 0 0 0 .3.29h1a.29.29 0 0 0 .3-.29v-.9a3.64 3.64 0 0 0 1.15-.48l.65.65a.29.29 0 0 0 .42 0l.73-.73a.29.29 0 0 0 0-.42l-.65-.65a3.64 3.64 0 0 0 .48-1.15h.92a.29.29 0 0 0 .29-.3v-1a.29.29 0 0 0-.26-.32Zm-4.51 3.3a2.5 2.5 0 1 1-.02-5 2.5 2.5 0 0 1 .02 5Zm6.08 3.31-2 2-.56.63-1.1 1.26a2.78 2.78 0 0 1-2.14.95h-4.48a4.33 4.33 0 0 0-1.68.55l-2.42-3.8c.56-.53 1.14-1.07 1.76-1.59a3.7 3.7 0 0 1 3-.8c.74.13 1.5.23 2.26.29.76.06 1.23 0 1.85 0a1 1 0 0 1 1.1 1 .999.999 0 0 1-1.09 1h-2.45a.45.45 0 1 0 0 .89h2.28a.82.82 0 0 0 .49-.15l3.71-3.71a1 1 0 0 1 1.47 0 1.05 1.05 0 0 1 0 1.48Z" clip-rule="evenodd"/>
  </g>
  <defs>
    <clipPath id="a">
      <path fill="#fff" d="M.777.75h16v16h-16z"/>
    </clipPath>
  </defs>
</svg>
