<svg xmlns="http://www.w3.org/2000/svg" width="17" height="17" fill="none" viewBox="0 0 17 17">
  <path fill="#B3B3B3" stroke="#B3B3B3" stroke-miterlimit="10" stroke-width="1.2" d="M11.292 11.246h3.94v3.94h-3.94z"/>
  <path stroke="#B3B3B3" stroke-miterlimit="10" stroke-width="1.2" d="M1.872 11.246h3.94v3.94h-3.94zm0-9.671h3.94v3.94h-3.94zm9.063 12.088H6.432m-2.59-2.417V5.515"/>
  <path fill="#B3B3B3" fill-rule="evenodd" d="M16.436 3.713h-.76a2.92 2.92 0 0 0-.407-.96l.543-.542a.235.235 0 0 0 0-.344l-.606-.615a.262.262 0 0 0-.353 0l-.534.543a2.994 2.994 0 0 0-.958-.398V.673a.253.253 0 0 0-.245-.253h-.904a.253.253 0 0 0-.208.253v.724c-.34.076-.665.21-.96.398l-.533-.543a.262.262 0 0 0-.353 0l-.606.615a.235.235 0 0 0 0 .344l.543.543c-.192.292-.33.617-.407.959h-.76a.244.244 0 0 0-.244.244v.86a.244.244 0 0 0 .244.243h.76c.079.341.217.666.407.96l-.543.542a.235.235 0 0 0 0 .344l.606.615a.262.262 0 0 0 .353 0l.534-.543c.296.184.62.319.959.398v.76a.244.244 0 0 0 .244.244h.905a.244.244 0 0 0 .244-.244v-.76c.325-.075.636-.2.922-.37l.534.542a.262.262 0 0 0 .353 0l.606-.615a.235.235 0 0 0 0-.344l-.543-.542a3.03 3.03 0 0 0 .407-.96h.76a.244.244 0 0 0 .244-.244v-.886a.244.244 0 0 0-.244-.244Zm-3.754 2.75a2.08 2.08 0 1 1 0-4.162 2.08 2.08 0 0 1 0 4.162Z" clip-rule="evenodd"/>
</svg>
