<svg xmlns="http://www.w3.org/2000/svg" data-scheme="multicolor" viewBox="0 0 16 16"><defs><path id="icon-def" fill="var(--01)" d="M14 6a1 1 0 0 1 1 1v3a1 1 0 0 1-1 1H2a1 1 0 0 1-1-1V7a1 1 0 0 1 1-1zm0-1H2a2 2 0 0 0-2 2v3a2 2 0 0 0 2 2h12a2 2 0 0 0 2-2V7a2 2 0 0 0-2-2m-8 .48H.83v6H6zm5 .14h-1v6.05h1z"/></defs><view id="enabled" viewBox="0 0 16 16"/><use href="#icon-def" style="--01:#4ba3d4"/><view id="hover" viewBox="16 0 16 16"/><use x="16" href="#icon-def" style="--01:#6abee0"/><view id="active" viewBox="32 0 16 16"/><use x="32" href="#icon-def" style="--01:#4497c6"/><view id="disabled" viewBox="48 0 16 16"/><use x="48" href="#icon-def" style="--01:#3e3f42"/></svg>