<svg xmlns="http://www.w3.org/2000/svg" data-scheme="multicolor" viewBox="0 0 16 16"><defs><path id="icon-def" fill="var(--01)" d="m15.86 8.48-4 4.56a.21.21 0 0 1-.18.09H4.51a.21.21 0 0 1-.18-.13l-.24-.26a2.5 2.5 0 0 0 .19-.94 3 3 0 0 0 0-.42l.61.71h6.5l3.32-3.81-3.36-3.77h-6.5L1.53 8.32l1 1.15a2.4 2.4 0 0 0-.75-.13q-.31.001-.61.08l-.83-.94a.26.26 0 0 1 0-.33l4-4.56a.23.23 0 0 1 .18-.08h7.18a.23.23 0 0 1 .18.08l4 4.56a.26.26 0 0 1-.02.33M1.78 10.34a1.5 1.5 0 1 0 0 3 1.5 1.5 0 0 0 0-3"/></defs><view id="enabled" viewBox="0 0 16 16"/><use href="#icon-def" style="--01:#4ba3d4"/><view id="hover" viewBox="16 0 16 16"/><use x="16" href="#icon-def" style="--01:#6abee0"/><view id="active" viewBox="32 0 16 16"/><use x="32" href="#icon-def" style="--01:#4497c6"/><view id="disabled" viewBox="48 0 16 16"/><use x="48" href="#icon-def" style="--01:#3e3f42"/></svg>