<svg xmlns="http://www.w3.org/2000/svg" data-scheme="multicolor" viewBox="0 0 16 16"><defs><g id="icon-def"><path fill="var(--09)" fill-rule="evenodd" d="M9.54 16h-4.6a1 1 0 0 1-1-1.08V6a1 1 0 0 1 1-1h10a1 1 0 0 1 1 1v3.6a4.54 4.54 0 0 0-3.51-1.69h-.49V7h-6v1h5.91a4.64 4.64 0 0 0-2.31 1h-4.6v5.92A.2.2 0 0 0 5 15h3.62c.256.377.566.714.92 1" clip-rule="evenodd"/><path fill="var(--01)" d="M15.4 10.49h-.11l-.56.05-.16.26h-.11l-.46-.42-.07-.21-.08-.17-.28-.26-.33-.06v.15l.33.32.16.19-.18.09h-.15l-.22-.09v-.18l-.29-.16-.09.42-.29.06v.24l.38.07.07-.37h.31l.14.09h.24l.15.32.43.42v.17h-.34l-.59.29-.42.51-.06.23h-.15l-.28-.13-.28.13.07.29.12-.14h.21v.26h.18l.17.2.29-.08h.32l.38.1h.19l.31.36.62.37-.4.76-.42.19-.16.44-.61.4-.06.24A3.55 3.55 0 0 0 16 12.46a3.5 3.5 0 0 0-.6-1.97m-5.17-.43.63-.09.29-.16.33.09H12l.18-.29.26.05.63-.06.18-.19.24-.17H14a3.5 3.5 0 0 0-1.51-.34 3.53 3.53 0 0 0-2.76 1.3zm2.38-.79.36-.2.23.13-.33.26h-.33l-.14-.06zm-1.07 0 .16.06.2-.06.12.19-.48.13-.24-.14s.23-.11.24-.15zm1.33 5-.26-.48.23-.49-.23-.07-.27-.23-.59-.13-.19-.41v.24h-.09L11 12v-.56l-.37-.61L10 11h-.4l-.2-.13.26-.21-.26.06A3.55 3.55 0 0 0 12.46 16q.22.015.44 0v-.43s.16-.64.16-.66-.19-.6-.19-.6zM15.5 0H.5a.5.5 0 0 0-.5.5v15a.5.5 0 0 0 .5.5h2.72A2.3 2.3 0 0 1 3 15H1V5h2.2a2 2 0 0 1 1.74-1h10a2 2 0 0 1 1.06.28V.5a.5.5 0 0 0-.5-.5M11 3H2V2h9z"/></g></defs><view id="enabled" viewBox="0 0 16 16"/><use href="#icon-def" style="--09:#a4a5a6;--01:#4ba3d4"/><view id="hover" viewBox="16 0 16 16"/><use x="16" href="#icon-def" style="--09:#828385;--01:#6abee0"/><view id="active" viewBox="32 0 16 16"/><use x="32" href="#icon-def" style="--09:#c6c6c7;--01:#4497c6"/><view id="disabled" viewBox="48 0 16 16"/><use x="48" href="#icon-def" style="--09:#3e3f42;--01:#3e3f42"/></svg>