<svg viewBox="0 0 19 18" xmlns="http://www.w3.org/2000/svg" data-scheme="monochrome"><defs><g id="icon-def"><path stroke="var(--color)" stroke-linecap="round" stroke-linejoin="round" stroke-width="1.2" d="M10.9 16.8h2.8c.4 0 .7-.1.9-.4.2-.2.4-.5.4-.9V13c0-.8.2-1.5.7-2.2.5-.7 1.1-1.1 1.8-1.4V9c-.8-.3-1.4-.7-1.8-1.4-.5-.7-.7-1.4-.7-2.2V2.9c0-.4-.1-.7-.4-.9-.2-.2-.5-.4-.9-.4h-2.8m-3.7 0H4.4c-.4 0-.7.1-.9.4-.3.2-.4.5-.4.9v2.5c0 .8-.2 1.5-.7 2.2C2 8.2 1.4 8.7.6 9v.4c.8.3 1.4.7 1.8 1.4.5.7.7 1.4.7 2.2v2.5c0 .4.1.7.4.9.2.2.5.4.9.4h2.8" fill="transparent"/><path fill="var(--color)" d="M0 1h18.1v16.4H0z"/></g></defs><view id="primary-active" viewBox="0 0 19 18"/><use href="#icon-def" x="0" y="0" style="--color:#335884"/><view id="primary-disabled" viewBox="19 0 19 18"/><use href="#icon-def" x="19" y="0" style="--color:#B3B3B3"/><view id="on-primary" viewBox="38 0 19 18"/><use href="#icon-def" x="38" y="0" style="--color:#CCCCCC"/><view id="on-primary-hover" viewBox="57 0 19 18"/><use href="#icon-def" x="57" y="0" style="--color:#437DC0"/><view id="on-primary-active" viewBox="76 0 19 18"/><use href="#icon-def" x="76" y="0" style="--color:#363636"/><view id="on-disabled" viewBox="95 0 19 18"/><use href="#icon-def" x="95" y="0" style="--color:#7F7F7F"/><view id="neutral" viewBox="114 0 19 18"/><use href="#icon-def" x="114" y="0" style="--color:#616161"/></svg>