<svg viewBox="0 0 17 17" xmlns="http://www.w3.org/2000/svg" data-scheme="monochrome"><defs><g id="icon-def"><path stroke="var(--color)" stroke-linecap="square" stroke-linejoin="round" stroke-width="1.2" d="m2.838 2.222 4.09 5.245c0 .089.088.089.088.177v6.134c0 .089 0 .178.089.266l1.689 1.69c.178.177.533 0 .533-.267V7.644c0-.088 0-.177.089-.177l4.089-5.245c.178-.178 0-.533-.267-.533H3.105c-.267 0-.445.267-.267.533Z" fill="transparent"/></g></defs><view id="primary-active" viewBox="0 0 17 17"/><use href="#icon-def" x="0" y="0" style="--color:#335884"/><view id="primary-disabled" viewBox="17 0 17 17"/><use href="#icon-def" x="17" y="0" style="--color:#B3B3B3"/><view id="on-primary" viewBox="34 0 17 17"/><use href="#icon-def" x="34" y="0" style="--color:#CCCCCC"/><view id="on-primary-hover" viewBox="51 0 17 17"/><use href="#icon-def" x="51" y="0" style="--color:#437DC0"/><view id="on-primary-active" viewBox="68 0 17 17"/><use href="#icon-def" x="68" y="0" style="--color:#363636"/><view id="on-disabled" viewBox="85 0 17 17"/><use href="#icon-def" x="85" y="0" style="--color:#7F7F7F"/><view id="neutral" viewBox="102 0 17 17"/><use href="#icon-def" x="102" y="0" style="--color:#616161"/></svg>