<svg viewBox="0 0 16 17" xmlns="http://www.w3.org/2000/svg" data-scheme="monochrome"><defs><g id="icon-def"><path stroke="var(--color)" stroke-linecap="round" stroke-linejoin="round" stroke-width="1.2" d="M2.044 13.6h4c.09 0 .178 0 .178.089L8 15.467a.27.27 0 0 0 .356 0l1.777-1.778c.09-.089.09-.089.178-.089h4c.178 0 .267-.089.267-.267V1.156c0-.178-.09-.267-.267-.267H2.044c-.177 0-.266.089-.266.267v12.177c0 .178.089.267.266.267Z" fill="transparent"/><path fill="var(--color)" d="M8.444 12a.711.711 0 1 0 0-1.422.711.711 0 0 0 0 1.422Z"/><path stroke="var(--color)" stroke-linecap="round" stroke-linejoin="round" stroke-width="1.2" d="M5.6 5.6c.089-.711.356-1.244.8-1.6a2.677 2.677 0 0 1 1.778-.622c.8 0 1.333.178 1.866.622.445.444.711.889.711 1.511 0 .356-.088.622-.266.978-.267.267-.711.622-1.245 1.067l-.533.533-.267.533c-.088.178-.088.445-.088.8" fill="transparent"/></g></defs><view id="primary-active" viewBox="0 0 16 17"/><use href="#icon-def" x="0" y="0" style="--color:#335884"/><view id="primary-disabled" viewBox="16 0 16 17"/><use href="#icon-def" x="16" y="0" style="--color:#B3B3B3"/><view id="on-primary" viewBox="32 0 16 17"/><use href="#icon-def" x="32" y="0" style="--color:#CCCCCC"/><view id="on-primary-hover" viewBox="48 0 16 17"/><use href="#icon-def" x="48" y="0" style="--color:#437DC0"/><view id="on-primary-active" viewBox="64 0 16 17"/><use href="#icon-def" x="64" y="0" style="--color:#363636"/><view id="on-disabled" viewBox="80 0 16 17"/><use href="#icon-def" x="80" y="0" style="--color:#7F7F7F"/><view id="neutral" viewBox="96 0 16 17"/><use href="#icon-def" x="96" y="0" style="--color:#616161"/></svg>