<svg viewBox="0 0 16 16" xmlns="http://www.w3.org/2000/svg" data-scheme="monochrome"><defs><g id="icon-def"><path stroke="var(--color)" stroke-linecap="round" stroke-linejoin="round" stroke-width="1.2" d="M8 15.111A7.111 7.111 0 1 0 8 .89a7.111 7.111 0 0 0 0 14.222Z" fill="transparent"/><path fill="var(--color)" d="M8.356 12.889a.711.711 0 1 0 0-1.422.711.711 0 0 0 0 1.422Z"/><path stroke="var(--color)" stroke-linecap="round" stroke-linejoin="round" stroke-width="1.2" d="M5.511 6.489c.089-.711.356-1.245.8-1.689.445-.444.978-.622 1.778-.622s1.333.178 1.867.622c.444.444.71.889.71 1.511 0 .356-.088.622-.266.978-.267.355-.8.711-1.244 1.067-.267.355-.534.533-.623.622-.089.178-.177.355-.177.444 0 .09-.09.445-.09.8" fill="transparent"/></g></defs><view id="primary-active" viewBox="0 0 16 16"/><use href="#icon-def" x="0" y="0" style="--color:#335884"/><view id="primary-disabled" viewBox="16 0 16 16"/><use href="#icon-def" x="16" y="0" style="--color:#B3B3B3"/><view id="on-primary" viewBox="32 0 16 16"/><use href="#icon-def" x="32" y="0" style="--color:#CCCCCC"/><view id="on-primary-hover" viewBox="48 0 16 16"/><use href="#icon-def" x="48" y="0" style="--color:#437DC0"/><view id="on-primary-active" viewBox="64 0 16 16"/><use href="#icon-def" x="64" y="0" style="--color:#363636"/><view id="on-disabled" viewBox="80 0 16 16"/><use href="#icon-def" x="80" y="0" style="--color:#7F7F7F"/><view id="neutral" viewBox="96 0 16 16"/><use href="#icon-def" x="96" y="0" style="--color:#616161"/></svg>