<svg viewBox="0 0 18 18" xmlns="http://www.w3.org/2000/svg" data-scheme="monochrome"><defs><g id="icon-def"><path stroke="var(--color)" stroke-linecap="round" stroke-linejoin="round" stroke-width="1.2" d="M9 17A8 8 0 1 0 9 1a8 8 0 0 0 0 16Z" fill="transparent"/><path stroke="var(--color)" stroke-linejoin="round" stroke-width="1.2" d="M1.5 6.3h14.9M1.5 11.7h14.9M8.6 1.1C7.1 3.5 6.3 6.2 6.3 9c0 2.8.8 5.6 2.3 7.9m.8-15.8c1.5 2.4 2.3 5.1 2.3 7.9 0 2.8-.8 5.6-2.3 7.9" fill="transparent"/></g></defs><view id="primary-active" viewBox="0 0 18 18"/><use href="#icon-def" x="0" y="0" style="--color:#335884"/><view id="primary-disabled" viewBox="18 0 18 18"/><use href="#icon-def" x="18" y="0" style="--color:#B3B3B3"/><view id="on-primary" viewBox="36 0 18 18"/><use href="#icon-def" x="36" y="0" style="--color:#CCCCCC"/><view id="on-primary-hover" viewBox="54 0 18 18"/><use href="#icon-def" x="54" y="0" style="--color:#437DC0"/><view id="on-primary-active" viewBox="72 0 18 18"/><use href="#icon-def" x="72" y="0" style="--color:#363636"/><view id="on-disabled" viewBox="90 0 18 18"/><use href="#icon-def" x="90" y="0" style="--color:#7F7F7F"/><view id="neutral" viewBox="108 0 18 18"/><use href="#icon-def" x="108" y="0" style="--color:#616161"/></svg>