<svg xmlns="http://www.w3.org/2000/svg" viewBox="0 0 16 16"><defs><g id="a"><path fill="var(--c)" d="M4.9 10h-1V9h1Zm11-3a1 1 0 0 1-.16.51 1.06 1.06 0 0 1 .16.49v3a1 1 0 0 1-.15.5 1 1 0 0 1 .15.5v3a1 1 0 0 1-1 1h-12a1 1 0 0 1-1-1v-3a1 1 0 0 1 .16-.5 1 1 0 0 1-.16-.5V8.3l1 1.15V11h12V8h-6V7h6V4h-6V3h6a1 1 0 0 1 1 1Zm-1 5h-12v3h12Zm-11 1v1h1v-1Z"/><path fill="var(--e)" d="M7.86 7h-4v2L-.1 4.48 3.84 0v2h4Z"/></g></defs><view id="enabled" viewBox="0 0 16 16"/><use href="#a" style="--c:#00746b;--e:#39b54a"/><view id="hover" viewBox="16 0 16 16"/><use x="16" href="#a" style="--c:#009187;--e:#79cc81"/><view id="active" viewBox="32 0 16 16"/><use x="32" href="#a" style="--c:#02645b;--e:#2fa640"/><view id="disabled" viewBox="48 0 16 16"/><use x="48" href="#a" style="--c:#3e3f42;--e:#3e3f42"/></svg>