<svg xmlns="http://www.w3.org/2000/svg" viewBox="0 0 16 16"><defs><path id="a" fill="var(--h)" d="M12 9.69H7v-5h5Zm-6-3H4v1h2Zm0-2H4v1h2Zm0 4H4v1h2Zm-2 3h8v-1H4Zm0 2h8v-1H4ZM15 4v11a1 1 0 0 1-1 1H2a1 1 0 0 1-1-1V1a1 1 0 0 1 1-1h9l1 1zm-3-1.59V3h.59ZM14 15V4h-2a1 1 0 0 1-1-1V1H2v14Z"/></defs><view id="enabled" viewBox="0 0 16 16"/><use href="#a" style="--h:#f7941d"/><view id="hover" viewBox="16 0 16 16"/><use x="16" href="#a" style="--h:#fab454"/><view id="active" viewBox="32 0 16 16"/><use x="32" href="#a" style="--h:#f3891b"/><view id="disabled" viewBox="48 0 16 16"/><use x="48" href="#a" style="--h:#3e3f42"/></svg>