<svg xmlns="http://www.w3.org/2000/svg" viewBox="0 0 16 16"><defs><path id="a" d="M15.7 10.28h-.92a3.6 3.6 0 0 0-.48-1.16l.7-.65a.28.28 0 0 0 0-.41l-.73-.74a.31.31 0 0 0-.42 0l-.7.68A3.8 3.8 0 0 0 12 7.49v-.91a.29.29 0 0 0-.29-.3h-1a.3.3 0 0 0-.3.3v.91A3.9 3.9 0 0 0 9.22 8l-.65-.65a.3.3 0 0 0-.41 0l-.74.74a.3.3 0 0 0 0 .41l.65.65a3.6 3.6 0 0 0-.48 1.16h-.91a.29.29 0 0 0-.3.29v1a.29.29 0 0 0 .3.29h.91a3.6 3.6 0 0 0 .48 1.15l-.65.65a.31.31 0 0 0 0 .42l.74.73a.28.28 0 0 0 .41 0l.65-.65a3.7 3.7 0 0 0 1.15.49v.91a.31.31 0 0 0 .3.3h1a.3.3 0 0 0 .29-.3v-.91a3.6 3.6 0 0 0 1.15-.49l.65.65a.29.29 0 0 0 .42 0l.73-.73a.29.29 0 0 0 0-.42l-.65-.65a3.6 3.6 0 0 0 .48-1.15h.92a.29.29 0 0 0 .29-.29v-1a.29.29 0 0 0-.25-.32m-4.51 3.31a2.5 2.5 0 1 1 2.5-2.5 2.5 2.5 0 0 1-2.5 2.5m-1.82 2v-.13l-.09.09a1.28 1.28 0 0 1-.92.38 1.25 1.25 0 0 1-.91-.38L6.93 15H2.17V1h9v2a1 1 0 0 0 1 1h2v2.27a1.25 1.25 0 0 1 .76.35l.24.23V4l-4-4h-9a1 1 0 0 0-1 1v14a1 1 0 0 0 1 1h7.29a1.3 1.3 0 0 1-.09-.4Zm2.82-13.14.58.59h-.58Z" data-name="--b"/></defs><view id="enabled" viewBox="0 0 16 16"/><use href="#a" style="--b:#605cab"/><view id="hover" viewBox="16 0 16 16"/><use x="16" href="#a" style="--b:#9e9ecc"/><view id="active" viewBox="32 0 16 16"/><use x="32" href="#a" style="--b:#484099"/><view id="disabled" viewBox="48 0 16 16"/><use x="48" href="#a" style="--b:#3e3f42"/></svg>