<svg xmlns="http://www.w3.org/2000/svg" viewBox="0 0 16 16"><defs><g id="a"><path fill="var(--h)" d="M10.21 8.56 15 11.35a.4.4 0 0 1 0 .65l-4.83 2.79a.4.4 0 0 1-.59-.35V8.91a.4.4 0 0 1 .63-.35"/><path fill="var(--e)" d="M10.48 5.09a.76.76 0 1 1 .75.76.76.76 0 0 1-.75-.76M8.62 13l-.24.43a.28.28 0 0 1-.37.11l-.74-.4a3.4 3.4 0 0 1-.88.72l.23.81a.26.26 0 0 1-.18.33l-.91.27a.28.28 0 0 1-.34-.18L5 14.32a3.3 3.3 0 0 1-1.14-.13l-.4.74a.28.28 0 0 1-.37.11l-.84-.45a.28.28 0 0 1-.11-.37l.41-.74a3.2 3.2 0 0 1-.73-.89l-.8.24a.27.27 0 0 1-.34-.18l-.27-.91a.28.28 0 0 1 .18-.34l.81-.24A3.3 3.3 0 0 1 1.48 10l-.74-.38a.27.27 0 0 1-.11-.36l.45-.84a.28.28 0 0 1 .37-.11l.74.4A3.5 3.5 0 0 1 3.08 8l-.24-.8A.27.27 0 0 1 3 6.85l.91-.27a.27.27 0 0 1 .34.18l.24.81a3.4 3.4 0 0 1 1.14.12L6.05 7a.27.27 0 0 1 .37-.11l.83.45a.28.28 0 0 1 .11.37L7 8.4a3.5 3.5 0 0 1 .72.89l.81-.24a.3.3 0 0 1 .13 0v1.51l-.51.15A3.4 3.4 0 0 1 8 11.86l.64.34Zm-1.69-2.71a2.29 2.29 0 1 0-1.55 2.85 2.31 2.31 0 0 0 1.55-2.85m-2.41-.07A.75.75 0 1 0 5 11.66a.75.75 0 0 0-.43-1.44Zm2.3-4.65v-1a.28.28 0 0 1 .27-.27h.84a3.3 3.3 0 0 1 .45-1.06l-.6-.59a.27.27 0 0 1 0-.39l.67-.67a.28.28 0 0 1 .38 0l.6.6a3.1 3.1 0 0 1 1.06-.44V1a.27.27 0 0 1 .27-.27h1A.27.27 0 0 1 12 1v.8a3 3 0 0 1 1 .44l.6-.6a.28.28 0 0 1 .38 0l.67.67a.27.27 0 0 1 0 .39l-.59.59a3.6 3.6 0 0 1 .44 1.06h.84a.27.27 0 0 1 .27.27v1a.27.27 0 0 1-.27.27h-.84a3.6 3.6 0 0 1-.44 1.06l.59.59a.27.27 0 0 1 0 .39l-.65.62a.28.28 0 0 1-.38 0L13 8a3.3 3.3 0 0 1-1 .44l-1.29-.74a1.3 1.3 0 0 0-.7-.19 1.4 1.4 0 0 0-1.37 1.12.27.27 0 0 1-.19-.08l-.67-.67a.27.27 0 0 1 0-.39l.59-.59a3.6 3.6 0 0 1-.44-1.06h-.84a.28.28 0 0 1-.27-.27m2.12-.48a2.29 2.29 0 1 0 2.29-2.29 2.3 2.3 0 0 0-2.29 2.29"/></g></defs><view id="enabled" viewBox="0 0 16 16"/><use href="#a" style="--e:#39b54a;--f:#ed145b;--h:#f7941d"/><view id="hover" viewBox="16 0 16 16"/><use x="16" href="#a" style="--e:#79cc81;--f:#f4608d;--h:#fab454"/><view id="active" viewBox="32 0 16 16"/><use x="32" href="#a" style="--e:#2fa640;--f:#dc105a;--h:#f3891b"/><view id="disabled" viewBox="48 0 16 16"/><use x="48" href="#a" style="--e:#3e3f42;--f:#3e3f42;--h:#3e3f42"/></svg>