<svg xmlns="http://www.w3.org/2000/svg" viewBox="0 0 16 16"><defs><g id="a"><path fill="var(--d)" d="m8 3.23-3-1.4L8 .47a.42.42 0 0 1 .27 0l2.86 1.34Zm-1.09.51-3-1.41L.72 3.77l3 1.4Zm5.39 1.48 3-1.4a.07.07 0 0 0-.05-.06l-3.06-1.45-3.1 1.43ZM9.57 6.49l1.63-.76L8 4.25 4.8 5.73 8 7.2h.08Z"/><path fill="var(--e)" d="m4.55 6.76 3 1.48v3.1l-3-1.48Zm-.91-.46L.54 4.77v3.09l3.1 1.54Zm.91 7.77 3 1.48v-3.1l-3-1.45Zm-.91-3.56L.54 9v3.1l3.1 1.53Z"/><path fill="var(--h)" d="m8.46 8.25 3-1.48v3.11l-3 1.47Zm3.88 1.17 3.12-1.55v-3.1l-3.12 1.55Zm-3.88 6.13 3-1.47V11l-3 1.47Zm3.88-1.92 3.12-1.55V9l-3.12 1.55Z"/></g></defs><view viewBox="0 0 16 16"/><use href="#a" style="--d:#00a99d;--e:#39b54a;--h:#f7941d"/><view viewBox="16 0 16 16"/><use x="16" href="#a" style="--d:#7ccdc7;--e:#79cc81;--h:#fab454"/><view viewBox="32 0 16 16"/><use x="32" href="#a" style="--d:#00998c;--e:#2fa640;--h:#f3891b"/><view viewBox="48 0 16 16"/><use x="48" href="#a" style="--d:#3e3f42;--e:#3e3f42;--h:#3e3f42"/></svg>