<svg xmlns="http://www.w3.org/2000/svg" viewBox="0 0 16 16"><defs><g id="a"><path d="M12.53 3.39A5.27 5.27 0 0 0 3.28 3l4.84 4.81Z"/><path d="M12.53 3.39A5.27 5.27 0 0 0 3.28 3l4.84 4.81Z"/><path d="M8.12 7.81 3.28 3a5.24 5.24 0 0 0 2.19 7.49Z"/><path d="M3.67 12.18a5.27 5.27 0 0 0 9.25.42L8.08 7.76Z"/><path d="M3.67 12.18a5.27 5.27 0 0 0 9.25.42L8.08 7.76Z"/><path d="m8.08 7.76 4.84 4.84a5.24 5.24 0 0 0-2.19-7.49Z"/></g></defs><view id="enabled" viewBox="0 0 16 16"/><use href="#a" style="--g:#f26522"/><view id="hover" viewBox="16 0 16 16"/><use x="16" href="#a" style="--g:#f59065"/><view id="active" viewBox="32 0 16 16"/><use x="32" href="#a" style="--g:#e75e1e"/><view id="disabled" viewBox="48 0 16 16"/><use x="48" href="#a" style="--g:#3e3f42"/></svg>