<svg xmlns="http://www.w3.org/2000/svg" viewBox="0 0 16 16"><defs><g id="a"><path fill="var(--d)" d="M7.2 5.26H5.43A.28.28 0 0 1 5.16 5V3.23A.28.28 0 0 1 5.43 3H7.2a.28.28 0 0 1 .27.27V5a.28.28 0 0 1-.27.26M11 8.85V7.09a.27.27 0 0 0-.27-.27H9a.27.27 0 0 0-.27.27v1.76a.27.27 0 0 0 .27.27h1.76a.27.27 0 0 0 .24-.27" data-name="--d"/><path fill="var(--h)" d="M10.73 5.26H9A.27.27 0 0 1 8.7 5V3.23A.27.27 0 0 1 9 3h1.76a.27.27 0 0 1 .27.27V5a.27.27 0 0 1-.3.26m-3.26 7.46V11a.28.28 0 0 0-.27-.27H5.43a.28.28 0 0 0-.27.27v1.77a.28.28 0 0 0 .27.27H7.2a.28.28 0 0 0 .27-.32" data-name="--h"/><path fill="var(--b)" d="M7.2 9.12H5.43a.28.28 0 0 1-.27-.27V7.09a.28.28 0 0 1 .27-.27H7.2a.28.28 0 0 1 .27.27v1.76a.28.28 0 0 1-.27.27m3.8 3.6V11a.28.28 0 0 0-.27-.27H9a.28.28 0 0 0-.3.27v1.77A.28.28 0 0 0 9 13h1.76a.28.28 0 0 0 .24-.28" data-name="--b"/><path fill="var(--i)" d="M12.31 15.45H3.86a.68.68 0 0 1-.68-.69V1.19A.68.68 0 0 1 3.86.5h8.45a.69.69 0 0 1 .68.69v13.57a.69.69 0 0 1-.68.69" data-name="--i"/></g></defs><view viewBox="0 0 16 16"/><use href="#a" style="--b:#605cab;--d:#00a99d;--h:#f7941d;--i:#616164"/><view viewBox="16 0 16 16"/><use x="16" href="#a" style="--b:#9e9ecc;--d:#7ccdc7;--h:#fab454;--i:#828385"/><view viewBox="32 0 16 16"/><use x="32" href="#a" style="--b:#484099;--d:#00998c;--h:#f3891b;--i:#3e3f42"/><view viewBox="48 0 16 16"/><use x="48" href="#a" style="--b:#3e3f42;--d:#3e3f42;--h:#3e3f42;--i:#3e3f42"/></svg>