<svg xmlns="http://www.w3.org/2000/svg" viewBox="0 0 16 16"><defs><path id="a" fill="var(--b)" d="M15 .33H1a1 1 0 0 0-1 1v14a1 1 0 0 0 1 1h14a1 1 0 0 0 1-1v-14a1 1 0 0 0-1-1m-4 2v1H2v-1Zm-10 13v-14 4h14v10Zm8-9h3v3H9Zm-1 1H4v7h7v-4H8Zm-3 6v-2h2v2Zm5-2v2H8v-2Zm-3-1H5v-2h2z"/></defs><view viewBox="0 0 16 16"/><use href="#a" style="--b:#605cab"/><view viewBox="16 0 16 16"/><use x="16" href="#a" style="--b:#9e9ecc"/><view viewBox="32 0 16 16"/><use x="32" href="#a" style="--b:#484099"/><view viewBox="48 0 16 16"/><use x="48" href="#a" style="--b:#3e3f42"/></svg>