<svg viewBox="0 0 18 18" xmlns="http://www.w3.org/2000/svg" data-scheme="monochrome"><defs><g id="icon-def"><path d="M1.38962 1L3.68962 1.7L5.88962 1L5.28962 3.3L5.98962 5.5L3.68962 4.9L1.38962 5.5L2.08962 3.3L1.38962 1Z" fill="var(--color)"/><path d="M12.0896 13L14.2896 13.7L16.4896 13L15.7896 15.2L16.4896 17.4L14.2896 16.7L12.0896 17.4L12.7896 15.2L12.0896 13Z" fill="var(--color)"/><path d="M13.7985 6.85305L11.3944 4.44891L0.999994 14.8433L3.40413 17.2474L13.7985 6.85305Z" stroke="var(--color)" stroke-width="1.2" stroke-linecap="round" stroke-linejoin="round" fill="transparent"/><path d="M17.0525 3.71896L14.6483 1.31482L12.7392 3.22399L15.1433 5.62813L17.0525 3.71896Z" stroke="var(--color)" stroke-width="1.2" stroke-linecap="round" stroke-linejoin="round" fill="transparent"/></g></defs><view id="on-surface--enabled" viewBox="0 0 18 18"/><use href="#icon-def" x="0" y="0" style="--color:#696969"/><view id="on-surface--hover" viewBox="18 0 18 18"/><use href="#icon-def" x="18" y="0" style="--color:#696969"/><view id="on-surface--active" viewBox="36 0 18 18"/><use href="#icon-def" x="36" y="0" style="--color:#696969"/><view id="on-surface--disabled" viewBox="54 0 18 18"/><use href="#icon-def" x="54" y="0" style="--color:#696969"/><view id="on-elevation--enabled" viewBox="0 72 18 18"/><use href="#icon-def" x="0" y="72" style="--color:#525151"/></svg>