<svg viewBox="0 0 16 16" xmlns="http://www.w3.org/2000/svg" data-scheme="monochrome"><defs><g id="icon-def"><path fill="var(--color)" fill-rule="evenodd" d="M8.555 3.526c-.473-1.096-2.085-1.06-2.484.106l-.537 1.574-.054.144a2.667 2.667 0 0 1-1.607 1.517l-1.574.538-.106.041c-1.096.472-1.061 2.084.106 2.483l1.574.537.144.054a2.668 2.668 0 0 1 1.517 1.608l.537 1.573.042.107c.472 1.095 2.084 1.06 2.482-.107l.538-1.574.054-.144a2.667 2.667 0 0 1 1.608-1.517l1.573-.538.107-.04c1.095-.473 1.06-2.085-.107-2.483l-1.573-.538-.145-.054a2.667 2.667 0 0 1-1.517-1.607l-.538-1.573-.04-.107Zm-1.759 2.11.537-1.573.538 1.573.06.167a4 4 0 0 0 2.433 2.326l1.573.538-1.573.538-.167.06a4 4 0 0 0-2.326 2.432l-.538 1.574-.537-1.574-.06-.166a4 4 0 0 0-2.433-2.327l-1.574-.537 1.574-.538.166-.06a4 4 0 0 0 2.327-2.433Zm6.223-4.202a.666.666 0 0 0-.984.35l-.233.685-.684.234-.079.032a.666.666 0 0 0 .079 1.23l.685.233.233.684.032.078a.667.667 0 0 0 1.23-.078l.233-.685.684-.233.079-.032a.667.667 0 0 0-.079-1.23l-.684-.233-.234-.684-.032-.078a.666.666 0 0 0-.246-.273ZM8.388 15.507l.008-.002c.005.001.009.005.01.012l.012.285-.003.011-.008.011-.069.05-.008.002-.01-.003-.07-.049-.006-.009-.003-.013.011-.285.003-.007c.003-.004.009-.006.016-.004l.047.024.01.003.013-.003.047-.023Zm.175-.076.009-.001c.007.001.011.006.013.015l.023.409-.003.01c-.004.005-.01.007-.019.005l-.134-.062-.005-.005-.004-.008-.012-.287.002-.007.007-.007.123-.062Zm-.477-.001c.003-.001.006 0 .01.001l.122.062.007.006.002.008-.012.287-.002.007-.007.006-.134.062-.01.001c-.007-.003-.01-.008-.011-.016l.022-.41.004-.009a.013.013 0 0 1 .009-.005Z" clip-rule="evenodd"/></g></defs><view id="on-surface--enabled" viewBox="0 0 16 16"/><use href="#icon-def" x="0" y="0" style="--color:#696969"/><view id="on-surface--hover" viewBox="16 0 16 16"/><use href="#icon-def" x="16" y="0" style="--color:#696969"/><view id="on-surface--active" viewBox="32 0 16 16"/><use href="#icon-def" x="32" y="0" style="--color:#696969"/><view id="on-surface--disabled" viewBox="48 0 16 16"/><use href="#icon-def" x="48" y="0" style="--color:#696969"/><view id="on-primary--enabled" viewBox="0 16 16 16"/><use href="#icon-def" x="0" y="16" style="--color:#CCCCCC"/><view id="on-primary--hover" viewBox="16 16 16 16"/><use href="#icon-def" x="16" y="16" style="--color:#CCCCCC"/><view id="on-primary--active" viewBox="32 16 16 16"/><use href="#icon-def" x="32" y="16" style="--color:#363636"/><view id="on-primary--disabled" viewBox="48 16 16 16"/><use href="#icon-def" x="48" y="16" style="--color:#666666"/><view id="on-disabled--enabled" viewBox="0 32 16 16"/><use href="#icon-def" x="0" y="32" style="--color:#666666"/><view id="on-message--enabled" viewBox="0 48 16 16"/><use href="#icon-def" x="0" y="48" style="--color:#B3B3B3"/><view id="on-elevation--enabled" viewBox="0 64 16 16"/><use href="#icon-def" x="0" y="64" style="--color:#525151"/><view id="primary--enabled" viewBox="0 80 16 16"/><use href="#icon-def" x="0" y="80" style="--color:#2070ce"/><view id="primary--hover" viewBox="16 80 16 16"/><use href="#icon-def" x="16" y="80" style="--color:#437dc0"/><view id="primary--active" viewBox="32 80 16 16"/><use href="#icon-def" x="32" y="80" style="--color:#335884"/><view id="primary--disabled" viewBox="48 80 16 16"/><use href="#icon-def" x="48" y="80" style="--color:#999999"/><view id="error--enabled" viewBox="0 96 16 16"/><use href="#icon-def" x="0" y="96" style="--color:#FB7C84"/><view id="warning--enabled" viewBox="0 112 16 16"/><use href="#icon-def" x="0" y="112" style="--color:#FFC96B"/><view id="success--enabled" viewBox="0 128 16 16"/><use href="#icon-def" x="0" y="128" style="--color:#3FA89B"/><view id="neutral--enabled" viewBox="0 144 16 16"/><use href="#icon-def" x="0" y="144" style="--color:#616161"/><view id="neutral--hover" viewBox="16 144 16 16"/><use href="#icon-def" x="16" y="144" style="--color:#437DC0"/><view id="neutral--active" viewBox="32 144 16 16"/><use href="#icon-def" x="32" y="144" style="--color:#363636"/><view id="neutral--disabled" viewBox="48 144 16 16"/><use href="#icon-def" x="48" y="144" style="--color:#666666"/><view id="highlighted--enabled" viewBox="0 160 16 16"/><use href="#icon-def" x="0" y="160" style="--color:#525151"/><view id="bright--enabled" viewBox="0 176 16 16"/><use href="#icon-def" x="0" y="176" style="--color:#363636"/></svg>