<svg viewBox="0 0 16 16" xmlns="http://www.w3.org/2000/svg" data-scheme="monochrome"><defs><g id="icon-def"><path fill="var(--color)" d="m6.367 8 4.9 4.9a.77.77 0 0 1 .241.583.831.831 0 0 1-.258.584.8.8 0 0 1-.583.25.8.8 0 0 1-.584-.25L4.95 8.95a1.332 1.332 0 0 1-.3-.45 1.337 1.337 0 0 1-.1-.5c0-.167.033-.333.1-.5.067-.167.167-.317.3-.45l5.133-5.133a.78.78 0 0 1 .592-.242.84.84 0 0 1 .592.258.8.8 0 0 1 .25.584.8.8 0 0 1-.25.583L6.367 8Z"/></g></defs><view id="on-surface--enabled" viewBox="0 0 16 16"/><use href="#icon-def" x="0" y="0" style="--color:#696969"/><view id="on-surface--hover" viewBox="16 0 16 16"/><use href="#icon-def" x="16" y="0" style="--color:#696969"/><view id="on-surface--active" viewBox="32 0 16 16"/><use href="#icon-def" x="32" y="0" style="--color:#696969"/><view id="on-surface--disabled" viewBox="48 0 16 16"/><use href="#icon-def" x="48" y="0" style="--color:#696969"/><view id="on-primary--enabled" viewBox="0 16 16 16"/><use href="#icon-def" x="0" y="16" style="--color:#CCCCCC"/><view id="on-primary--hover" viewBox="16 16 16 16"/><use href="#icon-def" x="16" y="16" style="--color:#CCCCCC"/><view id="on-primary--active" viewBox="32 16 16 16"/><use href="#icon-def" x="32" y="16" style="--color:#363636"/><view id="on-primary--disabled" viewBox="48 16 16 16"/><use href="#icon-def" x="48" y="16" style="--color:#666666"/><view id="on-disabled--enabled" viewBox="0 32 16 16"/><use href="#icon-def" x="0" y="32" style="--color:#666666"/><view id="on-message--enabled" viewBox="0 48 16 16"/><use href="#icon-def" x="0" y="48" style="--color:#B3B3B3"/><view id="on-elevation--enabled" viewBox="0 64 16 16"/><use href="#icon-def" x="0" y="64" style="--color:#525151"/><view id="primary--enabled" viewBox="0 80 16 16"/><use href="#icon-def" x="0" y="80" style="--color:#2070ce"/><view id="primary--hover" viewBox="16 80 16 16"/><use href="#icon-def" x="16" y="80" style="--color:#437dc0"/><view id="primary--active" viewBox="32 80 16 16"/><use href="#icon-def" x="32" y="80" style="--color:#335884"/><view id="primary--disabled" viewBox="48 80 16 16"/><use href="#icon-def" x="48" y="80" style="--color:#999999"/><view id="error--enabled" viewBox="0 96 16 16"/><use href="#icon-def" x="0" y="96" style="--color:#FB7C84"/><view id="error-actionable--enabled" viewBox="0 112 16 16"/><use href="#icon-def" x="0" y="112" style="--color:#E1ECF9"/><view id="error-actionable--hover" viewBox="16 112 16 16"/><use href="#icon-def" x="16" y="112" style="--color:#A63A41"/><view id="error-actionable--active" viewBox="32 112 16 16"/><use href="#icon-def" x="32" y="112" style="--color:#E1ECF9"/><view id="error-actionable--disabled" viewBox="48 112 16 16"/><use href="#icon-def" x="48" y="112" style="--color:#828B96"/><view id="warning--enabled" viewBox="0 128 16 16"/><use href="#icon-def" x="0" y="128" style="--color:#FFC96B"/><view id="success--enabled" viewBox="0 144 16 16"/><use href="#icon-def" x="0" y="144" style="--color:#3FA89B"/><view id="neutral--enabled" viewBox="0 160 16 16"/><use href="#icon-def" x="0" y="160" style="--color:#616161"/><view id="neutral--hover" viewBox="16 160 16 16"/><use href="#icon-def" x="16" y="160" style="--color:#437DC0"/><view id="neutral--active" viewBox="32 160 16 16"/><use href="#icon-def" x="32" y="160" style="--color:#363636"/><view id="neutral--disabled" viewBox="48 160 16 16"/><use href="#icon-def" x="48" y="160" style="--color:#666666"/><view id="highlighted--enabled" viewBox="0 176 16 16"/><use href="#icon-def" x="0" y="176" style="--color:#525151"/><view id="bright--enabled" viewBox="0 192 16 16"/><use href="#icon-def" x="0" y="192" style="--color:#363636"/></svg>