<svg viewBox="0 0 16 16" xmlns="http://www.w3.org/2000/svg" data-scheme="monochrome"><defs><g id="icon-def"><path fill="var(--color)" d="M3.333 14a.645.645 0 0 1-.475-.192.645.645 0 0 1-.191-.475c0-.189.064-.347.191-.475a.645.645 0 0 1 .475-.191h9.334a.65.65 0 0 1 .475.191.645.645 0 0 1 .191.475.645.645 0 0 1-.191.475.645.645 0 0 1-.475.192H3.333ZM8 11.05a.737.737 0 0 1-.25-.042.585.585 0 0 1-.217-.141l-2.4-2.4A.632.632 0 0 1 4.95 8c0-.189.061-.344.183-.467A.632.632 0 0 1 5.6 7.35c.189 0 .344.061.467.183L7.333 8.8V2.667c0-.19.064-.348.192-.475A.645.645 0 0 1 8 2c.189 0 .347.064.475.192a.645.645 0 0 1 .192.475V8.8l1.266-1.267a.632.632 0 0 1 .467-.183c.189 0 .344.061.467.183A.632.632 0 0 1 11.05 8a.632.632 0 0 1-.183.467l-2.4 2.4a.585.585 0 0 1-.217.141.737.737 0 0 1-.25.042Z"/></g></defs><view id="on-surface--enabled" viewBox="0 0 16 16"/><use href="#icon-def" x="0" y="0" style="--color:#696969"/><view id="on-surface--hover" viewBox="16 0 16 16"/><use href="#icon-def" x="16" y="0" style="--color:#696969"/><view id="on-surface--active" viewBox="32 0 16 16"/><use href="#icon-def" x="32" y="0" style="--color:#696969"/><view id="on-surface--disabled" viewBox="48 0 16 16"/><use href="#icon-def" x="48" y="0" style="--color:#696969"/><view id="on-primary--enabled" viewBox="0 16 16 16"/><use href="#icon-def" x="0" y="16" style="--color:#CCCCCC"/><view id="on-primary--hover" viewBox="16 16 16 16"/><use href="#icon-def" x="16" y="16" style="--color:#CCCCCC"/><view id="on-primary--active" viewBox="32 16 16 16"/><use href="#icon-def" x="32" y="16" style="--color:#363636"/><view id="on-primary--disabled" viewBox="48 16 16 16"/><use href="#icon-def" x="48" y="16" style="--color:#666666"/><view id="on-disabled--enabled" viewBox="0 32 16 16"/><use href="#icon-def" x="0" y="32" style="--color:#666666"/><view id="on-message--enabled" viewBox="0 48 16 16"/><use href="#icon-def" x="0" y="48" style="--color:#B3B3B3"/><view id="on-elevation--enabled" viewBox="0 64 16 16"/><use href="#icon-def" x="0" y="64" style="--color:#525151"/><view id="primary--enabled" viewBox="0 80 16 16"/><use href="#icon-def" x="0" y="80" style="--color:#2070ce"/><view id="primary--hover" viewBox="16 80 16 16"/><use href="#icon-def" x="16" y="80" style="--color:#437dc0"/><view id="primary--active" viewBox="32 80 16 16"/><use href="#icon-def" x="32" y="80" style="--color:#335884"/><view id="primary--disabled" viewBox="48 80 16 16"/><use href="#icon-def" x="48" y="80" style="--color:#999999"/><view id="error--enabled" viewBox="0 96 16 16"/><use href="#icon-def" x="0" y="96" style="--color:#FB7C84"/><view id="error-actionable--enabled" viewBox="0 112 16 16"/><use href="#icon-def" x="0" y="112" style="--color:#E1ECF9"/><view id="error-actionable--hover" viewBox="16 112 16 16"/><use href="#icon-def" x="16" y="112" style="--color:#A63A41"/><view id="error-actionable--active" viewBox="32 112 16 16"/><use href="#icon-def" x="32" y="112" style="--color:#E1ECF9"/><view id="error-actionable--disabled" viewBox="48 112 16 16"/><use href="#icon-def" x="48" y="112" style="--color:#828B96"/><view id="warning--enabled" viewBox="0 128 16 16"/><use href="#icon-def" x="0" y="128" style="--color:#FFC96B"/><view id="success--enabled" viewBox="0 144 16 16"/><use href="#icon-def" x="0" y="144" style="--color:#3FA89B"/><view id="neutral--enabled" viewBox="0 160 16 16"/><use href="#icon-def" x="0" y="160" style="--color:#616161"/><view id="neutral--hover" viewBox="16 160 16 16"/><use href="#icon-def" x="16" y="160" style="--color:#437DC0"/><view id="neutral--active" viewBox="32 160 16 16"/><use href="#icon-def" x="32" y="160" style="--color:#363636"/><view id="neutral--disabled" viewBox="48 160 16 16"/><use href="#icon-def" x="48" y="160" style="--color:#666666"/><view id="highlighted--enabled" viewBox="0 176 16 16"/><use href="#icon-def" x="0" y="176" style="--color:#525151"/><view id="bright--enabled" viewBox="0 192 16 16"/><use href="#icon-def" x="0" y="192" style="--color:#363636"/></svg>