<svg viewBox="0 0 18 18" xmlns="http://www.w3.org/2000/svg" data-scheme="monochrome"><defs><g id="icon-def"><path d="M3.08051 1.6L7.68051 7.5C7.68051 7.6 7.78051 7.6 7.78051 7.7V14.6C7.78051 14.7 7.78051 14.8 7.88051 14.9L9.78051 16.8C9.98051 17 10.3805 16.8 10.3805 16.5V7.7C10.3805 7.6 10.3805 7.5 10.4805 7.5L15.0805 1.6C15.2805 1.4 15.0805 1 14.7805 1H3.38051C3.08051 1 2.88051 1.3 3.08051 1.6Z" stroke="var(--color)" stroke-width="1.2" stroke-linecap="square" stroke-linejoin="round" fill="transparent"/></g></defs><view id="on-surface--enabled" viewBox="0 0 18 18"/><use href="#icon-def" x="0" y="0" style="--color:#696969"/><view id="on-surface--hover" viewBox="18 0 18 18"/><use href="#icon-def" x="18" y="0" style="--color:#696969"/><view id="on-surface--active" viewBox="36 0 18 18"/><use href="#icon-def" x="36" y="0" style="--color:#696969"/><view id="on-surface--disabled" viewBox="54 0 18 18"/><use href="#icon-def" x="54" y="0" style="--color:#696969"/><view id="on-elevation--enabled" viewBox="0 72 18 18"/><use href="#icon-def" x="0" y="72" style="--color:#525151"/><view id="primary--enabled" viewBox="0 90 18 18"/><use href="#icon-def" x="0" y="90" style="--color:#2070ce"/><view id="primary--hover" viewBox="18 90 18 18"/><use href="#icon-def" x="18" y="90" style="--color:#437dc0"/><view id="primary--active" viewBox="36 90 18 18"/><use href="#icon-def" x="36" y="90" style="--color:#335884"/><view id="primary--disabled" viewBox="54 90 18 18"/><use href="#icon-def" x="54" y="90" style="--color:#999999"/></svg>