<svg viewBox="0 0 16 17" xmlns="http://www.w3.org/2000/svg" data-scheme="monochrome"><defs><g id="icon-def"><path fill="var(--color)" d="M2.667 13.603c-.367 0-.68-.13-.942-.392a1.284 1.284 0 0 1-.392-.941v-8c0-.367.13-.68.392-.942.261-.261.575-.392.942-.392h3.45a1.316 1.316 0 0 1 .933.384l.95.95h5.333c.367 0 .68.13.942.391.261.261.392.575.392.942v6.667c0 .366-.13.68-.392.941a1.284 1.284 0 0 1-.942.392H2.667Zm0-1.333h10.666V5.603H7.45L6.117 4.27h-3.45v8Z"/></g></defs><view id="on-surface--enabled" viewBox="0 0 16 17"/><use href="#icon-def" x="0" y="0" style="--color:#696969"/><view id="on-surface--hover" viewBox="16 0 16 17"/><use href="#icon-def" x="16" y="0" style="--color:#696969"/><view id="on-surface--active" viewBox="32 0 16 17"/><use href="#icon-def" x="32" y="0" style="--color:#696969"/><view id="on-surface--disabled" viewBox="48 0 16 17"/><use href="#icon-def" x="48" y="0" style="--color:#696969"/><view id="on-primary--enabled" viewBox="0 17 16 17"/><use href="#icon-def" x="0" y="17" style="--color:#CCCCCC"/><view id="on-primary--hover" viewBox="16 17 16 17"/><use href="#icon-def" x="16" y="17" style="--color:#CCCCCC"/><view id="on-primary--active" viewBox="32 17 16 17"/><use href="#icon-def" x="32" y="17" style="--color:#363636"/><view id="on-primary--disabled" viewBox="48 17 16 17"/><use href="#icon-def" x="48" y="17" style="--color:#666666"/><view id="on-disabled--enabled" viewBox="0 34 16 17"/><use href="#icon-def" x="0" y="34" style="--color:#666666"/><view id="on-message--enabled" viewBox="0 51 16 17"/><use href="#icon-def" x="0" y="51" style="--color:#B3B3B3"/><view id="on-elevation--enabled" viewBox="0 68 16 17"/><use href="#icon-def" x="0" y="68" style="--color:#525151"/><view id="primary--enabled" viewBox="0 85 16 17"/><use href="#icon-def" x="0" y="85" style="--color:#2070ce"/><view id="primary--hover" viewBox="16 85 16 17"/><use href="#icon-def" x="16" y="85" style="--color:#437dc0"/><view id="primary--active" viewBox="32 85 16 17"/><use href="#icon-def" x="32" y="85" style="--color:#335884"/><view id="primary--disabled" viewBox="48 85 16 17"/><use href="#icon-def" x="48" y="85" style="--color:#999999"/><view id="error--enabled" viewBox="0 102 16 17"/><use href="#icon-def" x="0" y="102" style="--color:#FB7C84"/><view id="error-actionable--enabled" viewBox="0 119 16 17"/><use href="#icon-def" x="0" y="119" style="--color:#E1ECF9"/><view id="error-actionable--hover" viewBox="16 119 16 17"/><use href="#icon-def" x="16" y="119" style="--color:#A63A41"/><view id="error-actionable--active" viewBox="32 119 16 17"/><use href="#icon-def" x="32" y="119" style="--color:#E1ECF9"/><view id="error-actionable--disabled" viewBox="48 119 16 17"/><use href="#icon-def" x="48" y="119" style="--color:#828B96"/><view id="warning--enabled" viewBox="0 136 16 17"/><use href="#icon-def" x="0" y="136" style="--color:#FFC96B"/><view id="success--enabled" viewBox="0 153 16 17"/><use href="#icon-def" x="0" y="153" style="--color:#3FA89B"/><view id="neutral--enabled" viewBox="0 170 16 17"/><use href="#icon-def" x="0" y="170" style="--color:#616161"/><view id="neutral--hover" viewBox="16 170 16 17"/><use href="#icon-def" x="16" y="170" style="--color:#437DC0"/><view id="neutral--active" viewBox="32 170 16 17"/><use href="#icon-def" x="32" y="170" style="--color:#363636"/><view id="neutral--disabled" viewBox="48 170 16 17"/><use href="#icon-def" x="48" y="170" style="--color:#666666"/><view id="highlighted--enabled" viewBox="0 187 16 17"/><use href="#icon-def" x="0" y="187" style="--color:#525151"/><view id="bright--enabled" viewBox="0 204 16 17"/><use href="#icon-def" x="0" y="204" style="--color:#363636"/></svg>