<svg viewBox="0 0 16 16" xmlns="http://www.w3.org/2000/svg" data-scheme="monochrome"><defs><g id="icon-def"><path fill="var(--color)" d="M10.117 5.55c.322.322.558.689.708 1.1.15.411.203.833.158 1.267a.565.565 0 0 1-.183.425.606.606 0 0 1-.433.175.579.579 0 0 1-.425-.175.579.579 0 0 1-.175-.425 1.623 1.623 0 0 0-.05-.834A1.72 1.72 0 0 0 9.3 6.4a1.891 1.891 0 0 0-.683-.433c-.267-.1-.55-.123-.85-.067a.566.566 0 0 1-.425-.183.607.607 0 0 1-.175-.434c0-.166.058-.308.175-.425a.579.579 0 0 1 .425-.175 2.76 2.76 0 0 1 1.25.159c.41.15.777.386 1.1.708ZM8 4c-.211 0-.417.008-.617.025s-.4.047-.6.092a.72.72 0 0 1-.508-.084.683.683 0 0 1-.308-.4.628.628 0 0 1 .058-.516.575.575 0 0 1 .408-.3c.256-.056.514-.095.775-.117.261-.022.525-.033.792-.033 1.522 0 2.914.4 4.175 1.2A7.863 7.863 0 0 1 15.067 7.1a1.258 1.258 0 0 1 .133.567c0 .1-.008.197-.025.291a1 1 0 0 1-.092.275 6.45 6.45 0 0 1-.741 1.25 7.74 7.74 0 0 1-.975 1.067.558.558 0 0 1-.467.15.609.609 0 0 1-.433-.267.736.736 0 0 1-.142-.508.685.685 0 0 1 .225-.458 6.55 6.55 0 0 0 .733-.834c.223-.3.417-.622.584-.966a6.515 6.515 0 0 0-2.409-2.675A6.363 6.363 0 0 0 8 4Zm0 8.667a7.312 7.312 0 0 1-4.083-1.209A8.664 8.664 0 0 1 1 8.283a1.052 1.052 0 0 1-.125-.291 1.272 1.272 0 0 1-.042-.325c0-.111.011-.217.034-.317.022-.1.06-.2.116-.3.223-.444.48-.87.775-1.275a6.75 6.75 0 0 1 1.009-1.108l-1.384-1.4a.648.648 0 0 1-.175-.475.651.651 0 0 1 .192-.459.632.632 0 0 1 .467-.183.63.63 0 0 1 .466.183l11.334 11.334a.652.652 0 0 1 .191.458.62.62 0 0 1-.191.475.632.632 0 0 1-.467.183.632.632 0 0 1-.467-.183L10.4 12.3a7.943 7.943 0 0 1-2.4.367ZM3.7 5.6a7.16 7.16 0 0 0-.883.95 6.01 6.01 0 0 0-.684 1.117 6.515 6.515 0 0 0 2.409 2.675A6.363 6.363 0 0 0 8 11.333c.222 0 .439-.014.65-.041.211-.028.428-.059.65-.092l-.6-.633a3.072 3.072 0 0 1-.35.075 2.354 2.354 0 0 1-.35.025 2.893 2.893 0 0 1-2.125-.875A2.893 2.893 0 0 1 5 7.667c0-.123.008-.24.025-.35.017-.111.042-.228.075-.35L3.7 5.6Z"/></g></defs><view id="on-surface--enabled" viewBox="0 0 16 16"/><use href="#icon-def" x="0" y="0" style="--color:#696969"/><view id="on-surface--hover" viewBox="16 0 16 16"/><use href="#icon-def" x="16" y="0" style="--color:#696969"/><view id="on-surface--active" viewBox="32 0 16 16"/><use href="#icon-def" x="32" y="0" style="--color:#696969"/><view id="on-surface--disabled" viewBox="48 0 16 16"/><use href="#icon-def" x="48" y="0" style="--color:#696969"/><view id="on-primary--enabled" viewBox="0 16 16 16"/><use href="#icon-def" x="0" y="16" style="--color:#CCCCCC"/><view id="on-primary--hover" viewBox="16 16 16 16"/><use href="#icon-def" x="16" y="16" style="--color:#CCCCCC"/><view id="on-primary--active" viewBox="32 16 16 16"/><use href="#icon-def" x="32" y="16" style="--color:#363636"/><view id="on-primary--disabled" viewBox="48 16 16 16"/><use href="#icon-def" x="48" y="16" style="--color:#666666"/><view id="on-disabled--enabled" viewBox="0 32 16 16"/><use href="#icon-def" x="0" y="32" style="--color:#666666"/><view id="on-message--enabled" viewBox="0 48 16 16"/><use href="#icon-def" x="0" y="48" style="--color:#B3B3B3"/><view id="on-elevation--enabled" viewBox="0 64 16 16"/><use href="#icon-def" x="0" y="64" style="--color:#525151"/><view id="primary--enabled" viewBox="0 80 16 16"/><use href="#icon-def" x="0" y="80" style="--color:#2070ce"/><view id="primary--hover" viewBox="16 80 16 16"/><use href="#icon-def" x="16" y="80" style="--color:#437dc0"/><view id="primary--active" viewBox="32 80 16 16"/><use href="#icon-def" x="32" y="80" style="--color:#335884"/><view id="primary--disabled" viewBox="48 80 16 16"/><use href="#icon-def" x="48" y="80" style="--color:#999999"/><view id="error--enabled" viewBox="0 96 16 16"/><use href="#icon-def" x="0" y="96" style="--color:#FB7C84"/><view id="warning--enabled" viewBox="0 112 16 16"/><use href="#icon-def" x="0" y="112" style="--color:#FFC96B"/><view id="success--enabled" viewBox="0 128 16 16"/><use href="#icon-def" x="0" y="128" style="--color:#3FA89B"/><view id="neutral--enabled" viewBox="0 144 16 16"/><use href="#icon-def" x="0" y="144" style="--color:#616161"/><view id="neutral--hover" viewBox="16 144 16 16"/><use href="#icon-def" x="16" y="144" style="--color:#437DC0"/><view id="neutral--active" viewBox="32 144 16 16"/><use href="#icon-def" x="32" y="144" style="--color:#363636"/><view id="neutral--disabled" viewBox="48 144 16 16"/><use href="#icon-def" x="48" y="144" style="--color:#666666"/><view id="highlighted--enabled" viewBox="0 160 16 16"/><use href="#icon-def" x="0" y="160" style="--color:#525151"/><view id="bright--enabled" viewBox="0 176 16 16"/><use href="#icon-def" x="0" y="176" style="--color:#363636"/></svg>