<svg viewBox="0 0 18 18" xmlns="http://www.w3.org/2000/svg" data-scheme="monochrome"><defs><g id="icon-def"><path d="M2 1L16.4 15.5" stroke="var(--color)" stroke-width="1.2" stroke-linecap="square" stroke-linejoin="round" fill="transparent"/><path d="M15 11.7C16 10.8 16.8 9.6 17.3 8.3C16 4.9 12.9 2.6 9.1 2.6C8.1 2.6 7.1 2.8 6.3 3.1" stroke="var(--color)" stroke-width="1.2" stroke-linejoin="round" fill="transparent"/><path d="M9.2 5.8C9.9 5.8 10.5 6.1 11 6.5C11.5 7 11.7 7.6 11.7 8.2" stroke="var(--color)" stroke-width="1.2" stroke-linecap="square" stroke-linejoin="round" fill="transparent"/><path d="M10.9 10C10.4 10.5 9.8 10.7 9.2 10.7C8.6 10.7 7.9 10.4 7.5 10C7 9.6 6.7 8.9 6.7 8.3C6.7 7.6 7 7 7.4 6.6" stroke="var(--color)" stroke-width="1.2" stroke-linecap="square" stroke-linejoin="round" fill="transparent"/><path d="M4.7 3.8C3 4.8 1.7 6.4 1 8.3C2.3 11.7 5.4 14 9.2 14C10.9 14 12.4 13.5 13.7 12.7" stroke="var(--color)" stroke-width="1.2" stroke-linejoin="round" fill="transparent"/><path d="M11.6 8.3C11.6 7.6 11.3 7 10.9 6.5C10.4 6 9.8 5.8 9.2 5.8" stroke="var(--color)" stroke-width="1.2" stroke-linejoin="round" fill="transparent"/><path d="M7.5 6.6C7 7 6.7 7.6 6.7 8.3C6.7 9 7 9.6 7.4 10C7.9 10.5 8.5 10.7 9.1 10.7C9.7 10.7 10.4 10.4 10.8 10" stroke="var(--color)" stroke-width="1.2" stroke-linecap="square" stroke-linejoin="round" fill="transparent"/></g></defs><view id="on-surface--enabled" viewBox="0 0 18 18"/><use href="#icon-def" x="0" y="0" style="--color:#696969"/><view id="on-surface--hover" viewBox="18 0 18 18"/><use href="#icon-def" x="18" y="0" style="--color:#696969"/><view id="on-surface--active" viewBox="36 0 18 18"/><use href="#icon-def" x="36" y="0" style="--color:#696969"/><view id="on-surface--disabled" viewBox="54 0 18 18"/><use href="#icon-def" x="54" y="0" style="--color:#696969"/><view id="on-elevation--enabled" viewBox="0 72 18 18"/><use href="#icon-def" x="0" y="72" style="--color:#525151"/><view id="primary--enabled" viewBox="0 90 18 18"/><use href="#icon-def" x="0" y="90" style="--color:#2070ce"/><view id="primary--hover" viewBox="18 90 18 18"/><use href="#icon-def" x="18" y="90" style="--color:#437dc0"/><view id="primary--active" viewBox="36 90 18 18"/><use href="#icon-def" x="36" y="90" style="--color:#335884"/><view id="primary--disabled" viewBox="54 90 18 18"/><use href="#icon-def" x="54" y="90" style="--color:#999999"/></svg>