<svg viewBox="0 0 18 18" xmlns="http://www.w3.org/2000/svg" data-scheme="monochrome"><defs><g id="icon-def"><path d="M2.27273 16.25H6.63636C6.81818 16.25 6.90909 16.1591 6.90909 15.9773V11.7955C6.90909 11.6136 7 11.5227 7.18182 11.5227H10.8182C11 11.5227 11.0909 11.6136 11.0909 11.7955V15.9773C11.0909 16.1591 11.1818 16.25 11.3636 16.25H15.7273C15.9091 16.25 16 16.1591 16 15.9773V7.34091C16 7.25 16 7.15909 15.9091 7.15909L9.18182 2.06818C9.09091 1.97727 8.90909 1.97727 8.81818 2.06818L2.09091 7.06818C2 7.15909 2 7.25 2 7.34091V15.9773C2 16.1591 2.09091 16.25 2.27273 16.25Z" stroke="var(--color)" stroke-width="1.2" stroke-linecap="round" stroke-linejoin="round" fill="transparent"/></g></defs><view id="on-surface--enabled" viewBox="0 0 18 18"/><use href="#icon-def" x="0" y="0" style="--color:#696969"/><view id="on-surface--hover" viewBox="18 0 18 18"/><use href="#icon-def" x="18" y="0" style="--color:#696969"/><view id="on-surface--active" viewBox="36 0 18 18"/><use href="#icon-def" x="36" y="0" style="--color:#696969"/><view id="on-surface--disabled" viewBox="54 0 18 18"/><use href="#icon-def" x="54" y="0" style="--color:#696969"/><view id="on-elevation--enabled" viewBox="0 72 18 18"/><use href="#icon-def" x="0" y="72" style="--color:#525151"/></svg>