<svg viewBox="0 0 16 16" xmlns="http://www.w3.org/2000/svg" data-scheme="monochrome"><defs><g id="icon-def"><path fill="var(--color)" d="M7 4.667c0-.367.13-.68.392-.942.26-.261.575-.392.941-.392.367 0 .68.13.942.392.261.261.392.575.392.942 0 .366-.13.68-.392.941A1.284 1.284 0 0 1 8.333 6c-.366 0-.68-.13-.941-.392A1.284 1.284 0 0 1 7 4.667Zm-2.667 0c0-1.111.39-2.056 1.167-2.834C6.278 1.056 7.222.667 8.333.667c1.111 0 2.056.389 2.834 1.166.777.778 1.166 1.723 1.166 2.834a3.83 3.83 0 0 1-.55 2.025 4.142 4.142 0 0 1-1.45 1.441v5.584a.69.69 0 0 1-.2.483L8.8 15.533a.586.586 0 0 1-.217.142.737.737 0 0 1-.25.042.737.737 0 0 1-.25-.042.586.586 0 0 1-.216-.142L5.75 13.417a.63.63 0 0 1-.133-.2.923.923 0 0 1-.067-.234.555.555 0 0 1 .017-.233.588.588 0 0 1 .116-.217l.65-.866-.716-.95a.63.63 0 0 1-.1-.592.573.573 0 0 1 .1-.192l.716-1.016v-.784a4.141 4.141 0 0 1-1.45-1.441 3.834 3.834 0 0 1-.55-2.025Zm1.334 0c0 .622.189 1.17.566 1.641.378.473.856.786 1.434.942v2.083l-.684.967L8 11.667l-.917 1.183 1.25 1.25.667-.667V7.25a2.688 2.688 0 0 0 1.433-.942c.378-.472.567-1.02.567-1.641a2.57 2.57 0 0 0-.783-1.884A2.568 2.568 0 0 0 8.333 2a2.57 2.57 0 0 0-1.883.783 2.568 2.568 0 0 0-.783 1.884Z"/></g></defs><view id="on-surface--enabled" viewBox="0 0 16 16"/><use href="#icon-def" x="0" y="0" style="--color:#696969"/><view id="on-surface--hover" viewBox="16 0 16 16"/><use href="#icon-def" x="16" y="0" style="--color:#696969"/><view id="on-surface--active" viewBox="32 0 16 16"/><use href="#icon-def" x="32" y="0" style="--color:#696969"/><view id="on-surface--disabled" viewBox="48 0 16 16"/><use href="#icon-def" x="48" y="0" style="--color:#696969"/><view id="on-primary--enabled" viewBox="0 16 16 16"/><use href="#icon-def" x="0" y="16" style="--color:#CCCCCC"/><view id="on-primary--hover" viewBox="16 16 16 16"/><use href="#icon-def" x="16" y="16" style="--color:#CCCCCC"/><view id="on-primary--active" viewBox="32 16 16 16"/><use href="#icon-def" x="32" y="16" style="--color:#363636"/><view id="on-primary--disabled" viewBox="48 16 16 16"/><use href="#icon-def" x="48" y="16" style="--color:#666666"/><view id="on-disabled--enabled" viewBox="0 32 16 16"/><use href="#icon-def" x="0" y="32" style="--color:#666666"/><view id="on-message--enabled" viewBox="0 48 16 16"/><use href="#icon-def" x="0" y="48" style="--color:#B3B3B3"/><view id="on-elevation--enabled" viewBox="0 64 16 16"/><use href="#icon-def" x="0" y="64" style="--color:#525151"/><view id="primary--enabled" viewBox="0 80 16 16"/><use href="#icon-def" x="0" y="80" style="--color:#2070ce"/><view id="primary--hover" viewBox="16 80 16 16"/><use href="#icon-def" x="16" y="80" style="--color:#437dc0"/><view id="primary--active" viewBox="32 80 16 16"/><use href="#icon-def" x="32" y="80" style="--color:#335884"/><view id="primary--disabled" viewBox="48 80 16 16"/><use href="#icon-def" x="48" y="80" style="--color:#999999"/><view id="error--enabled" viewBox="0 96 16 16"/><use href="#icon-def" x="0" y="96" style="--color:#FB7C84"/><view id="error-actionable--enabled" viewBox="0 112 16 16"/><use href="#icon-def" x="0" y="112" style="--color:#E1ECF9"/><view id="error-actionable--hover" viewBox="16 112 16 16"/><use href="#icon-def" x="16" y="112" style="--color:#A63A41"/><view id="error-actionable--active" viewBox="32 112 16 16"/><use href="#icon-def" x="32" y="112" style="--color:#E1ECF9"/><view id="error-actionable--disabled" viewBox="48 112 16 16"/><use href="#icon-def" x="48" y="112" style="--color:#828B96"/><view id="warning--enabled" viewBox="0 128 16 16"/><use href="#icon-def" x="0" y="128" style="--color:#FFC96B"/><view id="success--enabled" viewBox="0 144 16 16"/><use href="#icon-def" x="0" y="144" style="--color:#3FA89B"/><view id="neutral--enabled" viewBox="0 160 16 16"/><use href="#icon-def" x="0" y="160" style="--color:#616161"/><view id="neutral--hover" viewBox="16 160 16 16"/><use href="#icon-def" x="16" y="160" style="--color:#437DC0"/><view id="neutral--active" viewBox="32 160 16 16"/><use href="#icon-def" x="32" y="160" style="--color:#363636"/><view id="neutral--disabled" viewBox="48 160 16 16"/><use href="#icon-def" x="48" y="160" style="--color:#666666"/><view id="highlighted--enabled" viewBox="0 176 16 16"/><use href="#icon-def" x="0" y="176" style="--color:#525151"/><view id="bright--enabled" viewBox="0 192 16 16"/><use href="#icon-def" x="0" y="192" style="--color:#363636"/></svg>