<svg viewBox="0 0 18 18" xmlns="http://www.w3.org/2000/svg" data-scheme="monochrome"><defs><g id="icon-def"><path d="M9 17C13.4183 17 17 13.4183 17 9C17 4.58172 13.4183 1 9 1C4.58172 1 1 4.58172 1 9C1 13.4183 4.58172 17 9 17Z" stroke="var(--color)" stroke-width="1.2" stroke-linecap="round" stroke-linejoin="round" fill="transparent"/><path d="M1.5 6.3H16.4" stroke="var(--color)" stroke-width="1.2" stroke-linejoin="round" fill="transparent"/><path d="M1.5 11.7H16.4" stroke="var(--color)" stroke-width="1.2" stroke-linejoin="round" fill="transparent"/><path d="M8.6 1.1C7.1 3.5 6.3 6.2 6.3 9C6.3 11.8 7.1 14.6 8.6 16.9M9.4 1.1C10.9 3.5 11.7 6.2 11.7 9C11.7 11.8 10.9 14.6 9.4 16.9" stroke="var(--color)" stroke-width="1.2" stroke-linejoin="round" fill="transparent"/></g></defs><view id="on-surface--enabled" viewBox="0 0 18 18"/><use href="#icon-def" x="0" y="0" style="--color:#696969"/><view id="on-surface--hover" viewBox="18 0 18 18"/><use href="#icon-def" x="18" y="0" style="--color:#696969"/><view id="on-surface--active" viewBox="36 0 18 18"/><use href="#icon-def" x="36" y="0" style="--color:#696969"/><view id="on-surface--disabled" viewBox="54 0 18 18"/><use href="#icon-def" x="54" y="0" style="--color:#696969"/><view id="on-elevation--enabled" viewBox="0 72 18 18"/><use href="#icon-def" x="0" y="72" style="--color:#525151"/></svg>