<svg viewBox="0 0 16 17" xmlns="http://www.w3.org/2000/svg" data-scheme="monochrome"><defs><g id="icon-def"><path fill="var(--color)" d="M13.433 8.936H6a.645.645 0 0 1-.475-.191.645.645 0 0 1-.192-.475c0-.19.064-.348.192-.475A.645.645 0 0 1 6 7.603h7.433l-.566-.567a.61.61 0 0 1-.192-.466.68.68 0 0 1 .667-.675.62.62 0 0 1 .475.191l1.716 1.717a.64.64 0 0 1 .2.467.64.64 0 0 1-.2.466l-1.716 1.717a.621.621 0 0 1-.475.192.68.68 0 0 1-.667-.675.61.61 0 0 1 .192-.467l.566-.567ZM10 5.603v-2H3.333v9.333H10v-2c0-.189.064-.347.192-.475a.645.645 0 0 1 .475-.191c.189 0 .347.064.475.191a.645.645 0 0 1 .191.475v2c0 .367-.13.68-.391.942a1.284 1.284 0 0 1-.942.392H3.333c-.366 0-.68-.13-.941-.392A1.284 1.284 0 0 1 2 12.936V3.603c0-.367.13-.68.392-.942.26-.26.575-.391.941-.391H10c.367 0 .68.13.942.391.26.261.391.575.391.942v2a.645.645 0 0 1-.191.475.645.645 0 0 1-.475.192.645.645 0 0 1-.475-.192.645.645 0 0 1-.192-.475Z"/></g></defs><view id="on-surface--enabled" viewBox="0 0 16 17"/><use href="#icon-def" x="0" y="0" style="--color:#696969"/><view id="on-surface--hover" viewBox="16 0 16 17"/><use href="#icon-def" x="16" y="0" style="--color:#696969"/><view id="on-surface--active" viewBox="32 0 16 17"/><use href="#icon-def" x="32" y="0" style="--color:#696969"/><view id="on-surface--disabled" viewBox="48 0 16 17"/><use href="#icon-def" x="48" y="0" style="--color:#696969"/><view id="on-primary--enabled" viewBox="0 17 16 17"/><use href="#icon-def" x="0" y="17" style="--color:#CCCCCC"/><view id="on-primary--hover" viewBox="16 17 16 17"/><use href="#icon-def" x="16" y="17" style="--color:#CCCCCC"/><view id="on-primary--active" viewBox="32 17 16 17"/><use href="#icon-def" x="32" y="17" style="--color:#363636"/><view id="on-primary--disabled" viewBox="48 17 16 17"/><use href="#icon-def" x="48" y="17" style="--color:#666666"/><view id="on-disabled--enabled" viewBox="0 34 16 17"/><use href="#icon-def" x="0" y="34" style="--color:#666666"/><view id="on-message--enabled" viewBox="0 51 16 17"/><use href="#icon-def" x="0" y="51" style="--color:#B3B3B3"/><view id="on-elevation--enabled" viewBox="0 68 16 17"/><use href="#icon-def" x="0" y="68" style="--color:#525151"/><view id="primary--enabled" viewBox="0 85 16 17"/><use href="#icon-def" x="0" y="85" style="--color:#2070ce"/><view id="primary--hover" viewBox="16 85 16 17"/><use href="#icon-def" x="16" y="85" style="--color:#437dc0"/><view id="primary--active" viewBox="32 85 16 17"/><use href="#icon-def" x="32" y="85" style="--color:#335884"/><view id="primary--disabled" viewBox="48 85 16 17"/><use href="#icon-def" x="48" y="85" style="--color:#999999"/><view id="error--enabled" viewBox="0 102 16 17"/><use href="#icon-def" x="0" y="102" style="--color:#FB7C84"/><view id="warning--enabled" viewBox="0 119 16 17"/><use href="#icon-def" x="0" y="119" style="--color:#FFC96B"/><view id="success--enabled" viewBox="0 136 16 17"/><use href="#icon-def" x="0" y="136" style="--color:#3FA89B"/><view id="neutral--enabled" viewBox="0 153 16 17"/><use href="#icon-def" x="0" y="153" style="--color:#616161"/><view id="neutral--hover" viewBox="16 153 16 17"/><use href="#icon-def" x="16" y="153" style="--color:#437DC0"/><view id="neutral--active" viewBox="32 153 16 17"/><use href="#icon-def" x="32" y="153" style="--color:#363636"/><view id="neutral--disabled" viewBox="48 153 16 17"/><use href="#icon-def" x="48" y="153" style="--color:#666666"/><view id="highlighted--enabled" viewBox="0 170 16 17"/><use href="#icon-def" x="0" y="170" style="--color:#525151"/><view id="bright--enabled" viewBox="0 187 16 17"/><use href="#icon-def" x="0" y="187" style="--color:#363636"/></svg>