<svg viewBox="0 0 16 16" xmlns="http://www.w3.org/2000/svg" data-scheme="monochrome"><defs><g id="icon-def"><path fill="var(--color)" d="M3.333 12.667a.645.645 0 0 1-.475-.192.645.645 0 0 1-.191-.475c0-.189.064-.347.191-.475a.645.645 0 0 1 .475-.192H4V6.667c0-.923.278-1.742.833-2.459A3.845 3.845 0 0 1 7 2.8v-.467c0-.277.097-.514.292-.708A.964.964 0 0 1 8 1.333c.278 0 .514.098.708.292A.96.96 0 0 1 9 2.333V2.8a3.845 3.845 0 0 1 2.167 1.408c.555.717.833 1.536.833 2.459v4.666h.667c.188 0 .347.064.475.192a.645.645 0 0 1 .191.475.645.645 0 0 1-.191.475.645.645 0 0 1-.475.192H3.333Zm4.667 2c-.367 0-.68-.13-.942-.392a1.284 1.284 0 0 1-.391-.942h2.666c0 .367-.13.68-.391.942a1.284 1.284 0 0 1-.942.392Zm-2.667-3.334h5.334V6.667c0-.734-.261-1.361-.784-1.884A2.568 2.568 0 0 0 8 4c-.733 0-1.361.261-1.883.783a2.568 2.568 0 0 0-.784 1.884v4.666Z"/></g></defs><view id="on-surface--enabled" viewBox="0 0 16 16"/><use href="#icon-def" x="0" y="0" style="--color:#696969"/><view id="on-surface--hover" viewBox="16 0 16 16"/><use href="#icon-def" x="16" y="0" style="--color:#696969"/><view id="on-surface--active" viewBox="32 0 16 16"/><use href="#icon-def" x="32" y="0" style="--color:#696969"/><view id="on-surface--disabled" viewBox="48 0 16 16"/><use href="#icon-def" x="48" y="0" style="--color:#696969"/><view id="on-primary--enabled" viewBox="0 16 16 16"/><use href="#icon-def" x="0" y="16" style="--color:#CCCCCC"/><view id="on-primary--hover" viewBox="16 16 16 16"/><use href="#icon-def" x="16" y="16" style="--color:#CCCCCC"/><view id="on-primary--active" viewBox="32 16 16 16"/><use href="#icon-def" x="32" y="16" style="--color:#363636"/><view id="on-primary--disabled" viewBox="48 16 16 16"/><use href="#icon-def" x="48" y="16" style="--color:#666666"/><view id="on-disabled--enabled" viewBox="0 32 16 16"/><use href="#icon-def" x="0" y="32" style="--color:#666666"/><view id="on-message--enabled" viewBox="0 48 16 16"/><use href="#icon-def" x="0" y="48" style="--color:#B3B3B3"/><view id="on-elevation--enabled" viewBox="0 64 16 16"/><use href="#icon-def" x="0" y="64" style="--color:#525151"/><view id="primary--enabled" viewBox="0 80 16 16"/><use href="#icon-def" x="0" y="80" style="--color:#2070ce"/><view id="primary--hover" viewBox="16 80 16 16"/><use href="#icon-def" x="16" y="80" style="--color:#437dc0"/><view id="primary--active" viewBox="32 80 16 16"/><use href="#icon-def" x="32" y="80" style="--color:#335884"/><view id="primary--disabled" viewBox="48 80 16 16"/><use href="#icon-def" x="48" y="80" style="--color:#999999"/><view id="error--enabled" viewBox="0 96 16 16"/><use href="#icon-def" x="0" y="96" style="--color:#FB7C84"/><view id="warning--enabled" viewBox="0 112 16 16"/><use href="#icon-def" x="0" y="112" style="--color:#FFC96B"/><view id="success--enabled" viewBox="0 128 16 16"/><use href="#icon-def" x="0" y="128" style="--color:#3FA89B"/><view id="neutral--enabled" viewBox="0 144 16 16"/><use href="#icon-def" x="0" y="144" style="--color:#616161"/><view id="neutral--hover" viewBox="16 144 16 16"/><use href="#icon-def" x="16" y="144" style="--color:#437DC0"/><view id="neutral--active" viewBox="32 144 16 16"/><use href="#icon-def" x="32" y="144" style="--color:#363636"/><view id="neutral--disabled" viewBox="48 144 16 16"/><use href="#icon-def" x="48" y="144" style="--color:#666666"/><view id="highlighted--enabled" viewBox="0 160 16 16"/><use href="#icon-def" x="0" y="160" style="--color:#525151"/><view id="bright--enabled" viewBox="0 176 16 16"/><use href="#icon-def" x="0" y="176" style="--color:#363636"/></svg>