<svg viewBox="0 0 16 17" xmlns="http://www.w3.org/2000/svg" data-scheme="monochrome"><defs><g id="icon-def"><path fill="var(--color)" d="m7.333 8.17-1.25 1.25a.62.62 0 0 1-.475.191.68.68 0 0 1-.666-.675.61.61 0 0 1 .191-.466l2.4-2.4a.585.585 0 0 1 .217-.142.738.738 0 0 1 .25-.042c.089 0 .172.014.25.042.078.028.15.075.217.142l2.4 2.4a.61.61 0 0 1 .191.466.68.68 0 0 1-.667.675.62.62 0 0 1-.474-.191l-1.25-1.25v4.766a.645.645 0 0 1-.192.475.645.645 0 0 1-.475.192.645.645 0 0 1-.475-.192.645.645 0 0 1-.192-.475V8.17ZM2.667 5.603V4.27c0-.367.13-.68.391-.942.261-.261.575-.392.942-.392h8c.367 0 .68.13.942.392.26.261.391.575.391.942v1.333a.645.645 0 0 1-.191.475.645.645 0 0 1-.475.192.645.645 0 0 1-.475-.192.645.645 0 0 1-.192-.475V4.27H4v1.333a.645.645 0 0 1-.192.475.645.645 0 0 1-.475.192.645.645 0 0 1-.475-.192.645.645 0 0 1-.191-.475Z"/></g></defs><view id="on-surface--enabled" viewBox="0 0 16 17"/><use href="#icon-def" x="0" y="0" style="--color:#696969"/><view id="on-surface--hover" viewBox="16 0 16 17"/><use href="#icon-def" x="16" y="0" style="--color:#696969"/><view id="on-surface--active" viewBox="32 0 16 17"/><use href="#icon-def" x="32" y="0" style="--color:#696969"/><view id="on-surface--disabled" viewBox="48 0 16 17"/><use href="#icon-def" x="48" y="0" style="--color:#696969"/><view id="on-primary--enabled" viewBox="0 17 16 17"/><use href="#icon-def" x="0" y="17" style="--color:#CCCCCC"/><view id="on-primary--hover" viewBox="16 17 16 17"/><use href="#icon-def" x="16" y="17" style="--color:#CCCCCC"/><view id="on-primary--active" viewBox="32 17 16 17"/><use href="#icon-def" x="32" y="17" style="--color:#363636"/><view id="on-primary--disabled" viewBox="48 17 16 17"/><use href="#icon-def" x="48" y="17" style="--color:#666666"/><view id="on-disabled--enabled" viewBox="0 34 16 17"/><use href="#icon-def" x="0" y="34" style="--color:#666666"/><view id="on-message--enabled" viewBox="0 51 16 17"/><use href="#icon-def" x="0" y="51" style="--color:#B3B3B3"/><view id="on-elevation--enabled" viewBox="0 68 16 17"/><use href="#icon-def" x="0" y="68" style="--color:#525151"/><view id="primary--enabled" viewBox="0 85 16 17"/><use href="#icon-def" x="0" y="85" style="--color:#2070ce"/><view id="primary--hover" viewBox="16 85 16 17"/><use href="#icon-def" x="16" y="85" style="--color:#437dc0"/><view id="primary--active" viewBox="32 85 16 17"/><use href="#icon-def" x="32" y="85" style="--color:#335884"/><view id="primary--disabled" viewBox="48 85 16 17"/><use href="#icon-def" x="48" y="85" style="--color:#999999"/><view id="error--enabled" viewBox="0 102 16 17"/><use href="#icon-def" x="0" y="102" style="--color:#FB7C84"/><view id="warning--enabled" viewBox="0 119 16 17"/><use href="#icon-def" x="0" y="119" style="--color:#FFC96B"/><view id="success--enabled" viewBox="0 136 16 17"/><use href="#icon-def" x="0" y="136" style="--color:#3FA89B"/><view id="neutral--enabled" viewBox="0 153 16 17"/><use href="#icon-def" x="0" y="153" style="--color:#616161"/><view id="neutral--hover" viewBox="16 153 16 17"/><use href="#icon-def" x="16" y="153" style="--color:#437DC0"/><view id="neutral--active" viewBox="32 153 16 17"/><use href="#icon-def" x="32" y="153" style="--color:#363636"/><view id="neutral--disabled" viewBox="48 153 16 17"/><use href="#icon-def" x="48" y="153" style="--color:#666666"/><view id="highlighted--enabled" viewBox="0 170 16 17"/><use href="#icon-def" x="0" y="170" style="--color:#525151"/><view id="bright--enabled" viewBox="0 187 16 17"/><use href="#icon-def" x="0" y="187" style="--color:#363636"/></svg>