<svg viewBox="0 0 16 16" xmlns="http://www.w3.org/2000/svg" data-scheme="monochrome"><defs><g id="icon-def"><path fill="var(--color)" d="M8 14.667a5.806 5.806 0 0 1-2.342-.475 6.1 6.1 0 0 1-1.9-1.284 6.097 6.097 0 0 1-1.283-1.9A5.804 5.804 0 0 1 2 8.667a5.8 5.8 0 0 1 .475-2.342 6.099 6.099 0 0 1 1.283-1.9 6.099 6.099 0 0 1 1.9-1.283A5.805 5.805 0 0 1 8 2.667h.1L7.533 2.1a.622.622 0 0 1-.183-.458.68.68 0 0 1 .183-.475.68.68 0 0 1 .475-.209.62.62 0 0 1 .475.192L10.2 2.867a.632.632 0 0 1 .183.466.632.632 0 0 1-.183.467L8.483 5.517a.62.62 0 0 1-.475.191.68.68 0 0 1-.475-.208.68.68 0 0 1-.183-.475c0-.183.061-.336.183-.458L8.1 4H8c-1.3 0-2.403.453-3.308 1.358-.906.906-1.359 2.009-1.359 3.309 0 1.3.453 2.402 1.359 3.308.905.906 2.008 1.358 3.308 1.358 1.178 0 2.206-.383 3.083-1.15.878-.766 1.395-1.733 1.55-2.9a.68.68 0 0 1 .234-.441.687.687 0 0 1 .466-.175c.178 0 .334.055.467.166a.44.44 0 0 1 .167.417c-.156 1.544-.8 2.833-1.934 3.867C10.9 14.15 9.556 14.667 8 14.667Z"/></g></defs><view id="on-surface--enabled" viewBox="0 0 16 16"/><use href="#icon-def" x="0" y="0" style="--color:#696969"/><view id="on-surface--hover" viewBox="16 0 16 16"/><use href="#icon-def" x="16" y="0" style="--color:#696969"/><view id="on-surface--active" viewBox="32 0 16 16"/><use href="#icon-def" x="32" y="0" style="--color:#696969"/><view id="on-surface--disabled" viewBox="48 0 16 16"/><use href="#icon-def" x="48" y="0" style="--color:#696969"/><view id="on-primary--enabled" viewBox="0 16 16 16"/><use href="#icon-def" x="0" y="16" style="--color:#CCCCCC"/><view id="on-primary--hover" viewBox="16 16 16 16"/><use href="#icon-def" x="16" y="16" style="--color:#CCCCCC"/><view id="on-primary--active" viewBox="32 16 16 16"/><use href="#icon-def" x="32" y="16" style="--color:#363636"/><view id="on-primary--disabled" viewBox="48 16 16 16"/><use href="#icon-def" x="48" y="16" style="--color:#666666"/><view id="on-disabled--enabled" viewBox="0 32 16 16"/><use href="#icon-def" x="0" y="32" style="--color:#666666"/><view id="on-message--enabled" viewBox="0 48 16 16"/><use href="#icon-def" x="0" y="48" style="--color:#B3B3B3"/><view id="on-elevation--enabled" viewBox="0 64 16 16"/><use href="#icon-def" x="0" y="64" style="--color:#525151"/><view id="primary--enabled" viewBox="0 80 16 16"/><use href="#icon-def" x="0" y="80" style="--color:#2070ce"/><view id="primary--hover" viewBox="16 80 16 16"/><use href="#icon-def" x="16" y="80" style="--color:#437dc0"/><view id="primary--active" viewBox="32 80 16 16"/><use href="#icon-def" x="32" y="80" style="--color:#335884"/><view id="primary--disabled" viewBox="48 80 16 16"/><use href="#icon-def" x="48" y="80" style="--color:#999999"/><view id="error--enabled" viewBox="0 96 16 16"/><use href="#icon-def" x="0" y="96" style="--color:#FB7C84"/><view id="warning--enabled" viewBox="0 112 16 16"/><use href="#icon-def" x="0" y="112" style="--color:#FFC96B"/><view id="success--enabled" viewBox="0 128 16 16"/><use href="#icon-def" x="0" y="128" style="--color:#3FA89B"/><view id="neutral--enabled" viewBox="0 144 16 16"/><use href="#icon-def" x="0" y="144" style="--color:#616161"/><view id="neutral--hover" viewBox="16 144 16 16"/><use href="#icon-def" x="16" y="144" style="--color:#437DC0"/><view id="neutral--active" viewBox="32 144 16 16"/><use href="#icon-def" x="32" y="144" style="--color:#363636"/><view id="neutral--disabled" viewBox="48 144 16 16"/><use href="#icon-def" x="48" y="144" style="--color:#666666"/><view id="highlighted--enabled" viewBox="0 160 16 16"/><use href="#icon-def" x="0" y="160" style="--color:#525151"/><view id="bright--enabled" viewBox="0 176 16 16"/><use href="#icon-def" x="0" y="176" style="--color:#363636"/></svg>