<svg viewBox="0 0 16 16" xmlns="http://www.w3.org/2000/svg" data-scheme="monochrome"><defs><g id="icon-def"><path fill="var(--color)" d="M8.033 13.333c-1.489 0-2.755-.516-3.8-1.55C3.19 10.75 2.667 9.49 2.667 8v-.117l-.6.6a.632.632 0 0 1-.467.184.632.632 0 0 1-.467-.184.632.632 0 0 1-.183-.466c0-.19.061-.345.183-.467l1.734-1.733a.64.64 0 0 1 .466-.2.64.64 0 0 1 .467.2L5.533 7.55a.632.632 0 0 1 .184.467.632.632 0 0 1-.184.466.632.632 0 0 1-.466.184.632.632 0 0 1-.467-.184l-.6-.6V8c0 1.111.392 2.056 1.175 2.833C5.958 11.611 6.911 12 8.033 12c.178 0 .353-.011.525-.033.173-.023.342-.062.509-.117a.795.795 0 0 1 .533.017.735.735 0 0 1 .383.35.603.603 0 0 1-.366.866 4.243 4.243 0 0 1-.784.192 5.55 5.55 0 0 1-.8.058ZM7.967 4c-.178 0-.353.011-.525.033a2.694 2.694 0 0 0-.509.117.82.82 0 0 1-.541-.017.731.731 0 0 1-.392-.35.566.566 0 0 1-.025-.508.575.575 0 0 1 .375-.342 4.96 4.96 0 0 1 1.617-.267c1.489 0 2.755.517 3.8 1.55C12.81 5.25 13.333 6.512 13.333 8v.117l.6-.6a.632.632 0 0 1 .467-.184.63.63 0 0 1 .467.184.632.632 0 0 1 .183.466.632.632 0 0 1-.183.467l-1.734 1.733a.64.64 0 0 1-.466.2.64.64 0 0 1-.467-.2L10.467 8.45a.632.632 0 0 1-.184-.467c0-.189.062-.344.184-.466a.632.632 0 0 1 .466-.184c.19 0 .345.061.467.184l.6.6V8c0-1.111-.392-2.056-1.175-2.833C10.042 4.389 9.089 4 7.967 4Z"/></g></defs><view id="on-surface--enabled" viewBox="0 0 16 16"/><use href="#icon-def" x="0" y="0" style="--color:#696969"/><view id="on-surface--hover" viewBox="16 0 16 16"/><use href="#icon-def" x="16" y="0" style="--color:#696969"/><view id="on-surface--active" viewBox="32 0 16 16"/><use href="#icon-def" x="32" y="0" style="--color:#696969"/><view id="on-surface--disabled" viewBox="48 0 16 16"/><use href="#icon-def" x="48" y="0" style="--color:#696969"/><view id="on-primary--enabled" viewBox="0 16 16 16"/><use href="#icon-def" x="0" y="16" style="--color:#CCCCCC"/><view id="on-primary--hover" viewBox="16 16 16 16"/><use href="#icon-def" x="16" y="16" style="--color:#CCCCCC"/><view id="on-primary--active" viewBox="32 16 16 16"/><use href="#icon-def" x="32" y="16" style="--color:#363636"/><view id="on-primary--disabled" viewBox="48 16 16 16"/><use href="#icon-def" x="48" y="16" style="--color:#666666"/><view id="on-disabled--enabled" viewBox="0 32 16 16"/><use href="#icon-def" x="0" y="32" style="--color:#666666"/><view id="on-message--enabled" viewBox="0 48 16 16"/><use href="#icon-def" x="0" y="48" style="--color:#B3B3B3"/><view id="on-elevation--enabled" viewBox="0 64 16 16"/><use href="#icon-def" x="0" y="64" style="--color:#525151"/><view id="primary--enabled" viewBox="0 80 16 16"/><use href="#icon-def" x="0" y="80" style="--color:#2070ce"/><view id="primary--hover" viewBox="16 80 16 16"/><use href="#icon-def" x="16" y="80" style="--color:#437dc0"/><view id="primary--active" viewBox="32 80 16 16"/><use href="#icon-def" x="32" y="80" style="--color:#335884"/><view id="primary--disabled" viewBox="48 80 16 16"/><use href="#icon-def" x="48" y="80" style="--color:#999999"/><view id="error--enabled" viewBox="0 96 16 16"/><use href="#icon-def" x="0" y="96" style="--color:#FB7C84"/><view id="error-actionable--enabled" viewBox="0 112 16 16"/><use href="#icon-def" x="0" y="112" style="--color:#E1ECF9"/><view id="error-actionable--hover" viewBox="16 112 16 16"/><use href="#icon-def" x="16" y="112" style="--color:#A63A41"/><view id="error-actionable--active" viewBox="32 112 16 16"/><use href="#icon-def" x="32" y="112" style="--color:#E1ECF9"/><view id="error-actionable--disabled" viewBox="48 112 16 16"/><use href="#icon-def" x="48" y="112" style="--color:#828B96"/><view id="warning--enabled" viewBox="0 128 16 16"/><use href="#icon-def" x="0" y="128" style="--color:#FFC96B"/><view id="success--enabled" viewBox="0 144 16 16"/><use href="#icon-def" x="0" y="144" style="--color:#3FA89B"/><view id="neutral--enabled" viewBox="0 160 16 16"/><use href="#icon-def" x="0" y="160" style="--color:#616161"/><view id="neutral--hover" viewBox="16 160 16 16"/><use href="#icon-def" x="16" y="160" style="--color:#437DC0"/><view id="neutral--active" viewBox="32 160 16 16"/><use href="#icon-def" x="32" y="160" style="--color:#363636"/><view id="neutral--disabled" viewBox="48 160 16 16"/><use href="#icon-def" x="48" y="160" style="--color:#666666"/><view id="highlighted--enabled" viewBox="0 176 16 16"/><use href="#icon-def" x="0" y="176" style="--color:#525151"/><view id="bright--enabled" viewBox="0 192 16 16"/><use href="#icon-def" x="0" y="192" style="--color:#363636"/></svg>