<svg viewBox="0 0 18 18" xmlns="http://www.w3.org/2000/svg" data-scheme="monochrome"><defs><g id="icon-def"><path fill="var(--color)" d="M12.375 11.1V6.9c0-.175-.075-.294-.225-.356-.15-.063-.287-.031-.412.094L9.9 8.475A.72.72 0 0 0 9.675 9c0 .2.075.375.225.525l1.838 1.838c.125.125.262.156.412.093.15-.062.225-.181.225-.356ZM3.75 15.75c-.413 0-.765-.147-1.059-.44a1.447 1.447 0 0 1-.441-1.06V3.75c0-.413.147-.765.441-1.059.294-.293.647-.44 1.059-.441h10.5c.412 0 .766.147 1.06.441.294.294.44.647.44 1.059v10.5c0 .412-.147.766-.44 1.06a1.44 1.44 0 0 1-1.06.44H3.75ZM6 14.25V3.75H3.75v10.5H6Zm1.5 0h6.75V3.75H7.5v10.5Z"/></g></defs><view id="on-surface--enabled" viewBox="0 0 18 18"/><use href="#icon-def" x="0" y="0" style="--color:#696969"/><view id="on-surface--hover" viewBox="18 0 18 18"/><use href="#icon-def" x="18" y="0" style="--color:#696969"/><view id="on-surface--active" viewBox="36 0 18 18"/><use href="#icon-def" x="36" y="0" style="--color:#696969"/><view id="on-surface--disabled" viewBox="54 0 18 18"/><use href="#icon-def" x="54" y="0" style="--color:#696969"/><view id="on-primary--enabled" viewBox="0 18 18 18"/><use href="#icon-def" x="0" y="18" style="--color:#CCCCCC"/><view id="on-primary--hover" viewBox="18 18 18 18"/><use href="#icon-def" x="18" y="18" style="--color:#CCCCCC"/><view id="on-primary--active" viewBox="36 18 18 18"/><use href="#icon-def" x="36" y="18" style="--color:#363636"/><view id="on-primary--disabled" viewBox="54 18 18 18"/><use href="#icon-def" x="54" y="18" style="--color:#666666"/><view id="on-disabled--enabled" viewBox="0 36 18 18"/><use href="#icon-def" x="0" y="36" style="--color:#666666"/><view id="on-message--enabled" viewBox="0 54 18 18"/><use href="#icon-def" x="0" y="54" style="--color:#B3B3B3"/><view id="on-elevation--enabled" viewBox="0 72 18 18"/><use href="#icon-def" x="0" y="72" style="--color:#525151"/><view id="primary--enabled" viewBox="0 90 18 18"/><use href="#icon-def" x="0" y="90" style="--color:#2070ce"/><view id="primary--hover" viewBox="18 90 18 18"/><use href="#icon-def" x="18" y="90" style="--color:#437dc0"/><view id="primary--active" viewBox="36 90 18 18"/><use href="#icon-def" x="36" y="90" style="--color:#335884"/><view id="primary--disabled" viewBox="54 90 18 18"/><use href="#icon-def" x="54" y="90" style="--color:#999999"/><view id="error--enabled" viewBox="0 108 18 18"/><use href="#icon-def" x="0" y="108" style="--color:#FB7C84"/><view id="error-actionable--enabled" viewBox="0 126 18 18"/><use href="#icon-def" x="0" y="126" style="--color:#E1ECF9"/><view id="error-actionable--hover" viewBox="18 126 18 18"/><use href="#icon-def" x="18" y="126" style="--color:#A63A41"/><view id="error-actionable--active" viewBox="36 126 18 18"/><use href="#icon-def" x="36" y="126" style="--color:#E1ECF9"/><view id="error-actionable--disabled" viewBox="54 126 18 18"/><use href="#icon-def" x="54" y="126" style="--color:#828B96"/><view id="warning--enabled" viewBox="0 144 18 18"/><use href="#icon-def" x="0" y="144" style="--color:#FFC96B"/><view id="success--enabled" viewBox="0 162 18 18"/><use href="#icon-def" x="0" y="162" style="--color:#3FA89B"/><view id="neutral--enabled" viewBox="0 180 18 18"/><use href="#icon-def" x="0" y="180" style="--color:#616161"/><view id="neutral--hover" viewBox="18 180 18 18"/><use href="#icon-def" x="18" y="180" style="--color:#437DC0"/><view id="neutral--active" viewBox="36 180 18 18"/><use href="#icon-def" x="36" y="180" style="--color:#363636"/><view id="neutral--disabled" viewBox="54 180 18 18"/><use href="#icon-def" x="54" y="180" style="--color:#666666"/><view id="highlighted--enabled" viewBox="0 198 18 18"/><use href="#icon-def" x="0" y="198" style="--color:#525151"/><view id="bright--enabled" viewBox="0 216 18 18"/><use href="#icon-def" x="0" y="216" style="--color:#363636"/></svg>