<svg viewBox="0 0 18 19" xmlns="http://www.w3.org/2000/svg" data-scheme="monochrome"><defs><g id="icon-def"><path d="M3 1.1C2.9 1 2.8 1 2.7 1C2.6 1 2.5 1 2.4 1.1C2.2 1.1 2.2 1.2 2.1 1.3C2 1.4 2 1.6 2 1.7V17.4C2 17.5 2 17.6 2.1 17.7C2.2 17.8 2.2 17.9 2.4 17.9C2.5 18 2.6 18 2.7 18C2.8 18 2.9 18 3 17.9L16.3 10C16.4 9.9 16.5 9.9 16.5 9.8C16.6 9.7 16.6 9.6 16.6 9.5C16.6 9.4 16.6 9.3 16.5 9.2C16.4 9.1 16.4 9 16.3 9L3 1.1Z" stroke="var(--color)" stroke-width="1.2" stroke-linecap="round" stroke-linejoin="round" fill="transparent"/></g></defs><view id="on-surface--enabled" viewBox="0 0 18 19"/><use href="#icon-def" x="0" y="0" style="--color:#696969"/><view id="on-surface--hover" viewBox="18 0 18 19"/><use href="#icon-def" x="18" y="0" style="--color:#696969"/><view id="on-surface--active" viewBox="36 0 18 19"/><use href="#icon-def" x="36" y="0" style="--color:#696969"/><view id="on-surface--disabled" viewBox="54 0 18 19"/><use href="#icon-def" x="54" y="0" style="--color:#696969"/><view id="on-elevation--enabled" viewBox="0 76 18 19"/><use href="#icon-def" x="0" y="76" style="--color:#525151"/></svg>