<svg viewBox="0 0 18 19" xmlns="http://www.w3.org/2000/svg" data-scheme="monochrome"><defs><g id="icon-def"><path d="M13.7 6.2C15.1359 6.2 16.3 5.03594 16.3 3.6C16.3 2.16406 15.1359 1 13.7 1C12.2641 1 11.1 2.16406 11.1 3.6C11.1 5.03594 12.2641 6.2 13.7 6.2Z" stroke="var(--color)" stroke-width="1.2" stroke-linecap="square" stroke-linejoin="round" fill="transparent"/><path d="M13.7 18C15.1359 18 16.3 16.8359 16.3 15.4C16.3 13.9641 15.1359 12.8 13.7 12.8C12.2641 12.8 11.1 13.9641 11.1 15.4C11.1 16.8359 12.2641 18 13.7 18Z" stroke="var(--color)" stroke-width="1.2" stroke-linecap="square" stroke-linejoin="round" fill="transparent"/><path d="M3.6 12.1C5.03594 12.1 6.2 10.9359 6.2 9.5C6.2 8.06406 5.03594 6.9 3.6 6.9C2.16406 6.9 1 8.06406 1 9.5C1 10.9359 2.16406 12.1 3.6 12.1Z" stroke="var(--color)" stroke-width="1.2" stroke-linecap="square" stroke-linejoin="round" fill="transparent"/><path d="M6.1 8L11.5 4.8" stroke="var(--color)" stroke-width="1.2" stroke-linecap="square" stroke-linejoin="round" fill="transparent"/><path d="M11.2 14.1L5.9 11" stroke="var(--color)" stroke-width="1.2" stroke-linecap="square" stroke-linejoin="round" fill="transparent"/></g></defs><view id="on-surface--enabled" viewBox="0 0 18 19"/><use href="#icon-def" x="0" y="0" style="--color:#696969"/><view id="on-surface--hover" viewBox="18 0 18 19"/><use href="#icon-def" x="18" y="0" style="--color:#696969"/><view id="on-surface--active" viewBox="36 0 18 19"/><use href="#icon-def" x="36" y="0" style="--color:#696969"/><view id="on-surface--disabled" viewBox="54 0 18 19"/><use href="#icon-def" x="54" y="0" style="--color:#696969"/><view id="on-elevation--enabled" viewBox="0 76 18 19"/><use href="#icon-def" x="0" y="76" style="--color:#525151"/></svg>