<svg viewBox="0 0 16 16" xmlns="http://www.w3.org/2000/svg" data-scheme="monochrome"><defs><g id="icon-def"><path fill="var(--color)" d="M6 10c-1.111 0-2.056-.389-2.833-1.167C2.389 8.056 2 7.111 2 6c0-.222.017-.444.05-.667.033-.222.094-.433.183-.633a.63.63 0 0 1 .209-.25.807.807 0 0 1 .275-.117.646.646 0 0 1 .6.184l1.75 1.75 1.2-1.2-1.75-1.75a.643.643 0 0 1-.184-.6.807.807 0 0 1 .117-.275.63.63 0 0 1 .25-.209c.2-.089.411-.15.633-.183C5.556 2.017 5.778 2 6 2c1.111 0 2.056.389 2.833 1.167C9.611 3.944 10 4.889 10 6c0 .256-.022.497-.067.725a3.746 3.746 0 0 1-.2.675l3.367 3.333c.322.323.483.717.483 1.184 0 .466-.16.86-.483 1.183a1.61 1.61 0 0 1-1.183.483c-.467 0-.861-.166-1.184-.5L7.4 9.733a3.746 3.746 0 0 1-.675.2C6.497 9.978 6.255 10 6 10Zm0-1.333c.289 0 .578-.045.867-.134.289-.089.55-.227.783-.416l4.05 4.05a.28.28 0 0 0 .225.075.333.333 0 0 0 .225-.092.304.304 0 0 0 .083-.225.304.304 0 0 0-.083-.225L8.1 7.667c.2-.223.344-.48.433-.775A3.07 3.07 0 0 0 8.667 6c0-.667-.214-1.247-.642-1.742a2.579 2.579 0 0 0-1.592-.891L7.667 4.6a.64.64 0 0 1 .2.467.64.64 0 0 1-.2.466L5.533 7.667a.64.64 0 0 1-.466.2.64.64 0 0 1-.467-.2L3.367 6.433c.1.634.397 1.164.891 1.592A2.578 2.578 0 0 0 6 8.667Z"/></g></defs><view id="on-surface--enabled" viewBox="0 0 16 16"/><use href="#icon-def" x="0" y="0" style="--color:#696969"/><view id="on-surface--hover" viewBox="16 0 16 16"/><use href="#icon-def" x="16" y="0" style="--color:#696969"/><view id="on-surface--active" viewBox="32 0 16 16"/><use href="#icon-def" x="32" y="0" style="--color:#696969"/><view id="on-surface--disabled" viewBox="48 0 16 16"/><use href="#icon-def" x="48" y="0" style="--color:#696969"/><view id="on-primary--enabled" viewBox="0 16 16 16"/><use href="#icon-def" x="0" y="16" style="--color:#CCCCCC"/><view id="on-primary--hover" viewBox="16 16 16 16"/><use href="#icon-def" x="16" y="16" style="--color:#CCCCCC"/><view id="on-primary--active" viewBox="32 16 16 16"/><use href="#icon-def" x="32" y="16" style="--color:#363636"/><view id="on-primary--disabled" viewBox="48 16 16 16"/><use href="#icon-def" x="48" y="16" style="--color:#666666"/><view id="on-disabled--enabled" viewBox="0 32 16 16"/><use href="#icon-def" x="0" y="32" style="--color:#666666"/><view id="on-message--enabled" viewBox="0 48 16 16"/><use href="#icon-def" x="0" y="48" style="--color:#B3B3B3"/><view id="on-elevation--enabled" viewBox="0 64 16 16"/><use href="#icon-def" x="0" y="64" style="--color:#525151"/><view id="primary--enabled" viewBox="0 80 16 16"/><use href="#icon-def" x="0" y="80" style="--color:#2070ce"/><view id="primary--hover" viewBox="16 80 16 16"/><use href="#icon-def" x="16" y="80" style="--color:#437dc0"/><view id="primary--active" viewBox="32 80 16 16"/><use href="#icon-def" x="32" y="80" style="--color:#335884"/><view id="primary--disabled" viewBox="48 80 16 16"/><use href="#icon-def" x="48" y="80" style="--color:#999999"/><view id="error--enabled" viewBox="0 96 16 16"/><use href="#icon-def" x="0" y="96" style="--color:#FB7C84"/><view id="warning--enabled" viewBox="0 112 16 16"/><use href="#icon-def" x="0" y="112" style="--color:#FFC96B"/><view id="success--enabled" viewBox="0 128 16 16"/><use href="#icon-def" x="0" y="128" style="--color:#3FA89B"/><view id="neutral--enabled" viewBox="0 144 16 16"/><use href="#icon-def" x="0" y="144" style="--color:#616161"/><view id="neutral--hover" viewBox="16 144 16 16"/><use href="#icon-def" x="16" y="144" style="--color:#437DC0"/><view id="neutral--active" viewBox="32 144 16 16"/><use href="#icon-def" x="32" y="144" style="--color:#363636"/><view id="neutral--disabled" viewBox="48 144 16 16"/><use href="#icon-def" x="48" y="144" style="--color:#666666"/><view id="highlighted--enabled" viewBox="0 160 16 16"/><use href="#icon-def" x="0" y="160" style="--color:#525151"/><view id="bright--enabled" viewBox="0 176 16 16"/><use href="#icon-def" x="0" y="176" style="--color:#363636"/></svg>