<svg viewBox="0 0 16 16" xmlns="http://www.w3.org/2000/svg" data-scheme="monochrome"><defs><g id="icon-def"><path fill="var(--color)" d="M8 8a2.568 2.568 0 0 1-1.883-.783 2.568 2.568 0 0 1-.784-1.884c0-.733.261-1.36.784-1.883A2.568 2.568 0 0 1 8 2.667c.733 0 1.361.26 1.883.783.523.522.784 1.15.784 1.883 0 .734-.261 1.361-.784 1.884A2.568 2.568 0 0 1 8 8Zm-5.333 4v-.533c0-.378.097-.725.291-1.042a1.95 1.95 0 0 1 .775-.725 9.898 9.898 0 0 1 2.1-.775 9.173 9.173 0 0 1 4.334 0 9.9 9.9 0 0 1 2.1.775c.322.167.58.408.775.725.194.317.291.664.291 1.042V12c0 .367-.13.68-.391.942a1.284 1.284 0 0 1-.942.391H4c-.367 0-.68-.13-.942-.391A1.284 1.284 0 0 1 2.667 12ZM4 12h8v-.533a.65.65 0 0 0-.333-.567 8.69 8.69 0 0 0-1.817-.675 7.734 7.734 0 0 0-3.7 0 8.69 8.69 0 0 0-1.817.675.65.65 0 0 0-.333.567V12Zm4-5.333c.367 0 .68-.13.942-.392.26-.261.391-.575.391-.942 0-.366-.13-.68-.391-.941A1.284 1.284 0 0 0 8 4c-.367 0-.68.13-.942.392a1.284 1.284 0 0 0-.391.941c0 .367.13.68.391.942.261.261.575.392.942.392Z"/></g></defs><view id="on-surface--enabled" viewBox="0 0 16 16"/><use href="#icon-def" x="0" y="0" style="--color:#696969"/><view id="on-surface--hover" viewBox="16 0 16 16"/><use href="#icon-def" x="16" y="0" style="--color:#696969"/><view id="on-surface--active" viewBox="32 0 16 16"/><use href="#icon-def" x="32" y="0" style="--color:#696969"/><view id="on-surface--disabled" viewBox="48 0 16 16"/><use href="#icon-def" x="48" y="0" style="--color:#696969"/><view id="on-primary--enabled" viewBox="0 16 16 16"/><use href="#icon-def" x="0" y="16" style="--color:#CCCCCC"/><view id="on-primary--hover" viewBox="16 16 16 16"/><use href="#icon-def" x="16" y="16" style="--color:#CCCCCC"/><view id="on-primary--active" viewBox="32 16 16 16"/><use href="#icon-def" x="32" y="16" style="--color:#363636"/><view id="on-primary--disabled" viewBox="48 16 16 16"/><use href="#icon-def" x="48" y="16" style="--color:#666666"/><view id="on-disabled--enabled" viewBox="0 32 16 16"/><use href="#icon-def" x="0" y="32" style="--color:#666666"/><view id="on-message--enabled" viewBox="0 48 16 16"/><use href="#icon-def" x="0" y="48" style="--color:#B3B3B3"/><view id="on-elevation--enabled" viewBox="0 64 16 16"/><use href="#icon-def" x="0" y="64" style="--color:#525151"/><view id="primary--enabled" viewBox="0 80 16 16"/><use href="#icon-def" x="0" y="80" style="--color:#2070ce"/><view id="primary--hover" viewBox="16 80 16 16"/><use href="#icon-def" x="16" y="80" style="--color:#437dc0"/><view id="primary--active" viewBox="32 80 16 16"/><use href="#icon-def" x="32" y="80" style="--color:#335884"/><view id="primary--disabled" viewBox="48 80 16 16"/><use href="#icon-def" x="48" y="80" style="--color:#999999"/><view id="error--enabled" viewBox="0 96 16 16"/><use href="#icon-def" x="0" y="96" style="--color:#FB7C84"/><view id="warning--enabled" viewBox="0 112 16 16"/><use href="#icon-def" x="0" y="112" style="--color:#FFC96B"/><view id="success--enabled" viewBox="0 128 16 16"/><use href="#icon-def" x="0" y="128" style="--color:#3FA89B"/><view id="neutral--enabled" viewBox="0 144 16 16"/><use href="#icon-def" x="0" y="144" style="--color:#616161"/><view id="neutral--hover" viewBox="16 144 16 16"/><use href="#icon-def" x="16" y="144" style="--color:#437DC0"/><view id="neutral--active" viewBox="32 144 16 16"/><use href="#icon-def" x="32" y="144" style="--color:#363636"/><view id="neutral--disabled" viewBox="48 144 16 16"/><use href="#icon-def" x="48" y="144" style="--color:#666666"/><view id="highlighted--enabled" viewBox="0 160 16 16"/><use href="#icon-def" x="0" y="160" style="--color:#525151"/><view id="bright--enabled" viewBox="0 176 16 16"/><use href="#icon-def" x="0" y="176" style="--color:#363636"/></svg>