<svg viewBox="0 0 19 18" xmlns="http://www.w3.org/2000/svg" data-scheme="monochrome"><defs><g id="icon-def"><path d="M3.3 5.6C4.57026 5.6 5.6 4.57026 5.6 3.3C5.6 2.02975 4.57026 1 3.3 1C2.02975 1 1 2.02975 1 3.3C1 4.57026 2.02975 5.6 3.3 5.6Z" stroke="var(--color)" stroke-width="1.2" stroke-linecap="square" stroke-linejoin="round" fill="transparent"/><path d="M13.4 14.1C13.4 14.1 9.7 14.2 8.5 14.1C7.8 14.1 5.7 13.7 5.7 11.4C5.7 9 7.7 8.7 9.4 8.7H9.6C11.4 8.7 13.4 8.4 13.4 6C13.4 3.7 11.3 3.3 10.6 3.3C9.4 3.2 5.7 3.3 5.7 3.3" stroke="var(--color)" stroke-width="1.2" stroke-linecap="square" stroke-linejoin="round" fill="transparent"/><path d="M15.7 16.4C16.9702 16.4 18 15.3703 18 14.1C18 12.8297 16.9702 11.8 15.7 11.8C14.4297 11.8 13.4 12.8297 13.4 14.1C13.4 15.3703 14.4297 16.4 15.7 16.4Z" fill="var(--color)" stroke="var(--color)" stroke-width="1.0392" stroke-linecap="square" stroke-linejoin="round"/></g></defs><view id="on-surface--enabled" viewBox="0 0 19 18"/><use href="#icon-def" x="0" y="0" style="--color:#696969"/><view id="on-surface--hover" viewBox="19 0 19 18"/><use href="#icon-def" x="19" y="0" style="--color:#696969"/><view id="on-surface--active" viewBox="38 0 19 18"/><use href="#icon-def" x="38" y="0" style="--color:#696969"/><view id="on-surface--disabled" viewBox="57 0 19 18"/><use href="#icon-def" x="57" y="0" style="--color:#696969"/><view id="on-elevation--enabled" viewBox="0 72 19 18"/><use href="#icon-def" x="0" y="72" style="--color:#525151"/></svg>