<svg viewBox="0 0 18 18" xmlns="http://www.w3.org/2000/svg" data-scheme="monochrome"><defs><g id="icon-def"><path d="M9 17C13.4183 17 17 13.4183 17 9C17 4.58172 13.4183 1 9 1C4.58172 1 1 4.58172 1 9C1 13.4183 4.58172 17 9 17Z" stroke="var(--color)" stroke-width="1.2" stroke-linecap="round" stroke-linejoin="round" fill="transparent"/><path d="M9.1 5.60001V10.5" stroke="var(--color)" stroke-width="1.2" stroke-linecap="round" stroke-linejoin="round" fill="transparent"/><path d="M9.1 13.5C9.54183 13.5 9.9 13.1418 9.9 12.7C9.9 12.2582 9.54183 11.9 9.1 11.9C8.65817 11.9 8.3 12.2582 8.3 12.7C8.3 13.1418 8.65817 13.5 9.1 13.5Z" fill="var(--color)"/></g></defs><view id="on-surface--enabled" viewBox="0 0 18 18"/><use href="#icon-def" x="0" y="0" style="--color:#696969"/><view id="on-surface--hover" viewBox="18 0 18 18"/><use href="#icon-def" x="18" y="0" style="--color:#696969"/><view id="on-surface--active" viewBox="36 0 18 18"/><use href="#icon-def" x="36" y="0" style="--color:#696969"/><view id="on-surface--disabled" viewBox="54 0 18 18"/><use href="#icon-def" x="54" y="0" style="--color:#696969"/><view id="on-elevation--enabled" viewBox="0 72 18 18"/><use href="#icon-def" x="0" y="72" style="--color:#525151"/></svg>