<svg xmlns="http://www.w3.org/2000/svg" width="16" height="16" fill="none" viewBox="0 0 16 16">
  <g class="detail" clip-path="url(#a)">
    <path fill="#8973CA" d="M7 15h-.41v-1H7v-1H1.62V3.11h9v5.46h1V1.11a1 1 0 0 0-1-1h-9a1 1 0 0 0-1 1V15a1 1 0 0 0 1 1h5.6a1.86 1.86 0 0 1-.22-.9V15ZM1.62 1.12h9v1h-9v-1ZM5.6 15h-4v-1h4v1Zm5.3-.88h-1v-.92h1v.92Zm3.57-4.58h-5.6a.91.91 0 0 0-.91.9v4.66a.9.9 0 0 0 .91.9h5.6a.901.901 0 0 0 .91-.9v-4.63a.91.91 0 0 0-.91-.9v-.03ZM14.38 15H9v-4.43h5.42L14.38 15Zm-3.48-2.69h-1v-.92h1v.92Zm1 .92h1.64v.92H11.9v-.92Zm0-1.84h1.64v.92H11.9v-.92Z" class="icons02"/>
  </g>
</svg>