<svg xmlns="http://www.w3.org/2000/svg" width="16" height="16" fill="none" viewBox="0 0 16 16">
  <g class="documentation" clip-path="url(#a)">
    <g class="business-process-diagram">
      <path fill="#39B54A" d="m15.73 6-1.89-1.86a.91.91 0 0 0-1.29 0l-6.17 6.17a.52.52 0 0 0-.18.28l-.86 3.92 3.91-.86a.5.5 0 0 0 .27-.14l6.18-6.18A.91.91 0 0 0 15.73 6Zm-9.17 7.28.34-1.54a17.008 17.008 0 0 0 1.2 1.2l-1.54.34Zm.71-2.54 4.85-4.86L14 7.74 9.13 12.6a15.56 15.56 0 0 1-1.86-1.86Zm5.93-5.93 1.86 1.86-.41.41-1.86-1.86.41-.41ZM15.73 6l-1.89-1.86a.91.91 0 0 0-1.29 0l-6.17 6.17a.52.52 0 0 0-.18.28l-.86 3.92 3.91-.86a.5.5 0 0 0 .27-.14l6.18-6.18A.91.91 0 0 0 15.73 6Zm-9.17 7.28.34-1.54a17.008 17.008 0 0 0 1.2 1.2l-1.54.34Zm.71-2.54 4.85-4.86L14 7.74 9.13 12.6a15.56 15.56 0 0 1-1.86-1.86Zm5.93-5.93 1.86 1.86-.41.41-1.86-1.86.41-.41Zm-.1 6.55V15h-12V1h9v2a1 1 0 0 0 1 1h.17l.57-.57A1.93 1.93 0 0 1 13 2.89L11.1 1l-1-1h-9a1 1 0 0 0-1 1v14a1 1 0 0 0 1 1h12a1 1 0 0 0 1-1v-4.64l-1 1Zm-2-8.95.59.59h-.59v-.59Zm-6.17 9.28H3.1v-1h2.05l-.22 1Zm-.44 2H3.1v-1h1.61l-.22 1Zm3.1-6H3.1v-1h5.49l-1 1Zm-2 2H3.1v-1h3.49l-.91.9-.09.1Zm4-4H3.1v-1h7.48l-.99 1Z" class="icons05"/>
    </g>
  </g>
</svg>