<svg xmlns="http://www.w3.org/2000/svg" width="16" height="16" fill="none" viewBox="0 0 16 16">
  <g class="pattern-category" clip-path="url(#a)">
    <g class="pattern-category">
      <path fill="#F26522" d="M8.62 10.12h-2V8.45h1v-3h-3v3h1v5.41h3v-1h-2v-1.74h2v-1Zm-3-3.69h1v1h-1v-1Zm5.43 5.31H8.62V9.3h2.43v2.44Zm0 2.83H8.62v-2.44h2.43v2.44Z" class="icons07"/>
      <path fill="#00A99D" fill-rule="evenodd" d="M15.5 0H.5a.5.5 0 0 0-.5.5v15a.5.5 0 0 0 .5.5h15a.5.5 0 0 0 .5-.5V.5a.5.5 0 0 0-.5-.5ZM2 2h9v1H2V2ZM1 15V5h14v10H1Z" class="icons04" clip-rule="evenodd"/>
    </g>
  </g>
</svg>