<svg xmlns="http://www.w3.org/2000/svg" width="16" height="16" fill="none" viewBox="0 0 16 16">
  <g class="workwith-for-sd" clip-path="url(#a)">
    <g class="workwith-for-SD">
      <path fill="#00A99D" d="M1.88 4.18h7.51a1.89 1.89 0 0 1 .94-.26h4.55V1.05A.87.87 0 0 0 14 .18H1.75a.87.87 0 0 0-.87.87V9.1h1V4.18Zm1-2h6v1h-6v-1Zm5.54 12H5.61l.92-1h1.89v1Z" class="icons04"/>
      <path fill="#8973CA" d="M3.59 14.9v-1.74H.08V10.1h3.51V8.37l3 3.26-3 3.27Zm12.2-7.25v7.26a.91.91 0 0 1-.91.91h-4.55a.91.91 0 0 1-.91-.91V5.83a.91.91 0 0 1 .91-.91h4.55a.91.91 0 0 1 .91.91v1.82Zm-5.46-1.82v.91h4.55v-.91h-4.55Zm1.82 9.11V14h-1.82v.91l1.82.03Zm2.73-.94h-1.82v.91h1.82V14Zm0-6.38h-4.55v5.47h4.55V7.62Z" class="icons02"/>
    </g>
  </g>
</svg>