<svg xmlns="http://www.w3.org/2000/svg" width="16" height="16" fill="none" viewBox="0 0 16 16">
  <g class="work-with-web" clip-path="url(#a)">
    <g class="work-with-web">
      <path fill="#00A99D" d="M2.13 9.06V4.14h12v2.8c.358.185.693.41 1 .67V1.14a1 1 0 0 0-1-1h-12a1 1 0 0 0-1 1v7.92h1Zm1-6.92h6v1h-6v-1Zm2.74 12 .86-.94c.105.328.246.643.42.94H5.87Z" class="icons04"/>
      <path fill="#605CA8" d="M15.28 9.22h-.13l-.68.06-.19.31-.14-.05-.55-.49-.07-.25-.11-.27-.34-.31-.4-.07v.18l.39.38.2.23-.26.15-.15-.09-.26-.11v-.17l-.35-.14-.11.5-.35.07v.28l.46.09.08-.44.37.05.18.1h.28l.19.39.51.51v.2l-.41-.05-.71.36-.51.61-.07.27H12l-.34-.16-.33.16.08.35.15-.17h.25v.32l.21.06.21.23.34-.09.39.06.46.12h.22l.39.43.74.44-.48.92-.51.23-.19.53-.73.49-.08.28a4.269 4.269 0 0 0 2.55-6.52l-.05.02Zm-3.06 4.6-.31-.57.29-.6-.29-.08-.32-.32-.71-.16-.24-.5v.3h-.1l-.61-.83v-.68l-.45-.73-.71.12h-.48l-.24-.15.3-.25-.3.07a4.26 4.26 0 0 0 3.68 6.42c.18.015.36.015.54 0v-.51s.2-.77.2-.8c0-.03-.25-.73-.25-.73ZM9.05 8.7l.76-.11.35-.19.39.12h.63l.21-.34.32.06.76-.08.21-.23.29-.2.42.07h.16a4.29 4.29 0 0 0-1.82-.41 4.24 4.24 0 0 0-3.29 1.49l.61-.18Zm2.86-.95.44-.24.28.16-.41.33h-.39l-.17-.12.25-.13Zm-1.29 0 .19.08.25-.08.14.25-.58.15-.28-.15s.27-.17.28-.22v-.03Zm-6.78 7.11v-1.74H.34v-3.06h3.5V8.33l3 3.26-3 3.27Z" class="icons02"/>
    </g>
  </g>
</svg>