<svg xmlns="http://www.w3.org/2000/svg" width="19" height="18" fill="none" viewBox="0 0 19 18">
  <g clip-path="url(#a)">
    <path stroke="#999" stroke-linecap="round" stroke-linejoin="round" stroke-width="1.2" d="M10.9 16.8h2.8c.4 0 .7-.1.9-.4.2-.2.4-.5.4-.9V13c0-.8.2-1.5.7-2.2.5-.7 1.1-1.1 1.8-1.4V9c-.8-.3-1.4-.7-1.8-1.4-.5-.7-.7-1.4-.7-2.2V2.9c0-.4-.1-.7-.4-.9-.2-.2-.5-.4-.9-.4h-2.8m-3.7 0H4.4c-.4 0-.7.1-.9.4-.3.2-.4.5-.4.9v2.5c0 .8-.2 1.5-.7 2.2C2 8.2 1.4 8.7.6 9v.4c.8.3 1.4.7 1.8 1.4.5.7.7 1.4.7 2.2v2.5c0 .4.1.7.4.9.2.2.5.4.9.4h2.8"/>
  </g>
  <defs>
    <clipPath id="a">
      <path fill="#fff" d="M0 1h18.1v16.4H0z"/>
    </clipPath>
  </defs>
</svg>
