<svg xmlns="http://www.w3.org/2000/svg" width="16" height="16" fill="none" viewBox="0 0 16 16">
  <path stroke="#999" stroke-linecap="round" stroke-linejoin="round" stroke-width="1.2" d="M7.267 10.644c-.356-.177-.711-.355-.978-.622l-.267-.266a2.95 2.95 0 0 1 0-4.178l3.822-3.822a2.95 2.95 0 0 1 4.178 0l.267.266a2.95 2.95 0 0 1 0 4.178l-1.867 1.867M8.778 5.044c.355.178.71.356.978.623l.266.266a2.95 2.95 0 0 1 0 4.178L6.2 13.933a2.95 2.95 0 0 1-4.178 0l-.266-.266a2.95 2.95 0 0 1 0-4.178l1.866-1.867"/>
</svg>
