<svg xmlns="http://www.w3.org/2000/svg" data-scheme="multicolor" viewBox="0 0 16 16"><defs><g id="icon-def"><path fill="var(--08)" d="M6.36 7a2.16 2.16 0 0 1-.52-1.16 1.47 1.47 0 0 1 .29-1 6.3 6.3 0 0 1 1.23-1.17l.33-.26a9.4 9.4 0 0 0 1.25-1.1 2.38 2.38 0 0 0 .66-2 .3.3 0 0 1 0-.1V.1l.07-.1h.11l.09.09a.4.4 0 0 0 .05.09q.051.116.08.24c.15.448.15.932 0 1.38a4.65 4.65 0 0 1-1.41 2l-.45.4c-.26.22-.53.46-.78.7a1.85 1.85 0 0 0-.49.85 1.72 1.72 0 0 0 .31 1.45c.16.24.31.48.47.71l.23.34a.3.3 0 0 1 0 .07v.09l-.08.11-.08.08-.15-.14-.15-.14-.32-.33c-.18-.35-.47-.66-.74-.99m2-2.11a1.67 1.67 0 0 0-.3 1.57c.142.414.366.795.66 1.12a.92.92 0 0 1 .18 1 .8.8 0 0 1-.08.16l-.18.37.31-.09A.2.2 0 0 0 9 9a3.1 3.1 0 0 0 .73-.75 1.14 1.14 0 0 0 0-1.32l-.13-.2c-.14-.19-.27-.39-.39-.59a.87.87 0 0 1 0-1 3.4 3.4 0 0 1 .66-.69c.29-.23.6-.43.9-.63l.39-.26.32-.22-.15-.11a.2.2 0 0 0-.17 0l-.43.17c-.33.14-.68.28-1 .44A3.8 3.8 0 0 0 8.35 4.9z"/><path fill="var(--01)" d="M4.57 15c-.4 0-.79-.1-1.08-.14s-.67-.12-1-.17q-.16-.045-.31-.12a.36.36 0 0 1-.17-.28.32.32 0 0 1 .21-.29q.31-.214.64-.39a3.9 3.9 0 0 1 1.45-.33h.83l-.8.21-.19.05q-.204.038-.4.11h-.12a1 1 0 0 0-.4.22.08.08 0 0 0 0 .06q.186.12.4.18.638.183 1.3.23l.69.06.8.06h2.74c.46 0 1-.08 1.69-.15.51-.06.93-.12 1.31-.2.272-.04.53-.147.75-.31 0 0 0-.07.07-.11l.06-.1.07-.12.11.09a.25.25 0 0 1 0 .36q-.09.12-.21.21c-.355.204-.74.353-1.14.44h-.14c-.39.09-.8.18-1.21.24s-1 .14-1.49.17-1.2.06-1.83.06H5.77C5.4 15 5 15 4.57 15m5.68-2.22-.38-.19a.57.57 0 0 0-.45-.06h-.21a9 9 0 0 1-1.54.15c-.33 0-.66 0-1-.06l-.7-.1c-.15 0-.17 0-.21-.23v-.18l-.16.1-.12.07a3 3 0 0 0-.27.18.31.31 0 0 0-.12.24.32.32 0 0 0 .12.26l.14.11a2.35 2.35 0 0 0 1 .35h.24c.32 0 .65.1 1 .12h.24a7.3 7.3 0 0 0 2.14-.33l.38-.12.25-.07v-.21h-.05zm.35-1.68-.28-.18a.5.5 0 0 0-.3-.08l-.5.08-.34.08H9a5 5 0 0 1-.65.08q-.665.037-1.33 0c-.42 0-.88-.06-1.4-.13a.25.25 0 0 1-.18-.07.34.34 0 0 1 0-.25l.06-.27-.24.14-.14.06-.28.16c-.15.11-.22.22-.21.34s.08.24.25.34h.08c.45.203.936.318 1.43.34h2.35c.42 0 .74-.1 1.1-.17h.05l.57-.13.55-.13zM3.5 9.73h.07q.146.082.31.12h.23c.49.07 1 .14 1.49.18q.285.015.57 0h.91A18 18 0 0 0 9.32 10c.43-.06.87-.14 1.31-.23a1.2 1.2 0 0 0 .3-.15l.13-.08.29-.16-.35-.12a.13.13 0 0 0-.09 0h-.29l-.55.07-1.87.2c-.43 0-.84.05-1.24.05H5.43a1.6 1.6 0 0 1-.73-.18s-.07-.05-.07-.07v-.06c0-.06.34-.15.51-.22L5.31 9l.19-.06.3-.1-.16-.14a.19.19 0 0 0-.18-.06l-.34.09c-.28.06-.57.13-.85.22a6 6 0 0 0-.71.33h-.07c-.13.07-.16.15-.16.21s.03.17.17.24m10.05 4.79q-.18.102-.37.18a9.7 9.7 0 0 1-2 .51c-.38.06-.77.1-1.17.14h-.29c-.35 0-.71.07-1.05.08h-.59q-.976.035-1.95-.05l-.78-.06H3.67l1.15.25q.59.13 1.19.2.638.067 1.28.07h2.13l.93-.06h.5a9 9 0 0 0 1.57-.27 3.3 3.3 0 0 0 1.05-.51h.06a.85.85 0 0 0 .37-.36l.15-.32zm-1.5-5.72a1.3 1.3 0 0 1 .62.06.85.85 0 0 1 .49 1 1.62 1.62 0 0 1-.58.87l-.61.45-.27.19-.05.27.21-.08.19-.07q.241-.084.47-.2a6 6 0 0 0 .64-.37 1.9 1.9 0 0 0 .81-1 .94.94 0 0 0 0-.77 1.25 1.25 0 0 0-.72-.67 1.63 1.63 0 0 0-1.19 0l-.63.29z"/></g></defs><view id="enabled" viewBox="0 0 16 16"/><use href="#icon-def" style="--08:#f7941d;--01:#0266a0"/><view id="hover" viewBox="16 0 16 16"/><use x="16" href="#icon-def" style="--08:#fab454;--01:#2088c2"/><view id="active" viewBox="32 0 16 16"/><use x="32" href="#icon-def" style="--08:#f3891b;--01:#004a81"/><view id="disabled" viewBox="48 0 16 16"/><use x="48" href="#icon-def" style="--08:#a4a5a6;--01:#a4a5a6"/></svg>