<svg xmlns="http://www.w3.org/2000/svg" data-scheme="multicolor" viewBox="0 0 16 16"><defs><path id="icon-def" fill="var(--05)" fill-rule="evenodd" d="M13.23 4h-.92a3.6 3.6 0 0 0-.48-1.15l.65-.65a.29.29 0 0 0 0-.42L11.75 1a.31.31 0 0 0-.42 0l-.65.65a3.6 3.6 0 0 0-1.15-.48V.29A.29.29 0 0 0 9.24 0h-1a.3.3 0 0 0-.3.29v.92a3.6 3.6 0 0 0-1.15.48L6.1 1a.3.3 0 0 0-.41 0L5 1.77a.31.31 0 0 0 0 .42l.65.65A3.6 3.6 0 0 0 5.12 4h-.91a.29.29 0 0 0-.3.3v1a.29.29 0 0 0 .3.3h.91c.09.415.253.811.48 1.17l-.6.65a.31.31 0 0 0 0 .42l.74.73a.28.28 0 0 0 .41 0l.65-.65c.338.22.71.382 1.1.48v.92a.3.3 0 0 0 .3.29h1a.29.29 0 0 0 .29-.29V8.4a3.6 3.6 0 0 0 1.15-.48l.65.65a.29.29 0 0 0 .42 0l.73-.73a.29.29 0 0 0 0-.42l-.65-.65a3.6 3.6 0 0 0 .48-1.15h.92a.29.29 0 0 0 .29-.3v-1a.29.29 0 0 0-.25-.32M8.72 7.3a2.5 2.5 0 1 1 0-5 2.5 2.5 0 0 1 0 5m6.08 3.31-2 2-.56.63-1.1 1.26a2.78 2.78 0 0 1-2.14.95H4.52a4.2 4.2 0 0 0-1.67.55L.42 12.2c.56-.53 1.14-1.07 1.76-1.59a3.7 3.7 0 0 1 3-.8c.75.13 1.5.23 2.26.29s1.23 0 1.85 0a1 1 0 0 1 1.1 1 1 1 0 0 1-1.09 1H6.85a.451.451 0 1 0 0 .89h2.28a.82.82 0 0 0 .49-.15l3.71-3.71a1 1 0 0 1 1.47 0 1.05 1.05 0 0 1 0 1.48" clip-rule="evenodd"/></defs><view id="enabled" viewBox="0 0 16 16"/><use href="#icon-def" style="--05:#39b54a"/><view id="hover" viewBox="16 0 16 16"/><use x="16" href="#icon-def" style="--05:#79cc81"/><view id="active" viewBox="32 0 16 16"/><use x="32" href="#icon-def" style="--05:#2fa640"/><view id="disabled" viewBox="48 0 16 16"/><use x="48" href="#icon-def" style="--05:#a4a5a6"/></svg>