<svg viewBox="0 0 17 17" xmlns="http://www.w3.org/2000/svg" data-scheme="monochrome"><defs><g id="icon-def"><rect width="13.828" height="14.199" x="1.279" y="1.719" stroke="var(--color)" stroke-miterlimit="10" stroke-width="1.2" rx="1" fill="transparent"/><path stroke="var(--color)" stroke-miterlimit="10" stroke-width="1.2" d="M1.326 5.523h13.78M1.427 11.387h3.121" fill="transparent"/><path stroke="var(--color)" stroke-linecap="round" stroke-linejoin="round" stroke-width="1.2" d="M9.452 12.76a2.445 2.445 0 0 0 2.452-2.436 2.445 2.445 0 0 0-2.452-2.437A2.445 2.445 0 0 0 7 10.324a2.445 2.445 0 0 0 2.452 2.437Zm1.694-.708L14 14.887" fill="transparent"/><circle cx="3.719" cy="3.754" r=".534" fill="var(--color)"/><circle cx="3.719" cy="8.421" r=".534" fill="var(--color)"/><circle cx="3.719" cy="13.663" r=".534" fill="var(--color)"/></g></defs><view id="on-surface--enabled" viewBox="0 0 17 17"/><use href="#icon-def" x="0" y="0" style="--color:#999999"/><view id="on-surface--hover" viewBox="17 0 17 17"/><use href="#icon-def" x="17" y="0" style="--color:#999999"/><view id="on-surface--active" viewBox="34 0 17 17"/><use href="#icon-def" x="34" y="0" style="--color:#999999"/><view id="on-surface--disabled" viewBox="51 0 17 17"/><use href="#icon-def" x="51" y="0" style="--color:#999999"/><view id="on-primary--enabled" viewBox="0 17 17 17"/><use href="#icon-def" x="0" y="17" style="--color:#1A1A1A"/><view id="on-primary--hover" viewBox="17 17 17 17"/><use href="#icon-def" x="17" y="17" style="--color:#1A1A1A"/><view id="on-primary--active" viewBox="34 17 17 17"/><use href="#icon-def" x="34" y="17" style="--color:#FFFFFF"/><view id="on-primary--disabled" viewBox="51 17 17 17"/><use href="#icon-def" x="51" y="17" style="--color:#7F7F7F"/><view id="on-disabled--enabled" viewBox="0 34 17 17"/><use href="#icon-def" x="0" y="34" style="--color:#7F7F7F"/><view id="on-message--enabled" viewBox="0 51 17 17"/><use href="#icon-def" x="0" y="51" style="--color:#333333"/><view id="on-elevation--enabled" viewBox="0 68 17 17"/><use href="#icon-def" x="0" y="68" style="--color:#CCCCCC"/><view id="primary--enabled" viewBox="0 85 17 17"/><use href="#icon-def" x="0" y="85" style="--color:#bfd732"/><view id="primary--hover" viewBox="17 85 17 17"/><use href="#icon-def" x="17" y="85" style="--color:#96aa22"/><view id="primary--active" viewBox="34 85 17 17"/><use href="#icon-def" x="34" y="85" style="--color:#697718"/><view id="primary--disabled" viewBox="51 85 17 17"/><use href="#icon-def" x="51" y="85" style="--color:#575757"/><view id="neutral--enabled" viewBox="0 153 17 17"/><use href="#icon-def" x="0" y="153" style="--color:#B3B3B3"/><view id="neutral--hover" viewBox="17 153 17 17"/><use href="#icon-def" x="17" y="153" style="--color:#96aa22"/><view id="neutral--active" viewBox="34 153 17 17"/><use href="#icon-def" x="34" y="153" style="--color:#FFFFFF"/><view id="neutral--disabled" viewBox="51 153 17 17"/><use href="#icon-def" x="51" y="153" style="--color:#7F7F7F"/><view id="highlighted--enabled" viewBox="0 170 17 17"/><use href="#icon-def" x="0" y="170" style="--color:#CCCCCC"/><view id="bright--enabled" viewBox="0 187 17 17"/><use href="#icon-def" x="0" y="187" style="--color:#FFFFFF"/></svg>