<svg viewBox="0 0 17 17" xmlns="http://www.w3.org/2000/svg" data-scheme="monochrome"><defs><g id="icon-def"><path fill="var(--color)" fill-rule="evenodd" d="M13.587 4.75h-.92a3.64 3.64 0 0 0-.48-1.15l.65-.65a.29.29 0 0 0 0-.42l-.73-.78a.31.31 0 0 0-.42 0l-.65.65a3.64 3.64 0 0 0-1.15-.48v-.88a.29.29 0 0 0-.3-.29h-1a.3.3 0 0 0-.3.29v.92a3.64 3.64 0 0 0-1.15.48l-.68-.69a.31.31 0 0 0-.42 0l-.73.73a.31.31 0 0 0 0 .42l.65.65a3.64 3.64 0 0 0-.48 1.2h-.92a.29.29 0 0 0-.29.3v1a.29.29 0 0 0 .29.3h.92c.092.408.255.797.48 1.15l-.65.65a.31.31 0 0 0 0 .42l.73.73a.29.29 0 0 0 .42 0l.65-.65a3.64 3.64 0 0 0 1.15.48v.92a.3.3 0 0 0 .3.29h1a.29.29 0 0 0 .3-.29v-.9a3.64 3.64 0 0 0 1.15-.48l.65.65a.29.29 0 0 0 .42 0l.73-.73a.29.29 0 0 0 0-.42l-.65-.65a3.64 3.64 0 0 0 .48-1.15h.92a.29.29 0 0 0 .29-.3v-1a.29.29 0 0 0-.26-.32Zm-4.51 3.3a2.5 2.5 0 1 1-.02-5 2.5 2.5 0 0 1 .02 5Zm6.08 3.31-2 2-.56.63-1.1 1.26a2.78 2.78 0 0 1-2.14.95h-4.48a4.33 4.33 0 0 0-1.68.55l-2.42-3.8c.56-.53 1.14-1.07 1.76-1.59a3.7 3.7 0 0 1 3-.8c.74.13 1.5.23 2.26.29.76.06 1.23 0 1.85 0a1 1 0 0 1 1.1 1 .999.999 0 0 1-1.09 1h-2.45a.45.45 0 1 0 0 .89h2.28a.82.82 0 0 0 .49-.15l3.71-3.71a1 1 0 0 1 1.47 0 1.05 1.05 0 0 1 0 1.48Z" clip-rule="evenodd"/></g></defs><view id="on-surface--enabled" viewBox="0 0 17 17"/><use href="#icon-def" x="0" y="0" style="--color:#999999"/><view id="on-surface--hover" viewBox="17 0 17 17"/><use href="#icon-def" x="17" y="0" style="--color:#999999"/><view id="on-surface--active" viewBox="34 0 17 17"/><use href="#icon-def" x="34" y="0" style="--color:#999999"/><view id="on-surface--disabled" viewBox="51 0 17 17"/><use href="#icon-def" x="51" y="0" style="--color:#999999"/><view id="on-primary--enabled" viewBox="0 17 17 17"/><use href="#icon-def" x="0" y="17" style="--color:#1A1A1A"/><view id="on-primary--hover" viewBox="17 17 17 17"/><use href="#icon-def" x="17" y="17" style="--color:#1A1A1A"/><view id="on-primary--active" viewBox="34 17 17 17"/><use href="#icon-def" x="34" y="17" style="--color:#FFFFFF"/><view id="on-primary--disabled" viewBox="51 17 17 17"/><use href="#icon-def" x="51" y="17" style="--color:#7F7F7F"/><view id="on-disabled--enabled" viewBox="0 34 17 17"/><use href="#icon-def" x="0" y="34" style="--color:#7F7F7F"/><view id="on-message--enabled" viewBox="0 51 17 17"/><use href="#icon-def" x="0" y="51" style="--color:#333333"/><view id="on-elevation--enabled" viewBox="0 68 17 17"/><use href="#icon-def" x="0" y="68" style="--color:#CCCCCC"/><view id="primary--enabled" viewBox="0 85 17 17"/><use href="#icon-def" x="0" y="85" style="--color:#bfd732"/><view id="primary--hover" viewBox="17 85 17 17"/><use href="#icon-def" x="17" y="85" style="--color:#96aa22"/><view id="primary--active" viewBox="34 85 17 17"/><use href="#icon-def" x="34" y="85" style="--color:#697718"/><view id="primary--disabled" viewBox="51 85 17 17"/><use href="#icon-def" x="51" y="85" style="--color:#575757"/><view id="neutral--enabled" viewBox="0 153 17 17"/><use href="#icon-def" x="0" y="153" style="--color:#B3B3B3"/><view id="neutral--hover" viewBox="17 153 17 17"/><use href="#icon-def" x="17" y="153" style="--color:#96aa22"/><view id="neutral--active" viewBox="34 153 17 17"/><use href="#icon-def" x="34" y="153" style="--color:#FFFFFF"/><view id="neutral--disabled" viewBox="51 153 17 17"/><use href="#icon-def" x="51" y="153" style="--color:#7F7F7F"/><view id="highlighted--enabled" viewBox="0 170 17 17"/><use href="#icon-def" x="0" y="170" style="--color:#CCCCCC"/><view id="bright--enabled" viewBox="0 187 17 17"/><use href="#icon-def" x="0" y="187" style="--color:#FFFFFF"/></svg>