<svg xmlns="http://www.w3.org/2000/svg" data-scheme="multicolor" viewBox="0 0 16 16"><defs><path id="icon-def" fill="var(--04)" d="M15 0H1a1 1 0 0 0-1 1v14a1 1 0 0 0 1 1h14a1 1 0 0 0 1-1V1a1 1 0 0 0-1-1m0 15H1V1h14ZM4.89 9h6.22v2h1V8H8.5V5h2V2h-5v3h2v3H3.89v3h1ZM6.5 4V3h3v1zm.39 7h-5v3h5Zm-1 2h-3v-1h3Zm3.22 1h5v-3h-5Zm1-2h3v1h-3Z"/></defs><view id="enabled" viewBox="0 0 16 16"/><use href="#icon-def" style="--04:#7ccdc7"/><view id="hover" viewBox="16 0 16 16"/><use x="16" href="#icon-def" style="--04:#b0e0dd"/><view id="active" viewBox="32 0 16 16"/><use x="32" href="#icon-def" style="--04:#45b9b1"/><view id="disabled" viewBox="48 0 16 16"/><use x="48" href="#icon-def" style="--04:#3e3f42"/></svg>