<svg xmlns="http://www.w3.org/2000/svg" data-scheme="multicolor" viewBox="0 0 16 16"><defs><path id="icon-def" fill="var(--04)" d="M15.25 3.58 13.73 5.1a1.6 1.6 0 0 1-2.24 0l-.56-.56a1.6 1.6 0 0 1 0-2.24L12.45.78a3.91 3.91 0 0 0-3.92.94 3.9 3.9 0 0 0-.93 3.93l-.12.1-6.6 6.6a1.58 1.58 0 0 0 0 2.24l.56.56a1.58 1.58 0 0 0 2.24 0l6.6-6.6a1 1 0 0 0 .09-.12 3.91 3.91 0 0 0 3.94-.93 3.91 3.91 0 0 0 .94-3.92M3 14.1A.76.76 0 1 1 3 13a.76.76 0 0 1 0 1.1"/></defs><view id="enabled" viewBox="0 0 16 16"/><use href="#icon-def" style="--04:#7ccdc7"/><view id="hover" viewBox="16 0 16 16"/><use x="16" href="#icon-def" style="--04:#b0e0dd"/><view id="active" viewBox="32 0 16 16"/><use x="32" href="#icon-def" style="--04:#45b9b1"/><view id="disabled" viewBox="48 0 16 16"/><use x="48" href="#icon-def" style="--04:#3e3f42"/></svg>