<svg xmlns="http://www.w3.org/2000/svg" data-scheme="multicolor" viewBox="0 0 $width$ $height$"><defs><g id="icon-def"><path fill="var(--03)" d="M3.87 13h1v1h-1Zm12-10v12a1 1 0 0 1-1 1h-12a1 1 0 0 1-1-1v-3a1 1 0 0 1 1-1h9.3V7h-9.3a1 1 0 0 1-1-1V3a1 1 0 0 1 1-1h12a1 1 0 0 1 1 1m-1 9h-12v3h12Zm0-6V3h-12v3zm-11-1h1V4h-1Z"/><path fill="var(--08)" d="M13 6H1a1 1 0 0 0-1 1v3a1 1 0 0 0 1 1h12a1 1 0 0 0 1-1V7a1 1 0 0 0-1-1M3 9H2V8h1Z"/></g></defs><view id="enabled" viewBox="0 0 16 16"/><use href="#icon-def" style="--03:#24a19a;--08:#fab454"/><view id="hover" viewBox="16 0 16 16"/><use x="16" href="#icon-def" style="--03:#7ec8c5;--08:#fddfb4"/><view id="active" viewBox="32 0 16 16"/><use x="32" href="#icon-def" style="--03:#009088;--08:#f9a533"/><view id="disabled" viewBox="48 0 16 16"/><use x="48" href="#icon-def" style="--03:#3e3f42;--08:#3e3f42"/></svg>