<svg xmlns="http://www.w3.org/2000/svg" data-scheme="multicolor" viewBox="0 0 $width$ $height$"><defs><g id="icon-def"><path fill="var(--05)" d="M12.88 12.83H6v-6.9h6.9Z"/><path fill="var(--03)" d="M14.89 12.91V3.2A1.63 1.63 0 0 0 16 1.67a1.62 1.62 0 0 0-3.16-.52H3.12a1.62 1.62 0 1 0-2 2.06v9.7A1.62 1.62 0 1 0 3.14 15h9.72a1.62 1.62 0 1 0 2-2.05Zm-2 1.05H3.15a1.63 1.63 0 0 0-1.06-1.06V3.21a1.66 1.66 0 0 0 1-1.06h9.7a1.63 1.63 0 0 0 1.06 1.06v9.7a1.63 1.63 0 0 0-1 1.09Zm1.48-12.91a.62.62 0 1 1-.62.62.63.63 0 0 1 .62-.62m-12.78 0a.62.62 0 1 1-.59.62.62.62 0 0 1 .59-.62m0 14a.63.63 0 1 1 .62-.63.63.63 0 0 1-.6.65Zm12.78 0a.63.63 0 1 1 .63-.63.63.63 0 0 1-.61.65ZM5 10H3.07V3.11H10v1.82H5z"/></g></defs><view id="enabled" viewBox="0 0 16 16"/><use href="#icon-def" style="--05:#a1daa5;--03:#24a19a"/><view id="hover" viewBox="16 0 16 16"/><use x="16" href="#icon-def" style="--05:#c6e8c8;--03:#7ec8c5"/><view id="active" viewBox="32 0 16 16"/><use x="32" href="#icon-def" style="--05:#7bcc81;--03:#009088"/><view id="disabled" viewBox="48 0 16 16"/><use x="48" href="#icon-def" style="--05:#3e3f42;--03:#3e3f42"/></svg>