<svg xmlns="http://www.w3.org/2000/svg" data-scheme="multicolor" viewBox="0 0 $width$ $height$"><defs><path id="icon-def" fill="var(--05)" d="M15.37 4.59h-.84a3.6 3.6 0 0 0-.44-1.06l.6-.59a.29.29 0 0 0 0-.39L14 1.88a.28.28 0 0 0-.38 0l-.6.6A3 3 0 0 0 12 2v-.8a.27.27 0 0 0-.27-.27h-1a.27.27 0 0 0-.27.27V2a3.1 3.1 0 0 0-1.06.44l-.6-.6a.28.28 0 0 0-.38 0l-.67.67a.27.27 0 0 0 0 .39l.6.59a3.3 3.3 0 0 0-.45 1.06h-.81a.28.28 0 0 0-.27.27v.95a.28.28 0 0 0 .27.27h.84a3.7 3.7 0 0 0 .44 1.06l-.59.59a.26.26 0 0 0 0 .38l.67.68a.28.28 0 0 0 .38 0l.6-.6a3.3 3.3 0 0 0 1.06.44v.84a.27.27 0 0 0 .27.27h1a.27.27 0 0 0 .24-.23v-.84a3.3 3.3 0 0 0 1-.44l.6.6a.28.28 0 0 0 .38 0l.68-.68a.28.28 0 0 0 0-.38l-.6-.59a3.7 3.7 0 0 0 .44-1.06h.84a.27.27 0 0 0 .27-.27v-.95a.27.27 0 0 0-.24-.27m-4.14 3a2.29 2.29 0 1 1 2.29-2.29 2.29 2.29 0 0 1-2.29 2.32ZM12 5.33a.76.76 0 1 1-.76-.75.76.76 0 0 1 .76.75m-3.5 4-.81.24A3.5 3.5 0 0 0 7 8.64l.4-.74a.28.28 0 0 0-.11-.37l-.83-.45a.27.27 0 0 0-.37.11l-.4.74a3.4 3.4 0 0 0-1.14-.12L4.27 7a.27.27 0 0 0-.34-.18L3 7.09a.27.27 0 0 0-.18.34l.24.8a3.5 3.5 0 0 0-.87.77l-.74-.4a.28.28 0 0 0-.37.11l-.45.79a.27.27 0 0 0 .11.36l.74.41a3.3 3.3 0 0 0-.12 1.13l-.81.24a.28.28 0 0 0-.18.36l.27.91a.28.28 0 0 0 .34.18l.8-.24a3.3 3.3 0 0 0 .73.89l-.41.74a.28.28 0 0 0 .11.37l.84.45a.28.28 0 0 0 .37-.11l.4-.74a3.3 3.3 0 0 0 1.18.1l.23.81a.28.28 0 0 0 .34.18l.91-.27a.27.27 0 0 0 .18-.34l-.23-.8a3.4 3.4 0 0 0 .88-.72l.74.4a.28.28 0 0 0 .37-.11l.45-.84a.26.26 0 0 0-.11-.36L8 12.09A3.3 3.3 0 0 0 8.11 11l.8-.24a.27.27 0 0 0 .18-.34l-.27-.91a.27.27 0 0 0-.33-.22Zm-3.12 4.05a2.29 2.29 0 1 1 1.55-2.85 2.29 2.29 0 0 1-1.55 2.85M5.45 11a.74.74 0 0 1-.5.93.75.75 0 1 1-.43-1.44.74.74 0 0 1 .93.51"/></defs><view id="enabled" viewBox="0 0 16 16"/><use href="#icon-def" style="--05:#a1daa5"/><view id="hover" viewBox="16 0 16 16"/><use x="16" href="#icon-def" style="--05:#c6e8c8"/><view id="active" viewBox="32 0 16 16"/><use x="32" href="#icon-def" style="--05:#7bcc81"/><view id="disabled" viewBox="48 0 16 16"/><use x="48" href="#icon-def" style="--05:#3e3f42"/></svg>