<svg xmlns="http://www.w3.org/2000/svg" data-scheme="multicolor" viewBox="0 0 $width$ $height$"><defs><path id="icon-def" fill="var(--04)" d="M15.72 3.92a.49.49 0 0 0-.28-.45L8.24.06a.5.5 0 0 0-.42 0L.58 3.45a.51.51 0 0 0-.25.35.5.5 0 0 0-.11.28v7.58a.5.5 0 0 0 .28.45l7.22 3.55a.1.1 0 0 0 0 .05.5.5 0 0 0 .27.08.6.6 0 0 0 .22 0l7.25-3.58a.49.49 0 0 0 .28-.45V4.14a.43.43 0 0 0-.02-.22M8 1.07l6.05 2.87-2.62 1.33-5.71-3.12ZM4.59 2.68l5.75 3.14-2.45 1.24-1.74-.86-4.24-2.26Zm-3.37 8.67V4.89l4.47 2.2L7.47 8v6.39Zm13.56.05-6.25 3.08V8l6.25-3.08ZM3.43 8.05 5.32 9v2l-1.89-1Z"/></defs><view id="enabled" viewBox="0 0 16 16"/><use href="#icon-def" style="--04:#7ccdc7"/><view id="hover" viewBox="16 0 16 16"/><use x="16" href="#icon-def" style="--04:#b0e0dd"/><view id="active" viewBox="32 0 16 16"/><use x="32" href="#icon-def" style="--04:#45b9b1"/><view id="disabled" viewBox="48 0 16 16"/><use x="48" href="#icon-def" style="--04:#3e3f42"/></svg>