<svg xmlns="http://www.w3.org/2000/svg" data-scheme="multicolor" viewBox="0 0 $width$ $height$"><defs><path id="icon-def" fill="var(--04)" d="m16 6.18-1.2-1.92a.7.7 0 0 0-.26-.26s-.07-.08-.12-.1L8.24 1a.46.46 0 0 0-.41 0L1.62 3.91a.7.7 0 0 0-.3.26L.09 6.08A1.16 1.16 0 0 0 0 7a1.15 1.15 0 0 0 .57.72l.77.41V12a.49.49 0 0 0 .27.43l6.19 3.05a.5.5 0 0 0 .26.07.4.4 0 0 0 .21-.05l6.23-3.06a.48.48 0 0 0 .26-.43V7.68a2 2 0 0 0 .59.13h.05a.82.82 0 0 0 .69-.47A1.24 1.24 0 0 0 16 6.18M4 9.59v.7l1.63.86v-.69l.25.13a.9.9 0 0 0 .42.11.94.94 0 0 0 .79-.45l.38-.68v4.72l-5.27-2.6V8.63Zm4.45-2.9V2.18l4.61 2.19Zm-1 0L3 4.33l4.51-2.12Zm6.33 5-5.21 2.64-.06-6.43 5.27-2.59ZM.92 6.73a.14.14 0 0 1 0-.11l1-1.6 5.43 2.82-1 1.83L1 6.82a.11.11 0 0 1-.08-.09m13.84-.1V6l.43.67a.3.3 0 0 1 0 .09 4 4 0 0 1-.43-.13"/></defs><view id="enabled" viewBox="0 0 16 16"/><use href="#icon-def" style="--04:#7ccdc7"/><view id="hover" viewBox="16 0 16 16"/><use x="16" href="#icon-def" style="--04:#b0e0dd"/><view id="active" viewBox="32 0 16 16"/><use x="32" href="#icon-def" style="--04:#45b9b1"/><view id="disabled" viewBox="48 0 16 16"/><use x="48" href="#icon-def" style="--04:#3e3f42"/></svg>