<svg xmlns="http://www.w3.org/2000/svg" data-scheme="multicolor" viewBox="0 0 $width$ $height$"><defs><g id="icon-def"><path fill="var(--07)" d="M15.92 7.11v-2a1 1 0 0 0-1-1H10a1 1 0 0 0-1 1V15a1 1 0 0 0 1 1h5a1 1 0 0 0 1-1V7.11Zm-1-2v1H10v-1ZM10 15v-1h2v1Zm5 0h-2v-1h2Zm0-2h-5V7.11h5Z"/><path fill="var(--04)" d="M8 13.13H1.09v-9h7.17a2 2 0 0 1 1.71-1h4.11v-2a1 1 0 0 0-1-1h-12a1 1 0 0 0-1 1v11.92a1 1 0 0 0 1 1.08H8Zm-5.9-11h6v1h-6Z"/></g></defs><view id="enabled" viewBox="0 0 16 16"/><use href="#icon-def" style="--07:#f59065;--04:#7ccdc7"/><view id="hover" viewBox="16 0 16 16"/><use x="16" href="#icon-def" style="--07:#facebc;--04:#b0e0dd"/><view id="active" viewBox="32 0 16 16"/><use x="32" href="#icon-def" style="--07:#f37943;--04:#45b9b1"/><view id="disabled" viewBox="48 0 16 16"/><use x="48" href="#icon-def" style="--07:#3e3f42;--04:#3e3f42"/></svg>