<svg xmlns="http://www.w3.org/2000/svg" data-scheme="multicolor" viewBox="0 0 $width$ $height$"><defs><g id="icon-def"><path fill="var(--02)" d="M15 5H5a1 1 0 0 0-1 1v8.9A1 1 0 0 0 5 16h10a1 1 0 0 0 1-1.08V6a1 1 0 0 0-1-1m-3 2v1H6V7Zm3 7.92V15H5V9h10Z"/><path fill="var(--08)" d="M11 0H1a1 1 0 0 0-1 1v8.93A1 1 0 0 0 1 11h2v-1H1V4h11V1a1 1 0 0 0-1-1M8 3H2V2h6Z"/></g></defs><view id="enabled" viewBox="0 0 16 16"/><use href="#icon-def" style="--02:#9e9ecc;--08:#fab454"/><view id="hover" viewBox="16 0 16 16"/><use x="16" href="#icon-def" style="--02:#c4c4e1;--08:#fddfb4"/><view id="active" viewBox="32 0 16 16"/><use x="32" href="#icon-def" style="--02:#7979b8;--08:#f9a533"/><view id="disabled" viewBox="48 0 16 16"/><use x="48" href="#icon-def" style="--02:#3e3f42;--08:#3e3f42"/></svg>