<svg xmlns="http://www.w3.org/2000/svg" data-scheme="multicolor" viewBox="0 0 16 16"><defs><g id="icon-def"><path fill="var(--08)" d="M11 0H1a1 1 0 0 0-1 1v8.93A1 1 0 0 0 1 11h2v-1H1V4h11V1a1 1 0 0 0-1-1M8 3H2V2h6Z"/><path fill="var(--02)" d="M15.36 11.1h-.59l-.14.22h-.1l-.39-.32-.06-.18-.08-.2-.24-.22-.3-.06v.14l.28.28.14.16-.15.08h-.13l-.19-.08v-.16l-.25-.1-.08.36-.26.06v.2l.33.07.06-.33h.27l.13.08h.2l.14.27.37.38v.15h-.3l-.51.26-.37.44-.05.2H13l-.25-.12-.24.12.06.25.1-.12h.19v.22h.16l.15.17.25-.07h.28l.33.09h.17l.28.32.54.32-.35.66-.37.17-.14.38-.53.36-.06.21a3.12 3.12 0 0 0 1.85-4.75Zm-2.22 3.35-.23-.45.21-.43-.21-.06-.23-.23-.52-.12-.16-.33V13h-.07l-.45-.6V12l-.33-.53-.51.09h-.35l-.18-.12.23-.17h-.23a3.06 3.06 0 0 0-.42 1.56 3.1 3.1 0 0 0 3.1 3.11h.39v-.38s.14-.56.14-.58Zm-2.31-3.72.55-.08.26-.14.28.09h.46l.16-.25h.78l.15-.17.22-.14h.41a3.08 3.08 0 0 0-3.71.83Zm2.08-.73.32-.18.2.12-.29.22h-.28l-.13-.08Zm-.94 0 .14.06.19-.06.1.18-.43.11-.2-.12s.23-.07.23-.11ZM15 5H5a1 1 0 0 0-1 1v8.9A1 1 0 0 0 5 16h5.21a3.9 3.9 0 0 1-.89-1H5V9h10v.41a4 4 0 0 1 1 .91V6a1 1 0 0 0-1-1m-3 3H6V7h6Z"/></g></defs><view id="enabled" viewBox="0 0 16 16"/><use href="#icon-def" style="--08:#fab454;--02:#9e9ecc"/><view id="hover" viewBox="16 0 16 16"/><use x="16" href="#icon-def" style="--08:#fddfb4;--02:#c4c4e1"/><view id="active" viewBox="32 0 16 16"/><use x="32" href="#icon-def" style="--08:#f9a533;--02:#7979b8"/><view id="disabled" viewBox="48 0 16 16"/><use x="48" href="#icon-def" style="--08:#3e3f42;--02:#3e3f42"/></svg>