<svg viewBox="0 0 16 17" xmlns="http://www.w3.org/2000/svg" data-scheme="monochrome"><defs><g id="icon-def"><path stroke="var(--color)" stroke-linecap="square" stroke-linejoin="round" stroke-width="1.2" d="M9.156 1.533H1.778v14.311h11.555V5.8L9.156 1.533Z" fill="transparent"/><path fill="var(--color)" d="M6.311 11.222h2.756c.977 0 1.777.8 1.777 1.778v.8h-6.4V13c0-.978.8-1.778 1.867-1.778Zm1.245-.444a1.333 1.333 0 1 0 0-2.667 1.333 1.333 0 0 0 0 2.667Z"/></g></defs><view id="primary" viewBox="0 0 16 17"/><use href="#icon-def" x="0" y="0" style="--color:#2070CE"/><view id="primary-hover" viewBox="16 0 16 17"/><use href="#icon-def" x="16" y="0" style="--color:#437DC0"/><view id="primary-active" viewBox="32 0 16 17"/><use href="#icon-def" x="32" y="0" style="--color:#335884"/><view id="primary-disabled" viewBox="48 0 16 17"/><use href="#icon-def" x="48" y="0" style="--color:#B3B3B3"/><view id="on-primary" viewBox="64 0 16 17"/><use href="#icon-def" x="64" y="0" style="--color:#CCCCCC"/><view id="on-primary-hover" viewBox="80 0 16 17"/><use href="#icon-def" x="80" y="0" style="--color:#437DC0"/><view id="on-primary-active" viewBox="96 0 16 17"/><use href="#icon-def" x="96" y="0" style="--color:#363636"/><view id="on-disabled" viewBox="112 0 16 17"/><use href="#icon-def" x="112" y="0" style="--color:#7F7F7F"/><view id="neutral" viewBox="128 0 16 17"/><use href="#icon-def" x="128" y="0" style="--color:#616161"/></svg>