<svg viewBox="0 0 16 17" xmlns="http://www.w3.org/2000/svg" data-scheme="monochrome"><defs><g id="icon-def"><path stroke="var(--color)" stroke-miterlimit="10" stroke-width="1.2" d="M6.437 15.467c-.178 0-.267-.09-.267-.267l-.267-2.044c-.177-.09-.266-.178-.444-.178-.178-.09-.267-.178-.444-.267l-1.956.711c-.178.09-.267 0-.356-.089L.926 10.311c-.09-.089 0-.267.089-.355L2.703 8.71V7.644L1.015 6.4c-.09-.089-.09-.267-.09-.356l1.778-3.022c.09-.089.267-.178.356-.089l1.956.8c.177-.089.266-.177.444-.266.089-.09.267-.178.356-.267l.266-2.044c0-.178.178-.267.267-.267h3.467c.177 0 .266.089.266.267l.267 2.044c.178.089.267.178.444.178.178.089.267.178.445.266l1.955-.8c.178-.088.267 0 .356.09l1.778 3.022c.089.088 0 .266-.09.355l-1.688 1.245v1.066l1.689 1.245c.089.089.178.266.089.355l-1.778 3.022c-.089.09-.267.178-.356.09l-1.866-.8c-.178.088-.267.177-.445.266-.178.089-.266.178-.444.178L10.17 15.2c0 .178-.178.267-.267.267H6.437Zm1.6-4.534c.8 0 1.51-.266 2.044-.889.534-.533.89-1.244.89-2.044s-.268-1.511-.89-2.044c-.533-.534-1.244-.89-2.044-.89s-1.511.267-2.045.89a3.185 3.185 0 0 0-.8 2.133c0 .8.267 1.511.8 2.044.623.534 1.245.8 2.045.8Z" fill="transparent"/></g></defs><view id="primary" viewBox="0 0 16 17"/><use href="#icon-def" x="0" y="0" style="--color:#2070CE"/><view id="primary-hover" viewBox="16 0 16 17"/><use href="#icon-def" x="16" y="0" style="--color:#437DC0"/><view id="primary-active" viewBox="32 0 16 17"/><use href="#icon-def" x="32" y="0" style="--color:#335884"/><view id="primary-disabled" viewBox="48 0 16 17"/><use href="#icon-def" x="48" y="0" style="--color:#B3B3B3"/><view id="on-primary" viewBox="64 0 16 17"/><use href="#icon-def" x="64" y="0" style="--color:#CCCCCC"/><view id="on-primary-hover" viewBox="80 0 16 17"/><use href="#icon-def" x="80" y="0" style="--color:#437DC0"/><view id="on-primary-active" viewBox="96 0 16 17"/><use href="#icon-def" x="96" y="0" style="--color:#363636"/><view id="on-disabled" viewBox="112 0 16 17"/><use href="#icon-def" x="112" y="0" style="--color:#7F7F7F"/><view id="neutral" viewBox="128 0 16 17"/><use href="#icon-def" x="128" y="0" style="--color:#616161"/></svg>