<svg viewBox="0 0 17 16" xmlns="http://www.w3.org/2000/svg" data-scheme="monochrome"><defs><g id="icon-def"><path stroke="var(--color)" stroke-linecap="round" stroke-linejoin="round" stroke-width="1.2" d="m8.468.956 7.111 13.51c.09.178 0 .445-.267.445H1.18c-.178 0-.355-.267-.266-.444L8.023.956c.09-.09.356-.09.445 0Zm-.178 4.8v4.266" fill="transparent"/><path fill="var(--color)" d="M8.29 12.689a.711.711 0 1 0 0-1.422.711.711 0 0 0 0 1.422Z"/></g></defs><view id="primary" viewBox="0 0 17 16"/><use href="#icon-def" x="0" y="0" style="--color:#2070CE"/><view id="primary-hover" viewBox="17 0 17 16"/><use href="#icon-def" x="17" y="0" style="--color:#437DC0"/><view id="primary-active" viewBox="34 0 17 16"/><use href="#icon-def" x="34" y="0" style="--color:#335884"/><view id="primary-disabled" viewBox="51 0 17 16"/><use href="#icon-def" x="51" y="0" style="--color:#B3B3B3"/><view id="on-primary" viewBox="68 0 17 16"/><use href="#icon-def" x="68" y="0" style="--color:#CCCCCC"/><view id="on-primary-hover" viewBox="85 0 17 16"/><use href="#icon-def" x="85" y="0" style="--color:#437DC0"/><view id="on-primary-active" viewBox="102 0 17 16"/><use href="#icon-def" x="102" y="0" style="--color:#363636"/><view id="on-disabled" viewBox="119 0 17 16"/><use href="#icon-def" x="119" y="0" style="--color:#7F7F7F"/><view id="neutral" viewBox="136 0 17 16"/><use href="#icon-def" x="136" y="0" style="--color:#616161"/></svg>