<svg xmlns="http://www.w3.org/2000/svg" data-scheme="multicolor" viewBox="0 0 $width$ $height$"><defs><path id="icon-def" fill="var(--08)" d="M15.53 1.06H13V0h-1v1h-2V0H9v1H7V0H6v1H4V0H3v1H.53a.51.51 0 0 0-.5.5V2H0v13.52a.5.5 0 0 0 .5.5h15a.5.5 0 0 0 .5-.5v-14a.5.5 0 0 0-.47-.46M12 3.1h1V4h-1Zm-3 0h1V4H9Zm-3 0h1V4H6Zm-3 0h1V4H3ZM15 15H1V6h14Z"/></defs><view id="enabled" viewBox="0 0 16 16"/><use href="#icon-def" style="--08:#f7941d"/><view id="hover" viewBox="16 0 16 16"/><use x="16" href="#icon-def" style="--08:#fab454"/><view id="active" viewBox="32 0 16 16"/><use x="32" href="#icon-def" style="--08:#f3891b"/><view id="disabled" viewBox="48 0 16 16"/><use x="48" href="#icon-def" style="--08:#a4a5a6"/></svg>