<svg xmlns="http://www.w3.org/2000/svg" data-scheme="multicolor" viewBox="0 0 16 16"><defs><g id="icon-def"><path fill="var(--03)" d="M4 11.4v1H3v-1Zm-1-4v1h1v-1Zm0-4v1h1v-1Zm4.63 11H2a1 1 0 0 1-1-1v-3a1 1 0 0 1 .15-.5A1 1 0 0 1 1 9.42v-3a1 1 0 0 1 .16-.52A1 1 0 0 1 1 5.39v-3a1 1 0 0 1 1-1h12a1 1 0 0 1 1 1v3a1 1 0 0 1-.16.51 1 1 0 0 1 .16.52v2.15h-1V6.42H2v3h6a1.9 1.9 0 0 0-.33 1H2v3h5.66ZM2 5.39h12v-3H2Z"/><path fill="var(--04)" d="M14.16 11.41v.92h-3.67v-.92Zm0 1.84h-3.67v.91h3.67zM16 15.12v-4.63a.9.9 0 0 0-.9-.9H9.49a.9.9 0 0 0-.9.9v4.63a.9.9 0 0 0 .9.9h5.61a.9.9 0 0 0 .9-.9m-6.41-4.53H15V15H9.59Z"/></g></defs><view id="enabled" viewBox="0 0 16 16"/><use href="#icon-def" style="--03:#00746b;--04:#00a99d"/><view id="hover" viewBox="16 0 16 16"/><use x="16" href="#icon-def" style="--03:#009187;--04:#7ccdc7"/><view id="active" viewBox="32 0 16 16"/><use x="32" href="#icon-def" style="--03:#02645b;--04:#00998c"/><view id="disabled" viewBox="48 0 16 16"/><use x="48" href="#icon-def" style="--03:#a4a5a6;--04:#a4a5a6"/></svg>