<svg xmlns="http://www.w3.org/2000/svg" data-scheme="multicolor" viewBox="0 0 $width$ $height$"><defs><g id="icon-def"><path fill="var(--03)" d="M4.89 13v1h-1v-1Zm-1-4v1h1V9Zm12-2a.9.9 0 0 1-.17.51 1 1 0 0 1 .17.52v3a1 1 0 0 1-.16.5 1 1 0 0 1 .16.5v3a1 1 0 0 1-1 1h-12a1 1 0 0 1-1-1V12a1 1 0 0 1 .15-.5 1 1 0 0 1-.15-.5V8a1.06 1.06 0 0 1 .16-.52 1 1 0 0 1-.16-.51v-1a9 9 0 0 0 1 .5v.54h12v-3H11l.34-.39.5-.61h3.09a1 1 0 0 1 1 1Zm-1 5h-12v3h12Zm0-4h-12v3h12Z"/><path fill="var(--05)" d="M5.21 0C2.27 0-.11 3-.11 3s2.38 3 5.32 3 5.31-3 5.31-3-2.38-3-5.31-3m0 4.91a6.28 6.28 0 0 1-3.95-1.99 6.24 6.24 0 0 1 4-2 6.28 6.28 0 0 1 3.94 2 6.27 6.27 0 0 1-3.99 1.95Zm-.07-3.86A1.84 1.84 0 1 1 3.3 2.89a1.84 1.84 0 0 1 1.84-1.84"/></g></defs><view id="enabled" viewBox="0 0 16 16"/><use href="#icon-def" style="--03:#00746b;--05:#39b54a"/><view id="hover" viewBox="16 0 16 16"/><use x="16" href="#icon-def" style="--03:#009187;--05:#79cc81"/><view id="active" viewBox="32 0 16 16"/><use x="32" href="#icon-def" style="--03:#02645b;--05:#2fa640"/><view id="disabled" viewBox="48 0 16 16"/><use x="48" href="#icon-def" style="--03:#a4a5a6;--05:#a4a5a6"/></svg>