<svg xmlns="http://www.w3.org/2000/svg" data-scheme="multicolor" viewBox="0 0 $width$ $height$"><defs><g id="icon-def"><path fill="var(--03)" d="M3.87 13h1v1h-1Zm12-10v12a1 1 0 0 1-1 1h-12a1 1 0 0 1-1-1v-3a1 1 0 0 1 1-1h9.3V7h-9.3a1 1 0 0 1-1-1V3a1 1 0 0 1 1-1h12a1 1 0 0 1 1 1m-1 9h-12v3h12Zm0-6V3h-12v3zm-11-1h1V4h-1Z"/><path fill="var(--08)" d="M13 6H1a1 1 0 0 0-1 1v3a1 1 0 0 0 1 1h12a1 1 0 0 0 1-1V7a1 1 0 0 0-1-1M3 9H2V8h1Z"/></g></defs><view id="enabled" viewBox="0 0 16 16"/><use href="#icon-def" style="--03:#00746b;--08:#f7941d"/><view id="hover" viewBox="16 0 16 16"/><use x="16" href="#icon-def" style="--03:#009187;--08:#fab454"/><view id="active" viewBox="32 0 16 16"/><use x="32" href="#icon-def" style="--03:#02645b;--08:#f3891b"/><view id="disabled" viewBox="48 0 16 16"/><use x="48" href="#icon-def" style="--03:#a4a5a6;--08:#a4a5a6"/></svg>