<svg xmlns="http://www.w3.org/2000/svg" data-scheme="multicolor" viewBox="0 0 $width$ $height$"><defs><path id="icon-def" fill="var(--02)" d="m11.09 9.61.43-.37c1.07-.91 3.8-5 3.13-7.88-2.85-.67-7 2.06-7.87 3.12l-.38.44-2.66-.55L.2 7.91l3.54.7L4.4 8a2.77 2.77 0 0 0 1.07 2.59 2.74 2.74 0 0 0 2.56 1l-.66.67.71 3.53 3.53-3.53Zm-.31-4.35a1 1 0 0 1 0-1.41 1 1 0 0 1 1.42 0 1 1 0 0 1 0 1.41 1 1 0 0 1-1.42 0"/></defs><view id="enabled" viewBox="0 0 16 16"/><use href="#icon-def" style="--02:#605cab"/><view id="hover" viewBox="16 0 16 16"/><use x="16" href="#icon-def" style="--02:#9e9ecc"/><view id="active" viewBox="32 0 16 16"/><use x="32" href="#icon-def" style="--02:#484099"/><view id="disabled" viewBox="48 0 16 16"/><use x="48" href="#icon-def" style="--02:#a4a5a6"/></svg>