<svg xmlns="http://www.w3.org/2000/svg" data-scheme="multicolor" viewBox="0 0 $width$ $height$"><defs><path id="icon-def" fill="var(--02)" d="M5.08 12.5H3.9v-1.17h1.18Zm2.34-1.17H6.24v1.17h1.18Zm2.34 0H8.58v1.17h1.18Zm2.34 0h-1.18v1.17h1.18Zm2.4-7.16v11a1 1 0 0 1-1 1h-11a1 1 0 0 1-1-1v-14a1 1 0 0 1 1-1h8Zm-3-1h.59l-.59-.59Zm2 1h-2a1 1 0 0 1-1-1v-2h-8v14h11ZM5.08 5.33H3.9V6.5h1.18Zm2.34 0H6.24V6.5h1.18Zm2.34 0H8.58V6.5h1.18Zm2.34 0h-1.18V6.5h1.18Zm-7 2H3.9V8.5h1.18Zm2.34 0h-1.2V8.5h1.18Zm2.34 0h-1.2V8.5h1.18Zm2.34 0h-1.2V8.5h1.18Zm-7 2H3.9v1.17h1.18Zm2.34 0H6.24v1.17h1.18Zm2.34 0H8.58v1.17h1.18Zm2.34 0h-1.22v1.17h1.18Z"/></defs><view id="enabled" viewBox="0 0 16 16"/><use href="#icon-def" style="--02:#605cab"/><view id="hover" viewBox="16 0 16 16"/><use x="16" href="#icon-def" style="--02:#9e9ecc"/><view id="active" viewBox="32 0 16 16"/><use x="32" href="#icon-def" style="--02:#484099"/><view id="disabled" viewBox="48 0 16 16"/><use x="48" href="#icon-def" style="--02:#a4a5a6"/></svg>