<svg xmlns="http://www.w3.org/2000/svg" data-scheme="multicolor" viewBox="0 0 $width$ $height$"><defs><path id="icon-def" fill="var(--03)" d="M16 4.89v-2a1 1 0 0 0-1-1H8v-1a1 1 0 0 0-1-1H2a1 1 0 0 0-1 1v1a1 1 0 0 0-1 1v12a1 1 0 0 0 .61.92 1 1 0 0 0 .39.08h14a1 1 0 0 0 1-1zm-1 10H1v-10h14Zm0-11H1v-1h1v-2h5v2h8Z"/></defs><view id="enabled" viewBox="0 0 16 16"/><use href="#icon-def" style="--03:#00746b"/><view id="hover" viewBox="16 0 16 16"/><use x="16" href="#icon-def" style="--03:#009187"/><view id="active" viewBox="32 0 16 16"/><use x="32" href="#icon-def" style="--03:#02645b"/><view id="disabled" viewBox="48 0 16 16"/><use x="48" href="#icon-def" style="--03:#a4a5a6"/></svg>