<svg xmlns="http://www.w3.org/2000/svg" data-scheme="multicolor" viewBox="0 0 $width$ $height$"><defs><g id="icon-def"><path fill="var(--04)" d="M14.92 8v7h-6V8zm0-1h-6a1 1 0 0 0-1 1v7a1 1 0 0 0 1 1h6a1 1 0 0 0 1-1V8a1 1 0 0 0-1-1m-1 4h-4v1h4zm0-2h-4v1h4zm0 4h-4v1h4zm-9 2H1.17a.6.6 0 0 1-.09-.34V4.92h4.14a2 2 0 0 1 1.7-1h8a1.93 1.93 0 0 1 1 .28V1.3c0-.74-.45-1.34-1-1.34H1.07c-.54 0-1 .6-1 1.34v13.36c0 .74.45 1.34 1 1.34h4.15a2 2 0 0 1-.3-1M2.06 1.89H11v1H2.06Z"/><path fill="var(--07)" d="M16 6v2a1 1 0 0 0-1-1V6H7v9h1a1 1 0 0 0 1 1H7a1 1 0 0 1-1-1V6a1 1 0 0 1 1-1h8a1 1 0 0 1 1 1"/></g></defs><view id="enabled" viewBox="0 0 16 16"/><use href="#icon-def" style="--04:#00a99d;--07:#f26522"/><view id="hover" viewBox="16 0 16 16"/><use x="16" href="#icon-def" style="--04:#7ccdc7;--07:#f59065"/><view id="active" viewBox="32 0 16 16"/><use x="32" href="#icon-def" style="--04:#00998c;--07:#e75e1e"/><view id="disabled" viewBox="48 0 16 16"/><use x="48" href="#icon-def" style="--04:#a4a5a6;--07:#a4a5a6"/></svg>