<svg xmlns="http://www.w3.org/2000/svg" data-scheme="multicolor" viewBox="0 0 16 16"><defs><path id="icon-def" fill="var(--04)" d="M15.89 2.42a.29.29 0 0 0-.29-.28H8.93V.43a.29.29 0 0 0-.29-.29H.39V16h2V8.16H7.9v1.71a.29.29 0 0 0 .28.29h7.42a.29.29 0 0 0 .29-.29l-3-3.77ZM14 3.14l-1.9 2.33-.1.18H9V3.14Zm-6.1.51H2.39V1.14h5.54ZM2.39 7.16V4.65H7.9v2.51Zm11.61 2H8.9V6.65H12l.07.07Z"/></defs><view id="enabled" viewBox="0 0 16 16"/><use href="#icon-def" style="--04:#00a99d"/><view id="hover" viewBox="16 0 16 16"/><use x="16" href="#icon-def" style="--04:#7ccdc7"/><view id="active" viewBox="32 0 16 16"/><use x="32" href="#icon-def" style="--04:#00998c"/><view id="disabled" viewBox="48 0 16 16"/><use x="48" href="#icon-def" style="--04:#a4a5a6"/></svg>