<svg xmlns="http://www.w3.org/2000/svg" data-scheme="multicolor" viewBox="0 0 $width$ $height$"><defs><path id="icon-def" fill="var(--08)" d="M15.53 0h-15A.5.5 0 0 0 0 .5v15a.5.5 0 0 0 .5.5h15a.5.5 0 0 0 .5-.5V.5a.5.5 0 0 0-.47-.5M2 2h9v1H2Zm13 13H1V5h14ZM3.53 13.41h1v-.85h7v.85h1v-.85h.79v-1h-.79v-3h.79v-1h-.79v-.75h-1v.75h-7v-.75h-1v.75h-.78v1h.78v3h-.78v1h.78Zm1-4.85h7v3h-7Z"/></defs><view id="enabled" viewBox="0 0 16 16"/><use href="#icon-def" style="--08:#f7941d"/><view id="hover" viewBox="16 0 16 16"/><use x="16" href="#icon-def" style="--08:#fab454"/><view id="active" viewBox="32 0 16 16"/><use x="32" href="#icon-def" style="--08:#f3891b"/><view id="disabled" viewBox="48 0 16 16"/><use x="48" href="#icon-def" style="--08:#a4a5a6"/></svg>