<svg xmlns="http://www.w3.org/2000/svg" data-scheme="multicolor" viewBox="0 0 $width$ $height$"><defs><g id="icon-def"><path fill="var(--05)" d="M11 5v8H2V5h1v7h7V5ZM9 6H6v1h3ZM5 6H4v1h1Zm4 2H6v1h3ZM5 8H4v1h1Zm4 2H6v1h3Zm-4 0H4v1h1Z"/><path fill="var(--04)" d="M15.5 0H.5a.5.5 0 0 0-.5.5v15a.5.5 0 0 0 .5.5h15a.5.5 0 0 0 .5-.5V.5a.5.5 0 0 0-.5-.5M2 2h9v1H2Zm13 13H1V5h14Z"/></g></defs><view id="enabled" viewBox="0 0 16 16"/><use href="#icon-def" style="--05:#39b54a;--04:#00a99d"/><view id="hover" viewBox="16 0 16 16"/><use x="16" href="#icon-def" style="--05:#79cc81;--04:#7ccdc7"/><view id="active" viewBox="32 0 16 16"/><use x="32" href="#icon-def" style="--05:#2fa640;--04:#00998c"/><view id="disabled" viewBox="48 0 16 16"/><use x="48" href="#icon-def" style="--05:#a4a5a6;--04:#a4a5a6"/></svg>