<svg xmlns="http://www.w3.org/2000/svg" data-scheme="multicolor" viewBox="0 0 16 16"><defs><g id="icon-def"><path fill="var(--09)" d="M7.2 5.26H5.43A.28.28 0 0 1 5.16 5V3.23A.28.28 0 0 1 5.43 3H7.2a.28.28 0 0 1 .27.27V5a.28.28 0 0 1-.27.26M11 5V3.23a.27.27 0 0 0-.27-.23H9a.27.27 0 0 0-.27.27V5a.27.27 0 0 0 .27.26h1.76A.27.27 0 0 0 11 5M7.47 8.85V7.09a.28.28 0 0 0-.27-.27H5.43a.28.28 0 0 0-.27.27v1.76a.28.28 0 0 0 .27.27H7.2a.28.28 0 0 0 .27-.27m3.53 0V7.09a.27.27 0 0 0-.27-.27H9a.27.27 0 0 0-.27.27v1.76a.27.27 0 0 0 .27.27h1.76a.27.27 0 0 0 .24-.27m-3.53 3.87V11a.28.28 0 0 0-.27-.27H5.43a.28.28 0 0 0-.27.27v1.77a.28.28 0 0 0 .27.27H7.2a.28.28 0 0 0 .27-.32m.58 2.79a.14.14 0 0 1 0-.06A1.7 1.7 0 0 1 8 15H3.86a.19.19 0 0 1-.18-.19V1.19A.18.18 0 0 1 3.86 1h8.45a.18.18 0 0 1 .18.19v8.14h1V1.19A1.18 1.18 0 0 0 12.31 0H3.86a1.18 1.18 0 0 0-1.18 1.19v13.57A1.19 1.19 0 0 0 3.86 16h4.38a2.4 2.4 0 0 1-.19-.49"/><rect width="5.61" height="5.61" x="8.95" y="10.33" fill="var(--08)" rx="1.03"/></g></defs><view id="enabled" viewBox="0 0 16 16"/><use href="#icon-def" style="--09:#616164;--08:#f7941d"/><view id="hover" viewBox="16 0 16 16"/><use x="16" href="#icon-def" style="--09:#828385;--08:#fab454"/><view id="active" viewBox="32 0 16 16"/><use x="32" href="#icon-def" style="--09:#3e3f42;--08:#f3891b"/><view id="disabled" viewBox="48 0 16 16"/><use x="48" href="#icon-def" style="--09:#a4a5a6;--08:#a4a5a6"/></svg>