<svg xmlns="http://www.w3.org/2000/svg" data-scheme="multicolor" viewBox="0 0 $width$ $height$"><defs><path id="icon-def" fill="var(--04)" d="M15.77 14.76h-3a1.1 1.1 0 0 1-.48.9 1 1 0 0 1-.68.2 1.12 1.12 0 0 1-1-1.1h-3a3.5 3.5 0 0 1 .09-1.26 1.13 1.13 0 0 1 .54-.58.78.78 0 0 0 .44-.77v-1.46a3 3 0 0 1 2.18-2.94s.05 0 .08 0a.81.81 0 0 1 .3-1 .8.8 0 0 1 .94 0 .85.85 0 0 1 .25 1h.13a3 3 0 0 1 2.12 2.87v1.55a.76.76 0 0 0 .41.71 1.22 1.22 0 0 1 .68 1.12Zm-8.09-3.08H.94a.9.9 0 0 1-.9-.91V1.39a.9.9 0 0 1 .9-.91H15a.9.9 0 0 1 .9.91v9.38a.9.9 0 0 1-.23.59v-.72a4 4 0 0 0-.77-2.34V2.68L11.31 5.6a1.9 1.9 0 0 0-.63.25 1.87 1.87 0 0 0-.7.86L8.24 8.09a.54.54 0 0 1-.32.11.5.5 0 0 1-.31-.11L5.94 6.73l-4.29 3.95h6v1ZM1 1.5a.6.6 0 0 1 .19.1l6.73 5.45 6.75-5.46a.54.54 0 0 1 .24-.09zm0 8.38 4.16-3.79L1 2.73Z"/></defs><view id="enabled" viewBox="0 0 16 16"/><use href="#icon-def" style="--04:#00a99d"/><view id="hover" viewBox="16 0 16 16"/><use x="16" href="#icon-def" style="--04:#7ccdc7"/><view id="active" viewBox="32 0 16 16"/><use x="32" href="#icon-def" style="--04:#00998c"/><view id="disabled" viewBox="48 0 16 16"/><use x="48" href="#icon-def" style="--04:#a4a5a6"/></svg>