<svg xmlns="http://www.w3.org/2000/svg" data-scheme="multicolor" viewBox="0 0 16 16"><defs><g id="icon-def"><path fill="var(--02)" d="M12.31 12.59h3.42v3.33h-1v-1.55a4.48 4.48 0 0 1-3.26 1.4A4.55 4.55 0 0 1 7 11.9h1a3.55 3.55 0 0 0 6.13 1.69h-1.8Zm-2-3.6h-1.6A3.54 3.54 0 0 1 15 10.9h1a4.52 4.52 0 0 0-8.09-2.49V6.66h-1V10h3.43Z"/><path fill="var(--03)" d="M3.13 10.16v1h-1v-1Zm-1-4v1h1v-1Zm0-4v1h1v-1Zm4.17 11H1.1a1 1 0 0 1-1-1v-3a1 1 0 0 1 .15-.5 1 1 0 0 1-.15-.5v-3a.9.9 0 0 1 .16-.51 1 1 0 0 1-.16-.51v-3a1 1 0 0 1 1-1h12a1 1 0 0 1 1 1v3a1 1 0 0 1-.17.52.9.9 0 0 1 .17.51v1.18a6 6 0 0 0-1-.42v-.76h-12v3h4.81v1H1.1v3H6a5 5 0 0 0 .3 1Zm-5.2-9h12v-3h-12Z"/></g></defs><view id="enabled" viewBox="0 0 16 16"/><use href="#icon-def" style="--02:#605cab;--03:#00746b"/><view id="hover" viewBox="16 0 16 16"/><use x="16" href="#icon-def" style="--02:#9e9ecc;--03:#009187"/><view id="active" viewBox="32 0 16 16"/><use x="32" href="#icon-def" style="--02:#484099;--03:#02645b"/><view id="disabled" viewBox="48 0 16 16"/><use x="48" href="#icon-def" style="--02:#a4a5a6;--03:#a4a5a6"/></svg>