<svg xmlns="http://www.w3.org/2000/svg" data-scheme="multicolor" viewBox="0 0 $width$ $height$"><defs><path id="icon-def" fill="var(--04)" d="m15.78 4.44-1.15-1.85a.33.33 0 0 0-.27-.15H8.7a.39.39 0 0 0-.34.19L7.28 4.35a.83.83 0 0 0-.28.59v5H5.79V8.35a.9.9 0 0 0-.22-.56l-.65-1a.38.38 0 0 0-.32-.18H1.21a.43.43 0 0 0-.35.2l-.64 1a.9.9 0 0 0-.22.54v4.08a.85.85 0 0 0 .85.85h4.09a.85.85 0 0 0 .85-.85v-1.54H7v1.68a.85.85 0 0 0 .85.85h7.22a.85.85 0 0 0 .85-.85V4.94a.8.8 0 0 0-.14-.5m-11 7.84H1V8.5h3.79Zm6.21.14H8V9.25h3Zm0-4.17H8V5.08h3Zm4 4.17H12V9.25h3Zm0-4.17H12V5.08h3Z"/></defs><view id="enabled" viewBox="0 0 16 16"/><use href="#icon-def" style="--04:#00a99d"/><view id="hover" viewBox="16 0 16 16"/><use x="16" href="#icon-def" style="--04:#7ccdc7"/><view id="active" viewBox="32 0 16 16"/><use x="32" href="#icon-def" style="--04:#00998c"/><view id="disabled" viewBox="48 0 16 16"/><use x="48" href="#icon-def" style="--04:#a4a5a6"/></svg>