<svg xmlns="http://www.w3.org/2000/svg" data-scheme="multicolor" viewBox="0 0 16 16"><defs><g id="icon-def"><path fill="var(--07)" d="M12.53 3.39A5.27 5.27 0 0 0 3.28 3l4.84 4.81Z"/><path fill="var(--07)" d="M12.53 3.39A5.27 5.27 0 0 0 3.28 3l4.84 4.81Z"/><path fill="var(--08)" d="M8.12 7.81 3.28 3a5.24 5.24 0 0 0 2.19 7.49Z"/><path fill="var(--07)" d="M3.67 12.18a5.27 5.27 0 0 0 9.25.42L8.08 7.76Z"/><path fill="var(--04)" d="M3.67 12.18a5.27 5.27 0 0 0 9.25.42L8.08 7.76Z"/><path fill="var(--01)" d="m8.08 7.76 4.84 4.84a5.24 5.24 0 0 0-2.19-7.49Z"/></g></defs><view id="enabled" viewBox="0 0 16 16"/><use href="#icon-def" style="--08:#f7941d;--07:#f26522;--04:#00a99d;--01:#0266a0"/><view id="hover" viewBox="16 0 16 16"/><use x="16" href="#icon-def" style="--08:#fab454;--07:#f59065;--04:#7ccdc7;--01:#2088c2"/><view id="active" viewBox="32 0 16 16"/><use x="32" href="#icon-def" style="--08:#f3891b;--07:#e75e1e;--04:#00998c;--01:#004a81"/><view id="disabled" viewBox="48 0 16 16"/><use x="48" href="#icon-def" style="--08:#a4a5a6;--07:#a4a5a6;--04:#a4a5a6;--01:#a4a5a6"/></svg>