<svg xmlns="http://www.w3.org/2000/svg" data-scheme="multicolor" viewBox="0 0 16 16"><defs><g id="icon-def"><path fill="var(--08)" d="M16 7.87V6.05a.91.91 0 0 0-.91-.91h-4.57a.91.91 0 0 0-.91.91v9.1a.91.91 0 0 0 .91.91h4.55a.9.9 0 0 0 .91-.91V7.87Zm-.91-1.82V7h-4.57v-.95Zm-4.55 9.1v-.91h1.82v.91Zm4.55 0h-1.84v-.91h1.82Zm0-1.82h-4.57V7.87h4.55ZM11 .12H1a1 1 0 0 0-1 1V10a1 1 0 0 0 1 1.08h2v-1H1v-6h11v-3a1 1 0 0 0-1-.96m-3 3H2v-1h6Z"/><path fill="var(--01)" d="M8.79 16.09H5A1 1 0 0 1 4 15V6.09a1 1 0 0 1 1-1h3.75a1.9 1.9 0 0 0-.24.91v1.09H6v1h2.51v1H5v6h3.51a2 2 0 0 0 .28 1"/></g></defs><view id="enabled" viewBox="0 0 16 16"/><use href="#icon-def" style="--08:#f7941d;--01:#0266a0"/><view id="hover" viewBox="16 0 16 16"/><use x="16" href="#icon-def" style="--08:#fab454;--01:#2088c2"/><view id="active" viewBox="32 0 16 16"/><use x="32" href="#icon-def" style="--08:#f3891b;--01:#004a81"/><view id="disabled" viewBox="48 0 16 16"/><use x="48" href="#icon-def" style="--08:#a4a5a6;--01:#a4a5a6"/></svg>