<svg xmlns="http://www.w3.org/2000/svg" data-scheme="multicolor" viewBox="0 0 16 16"><defs><path id="icon-def" fill="var(--02)" d="M15 .33H1a1 1 0 0 0-1 1v14a1 1 0 0 0 1 1h14a1 1 0 0 0 1-1v-14a1 1 0 0 0-1-1m-4 2v1H2v-1Zm-10 13v-14 4h14v10Zm8-9h3v3H9Zm-1 1H4v7h7v-4H8Zm-3 6v-2h2v2Zm5-2v2H8v-2Zm-3-1H5v-2h2z"/></defs><view id="enabled" viewBox="0 0 16 16"/><use href="#icon-def" style="--02:#605cab"/><view id="hover" viewBox="16 0 16 16"/><use x="16" href="#icon-def" style="--02:#9e9ecc"/><view id="active" viewBox="32 0 16 16"/><use x="32" href="#icon-def" style="--02:#484099"/><view id="disabled" viewBox="48 0 16 16"/><use x="48" href="#icon-def" style="--02:#a4a5a6"/></svg>