<svg xmlns="http://www.w3.org/2000/svg" data-scheme="multicolor" viewBox="0 0 $width$ $height$"><defs><g id="icon-def"><path fill="var(--02)" d="M15.28 9.36h-.13l-.68.06-.19.3h-.14l-.54-.49-.08-.23-.11-.27-.34-.31-.4-.08v.19l.4.38.19.23-.26.09-.18-.05-.26-.11v-.21l-.35-.15-.11.5-.35.08v.28l.46.09.08-.45.37.06.18.1h.28l.19.39.51.51v.2l-.41-.05-.71.36-.51.61-.06.27H12l-.34-.16-.33.16.08.35.15-.17h.25v.32l.21.06.21.23.35-.09.39.06.45.12h.23L14 13l.74.44-.48.92-.5.23-.2.53-.73.48-.08.29a4.27 4.27 0 0 0 2.55-6.52ZM12.22 14l-.31-.57.29-.6-.29-.08-.32-.33-.71-.15-.23-.5V12h-.11l-.61-.82v-.69l-.45-.73-.71.13h-.48l-.24-.16.31-.24-.31.07A4.26 4.26 0 0 0 11.73 16a5 5 0 0 0 .54 0v-.51s.2-.77.2-.8-.25-.69-.25-.69M9.05 8.84l.76-.11.35-.19.39.12h.63l.21-.34.32.05.76-.07.21-.3.3-.2.42.07h.15A4.26 4.26 0 0 0 8.44 9Zm2.86-1 .44-.24.28.16-.41.31h-.38L11.66 8Zm-1.29 0 .19.08.25-.08.14.24-.58.15-.28-.16s.27-.07.28-.15Z"/><path fill="var(--05)" d="M7.64 15H1V5h14v2.61a5 5 0 0 1 1 1V.5a.5.5 0 0 0-.5-.5H.5a.5.5 0 0 0-.5.5v15a.5.5 0 0 0 .5.5h8.17a5.1 5.1 0 0 1-1.03-1M2 2h9v1H2Z"/></g></defs><view id="enabled" viewBox="0 0 16 16"/><use href="#icon-def" style="--02:#605cab;--05:#39b54a"/><view id="hover" viewBox="16 0 16 16"/><use x="16" href="#icon-def" style="--02:#9e9ecc;--05:#79cc81"/><view id="active" viewBox="32 0 16 16"/><use x="32" href="#icon-def" style="--02:#484099;--05:#2fa640"/><view id="disabled" viewBox="48 0 16 16"/><use x="48" href="#icon-def" style="--02:#a4a5a6;--05:#a4a5a6"/></svg>