<svg xmlns="http://www.w3.org/2000/svg" data-scheme="multicolor" viewBox="0 0 $width$ $height$"><defs><path id="icon-def" fill="var(--05)" d="M15.4.17H.4a.5.5 0 0 0-.5.5v15a.5.5 0 0 0 .5.5h15a.5.5 0 0 0 .5-.5v-15a.51.51 0 0 0-.5-.5m-13.5 2h9v1h-9Zm-1-1v3Zm14 14H.9v-10h14Zm-12-6h4v5h-4Zm0-1.5a.5.5 0 0 1 .5-.5h9a.51.51 0 0 1 .5.5.5.5 0 0 1-.5.5h-9a.5.5 0 0 1-.5-.5m5 1.5h5v1h-5Zm0 2h5v1h-5Zm0 2h5v1h-5Z"/></defs><view id="enabled" viewBox="0 0 16 16"/><use href="#icon-def" style="--05:#39b54a"/><view id="hover" viewBox="16 0 16 16"/><use x="16" href="#icon-def" style="--05:#79cc81"/><view id="active" viewBox="32 0 16 16"/><use x="32" href="#icon-def" style="--05:#2fa640"/><view id="disabled" viewBox="48 0 16 16"/><use x="48" href="#icon-def" style="--05:#a4a5a6"/></svg>