<svg xmlns="http://www.w3.org/2000/svg" data-scheme="multicolor" viewBox="0 0 16 16"><defs><g id="icon-def"><path fill="var(--03)" d="M15 6.19 13 8h1v3H2V8h5.75L6.56 7H2V4h4.85V3H2a1 1 0 0 0-1 1v3a.9.9 0 0 0 .17.51A1 1 0 0 0 1 8v3a1 1 0 0 0 .16.5A1 1 0 0 0 1 12v3a1 1 0 0 0 1 1h12a1 1 0 0 0 1-1v-3a1 1 0 0 0-.15-.5A1 1 0 0 0 15 11V8a1.06 1.06 0 0 0-.16-.52 1 1 0 0 0 .16-.55ZM14 15H2v-3h12Zm-.13-12H14a1 1 0 0 1 1 1h-1.13ZM4 13v1H3v-1Zm0-4v1H3V9Z"/><path fill="var(--05)" d="M12.88 1.06v4h2L10.36 9 5.84 5.08h2v-4Z"/></g></defs><view id="enabled" viewBox="0 0 16 16"/><use href="#icon-def" style="--03:#24a19a;--05:#a1daa5"/><view id="hover" viewBox="16 0 16 16"/><use x="16" href="#icon-def" style="--03:#7ec8c5;--05:#c6e8c8"/><view id="active" viewBox="32 0 16 16"/><use x="32" href="#icon-def" style="--03:#009088;--05:#7bcc81"/><view id="disabled" viewBox="48 0 16 16"/><use x="48" href="#icon-def" style="--03:#3e3f42;--05:#3e3f42"/></svg>