<svg xmlns="http://www.w3.org/2000/svg" data-scheme="multicolor" viewBox="0 0 16 16"><defs><path id="icon-def" fill="var(--04)" d="M15 3.94 11 0H2a1 1 0 0 0-1 1v14a1 1 0 0 0 1 1h12a1 1 0 0 0 1-1V4Zm-3-1.57.58.59H12ZM14 15H2V1h9v2a1 1 0 0 0 1 1h2Zm-2.5-8.94L8.69 8.87l2.81 2.82h-1.41L8 9.58l-2.1 2.11H4.46l2.81-2.82-2.81-2.81h1.41L8 8.17l2.1-2.12h1.4Z"/></defs><view id="enabled" viewBox="0 0 16 16"/><use href="#icon-def" style="--04:#7ccdc7"/><view id="hover" viewBox="16 0 16 16"/><use x="16" href="#icon-def" style="--04:#b0e0dd"/><view id="active" viewBox="32 0 16 16"/><use x="32" href="#icon-def" style="--04:#45b9b1"/><view id="disabled" viewBox="48 0 16 16"/><use x="48" href="#icon-def" style="--04:#3e3f42"/></svg>