<svg xmlns="http://www.w3.org/2000/svg" data-scheme="multicolor" viewBox="0 0 16 16"><defs><path id="icon-def" fill="var(--02)" d="M13.94.17h-12a2 2 0 0 0-2 2v12a2 2 0 0 0 2 2h12a2 2 0 0 0 2-2v-12a2 2 0 0 0-2-2m1 13.25v.75a1 1 0 0 1-1 1h-12a1 1 0 0 1-1-1v-12a1 1 0 0 1 1-1h12a1 1 0 0 1 1 1Zm-8-9.25a2 2 0 1 1-2-2 2 2 0 0 1 2 2m8 7.79v1.46l-14 .05v-1.9l3.29-3.1h.42l1.77 1.73 3.81-3.73h.42Z"/></defs><view id="enabled" viewBox="0 0 16 16"/><use href="#icon-def" style="--02:#9e9ecc"/><view id="hover" viewBox="16 0 16 16"/><use x="16" href="#icon-def" style="--02:#c4c4e1"/><view id="active" viewBox="32 0 16 16"/><use x="32" href="#icon-def" style="--02:#7979b8"/><view id="disabled" viewBox="48 0 16 16"/><use x="48" href="#icon-def" style="--02:#3e3f42"/></svg>