<svg xmlns="http://www.w3.org/2000/svg" data-scheme="multicolor" viewBox="0 0 16 16"><defs><path id="icon-def" fill="var(--02)" d="m14.72 3.22-.79-.79a2.53 2.53 0 0 0-3.58 0L8.42 4.36a2.54 2.54 0 0 0-.27 3.26l-.5.5a2.53 2.53 0 0 0-3.26.27l-1.93 1.92a2.56 2.56 0 0 0 0 3.59l.79.78a2.55 2.55 0 0 0 3.59 0l1.92-1.92A2.53 2.53 0 0 0 9 9.5l.53-.5a2.52 2.52 0 0 0 3.26-.26l1.93-1.94a2.53 2.53 0 0 0 0-3.58M8.5 11a1.55 1.55 0 0 1-.44 1.09L6.13 14A1.59 1.59 0 0 1 4 14l-.79-.79a1.53 1.53 0 0 1 0-2.17L5.1 9.09a1.52 1.52 0 0 1 1.08-.45 1.5 1.5 0 0 1 .73.22L5 10.74a.55.55 0 0 0 0 .77l.61.6a.53.53 0 0 0 .77 0l1.92-1.89a1.5 1.5 0 0 1 .2.78M14 6.1 12.08 8a1.54 1.54 0 0 1-1.81.23l1.88-1.87a.56.56 0 0 0 0-.78l-.6-.6a.56.56 0 0 0-.78 0l-1.88 1.9a1.52 1.52 0 0 1 .24-1.82l1.92-1.92a1.54 1.54 0 0 1 1.09-.45 1.5 1.5 0 0 1 1.08.45l.79.78A1.55 1.55 0 0 1 14 6.1M7 3.74c0 2.31-.39 2.69-.43 2.72s-.41.46-2.71.43a4.7 4.7 0 0 1-3.13-1.4 1.73 1.73 0 0 1 2.44-2.44A1.72 1.72 0 0 1 5.6.61 4.67 4.67 0 0 1 7 3.74"/></defs><view id="enabled" viewBox="0 0 16 16"/><use href="#icon-def" style="--02:#9e9ecc"/><view id="hover" viewBox="16 0 16 16"/><use x="16" href="#icon-def" style="--02:#c4c4e1"/><view id="active" viewBox="32 0 16 16"/><use x="32" href="#icon-def" style="--02:#7979b8"/><view id="disabled" viewBox="48 0 16 16"/><use x="48" href="#icon-def" style="--02:#3e3f42"/></svg>