<svg xmlns="http://www.w3.org/2000/svg" viewBox="0 0 16 16"><defs><path id="a" fill="var(--h)" d="M14.93 0H1.07c-.54 0-1 .6-1 1.33V14.7c0 .74.45 1.34 1 1.34h13.86c.54 0 1-.6 1-1.34V1.33C15.92.6 15.47 0 14.93 0M11 2.14v1H2.06v-1Zm3.92 12.56a.63.63 0 0 1-.09.34H1.17a.63.63 0 0 1-.09-.34V5h13.84ZM7 13.56h6v-7H3v7zm2-1H7v-2h2Zm3 0h-2v-2h2Zm-2-5h2v2h-2Zm-3 0h2v2H7Zm-3 0h2v2H4Zm0 5v-2h2v2Z"/></defs><view viewBox="0 0 16 16"/><use href="#a" style="--h:#f7941d"/><view viewBox="16 0 16 16"/><use x="16" href="#a" style="--h:#fab454"/><view viewBox="32 0 16 16"/><use x="32" href="#a" style="--h:#f3891b"/><view viewBox="48 0 16 16"/><use x="48" href="#a" style="--h:#a4a5a6"/></svg>