<svg xmlns="http://www.w3.org/2000/svg" viewBox="0 0 16 16"><defs><g id="a"><path fill="var(--c)" d="M3.87 13h1v1h-1Zm12-10v12a1 1 0 0 1-1 1h-12a1 1 0 0 1-1-1v-3a1 1 0 0 1 1-1h9.3V7h-9.3a1 1 0 0 1-1-1V3a1 1 0 0 1 1-1h12a1 1 0 0 1 1 1m-1 9h-12v3h12Zm0-6V3h-12v3zm-11-1h1V4h-1Z"/><path fill="var(--h)" d="M13 6H1a1 1 0 0 0-1 1v3a1 1 0 0 0 1 1h12a1 1 0 0 0 1-1V7a1 1 0 0 0-1-1M3 9H2V8h1Z"/></g></defs><view viewBox="0 0 16 16"/><use href="#a" style="--c:#00746b;--h:#f7941d"/><view viewBox="16 0 16 16"/><use x="16" href="#a" style="--c:#009187;--h:#fab454"/><view viewBox="32 0 16 16"/><use x="32" href="#a" style="--c:#02645b;--h:#f3891b"/><view viewBox="48 0 16 16"/><use x="48" href="#a" style="--c:#a4a5a6;--h:#a4a5a6"/></svg>