<svg xmlns="http://www.w3.org/2000/svg" viewBox="0 0 16 16"><defs><g id="a"><path fill="var(--c)" d="M3.5 4V3h-1v1Zm11-2a1 1 0 0 0-1-1h-12a1 1 0 0 0-1 1v3a1 1 0 0 0 .16.52A1 1 0 0 0 .5 6v3a1 1 0 0 0 .15.5.9.9 0 0 0-.15.5v3a1 1 0 0 0 1 1h7v-1h-7v-3h7V9h-7V6h6V5h-6V2h12v3h-1v1h1v1h1V6a1 1 0 0 0-.16-.52A1 1 0 0 0 14.5 5Zm-11 10v-1h-1v1Zm0-4V7h-1v1Z"/><path fill="var(--g)" d="M15.5 11V8h-3v1h-2V8h1V5h-3v3h1v6h3v1h3v-3h-3v1h-2v-3h2v1Zm-6-5h1v1h-1Z"/></g></defs><view viewBox="0 0 16 16"/><use href="#a" style="--c:#00746b;--g:#f26522"/><view viewBox="16 0 16 16"/><use x="16" href="#a" style="--c:#009187;--g:#f59065"/><view viewBox="32 0 16 16"/><use x="32" href="#a" style="--c:#02645b;--g:#e75e1e"/><view viewBox="48 0 16 16"/><use x="48" href="#a" style="--c:#a4a5a6;--g:#a4a5a6"/></svg>