<svg xmlns="http://www.w3.org/2000/svg" viewBox="0 0 16 16"><defs><g id="a"><path fill="var(--e)" d="M11 5v8H2V5h1v7h7V5ZM9 6H6v1h3ZM5 6H4v1h1Zm4 2H6v1h3ZM5 8H4v1h1Zm4 2H6v1h3Zm-4 0H4v1h1Z"/><path fill="var(--d)" d="M15.5 0H.5a.5.5 0 0 0-.5.5v15a.5.5 0 0 0 .5.5h15a.5.5 0 0 0 .5-.5V.5a.5.5 0 0 0-.5-.5M2 2h9v1H2Zm13 13H1V5h14Z"/></g></defs><view viewBox="0 0 16 16"/><use href="#a" style="--d:#00a99d;--e:#39b54a"/><view viewBox="16 0 16 16"/><use x="16" href="#a" style="--d:#7ccdc7;--e:#79cc81"/><view viewBox="32 0 16 16"/><use x="32" href="#a" style="--d:#00998c;--e:#2fa640"/><view viewBox="48 0 16 16"/><use x="48" href="#a" style="--d:#a4a5a6;--e:#a4a5a6"/></svg>