<svg xmlns="http://www.w3.org/2000/svg" width="32" height="32" fill="none" viewBox="0 0 32 32">
  <g clip-path="url(#a)">
    <path fill="#C0CCD9" d="M16 32.44a16.5 16.5 0 1 1 16.5-16.5A16.52 16.52 0 0 1 16 32.44Zm0-30a13.5 13.5 0 1 0 13.5 13.5A13.52 13.52 0 0 0 16 2.44Zm-1.4 18.44a.53.53 0 0 1-.27-.08l-6.56-4.22a.5.5 0 0 1 0-.84l6.56-4.22a.52.52 0 0 1 .7.185.51.51 0 0 1 .07.255v8.44a.51.51 0 0 1-.26.44.5.5 0 0 1-.24.04Zm7.54 0a.53.53 0 0 1-.27-.08l-6.56-4.22a.499.499 0 0 1 0-.84l6.56-4.22a.52.52 0 0 1 .7.185.51.51 0 0 1 .07.255v8.44a.51.51 0 0 1-.26.44.48.48 0 0 1-.24.04Z"/>
  </g>
</svg>