<svg xmlns="http://www.w3.org/2000/svg" width="32" height="32" fill="none" viewBox="0 0 32 32">
  <g clip-path="url(#a)">
    <path fill="#C0CCD9" d="M16.22 31.32a15.5 15.5 0 1 1 15.5-15.5 15.51 15.51 0 0 1-15.5 15.5Zm0-30a14.5 14.5 0 1 0 14.5 14.5 14.52 14.52 0 0 0-14.5-14.5Zm0 27a12.5 12.5 0 1 1 12.5-12.5 12.51 12.51 0 0 1-12.5 12.5Zm0-24a11.5 11.5 0 1 0 11.5 11.5 11.51 11.51 0 0 0-11.5-11.5Zm-1.44 16.44a.53.53 0 0 1-.27-.08L8 16.46a.5.5 0 0 1 0-.84l6.56-4.22a.49.49 0 0 1 .51 0 .48.48 0 0 1 .26.43v8.44a.51.51 0 0 1-.26.44.5.5 0 0 1-.29.05ZM9.14 16l5.14 3.31v-6.57L9.14 16Zm13.18 4.72a.53.53 0 0 1-.27-.08l-6.56-4.22a.499.499 0 0 1 0-.84l6.56-4.22a.49.49 0 0 1 .51 0 .48.48 0 0 1 .26.43v8.44a.51.51 0 0 1-.26.44.5.5 0 0 1-.24.09v-.04ZM16.68 16l5.14 3.31v-6.57L16.68 16Z"/>
  </g>
</svg>