<svg xmlns="http://www.w3.org/2000/svg" width="32" height="32" fill="none" viewBox="0 0 32 32">
  <g clip-path="url(#a)">
    <path fill="#C0CCD9" d="M16.09 31.54A15.5 15.5 0 1 1 31.59 16a15.521 15.521 0 0 1-15.5 15.54Zm0-30A14.5 14.5 0 1 0 30.59 16a14.52 14.52 0 0 0-14.5-14.46Zm6 23h-12A1.499 1.499 0 0 1 8.59 23V9a1.5 1.5 0 0 1 1.5-1.5h12a1.5 1.5 0 0 1 1.5 1.5v14a1.5 1.5 0 0 1-1.5 1.54Zm-12-16a.51.51 0 0 0-.5.5V23a.5.5 0 0 0 .5.5h12a.5.5 0 0 0 .5-.5V9a.5.5 0 0 0-.5-.5l-12 .04Zm1 5.5h10V13h-10v1.04Zm0 2h10V15h-10v1.04Zm0 2h10V17h-10v1.04Z"/>
  </g>
</svg>