<svg xmlns="http://www.w3.org/2000/svg" width="32" height="32" fill="none" viewBox="0 0 32 32">
  <g clip-path="url(#a)">
    <path fill="#C0CCD9" d="M16 31.64a15.5 15.5 0 1 1 15.5-15.5A15.51 15.51 0 0 1 16 31.64Zm0-30a14.5 14.5 0 1 0 14.5 14.5A14.52 14.52 0 0 0 16 1.64Zm0 27a12.5 12.5 0 1 1 12.5-12.5A12.52 12.52 0 0 1 16 28.64Zm0-24a11.5 11.5 0 1 0 11.5 11.5A11.51 11.51 0 0 0 16 4.64Zm-.69 20.09h-.12a.49.49 0 0 1-.37-.43l-1-9.08-5.57 4.05a.5.5 0 0 1-.7-.7l8.7-11.73a.51.51 0 0 1 .52-.19.53.53 0 0 1 .38.4l1.33 7.8 5.2-3.39a.5.5 0 0 1 .68.71l-8.69 12.34a.49.49 0 0 1-.41.22h.05Zm-1-10.94a.45.45 0 0 1 .2 0 .5.5 0 0 1 .3.4l.91 8.62 6.43-9.13-3.77 2.42a.49.49 0 0 1-.47 0 .52.52 0 0 1-.29-.37l-1.26-7.35-6 8.14 3.6-2.64a.5.5 0 0 1 .25-.09h.1Z"/>
  </g>
</svg>