<svg xmlns="http://www.w3.org/2000/svg" width="32" height="32" fill="none" viewBox="0 0 32 32">
  <g clip-path="url(#a)">
    <path fill="#C0CCD9" d="M15.91 31.64a15.5 15.5 0 1 1 15.5-15.5 15.51 15.51 0 0 1-15.5 15.5Zm0-30a14.5 14.5 0 1 0 14.5 14.5 14.52 14.52 0 0 0-14.5-14.5Zm-.69 23.09h-.12a.5.5 0 0 1-.38-.43l-1-9.08-5.51 4.05a.5.5 0 0 1-.7-.7l8.7-11.73a.51.51 0 0 1 .52-.19.53.53 0 0 1 .38.4l1.33 7.8 5.2-3.39a.5.5 0 0 1 .68.71l-8.69 12.34a.49.49 0 0 1-.41.22Zm-1.05-10.94a.45.45 0 0 1 .2 0 .5.5 0 0 1 .3.4l.91 8.62L22 13.72l-3.66 2.38a.49.49 0 0 1-.47 0 .52.52 0 0 1-.29-.37l-1.26-7.35-6 8.13 3.59-2.63a.55.55 0 0 1 .26-.09Z"/>
  </g>
</svg>