<svg xmlns="http://www.w3.org/2000/svg" width="32" height="32" fill="none" viewBox="0 0 32 32">
  <g clip-path="url(#a)">
    <path fill="#C0CCD9" d="M15.8 31.75a15.5 15.5 0 1 1 15.5-15.5 15.53 15.53 0 0 1-15.5 15.5Zm0-30a14.5 14.5 0 1 0 14.5 14.5 14.52 14.52 0 0 0-14.5-14.5Zm7 20a.46.46 0 0 1-.27-.09l-6.92-4.53-6.52 4.53a.51.51 0 0 1-.61 0 .5.5 0 0 1-.13-.6l6.8-14a.49.49 0 0 1 .44-.28A.53.53 0 0 1 16 7l7.21 14a.5.5 0 0 1-.11.6.55.55 0 0 1-.3.15ZM15.6 16a.53.53 0 0 1 .27.08l5.62 3.69-5.88-11.41-5.52 11.38 5.22-3.63a.52.52 0 0 1 .29-.11Z"/>
  </g>
</svg>