<svg xmlns="http://www.w3.org/2000/svg" width="32" height="32" fill="none" viewBox="0 0 32 32">
  <g clip-path="url(#a)">
    <path fill="#C0CCD9" d="M15.6 31.37a15.5 15.5 0 1 1 15.5-15.5 15.52 15.52 0 0 1-15.5 15.5Zm0-30a14.5 14.5 0 1 0 14.5 14.5 14.52 14.52 0 0 0-14.5-14.5Zm0 27a12.5 12.5 0 1 1 12.5-12.5 12.52 12.52 0 0 1-12.5 12.5Zm0-24a11.5 11.5 0 1 0 11.5 11.5 11.51 11.51 0 0 0-11.5-11.5Zm-7 17a.5.5 0 0 1-.45-.72l6.8-14a.49.49 0 0 1 .44-.28.45.45 0 0 1 .45.27l7.21 14a.5.5 0 0 1-.407.727.51.51 0 0 1-.313-.077l-6.92-4.54-6.52 4.53a.52.52 0 0 1-.29.09Zm6.8-5.72a.45.45 0 0 1 .27.08l5.62 3.68L15.41 8 9.89 19.37l5.22-3.63a.52.52 0 0 1 .29-.09Z"/>
  </g>
</svg>