<svg xmlns="http://www.w3.org/2000/svg" width="32" height="32" fill="none" viewBox="0 0 32 32">
  <g clip-path="url(#a)">
    <path fill="#C0CCD9" d="M15.92 31.39a15.5 15.5 0 1 1 15.5-15.5 15.53 15.53 0 0 1-15.5 15.5Zm0-30a14.5 14.5 0 1 0 14.5 14.5 14.52 14.52 0 0 0-14.5-14.5Zm0 27a12.5 12.5 0 1 1 12.5-12.5 12.52 12.52 0 0 1-12.5 12.5Zm0-24a11.5 11.5 0 1 0 11.5 11.5 11.51 11.51 0 0 0-11.5-11.5Zm-7 17a.49.49 0 0 1-.32-.12.52.52 0 0 1-.13-.6l6.8-14a.49.49 0 0 1 .44-.28.46.46 0 0 1 .45.27l7.21 14a.5.5 0 0 1-.11.6.5.5 0 0 1-.61 0l-6.92-4.53-6.52 4.57a.52.52 0 0 1-.29.09Z"/>
  </g>
</svg>