<svg xmlns="http://www.w3.org/2000/svg" width="32" height="32" fill="none" viewBox="0 0 32 32">
  <g clip-path="url(#a)">
    <path fill="#C0CCD9" d="M15.85 31.44a15.5 15.5 0 1 1 15.5-15.5 15.51 15.51 0 0 1-15.5 15.5Zm0-30a14.5 14.5 0 1 0 14.5 14.5 14.52 14.52 0 0 0-14.5-14.5Zm0 27a12.5 12.5 0 1 1 12.5-12.5 12.51 12.51 0 0 1-12.5 12.5Zm0-24a11.5 11.5 0 1 0 11.5 11.5 11.51 11.51 0 0 0-11.5-11.5Zm2.48 17.21a.45.45 0 0 1-.2 0 .49.49 0 0 1-.3-.46v-1.6H8.74a.469.469 0 0 1-.35-.15.51.51 0 0 1-.15-.35V13a.5.5 0 0 1 .5-.5h9.09v-1.56a.49.49 0 0 1 .3-.46.49.49 0 0 1 .54.1l5.52 5.1a.511.511 0 0 1 0 .74l-5.52 5.1a.5.5 0 0 1-.34.13Z"/>
  </g>
</svg>