<svg xmlns="http://www.w3.org/2000/svg" width="32" height="32" fill="none" viewBox="0 0 32 32">
  <g clip-path="url(#a)">
    <path fill="#C0CCD9" d="M15.77 31.75a15.5 15.5 0 1 1 15.5-15.5 15.53 15.53 0 0 1-15.5 15.5Zm0-30a14.5 14.5 0 1 0 14.5 14.5 14.52 14.52 0 0 0-14.5-14.5Zm0 27a12.5 12.5 0 1 1 12.5-12.5 12.52 12.52 0 0 1-12.5 12.5Zm0-24a11.5 11.5 0 1 0 11.5 11.5 11.51 11.51 0 0 0-11.5-11.5ZM18.25 22a.651.651 0 0 1-.2 0 .51.51 0 0 1-.3-.46v-1.69H8.67a.5.5 0 0 1-.5-.5V13.3a.5.5 0 0 1 .5-.5h9.08v-1.55a.51.51 0 0 1 .3-.46.49.49 0 0 1 .54.09L24.11 16a.509.509 0 0 1 0 .74l-5.52 5.11a.53.53 0 0 1-.34.15Zm-9.08-3.15h9.08a.5.5 0 0 1 .5.5v1l4.29-4-4.29-4v.91a.5.5 0 0 1-.5.5H9.17v5.09Z"/>
  </g>
</svg>