<svg xmlns="http://www.w3.org/2000/svg" width="32" height="32" fill="none" viewBox="0 0 32 32">
  <g clip-path="url(#a)">
    <path fill="#C0CCD9" d="M8.67 10.42a.54.54 0 0 0-.2-.1 1 1 0 0 1 .53-.17h14a1 1 0 0 1 .63.24h-.06l-7 6a.582.582 0 0 1-.85 0l-7.05-5.97Zm7.45 7.21a1.58 1.58 0 0 1-1.12-.47l-7-6v9a1 1 0 0 0 1 1h14a1 1 0 0 0 1-1v-8.79l-6.79 5.82a1.56 1.56 0 0 1-1.09.44Zm15.38-1.47A15.5 15.5 0 1 0 16 31.61a15.51 15.51 0 0 0 15.5-15.5v.05Zm-1 0A14.5 14.5 0 1 1 16 1.61a14.52 14.52 0 0 1 14.5 14.5v.05Zm-2 0A12.5 12.5 0 1 0 16 28.61a12.51 12.51 0 0 0 12.5-12.5v.05Zm-1 0A11.5 11.5 0 1 1 16 4.61a11.51 11.51 0 0 1 11.5 11.5v.05Z"/>
  </g>
</svg>