<svg xmlns="http://www.w3.org/2000/svg" width="32" height="32" fill="none" viewBox="0 0 32 32">
  <g clip-path="url(#a)">
    <path fill="#C0CCD9" d="M15.77 32.28a16.5 16.5 0 1 1 16.5-16.5 16.52 16.52 0 0 1-16.5 16.5Zm0-30a13.5 13.5 0 1 0 13.5 13.5 13.51 13.51 0 0 0-13.5-13.5Zm-7.1 8.14a.54.54 0 0 0-.2-.1 1 1 0 0 1 .53-.17h14a1 1 0 0 1 .63.24h-.06l-7 6a.58.58 0 0 1-.85 0l-7.05-5.97Zm7.45 7.21a1.58 1.58 0 0 1-1.12-.47l-7-6v9a1 1 0 0 0 1 1h14a1 1 0 0 0 1-1v-8.79l-6.79 5.82a1.56 1.56 0 0 1-1.09.44Z"/>
  </g>
</svg>