<svg xmlns="http://www.w3.org/2000/svg" width="32" height="32" fill="none" viewBox="0 0 32 32">
  <g clip-path="url(#a)">
    <path fill="#C0CCD9" d="M16 31.26a15.5 15.5 0 1 1 15.5-15.5A15.52 15.52 0 0 1 16 31.26Zm0-30a14.5 14.5 0 1 0 14.5 14.5A14.52 14.52 0 0 0 16 1.26Zm0 27a12.5 12.5 0 1 1 12.5-12.5A12.52 12.52 0 0 1 16 28.26Zm0-24a11.5 11.5 0 1 0 11.5 11.5A11.51 11.51 0 0 0 16 4.26Zm4.7 18.47h-9.4a.5.5 0 0 1-.48-.35l-2.9-8.94a.49.49 0 0 1 .18-.56l7.61-5.53a.51.51 0 0 1 .58 0l7.61 5.53a.49.49 0 0 1 .18.56l-2.9 8.94a.5.5 0 0 1-.51.35h.03Zm-9-1h8.68L23 13.48l-7-5.1-7 5.1 2.7 8.25Z"/>
  </g>
</svg>