<svg xmlns="http://www.w3.org/2000/svg" width="32" height="32" fill="none" viewBox="0 0 32 32">
  <g clip-path="url(#a)">
    <path fill="#C0CCD9" d="M15.78 31.57a15.5 15.5 0 1 1 15.5-15.5 15.53 15.53 0 0 1-15.5 15.5Zm0-30a14.5 14.5 0 1 0 14.5 14.5 14.52 14.52 0 0 0-14.5-14.5Zm0 27a12.5 12.5 0 1 1 12.5-12.5 12.52 12.52 0 0 1-12.5 12.5Zm0-24a11.5 11.5 0 1 0 11.5 11.5 11.51 11.51 0 0 0-11.5-11.5ZM20.48 23h-9.4a.5.5 0 0 1-.48-.35l-2.9-8.9a.5.5 0 0 1 .18-.56l7.61-5.53a.49.49 0 0 1 .59 0l7.61 5.53a.521.521 0 0 1 .18.56L21 22.69a.5.5 0 0 1-.52.31Z"/>
  </g>
</svg>