<svg xmlns="http://www.w3.org/2000/svg" width="32" height="32" fill="none" viewBox="0 0 32 32">
  <g clip-path="url(#a)">
    <path fill="#C0CCD9" d="M16 31.69a15.5 15.5 0 1 1 15.5-15.5A15.51 15.51 0 0 1 16 31.69Zm0-30a14.5 14.5 0 1 0 14.5 14.5A14.52 14.52 0 0 0 16 1.69Zm0 27a12.5 12.5 0 1 1 12.5-12.5A12.52 12.52 0 0 1 16 28.69Zm0-24a11.5 11.5 0 1 0 11.5 11.5A11.51 11.51 0 0 0 16 4.69Zm8 18H8a.49.49 0 0 1-.42-.24.48.48 0 0 1 0-.48l8-16a.52.52 0 0 1 .9 0l8 16a.48.48 0 0 1 0 .48.51.51 0 0 1-.48.24Z"/>
  </g>
</svg>