<svg xmlns="http://www.w3.org/2000/svg" width="32" height="32" fill="none" viewBox="0 0 32 32">
  <g clip-path="url(#a)">
    <path fill="#C0CCD9" d="M15.87 31.63a15.5 15.5 0 1 1 15.5-15.5 15.51 15.51 0 0 1-15.5 15.5Zm0-30a14.5 14.5 0 1 0 14.5 14.5 14.51 14.51 0 0 0-14.5-14.5Zm0 27a12.5 12.5 0 1 1 12.5-12.5 12.51 12.51 0 0 1-12.5 12.5Zm0-24a11.5 11.5 0 1 0 11.5 11.5 11.51 11.51 0 0 0-11.5-11.5Zm8 18h-16a.5.5 0 0 1-.43-.24.48.48 0 0 1 0-.48l8-16a.52.52 0 0 1 .89 0l8 16a.48.48 0 0 1-.46.72Zm-15.19-1h14.38L15.87 7.25 8.68 21.63Z"/>
  </g>
</svg>