<svg xmlns="http://www.w3.org/2000/svg" width="32" height="32" fill="none" viewBox="0 0 32 32">
  <g clip-path="url(#a)">
    <path fill="#C0CCD9" d="M15.89 31.63h-.3v-1h1.28l.07 1c-.36-.01-.7 0-1.05 0Zm-1.33-.06c-.34 0-.673-.04-1-.12l.15-1c.32.053.653.093 1 .12l-.15 1Zm3.44-.08-.13-1c.32 0 .64-.09.95-.16l.2 1c-.39.06-.73.12-1.02.16Zm-5.43-.23c-.34-.07-.67-.16-1-.26l.28-.95c.31.09.62.17.94.24l-.22.97Zm7.43-.17-.26-1c.31-.08.62-.18.93-.28l.32.94c-.35.14-.68.25-.99.34Zm-9.43-.41c-.32-.12-.64-.25-.95-.39l.4-.91c.287.133.587.253.9.36l-.35.94Zm11.39-.27-.39-.92c.29-.13.59-.26.87-.41l.46.89c-.34.16-.66.3-.97.44h.03Zm-13.3-.57c-.307-.16-.607-.33-.9-.51l.53-.85c.273.167.553.327.84.48l-.47.88Zm15.11-.36-.51-.86.82-.52.56.82c-.28.2-.57.38-.87.56ZM6.9 28.76c-.28-.2-.55-.41-.82-.63l.63-.77.77.59-.58.81Zm18.57-.45-.61-.78c.25-.2.5-.41.74-.63l.67.74c-.255.237-.522.46-.8.67Zm-20.16-.86c-.26-.23-.5-.48-.74-.73L5.3 26c.22.23.45.46.69.68l-.68.77ZM27 26.93l-.72-.7c.23-.23.44-.47.65-.71l.76.64c-.21.27-.44.52-.69.77Zm-23.12-1c-.21-.26-.42-.54-.62-.82l.81-.58c.19.26.38.52.59.77l-.78.63Zm24.46-.58-.81-.6c.19-.26.38-.52.55-.8l.84.55c-.17.3-.37.58-.57.86l-.01-.01ZM2.69 24.26c-.18-.29-.35-.59-.51-.89l.88-.47c.15.28.32.56.48.84l-.85.52Zm26.77-.64-.87-.48c.15-.28.3-.57.44-.86l.9.42c-.14.3-.3.62-.47.92ZM1.73 22.44c-.14-.32-.27-.653-.39-1l.94-.35c.113.313.233.613.36.9l-.91.45Zm28.61-.69-.93-.36c.11-.3.22-.6.32-.91l.95.3c-.1.33-.22.65-.34.97ZM1 20.5c-.1-.33-.19-.67-.26-1l1-.22c.067.32.147.63.24.93L1 20.5Zm30-.72-1-.23c.08-.31.14-.63.2-.95l1 .17c-.09.34-.2.68-.2 1.01ZM.57 18.48c0-.34-.1-.68-.12-1l1-.09c0 .32.04.653.12 1l-1 .09Zm30.74-.73-1-.1c0-.32.06-.64.07-1h1c-.01.42-.04.76-.07 1.1ZM.39 16.43v-1.04h1v.96l-1 .08Zm30-.72c0-.32 0-.64-.06-1l1-.09c0 .34.05.68.06 1l-1 .09ZM1.48 14.48l-1-.12c.04-.34.09-.673.15-1l1 .18c-.06.3-.11.62-.15.94Zm28.72-.69c-.05-.32-.11-.63-.18-.95l1-.22c.08.33.14.67.2 1l-1.02.17ZM1.83 12.58l-1-.25c.08-.33.18-.67.28-1l1 .31c-.073.307-.167.62-.28.94Zm27.94-.67c-.1-.31-.2-.61-.32-.91l.94-.36c.12.32.23.65.33 1l-.95.27ZM2.43 10.74l-.93-.37c.13-.32.27-.64.41-.95l.9.44c-.13.29-.26.58-.38.88Zm26.65-.64c-.13-.29-.28-.58-.43-.86l.88-.48c.16.3.32.61.46.93l-.91.41ZM3.26 9l-.87-.49c.17-.3.35-.59.54-.88l.83.55c-.17.27-.34.54-.5.82Zm24.9-.6c-.17-.27-.35-.54-.54-.8l.81-.6c.2.28.39.57.58.86l-.85.54Zm-23.84-1-.8-.6c.21-.28.43-.55.65-.81l.76.66c-.21.23-.42.48-.61.74v.01ZM27 6.84c-.2-.25-.42-.49-.64-.72l.72-.69c.24.25.47.5.69.77l-.77.64ZM5.59 5.93l-.72-.71c.25-.24.5-.48.76-.71l.66.75c-.24.22-.48.44-.7.67Zm20.1-.49c-.24-.22-.48-.43-.73-.63l.62-.81c.27.22.53.44.79.68l-.68.76ZM7 4.65l-.61-.79c.27-.21.55-.41.84-.61l.56.83c-.24.18-.5.37-.79.57Zm17.15-.42c-.26-.18-.53-.36-.81-.52l.52-.86c.3.18.59.37.87.56l-.58.82ZM8.64 3.57l-.5-.86a9.93 9.93 0 0 1 .91-.49l.44.89-.85.46Zm13.89-.33a9.519 9.519 0 0 0-.87-.42l.4-.91c.317.13.628.277.93.44l-.46.89Zm-12.16-.52L10 1.79c.32-.13.64-.25 1-.36l.32 1c-.32.05-.65.16-.95.29Zm10.39-.25c-.3-.11-.61-.21-.92-.3l.27-1c.34.1.67.2 1 .32l-.35.98ZM12.2 2.1l-.25-1c.33-.09.67-.17 1-.23l.18 1c-.3.13-.62.13-.93.23Zm6.71-.16-1-.17.15-1c.34 0 .68.11 1 .18l-.15.99Zm-4.81-.2L14 .75c.34-.05.68-.08 1-.1l.05 1c-.313.02-.63.05-.95.09Zm2.9-.07h-1v-1h1v1Zm-1.1 27v-1h1l.08 1c-.39-.06-.74-.04-1.09-.04l.01.04Zm-.45 0c-.35 0-.69 0-1-.08l.12-1c.32 0 .63.06 1 .07l-.12 1.01Zm2.55-.21-.16-1c.31 0 .63-.12.93-.2l.25 1c-.37.07-.71.14-1.02.2Zm-4.58-.08c-.34-.07-.68-.16-1-.26l.28-.95c.3.09.61.16.93.23l-.21.98ZM20 28l-.35-1c.3-.1.6-.22.89-.35l.41.91c-.32.14-.64.27-.95.44Zm-8.6-.16c-.32-.13-.64-.26-1-.42l.43-.89.88.38-.31.93Zm10.5-.69-.48-.88c.282-.148.556-.311.82-.49l.55.83c-.3.14-.6.32-.91.49l.02.05Zm-12.39-.27c-.3-.18-.59-.37-.87-.57l.58-.81c.26.18.53.36.8.52l-.51.86ZM23.62 26l-.62-.83c.25-.2.49-.41.73-.63l.68.74c-.26.23-.52.46-.79.72Zm-15.8-.28c-.27-.22-.52-.46-.77-.7l.71-.71c.22.23.46.44.7.65l-.64.76Zm17.32-1.13-.74-.68c.22-.23.42-.48.62-.73l.79.61c-.21.21-.44.49-.67.75v.05ZM6.35 24.2a9.986 9.986 0 0 1-.64-.82l.81-.58c.19.26.38.51.59.76l-.76.64Zm20.06-1.31-.84-.54c.17-.27.33-.55.48-.83l.88.47c-.16.31-.34.61-.52.9Zm-21.27-.38c-.18-.3-.34-.6-.5-.92l.9-.44c.14.29.3.57.46.85l-.86.51Zm22.24-1.46-.91-.39c.12-.3.23-.59.33-.9l.95.32c-.11.33-.23.65-.37.97Zm-23.15-.41c-.13-.33-.24-.66-.34-1l1-.28c.09.31.2.61.31.91l-.97.37ZM28 19.08l-1-.24c.07-.31.13-.62.18-.94l1 .15c.01.35-.06.69-.18 1.03Zm-24.4-.44c-.07-.34-.12-.68-.16-1l1-.12c0 .32.09.64.15 1l-.99.12ZM28.36 17l-1-.07V16h1v.15c.03.28.02.58 0 .85Zm-25-.45v-1.04l1 .05v.96l-1 .03ZM27.34 15a9.436 9.436 0 0 0-.13-.95l1-.18c.06.34.11.68.14 1l-1.01.13Zm-22.85-.37-1-.13c0-.35.1-.69.17-1l1 .21c-.08.29-.13.6-.17.92ZM27 13.15c-.08-.31-.18-.61-.28-.91l.94-.34c.11.33.22.66.31 1l-.97.25Zm-22.11-.4-.95-.29c.1-.33.21-.66.34-1l.93.37c-.12.32-.21.62-.32.92Zm21.46-1.4c-.13-.29-.27-.57-.43-.85l.87-.49c.172.302.33.612.47.93l-.91.41ZM5.6 11l-.89-.45c.16-.31.32-.61.5-.91l.86.52c-.17.25-.32.53-.47.84Zm19.81-1.3c-.18-.26-.37-.52-.57-.77l.78-.63c.221.27.428.55.62.84l-.83.56ZM6.6 9.35l-.8-.59c.2-.28.42-.55.64-.82l.76.66c-.207.267-.407.517-.6.75Zm17.61-1.16c-.22-.227-.45-.447-.69-.66l.67-.75c.26.227.51.467.75.72l-.73.69ZM7.86 7.9l-.7-.71c.242-.249.5-.483.77-.7l.64.77a8.78 8.78 0 0 0-.71.64Zm14.92-1c-.25-.19-.52-.37-.79-.54l.53-.85c.3.19.58.38.86.59l-.6.8ZM9.33 6.68l-.57-.82c.28-.2.58-.38.88-.56l.5.87c-.28.16-.55.33-.81.51Zm11.83-.78c-.28-.14-.57-.28-.87-.4l.39-.92c.32.13.63.28.94.44l-.46.88ZM11 5.72l-.43-.9c.32-.15.64-.28 1-.41l.35.94c-.35.11-.64.24-.92.37Zm8.4-.55c-.3-.09-.61-.18-.92-.25l.22-1c.34.07.68.17 1 .27l-.3.98Zm-6.61-.12-.27-1c.34-.09.67-.17 1-.24l.19 1c-.31.08-.62.19-.93.24h.01Zm4.75-.3c-.31 0-.63-.08-1-.1l.05-1c.35 0 .7.06 1 .1l-.05 1Zm-2.87-.06-.1-1c.34 0 .68-.06 1-.07v1c-.287.013-.59.037-.91.07h.01Zm9.23 17.94h-16a.52.52 0 0 1-.43-.24.51.51 0 0 1 0-.48l8-16a.52.52 0 0 1 .9 0l8 16a.51.51 0 0 1 0 .48.52.52 0 0 1-.48.24h.01Zm-15.19-1h14.37L15.89 7.25 8.71 21.63Z"/>
  </g>
</svg>