<svg xmlns="http://www.w3.org/2000/svg" width="32" height="32" fill="none" viewBox="0 0 32 32">
  <g clip-path="url(#a)">
    <path fill="#C0CCD9" d="M15.71 31.62a15.5 15.5 0 1 1 15.5-15.5 15.52 15.52 0 0 1-15.5 15.5Zm0-30a14.5 14.5 0 1 0 14.5 14.5 14.52 14.52 0 0 0-14.5-14.5Zm0 24a9.5 9.5 0 1 1 9.5-9.5 9.51 9.51 0 0 1-9.5 9.5Zm0-18a8.5 8.5 0 1 0 8.5 8.5 8.51 8.51 0 0 0-8.5-8.5Zm.5 8.5v-4a.5.5 0 0 0-1 0v4a.5.5 0 0 0 1 0Zm4 0a.5.5 0 0 0-.5-.5h-4a.5.5 0 0 0 0 1h4a.5.5 0 0 0 .5-.49v-.01Zm2.94 0a.5.5 0 0 0-.5-.5h-1a.5.5 0 0 0-.5.5.51.51 0 0 0 .5.5h1a.5.5 0 0 0 .5-.49v-.01Zm-13 0a.5.5 0 0 0-.5-.5h-1a.5.5 0 0 0-.5.5.51.51 0 0 0 .5.5h1a.5.5 0 0 0 .5-.49v-.01Zm6 6.93v-1a.5.5 0 1 0-1 0v1a.51.51 0 0 0 .5.5.5.5 0 0 0 .55-.49l-.05-.01Zm0-13v-1a.5.5 0 1 0-1 0v1a.51.51 0 0 0 .5.5.5.5 0 0 0 .55-.49l-.05-.01Z"/>
  </g>
</svg>