<svg xmlns="http://www.w3.org/2000/svg" data-scheme="multicolor" viewBox="0 0 16 16"><defs><path id="icon-def" fill="var(--05)" d="M11.87 8.05A3.73 3.73 0 0 1 9 11.68l.07-.25.65-.43.17-.46.44-.21.42-.8-.65-.38-.34-.39h-.19l-.4-.11-.34-.05-.3.08-.19-.2-.18-.06v-.28H8l-.12.14L7.75 8 8 7.85l.3.13h.2l.06-.23.44-.54.62-.31h.36v-.17l-.45-.45L9.41 6h-.25L9 5.89h-.33l-.07.39-.4-.07v-.25l.31-.07.1-.43.3.12v.19l.23.09.16.05.19-.1-.17-.2L9 5.23v-.17l.36.07.29.27.1.24.06.22.48.43h.12l.17-.27.6-.06h.11a3.7 3.7 0 0 1 .58 2.09M8.56 10l-.27-.5.25-.5-.25-.1L8 8.62l-.62-.14-.21-.43v.26h-.08l-.54-.73V7l-.39-.64-.62.12h-.42l-.22-.16.27-.22-.27.07a3.74 3.74 0 0 0 3.23 5.62q.234.015.47 0v-.46s.17-.67.17-.69-.21-.64-.21-.64M5.78 5.52l.67-.1.3-.16.35.09h.55L7.83 5h.95L9 4.81l.26-.18.37.06h.13a3.7 3.7 0 0 0-1.59-.36 3.72 3.72 0 0 0-2.92 1.34z"/></defs><view id="enabled" viewBox="0 0 16 16"/><use href="#icon-def" style="--05:#39b54a"/><view id="hover" viewBox="16 0 16 16"/><use x="16" href="#icon-def" style="--05:#79cc81"/><view id="active" viewBox="32 0 16 16"/><use x="32" href="#icon-def" style="--05:#2fa640"/><view id="disabled" viewBox="48 0 16 16"/><use x="48" href="#icon-def" style="--05:#a4a5a6"/></svg>