<svg xmlns="http://www.w3.org/2000/svg" width="32" height="32" fill="none" viewBox="0 0 32 32">
  <g clip-path="url(#a)">
    <path fill="#C0CCD9" d="M16 31.53h-.3v-1H17l.07 1c-.41-.01-.76 0-1.07 0Zm-1.33-.06c-.35 0-.69-.07-1-.12l.15-1c.32.053.653.093 1 .12l-.15 1Zm3.33-.08-.13-1c.32 0 .64-.09 1-.16l.19 1c-.35.06-.69.12-1.06.16Zm-5.42-.23c-.34-.07-.67-.16-1-.25l.28-1c.307.093.617.173.93.24l-.21 1.01Zm7.47-.16-.26-1c.31-.08.62-.18.92-.28l.33.94c-.33.13-.66.24-.99.34Zm-9.44-.41c-.32-.12-.64-.25-.95-.39l.41-.91c.29.13.59.25.89.36l-.35.94ZM22 30.31l-.39-.92c.3-.13.59-.26.88-.41l.45.89c-.31.13-.62.3-.94.44Zm-13.27-.57c-.3-.16-.6-.33-.89-.51l.52-.85c.28.173.56.333.84.48l-.47.88Zm15.12-.36-.51-.86c.28-.17.55-.34.81-.52l.57.82c-.29.18-.58.38-.87.56ZM7 28.66c-.28-.2-.56-.41-.82-.63l.63-.77.77.59-.58.81Zm18.57-.45-.62-.78c.25-.2.5-.41.74-.63l.67.74c-.28.24-.54.46-.81.67h.02Zm-20.19-.86c-.25-.23-.5-.48-.73-.73l.73-.68c.22.23.45.46.68.68l-.68.73Zm21.7-.52-.71-.7c.22-.23.44-.47.65-.71l.76.64c-.22.27-.46.52-.7.77ZM4 25.84c-.22-.26-.43-.54-.63-.82l.81-.58c.19.27.39.52.59.77l-.77.63Zm24.45-.58-.8-.6c.19-.26.37-.52.55-.79l.84.54c-.22.29-.41.59-.62.85h.03Zm-25.68-1.1c-.18-.29-.35-.59-.51-.89l.88-.47c.153.28.313.56.48.84l-.85.52Zm26.77-.64-.88-.52c.16-.28.3-.57.44-.86l.91.42c-.15.35-.31.66-.47.96ZM1.8 22.34c-.14-.32-.27-.653-.39-1l.94-.34c.107.306.23.607.37.9l-.92.44Zm28.61-.69-.93-.36c.12-.3.22-.6.32-.91l.95.3c-.1.32-.21.65-.34.97ZM1.09 20.4c-.1-.33-.18-.67-.26-1l1-.22c.07.32.15.63.24.94l-.98.28ZM31 19.68l-1-.23c.08-.31.14-.63.19-.95l1 .17a3.6 3.6 0 0 1-.19 1.01ZM.64 18.38c-.053-.34-.093-.673-.12-1l1-.09c0 .32.06.64.11 1l-.99.09Zm30.74-.73-1-.1c0-.32.05-.64.06-1h1c0 .45-.02.76-.06 1.1ZM.47 16.33v-1.07l1 .05v.96l-1 .06Zm30-.71c0-.33 0-.65-.06-1l1-.09c0 .34.05.68.06 1l-1 .09ZM1.56 14.38l-1-.12c0-.34.09-.68.16-1l1 .18c-.08.3-.13.62-.16.94Zm28.72-.69c-.06-.32-.12-.63-.19-.95l1-.22c.08.33.15.67.2 1l-1.01.17ZM1.9 12.48l-1-.25c.09-.33.18-.66.29-1l1 .31c-.127.307-.223.62-.29.94Zm27.94-.67c-.09-.31-.2-.61-.31-.91l.94-.36c.12.32.23.65.33 1l-.96.27ZM2.5 10.64l-.93-.37c.13-.32.27-.64.42-.95l.9.44c-.14.29-.27.58-.39.88ZM29.16 10c-.14-.29-.28-.58-.44-.86l.89-.48c.16.3.31.61.46.93l-.91.41ZM3.34 8.9l-.88-.49c.17-.3.35-.59.54-.88l.84.55c-.18.27-.35.54-.5.82Zm24.9-.6c-.17-.27-.35-.54-.54-.8l.8-.59c.21.28.4.57.58.86l-.84.53Zm-23.85-1-.79-.6c.21-.28.42-.55.65-.81l.75.65c-.21.24-.41.46-.61.75v.01Zm22.71-.56c-.21-.25-.42-.49-.64-.72l.72-.69c.24.25.47.5.69.77l-.77.64ZM5.66 5.83 5 5.12c.24-.24.49-.48.75-.71l.66.75-.75.67Zm20.11-.49c-.24-.22-.49-.43-.74-.63l.63-.78c.27.22.53.44.78.68l-.67.73ZM7.11 4.55l-.61-.79c.27-.21.55-.41.83-.61l.56.85a8.7 8.7 0 0 0-.78.55Zm17.15-.42c-.26-.18-.53-.36-.81-.52l.55-.86.86.56-.6.82ZM8.71 3.47l-.5-.86c.3-.18.6-.34.91-.49l.44.88-.85.47Zm13.9-.33c-.29-.15-.58-.29-.88-.42l.41-.91c.31.13.62.28.93.44l-.46.89Zm-12.16-.52-.38-.93c.31-.13.64-.25 1-.36l.32.95c-.34.1-.65.22-.94.34Zm10.39-.25c-.3-.11-.61-.21-.92-.3l.27-1c.33.1.66.2 1 .32l-.35.98ZM12.28 2 12 1c.33-.09.67-.17 1-.23l.19 1c-.29.08-.6.15-.91.23ZM19 1.84l-1-.17.14-1c.34 0 .68.11 1 .19l-.14.98Zm-4.81-.2-.12-1c.34-.05.68-.08 1-.1l.06 1c-.32.03-.64.06-.96.1h.02Zm2.9-.07h-1v-1h1v1Zm5.22 22.66h-12a1.5 1.5 0 0 1-1.5-1.5v-14a1.5 1.5 0 0 1 1.5-1.5h12a1.5 1.5 0 0 1 1.5 1.5v14a1.51 1.51 0 0 1-1.52 1.5h.02Zm-12-16a.5.5 0 0 0-.5.5v14a.5.5 0 0 0 .5.5h12a.51.51 0 0 0 .5-.5v-14a.5.5 0 0 0-.5-.5h-12Zm1 5.5h10v-1h-10v1Zm0 2h10v-1h-10v1Zm0 2h10v-1h-10v1Z"/>
  </g>
</svg>