<svg xmlns="http://www.w3.org/2000/svg" width="16" height="16" fill="none" viewBox="0 0 16 16">
  <g class="grid" clip-path="url(#a)">
    <g class="grid">
      <path fill="#999" fill-rule="evenodd" d="M15.15 7.31H6.48a.85.85 0 0 0-.86.85v6.91a.85.85 0 0 0 .86.86h8.67a.85.85 0 0 0 .85-.86V8.16a.85.85 0 0 0-.85-.85Zm-.15 1v1.5H6.62v-1.5H15Zm0 2.5v1.57H6.62v-1.57H15Zm-8.38 4.12v-1.55H15v1.55H6.62Zm1.15-5.62h-.53v-.53h.53v.53Zm0 2.57h-.53v-.53h.53v.53Zm0 2.54h-.53v-.53h.53v.53Z" class="icons09" clip-rule="evenodd"/>
      <path fill="#0266A0" d="M4.62 12H1V9.06h3.62v-1H1V5h6.5v1.31h1V5H15v1.31h.19c.28.001.558.066.81.19V.91a.86.86 0 0 0-.85-.86H.89A.86.86 0 0 0 0 .91v11.21a.86.86 0 0 0 .89.88h3.73v-1ZM8.5 1.05H15V4H8.5V1.05Zm-7.5 0h6.5V4H1V1.05Z" class="icons01"/>
    </g>
  </g>
</svg>