<svg xmlns="http://www.w3.org/2000/svg" width="16" height="16" fill="none" viewBox="0 0 16 16">
  <g class="pop-up" clip-path="url(#a)">
    <g class="pop-up">
      <path fill="#999" fill-rule="evenodd" d="M15.5 0H.5a.5.5 0 0 0-.5.5v15a.5.5 0 0 0 .5.5h15a.5.5 0 0 0 .5-.5V.5a.5.5 0 0 0-.5-.5ZM2 2h9v1H2V2ZM1 15V5h14v10H1Z" class="icons09" clip-rule="evenodd"/>
      <path fill="#0266A0" d="m9.65 9.65 1.14-1.15-1.14-1.15.7-.7 1.15 1.14 1.15-1.14.7.7-1.14 1.15 1.14 1.15-.7.7-1.15-1.14-1.15 1.14-.7-.7ZM15 5v10H1V5h14Zm-1 1H2v8h12V6Z" class="icons01"/>
    </g>
  </g>
</svg>