<svg xmlns="http://www.w3.org/2000/svg" width="16" height="16" fill="none" viewBox="0 0 16 16">
  <g class="tab-page" clip-path="url(#a)">
    <g class="tab-page">
      <path fill="#999" fill-rule="evenodd" d="M14 3.39v2.22a.38.38 0 0 1-.39.39H2.39A.38.38 0 0 1 2 5.61V3.39A.38.38 0 0 1 2.39 3h11.22a.38.38 0 0 1 .39.39ZM2 7v6h4V7H2Zm5 0v6h7V7H7Z" class="icons09" clip-rule="evenodd"/>
      <path fill="#0266A0" d="M15 0H1a1 1 0 0 0-1 1v14a1 1 0 0 0 1 1h14a1 1 0 0 0 1-1V1a1 1 0 0 0-1-1Zm0 15H1V1h14v14Z" class="icons01"/>
    </g>
  </g>
</svg>