<svg xmlns="http://www.w3.org/2000/svg" data-scheme="multicolor" viewBox="0 0 16 16"><defs><g id="icon-def"><path fill="var(--04)" d="M1.88 4.18h7.51a1.9 1.9 0 0 1 .94-.26h4.55V1.05A.87.87 0 0 0 14 .18H1.75a.87.87 0 0 0-.87.87V9.1h1zm1-2h6v1h-6zm5.54 12H5.61l.92-1h1.89z"/><path fill="var(--02)" d="M3.59 14.9v-1.74H.08V10.1h3.51V8.37l3 3.26zm12.2-7.25v7.26a.91.91 0 0 1-.91.91h-4.55a.91.91 0 0 1-.91-.91V5.83a.91.91 0 0 1 .91-.91h4.55a.91.91 0 0 1 .91.91zm-5.46-1.82v.91h4.55v-.91zm1.82 9.11V14h-1.82v.91zm2.73-.94h-1.82v.91h1.82zm0-6.38h-4.55v5.47h4.55z"/></g></defs><view id="enabled" viewBox="0 0 16 16"/><use href="#icon-def" style="--04:#00a99d;--02:#605cab"/><view id="hover" viewBox="16 0 16 16"/><use x="16" href="#icon-def" style="--04:#7ccdc7;--02:#9e9ecc"/><view id="active" viewBox="32 0 16 16"/><use x="32" href="#icon-def" style="--04:#00998c;--02:#484099"/><view id="disabled" viewBox="48 0 16 16"/><use x="48" href="#icon-def" style="--04:#a4a5a6;--02:#a4a5a6"/></svg>