<svg xmlns="http://www.w3.org/2000/svg" data-scheme="multicolor" viewBox="0 0 16 16"><defs><path id="icon-def" fill="var(--02)" d="M7 15h-.41v-1H7v-1H1.62V3.11h9v5.46h1V1.11a1 1 0 0 0-1-1h-9a1 1 0 0 0-1 1V15a1 1 0 0 0 1 1h5.6a1.86 1.86 0 0 1-.22-.9zM1.62 1.12h9v1h-9zM5.6 15h-4v-1h4zm5.3-.88h-1v-.92h1zm3.57-4.58h-5.6a.91.91 0 0 0-.91.9v4.66a.9.9 0 0 0 .91.9h5.6a.9.9 0 0 0 .91-.9v-4.63a.91.91 0 0 0-.91-.9zM14.38 15H9v-4.43h5.42zm-3.48-2.69h-1v-.92h1zm1 .92h1.64v.92H11.9zm0-1.84h1.64v.92H11.9z"/></defs><view id="enabled" viewBox="0 0 16 16"/><use href="#icon-def" style="--02:#605cab"/><view id="hover" viewBox="16 0 16 16"/><use x="16" href="#icon-def" style="--02:#9e9ecc"/><view id="active" viewBox="32 0 16 16"/><use x="32" href="#icon-def" style="--02:#484099"/><view id="disabled" viewBox="48 0 16 16"/><use x="48" href="#icon-def" style="--02:#a4a5a6"/></svg>