<svg xmlns="http://www.w3.org/2000/svg" data-scheme="multicolor" viewBox="0 0 16 16"><defs><path id="icon-def" fill="var(--05)" d="m15.73 6-1.89-1.86a.91.91 0 0 0-1.29 0l-6.17 6.17a.52.52 0 0 0-.18.28l-.86 3.92 3.91-.86a.5.5 0 0 0 .27-.14l6.18-6.18A.91.91 0 0 0 15.73 6m-9.17 7.28.34-1.54a17 17 0 0 0 1.2 1.2zm.71-2.54 4.85-4.86L14 7.74 9.13 12.6a15.6 15.6 0 0 1-1.86-1.86m5.93-5.93 1.86 1.86-.41.41-1.86-1.86zM15.73 6l-1.89-1.86a.91.91 0 0 0-1.29 0l-6.17 6.17a.52.52 0 0 0-.18.28l-.86 3.92 3.91-.86a.5.5 0 0 0 .27-.14l6.18-6.18A.91.91 0 0 0 15.73 6m-9.17 7.28.34-1.54a17 17 0 0 0 1.2 1.2zm.71-2.54 4.85-4.86L14 7.74 9.13 12.6a15.6 15.6 0 0 1-1.86-1.86m5.93-5.93 1.86 1.86-.41.41-1.86-1.86zm-.1 6.55V15h-12V1h9v2a1 1 0 0 0 1 1h.17l.57-.57A1.93 1.93 0 0 1 13 2.89L11.1 1l-1-1h-9a1 1 0 0 0-1 1v14a1 1 0 0 0 1 1h12a1 1 0 0 0 1-1v-4.64zm-2-8.95.59.59h-.59zm-6.17 9.28H3.1v-1h2.05zm-.44 2H3.1v-1h1.61zm3.1-6H3.1v-1h5.49zm-2 2H3.1v-1h3.49l-.91.9zm4-4H3.1v-1h7.48z"/></defs><view id="enabled" viewBox="0 0 16 16"/><use href="#icon-def" style="--05:#39b54a"/><view id="hover" viewBox="16 0 16 16"/><use x="16" href="#icon-def" style="--05:#79cc81"/><view id="active" viewBox="32 0 16 16"/><use x="32" href="#icon-def" style="--05:#2fa640"/><view id="disabled" viewBox="48 0 16 16"/><use x="48" href="#icon-def" style="--05:#a4a5a6"/></svg>