<svg xmlns="http://www.w3.org/2000/svg" data-scheme="multicolor" viewBox="0 0 16 16"><defs><path id="icon-def" fill="var(--06)" d="M15.55 10.75h-.05v-.84a3 3 0 0 0-6 0v.84a.38.38 0 0 0-.38.38v4.49a.38.38 0 0 0 .38.38h6.06a.38.38 0 0 0 .37-.38v-4.49a.38.38 0 0 0-.38-.38M13 13.21v1.2a.16.16 0 0 1-.17.16h-.63a.17.17 0 0 1-.17-.16v-1.2a.58.58 0 0 1-.12-.34.61.61 0 0 1 1.21 0 .58.58 0 0 1-.12.34m-2.43-2.46v-.84a2 2 0 1 1 4 0v.84zM5.21 7.42h4.23c-.254.3-.46.637-.61 1H5.21zm-2 4.94h4.52v1H3.21zm4.92-1.47H3.21v-1h5.33v.24a1.42 1.42 0 0 0-.41.76M5.21 5h4.52v1H5.21zm3 11H.85a.85.85 0 0 1-.85-.89V.89A.85.85 0 0 1 .85 0h14.22a.85.85 0 0 1 .85.85v7a3.9 3.9 0 0 0-1-1.13V1H1v14h7.11v.66q.002.174.05.34zm-5-13.52h4.52v1H3.21z"/></defs><view id="enabled" viewBox="0 0 16 16"/><use href="#icon-def" style="--06:#ed145b"/><view id="hover" viewBox="16 0 16 16"/><use x="16" href="#icon-def" style="--06:#f4608d"/><view id="active" viewBox="32 0 16 16"/><use x="32" href="#icon-def" style="--06:#dc105a"/><view id="disabled" viewBox="48 0 16 16"/><use x="48" href="#icon-def" style="--06:#a4a5a6"/></svg>