<svg xmlns="http://www.w3.org/2000/svg" data-scheme="multicolor" viewBox="0 0 16 16"><defs><path id="icon-def" fill="var(--04)" d="M13.54 11.39v.92H9.87v-.92zm0 1.84H9.87v.92h3.67zm1.84 1.87v-4.63a.91.91 0 0 0-.91-.9h-5.6a.91.91 0 0 0-.91.9v4.63a.9.9 0 0 0 .91.9h5.6a.9.9 0 0 0 .91-.9M9 10.57h5.42V15H9zM7 15.1V15h-.41v-1H7v-1H1.62V3.11h9v5.46h1V1.11a1 1 0 0 0-1-1h-9a1 1 0 0 0-1 1V15a1 1 0 0 0 1 1h5.6a1.86 1.86 0 0 1-.22-.9m-5.34-14h9v1H1.62zM5.6 15h-4v-1h4z"/></defs><view id="enabled" viewBox="0 0 16 16"/><use href="#icon-def" style="--04:#00a99d"/><view id="hover" viewBox="16 0 16 16"/><use x="16" href="#icon-def" style="--04:#7ccdc7"/><view id="active" viewBox="32 0 16 16"/><use x="32" href="#icon-def" style="--04:#00998c"/><view id="disabled" viewBox="48 0 16 16"/><use x="48" href="#icon-def" style="--04:#a4a5a6"/></svg>