<svg xmlns="http://www.w3.org/2000/svg" data-scheme="multicolor" viewBox="0 0 16 16"><defs><path id="icon-def" fill="var(--02)" d="M14.46 7.4H16l-.47 6.43h-.61zm.16 7.32h1.23v1.22h-1.23zm-.16-7.32H16l-.47 6.43h-.61zm.16 7.32h1.23v1.22h-1.23zm-.16-7.32H16l-.47 6.43h-.61zm.16 7.32h1.23v1.22h-1.23zm-.16-7.32H16l-.47 6.43h-.61zm.16 7.32h1.23v1.22h-1.23zM14 15.94h-1.53l.47-6.43h.61zm-.15-7.32h-1.23V7.4h1.23zm.15 7.32h-1.53l.47-6.43h.61zm-.15-7.32h-1.23V7.4h1.23zm.15 7.32h-1.53l.47-6.43h.61zm-.15-7.32h-1.23V7.4h1.23zm.15 7.32h-1.53l.47-6.43h.61zm-.15-7.32h-1.23V7.4h1.23zM11.47 15H1V1h9v2a1 1 0 0 0 1 1h2v2.4h1V4l-4-4H1a1 1 0 0 0-1 1v14a1 1 0 0 0 1 1h10.47zM11 2.41l.6.59H11z"/></defs><view id="enabled" viewBox="0 0 16 16"/><use href="#icon-def" style="--02:#605cab"/><view id="hover" viewBox="16 0 16 16"/><use x="16" href="#icon-def" style="--02:#9e9ecc"/><view id="active" viewBox="32 0 16 16"/><use x="32" href="#icon-def" style="--02:#484099"/><view id="disabled" viewBox="48 0 16 16"/><use x="48" href="#icon-def" style="--02:#a4a5a6"/></svg>