<svg xmlns="http://www.w3.org/2000/svg" data-scheme="multicolor" viewBox="0 0 16 16"><defs><path id="icon-def" fill="var(--03)" d="M10.31 12.85h1.18A4 4 0 0 1 9.8 14.6a6.4 6.4 0 0 1-3.19.73 7.4 7.4 0 0 1-3.14-.62 4.12 4.12 0 0 1-2-1.81 5.4 5.4 0 0 1-.65-2.61 5.9 5.9 0 0 1 .78-2.88 4.76 4.76 0 0 1 2-2c.9-.46 1.9-.69 2.91-.67A5.5 5.5 0 0 1 9 5.28a3.8 3.8 0 0 1 1.65 1.53A4.3 4.3 0 0 1 11.2 9a4.05 4.05 0 0 1-.87 2.54A3.32 3.32 0 0 1 7.55 13a1.2 1.2 0 0 1-.69-.16.76.76 0 0 1-.31-.46 2.1 2.1 0 0 1-1.49.62 2 2 0 0 1-1.52-.63 2.33 2.33 0 0 1-.6-1.67 4.16 4.16 0 0 1 .72-2.37A2.66 2.66 0 0 1 5.92 7a1.59 1.59 0 0 1 1.45.75l.14-.61H9l-.83 4a3.5 3.5 0 0 0-.08.49.28.28 0 0 0 .06.2.2.2 0 0 0 .16.07 1.3 1.3 0 0 0 .69-.39c.388-.296.7-.68.91-1.12a3.3 3.3 0 0 0 .34-1.46 3 3 0 0 0-1-2.27 3.83 3.83 0 0 0-2.73-.91A4.86 4.86 0 0 0 4 6.36a3.82 3.82 0 0 0-1.61 1.71 5.3 5.3 0 0 0-.52 2.3 4 4 0 0 0 .58 2.12 3.47 3.47 0 0 0 1.65 1.39c.774.3 1.6.446 2.43.43A6.4 6.4 0 0 0 8.79 14a3.5 3.5 0 0 0 1.52-1.15m-5.95-2.26c-.019.355.08.706.28 1a.91.91 0 0 0 .71.33c.207-.003.41-.058.59-.16a1.6 1.6 0 0 0 .41-.34 3 3 0 0 0 .5-1 3.8 3.8 0 0 0 .22-1.2 1.42 1.42 0 0 0-.29-.95A1 1 0 0 0 6.05 8a1.3 1.3 0 0 0-.88.36 2.2 2.2 0 0 0-.6 1.05 4.1 4.1 0 0 0-.21 1.18M6.51 3.8h.14a3.8 3.8 0 0 1 1.27-1.18A5 5 0 0 1 10.45 2a3.88 3.88 0 0 1 2.73.91 3 3 0 0 1 1 2.27 3.3 3.3 0 0 1-.34 1.46 3.1 3.1 0 0 1-.91 1.12 1.22 1.22 0 0 1-.68.32.21.21 0 0 1-.18-.08.28.28 0 0 1-.06-.2 3.5 3.5 0 0 1 .08-.49l.83-3.95h-1.45l-.14.64a1.59 1.59 0 0 0-1.45-.75A2.45 2.45 0 0 0 8.1 4c.447.097.88.248 1.29.45a1.3 1.3 0 0 1 .61-.21 1 1 0 0 1 .73.33c.219.285.322.642.29 1v.19q.24.292.43.62A5.3 5.3 0 0 1 12.14 9a1 1 0 0 1 0 .17 3.37 3.37 0 0 0 2.17-1.37 4 4 0 0 0 .87-2.53 4.33 4.33 0 0 0-.57-2.18 3.8 3.8 0 0 0-1.65-1.53A5.5 5.5 0 0 0 10.47 1a6.1 6.1 0 0 0-2.91.67 4.76 4.76 0 0 0-2 2c0 .07-.06.13-.1.2a9 9 0 0 1 1.05-.07m7.76 5.31a3.43 3.43 0 0 1-1.52 1.1 5 5 0 0 1-.83.22q-.174.591-.49 1.12a6.05 6.05 0 0 0 2.33-.69 4 4 0 0 0 1.69-1.75z"/></defs><view id="enabled" viewBox="0 0 16 16"/><use href="#icon-def" style="--03:#00746b"/><view id="hover" viewBox="16 0 16 16"/><use x="16" href="#icon-def" style="--03:#009187"/><view id="active" viewBox="32 0 16 16"/><use x="32" href="#icon-def" style="--03:#02645b"/><view id="disabled" viewBox="48 0 16 16"/><use x="48" href="#icon-def" style="--03:#a4a5a6"/></svg>