<svg xmlns="http://www.w3.org/2000/svg" viewBox="0 0 16 16"><defs><g id="a"><path fill="var(--c)" d="M4.8 13v1h-1v-1Zm-1-4v1h1V9Zm12-2a1 1 0 0 1-.16.51 1.06 1.06 0 0 1 .16.49v3a1 1 0 0 1-.15.5 1 1 0 0 1 .15.5v3a1 1 0 0 1-1 1h-12a1 1 0 0 1-1-1v-3a1 1 0 0 1 .16-.5 1 1 0 0 1-.16-.5V9.7h1V11h12V8H5.13V7h9.67V4H7a2.9 2.9 0 0 0 .36-1h7.44a1 1 0 0 1 1 1Zm-1 5h-12v3h12Z"/><path fill="var(--e)" d="M4 6.48H2.48v-.39a2.6 2.6 0 0 1 .24-1.19 3.55 3.55 0 0 1 1-1.06 7 7 0 0 0 .86-.77 1 1 0 0 0-.17-1.45 1.48 1.48 0 0 0-1-.35 1.56 1.56 0 0 0-1 .36 1.94 1.94 0 0 0-.58 1.09L.2 2.53A2.52 2.52 0 0 1 1.09.75 3.2 3.2 0 0 1 3.27 0a3.28 3.28 0 0 1 2.25.76 2.25 2.25 0 0 1 .84 1.73 1.9 1.9 0 0 1-.31 1 6.8 6.8 0 0 1-1.31 1.35 2.6 2.6 0 0 0-.65.7 2.4 2.4 0 0 0-.09.94M2.48 8.7V7.05h1.65V8.7Z"/></g></defs><view viewBox="0 0 16 16"/><use href="#a" style="--c:#00746b;--e:#39b54a"/><view viewBox="16 0 16 16"/><use x="16" href="#a" style="--c:#009187;--e:#79cc81"/><view viewBox="32 0 16 16"/><use x="32" href="#a" style="--c:#02645b;--e:#2fa640"/><view viewBox="48 0 16 16"/><use x="48" href="#a" style="--c:#3e3f42;--e:#3e3f42"/></svg>