<svg xmlns="http://www.w3.org/2000/svg" viewBox="0 0 16 16"><defs><path id="a" fill="var(--e)" d="M10.26 4.6a2.85 2.85 0 1 1-2.85 2.85 2.85 2.85 0 0 1 2.85-2.85m0 6.41c-1.91 0-5.71 1-5.71 2.85V16H16v-2.14C16 12 12.16 11 10.26 11m-2.52-.67a3.82 3.82 0 0 1-1.27-3.56h-.73C3.83 6.73 0 7.68 0 9.58v2.14h4.71a7.8 7.8 0 0 1 3.03-1.38ZM5.74 6a2.8 2.8 0 0 0 1-.2 3.86 3.86 0 0 1 1.69-1.72 3 3 0 0 0 .16-.91A2.85 2.85 0 1 0 5.74 6" data-name="--e"/></defs><view viewBox="0 0 16 16"/><use href="#a" style="--e:#39b54a"/><view viewBox="16 0 16 16"/><use x="16" href="#a" style="--e:#79cc81"/><view viewBox="32 0 16 16"/><use x="32" href="#a" style="--e:#2fa640"/><view viewBox="48 0 16 16"/><use x="48" href="#a" style="--e:#3e3f42"/></svg>