<svg xmlns="http://www.w3.org/2000/svg" viewBox="0 0 16 16"><defs><g id="a"><path fill="var(--b)" d="M8 9a1 1 0 0 0-1-1H1a1 1 0 0 0-1 1v6a1 1 0 0 0 1 1h6a1 1 0 0 0 1-1v-5Zm-1 6H1v-5h6Z"/><path fill="var(--e)" d="M16 9a1 1 0 0 0-1-1H9a1 1 0 0 0-1 1v6a1 1 0 0 0 1 1h6a1 1 0 0 0 1-1v-5Zm-1 6H9v-5h6Z"/><path fill="var(--g)" d="M12 1a1 1 0 0 0-1-1H5a1 1 0 0 0-1 1v6a1 1 0 0 0 1 1h6a1 1 0 0 0 1-1V2Zm-1 6H5V2h6Z"/></g></defs><view viewBox="0 0 16 16"/><use href="#a" style="--b:#605cab;--e:#39b54a;--g:#f26522"/><view viewBox="16 0 16 16"/><use x="16" href="#a" style="--b:#9e9ecc;--e:#79cc81;--g:#f59065"/><view viewBox="32 0 16 16"/><use x="32" href="#a" style="--b:#484099;--e:#2fa640;--g:#e75e1e"/><view viewBox="48 0 16 16"/><use x="48" href="#a" style="--b:#3e3f42;--e:#3e3f42;--g:#3e3f42"/></svg>