<svg xmlns="http://www.w3.org/2000/svg" viewBox="0 0 16 16"><defs><path id="a" fill="var(--e)" d="M15 0H1a1 1 0 0 0-1 1v14a1 1 0 0 0 1 1h14a1 1 0 0 0 1-1V1a1 1 0 0 0-1-1M1 15V4h14v11ZM11 5H2v7h8v2h4V5zM3 6h7v1H3Zm0 2h7v1H3Zm0 3v-1h7v1Zm10 2h-2v-1h2Zm0-2h-2v-1h2Zm0-2h-2V8h2Zm0-2h-2V6h2Z"/></defs><view viewBox="0 0 16 16"/><use href="#a" style="--e:#39b54a"/><view viewBox="16 0 16 16"/><use x="16" href="#a" style="--e:#79cc81"/><view viewBox="32 0 16 16"/><use x="32" href="#a" style="--e:#2fa640"/><view viewBox="48 0 16 16"/><use x="48" href="#a" style="--e:#3e3f42"/></svg>