<svg xmlns="http://www.w3.org/2000/svg" data-scheme="multicolor" viewBox="0 0 16 16"><defs><path id="icon-def" fill="var(--06)" d="M4.74 5.67H3.6v-1h1.14zm7.26-1H5.6v1H12zm-7.26 3H3.6v1h1.14zm0 3H3.6v1h1.14zm11.33 1.07a4.07 4.07 0 1 0-8.138-.02 4.07 4.07 0 0 0 8.138.02m-1 0a3.07 3.07 0 1 1-6.14 0 3.07 3.07 0 0 1 6.14 0m-.72-.91-.69-.72-2.28 2.18-1-1.07-.72.69 1.7 1.8zM9.21 16H2a1 1 0 0 1-1-1V1a1 1 0 0 1 1-1h9l4 4v3.66a5.3 5.3 0 0 0-1-.59V4h-2a1 1 0 0 1-1-1V1H2v14h6.13c.31.383.674.72 1.08 1M12 3h.58L12 2.37zM9 7.67H5.6v1H8a4.8 4.8 0 0 1 1-1m-2 3H5.6v1h1.34a5.5 5.5 0 0 1 .11-1z"/></defs><view id="enabled" viewBox="0 0 16 16"/><use href="#icon-def" style="--06:#f4608d"/><view id="hover" viewBox="16 0 16 16"/><use x="16" href="#icon-def" style="--06:#f78ead"/><view id="active" viewBox="32 0 16 16"/><use x="32" href="#icon-def" style="--06:#f03d73"/><view id="disabled" viewBox="48 0 16 16"/><use x="48" href="#icon-def" style="--06:#3e3f42"/></svg>