<svg viewBox="0 0 16 16" xmlns="http://www.w3.org/2000/svg" data-scheme="monochrome"><defs><g id="icon-def"><path fill="var(--color)" d="M3.556 3.778h2v-2h-2zm4 0h2v-2h-2zm4 0h2v-2h-2zm-8 4h2v-2h-2zm4 0h2v-2h-2zm4 0h2v-2h-2zm-8 4h2v-2h-2zm4 0h2v-2h-2zm4 0h2v-2h-2zm-8 4h2v-2h-2zm4 0h2v-2h-2zm4 0h2v-2h-2z"/></g></defs><view id="primary-disabled" viewBox="0 0 16 16"/><use href="#icon-def" x="0" y="0" style="--color:#B3B3B3"/><view id="on-primary" viewBox="16 0 16 16"/><use href="#icon-def" x="16" y="0" style="--color:#CCCCCC"/><view id="on-primary-hover" viewBox="32 0 16 16"/><use href="#icon-def" x="32" y="0" style="--color:#437DC0"/><view id="on-primary-active" viewBox="48 0 16 16"/><use href="#icon-def" x="48" y="0" style="--color:#363636"/><view id="on-disabled" viewBox="64 0 16 16"/><use href="#icon-def" x="64" y="0" style="--color:#7F7F7F"/><view id="neutral" viewBox="80 0 16 16"/><use href="#icon-def" x="80" y="0" style="--color:#616161"/></svg>