<svg xmlns="http://www.w3.org/2000/svg" width="16" height="16" fill="none" viewBox="0 0 16 16">
  <path stroke="#999" stroke-linecap="square" stroke-linejoin="round" stroke-width="1.2" d="m1.778.889 12.8 12.889"/>
  <path stroke="#999" stroke-linejoin="round" stroke-width="1.2" d="M13.333 10.4c.89-.8 1.6-1.867 2.045-3.022-1.156-3.022-3.911-5.067-7.29-5.067-.888 0-1.777.178-2.488.445"/>
  <path stroke="#999" stroke-linecap="square" stroke-linejoin="round" stroke-width="1.2" d="M8.178 5.156c.622 0 1.155.266 1.6.622.444.444.622.978.622 1.51m-.711 1.601a2.082 2.082 0 0 1-1.511.622c-.534 0-1.156-.267-1.511-.622-.445-.356-.711-.978-.711-1.511 0-.622.266-1.156.622-1.511"/>
  <path stroke="#999" stroke-linejoin="round" stroke-width="1.2" d="M4.178 3.378c-1.511.889-2.667 2.31-3.29 4 1.156 3.022 3.912 5.066 7.29 5.066 1.51 0 2.844-.444 4-1.155m-1.867-3.911c0-.622-.267-1.156-.622-1.6a2.082 2.082 0 0 0-1.511-.622"/>
  <path stroke="#999" stroke-linecap="square" stroke-linejoin="round" stroke-width="1.2" d="M6.667 5.867a1.899 1.899 0 0 0-.711 1.51c0 .623.266 1.156.622 1.512.444.444.978.622 1.51.622.534 0 1.156-.267 1.512-.622"/>
</svg>
