<svg xmlns="http://www.w3.org/2000/svg" data-scheme="multicolor" viewBox="0 0 16 16"><defs><g id="icon-def"><path fill="var(--04)" d="M7.2 5.26H5.43A.28.28 0 0 1 5.16 5V3.23A.28.28 0 0 1 5.43 3H7.2a.28.28 0 0 1 .27.27V5a.28.28 0 0 1-.27.26M11 8.85V7.09a.27.27 0 0 0-.27-.27H9a.27.27 0 0 0-.27.27v1.76a.27.27 0 0 0 .27.27h1.76a.27.27 0 0 0 .24-.27"/><path fill="var(--08)" d="M10.73 5.26H9A.27.27 0 0 1 8.7 5V3.23A.27.27 0 0 1 9 3h1.76a.27.27 0 0 1 .27.27V5a.27.27 0 0 1-.3.26m-3.26 7.46V11a.28.28 0 0 0-.27-.27H5.43a.28.28 0 0 0-.27.27v1.77a.28.28 0 0 0 .27.27H7.2a.28.28 0 0 0 .27-.32"/><path fill="var(--01)" d="M7.2 9.12H5.43a.28.28 0 0 1-.27-.27V7.09a.28.28 0 0 1 .27-.27H7.2a.28.28 0 0 1 .27.27v1.76a.28.28 0 0 1-.27.27m3.8 3.6V11a.28.28 0 0 0-.27-.27H9a.28.28 0 0 0-.3.27v1.77A.28.28 0 0 0 9 13h1.76a.28.28 0 0 0 .24-.28"/><path stroke="var(--09)" d="M12.31 15.45H3.86a.68.68 0 0 1-.68-.69V1.19A.68.68 0 0 1 3.86.5h8.45a.69.69 0 0 1 .68.69v13.57a.69.69 0 0 1-.68.69Z" style="fill:transparent"/></g></defs><view id="enabled" viewBox="0 0 16 16"/><use href="#icon-def" style="--04:#00a99d;--08:#f7941d;--01:#0266a0;--09:#616164"/><view id="hover" viewBox="16 0 16 16"/><use x="16" href="#icon-def" style="--04:#7ccdc7;--08:#fab454;--01:#2088c2;--09:#828385"/><view id="active" viewBox="32 0 16 16"/><use x="32" href="#icon-def" style="--04:#00998c;--08:#f3891b;--01:#004a81;--09:#3e3f42"/><view id="disabled" viewBox="48 0 16 16"/><use x="48" href="#icon-def" style="--04:#a4a5a6;--08:#a4a5a6;--01:#a4a5a6;--09:#a4a5a6"/></svg>